<?xml version="1.0" standalone="no"?>
<!DOCTYPE svg PUBLIC "-//W3C//DTD SVG 1.1//EN" "http://www.w3.org/Graphics/SVG/1.1/DTD/svg11.dtd" >
<svg xmlns="http://www.w3.org/2000/svg">
<metadata>Generated by IcoMoon</metadata>
<defs>
<font id="icomoon" horiz-adv-x="1024">
<font-face units-per-em="1024" ascent="960" descent="-64" />
<missing-glyph horiz-adv-x="1024" />
<glyph unicode="&#x20;" horiz-adv-x="512" d="" />
<glyph unicode="&#xe900;" glyph-name="angle-up" d="M10.259 210.98l51.297-51.293c6.836-6.85 14.709-10.264 23.611-10.264 8.88 0 16.75 3.414 23.586 10.264l403.25 403.229 403.232-403.218c6.839-6.85 14.709-10.264 23.6-10.264 8.895 0 16.764 3.414 23.6 10.264l51.29 51.297c6.85 6.836 10.264 14.705 10.264 23.6 0 8.888-3.425 16.757-10.264 23.593l-478.123 478.134c-6.836 6.839-14.709 10.257-23.6 10.257s-16.75-3.418-23.582-10.257l-478.163-478.134c-6.836-6.839-10.232-14.709-10.232-23.593 0-8.895 3.396-16.764 10.232-23.614z" />
<glyph unicode="&#xe901;" glyph-name="angle-right" d="M274.971 949.768l-51.295-51.299c-6.85-6.836-10.264-14.71-10.264-23.612 0-8.88 3.414-16.751 10.264-23.587l403.244-403.265-403.233-403.247c-6.85-6.839-10.264-14.71-10.264-23.601 0-8.895 3.414-16.765 10.264-23.601l51.299-51.292c6.836-6.85 14.706-10.264 23.601-10.264 8.888 0 16.758 3.425 23.594 10.264l478.151 478.14c6.839 6.836 10.257 14.71 10.257 23.601s-3.418 16.751-10.257 23.583l-478.151 478.18c-6.839 6.836-14.71 10.232-23.594 10.232-8.895 0-16.765-3.396-23.615-10.232z" />
<glyph unicode="&#xe902;" glyph-name="angle-down" d="M1013.768 685.029l-51.299 51.295c-6.836 6.85-14.71 10.264-23.612 10.264-8.88 0-16.751-3.414-23.587-10.264l-403.265-403.244-403.247 403.233c-6.839 6.85-14.71 10.264-23.601 10.264-8.895 0-16.765-3.414-23.601-10.264l-51.292-51.299c-6.85-6.836-10.264-14.706-10.264-23.601 0-8.888 3.425-16.758 10.264-23.594l478.14-478.151c6.836-6.839 14.71-10.257 23.601-10.257s16.751 3.418 23.583 10.257l478.18 478.151c6.836 6.839 10.232 14.71 10.232 23.594 0 8.895-3.396 16.765-10.232 23.615z" />
<glyph unicode="&#xe903;" glyph-name="angle-left" d="M749.029-53.768l51.295 51.299c6.85 6.836 10.264 14.71 10.264 23.612 0 8.88-3.414 16.751-10.264 23.587l-403.244 403.265 403.233 403.247c6.85 6.839 10.264 14.71 10.264 23.601 0 8.895-3.414 16.765-10.264 23.601l-51.299 51.292c-6.836 6.85-14.706 10.264-23.601 10.264-8.888 0-16.758-3.425-23.594-10.264l-478.151-478.14c-6.839-6.836-10.257-14.71-10.257-23.601s3.418-16.751 10.257-23.583l478.151-478.18c6.839-6.836 14.71-10.232 23.594-10.232 8.895 0 16.765 3.396 23.615 10.232z" />
<glyph unicode="&#xe904;" glyph-name="search" d="M1015.013-11.752l-248.839 248.839c66.751 76.74 107.164 176.867 107.164 286.301 0 240.892-195.938 436.603-436.603 436.603-240.892 0-436.603-195.938-436.603-436.603s195.938-436.603 436.603-436.603c109.435 0 209.56 40.414 286.301 107.164l248.839-248.839c5.903-5.903 13.849-9.082 21.569-9.082s15.666 2.952 21.569 9.082c11.807 11.807 11.807 31.332 0 43.138zM61.206 523.387c0 207.063 168.466 375.301 375.301 375.301 207.063 0 375.301-168.466 375.301-375.301s-168.239-375.528-375.301-375.528c-206.835 0-375.301 168.466-375.301 375.528z" />
<glyph unicode="&#xe905;" glyph-name="facebook" d="M828.547 957.874h-637.343c-106.224 0-191.203-84.979-191.203-191.203v-641.592c0-101.975 84.979-186.954 191.203-186.954h641.592c106.224 0 191.203 84.979 191.203 191.203v637.343c-4.249 106.224-89.228 191.203-195.452 191.203zM641.593 448h-84.979v-305.925h-127.469v305.925h-63.734v106.224h63.734v63.734c0 84.979 33.991 135.966 135.966 135.966h84.979v-106.224h-50.987c-38.241 0-42.49-12.747-42.49-42.49v-50.987h93.477l-8.498-106.224z" />
<glyph unicode="&#xe906;" glyph-name="instagram" d="M511.991 712.537c-145.064 0-264.528-119.465-264.528-264.528s119.465-264.528 264.528-264.528 264.528 119.465 264.528 264.528-119.465 264.528-264.528 264.528zM511.991 281.612c-93.865 0-170.664 76.799-170.664 170.664s76.799 170.664 170.664 170.664 170.664-76.799 170.664-170.664-76.799-170.664-170.664-170.664zM844.785 721.071c0-32.989-26.744-59.732-59.732-59.732s-59.732 26.744-59.732 59.732c0 32.989 26.744 59.732 59.732 59.732s59.732-26.744 59.732-59.732zM942.916 874.668c-55.466 55.466-127.998 85.331-217.596 85.331h-426.659c-179.197 0-298.662-119.465-298.662-298.662v-422.392c0-89.598 29.866-166.397 85.331-221.863s127.998-81.066 213.329-81.066h422.392c89.598 0 162.13 29.866 217.596 81.066 55.466 55.466 85.331 127.998 85.331 217.596v426.659c0 85.331-29.866 162.13-81.066 213.329zM934.383 234.68c0-63.999-21.333-115.198-59.732-149.33s-89.598-55.466-149.33-55.466h-422.392c-63.999 0-115.198 17.067-149.33 55.466-38.399 38.399-55.466 89.598-55.466 153.597v422.392c0 63.999 17.067 115.198 55.466 149.33 34.132 34.132 89.598 55.466 149.33 55.466h426.659c63.999 0 115.198-17.067 149.33-55.466s55.466-89.598 55.466-149.33v-426.659z" />
<glyph unicode="&#xe907;" glyph-name="telegram" d="M1019.822 798.769l-153.766-730.388c-12.814-51.255-42.713-64.069-85.425-38.441l-234.92 175.122-115.324-111.053c-12.814-12.814-21.356-21.356-46.984-21.356l17.085 239.191 435.67 392.957c17.085 17.085-4.272 25.628-29.899 8.542l-538.181-341.702-230.649 76.883c-51.255 17.085-51.255 51.255 8.542 76.883l909.781 350.245c42.713 12.814 81.155-12.814 64.069-76.883z" />
<glyph unicode="&#xe908;" glyph-name="twitch" d="M91.742 960l-68.266-179.197v-712.52h243.196v-132.265h132.265l132.265 132.265h200.529l268.795 268.795v622.922h-908.783zM181.34 870.401h733.854v-490.658l-157.864-157.864h-243.196l-132.265-132.265v132.265h-200.529v648.521zM424.536 426.676h89.598v264.528h-89.598v-264.528zM667.731 426.676h89.598v264.528h-89.598v-264.528z" />
<glyph unicode="&#xe909;" glyph-name="twitter" d="M1023.982 765.051c-38.559-17.138-77.119-29.991-119.963-34.275 42.844 25.706 77.119 68.55 94.256 115.678-42.844-25.706-85.687-42.844-132.816-51.412-38.559 42.844-94.256 68.55-154.237 68.55-115.678 0-209.935-94.256-209.935-209.935 0-17.138 0-34.275 4.285-47.128-179.944 8.568-334.181 94.256-437.006 222.788-21.422-34.275-29.991-68.55-29.991-107.11 0-72.834 38.559-137.1 94.256-175.659-34.275 0-68.55 8.568-94.256 25.706 0 0 0 0 0-4.285 0-102.825 72.834-188.512 171.375-205.65-17.138-4.285-34.275-8.568-55.697-8.568-12.853 0-25.706 0-38.559 4.285 25.706-85.687 102.825-145.669 197.081-145.669-72.834-55.697-162.806-89.972-261.347-89.972-17.138 0-34.275 0-51.412 4.285 94.256-59.981 205.65-94.256 321.328-94.256 389.878 0 599.812 321.328 599.812 599.812 0 8.568 0 17.138 0 25.706 38.559 29.991 72.834 68.55 102.825 107.11z" />
<glyph unicode="&#xe90a;" glyph-name="youtube" d="M1015.44 652.793c0 0-8.533 72.53-42.665 102.396-38.399 42.665-81.064 42.665-102.396 42.665-145.062 8.533-358.387 8.533-358.387 8.533v0c0 0-213.325 0-358.387-8.533-21.332-4.267-63.998-4.267-102.396-42.665-29.866-29.866-42.665-102.396-42.665-102.396s-8.533-81.064-8.533-166.394v-76.797c0-81.064 8.533-166.394 8.533-166.394s8.533-72.53 42.665-102.396c38.399-42.665 89.597-38.399 110.929-42.665 81.064-8.533 349.854-8.533 349.854-8.533s213.325 0 358.387 12.8c21.332 4.267 63.998 4.267 102.396 42.665 29.866 29.866 42.665 102.396 42.665 102.396s8.533 81.064 8.533 166.394v76.797c0 81.064-8.533 162.127-8.533 162.127zM405.328 315.738v285.857l277.323-145.062-277.323-140.795z" />
<glyph unicode="&#xe90b;" glyph-name="ticket" d="M620.789 960l83.198-83.198c-63.999-63.999-63.999-172.797 0-236.796s172.797-63.999 236.796 0l83.198-83.198-620.789-620.789-83.198 83.198c63.999 63.999 63.999 172.797 0 236.796s-172.797 63.999-236.796 0l-83.198 83.198 620.789 620.789z" />
<glyph unicode="&#xe90c;" glyph-name="cart" d="M902.393 256.013h-652.788l-127.998 601.589h-108.798v102.398h191.996l51.199-223.996h755.186l-108.798-479.991zM352.003-63.982c51.199 0 95.998 44.799 95.998 102.398s-44.799 102.398-102.398 102.398-102.398-44.799-102.398-102.398c6.4-57.599 51.199-102.398 108.798-102.398v0zM780.795-63.982c57.599 0 102.398 44.799 102.398 102.398s-44.799 102.398-102.398 102.398c-57.599 0-102.398-44.799-102.398-102.398 6.4-57.599 51.199-102.398 102.398-102.398v0z" />
<glyph unicode="&#xe90d;" glyph-name="facebook2" d="M767.965 959.787l-132.79 0.213c-149.185 0-245.595-98.913-245.595-252.008v-116.192h-133.514c-11.537 0-20.88-9.353-20.88-20.891v-168.35c0-11.537 9.353-20.88 20.88-20.88h133.514v-424.8c0-11.537 9.343-20.88 20.88-20.88h174.198c11.537 0 20.88 9.353 20.88 20.88v424.8h156.109c11.537 0 20.88 9.343 20.88 20.88l0.064 168.35c0 5.54-2.205 10.845-6.115 14.765s-9.236 6.125-14.776 6.125h-156.163v98.498c0 47.342 11.282 71.375 72.952 71.375l89.453 0.032c11.527 0 20.869 9.353 20.869 20.88v156.322c0 11.516-9.332 20.859-20.848 20.88z" />
<glyph unicode="&#xe90e;" glyph-name="message" d="M902.463 836.876h-780.923c-67.017 0-121.54-52.361-121.54-116.719v-544.314c0-64.358 54.523-116.719 121.54-116.719h780.923c67.017 0 121.537 52.361 121.537 116.719v544.314c0 64.358-54.521 116.719-121.537 116.719zM902.463 162.168h-780.923c-9.851 0-18.491 6.389-18.491 13.675v472.338l353.191-298.182c7.241-6.115 16.449-9.481 25.93-9.481l59.65-0.003c9.476 0 18.689 3.369 25.932 9.484l353.207 298.193v-472.354c-0.005-7.281-8.648-13.67-18.496-13.67zM512.001 442.832l-343.522 291h687.044l-343.522-291z" />
<glyph unicode="&#xe90f;" glyph-name="pinterest" d="M511.999 959.978c70.77 0 137.302-13.453 199.592-40.362 62.296-26.907 116.478-63.399 162.552-109.473s82.563-100.259 109.473-162.55c26.907-62.291 40.362-128.824 40.362-199.594s-13.451-137.3-40.365-199.594c-26.907-62.296-63.399-116.474-109.473-162.548s-100.254-82.566-162.552-109.473c-62.287-26.907-128.819-40.365-199.589-40.365-25.801 0-50.682 1.845-74.639 5.533s-47.364 8.846-70.216 15.482c9.584 15.478 19.166 32.623 28.75 51.419 9.584 18.792 16.955 38.144 22.117 58.051 1.474 5.158 3.687 14.007 6.636 26.54 2.949 10.322 6.636 24.512 11.058 42.573s10.689 41.833 18.799 71.323c8.846-16.957 24.881-31.7 48.103-44.229 23.227-12.536 48.84-18.799 76.854-18.799 41.282 0 78.881 8.846 112.789 26.54 33.915 17.693 63.028 42.205 87.357 73.536 24.332 31.332 43.125 68.373 56.4 111.13 13.268 42.757 19.904 89.199 19.904 139.329 0 37.595-7.743 74.089-23.221 109.473-15.482 35.386-37.23 66.714-65.242 93.993s-62.105 49.023-102.282 65.24c-40.174 16.217-84.589 24.327-133.246 24.327-61.186 0-114.631-9.769-160.337-29.303s-83.669-44.785-113.896-75.747-53.077-65.424-68.557-103.392c-15.482-37.965-23.221-75.009-23.221-111.13 0-44.231 8.476-84.222 25.432-119.979 16.955-35.752 43.495-61.002 79.616-75.747 5.897-2.218 11.243-2.218 16.036 0 4.792 2.214 7.925 6.636 9.4 13.268 1.474 4.424 3.133 11.060 4.977 19.904 1.844 8.846 3.503 15.852 4.977 21.011 1.474 6.636 1.844 11.613 1.105 14.93s-3.317 7.927-7.741 13.819c-10.32 12.536-18.615 26.722-24.881 42.573-6.266 15.847-9.4 35.196-9.4 58.051 0 32.437 5.897 63.399 17.691 92.885s28.565 55.474 50.312 77.957c21.748 22.483 48.103 40.362 79.062 53.631s65.978 19.904 105.046 19.904c33.917 0 64.135-4.977 90.681-14.928 26.54-9.95 49.021-23.591 67.453-40.913 18.428-17.325 32.252-37.965 41.465-61.924s13.819-49.944 13.819-77.957c0-36.86-3.87-71.876-11.609-105.046-7.743-33.174-18.799-62.109-33.174-86.804s-31.509-44.231-51.416-58.611c-19.904-14.378-42.021-21.563-66.35-21.563-13.268 0-25.616 2.579-37.044 7.739-11.428 5.158-20.823 12.16-28.197 21.011-7.371 8.844-12.717 19.348-16.036 31.509-3.317 12.163-3.133 24.883 0.554 38.147 3.687 16.222 8.11 32.623 13.268 49.207s10.135 32.623 14.926 48.104c4.792 15.474 8.846 30.407 12.163 44.783s4.977 27.46 4.977 39.254c0 21.378-5.712 39.624-17.14 54.736-11.426 15.112-28.932 22.668-52.524 22.668-13.268 0-25.986-3.317-38.149-9.95s-22.668-16.036-31.513-28.199-15.85-26.355-21.009-42.572-7.741-33.541-7.741-51.971c0-9.584 0.738-19.166 2.213-28.748 1.474-8.11 3.133-16.773 4.977-25.991 1.844-9.215 4.977-17.877 9.4-25.988-14.742-59.71-26.17-107.814-34.281-144.299-8.11-36.489-14.742-64.694-19.904-84.593-5.897-23.589-9.95-40.545-12.163-50.866-4.422-19.16-7.187-39.068-8.295-59.71s-1.289-39.81-0.554-57.499c-44.969 19.908-86.252 45.706-123.847 77.41s-69.848 67.817-96.756 108.367c-26.907 40.545-47.918 84.777-63.030 132.691-15.117 47.915-22.673 98.043-22.673 150.38 0 70.77 13.453 137.3 40.362 199.594s63.399 116.476 109.473 162.55 100.259 82.565 162.55 109.473c62.289 26.907 128.822 40.362 199.592 40.362z" />
<glyph unicode="&#xe910;" glyph-name="right-arrow" d="M1007.633 487.786l-369.803 369.811c-10.556 10.556-24.626 16.351-39.628 16.351-15.019 0-29.080-5.803-39.636-16.351l-33.575-33.584c-10.548-10.54-16.359-24.617-16.359-39.628 0-15.002 5.811-29.554 16.359-40.094l215.738-216.212h-685.408c-30.903 0-55.321-24.193-55.321-55.104v-47.478c0-30.911 24.418-57.543 55.321-57.543h687.856l-218.177-217.419c-10.548-10.556-16.359-24.251-16.359-39.261 0-14.994 5.811-28.888 16.359-39.436l33.575-33.475c10.556-10.556 24.617-16.309 39.636-16.309 15.002 0 29.071 5.828 39.628 16.384l369.803 369.803c10.581 10.59 16.401 24.726 16.359 39.753 0.033 15.077-5.778 29.221-16.367 39.794z" />
<glyph unicode="&#xe911;" glyph-name="left-arrow" d="M16.367 408.214l369.803-369.811c10.556-10.556 24.626-16.351 39.628-16.351 15.019 0 29.080 5.803 39.636 16.351l33.575 33.584c10.548 10.54 16.359 24.617 16.359 39.628 0 15.002-5.811 29.554-16.359 40.094l-215.738 216.212h685.408c30.903 0 55.321 24.193 55.321 55.104v47.478c0 30.911-24.418 57.543-55.321 57.543h-687.856l218.177 217.419c10.548 10.556 16.359 24.251 16.359 39.261 0 14.994-5.811 28.888-16.359 39.436l-33.575 33.475c-10.556 10.556-24.617 16.309-39.636 16.309-15.002 0-29.071-5.828-39.628-16.384l-369.803-369.803c-10.581-10.59-16.401-24.726-16.359-39.753-0.033-15.077 5.778-29.221 16.367-39.794z" />
<glyph unicode="&#xe912;" glyph-name="share" d="M820.396 236.16c-39.039 0-73.984-15.317-100.608-39.466l-366.636 213.248c2.646 11.818 4.693 23.723 4.693 36.011s-2.090 24.15-4.693 36.011l362.496 211.244c27.648-25.6 64.213-41.599 104.747-41.599 85.461 0 154.326 68.736 154.326 154.197 0 85.289-68.908 154.195-154.326 154.195-85.291 0-154.197-68.906-154.197-154.154 0-12.458 2.090-24.15 4.693-36.011l-362.498-211.413c-27.691 25.727-64.213 41.685-104.79 41.685-85.461 0-154.326-68.865-154.326-154.154s68.865-154.197 154.326-154.197c40.533 0 77.1 16.001 104.747 41.599l365.995-213.718c-2.517-10.881-4.097-22.229-4.097-33.537 0-82.774 67.455-150.102 150.102-150.102 82.731 0 150.229 67.286 150.229 150.102s-67.453 150.059-150.184 150.059z" />
<glyph unicode="&#xe913;" glyph-name="notification" d="M935.6 96.32l-73.255 122.108c-33.833 56.36-51.71 120.914-51.71 186.617v106.962c0 135.035-90.109 249.249-213.326 286.070v76.583c0 47.060-38.271 85.331-85.331 85.331s-85.331-38.271-85.331-85.331v-76.583c-123.215-36.821-213.324-151.034-213.324-286.070v-106.962c0-65.704-17.877-130.213-51.668-186.575l-73.255-122.108c-3.968-6.614-4.054-14.805-0.256-21.503s10.838-10.838 18.517-10.838h810.636c7.68 0 14.761 4.138 18.559 10.794 3.798 6.658 3.67 14.935-0.256 21.505zM377.626 21.359c24.063-50.26 75.005-85.331 134.351-85.331s110.29 35.071 134.353 85.331h-268.704z" />
<glyph unicode="&#xe914;" glyph-name="appearance" d="M747.356-11.093h-469.385c-30.551 0-55.549 24.997-55.549 55.549v338.846c-11.11 0-24.997 0-33.329 8.332-2.777 2.777-97.21 55.549-138.872 80.545l-22.219 11.11c-27.774 16.664-36.106 49.994-19.442 77.768l147.204 255.523c5.555 11.11 16.664 19.442 30.551 24.997l152.759 61.104c24.997 11.11 52.771 0 66.658-19.442l108.319-144.427 108.319 147.204c16.664 19.442 44.438 24.997 69.436 13.887l152.759-61.104c11.11-5.555 22.219-13.887 27.774-24.997l144.427-252.746c8.332-13.887 8.332-27.774 5.555-41.661s-13.887-27.774-24.997-33.329l-158.314-91.655c-11.11-5.555-22.219-8.332-33.329-8.332v-341.624c0-30.551-27.774-55.549-58.326-55.549zM305.745 72.229h416.614v574.927l99.987-172.201 111.097 63.881-127.761 222.194-127.761 52.771-163.868-219.416-163.868 219.416-127.761-49.994-127.761-222.194c61.104-33.329 94.432-52.771 111.097-63.881l99.987 169.423v-574.927zM216.868 761.031v0c-2.777 0 0 0 0 0zM658.479 824.912c0 0 0-2.777 0 0v0zM339.075 833.244c0 0 0-2.777 0 0v0z" />
<glyph unicode="&#xe915;" glyph-name="appearance-full" horiz-adv-x="1126" d="M562.991 825.453l159.938 134.348 217.515-76.77 185.528-217.515-179.13-166.335-95.963 89.565v-652.546h-582.173v652.546l-89.565-89.565-179.13 166.335 185.528 217.515 211.118 76.77z" />
<glyph unicode="&#xe916;" glyph-name="minutes" d="M511.993-64c-238.933 0-431.321 192.388-431.321 431.321s192.388 431.321 431.321 431.321c238.933 0 431.321-192.388 431.321-431.321s-192.388-431.321-431.321-431.321zM511.993 705.552c-186.182 0-338.23-152.048-338.23-338.23s152.048-338.23 338.23-338.23c186.182 0 338.23 152.048 338.23 338.23s-152.048 338.23-338.23 338.23zM511.993 367.321v273.067c148.945 0 273.067-121.018 273.067-273.067 0-46.545-12.412-89.988-34.133-130.327l-238.933 130.327zM403.387 960h217.212v-93.091h-217.212v93.091z" />
<glyph unicode="&#xe917;" glyph-name="star" d="M536.205 920.158l130.249-308.277 333.454-28.646c23.127-1.997 32.536-30.854 14.98-46.044l-252.929-219.131 75.794-325.99c5.256-22.654-19.29-40.473-39.159-28.436l-286.569 172.825-286.569-172.825c-19.921-11.985-44.415 5.835-39.159 28.436l75.794 325.99-252.982 219.184c-17.555 15.19-8.2 44.047 14.98 46.044l333.454 28.646 130.249 308.225c9.041 21.445 39.369 21.445 48.409 0z" />
<glyph unicode="&#xe918;" glyph-name="more" d="M512 960c-282.317 0-512-229.683-512-512s229.683-512 512-512 512 229.683 512 512-229.683 512-512 512zM263.758 370.424c-42.775 0-77.576 34.8-77.576 77.576s34.8 77.576 77.576 77.576 77.576-34.8 77.576-77.576-34.8-77.576-77.576-77.576zM512 370.424c-42.775 0-77.576 34.8-77.576 77.576s34.8 77.576 77.576 77.576 77.576-34.8 77.576-77.576-34.8-77.576-77.576-77.576zM760.242 370.424c-42.775 0-77.576 34.8-77.576 77.576s34.8 77.576 77.576 77.576c42.775 0 77.576-34.8 77.576-77.576s-34.8-77.576-77.576-77.576z" />
<glyph unicode="&#xe919;" glyph-name="google" d="M522.333 521.335h483.334q8-44.667 8-85.334 0-144.667-60.667-258.334t-173-177.667-257.667-64q-104.666 0-199.333 40.333t-163.333 109.001-109.001 163.333-40.333 199.333 40.333 199.333 109.001 163.333 163.333 109.001 199.333 40.333q200.001 0 343.334-134l-139.334-134q-82 79.333-204 79.333-86 0-159-43.334t-115.667-117.667-42.666-162.334 42.666-162.334 115.667-117.667 159-43.334q58 0 106.667 16t80 40 54.667 54.667 34.334 58 15 52h-290.667v176z" />
<glyph unicode="&#xe91a;" glyph-name="play" d="M409.6 217.6l307.2 230.4-307.2 230.4v-460.8zM512 960c-281.6 0-512-230.4-512-512s230.4-512 512-512c281.6 0 512 230.4 512 512s-230.4 512-512 512v0zM512 38.4c-225.28 0-409.6 184.32-409.6 409.6s184.32 409.6 409.6 409.6c225.28 0 409.6-184.32 409.6-409.6s-184.32-409.6-409.6-409.6v0z" />
<glyph unicode="&#xe91b;" glyph-name="rotate" d="M223.515 315.164l-22.401 103.94c-2.598 12.096-14.381 19.578-26.612 17.204-12.096-2.643-19.757-14.516-17.159-26.657l11.604-53.807c-77.955 54.299-124.145 141.17-124.145 237.762 0 12.365-10.036 22.401-22.401 22.401s-22.401-10.036-22.401-22.401c0-104.164 48.834-202.010 129.745-265.046l-63.887-3.808c-12.365-0.762-21.774-11.335-21.012-23.7 0.717-11.872 10.573-21.057 22.356-21.057 0.448 0 0.896 0 1.344 0.045l134.405 8.064c6.541 0.403 12.544 3.584 16.532 8.781 3.943 5.197 5.421 11.917 4.032 18.279zM902.363 559.977l59.894 3.57c11.592 0.714 20.413 10.626 19.699 22.219-0.672 11.13-9.912 19.741-20.959 19.741-0.42 0-0.84 0-1.26-0.042l-126.005-7.56c-6.132-0.378-11.76-3.36-15.499-8.232-3.696-4.872-5.082-11.172-3.78-17.137l21.001-97.444c2.436-11.34 13.483-18.355 24.949-16.129 11.34 2.478 18.523 13.609 16.087 24.991l-10.836 50.444c73.041-50.906 116.345-132.347 116.345-222.903 0-11.592 9.408-21.001 21.001-21.001s21.001 9.408 21.001 21.001c0 97.654-45.782 189.386-121.637 248.482zM776.007 128.003v639.994c0 35.299-28.692 63.99-63.99 63.99h-384.033c-35.299 0-63.99-28.692-63.99-63.99v-639.994c0-35.299 28.692-63.99 63.99-63.99h384.033c35.299 0 63.99 28.692 63.99 63.99zM327.984 191.993v512.013h384.033v-512.013h-384.033z" />
</font>
</defs>
</svg>
