<!-- Generated by IcoMoon.io -->
<svg version="1.1" xmlns="http://www.w3.org/2000/svg" width="32" height="32" viewBox="0 0 32 32">
<title>angle-up</title>
<path d="M15.262 6.989l-14.942 14.942c-0.214 0.214-0.321 0.46-0.321 0.738s0.107 0.524 0.321 0.738l1.603 1.603c0.214 0.214 0.459 0.321 0.738 0.321s0.524-0.107 0.737-0.321l12.601-12.601 12.601 12.601c0.214 0.214 0.46 0.321 0.737 0.321s0.524-0.107 0.738-0.321l1.603-1.603c0.214-0.214 0.321-0.46 0.321-0.738s-0.107-0.524-0.321-0.738l-14.942-14.941c-0.214-0.214-0.46-0.32-0.738-0.32s-0.524 0.106-0.738 0.32z"></path>
</svg>
