<!-- Generated by IcoMoon.io -->
<svg version="1.1" xmlns="http://www.w3.org/2000/svg" width="32" height="32" viewBox="0 0 32 32">
<title>angle-down</title>
<path d="M16.738 25.011l14.942-14.942c0.214-0.214 0.321-0.46 0.321-0.738s-0.107-0.524-0.321-0.738l-1.603-1.603c-0.214-0.214-0.459-0.321-0.738-0.321s-0.524 0.107-0.738 0.321l-12.601 12.601-12.601-12.601c-0.214-0.214-0.46-0.321-0.737-0.321s-0.524 0.107-0.738 0.321l-1.603 1.603c-0.214 0.214-0.321 0.46-0.321 0.738s0.107 0.524 0.321 0.738l14.942 14.941c0.214 0.214 0.46 0.32 0.738 0.32s0.524-0.106 0.738-0.32z"></path>
</svg>
