<!-- Generated by IcoMoon.io -->
<svg version="1.1" xmlns="http://www.w3.org/2000/svg" width="32" height="32" viewBox="0 0 32 32">
<title>angle-left</title>
<path d="M6.989 16.738l14.942 14.942c0.214 0.214 0.46 0.321 0.738 0.321s0.524-0.107 0.738-0.321l1.603-1.603c0.214-0.214 0.321-0.459 0.321-0.738s-0.107-0.524-0.321-0.738l-12.601-12.601 12.601-12.601c0.214-0.214 0.321-0.46 0.321-0.737s-0.107-0.524-0.321-0.738l-1.603-1.603c-0.214-0.214-0.46-0.321-0.738-0.321s-0.524 0.107-0.738 0.321l-14.941 14.942c-0.214 0.214-0.32 0.46-0.32 0.738s0.106 0.524 0.32 0.738z"></path>
</svg>
