<svg width="476" height="357" fill="none" xmlns="http://www.w3.org/2000/svg"><g clip-path="url(#clip0)"><path opacity=".26" d="M465.456 151.651c-7.969-30.001-21.333-57.59-36.404-83.43-11.258-19.31-24.2-38.442-42.044-48.458-15.693-8.81-33.583-9.678-50.913-10.4-20.119-.83-40.246-1.659-60.366-2.496-22.578-.93-45.21-1.867-67.743.169-42.751 3.863-84.327 18.311-124.82 35.086-27.911 11.56-57.721 26.5-71.961 57.376-9.676 21-10.452 45.993-10.99 69.942-.484 21.346-.814 43.597 6.81 62.922 7.561 19.164 21.978 32.982 35.919 46.101 18.06 16.99 37.133 34.541 59.797 39.234 21.095 4.37 42.482-2.988 63.378-8.549 63.216-16.829 124.757-13.457 188.435-3.748 40.285 6.137 70.556 2.926 96.216-38.266 21.949-35.233 25.753-73.791 14.686-115.483z" fill="#CAE5FF"/><path opacity=".3" d="M215.986 25.47c-23.669 1.62-47.308 3.764-70.947 5.914-18.829 1.713-37.895 3.48-55.747 10.823-25.607 10.522-47.7 32.697-60.78 60.986-14.156 30.608-17.53 66.416-20.643 101.165-2.159 24.118-4.08 49.864 5.28 71.394 8.523 19.601 25.368 32.544 43.09 38.949 17.714 6.406 36.48 7.075 54.986 7.697 81.461 2.749 162.921 5.491 244.374 8.241 25.453.861 51.966 1.467 75.06-11.321 23.093-12.789 41.414-43.351 35.043-72.746-3.681-16.99-14.778-30.923-17.26-48.221-3.044-21.168 7.362-41.369 11.735-62.207 11.819-56.37-26.99-121.028-76.45-122.664-20.85-.691-41.922 6.798-62.779 8.011-34.959 2.043-69.987 1.582-104.962 3.979z" fill="#CAE5FF"/><path d="M436.092 238.453a29.874 29.874 0 0010.336-7.12l5.618 2.281 4.68-7.227-4.388-4.187a29.821 29.821 0 002.259-12.343l5.595-2.358-1.806-8.418-6.071.138a29.949 29.949 0 00-7.116-10.331l2.282-5.614-7.231-4.678-4.189 4.386a29.87 29.87 0 00-12.35-2.258l-2.359-5.592-8.423 1.805.139 6.068a29.804 29.804 0 00-10.337 7.12l-5.617-2.281-4.68 7.228 4.388 4.186a29.838 29.838 0 00-2.26 12.343l-5.594 2.358 1.806 8.418 6.071-.138a29.873 29.873 0 007.116 10.331l-2.282 5.614 7.231 4.678 4.188-4.386a29.872 29.872 0 0012.35 2.258l2.36 5.592 8.422-1.805-.138-6.068zm-21.426-25.6c-1.168-5.461 2.321-10.861 7.785-12.028 5.464-1.168 10.867 2.319 12.035 7.78 1.168 5.461-2.321 10.861-7.785 12.029-5.464 1.175-10.859-2.32-12.035-7.781zM58.014 230.826a29.873 29.873 0 0010.336-7.12l5.618 2.281 4.68-7.228-4.388-4.186a29.83 29.83 0 002.26-12.343l5.594-2.358-1.806-8.418-6.071.138a29.95 29.95 0 00-7.116-10.331l2.282-5.615-7.232-4.677-4.188 4.386a29.886 29.886 0 00-12.35-2.259l-2.359-5.591-8.423 1.805.139 6.068a29.96 29.96 0 00-10.337 7.112l-5.617-2.281-4.68 7.228 4.388 4.186a29.83 29.83 0 00-2.26 12.343l-5.594 2.358 1.806 8.418 6.07-.138a29.949 29.949 0 007.117 10.331l-2.282 5.615 7.231 4.677 4.188-4.386a29.886 29.886 0 0012.35 2.259l2.36 5.591 8.422-1.805-.138-6.06zm-21.418-25.608c-1.168-5.461 2.32-10.861 7.785-12.028 5.464-1.168 10.866 2.319 12.035 7.78 1.168 5.462-2.321 10.861-7.785 12.029-5.464 1.175-10.867-2.32-12.035-7.781zm386.055 87.385a18.249 18.249 0 006.348-4.37l3.45 1.406 2.874-4.44-2.697-2.573a18.396 18.396 0 001.391-7.581l3.435-1.452-1.106-5.169-3.735.084a18.253 18.253 0 00-4.373-6.344l1.406-3.449-4.442-2.872-2.574 2.696a18.431 18.431 0 00-7.585-1.391l-1.453-3.433-5.172 1.106.085 3.733a18.266 18.266 0 00-6.348 4.37l-3.45-1.405-2.875 4.439 2.698 2.574a18.396 18.396 0 00-1.391 7.581l-3.435 1.451 1.106 5.169 3.735-.084a18.244 18.244 0 004.373 6.344l-1.406 3.449 4.441 2.873 2.575-2.696a18.43 18.43 0 007.585 1.39l1.452 3.433 5.172-1.106-.084-3.733zm-13.157-15.722c-.722-3.357 1.43-6.667 4.78-7.389 3.359-.722 6.671 1.428 7.393 4.777.723 3.349-1.429 6.667-4.78 7.389a6.23 6.23 0 01-7.393-4.777zM67.99 154.9a18.237 18.237 0 006.347-4.37l3.45 1.406 2.875-4.44-2.698-2.573a18.4 18.4 0 001.391-7.581l3.435-1.452-1.106-5.169-3.735.084a18.248 18.248 0 00-4.373-6.344l1.406-3.449-4.442-2.872-2.574 2.696a18.432 18.432 0 00-7.585-1.391l-1.453-3.433-5.171 1.106.084 3.733a18.265 18.265 0 00-6.348 4.37l-3.45-1.405-2.874 4.439 2.697 2.574a18.4 18.4 0 00-1.391 7.581l-3.435 1.451 1.106 5.169 3.735-.084a18.24 18.24 0 004.373 6.344l-1.406 3.449 4.442 2.873 2.574-2.696a18.43 18.43 0 007.585 1.39l1.453 3.433 5.172-1.106-.085-3.733zm-13.158-15.722c-.722-3.357 1.43-6.667 4.78-7.389 3.359-.722 6.671 1.428 7.393 4.777.723 3.357-1.429 6.667-4.78 7.389a6.229 6.229 0 01-7.393-4.777z" fill="#D1E5EC"/><path d="M405.091 89.367c-10.882 13.342-9.653 24.809-1.806 31.2 7.846 6.39 19.335 5.284 30.217-8.065 10.882-13.35 17.038-33.873 9.199-40.263-7.854-6.383-26.728 3.779-37.61 17.128z" fill="#859B61"/><path d="M357.974 151.083a.784.784 0 001.091.53c33.976-15.876 53.288-33.765 63.509-45.97 11.12-13.28 14.133-22.674 14.256-23.066a.784.784 0 00-.515-.975.78.78 0 00-.976.507c-.116.376-12.55 37.997-76.935 68.098a.772.772 0 00-.43.876z" fill="#859B61"/><path d="M429.091 80.588l2.474 10.077c.1.415.523.668.946.569a.776.776 0 00.568-.938v-.007l-2.474-10.07a.772.772 0 00-.938-.568.78.78 0 00-.576.937z" fill="#859B61"/><path d="M431.589 90.95c0 .007 0 .015.007.022.116.415.538.66.953.553l10.021-2.688c.415-.115.646-.53.554-.952a.785.785 0 00-.953-.553L432.15 90.02a.771.771 0 00-.561.93zm-4.98 7.696c0 .007 0 .015.007.023.116.414.538.66.953.553l10.021-2.689c.415-.107.615-.553.554-.952a.785.785 0 00-.953-.553l-10.021 2.688a.775.775 0 00-.561.93zm-7.263 9.309c0 .008.008.015.008.023.115.415.538.66.953.553l10.021-2.688c.415-.116.623-.53.554-.953a.782.782 0 00-.953-.553l-10.022 2.688a.772.772 0 00-.561.93zm-7.308 7.98c0 .008.008.016.008.023a.784.784 0 00.953.553l10.021-2.688c.415-.107.645-.538.553-.952a.784.784 0 00-.953-.553l-10.021 2.688a.77.77 0 00-.561.929z" fill="#859B61"/><path d="M423.442 88.845l2.475 10.077c.1.415.522.668.937.569.415-.1.723-.546.569-.945l-2.474-10.07a.772.772 0 00-.938-.568.794.794 0 00-.569.937zm-7.285 8.641l2.475 10.077c.1.415.522.676.937.569a.778.778 0 00.569-.938v-.007l-2.475-10.07a.77.77 0 00-.937-.568.78.78 0 00-.569.937zm-7.654 8.203l2.474 10.077c.1.415.523.676.938.569.423-.1.715-.507.569-.937l-2.475-10.07a.77.77 0 00-.937-.568.762.762 0 00-.569.929z" fill="#859B61"/><path d="M345.839 78.453c-3.073 16.936 3.551 26.383 13.503 28.188 9.96 1.805 19.481-4.708 22.555-21.652 3.074-16.936-1.46-37.89-11.419-39.695-9.953-1.797-21.557 16.222-24.639 33.159z" fill="#9CB777"/><path d="M334.435 155.246a.777.777 0 001.207-.061c22.071-30.309 30.332-55.303 33.375-70.926 3.313-16.998 1.407-26.675 1.322-27.075a.78.78 0 00-1.529.307c.077.385 7.385 39.327-34.436 96.78a.774.774 0 00.061.975z" fill="#859B61"/><path d="M362.616 59.181l7.039 7.627a.778.778 0 001.099.046.768.768 0 00.046-1.09l-.007-.008-7.032-7.62a.774.774 0 10-1.145 1.045z" fill="#859B61"/><path d="M369.809 67.046l.015.016c.3.307.792.322 1.099.023l7.478-7.19c.307-.299.307-.775.023-1.098a.778.778 0 00-1.099-.023l-7.478 7.19a.773.773 0 00-.038 1.082zm-.638 9.141c.008.008.008.015.015.015.3.307.792.323 1.099.023l7.478-7.19c.307-.299.269-.775.023-1.097a.778.778 0 00-1.099-.023l-7.477 7.189a.772.772 0 00-.039 1.083zm-1.86 11.652c.008.007.008.015.016.015a.784.784 0 001.099.023l7.477-7.19c.307-.299.292-.767.023-1.098a.778.778 0 00-1.099-.023l-7.477 7.19a.772.772 0 00-.039 1.083zm-2.543 10.523c.007.007.007.015.015.015.3.307.792.323 1.099.023l7.477-7.19c.308-.299.308-.775.023-1.098a.776.776 0 00-1.098-.023l-7.478 7.19a.78.78 0 00-.038 1.083z" fill="#859B61"/><path d="M361.663 69.136l7.039 7.627a.778.778 0 001.099.046c.315-.292.369-.822.046-1.099l-7.031-7.619a.778.778 0 00-1.099-.046.767.767 0 00-.054 1.09zm-2.198 11.084l7.039 7.626a.778.778 0 001.099.046.768.768 0 00.046-1.09l-.007-.008-7.032-7.62a.778.778 0 00-1.099-.046.767.767 0 00-.046 1.091zm-2.744 10.875l7.04 7.627a.778.778 0 001.099.047c.315-.292.376-.792.046-1.099l-7.032-7.62a.778.778 0 00-1.099-.045.761.761 0 00-.054 1.09zm70.018 73.061c-17.145-1.644-24.446-10.577-23.477-20.646.968-10.07 9.829-17.459 26.974-15.815 17.145 1.643 36.089 11.698 35.12 21.76-.96 10.069-21.464 16.345-38.617 14.701z" fill="#859B61"/><path d="M349.705 154.263a.49.49 0 01-.069-.146.778.778 0 01.461-.999c35.182-12.988 61.487-14.148 77.357-12.834 17.268 1.428 26.067 5.891 26.436 6.083.377.2.531.668.331 1.045a.78.78 0 01-1.045.338c-.354-.185-35.859-17.789-102.541 6.828a.777.777 0 01-.93-.315z" fill="#859B61"/><path d="M449.863 153.257l-5.433-8.841a.78.78 0 01.254-1.068.785.785 0 011.068.254v.008l5.425 8.84a.78.78 0 01-.253 1.068.79.79 0 01-1.061-.261z" fill="#859B61"/><path d="M444.238 144.201c-.008-.008-.008-.015-.015-.023a.786.786 0 01.276-1.068l8.953-5.238c.369-.215.83-.085 1.068.276a.775.775 0 01-.276 1.06l-8.953 5.239a.77.77 0 01-1.053-.246zm-8.976-1.874c-.008-.008-.008-.016-.015-.023a.786.786 0 01.276-1.068l8.953-5.238c.369-.215.822-.046 1.068.276a.786.786 0 01-.276 1.068l-8.953 5.238a.778.778 0 01-1.053-.253zm-11.727-1.375c0-.008-.008-.015-.016-.023a.787.787 0 01.277-1.068l8.953-5.238c.369-.215.814-.069 1.068.276a.787.787 0 01-.277 1.068l-8.953 5.238a.777.777 0 01-1.052-.253zm-10.813-.415c-.008-.008-.008-.015-.015-.023a.786.786 0 01.276-1.068l8.953-5.238c.369-.215.83-.084 1.068.277a.774.774 0 01-.276 1.059l-8.953 5.239a.761.761 0 01-1.053-.246z" fill="#859B61"/><path d="M440.019 151.467l-5.433-8.841a.779.779 0 01.253-1.067c.369-.223.892-.131 1.068.253l5.426 8.841a.78.78 0 01-.254 1.068.773.773 0 01-1.06-.254zm-11.274-.891l-5.433-8.841a.779.779 0 01.253-1.067.783.783 0 011.068.253v.008l5.426 8.841a.778.778 0 01-.254 1.067.788.788 0 01-1.06-.261zm-11.22-.323l-5.433-8.84a.78.78 0 01.253-1.068c.369-.223.869-.153 1.068.254l5.426 8.84a.78.78 0 01-.254 1.068.776.776 0 01-1.06-.254z" fill="#859B61"/><path d="M437.721 104.66c-17.184 1.236-24.684 10-23.962 20.085.73 10.093 9.414 17.682 26.59 16.445 17.184-1.237 36.35-10.838 35.628-20.93-.722-10.085-21.072-16.837-38.256-15.6z" fill="#9CB777"/><path d="M464.757 120.774c-.584-.253-14.617-6.114-36.196-2.442-29.588 5.038-53.688 24.847-70.802 44.157.3.668.338 1.467.008 2.335 55.155-63.498 105.845-42.844 106.375-42.613a.782.782 0 001.022-.408.772.772 0 00-.407-1.029z" fill="#859B61"/><path d="M456.004 119.499a.782.782 0 00.976.146l5.848-3.541a.774.774 0 00.261-1.067.776.776 0 00-1.068-.262l-5.848 3.541a.776.776 0 00-.262 1.068l.093.115z" fill="#859B61"/><path d="M456.096 120.306l.069.069 4.265 3.702a.779.779 0 101.022-1.175l-4.265-3.695a.78.78 0 00-1.099.077.765.765 0 00.008 1.022zm-9.706-1.352c.015.023.038.038.061.061l7.77 6.875a.78.78 0 001.099-.069.785.785 0 00-.07-1.099l-7.769-6.874a.785.785 0 00-1.099.061.777.777 0 00.008 1.045zm-9.161.023c.016.023.039.038.062.061l7.769 6.875a.78.78 0 001.099-.069.785.785 0 00-.069-1.099l-7.769-6.874a.779.779 0 00-1.092 1.106zm-12.611 1.582c.016.023.039.039.062.062l7.769 6.874a.786.786 0 001.099-.061.786.786 0 00-.069-1.099l-7.77-6.874a.774.774 0 00-1.091 1.098z" fill="#859B61"/><path d="M446.636 118.27a.782.782 0 00.976.146l8.906-5.315a.777.777 0 10-.799-1.336l-8.907 5.315a.778.778 0 00-.269 1.067.36.36 0 00.093.123zm-10.16.377a.778.778 0 001.068.084l8.047-6.544a.78.78 0 00.115-1.091c-.261-.345-.761-.384-1.091-.115l-8.054 6.537a.778.778 0 00-.108 1.098c0 .008.016.015.023.031zm-12.327 1.313a.78.78 0 001.069.085l8.046-6.552a.78.78 0 00.115-1.091.788.788 0 00-1.099-.115l-8.046 6.544a.78.78 0 00-.115 1.091c.015.015.023.03.03.038z" fill="#859B61"/><path d="M403.784 31.361c-4.403 16.645 1.453 26.584 11.236 29.172 9.783 2.588 19.788-3.157 24.2-19.801 4.403-16.645 1.544-37.882-8.239-40.47-9.798-2.59-22.793 14.455-27.197 31.1z" fill="#9CB777"/><path d="M340.591 164.356a.778.778 0 001.099.053c46.863-41.876 68.55-82.14 78.486-108.538 10.79-28.658 10.467-47.69 10.459-47.883a.78.78 0 10-1.56.038c.016.746.707 75.573-88.431 155.224a.793.793 0 00-.053 1.106z" fill="#859B61"/><path d="M428.361 21.614a.78.78 0 001.106.046l7.601-7.059a.775.775 0 00.046-1.09l-.008-.008a.778.778 0 00-1.099-.038l-7.6 7.058a.78.78 0 00-.046 1.091z" fill="#859B61"/><path d="M428.061 21.2a.776.776 0 001.014.122.784.784 0 00.208-1.083l-5.818-8.587a.777.777 0 00-1.083-.207.784.784 0 00-.208 1.082l5.818 8.588c.023.03.046.061.069.084zm-1.875 10.092a.785.785 0 001.014.123.784.784 0 00.208-1.083l-5.818-8.587a.779.779 0 10-1.291.875l5.818 8.587a.792.792 0 00.069.085zm-3.158 11.775a.784.784 0 001.014.123.784.784 0 00.207-1.083l-5.817-8.588a.78.78 0 10-1.291.876l5.817 8.587c.023.03.046.062.07.085zm-3.858 11.191a.784.784 0 001.014.123.784.784 0 00.207-1.083l-5.817-8.588a.787.787 0 00-1.084-.207.785.785 0 00-.207 1.083l5.817 8.587a.806.806 0 01.07.085z" fill="#859B61"/><path d="M426.34 31.837a.78.78 0 001.106.046l7.601-7.058a.775.775 0 00.046-1.091s0-.008-.008-.008a.778.778 0 00-1.099-.038l-7.6 7.059a.78.78 0 00-.046 1.09zm-2.782 11.698a.78.78 0 001.106.046l7.601-7.058a.775.775 0 00.046-1.091l-.008-.008a.778.778 0 00-1.099-.038l-7.6 7.058a.774.774 0 00-.046 1.091zm-4.012 11.498s0 .008 0 0c.3.323.792.338 1.107.047l7.6-7.06a.774.774 0 00.046-1.09l-.007-.008a.778.778 0 00-1.099-.038l-7.601 7.059a.775.775 0 00-.046 1.09z" fill="#859B61"/><path d="M251.929 294.27H221.75v54.02h30.179v-54.02z" fill="#7CA2DB"/><path d="M251.929 297.927H221.75v12.312h30.179v-12.312z" fill="#395777"/><path d="M380.637 117.018H93.034v182.083h287.603V117.018z" fill="#7CA2DB"/><path d="M369.886 125.836H103.793v164.448h266.093V125.836z" fill="#2A4053"/><path d="M295.426 340.847H178.253v9.978h117.173v-9.978z" fill="#395777"/><path d="M322.439 44.334H156.758v224.651h165.681V44.335z" fill="#9BB0CE"/><path d="M318.289 37.483H153.746v223.106h164.543V37.483z" fill="#CCE4F5"/><path d="M315.776 41.323H151.233V264.43h164.543V41.323z" fill="#fff"/><path d="M227.46 148.395c.669 3.133 3.12 5.468 6.048 5.468s5.38-2.327 6.048-5.468H227.46z" fill="#fff"/><path d="M194.668 78.56l-3.281-4.708a6.15 6.15 0 01-.623.023h-3.627v4.685h-2.982V62.492h6.617c1.391 0 2.605.23 3.643.69 1.037.462 1.829 1.115 2.374 1.975.554.86.83 1.874.83 3.05 0 1.205-.292 2.25-.884 3.118-.591.875-1.437 1.52-2.536 1.95l3.697 5.277h-3.228v.008zm-1.083-12.72c-.677-.553-1.66-.83-2.959-.83h-3.489v6.407h3.489c1.299 0 2.29-.277 2.959-.837.676-.561 1.014-1.352 1.014-2.374 0-1.021-.338-1.813-1.014-2.366zm19.404 10.216v2.504h-12.057V62.492h11.734v2.504h-8.745v4.178h7.762v2.458h-7.762v4.432h9.068v-.008zm4.719 2.204c-1.153-.353-2.067-.821-2.744-1.397l1.03-2.32c.661.522 1.468.945 2.421 1.275a8.77 8.77 0 002.882.492c1.191 0 2.082-.192 2.674-.576.592-.385.884-.884.884-1.514 0-.46-.162-.837-.492-1.136-.33-.3-.745-.53-1.253-.7a27.584 27.584 0 00-2.067-.575c-1.222-.292-2.213-.584-2.974-.876a4.88 4.88 0 01-1.952-1.367c-.546-.622-.815-1.46-.815-2.512 0-.883.239-1.697.723-2.42.484-.73 1.206-1.305 2.182-1.735.969-.43 2.16-.645 3.574-.645.983 0 1.944.122 2.897.368.953.246 1.768.6 2.459 1.06l-.945 2.32a9.264 9.264 0 00-2.206-.945 8.223 8.223 0 00-2.228-.323c-1.176 0-2.052.2-2.629.6-.576.399-.86.929-.86 1.582 0 .46.161.837.492 1.121.33.292.745.522 1.252.691.507.17 1.191.362 2.068.577 1.191.276 2.174.56 2.935.86.769.3 1.422.753 1.968 1.367.545.615.814 1.436.814 2.481 0 .891-.238 1.69-.722 2.412s-1.214 1.29-2.19 1.72c-.976.43-2.175.645-3.582.645-1.237 0-2.436-.176-3.596-.53zm14.778-1.344c-1.237-1.244-1.86-3.034-1.86-5.361v-9.063h2.982v8.948c0 3.149 1.36 4.731 4.088 4.731 2.713 0 4.066-1.574 4.066-4.731v-8.948h2.943v9.063c0 2.327-.615 4.11-1.852 5.361-1.23 1.245-2.959 1.874-5.18 1.874-2.213 0-3.942-.63-5.187-1.874zm31.163 1.644l-.023-10.646-5.28 8.81h-1.33l-5.279-8.672v10.516h-2.851V62.492h2.459l6.386 10.645 6.271-10.645h2.459l.023 16.068h-2.835zm19.22-2.504v2.504h-12.058V62.492h11.735v2.504H273.8v4.178h7.762v2.458H273.8v4.432h9.069v-.008zm-96.362 88.161a3.364 3.364 0 01-3.366 3.365 3.364 3.364 0 110-6.729 3.364 3.364 0 013.366 3.364z" fill="#FFBF94"/><path d="M287.249 162.85h-96.316v2.742h96.316v-2.742z" fill="#CCE4F5"/><path d="M186.507 152.658a3.364 3.364 0 01-3.366 3.364 3.364 3.364 0 110-6.729 3.364 3.364 0 013.366 3.365z" fill="#FFBF94"/><path d="M287.249 151.291h-96.316v2.742h96.316v-2.742z" fill="#CCE4F5"/><path d="M183.141 179.141a3.365 3.365 0 10-3.366-3.364 3.365 3.365 0 003.366 3.364z" fill="#FFBF94"/><path d="M287.249 174.41h-96.316v2.742h96.316v-2.742z" fill="#CCE4F5"/><path d="M216.47 136.044v-4.939c0-4.263-4.111-8.372-8.376-8.372h-20.089c-4.265 0-8.376 4.109-8.376 8.372v4.939h36.841z" fill="#1FACC5"/><path d="M205.988 122.725l-8.092.062-.031-.077-7.324.046 7.524 13.25v-.023l7.923-13.258z" fill="#8EC2FE"/><path d="M191.256 108.132c.392 1.275.123 2.55-.599 2.857-.73.299-1.637-.484-2.029-1.759-.392-1.275-.123-2.55.599-2.857.73-.3 1.637.484 2.029 1.759zm13.587 0c-.392 1.275-.123 2.55.6 2.857.722.307 1.637-.484 2.028-1.759.392-1.275.123-2.55-.599-2.857-.73-.3-1.637.484-2.029 1.759zm-1.498 6.912h-10.583l-.453 9.371s5.587 5.96 11.489 0l-.453-9.371z" fill="#DF966C"/><path d="M203.068 110.059l.953-6.743-5.902-.423v-.008l-.077.008-.077-.008v.008l-6.509.469 1.583 6.697-.384 6.852 3.151 3.464s.676.73 2.151.753v.007h.154v-.007c1.476-.016 2.152-.753 2.152-.753l3.135-3.464-.33-6.852z" fill="#CA896C"/><path d="M200.586 99.898l-1.414-.17-1.122 1.875-.077-.008v.008l-8.277.591 1.061 10.277s.046 1.022.645 1.728l4.419 4.885s.676.73 2.152.753v.008h.153v-.008c1.476-.015 2.152-.753 2.152-.753l4.419-4.885c.592-.706.646-1.728.646-1.728l1.06-10.277-5.817-2.296z" fill="#DF966C"/><path d="M206.495 105.75a11.593 11.593 0 01-.699-3.464 9.071 9.071 0 01.423-3.133 2.73 2.73 0 00-4.288-2.166 2.733 2.733 0 00-2.475-1.575c-.915 0-1.721.453-2.221 1.144a2.738 2.738 0 00-4.596 1.39 2.807 2.807 0 00-.883-.16c-.677 0-1.291.253-1.776.668.169.706.277 1.428.308 2.173.077 1.636-.323 3.188-1.038 4.593.677.269 1.322.607 1.914 1.007-.008-.008-.016-.023-.016-.031a2.269 2.269 0 001.353-1.552c.346.169.73.269 1.137.269.746 0 1.414-.315 1.891-.822a2.588 2.588 0 003.481.354 2.58 2.58 0 001.399.414c.507 0 .968-.153 1.368-.399a2.6 2.6 0 001.883.814c.107 0 .215-.015.315-.03.1.576.468 1.052.976 1.313a2.755 2.755 0 00-.046.069c.514-.338 1.045-.63 1.59-.876z" fill="#CA896C"/><path d="M208.67 102.878c0-.807-.43-1.513-1.076-1.913a2.232 2.232 0 00-1.414-3.548 2.737 2.737 0 00-2.728-2.673c-.584 0-1.114.184-1.56.491a2.731 2.731 0 00-2.474-1.574c-.915 0-1.722.453-2.221 1.144a2.737 2.737 0 00-4.596 1.39 2.814 2.814 0 00-.884-.16 2.736 2.736 0 00-2.736 2.734c0 .537.162 1.036.431 1.459a2.263 2.263 0 00-.623 3.817 1.648 1.648 0 00.961 2.988 1.65 1.65 0 001.36-2.588 2.269 2.269 0 001.353-1.552c.345.169.73.269 1.137.269.745 0 1.414-.315 1.891-.822.476.53 1.16.868 1.936.868.584 0 1.114-.2 1.545-.515a2.57 2.57 0 001.398.415c.508 0 .969-.153 1.368-.399a2.603 2.603 0 001.883.814c.108 0 .215-.015.315-.031.1.576.469 1.053.976 1.314a1.641 1.641 0 00-.338.991 1.65 1.65 0 001.652 1.651 1.65 1.65 0 001.653-1.651c0-.377-.131-.715-.338-.991a2.22 2.22 0 001.129-1.928z" fill="#614638"/><path d="M224.479 141.267h-52.857v-52.83h52.857v52.83zm-50.959-1.897h49.061V90.335H173.52v49.035zm121.875-25.977h-60.142v2.911h60.142v-2.911zm-32.2-8.825h-27.942v2.918h27.942v-2.918zm32.2 17.658h-60.142v2.919h60.142v-2.919zm.062 66.524H171.552v2.742h123.905v-2.742zm0 9.701H171.552v2.742h123.905v-2.742zm0 9.701H171.552v2.742h123.905v-2.742zm0 9.701H171.552v2.742h123.905v-2.742zm0 9.701H171.552v2.742h123.905v-2.742zm0 9.701H171.552v2.742h123.905v-2.742z" fill="#CCE4F5"/><path d="M297.801 22.966a6.636 6.636 0 00-6.632 6.628V52.7c0 3.656 1.529 6.582 5.187 6.582 3.658 0 5.064-2.934 5.064-6.582V37.967c0-2.005-1.514-3.633-3.373-3.633-1.86 0-3.374 1.628-3.374 3.633v9.278h1.86v-9.278c0-.9.676-1.629 1.514-1.629.83 0 1.506.73 1.506 1.629l-.008 14.732c0 2.626-.569 4.716-3.197 4.716s-3.32-2.097-3.32-4.716V29.587a4.768 4.768 0 014.765-4.762 4.768 4.768 0 014.765 4.762v7.896h1.867v-7.896c.008-3.649-2.966-6.621-6.624-6.621z" fill="#BC5050"/><path d="M111.993 253.807h-2.62c-7.416.323-27.805 3.042-23.947 23.335 4.511 23.742.623 50.348.623 50.348s10.636 2.128 22.048 2.473h5.172c11.412-.353 22.048-2.473 22.048-2.473s-3.881-26.606.623-50.348c3.858-20.301-16.531-23.012-23.947-23.335z" fill="#1FACC5"/><path d="M121.684 258.416c0 2.826-4.926 5.123-10.997 5.123s-10.997-2.289-10.997-5.123c0-2.827 4.926-5.123 10.997-5.123s10.997 2.289 10.997 5.123zm-20.396-21.783c.523 1.697.169 3.395-.799 3.794-.969.4-2.175-.645-2.698-2.343-.522-1.689-.169-3.394.8-3.794.96-.392 2.167.653 2.697 2.343zm18.044 0c-.522 1.697-.169 3.395.8 3.794.968.4 2.174-.645 2.697-2.343.523-1.689.169-3.394-.799-3.794-.968-.392-2.175.653-2.698 2.343z" fill="#DF966C"/><path d="M117.342 245.812h-14.063l-.6 12.45s7.416 7.919 15.27 0l-.607-12.45z" fill="#DF966C"/><path d="M116.981 239.191l1.268-8.956-7.839-.561v-.015l-.1.007-.1-.007v.015l-8.645.622 2.105 8.902-.514 9.102 4.188 4.601s.899.975 2.866.998v.008c.039 0 .062-.008.1-.008.039 0 .062.008.1.008v-.008c1.96-.023 2.859-.998 2.859-.998l4.165-4.601-.453-9.109z" fill="#CA896C"/><path d="M113.684 225.688l-1.883-.223-1.491 2.488-.1-.007v.015l-10.997.791 1.406 13.649s.062 1.352.854 2.297l5.871 6.49s.899.976 2.866.999v.007c.039 0 .062-.007.1 0 .039 0 .062.008.1 0v-.007c1.96-.023 2.859-.999 2.859-.999l5.879-6.49c.792-.945.853-2.297.853-2.297l1.406-13.649-7.723-3.064z" fill="#DF966C"/><path d="M124.412 229.651a2.973 2.973 0 00-1.429-2.535 2.96 2.96 0 00.607-1.789 2.982 2.982 0 00-2.482-2.935 3.633 3.633 0 00-3.628-3.548c-.768 0-1.483.246-2.075.653a3.63 3.63 0 00-3.281-2.097c-1.214 0-2.29.607-2.951 1.521a3.605 3.605 0 00-2.544-1.037 3.634 3.634 0 00-3.558 2.888 3.499 3.499 0 00-1.176-.215 3.636 3.636 0 00-3.635 3.633c0 .714.215 1.382.569 1.943a3.021 3.021 0 00-1.875 2.796 3 3 0 001.053 2.273 2.187 2.187 0 00-.915 1.775c0 1.213.984 2.196 2.198 2.196a2.197 2.197 0 001.806-3.448 3.01 3.01 0 001.798-2.059c.461.223.969.361 1.506.361.992 0 1.883-.422 2.513-1.09a3.449 3.449 0 002.567 1.159c.769 0 1.476-.261 2.052-.683a3.434 3.434 0 001.86.545c.669 0 1.291-.2 1.821-.53a3.444 3.444 0 002.506 1.076c.146 0 .284-.024.422-.039.139.768.63 1.398 1.299 1.744a2.18 2.18 0 00-.446 1.313 2.197 2.197 0 004.396 0 2.18 2.18 0 00-.446-1.313 2.958 2.958 0 001.468-2.558z" fill="#614638"/><path d="M105.676 243.845c.669 1.982 2.406 3.572 4.481 3.572 2.074 0 3.827-1.582 4.495-3.572h-8.976z" fill="#fff"/><path d="M136.378 338.597l13.986 7.727-6.955 4.969-10.682-4.67.508-.415 3.143-7.611z" fill="#DF966C"/><path d="M140.09 340.655s8.353 2.397 13.095 2.627c4.741.223 8.038 2.466 7.546 8.18-.491 5.715-5.287 6.821-10.128 4.171l-13.403-7.059c0 .008 15.101 2.42 2.89-7.919z" fill="#43668E"/><path d="M80.77 337.56l-13.987 7.727 6.954 4.969 10.683-4.677-.5-.415-3.15-7.604z" fill="#DF966C"/><path d="M77.065 339.611s-8.354 2.396-13.095 2.626c-4.742.223-8.039 2.466-7.547 8.181.492 5.714 5.287 6.82 10.129 4.17l13.403-7.058c-.008.007-15.11 2.419-2.89-7.919zm63.486-1.721L81.1 308.073c-6.264-2.665-13.372-.2-15.793 5.484-2.428 5.684.715 12.52 6.978 15.185l62.686 22.229 5.58-13.081z" fill="#43668E"/><path d="M76.496 337.275l59.751-29.21c6.286-2.604 13.372-.061 15.739 5.645 2.367 5.707-.845 12.513-7.132 15.116l-62.917 21.591-5.44-13.142z" fill="#43668E"/><path d="M84.82 333.197l23.3 8.242-6.179 2.112-21.902-7.988 4.78-2.366zm23.508-11.468l23.216 11.645 4.234-1.429-27.45-10.216z" fill="#395777"/><path d="M87.324 263.892l-18.128 34.48s-3.459 5.108 2.144 6.59L96 314.079l1.43-12.404-8.023-9.832 2.528-6.644-4.61-21.307zm46.625-.445l18.129 34.479s3.458 5.108-2.144 6.591l-24.992 8.126-1.099-11.421 8.746-8.565-3.251-7.903 4.611-21.307z" fill="#1FACC5"/><path d="M90.237 297.765l-.607-18.503-5.157 18.011 5.764.492zm40.707 0l.6-18.503 5.164 18.011-5.764.492z" fill="#0072D8"/><path d="M134.456 325.823H86.994a.665.665 0 01-.66-.66l-4.612-28.112c0-.361.3-.661.661-.661h56.692c.361 0 .661.3.661.661l-4.611 28.112a.677.677 0 01-.669.66z" fill="#2A4053"/></g><defs><clipPath id="clip0"><path fill="#fff" d="M0 0h476v357H0z"/></clipPath></defs></svg>