<svg width="102" height="91" fill="none" xmlns="http://www.w3.org/2000/svg"><g clip-path="url(#clip0)" fill="#EAF0F0"><path d="M100.833 39.229L83.462 21.79a2.11 2.11 0 00-1.493-.597H20.034a2.11 2.11 0 00-1.493.597L1.17 39.229c-.519.52-.646 1.263-.324 1.896.122.24.299.446.514.61l.011.014 48.14 48.145c.378.378.92.594 1.49.594s1.113-.216 1.49-.594l48.14-48.146.012-.012c.215-.165.392-.372.513-.61.322-.634.196-1.377-.323-1.897zm-22.397-14.5L69.583 37.39 55.395 24.728h23.041zm-13.08 13.903h-28.71l14.355-12.81 14.355 12.81zM46.608 24.728L32.42 37.39l-8.854-12.662h23.042zM19.725 25.94l8.874 12.692H7.082L19.725 25.94zM7.115 42.166H30.66l16.263 39.812L7.115 42.166zm48.04 39.738L66.518 54.62c.381-.916-.147-1.932-1.178-2.27-1.033-.339-2.179.13-2.56 1.045L51.02 81.634 34.896 42.166h59.99L55.155 81.904zm18.249-43.272l8.874-12.692L94.92 38.632H73.404zM51 0c-1.1 0-1.992.791-1.992 1.767v9.104c0 .977.892 1.768 1.992 1.768s1.992-.791 1.992-1.768V1.768C52.992.791 52.1 0 51 0zm18.141 6.985c-.778-.69-2.039-.69-2.817 0l-7.257 6.438c-.778.69-.778 1.81 0 2.5.39.344.899.517 1.409.517s1.02-.173 1.408-.518l7.257-6.437c.778-.69.778-1.81 0-2.5zm-26.596 6.438L35.29 6.985c-.778-.69-2.039-.69-2.818 0-.777.69-.777 1.81 0 2.5l7.257 6.437c.39.345.899.518 1.409.518s1.02-.173 1.408-.518c.779-.69.779-1.809 0-2.5z"/><path d="M67.223 49.196c1.1 0 1.993-.791 1.993-1.767 0-.977-.892-1.768-1.993-1.768-1.1 0-1.992.791-1.992 1.767 0 .977.892 1.768 1.992 1.768z"/></g><defs><clipPath id="clip0"><path fill="#fff" d="M0 0h102v90.488H0z"/></clipPath></defs></svg>