<svg width="110" height="110" fill="none" xmlns="http://www.w3.org/2000/svg"><path d="M67.968 44.026c-2.095 7.347-7.8 12.715-13.224 12.974-5.448-.259-11.152-5.65-13.247-13.044l-1.025.165c-1.164.188-2.258-.636-2.444-1.79l-1.001-6.545a2.172 2.172 0 011.769-2.473l.722-.117a10.777 10.777 0 01-.513-3.25v-2.401c0-5.887 4.773-10.713 10.594-10.713h1.257c-.023-.212 0-.4.07-.566.652-1.742 4.982-1.671 9.709.118 1 .377 1.932.824 2.793 1.272 3.819 1.624 6.543 5.439 6.543 9.889v2.401c0 1.13-.187 2.214-.49 3.25l.722.117c1.165.189 1.956 1.295 1.77 2.473l-1.001 6.545a2.136 2.136 0 01-2.445 1.79l-.559-.095zM80 88H68m-51.082 5.954L15 76.685V74.87c0-4.026 4.117-6.377 7.533-7.052 3.134-.628 14.831-3.165 18.621-5.771l.234-.047 6.854 32 4.117-21.108-3.485-8.937h11.252l-3.485 8.937 4 21.108 6.971-32 .234.047c3.79 2.606 15.51 5.143 18.621 5.771C89.883 68.516 94 70.844 94 74.87v1.815l-1.918 17.269" stroke="#EDEDED" stroke-width="3" stroke-miterlimit="22.926" stroke-linecap="round" stroke-linejoin="round"/></svg>