<svg width="162" height="36" fill="none" xmlns="http://www.w3.org/2000/svg"><path d="M48.628 15.232c1.008-1.568 2.781-2.352 5.32-2.352v3.332a4.443 4.443 0 00-.812-.084c-1.363 0-2.427.401-3.192 1.204-.765.784-1.148 1.923-1.148 3.416V28h-3.5V13.048h3.332v2.184zm22.208 5.376c0 .243-.018.588-.056 1.036H59.048c.206 1.101.738 1.979 1.596 2.632.878.635 1.96.952 3.248.952 1.643 0 2.996-.541 4.06-1.624l1.876 2.156c-.672.803-1.521 1.41-2.548 1.82-1.026.41-2.184.616-3.472.616-1.642 0-3.089-.327-4.34-.98-1.25-.653-2.221-1.559-2.912-2.716-.672-1.176-1.008-2.501-1.008-3.976 0-1.456.327-2.763.98-3.92A7.12 7.12 0 0159.3 13.86c1.176-.653 2.502-.98 3.976-.98 1.456 0 2.754.327 3.892.98a6.612 6.612 0 012.688 2.716c.654 1.157.98 2.501.98 4.032zm-7.56-4.928c-1.12 0-2.072.336-2.856 1.008-.765.653-1.232 1.53-1.4 2.632h8.484c-.149-1.083-.606-1.96-1.372-2.632-.765-.672-1.717-1.008-2.856-1.008zm15.542 12.516c-1.213 0-2.398-.159-3.556-.476-1.157-.317-2.081-.719-2.772-1.204l1.344-2.66c.672.448 1.475.812 2.408 1.092a10.55 10.55 0 002.8.392c2.091 0 3.136-.55 3.136-1.652 0-.523-.27-.887-.812-1.092-.522-.205-1.372-.401-2.548-.588-1.232-.187-2.24-.401-3.024-.644a4.79 4.79 0 01-2.016-1.26c-.56-.616-.84-1.465-.84-2.548 0-1.419.588-2.548 1.764-3.388 1.195-.859 2.8-1.288 4.816-1.288 1.027 0 2.054.121 3.08.364 1.027.224 1.867.532 2.52.924l-1.344 2.66c-1.269-.747-2.697-1.12-4.284-1.12-1.026 0-1.81.159-2.352.476-.522.299-.784.7-.784 1.204 0 .56.28.961.84 1.204.579.224 1.466.439 2.66.644 1.195.187 2.175.401 2.94.644a4.5 4.5 0 011.96 1.232c.56.579.84 1.4.84 2.464 0 1.4-.606 2.52-1.82 3.36-1.213.84-2.865 1.26-4.956 1.26zm16.51 0c-1.511 0-2.874-.327-4.088-.98a7.274 7.274 0 01-2.855-2.716c-.672-1.176-1.009-2.501-1.009-3.976s.337-2.79 1.008-3.948a7.274 7.274 0 012.856-2.716c1.214-.653 2.577-.98 4.089-.98 1.53 0 2.902.327 4.116.98 1.213.653 2.156 1.559 2.828 2.716.69 1.157 1.036 2.473 1.036 3.948s-.346 2.8-1.036 3.976c-.672 1.157-1.615 2.063-2.828 2.716-1.214.653-2.586.98-4.116.98zm0-2.996c1.288 0 2.352-.43 3.192-1.288.84-.859 1.26-1.988 1.26-3.388s-.42-2.53-1.26-3.388c-.84-.859-1.903-1.288-3.191-1.288-1.288 0-2.352.43-3.192 1.288-.822.859-1.233 1.988-1.233 3.388s.411 2.53 1.233 3.388c.84.859 1.903 1.288 3.192 1.288zm14.659-9.968c1.008-1.568 2.782-2.352 5.32-2.352v3.332a4.435 4.435 0 00-.812-.084c-1.362 0-2.426.401-3.192 1.204-.765.784-1.148 1.923-1.148 3.416V28h-3.5V13.048h3.332v2.184zM125 28.196c-1.55 0-2.94-.327-4.172-.98-1.232-.653-2.194-1.559-2.884-2.716-.691-1.176-1.036-2.501-1.036-3.976s.345-2.79 1.036-3.948a7.265 7.265 0 012.856-2.716c1.232-.653 2.632-.98 4.2-.98 1.474 0 2.762.299 3.864.896a5.796 5.796 0 012.52 2.576l-2.688 1.568c-.43-.69-.971-1.204-1.624-1.54a4.233 4.233 0 00-2.1-.532c-1.307 0-2.39.43-3.248 1.288-.859.84-1.288 1.97-1.288 3.388 0 1.419.42 2.557 1.26 3.416.858.84 1.95 1.26 3.276 1.26a4.42 4.42 0 002.1-.504c.653-.355 1.194-.877 1.624-1.568l2.688 1.568a6.124 6.124 0 01-2.548 2.604c-1.102.597-2.38.896-3.836.896zm23.247-7.588c0 .243-.019.588-.056 1.036h-11.732c.205 1.101.737 1.979 1.596 2.632.877.635 1.96.952 3.248.952 1.642 0 2.996-.541 4.06-1.624l1.876 2.156c-.672.803-1.522 1.41-2.548 1.82-1.027.41-2.184.616-3.472.616-1.643 0-3.09-.327-4.34-.98-1.251-.653-2.222-1.559-2.912-2.716-.672-1.176-1.008-2.501-1.008-3.976 0-1.456.326-2.763.98-3.92a7.12 7.12 0 012.772-2.744c1.176-.653 2.501-.98 3.976-.98 1.456 0 2.753.327 3.892.98a6.615 6.615 0 012.688 2.716c.653 1.157.98 2.501.98 4.032zm-7.56-4.928c-1.12 0-2.072.336-2.856 1.008-.766.653-1.232 1.53-1.4 2.632h8.484c-.15-1.083-.607-1.96-1.372-2.632-.766-.672-1.718-1.008-2.856-1.008zm14.254-.448c1.008-1.568 2.781-2.352 5.32-2.352v3.332a4.452 4.452 0 00-.812-.084c-1.363 0-2.427.401-3.192 1.204-.766.784-1.148 1.923-1.148 3.416V28h-3.5V13.048h3.332v2.184z" fill="#000"/><rect width="36" height="36" rx="12" fill="#1FACC5"/><path d="M18.4 23.672h-1.792V25.6a2 2 0 01-2 2H12a2 2 0 01-2-2V10a2 2 0 012-2h6.436c1.81 0 3.388.299 4.732.896 1.344.597 2.38 1.456 3.108 2.576.728 1.12 1.092 2.427 1.092 3.92 0 1.4-.317 2.623-.952 3.668s-1.55 1.876-2.744 2.492l3.724 4.402a1 1 0 01-.764 1.646h-3.974a2 2 0 01-1.525-.706L18.4 23.672zm2.304-8.28c0-.728-.224-1.288-.672-1.68-.448-.41-1.12-.616-2.016-.616h-.112a2.296 2.296 0 000 4.592h.112c.896 0 1.568-.196 2.016-.588.448-.41.672-.98.672-1.708z" fill="#fff"/></svg>