<?xml version="1.0" encoding="utf-8"?>
<!-- Generator: Adobe Illustrator 23.0.3, SVG Export Plug-In . SVG Version: 6.00 Build 0)  -->
<svg version="1.1" id="Isolation_Mode" xmlns="http://www.w3.org/2000/svg" xmlns:xlink="http://www.w3.org/1999/xlink" x="0px"
	 y="0px" viewBox="0 0 184.14 149.74" style="enable-background:new 0 0 184.14 149.74;" xml:space="preserve">
<style type="text/css">
	.st0{fill-rule:evenodd;clip-rule:evenodd;fill:#184891;}
	.st1{fill:none;stroke:#FFFFFF;stroke-width:0.482;stroke-miterlimit:10;}
	.st2{fill:none;stroke:#FFFFFF;stroke-width:0.482;stroke-miterlimit:10;stroke-dasharray:6.03,6.03;}
	.st3{fill:none;stroke:#FFFFFF;stroke-width:0.482;stroke-miterlimit:10;stroke-dasharray:6.0429,6.0429;}
	.st4{fill:none;stroke:#FFFFFF;stroke-width:0.482;stroke-miterlimit:10;stroke-dasharray:6.0298,6.0298;}
	.st5{fill:none;stroke:#FFFFFF;stroke-width:0.482;stroke-miterlimit:10;stroke-dasharray:6.0349,6.0349;}
	.st6{opacity:0.28;fill-rule:evenodd;clip-rule:evenodd;fill:#FFFFFF;}
	.st7{fill-rule:evenodd;clip-rule:evenodd;fill:#FED206;}
	.st8{fill:none;stroke:#FFFFFF;stroke-miterlimit:10;}
</style>
<polygon class="st0" points="86.92,0.2 124.43,0 103.89,31.39 66.4,31.59 "/>
<g>
	<g>
		<polyline class="st1" points="50.4,29.18 53.68,24.16 59.68,24.12 		"/>
		<line class="st2" x1="65.71" y1="24.08" x2="74.76" y2="24.03"/>
		<polyline class="st1" points="77.77,24.01 83.77,23.97 80.49,28.99 		"/>
		<line class="st3" x1="77.19" y1="34.05" x2="72.23" y2="41.64"/>
		<polyline class="st1" points="70.57,44.17 67.29,49.19 61.29,49.22 		"/>
		<line class="st4" x1="55.26" y1="49.26" x2="46.22" y2="49.3"/>
		<polyline class="st1" points="43.2,49.32 37.2,49.35 40.49,44.33 		"/>
		<line class="st5" x1="43.79" y1="39.28" x2="48.75" y2="31.7"/>
	</g>
</g>
<polygon class="st6" points="91.12,46.58 121.24,46.42 104.76,71.62 74.64,71.78 "/>
<polygon class="st7" points="45.09,77.7 75.18,77.55 30.12,149.55 0,149.74 "/>
<polygon class="st0" points="90.71,79.01 134.92,78.78 110.72,115.77 66.51,116.03 "/>
<polygon class="st8" points="133.84,57.34 183.21,57.07 156.21,98.39 106.84,98.66 "/>
</svg>
