<?xml version="1.0" encoding="utf-8"?>
<!-- Generator: Adobe Illustrator 23.0.3, SVG Export Plug-In . SVG Version: 6.00 Build 0)  -->
<svg version="1.1" id="svg12494" xmlns="http://www.w3.org/2000/svg" xmlns:xlink="http://www.w3.org/1999/xlink" x="0px" y="0px"
	 viewBox="0 0 220.8 98.3" style="enable-background:new 0 0 220.8 98.3;" xml:space="preserve">
<style type="text/css">
	.st0{fill-rule:evenodd;clip-rule:evenodd;fill:#0A62B5;}
	.st1{fill-rule:evenodd;clip-rule:evenodd;fill:#FFD200;}
</style>
<g>
	<g>
		<polygon class="st0" points="82.3,28.6 80.9,27.4 16.5,47.8 17.9,49 		"/>
		<polygon class="st0" points="150.7,44.2 143.5,46.5 142,45.3 133.2,48.1 132.9,47.7 110.4,54.8 110.8,55.2 99.3,58.8 100.8,60 
			128.3,51.3 128.9,51.9 120.4,54.6 121.2,55.2 143.6,48.2 142.9,47.6 151.5,44.9 		"/>
		<polygon class="st0" points="147.4,8.3 146.2,7.3 88.5,25.6 89.7,26.6 		"/>
		<path class="st0" d="M200,8.2l20.8-6.6l-1.5-1.2l-42.7,13.5l1.2,1l-11.5,3.6l-1-0.8l-1.8,0.6l-1-0.8l1.3-0.4l-1-0.8l39.4-12.5
			l-1.5-1.2l-23.8,7.5l-0.7-0.6l-13.6,4.3l-1.4-1.2l-4,1.3l-1.1-0.9l7.2-2.3l-0.9-0.7l26.8-8.5L188,0l-8.8,2.8l-1.2-1L167.6,5
			l-1.5-1.3L70.6,33.9l0.2,0.2L24.3,48.7l1.7,1.4l9.8-3.1l0.7,0.6L6.6,57.1l1.5,1.2L0,60.9l1.7,1.4l4.4-1.4L7.5,62L37,52.7l1,0.9
			l12.1-3.8l0.8,0.6l-44,13.9l1.2,1l-1.5,0.5l1.7,1.4l2-0.6l1.6,1.3L49,56.1l0.9,0.8l-27.8,8.8l1.7,1.4l5.4-1.7l1.5,1.3l30.2-9.5
			l0.8,0.7L28.4,68.3l1.7,1.4l43.7-13.8l0.3,0.2l-1.4,0.4l0.8,0.7L48.8,65l0.4,0.4l-12.8,4l1.7,1.4l30.6-9.7l0.7,0.6l-9.5,3l0.9,0.7
			l25-7.9L85,56.9l9.5-3l-0.8-0.7l16.9-5.3l0.8,0.7l-25,7.9l1.5,1.2l4.8-1.5l1.4,1.2l27.1-8.6l0.7,0.6l-29.8,9.4l1.5,1.2l42.7-13.5
			l-1.1-0.9l18.9-6l-1.1-0.9l-16.2,5.1l-1.5-1.2l-4.9,1.5l-1.2-1l24.9-7.9l-1.2-1l14.3-4.5l0.6,0.5l22.4-7.1l-0.7-0.6l8.5-2.7
			l-0.8-0.7l-7.2,2.3l-1.4-1.2l-8.8,2.8l-0.4-0.3l-22.4,7.1l0.4,0.3l-11.5,3.6l0.8,0.7l-17.2,5.4l1.2,1l-11.5,3.6l-1-0.8l-1.8,0.6
			l-1-0.8l1.3-0.4l-1-0.8l39.4-12.5l-0.4-0.3l28-8.9l-1.1-0.9l18.9-6l-1.1-0.9l-16.2,5.1l-1.5-1.2l-4.9,1.5l-1.2-1l24.9-7.9L200,8.2
			z M70.2,51l-0.3-0.3l3.7-1.2l0.3,0.3L70.2,51z M175.1,26.3l0.6,0.5l-2,0.6l-0.6-0.5L175.1,26.3z M99.1,40l0.3,0.3l-2.7,0.8
			l-0.3-0.3L99.1,40z M76.8,53.9l-0.4-0.3l21.1-6.7l-1.2-1l3.5-1.1l0.9,0.8l10.9-3.4l0.7,0.6L76.8,53.9z"/>
	</g>
</g>
<g>
	<g>
		<polygon class="st1" points="82.3,56.1 80.9,54.9 16.5,75.3 17.9,76.5 		"/>
		<polygon class="st1" points="150.7,71.7 143.5,74 142,72.8 133.2,75.6 132.9,75.2 110.4,82.3 110.8,82.7 99.3,86.3 100.8,87.5 
			128.3,78.8 128.9,79.4 120.4,82.1 121.2,82.7 143.6,75.7 142.9,75.1 151.5,72.4 		"/>
		<polygon class="st1" points="147.4,35.8 146.2,34.8 88.5,53.1 89.7,54.1 		"/>
		<path class="st1" d="M200,35.7l20.8-6.6l-1.5-1.2l-42.7,13.5l1.2,1l-11.5,3.6l-1-0.8l-1.8,0.6l-1-0.8l1.3-0.4l-1-0.8l39.4-12.5
			l-1.5-1.2l-23.8,7.5l-0.7-0.6l-13.6,4.3l-1.4-1.2l-4,1.3l-1.1-0.9l7.2-2.3l-0.9-0.7l26.8-8.5l-1.5-1.2l-8.8,2.8l-1.2-1l-10.4,3.3
			l-1.5-1.3L70.6,61.4l0.2,0.2L24.3,76.2l1.7,1.4l9.8-3.1l0.7,0.6L6.6,84.6l1.5,1.2L0,88.4l1.7,1.4l4.4-1.4l1.4,1.2L37,80.2l1,0.9
			l12.1-3.8l0.8,0.6l-44,13.9l1.2,1l-1.5,0.5l1.7,1.4l2-0.6l1.6,1.3L49,83.6l0.9,0.8l-27.8,8.8l1.7,1.4l5.4-1.7l1.5,1.3l30.2-9.5
			l0.8,0.7L28.4,95.8l1.7,1.4l43.7-13.8l0.3,0.2L72.6,84l0.8,0.7l-24.6,7.8l0.4,0.4l-12.8,4l1.7,1.4l30.6-9.7l0.7,0.6l-9.5,3
			l0.9,0.7l25-7.9L85,84.4l9.5-3l-0.8-0.7l16.9-5.3l0.8,0.7l-25,7.9l1.5,1.2l4.8-1.5l1.4,1.2l27.1-8.6l0.7,0.6l-29.8,9.4l1.5,1.2
			L136.3,74l-1.1-0.9l18.9-6l-1.1-0.9l-16.2,5.1l-1.5-1.2l-4.9,1.5l-1.2-1l24.9-7.9l-1.2-1l14.3-4.5l0.6,0.5l22.4-7.1l-0.7-0.6
			l8.5-2.7l-0.8-0.7l-7.2,2.3l-1.4-1.2l-8.8,2.8l-0.4-0.3l-22.4,7.1l0.4,0.3l-11.5,3.6l0.8,0.7l-17.2,5.4l1.2,1L119.5,72l-1-0.8
			l-1.8,0.6l-1-0.8l1.3-0.4l-1-0.8l39.4-12.5l-0.4-0.3l28-8.9l-1.1-0.9l18.9-6l-1.1-0.9l-16.2,5.1l-1.5-1.2l-4.9,1.5l-1.2-1
			l24.9-7.9L200,35.7z M70.2,78.5l-0.3-0.3l3.7-1.2l0.3,0.3L70.2,78.5z M175.1,53.8l0.6,0.5l-2,0.6l-0.6-0.5L175.1,53.8z M99.1,67.5
			l0.3,0.3l-2.7,0.8l-0.3-0.3L99.1,67.5z M76.8,81.4l-0.4-0.3l21.1-6.7l-1.2-1l3.5-1.1l0.9,0.8l10.9-3.4l0.7,0.6L76.8,81.4z"/>
	</g>
</g>
</svg>
