<?xml version="1.0" encoding="utf-8"?>
<!-- Generator: Adobe Illustrator 23.0.3, SVG Export Plug-In . SVG Version: 6.00 Build 0)  -->
<svg version="1.1" id="Layer_1" xmlns="http://www.w3.org/2000/svg" xmlns:xlink="http://www.w3.org/1999/xlink" x="0px" y="0px"
	 viewBox="0 0 24 24" style="enable-background:new 0 0 24 24;" xml:space="preserve">
<style type="text/css">
	.st0{fill:#E73738;}
	.st1{fill:#3E58A4;}
	.st2{fill:#EC681C;}
</style>
<g>
	<path class="st1" d="M19,10.19V5.37L13.65,0H0v24h19v-3.68h-2V22H2V2h9.24v5.78H17v2.41H19z M13.24,2.42l3.35,3.36h-3.35V2.42z"/>
	<g>
		<path class="st1" d="M9.92,13.39H7.04v0.92h2.05v1.45H7.04v1.16h3v1.56H5.31v-6.64h4.61V13.39z"/>
		<path class="st1" d="M13.72,11.83c0.36,0,0.7,0.05,1.02,0.16c0.31,0.11,0.59,0.26,0.81,0.45c0.23,0.19,0.41,0.43,0.54,0.72
			s0.2,0.6,0.2,0.95c0,0.34-0.07,0.65-0.2,0.94s-0.31,0.52-0.54,0.72s-0.5,0.36-0.81,0.47c-0.32,0.11-0.65,0.17-1.02,0.17h-0.88
			v2.06h-1.73v-6.64H13.72z M12.84,13.34v1.56h0.89c0.24,0,0.43-0.07,0.58-0.22c0.14-0.14,0.22-0.33,0.22-0.57s-0.07-0.42-0.22-0.56
			c-0.14-0.14-0.34-0.21-0.58-0.21H12.84z"/>
		<path class="st1" d="M19.41,11.71c0.58,0,1.06,0.13,1.43,0.38s0.65,0.57,0.84,0.96l-1.16,0.89c-0.15-0.22-0.31-0.39-0.47-0.52
			c-0.16-0.12-0.37-0.19-0.62-0.19c-0.17,0-0.32,0.03-0.43,0.1c-0.11,0.06-0.17,0.17-0.17,0.33c0,0.13,0.04,0.23,0.13,0.3
			s0.24,0.15,0.44,0.24l0.76,0.32c0.56,0.23,0.98,0.5,1.27,0.81c0.29,0.31,0.43,0.7,0.43,1.19c0,0.33-0.06,0.62-0.19,0.88
			c-0.13,0.26-0.3,0.47-0.52,0.65s-0.48,0.31-0.78,0.41c-0.29,0.09-0.61,0.14-0.96,0.14c-0.61,0-1.15-0.14-1.6-0.41
			c-0.46-0.27-0.81-0.63-1.04-1.08l1.17-0.89c0.08,0.11,0.17,0.21,0.26,0.32c0.09,0.1,0.2,0.2,0.32,0.28
			c0.12,0.08,0.25,0.14,0.4,0.19c0.15,0.05,0.32,0.07,0.5,0.07c0.46,0,0.68-0.16,0.68-0.48c0-0.15-0.05-0.27-0.16-0.35
			c-0.11-0.08-0.28-0.17-0.51-0.27l-0.68-0.3c-0.53-0.23-0.94-0.51-1.24-0.83c-0.3-0.32-0.44-0.71-0.44-1.18
			c0-0.3,0.06-0.56,0.17-0.81s0.27-0.45,0.48-0.62c0.21-0.17,0.45-0.3,0.74-0.4C18.76,11.76,19.07,11.71,19.41,11.71z"/>
	</g>
</g>
</svg>
