<?xml version="1.0" encoding="UTF-8" standalone="no"?>
<!-- Created with Inkscape (http://www.inkscape.org/) -->

<svg
   xmlns:dc="http://purl.org/dc/elements/1.1/"
   xmlns:cc="http://creativecommons.org/ns#"
   xmlns:rdf="http://www.w3.org/1999/02/22-rdf-syntax-ns#"
   xmlns:svg="http://www.w3.org/2000/svg"
   xmlns="http://www.w3.org/2000/svg"
   version="1.1"
   width="200mm"
   height="200mm"
   viewBox="0 0 200 200"
   id="svg2"
   xml:space="preserve"
   style="fill-rule:evenodd"><metadata
   id="metadata231"><rdf:RDF><cc:Work
       rdf:about=""><dc:format>image/svg+xml</dc:format><dc:type
         rdf:resource="http://purl.org/dc/dcmitype/StillImage" /><dc:title></dc:title></cc:Work></rdf:RDF></metadata>
 <defs
   id="defs4">
  <style
   type="text/css"
   id="style6" />
    <clipPath
   id="id0">
     <path
   d="M 100.053,171.24 C 59.0021,174.5087 43.1085,155.5309 35.4387,138.0001 31.1362,128.1658 32.5695,118.5768 25.9405,114.1368 40.5553,103.5795 41.877,78.26 29.0029,62.0741 c 23.6835,0 47.3667,0 71.0501,0 0,36.3887 0,72.7772 0,109.166 z"
   id="path9" />
    </clipPath>
 </defs>
 <g
   id="Layer_x0020_1">
  <metadata
   id="CorelCorpID_0Corel-Layer" />
  <g
   id="_21613808">
   <g
   id="g14">
    <g
   id="g16">
     <polygon
   points="182.668,57.9688 188.705,45.4825 163.225,45.4825 163.225,74.7193 188.705,74.7193 181.637,60.1009 "
   id="_275239672"
   style="fill:#2b2a29" />
     <path
   d="m 164.288,73.6558 12.1224,0 10.599,0 -5.2995,-10.9599 -1.2548,-2.595 1.2548,-2.595 5.2995,-10.9599 -10.599,0 -12.1224,0 0,27.1098 z m 5.0996,-2.9989 12.5221,0 -3.2732,-6.7694 -1.8309,-3.7866 1.8309,-3.7866 3.2732,-6.7694 -12.5221,0 0,21.112 z"
   id="_275239576"
   style="fill:#ffed00" />
     <polygon
   points="179.181,59.9533 185.065,72.4264 166.943,72.4264 166.943,73.6558 176.411,73.6558 187.01,73.6558 181.71,62.6959 180.455,60.1009 181.71,57.5059 187.01,46.5459 185.619,46.5459 "
   id="_275239480"
   style="fill:#fcca17" />
     <polygon
   points="179.181,59.9533 185.065,72.4264 166.943,72.4264 166.943,73.6558 176.411,73.6558 187.01,73.6558 181.71,62.6959 180.455,60.1009 181.71,57.5059 187.01,46.5459 185.619,46.5459 "
   id="_274001920"
   style="fill:#f7a707" />
     <polygon
   points="169.853,50.2825 180.65,50.2825 175.902,60.1009 180.65,69.9192 169.853,69.9192 "
   id="_274001800"
   style="fill:#ffed00" />
     <polygon
   points="174.687,60.0336 179.336,50.9644 169.853,50.9644 169.853,50.5857 170.254,50.2826 180.65,50.2826 175.902,60.1009 180.65,69.9192 179.668,69.9192 "
   id="_274001728"
   style="fill:#f7a707" />
    </g>
    <g
   id="g24">
     <polygon
   points="17.3323,57.9688 11.2948,45.4825 36.7753,45.4825 36.7753,74.7193 11.2948,74.7193 18.3633,60.1009 "
   id="_274001584"
   style="fill:#2b2a29" />
     <path
   d="m 35.7118,73.6558 -12.1225,0 -10.5989,0 5.2994,-10.9599 1.2548,-2.595 -1.2548,-2.595 -5.2994,-10.9599 10.5989,0 12.1225,0 0,27.1098 z m -5.0997,-2.9989 -12.5221,0 3.2732,-6.7694 1.831,-3.7866 -1.831,-3.7866 -3.2732,-6.7694 12.5221,0 0,21.112 z"
   id="_274001488"
   style="fill:#ffed00" />
     <polygon
   points="20.8189,59.9533 14.9354,72.4264 33.0568,72.4264 33.0567,73.6558 23.5894,73.6558 12.9903,73.6558 18.2899,62.6959 19.5446,60.1009 18.2899,57.5059 12.9903,46.5459 14.381,46.5459 "
   id="_274001392"
   style="fill:#fcca17" />
     <polygon
   points="20.8189,59.9533 14.9354,72.4264 33.0568,72.4264 33.0568,73.6558 23.5894,73.6558 12.9903,73.6558 18.2899,62.6959 19.5446,60.1009 18.2899,57.5059 12.9903,46.5459 14.381,46.5459 "
   id="_274001296"
   style="fill:#f7a707" />
     <polygon
   points="30.1469,50.2825 19.3501,50.2825 24.0976,60.1009 19.3501,69.9192 30.1469,69.9192 "
   id="_274001176"
   style="fill:#ffed00" />
     <polygon
   points="25.3129,60.0336 20.6639,50.9644 30.1469,50.9644 30.1469,50.5857 29.7457,50.2826 19.3501,50.2826 24.0976,60.1009 19.3501,69.9192 20.3324,69.9192 "
   id="_274001152"
   style="fill:#f7a707" />
    </g>
   </g>
   <path
   d="m 96.5018,180.62 c -0.0187,-0.0644 -0.0363,-0.1292 -0.053,-0.1941 -0.6031,-2.3429 0.2491,-4.3253 2.6558,-4.6481 l 0,-0.0791 0.7518,0.0279 0.7491,-0.0274 0,0.0791 c 0.8317,0.1129 1.6135,0.4433 2.161,1.118 0.8035,0.9903 0.798,2.3538 0.4947,3.5312 -0.0166,0.0644 -0.0342,0.1286 -0.0526,0.1926 l 8.6789,-2.99 -12.0323,21.1515 -0.6837,-1.2017 -11.3487,-19.9498 8.679,2.9899 z"
   id="_274000936"
   style="fill:#2b2a29" />
   <path
   d="m 99.6443,176.645 c -3.4536,0.1264 -2.5524,3.9128 -1.3361,5.5659 l -8.4415,-2.9082 9.7776,17.1879 0,-19.8456 z"
   id="_274000864"
   style="fill:#ffed00" />
   <path
   d="m 109.844,179.303 -8.4414,2.9082 c 1.2167,-1.6539 2.1169,-5.4383 -1.3362,-5.5659 l 0,19.8456 9.7776,-17.1879 z"
   id="_274000792"
   style="fill:#f7a707" />
   <path
   d="M 100.053,171.24 C 59.0021,174.5087 43.1085,155.5309 35.4387,138.0001 31.1362,128.1658 32.5695,118.5768 25.9405,114.1368 40.5553,103.5795 41.877,78.26 29.0029,62.0741 c 23.6835,0 47.3667,0 71.0501,0 0,36.3887 0,72.7772 0,109.166 z"
   id="_274000672"
   style="fill:#079e41" />
   <g
   clip-path="url(#id0)"
   id="g36">
    <g
   id="g38">
     <g
   id="g40">
      <rect
   width="39.702"
   height="196.67799"
   x="0"
   y="0"
   transform="matrix(0.354461,-0.506224,0.506223,0.354462,11.3083,86.1656)"
   id="_21614072"
   style="fill:#009846" />
      <rect
   width="39.702"
   height="196.67799"
   x="0"
   y="0"
   transform="matrix(-0.354461,0.506224,0.506223,0.354462,39.4543,45.9688)"
   id="_21614168"
   style="fill:#fefefe" />
      <rect
   width="39.702"
   height="196.67799"
   x="0"
   y="0"
   transform="matrix(0.354461,-0.506224,0.506223,0.354462,39.4543,45.9688)"
   id="_21615032"
   style="fill:#009846" />
      <rect
   width="39.702"
   height="196.67799"
   x="0"
   y="0"
   transform="matrix(0.354461,-0.506224,0.506223,0.354462,-16.8381,126.363)"
   id="_21615128"
   style="fill:#009846" />
      <rect
   width="39.702"
   height="196.67799"
   x="0"
   y="0"
   transform="matrix(-0.354461,0.506224,0.506223,0.354462,11.3079,86.1661)"
   id="_21614864"
   style="fill:#fefefe" />
     </g>
    </g>
   </g>
   <path
   d="M 100.053,171.24 C 59.0021,174.5087 43.1085,155.5309 35.4387,138.0001 31.1362,128.1658 32.5695,118.5768 25.9405,114.1368 40.5553,103.5795 41.877,78.26 29.0029,62.0741 c 23.6835,0 47.3667,0 71.0501,0 0,36.3887 0,72.7772 0,109.166 z"
   id="path47"
   style="fill:none" />
   <path
   d="m 100.053,171.24 c 41.0509,3.2687 56.9446,-15.7091 64.6143,-33.2399 4.3026,-9.8343 2.8692,-19.4232 9.4983,-23.8633 -14.6149,-10.5574 -15.9366,-35.8768 -3.0625,-52.0627 -23.6834,0 -47.3667,0 -71.0501,0 0,36.3886 0,72.7772 0,109.166 z"
   id="_274000576"
   style="fill:#d5232f" />
   <polygon
   points="109.947,62.5752 111.819,62.5752 111.819,82.3579 102.583,86.9169 103.489,132.968 104.783,163.256 99.8551,168.902 94.9276,163.256 96.2215,132.968 97.1271,86.9169 87.8909,82.3579 87.8909,62.5752 89.763,62.5752 97.5385,66.149 97.6052,62.5752 102.105,62.5752 102.172,66.149 "
   id="_274000504"
   style="fill:#2b2a29" />
   <path
   d="m 100.04,167.314 3.7664,-4.3173 -1.2787,-29.9485 -0.9173,-46.6734 9.2475,-4.567 0,-4.1917 -10.8074,4.8775 -0.0105,-0.0212 0,84.8416 z m 10.8179,-90.088 0,-4.2157 -10.8074,4.8775 -0.0105,-0.0212 0,4.2416 10.8179,-4.8822 z m 0,-4.6058 0,-4.2155 -10.8074,4.8774 -0.0105,-0.0212 0,4.2415 10.8179,-4.8822 z m 0,-4.6058 0,-4.4882 -0.6952,0 -8.9253,4.1043 -0.0764,-4.1043 -1.121,0 0,9.3705 10.8179,-4.8823 z"
   id="_274000432"
   style="fill:#f7a707" />
   <path
   d="m 88.8521,77.5105 0,4.297 9.2475,4.567 -0.9172,46.6734 -1.2787,29.9485 3.7664,4.3173 0,-84.921 -10.818,-4.8822 z m 0,-4.6058 0,4.2156 10.818,4.8822 0,-4.2156 -10.818,-4.8822 z m 0,-4.6058 0,4.2156 10.818,4.8823 0,-4.2156 -10.818,-4.8823 z m 0.6953,-4.773 -0.6953,0 0,4.3829 10.818,4.8822 0,-9.2651 -1.1209,0 -0.0766,4.1043 -8.9252,-4.1043 z"
   id="_274000360"
   style="fill:#ffed00" />
   <path
   d="m 23.43,112.281 c 3.5985,-3.3003 6.3657,-7.3566 8.138,-11.9054 2.3385,-6.0022 2.8298,-12.6348 1.5974,-18.9448 -1.3611,-6.9689 -4.725,-13.3157 -9.4755,-18.5674 l -1.5458,-1.7088 7.1025,0 1.6903,2.18 1.1813,1.6956 1.0889,1.743 0.9962,1.7855 0.9044,1.8239 0.8124,1.857 0.7207,1.8859 0.6293,1.91 0.5385,1.9296 0.4476,1.9446 0.3572,1.955 0.2668,1.9605 0.1769,1.9621 0.087,1.9586 -0.0025,1.9508 -0.092,1.9382 -0.1811,1.9214 -0.2701,1.8998 -0.3591,1.8738 -0.4478,1.8428 -0.5362,1.8078 -0.625,1.7677 -0.7132,1.7231 -0.8014,1.6738 -0.8895,1.6197 -0.9776,1.561 -1.0654,1.4975 -1.1531,1.4292 -1.2403,1.3557 -1.3277,1.2779 -1.4143,1.1946 -1.0135,0.7473 -0.5838,-0.3484 c -1.293,-0.7716 -2.5037,-1.904 -2.3474,-3.542 l 0.0373,-0.3911 0.2896,-0.2655 z"
   id="_274000264"
   style="fill:#2b2a29" />
   <path
   d="m 25.9746,115.602 c -1.1773,-0.7025 -1.9537,-1.5148 -1.8534,-2.5665 13.7672,-12.6264 14.716,-34.951 0.3272,-50.8574 l 4.297,0 1.3673,1.7633 1.1518,1.6531 1.0617,1.6998 0.9719,1.7418 0.8823,1.7795 0.7929,1.8125 0.7035,1.8409 0.6145,1.8649 0.5259,1.8843 0.4371,1.8989 0.3488,1.9092 0.2606,1.9146 0.1727,1.9157 0.0849,1.912 -0.0025,1.9038 -0.0897,1.8909 -0.1766,1.8737 -0.2633,1.8515 -0.3496,1.825 -0.4359,1.7936 -0.5215,1.758 -0.6071,1.7175 -0.6924,1.6726 -0.7772,1.6231 -0.8617,1.5691 -0.946,1.5108 -1.0301,1.4477 -1.1137,1.3803 -1.197,1.3085 -1.2803,1.2322 -1.3631,1.1514 -0.439,0.3237 z"
   id="_274000168"
   style="fill:#f7a707" />
   <path
   d="m 25.7561,62.1775 c 6.5075,5.1051 10.876,14.53 10.876,25.3119 0,11.5988 -5.0551,21.6274 -12.3907,26.3965 -0.0079,-0.02 -0.0156,-0.0401 -0.0228,-0.0602 l -4e-4,-0.001 -4e-4,-0.001 -0.0045,-0.0125 -0.0043,-0.0126 -0.0044,-0.0126 -0.0015,-0.005 -0.0025,-0.008 -0.0041,-0.0126 -0.0039,-0.0129 -0.0033,-0.0107 -7e-4,-0.002 -0.0109,-0.0386 -0.0011,-0.004 -0.0117,-0.0449 -6e-4,-0.002 c -0.0105,-0.0428 -0.0193,-0.086 -0.0267,-0.1295 l -2e-4,-0.001 -6e-4,-0.003 -2e-4,-0.001 -0.0069,-0.0449 -5e-4,-0.004 -0.0033,-0.0268 -0.0017,-0.0132 -3e-4,-0.003 -10e-4,-0.0109 -0.0014,-0.0134 -0.0013,-0.0135 -9e-4,-0.009 -4e-4,-0.004 -9e-4,-0.0137 -0.0017,-0.0238 -2e-4,-0.003 -2e-4,-0.002 -10e-5,-0.003 -0.002,-0.0442 -2e-4,-0.005 -8e-4,-0.0411 0,-0.001 0,-0.0125 2e-4,-0.0245 10e-5,-0.003 0,-0.008 10e-5,-0.006 0.0013,-0.0408 10e-5,-10e-4 0,-6e-4 10e-5,-0.002 0.0027,-0.0466 5e-4,-0.007 0.0033,-0.0422 c 13.7672,-12.6264 14.716,-34.951 0.3272,-50.8575 l 1.3077,0 z"
   id="_274000072"
   style="fill:#ffed00" />
   <path
   d="m 23.8772,119.295 c -0.5231,0.9219 -1.3183,1.6644 -2.2966,2.1036 -0.5,0.2502 -1.0463,0.3906 -1.6049,0.413 -0.0574,0.002 -0.1149,0.003 -0.1724,0.004 -0.0619,0.002 -0.1238,0.004 -0.1857,0.004 -1.4005,0 -2.673,-0.5747 -3.5986,-1.6258 -1.8127,-2.0583 -1.8459,-5.3811 0.259,-7.25 1.5062,-1.3369 3.8259,-1.8715 5.785,-1.477 2.8073,0.5652 5.3295,2.4998 7.0911,4.6998 l 0.0183,0.023 0.422,0.5997 0.3866,0.6241 0.3542,0.6461 0.3245,0.6671 0.2993,0.6917 0.273,0.705 0.2518,0.7226 0.2338,0.7395 0.2189,0.7598 0.205,0.7697 0.1943,0.7824 0.1875,0.798 0.1826,0.8105 0.1804,0.8225 0.1806,0.8336 0.1836,0.8439 0.1889,0.8533 0.1969,0.8621 0.2071,0.8699 0.221,0.8787 0.2354,0.8835 0.2535,0.8885 0.2737,0.8933 0.2965,0.8972 0.3217,0.9 0.3495,0.9022 0.3798,0.9051 0.7371,1.6321 0.7875,1.6362 0.8411,1.6353 0.8975,1.6297 0.9569,1.62 1.0195,1.6062 1.0851,1.5882 1.1534,1.566 1.2251,1.5394 1.3036,1.5124 1.3776,1.4734 1.4587,1.4349 1.5429,1.3913 1.6299,1.3441 1.7203,1.2926 1.8137,1.2368 1.9108,1.1768 2.0111,1.1127 2.1141,1.0447 2.2211,0.9719 2.331,0.8949 2.4444,0.8138 2.5609,0.7283 2.6809,0.6382 2.804,0.5437 2.9253,0.4447 3.0602,0.3421 3.1928,0.2346 3.3288,0.1222 3.4677,0.006 3.6101,-0.1152 3.112,-0.1995 -0.9749,1.5822 c -0.8084,1.3123 -1.8114,2.4929 -2.9696,3.5093 -5.8059,5.0958 -14.7378,5.6506 -21.9974,4.1768 -18.0011,-3.6546 -32.9804,-17.3106 -41.3553,-33.2636 -1.7184,-3.2736 -3.0107,-6.7323 -4.0021,-10.2903 -1.0006,-3.5912 -1.7274,-7.2491 -2.5413,-10.885 -0.3596,-1.6074 -0.7593,-3.2085 -1.2775,-4.773 -0.1557,-0.4704 -0.3208,-0.9384 -0.5043,-1.3988 z"
   id="_273999976"
   style="fill:#2b2a29" />
   <path
   d="m 97.7064,171.715 c -4.4912,7.2901 -14.5837,9.1511 -23.9575,7.2481 -17.5626,-3.5656 -32.3685,-16.9069 -40.6953,-32.7684 -3.6697,-6.9903 -4.76,-13.3593 -6.4565,-20.9384 -0.7608,-3.399 -1.7151,-6.697 -2.997,-8.6341 3e-4,0.0223 8e-4,0.0446 8e-4,0.0669 0,1.7261 -1.0032,3.2075 -2.4327,3.8404 -0.3677,0.187 -0.7835,0.303 -1.2313,0.3211 -0.0524,0.002 -0.1044,0.003 -0.1561,0.003 -0.0541,0.002 -0.1086,0.004 -0.1633,0.004 -3.7013,0 -5.3003,-4.8882 -2.7013,-7.1957 1.2788,-1.1351 3.2928,-1.5887 4.9572,-1.2536 2.567,0.5169 4.904,2.3271 6.5295,4.3573 l 0.3891,0.5531 0.3586,0.5784 0.3305,0.6031 0.305,0.627 0.2816,0.6504 0.2607,0.6727 0.242,0.6944 0.226,0.7149 0.212,0.7347 0.2007,0.7536 0.1916,0.7716 0.1854,0.7884 0.1812,0.8043 0.1797,0.8195 0.1807,0.8336 0.1842,0.8466 0.1902,0.859 0.1987,0.8702 0.2098,0.8807 0.2236,0.8899 0.2396,0.8984 0.2585,0.906 0.2797,0.9127 0.3036,0.9182 0.3299,0.923 0.359,0.9268 0.3902,0.9291 0.747,1.6543 0.7985,1.6584 0.8533,1.6586 0.9112,1.6545 0.9725,1.646 1.0366,1.6331 1.1041,1.6158 1.1745,1.5942 1.2483,1.568 1.325,1.5376 1.405,1.5026 1.4878,1.4634 1.5741,1.4196 1.663,1.3714 1.7553,1.3188 1.8505,1.262 1.9489,1.2002 2.05,1.1345 2.1544,1.0643 2.2616,0.9897 2.3721,0.9106 2.485,0.8274 2.6015,0.7397 2.7208,0.6478 2.8432,0.5514 2.9685,0.4509 3.097,0.3461 3.2284,0.2369 3.363,0.1235 3.5007,0.006 3.6413,-0.1163 1.2686,-0.0812 z"
   id="_273999880"
   style="fill:#ffed00" />
   <path
   d="m 15.6613,117.042 c 2.1204,1.2193 4.7782,4.3731 7.9332,-0.1209 -0.0851,1.6261 -1.0611,3.0043 -2.4263,3.6088 -0.3677,0.1869 -0.7835,0.303 -1.2313,0.321 -0.0524,0.002 -0.1043,0.003 -0.1561,0.003 -0.0541,0.002 -0.1086,0.004 -0.1632,0.004 -2.279,0 -3.7605,-1.8528 -3.9563,-3.8156 z m 8.0354,-0.2694 c 0.0272,-0.0399 0.0542,-0.0772 0.0814,-0.1183 2.915,0.5276 5.1124,7.4845 7.3682,16.7617 5.0724,20.8614 27.9992,49.4192 57.4067,40.9469 0.3015,1.2627 0.6029,2.5389 0.9044,3.8223 -4.6692,1.7209 -10.3078,1.8746 -15.7086,0.7782 -17.5625,-3.5656 -32.3684,-16.9069 -40.6953,-32.7684 -3.6696,-6.9903 -4.7599,-13.3592 -6.4564,-20.9383 -0.7416,-3.3128 -1.6671,-6.5296 -2.9004,-8.4841 z"
   id="_273999784"
   style="fill:#f7a707" />
   <path
   d="m 176.28,112.281 c -3.5985,-3.3003 -6.3657,-7.3566 -8.138,-11.9054 -2.3386,-6.0022 -2.8298,-12.6348 -1.5975,-18.9448 1.3611,-6.9689 4.725,-13.3157 9.4755,-18.5674 l 1.5458,-1.7088 -7.1024,0 -1.6903,2.18 -1.1814,1.6956 -1.0888,1.743 -0.9963,1.7855 -0.9043,1.8239 -0.8124,1.857 -0.7208,1.8859 -0.6293,1.91 -0.5385,1.9296 -0.4475,1.9446 -0.3573,1.955 -0.2667,1.9605 -0.177,1.9621 -0.0869,1.9586 0.002,1.9508 0.092,1.9382 0.181,1.9214 0.2701,1.8998 0.3591,1.8738 0.4478,1.8428 0.5363,1.8078 0.625,1.7677 0.7132,1.7231 0.8014,1.6738 0.8895,1.6197 0.9776,1.561 1.0654,1.4975 1.1531,1.4292 1.2403,1.3557 1.3277,1.2779 1.4142,1.1946 1.0135,0.7473 0.5838,-0.3484 c 1.2931,-0.7716 2.5038,-1.904 2.3475,-3.542 l -0.0373,-0.3911 -0.2896,-0.2655 z"
   id="_273999688"
   style="fill:#2b2a29" />
   <path
   d="m 173.736,115.602 c 1.1774,-0.7025 1.9537,-1.5148 1.8535,-2.5665 -13.7672,-12.6264 -14.716,-34.951 -0.3273,-50.8574 l -4.2969,0 -1.3673,1.7633 -1.1518,1.6531 -1.0618,1.6998 -0.9718,1.7418 -0.8824,1.7795 -0.7928,1.8125 -0.7036,1.8409 -0.6145,1.8649 -0.5258,1.8843 -0.4371,1.8989 -0.3489,1.9092 -0.2605,1.9146 -0.1727,1.9157 -0.0849,1.912 0.002,1.9038 0.0898,1.8909 0.1765,1.8737 0.2633,1.8515 0.3497,1.825 0.4358,1.7936 0.5216,1.758 0.6071,1.7175 0.6923,1.6726 0.7773,1.6231 0.8617,1.5691 0.946,1.5108 1.03,1.4477 1.1137,1.3803 1.197,1.3085 1.2804,1.2322 1.3631,1.1514 0.4389,0.3237 z"
   id="_273999592"
   style="fill:#f7a707" />
   <path
   d="m 173.954,62.1775 c -6.5075,5.1051 -10.8761,14.53 -10.8761,25.3119 0,11.5988 5.0552,21.6274 12.3907,26.3965 0.008,-0.02 0.0157,-0.0401 0.0228,-0.0602 l 5e-4,-0.001 4e-4,-0.001 0.005,-0.0125 0.004,-0.0126 0.004,-0.0126 0.001,-0.005 0.002,-0.008 0.004,-0.0126 0.004,-0.0129 0.003,-0.0107 6e-4,-0.002 0.011,-0.0386 0.001,-0.004 0.0116,-0.0449 7e-4,-0.002 c 0.0105,-0.0428 0.0193,-0.086 0.0267,-0.1295 l 2e-4,-0.001 6e-4,-0.003 2e-4,-0.001 0.007,-0.0449 5e-4,-0.004 0.003,-0.0268 0.002,-0.0132 3e-4,-0.003 0.001,-0.0109 0.001,-0.0134 0.001,-0.0135 0.001,-0.009 4e-4,-0.004 9e-4,-0.0137 0.002,-0.0238 2e-4,-0.003 2e-4,-0.002 1e-4,-0.003 0.002,-0.0442 2e-4,-0.005 8e-4,-0.0411 0,-0.001 0,-0.0125 -2e-4,-0.0245 -1e-4,-0.003 0,-0.008 -1e-4,-0.006 -0.001,-0.0408 -1e-4,-10e-4 0,-6e-4 -10e-5,-0.002 -0.003,-0.0466 -5e-4,-0.007 -0.003,-0.0422 c -13.7671,-12.6264 -14.716,-34.951 -0.3272,-50.8575 l -1.3076,0 z"
   id="_273999496"
   style="fill:#ffed00" />
   <path
   d="m 175.833,119.295 c 0.5231,0.9219 1.3183,1.6644 2.2966,2.1036 0.4999,0.2502 1.0463,0.3906 1.6048,0.413 0.0575,0.002 0.115,0.003 0.1725,0.004 0.0618,0.002 0.1237,0.004 0.1857,0.004 1.4005,0 2.6729,-0.5747 3.5985,-1.6258 1.8128,-2.0583 1.8459,-5.3811 -0.2589,-7.25 -1.5063,-1.3369 -3.8259,-1.8715 -5.7851,-1.477 -2.8073,0.5652 -5.3294,2.4998 -7.0911,4.6998 l -0.0183,0.023 -0.422,0.5997 -0.3866,0.6241 -0.3542,0.6461 -0.3245,0.6671 -0.2992,0.6917 -0.273,0.705 -0.2518,0.7226 -0.2338,0.7395 -0.2189,0.7598 -0.2051,0.7697 -0.1942,0.7824 -0.1876,0.798 -0.1825,0.8105 -0.1805,0.8225 -0.1806,0.8336 -0.1836,0.8439 -0.1889,0.8533 -0.1969,0.8621 -0.2071,0.8699 -0.2209,0.8787 -0.2354,0.8835 -0.2536,0.8885 -0.2737,0.8933 -0.2965,0.8972 -0.3216,0.9 -0.3495,0.9022 -0.3799,0.9051 -0.737,1.6321 -0.7875,1.6362 -0.8412,1.6353 -0.8974,1.6297 -0.9569,1.62 -1.0195,1.6062 -1.0851,1.5882 -1.1534,1.566 -1.2252,1.5394 -1.3035,1.5124 -1.3777,1.4734 -1.4587,1.4349 -1.5428,1.3913 -1.6299,1.3441 -1.7203,1.2926 -1.8137,1.2368 -1.9108,1.1768 -2.0111,1.1127 -2.1141,1.0447 -2.2212,0.9719 -2.331,0.8949 -2.4443,0.8138 -2.5609,0.7283 -2.6809,0.6382 -2.8041,0.5437 -2.9252,0.4447 -3.0602,0.3421 -3.1928,0.2346 -3.3289,0.1222 -3.4677,0.006 -3.6101,-0.1152 -3.112,-0.1995 0.975,1.5822 c 0.8084,1.3123 1.8114,2.4929 2.9696,3.5093 5.8059,5.0958 14.7378,5.6506 21.9974,4.1768 18.001,-3.6546 32.9804,-17.3106 41.3553,-33.2636 1.7183,-3.2736 3.0107,-6.7323 4.0021,-10.2903 1.0006,-3.5912 1.7274,-7.2491 2.5413,-10.885 0.3596,-1.6074 0.7593,-3.2085 1.2774,-4.773 0.1558,-0.4704 0.3209,-0.9384 0.5044,-1.3988 z"
   id="_273999400"
   style="fill:#2b2a29" />
   <path
   d="m 102.004,171.715 c 4.4911,7.2901 14.5837,9.1511 23.9575,7.2481 17.5626,-3.5656 32.3685,-16.9069 40.6953,-32.7684 3.6696,-6.9903 4.76,-13.3593 6.4565,-20.9384 0.7608,-3.399 1.715,-6.697 2.997,-8.6341 -3e-4,0.0223 -8e-4,0.0446 -8e-4,0.0669 0,1.7261 1.0031,3.2075 2.4327,3.8404 0.3676,0.187 0.7835,0.303 1.2313,0.3211 0.0524,0.002 0.1043,0.003 0.1561,0.003 0.0541,0.002 0.1086,0.004 0.1632,0.004 3.7014,0 5.3004,-4.8882 2.7013,-7.1957 -1.2787,-1.1351 -3.2928,-1.5887 -4.9572,-1.2536 -2.5669,0.5169 -4.9039,2.3271 -6.5295,4.3573 l -0.3891,0.5531 -0.3585,0.5784 -0.3305,0.6031 -0.305,0.627 -0.2816,0.6504 -0.2607,0.6727 -0.242,0.6944 -0.226,0.7149 -0.212,0.7347 -0.2007,0.7536 -0.1917,0.7716 -0.1853,0.7884 -0.1812,0.8043 -0.1797,0.8195 -0.1807,0.8336 -0.1843,0.8466 -0.1901,0.859 -0.1988,0.8702 -0.2097,0.8807 -0.2237,0.8899 -0.2396,0.8984 -0.2584,0.906 -0.2797,0.9127 -0.3036,0.9182 -0.33,0.923 -0.3589,0.9268 -0.3902,0.9291 -0.7471,1.6543 -0.7984,1.6584 -0.8533,1.6586 -0.9112,1.6545 -0.9725,1.646 -1.0366,1.6331 -1.1041,1.6158 -1.1745,1.5942 -1.2483,1.568 -1.3251,1.5376 -1.4049,1.5026 -1.4878,1.4634 -1.5741,1.4196 -1.663,1.3714 -1.7553,1.3188 -1.8505,1.262 -1.9489,1.2002 -2.0501,1.1345 -2.1544,1.0643 -2.2616,0.9897 -2.372,0.9106 -2.4851,0.8274 -2.6014,0.7397 -2.7208,0.6478 -2.8433,0.5514 -2.9685,0.4509 -3.0969,0.3461 -3.2284,0.2369 -3.3631,0.1235 -3.5006,0.006 -3.6414,-0.1163 -1.2685,-0.0812 z"
   id="_273999304"
   style="fill:#ffed00" />
   <path
   d="m 184.049,117.042 c -2.1204,1.2193 -4.7782,4.3731 -7.9333,-0.1209 0.0851,1.6261 1.0612,3.0043 2.4264,3.6088 0.3677,0.1869 0.7834,0.303 1.2313,0.321 0.0524,0.002 0.1043,0.003 0.1561,0.003 0.0541,0.002 0.1086,0.004 0.1632,0.004 2.2789,0 3.7604,-1.8528 3.9563,-3.8156 z m -8.0354,-0.2694 c -0.0272,-0.0399 -0.0542,-0.0772 -0.0814,-0.1183 -2.9151,0.5276 -5.1125,7.4845 -7.3682,16.7617 -5.0725,20.8614 -27.9993,49.4192 -57.4067,40.9469 -0.3015,1.2627 -0.6029,2.5389 -0.9044,3.8223 4.6691,1.7209 10.3078,1.8746 15.7085,0.7782 17.5625,-3.5656 32.3685,-16.9069 40.6953,-32.7684 3.6696,-6.9903 4.76,-13.3592 6.4565,-20.9383 0.7416,-3.3128 1.6671,-6.5296 2.9004,-8.4841 z"
   id="_273999208"
   style="fill:#f7a707" />
   <path
   d="m 91.1209,32.2096 c -1.5436,1.3858 -3.5169,2.3842 -5.5602,2.7411 -1.589,0.2776 -4.0005,0.2246 -4.859,-1.4184 -0.0996,-0.1907 -0.1697,-0.391 -0.2114,-0.5977 -0.4197,0.3546 -0.8602,0.6848 -1.3349,0.9628 -0.3415,0.1998 -0.6995,0.3713 -1.0712,0.5075 -3.5548,1.3013 -7.3838,0.8622 -10.5772,-1.1603 l -0.4694,-0.2973 c -2.7751,1.0756 -5.7355,1.7252 -8.7233,1.5961 -2.93,-0.1268 -5.671,-0.9881 -8.191,-2.4786 l -0.1735,-0.1027 c -2.6773,0.7283 -5.392,1.3282 -8.137,1.7377 -3.9373,0.587 -7.9255,0.7592 -11.8858,0.2969 -3.1295,-0.3654 -6.1709,-1.1371 -9.1577,-2.1256 L 17.7331,30.8665 20.82,30.0309 C 25.5017,28.7632 30.1913,27.5248 34.8808,26.2865 51.6272,21.864 68.391,17.4152 84.7561,11.7091 l 0.6083,-0.212 0.4272,0.4818 c 0.7747,0.8734 1.5495,1.7469 2.3243,2.6203 l 0.3024,0.3412 -0.0728,0.4499 c -0.487,3.017 -0.3267,6.2078 1.0969,8.965 1.1372,2.2022 2.9545,3.8745 5.2024,4.9035 1.6729,0.7658 3.5182,1.1442 5.3559,1.1441 1.8374,0 3.6822,-0.3784 5.3547,-1.144 2.2479,-1.029 4.0653,-2.7012 5.2027,-4.9034 1.4237,-2.7572 1.5839,-5.9481 1.0969,-8.9652 l -0.0727,-0.4499 0.3025,-0.3413 c 0.7748,-0.8733 1.5494,-1.7468 2.3242,-2.6202 l 0.4275,-0.4818 0.6079,0.212 c 16.3652,5.7062 33.129,10.1549 49.8754,14.5774 4.6895,1.2383 9.379,2.4767 14.0607,3.7444 l 3.0868,0.8356 -3.036,1.0046 c -2.9868,0.9885 -6.0282,1.7602 -9.1577,2.1256 -3.9603,0.4623 -7.9485,0.2901 -11.8859,-0.2969 -2.745,-0.4095 -5.4596,-1.0094 -8.1371,-1.7376 l -0.1733,0.1026 c -2.5198,1.4906 -5.2609,2.3518 -8.1909,2.4786 -3.0622,0.1324 -6.0958,-0.5534 -8.9307,-1.6774 l -0.2621,0.1661 c -3.1329,1.9841 -7.0483,2.6646 -10.5774,1.3728 -0.3716,-0.1362 -0.7296,-0.3077 -1.0711,-0.5074 -0.4746,-0.278 -0.9152,-0.6082 -1.3349,-0.9628 -0.0416,0.2066 -0.1118,0.407 -0.2114,0.5977 -0.8584,1.643 -3.2699,1.6959 -4.859,1.4183 -2.0433,-0.3569 -4.0165,-1.3553 -5.5602,-2.7411 -5.1727,3.5164 -12.586,3.5164 -17.7587,0 z"
   id="_273999112"
   style="fill:#2b2a29" />
   <path
   d="m 21.0711,30.9587 c 21.334,-5.7763 42.6675,-10.9033 64.0015,-18.342 0.7747,0.8735 1.5493,1.7469 2.324,2.6203 -3.4718,21.5029 28.6791,21.5028 25.2073,0 0.7747,-0.8734 1.5494,-1.7468 2.3241,-2.6203 21.334,7.4387 42.6675,12.5657 64.0014,18.342 -10.9924,3.6372 -24.2155,5.2855 -59.1745,-12.4463 8.5489,4.8598 18.8593,9.0299 29.633,12.725 -10.0709,5.9574 -20.9922,-0.1972 -31.0632,-9.1222 3.7742,3.8759 8.609,7.1025 13.6544,10.1048 -3.1024,1.9649 -6.63,2.4179 -9.7324,1.2821 -2.7375,-1.0021 -3.9853,-4.004 -8.2126,-5.9826 10.5064,6.7653 0.2913,9.0473 -5.0653,3.4392 -5.06,3.9026 -12.8771,3.9026 -17.9371,0 -5.3565,5.6081 -15.5717,3.3261 -5.0653,-3.4392 -4.2272,1.9786 -5.475,4.9805 -8.2126,5.9826 -3.1025,1.1358 -6.63,0.8953 -9.7324,-1.0695 5.0457,-3.0024 9.8802,-6.4415 13.6544,-10.3174 -10.0708,8.925 -20.9922,15.0796 -31.0631,9.1222 10.7737,-3.6951 21.084,-7.8652 29.6329,-12.725 -34.9589,17.7318 -48.182,16.0835 -59.1745,12.4463 z"
   id="_273999016"
   style="fill:#ffed00" />
   <path
   d="m 81.2814,13.9146 3e-4,1.6029 C 63.0215,24.7822 43.4612,29.765 24.9222,32.063 c 6.7977,1.7148 15.084,2.1024 28.6338,-2.2032 4.852,-1.5673 9.7778,-3.4604 14.655,-5.6144 4.5435,-2.007 8.7876,-4.0638 13.1602,-6.4168 l 0.0424,0.0423 c 0.0637,0.8299 0.1732,1.6436 0.3271,2.4372 -7.6164,5.5822 -17.4753,9.8494 -27.2379,12.6062 1.0019,0.2949 1.9942,0.4928 2.9753,0.6054 8.048,0.782 16.379,-4.4754 24.1977,-11.4045 -0.1377,0.1414 -0.2768,0.2822 -0.4174,0.4224 0.2811,-0.2451 0.5587,-0.4884 0.8319,-0.7285 0.3399,1.251 0.7904,2.4415 1.3371,3.5558 -2.1955,3.3401 -8.046,6.7139 -12.536,8.3461 2.301,0.6778 4.6861,0.5588 6.8624,-0.238 2.5153,-0.9208 3.7733,-3.5301 7.2401,-5.4823 l 0.0148,0.0206 c 0.3019,-0.1695 0.6203,-0.3338 0.9578,-0.4918 -0.3134,0.2018 -0.6073,0.3993 -0.8844,0.593 0.6194,0.8481 1.3038,1.6254 2.0437,2.3214 -0.9737,1.1811 -2.7067,2.5251 -4.0125,3.5708 1.2313,0.1115 2.8103,-0.0306 4.391,-0.6294 1.2339,-0.5184 2.4746,-1.3144 3.5275,-2.4167 0.797,0.6148 1.6623,1.1321 2.5746,1.5532 L 94.505,30.244 C 90.8433,28.6635 87.916,25.404 87.2707,20.4677 87.2521,20.3278 87.2351,20.1866 87.2202,20.044 87.21,19.9466 87.2007,19.8485 87.1925,19.7496 87.174,19.5319 87.1597,19.3112 87.15,19.0873 l -0.0052,-0.1389 c -0.0094,-0.267 -0.0124,-0.5383 -0.009,-0.814 l 2e-4,-0.0248 c 0.0125,-0.9119 0.0955,-1.8706 0.2568,-2.8769 l -2.3202,-2.6159 c -1.2638,0.4406 -2.5274,0.8727 -3.7912,1.2978 z"
   id="_273998920"
   style="fill:#f7a707" />
   <path
   d="m 118.726,13.9146 -2e-4,1.6029 c 18.2601,9.2647 37.8205,14.2475 56.3595,16.5455 -6.7978,1.7148 -15.084,2.1024 -28.6338,-2.2032 -4.852,-1.5673 -9.7778,-3.4604 -14.655,-5.6144 -4.5435,-2.007 -8.7876,-4.0638 -13.1603,-6.4168 l -0.0423,0.0423 c -0.0637,0.8299 -0.1733,1.6436 -0.3271,2.4372 7.6164,5.5822 17.4752,9.8494 27.2379,12.6062 -1.0019,0.2949 -1.9942,0.4928 -2.9753,0.6054 -8.048,0.782 -16.379,-4.4754 -24.1977,-11.4045 0.1377,0.1414 0.2768,0.2822 0.4173,0.4224 -0.281,-0.2451 -0.5586,-0.4884 -0.8318,-0.7285 -0.3399,1.251 -0.7904,2.4415 -1.3372,3.5558 2.1955,3.3401 8.0461,6.7139 12.5361,8.3461 -2.301,0.6778 -4.6862,0.5588 -6.8624,-0.238 -2.5153,-0.9208 -3.7733,-3.5301 -7.2401,-5.4823 l -0.0149,0.0206 c -0.3018,-0.1695 -0.6202,-0.3338 -0.9577,-0.4918 0.3134,0.2018 0.6072,0.3993 0.8844,0.593 -0.6194,0.8481 -1.3038,1.6254 -2.0437,2.3214 0.9737,1.1811 2.7067,2.5251 4.0124,3.5708 -1.2312,0.1115 -2.8102,-0.0306 -4.3909,-0.6294 -1.2339,-0.5184 -2.4746,-1.3144 -3.5275,-2.4167 -0.797,0.6148 -1.6623,1.1321 -2.5746,1.5532 l -0.8986,-2.2678 c 3.6617,-1.5805 6.589,-4.84 7.2343,-9.7763 0.0186,-0.1399 0.0356,-0.2811 0.0505,-0.4237 0.0102,-0.0974 0.0195,-0.1955 0.0277,-0.2944 0.0185,-0.2177 0.0327,-0.4384 0.0425,-0.6623 l 0.005,-0.1389 c 0.009,-0.267 0.0123,-0.5383 0.009,-0.814 l -2e-4,-0.0248 c -0.0125,-0.9119 -0.0956,-1.8706 -0.2569,-2.8769 l 2.3203,-2.6159 c 1.2638,0.4406 2.5274,0.8727 3.7911,1.2978 z"
   id="_273998824"
   style="fill:#f7a707" />
   <ellipse
   cx="100"
   cy="18.236799"
   rx="14.5676"
   ry="14.5676"
   id="_273998728"
   style="fill:none" />
   <ellipse
   cx="100"
   cy="18.236799"
   rx="14.2107"
   ry="14.2107"
   id="_273998632"
   style="fill:#079e41" />
   <path
   d="m 100,1.2186 c 9.397,0 17.0182,7.6212 17.0182,17.0182 0,9.3971 -7.6212,17.0183 -17.0182,17.0183 -9.397,0 -17.0183,-7.6213 -17.0183,-17.0183 C 82.9817,8.8399 90.603,1.2186 100,1.2186 z m 0,3.4734 c -7.4796,0 -13.5448,6.0653 -13.5448,13.5448 0,7.4796 6.0652,13.5449 13.5448,13.5449 7.4796,0 13.5449,-6.0652 13.5449,-13.5449 C 113.5449,10.7572 107.4796,4.692 100,4.692 z"
   id="_273998536"
   style="fill:#2b2a29" />
   <path
   d="m 100,2.2413 c 8.8325,0 15.9955,7.163 15.9955,15.9955 0,8.8326 -7.163,15.9955 -15.9955,15.9955 -8.8325,0 -15.9955,-7.1629 -15.9955,-15.9955 0,-8.8325 7.163,-15.9955 15.9955,-15.9955 z m 0,1.4279 c 8.0441,0 14.5676,6.5235 14.5676,14.5676 0,8.0442 -6.5235,14.5677 -14.5676,14.5677 -8.0441,0 -14.5676,-6.5235 -14.5676,-14.5677 0,-8.0441 6.5235,-14.5676 14.5676,-14.5676 z"
   id="_273998440"
   style="fill:#fefefe" />
   <polygon
   points="174.42,36.9926 174.42,58.4038 25.6862,58.4038 25.6862,36.9926 "
   id="_273998344"
   style="fill:#fefefe" />
   <g
   id="g74">
    <path
   d="m 20.9618,32.1841 158.183,0 0,31.0284 -158.183,0 0,-31.0284 z m 5.8502,5.9266 0,19.1749 146.483,0 0,-19.1749 -146.483,0 z"
   id="_273998272"
   style="fill:#2b2a29" />
   </g>
   <path
   d="m 21.6203,32.8426 156.866,0 0,29.7112 -156.866,0 0,-29.7112 z m 4.5331,4.6095 0,20.4922 147.8,0 0,-20.4922 -147.8,0 z"
   id="_273998032"
   style="fill:#2b2a29" />
   <path
   d="m 22.3874,33.6097 155.332,0 0,28.1771 -155.332,0 0,-28.1771 z m 2.9989,3.0754 149.334,0 0,22.0262 -149.334,0 0,-22.0262 z"
   id="_282316624"
   style="fill:#f7a707" />
   <polygon
   points="147.549,81.9251 153.209,81.9251 144.659,77.1233 "
   id="_282316552"
   style="fill:#2b2a29" />
   <polygon
   points="144.659,77.1233 144.659,86.3694 147.549,81.9251 "
   id="_282316480"
   style="fill:#2b2a29" />
   <polygon
   points="150.525,77.1233 153.209,72.104 144.659,77.1233 "
   id="_282316408"
   style="fill:#2b2a29" />
   <polygon
   points="144.659,77.1233 153.209,81.9251 150.525,77.1233 "
   id="_282316336"
   style="fill:#2b2a29" />
   <polygon
   points="138.964,77.1233 136.074,81.9251 144.659,77.1233 "
   id="_282316264"
   style="fill:#2b2a29" />
   <polygon
   points="144.659,77.1233 136.074,72.104 138.964,77.1233 "
   id="_282316192"
   style="fill:#2b2a29" />
   <polygon
   points="141.94,81.9251 144.659,86.3694 144.659,77.1233 "
   id="_282316120"
   style="fill:#2b2a29" />
   <polygon
   points="144.659,77.1233 136.074,81.9251 141.94,81.9251 "
   id="_282316048"
   style="fill:#2b2a29" />
   <polygon
   points="141.94,72.104 136.074,72.104 144.659,77.1233 "
   id="_282315976"
   style="fill:#2b2a29" />
   <polygon
   points="144.659,77.1233 144.659,67.4421 141.94,72.104 "
   id="_282315904"
   style="fill:#2b2a29" />
   <polygon
   points="147.549,72.104 144.659,67.4421 144.659,77.1233 "
   id="_282315832"
   style="fill:#2b2a29" />
   <polygon
   points="144.659,77.1233 153.209,72.104 147.549,72.104 "
   id="_282315760"
   style="fill:#2b2a29" />
   <polygon
   points="147.065,81.4412 152.725,81.4412 144.175,76.6394 "
   id="_282315688"
   style="fill:#f7a707" />
   <polygon
   points="144.175,76.6394 144.175,85.8856 147.065,81.4412 "
   id="_282315616"
   style="fill:#f7a707" />
   <polygon
   points="150.041,76.6394 152.725,71.6201 144.175,76.6394 "
   id="_282315544"
   style="fill:#f7a707" />
   <polygon
   points="144.175,76.6394 152.725,81.4412 150.041,76.6394 "
   id="_282315472"
   style="fill:#ffed00" />
   <polygon
   points="138.48,76.6394 135.59,81.4412 144.175,76.6394 "
   id="_282315400"
   style="fill:#ffed00" />
   <polygon
   points="144.175,76.6394 135.59,71.6201 138.48,76.6394 "
   id="_282315328"
   style="fill:#f7a707" />
   <polygon
   points="141.457,81.4412 144.175,85.8856 144.175,76.6394 "
   id="_282315256"
   style="fill:#ffed00" />
   <polygon
   points="144.175,76.6394 135.59,81.4412 141.457,81.4412 "
   id="_282315184"
   style="fill:#f7a707" />
   <polygon
   points="141.457,71.6201 135.59,71.6201 144.175,76.6394 "
   id="_282315112"
   style="fill:#ffed00" />
   <polygon
   points="144.175,76.6394 144.175,66.9582 141.457,71.6201 "
   id="_282315040"
   style="fill:#ffed00" />
   <polygon
   points="147.065,71.6201 144.175,66.9582 144.175,76.6394 "
   id="_282314968"
   style="fill:#f7a707" />
   <polygon
   points="144.175,76.6394 152.725,71.6201 147.065,71.6201 "
   id="_282314896"
   style="fill:#ffed00" />
   <polygon
   points="147.549,105.337 153.209,105.337 144.659,100.535 "
   id="_282314824"
   style="fill:#2b2a29" />
   <polygon
   points="144.659,100.535 144.659,109.781 147.549,105.337 "
   id="_282314752"
   style="fill:#2b2a29" />
   <polygon
   points="150.525,100.535 153.209,95.5158 144.659,100.535 "
   id="_282314680"
   style="fill:#2b2a29" />
   <polygon
   points="144.659,100.535 153.209,105.337 150.525,100.535 "
   id="_282314608"
   style="fill:#2b2a29" />
   <polygon
   points="138.964,100.535 136.074,105.337 144.659,100.535 "
   id="_282314536"
   style="fill:#2b2a29" />
   <polygon
   points="144.659,100.535 136.074,95.5158 138.964,100.535 "
   id="_282314464"
   style="fill:#2b2a29" />
   <polygon
   points="141.94,105.337 144.659,109.781 144.659,100.535 "
   id="_282314392"
   style="fill:#2b2a29" />
   <polygon
   points="144.659,100.535 136.074,105.337 141.94,105.337 "
   id="_282314320"
   style="fill:#2b2a29" />
   <polygon
   points="141.94,95.5158 136.074,95.5158 144.659,100.535 "
   id="_282314248"
   style="fill:#2b2a29" />
   <polygon
   points="144.659,100.535 144.659,90.8538 141.94,95.5158 "
   id="_282314176"
   style="fill:#2b2a29" />
   <polygon
   points="147.549,95.5158 144.659,90.8538 144.659,100.535 "
   id="_282314104"
   style="fill:#2b2a29" />
   <polygon
   points="144.659,100.535 153.209,95.5158 147.549,95.5158 "
   id="_282314032"
   style="fill:#2b2a29" />
   <polygon
   points="147.065,104.853 152.725,104.853 144.175,100.051 "
   id="_282313960"
   style="fill:#f7a707" />
   <polygon
   points="144.175,100.051 144.175,109.297 147.065,104.853 "
   id="_282313888"
   style="fill:#f7a707" />
   <polygon
   points="150.041,100.051 152.725,95.0319 144.175,100.051 "
   id="_282313816"
   style="fill:#f7a707" />
   <polygon
   points="144.175,100.051 152.725,104.853 150.041,100.051 "
   id="_282313744"
   style="fill:#ffed00" />
   <polygon
   points="138.48,100.051 135.59,104.853 144.175,100.051 "
   id="_282313672"
   style="fill:#ffed00" />
   <polygon
   points="144.175,100.051 135.59,95.0319 138.48,100.051 "
   id="_282313600"
   style="fill:#f7a707" />
   <polygon
   points="141.457,104.853 144.175,109.297 144.175,100.051 "
   id="_282313528"
   style="fill:#ffed00" />
   <polygon
   points="144.175,100.051 135.59,104.853 141.457,104.853 "
   id="_282313456"
   style="fill:#f7a707" />
   <polygon
   points="141.457,95.0319 135.59,95.0319 144.175,100.051 "
   id="_282313384"
   style="fill:#ffed00" />
   <polygon
   points="144.175,100.051 144.175,90.3699 141.457,95.0319 "
   id="_282313312"
   style="fill:#ffed00" />
   <polygon
   points="147.065,95.0319 144.175,90.3699 144.175,100.051 "
   id="_282313240"
   style="fill:#f7a707" />
   <polygon
   points="144.175,100.051 152.725,95.0319 147.065,95.0319 "
   id="_282313168"
   style="fill:#ffed00" />
   <polygon
   points="147.549,128.749 153.209,128.749 144.659,123.947 "
   id="_282313096"
   style="fill:#2b2a29" />
   <polygon
   points="144.659,123.947 144.659,133.193 147.549,128.749 "
   id="_282313024"
   style="fill:#2b2a29" />
   <polygon
   points="150.525,123.947 153.209,118.928 144.659,123.947 "
   id="_282312952"
   style="fill:#2b2a29" />
   <polygon
   points="144.659,123.947 153.209,128.749 150.525,123.947 "
   id="_282312880"
   style="fill:#2b2a29" />
   <polygon
   points="138.964,123.947 136.074,128.749 144.659,123.947 "
   id="_282312808"
   style="fill:#2b2a29" />
   <polygon
   points="144.659,123.947 136.074,118.928 138.964,123.947 "
   id="_282312736"
   style="fill:#2b2a29" />
   <polygon
   points="141.94,128.749 144.659,133.193 144.659,123.947 "
   id="_282312664"
   style="fill:#2b2a29" />
   <polygon
   points="144.659,123.947 136.074,128.749 141.94,128.749 "
   id="_282312592"
   style="fill:#2b2a29" />
   <polygon
   points="141.94,118.928 136.074,118.928 144.659,123.947 "
   id="_196728280"
   style="fill:#2b2a29" />
   <polygon
   points="144.659,123.947 144.659,114.266 141.94,118.928 "
   id="_196728208"
   style="fill:#2b2a29" />
   <polygon
   points="147.549,118.928 144.659,114.266 144.659,123.947 "
   id="_196728136"
   style="fill:#2b2a29" />
   <polygon
   points="144.659,123.947 153.209,118.928 147.549,118.928 "
   id="_196728064"
   style="fill:#2b2a29" />
   <polygon
   points="147.065,128.265 152.725,128.265 144.175,123.463 "
   id="_196727992"
   style="fill:#f7a707" />
   <polygon
   points="144.175,123.463 144.175,132.709 147.065,128.265 "
   id="_196727920"
   style="fill:#f7a707" />
   <polygon
   points="150.041,123.463 152.725,118.444 144.175,123.463 "
   id="_196727848"
   style="fill:#f7a707" />
   <polygon
   points="144.175,123.463 152.725,128.265 150.041,123.463 "
   id="_196727776"
   style="fill:#ffed00" />
   <polygon
   points="138.48,123.463 135.59,128.265 144.175,123.463 "
   id="_196727704"
   style="fill:#ffed00" />
   <polygon
   points="144.175,123.463 135.59,118.444 138.48,123.463 "
   id="_196727632"
   style="fill:#f7a707" />
   <polygon
   points="141.457,128.265 144.175,132.709 144.175,123.463 "
   id="_196727560"
   style="fill:#ffed00" />
   <polygon
   points="144.175,123.463 135.59,128.265 141.457,128.265 "
   id="_196727488"
   style="fill:#f7a707" />
   <polygon
   points="141.457,118.444 135.59,118.444 144.175,123.463 "
   id="_196727416"
   style="fill:#ffed00" />
   <polygon
   points="144.175,123.463 144.175,113.782 141.457,118.444 "
   id="_196727344"
   style="fill:#ffed00" />
   <polygon
   points="147.065,118.444 144.175,113.782 144.175,123.463 "
   id="_196727272"
   style="fill:#f7a707" />
   <polygon
   points="144.175,123.463 152.725,118.444 147.065,118.444 "
   id="_196727200"
   style="fill:#ffed00" />
   <polygon
   points="147.549,152.16 153.209,152.16 144.659,147.358 "
   id="_196727128"
   style="fill:#2b2a29" />
   <polygon
   points="144.659,147.358 144.659,156.605 147.549,152.16 "
   id="_196727056"
   style="fill:#2b2a29" />
   <polygon
   points="150.525,147.358 153.209,142.339 144.659,147.358 "
   id="_196726984"
   style="fill:#2b2a29" />
   <polygon
   points="144.659,147.358 153.209,152.16 150.525,147.358 "
   id="_196726912"
   style="fill:#2b2a29" />
   <polygon
   points="138.964,147.358 136.074,152.16 144.659,147.358 "
   id="_196726840"
   style="fill:#2b2a29" />
   <polygon
   points="144.659,147.358 136.074,142.339 138.964,147.358 "
   id="_196726768"
   style="fill:#2b2a29" />
   <polygon
   points="141.94,152.16 144.659,156.605 144.659,147.358 "
   id="_196726696"
   style="fill:#2b2a29" />
   <polygon
   points="144.659,147.358 136.074,152.16 141.94,152.16 "
   id="_196726624"
   style="fill:#2b2a29" />
   <polygon
   points="141.94,142.339 136.074,142.339 144.659,147.358 "
   id="_196726552"
   style="fill:#2b2a29" />
   <polygon
   points="144.659,147.358 144.659,137.677 141.94,142.339 "
   id="_196726480"
   style="fill:#2b2a29" />
   <polygon
   points="147.549,142.339 144.659,137.677 144.659,147.358 "
   id="_196726408"
   style="fill:#2b2a29" />
   <polygon
   points="144.659,147.358 153.209,142.339 147.549,142.339 "
   id="_196726336"
   style="fill:#2b2a29" />
   <polygon
   points="147.065,151.676 152.725,151.676 144.175,146.875 "
   id="_196726264"
   style="fill:#f7a707" />
   <polygon
   points="144.175,146.875 144.175,156.121 147.065,151.676 "
   id="_196726192"
   style="fill:#f7a707" />
   <polygon
   points="150.041,146.875 152.725,141.855 144.175,146.875 "
   id="_196726120"
   style="fill:#f7a707" />
   <polygon
   points="144.175,146.875 152.725,151.676 150.041,146.875 "
   id="_196726048"
   style="fill:#ffed00" />
   <polygon
   points="138.48,146.875 135.59,151.676 144.175,146.875 "
   id="_196725976"
   style="fill:#ffed00" />
   <polygon
   points="144.175,146.875 135.59,141.855 138.48,146.875 "
   id="_196725904"
   style="fill:#f7a707" />
   <polygon
   points="141.457,151.676 144.175,156.121 144.175,146.875 "
   id="_196725832"
   style="fill:#ffed00" />
   <polygon
   points="144.175,146.875 135.59,151.676 141.457,151.676 "
   id="_196725760"
   style="fill:#f7a707" />
   <polygon
   points="141.457,141.855 135.59,141.855 144.175,146.875 "
   id="_196725688"
   style="fill:#ffed00" />
   <polygon
   points="144.175,146.875 144.175,137.193 141.457,141.855 "
   id="_196725616"
   style="fill:#ffed00" />
   <polygon
   points="147.065,141.855 144.175,137.193 144.175,146.875 "
   id="_196725544"
   style="fill:#f7a707" />
   <polygon
   points="144.175,146.875 152.725,141.855 147.065,141.855 "
   id="_196725424"
   style="fill:#ffed00" />
   <circle
   cx="0"
   cy="0"
   r="14.46"
   transform="matrix(-1.64376,-1.19427,1.19013,-1.63808,99.8601,124.671)"
   id="_196725352"
   style="fill:#2b2a29;stroke:#2b2a29;stroke-width:0.0762" />
   <path
   d="m 91.2966,152.687 3.0409,-1.4018 -5.4371,-11.5291 -12.6449,-1.6083 -0.3936,3.3253 c 1.8188,2.5863 4.0874,4.9221 6.7889,6.8848 2.7015,1.9628 5.624,3.3986 8.6458,4.3291 z"
   id="_196725280"
   style="fill:#2b2a29;stroke:#2b2a29;stroke-width:0.0762" />
   <path
   d="m 90.2396,96.8704 -1.6295,2.9224 11.1721,6.1572 11.1519,-6.1204 -1.6391,-2.9277 c -2.9898,-1.0295 -6.1951,-1.5917 -9.5303,-1.5972 -3.3353,-0.0055 -6.5388,0.5461 -9.5251,1.5657 z"
   id="_196725208"
   style="fill:#2b2a29;stroke:#2b2a29;stroke-width:0.0762" />
   <path
   d="m 70.4893,125.193 2.2839,2.4603 9.2794,-8.692 -2.4159,-12.5053 -3.2889,0.6433 c -1.8946,2.5191 -3.4103,5.3888 -4.4357,8.5557 -1.0254,3.1669 -1.4801,6.3826 -1.4228,9.538 z"
   id="_196725136"
   style="fill:#2b2a29;stroke:#2b2a29;stroke-width:0.0762" />
   <path
   d="m 129.223,125.194 -2.2758,2.4527 -9.3082,-8.7226 2.3747,-12.4973 3.2909,0.6541 c 1.903,2.5253 3.4281,5.4 4.464,8.5703 1.0359,3.1704 1.5012,6.3875 1.4544,9.5428 z"
   id="_196725064"
   style="fill:#2b2a29;stroke:#2b2a29;stroke-width:0.0762" />
   <path
   d="m 108.39,152.73 -3.0456,-1.4119 5.3991,-11.5113 12.6397,-1.5666 0.4045,3.3266 c -1.8102,2.5804 -4.0711,4.9086 -6.7662,6.8625 -2.6951,1.9539 -5.6128,3.3801 -8.6315,4.3007 z"
   id="_196724992"
   style="fill:#2b2a29;stroke:#2b2a29;stroke-width:0.0762" />
   <polygon
   points="90.6608,127.523 88.4497,120.756 94.2024,116.585 99.955,112.414 105.722,116.604 111.488,120.793 109.299,127.553 107.11,134.313 99.9911,134.302 92.8719,134.29 "
   id="_196724920"
   style="fill:#2b2a29;stroke:#2b2a29;stroke-width:0.0762" />
   <circle
   cx="0"
   cy="0"
   r="14.46"
   transform="matrix(-1.59211,-1.15673,1.15673,-1.59211,99.6904,124.626)"
   id="_196724848"
   style="fill:#fefefe;stroke:#2b2a29;stroke-width:0.0762" />
   <path
   d="m 93.3216,152.366 0.1241,-0.0574 -5.4461,-11.5921 -12.7077,-1.5975 -0.0163,0.1356 c 1.9122,3.1954 4.486,6.0659 7.6885,8.3927 3.2024,2.3267 6.7277,3.8875 10.3575,4.7187 z"
   id="_196724776"
   style="fill:#2b2a29;stroke:#2b2a29;stroke-width:0.0762" />
   <path
   d="m 88.3602,98.5204 -0.013,0.0233 11.2196,6.1771 11.2196,-6.1771 -0.0931,-0.1668 C 103.4564,95.3371 95.3688,95.487 88.3602,98.5204 z"
   id="_196724704"
   style="fill:#2b2a29;stroke:#2b2a29;stroke-width:0.0762" />
   <path
   d="m 71.3612,127.286 9.322,-8.743 -2.4077,-12.5794 -0.0805,0.0159 c -0.5308,0.6131 -1.0411,1.2521 -1.5265,1.9202 -4.2364,5.831 -5.9349,12.732 -5.3073,19.3863 z"
   id="_196724632"
   style="fill:#2b2a29;stroke:#2b2a29;stroke-width:0.0762" />
   <path
   d="m 128.032,127.202 -0.0237,0.0255 -9.3418,-8.7616 2.4076,-12.5794 0.047,0.009 c 5.1901,5.929 7.5964,13.68 6.9109,21.3062 z"
   id="_196724560"
   style="fill:#2b2a29;stroke:#2b2a29;stroke-width:0.0762" />
   <path
   d="m 105.848,152.405 5.4264,-11.5502 12.7078,-1.5974 0.0189,0.1583 c -0.4005,0.6568 -0.8292,1.303 -1.2893,1.9363 -4.2508,5.8508 -10.3158,9.6042 -16.8638,11.053 z"
   id="_196724488"
   style="fill:#2b2a29;stroke:#2b2a29;stroke-width:0.0762" />
   <polygon
   points="90.735,127.416 88.5941,120.826 94.1992,116.754 99.8043,112.682 105.409,116.754 111.015,120.826 108.874,127.416 106.733,134.005 99.8044,134.005 92.876,134.005 "
   id="_196724464"
   style="fill:#2b2a29;stroke:#2b2a29;stroke-width:0.0762" />
   <line
   id="_196724368"
   class="fil7"
   x1="110.098"
   y1="121.121"
   x2="123.524"
   y2="116.759"
   style="fill:none" />
   <polygon
   points="123.15,116.567 123.276,116.951 109.85,121.314 109.725,120.929 "
   id="_248802776"
   style="fill:#2b2a29;fill-rule:nonzero" />
   <line
   id="_194847424"
   class="fil7"
   x1="106.362"
   y1="133.287"
   x2="114.66"
   y2="144.70799"
   style="fill:none" />
   <polygon
   points="114.202,143.968 113.875,144.206 105.577,132.785 105.905,132.547 "
   id="_194847328"
   style="fill:#2b2a29;fill-rule:nonzero" />
   <line
   id="_194847232"
   class="fil7"
   x1="93.675201"
   y1="133.507"
   x2="85.377502"
   y2="144.92799"
   style="fill:none" />
   <polygon
   points="85.3861,145.047 85.0583,144.809 93.356,133.388 93.6838,133.626 "
   id="_194847136"
   style="fill:#2b2a29;fill-rule:nonzero" />
   <line
   id="_194847040"
   class="fil7"
   x1="89.545601"
   y1="121.52"
   x2="76.119598"
   y2="117.157"
   style="fill:none" />
   <polygon
   points="76.3676,117.194 76.4927,116.81 89.9186,121.172 89.7935,121.557 "
   id="_194846944"
   style="fill:#2b2a29;fill-rule:nonzero" />
   <line
   id="_194846848"
   class="fil7"
   x1="99.6576"
   y1="113.87"
   x2="99.6576"
   y2="99.753502"
   style="fill:none" />
   <polygon
   points="99.4551,100.936 99.859,100.932 99.9844,115.048 99.5805,115.052 "
   id="_194846704"
   style="fill:#2b2a29;fill-rule:nonzero" />
   <path
   d="m 128.032,127.202 -0.0237,0.0255 -9.3418,-8.7616 2.4076,-12.5794 0.047,0.009 c 5.1901,5.929 7.5964,13.68 6.9109,21.3062 z"
   id="_194846680"
   style="fill:#2b2a29;stroke:#2b2a29;stroke-width:0.0762" />
   <path
   d="m 90.3433,17.0347 c -0.4243,0.3392 -0.8958,0.6107 -1.4141,0.8095 l -0.4952,0.19 0,-2.3493 0.2345,-0.0896 c 0.4148,-0.1584 0.8164,-0.4704 1.1417,-0.7661 0.3885,-0.3549 0.674,-0.7763 0.8272,-1.2806 l 0.0785,-0.2587 1.8348,0 0,9.7818 -2.2074,0 0,-6.037 z m 7.115,2.7574 c -0.279,0.1527 -0.594,0.2361 -0.9454,0.2361 -0.7658,0 -1.3813,-0.3685 -1.8556,-0.9569 -0.5442,-0.6773 -0.7415,-1.5096 -0.7415,-2.3651 0,-0.8871 0.2065,-1.7509 0.7827,-2.445 0.53,-0.6388 1.2243,-0.9713 2.0551,-0.9713 0.9462,0 1.6822,0.4527 2.2247,1.2157 0.6983,0.9857 0.8198,2.53 0.8198,3.6994 0,1.2034 -0.1297,2.7695 -0.8533,3.7806 -0.5719,0.7968 -1.3513,1.2455 -2.3385,1.2455 -0.6577,0 -1.2543,-0.1989 -1.7211,-0.6705 -0.4962,-0.5014 -0.7212,-1.203 -0.8185,-1.8864 l -0.052,-0.3657 2.1679,-0.2796 0.0392,0.371 c 0.018,0.1713 0.0635,0.4168 0.1833,0.5501 0.0847,0.0942 0.1873,0.1248 0.3126,0.1248 0.2154,0 0.362,-0.1568 0.4731,-0.3268 0.1309,-0.199 0.2142,-0.5768 0.2675,-0.9559 z m 5.3242,-3.9952 -0.0883,0.5844 c 0.1789,-0.0463 0.3638,-0.071 0.5542,-0.071 0.7977,0 1.4481,0.3558 1.9491,0.9692 0.5607,0.6858 0.7667,1.5304 0.7667,2.403 0,0.781 -0.1894,1.5195 -0.6079,2.1805 -0.5543,0.8765 -1.3536,1.3619 -2.3971,1.3619 -0.7625,0 -1.4527,-0.2315 -1.9995,-0.7758 -0.551,-0.5487 -0.8225,-1.2562 -0.9095,-2.0201 l -0.0411,-0.3602 2.1996,-0.2631 0.0391,0.3673 c 0.0273,0.257 0.1031,0.5218 0.2813,0.7174 0.1206,0.1336 0.2604,0.2222 0.4445,0.2222 0.216,0 0.3668,-0.1202 0.4903,-0.2888 0.2114,-0.2908 0.2515,-0.7652 0.2515,-1.1119 0,-0.322 -0.0394,-0.7571 -0.2443,-1.0229 -0.1399,-0.1825 -0.3081,-0.2728 -0.5387,-0.2728 -0.3646,0 -0.6417,0.2418 -0.8534,0.5169 l -0.1338,0.1737 -1.7726,-0.3006 0.8652,-5.3548 4.5851,0 0,2.3455 -2.8404,0 z m 5.9937,0 -0.0883,0.5844 c 0.1789,-0.0463 0.3637,-0.071 0.5542,-0.071 0.7977,0 1.448,0.3558 1.9491,0.9692 0.5606,0.6858 0.7666,1.5304 0.7666,2.403 0,0.781 -0.1894,1.5195 -0.6078,2.1805 -0.5543,0.8765 -1.3536,1.3619 -2.3972,1.3619 -0.7624,0 -1.4526,-0.2315 -1.9994,-0.7758 -0.5511,-0.5487 -0.8225,-1.2562 -0.9096,-2.0201 l -0.0411,-0.3602 2.1996,-0.2631 0.0391,0.3673 c 0.0274,0.257 0.1031,0.5218 0.2814,0.7174 0.1206,0.1336 0.2603,0.2222 0.4444,0.2222 0.216,0 0.3668,-0.1202 0.4903,-0.2888 0.2116,-0.2909 0.2517,-0.7651 0.2517,-1.1119 0,-0.322 -0.0396,-0.7571 -0.2446,-1.023 -0.1396,-0.1825 -0.308,-0.2727 -0.5386,-0.2727 -0.3646,0 -0.6416,0.2418 -0.8534,0.5169 l -0.1338,0.1737 -1.7726,-0.3006 0.8652,-5.3548 4.5852,0 0,2.3455 -2.8404,0 z M 97.411,16.847 c 0,-0.3549 -0.0481,-0.788 -0.2611,-1.0858 -0.1105,-0.1555 -0.261,-0.3087 -0.4645,-0.3087 -0.1715,0 -0.2867,0.0887 -0.3846,0.2259 -0.1772,0.2463 -0.2027,0.7373 -0.2027,1.0278 0,0.3167 0.0323,0.7999 0.2259,1.0675 0.1116,0.1555 0.2446,0.2576 0.4404,0.2576 0.1873,0 0.3167,-0.0978 0.4259,-0.2456 0.1841,-0.2467 0.2207,-0.642 0.2207,-0.9387 z"
   id="_194846584"
   style="fill:#2b2a29" />
   <path
   d="m 91.8915,22.3654 -1.4781,0 0,-6.5129 c -0.5406,0.5918 -1.1765,1.0285 -1.9093,1.3096 l 0,-1.5679 c 0.3844,-0.1468 0.8047,-0.4259 1.2573,-0.8374 0.4526,-0.4135 0.7633,-0.8941 0.9303,-1.444 l 1.1998,0 0,9.0526 z m 2.2416,-2.0841 1.4316,-0.1848 c 0.0359,0.34 0.1275,0.5919 0.2748,0.7556 0.1472,0.1638 0.3412,0.2456 0.5837,0.2456 0.3053,0 0.564,-0.1638 0.7777,-0.4911 0.2155,-0.3274 0.3521,-1.0076 0.4114,-2.0423 -0.3718,0.5058 -0.837,0.7577 -1.3939,0.7577 -0.607,0 -1.1316,-0.275 -1.5716,-0.8207 -0.44,-0.5479 -0.661,-1.2593 -0.661,-2.1367 0,-0.9151 0.2336,-1.6518 0.6987,-2.2123 0.4634,-0.5583 1.0562,-0.8395 1.7746,-0.8395 0.7832,0 1.4243,0.3546 1.9272,1.0621 0.5011,0.7072 0.7526,1.8701 0.7526,3.4884 0,1.6497 -0.2622,2.8377 -0.7849,3.5682 -0.5227,0.7282 -1.2034,1.0934 -2.0422,1.0934 -0.6034,0 -1.0902,-0.1867 -1.462,-0.5624 -0.3718,-0.3757 -0.6107,-0.9362 -0.7167,-1.6812 z m 3.3479,-3.776 c 0,-0.5584 -0.1094,-0.9908 -0.3286,-1.2972 -0.2191,-0.3085 -0.4741,-0.4618 -0.7615,-0.4618 -0.2731,0 -0.5012,0.126 -0.6808,0.3778 -0.1813,0.2519 -0.2712,0.6654 -0.2712,1.2405 0,0.5814 0.0988,1.0096 0.2945,1.2804 0.1958,0.2727 0.442,0.4093 0.7365,0.4093 0.2837,0 0.5244,-0.1302 0.7184,-0.3925 0.1958,-0.2624 0.2927,-0.6486 0.2927,-1.1565 z m 2.6369,3.5408 1.4728,-0.1763 c 0.0412,0.3883 0.167,0.6969 0.3735,0.9236 0.2066,0.2287 0.4455,0.3421 0.7149,0.3421 0.3089,0 0.5712,-0.147 0.7849,-0.4387 0.2137,-0.2939 0.3215,-0.7367 0.3215,-1.3266 0,-0.552 -0.106,-0.9676 -0.3197,-1.2447 -0.2119,-0.2769 -0.4885,-0.4155 -0.828,-0.4155 -0.424,0 -0.8047,0.2204 -1.1424,0.659 l -1.1997,-0.2034 0.7579,-4.6912 3.9102,0 0,1.6162 -2.7894,0 -0.2317,1.5322 c 0.3305,-0.1931 0.6664,-0.2896 1.0112,-0.2896 0.6556,0 1.2123,0.279 1.6667,0.8353 0.4564,0.5583 0.6845,1.2825 0.6845,2.1724 0,0.7409 -0.1833,1.4041 -0.5514,1.9856 -0.5031,0.7954 -1.1982,1.1921 -2.089,1.1921 -0.7131,0 -1.2932,-0.2225 -1.7423,-0.6694 -0.4489,-0.4472 -0.7184,-1.0475 -0.8045,-1.8031 z m 5.9936,0 1.4728,-0.1763 c 0.0413,0.3883 0.167,0.6969 0.3736,0.9236 0.2066,0.2287 0.4455,0.3421 0.7148,0.3421 0.3089,0 0.5713,-0.147 0.785,-0.4387 0.2137,-0.2939 0.3215,-0.7367 0.3215,-1.3266 0,-0.552 -0.106,-0.9676 -0.3197,-1.2447 -0.212,-0.2769 -0.4885,-0.4155 -0.828,-0.4155 -0.424,0 -0.8047,0.2204 -1.1424,0.659 l -1.1998,-0.2034 0.758,-4.6912 3.9102,0 0,1.6162 -2.7895,0 -0.2316,1.5322 c 0.3304,-0.1931 0.6663,-0.2896 1.0111,-0.2896 0.6557,0 1.2124,0.279 1.6668,0.8353 0.4563,0.5583 0.6844,1.2825 0.6844,2.1724 0,0.7409 -0.1833,1.4041 -0.5514,1.9856 -0.503,0.7954 -1.1981,1.1921 -2.089,1.1921 -0.713,0 -1.2932,-0.2225 -1.7422,-0.6694 -0.4489,-0.4472 -0.7184,-1.0475 -0.8046,-1.8031 z"
   id="_194846488"
   style="fill:#fefefe" />
   <path
   d="m 176.378,33.6097 0,26.3729 -152.65,0 0,-26.3729 152.65,0 z m -150.992,1.8194 149.334,0 0,23.2823 -149.334,0 0,-23.2823 z"
   id="_194846392"
   style="fill:#ffed00" />
   <path
   d="m 109.629,169.842 c 0.5621,-0.1138 1.1369,-0.0999 1.698,0.042 0.1194,0.0271 0.239,0.0543 0.3586,0.0816 1.0208,-0.5364 2.1405,-0.7401 3.2946,-0.5649 0.8686,0.1317 1.8892,0.3708 2.2281,1.3033 0.4125,1.1349 0.5427,1.0204 -0.6353,1.3116 -0.005,0.003 -0.01,0.005 -0.0145,0.008 -0.0154,0.008 -0.0307,0.0157 -0.046,0.0237 -0.0159,0.006 -0.0317,0.0123 -0.0474,0.0185 -1.8028,0.7055 -3.3538,1.8481 -3.7945,3.8369 -0.1676,0.719 -0.2122,1.5034 0.0153,2.2149 0.0342,0.0977 0.0685,0.1953 0.1027,0.293 0.004,0.0443 0.007,0.0887 0.0107,0.1331 0.0229,0.2926 -0.008,0.5769 -0.1309,0.845 -0.003,0.007 -0.007,0.0147 -0.0101,0.0221 -0.004,0.007 -0.007,0.0138 -0.0108,0.0207 -0.4918,0.953 -1.6141,0.9631 -2.5333,0.8112 -0.6103,-0.0835 -1.1605,-0.3429 -1.5912,-0.7885 -0.0632,-0.0654 -0.1229,-0.1338 -0.1791,-0.2049 -0.4588,0.1013 -0.9407,0.0239 -1.3844,-0.1598 -0.004,-0.002 -0.007,-0.003 -0.0108,-0.005 -0.3401,-0.1466 -0.6428,-0.3555 -0.8964,-0.6201 -0.5382,0.2594 -1.151,0.1737 -1.6986,-0.099 -0.0107,-0.005 -0.0216,-0.0108 -0.0324,-0.0161 -0.0101,-0.006 -0.0203,-0.0121 -0.0304,-0.0182 -0.1733,-0.1025 -0.337,-0.2199 -0.488,-0.3522 -0.7039,0.1791 -1.3945,0.0221 -1.9952,-0.4015 -0.0288,-0.0204 -0.0577,-0.0407 -0.0866,-0.0611 -0.0239,-0.0262 -0.0479,-0.0524 -0.0719,-0.0784 -0.4783,-0.5214 -0.8141,-1.1232 -0.9598,-1.8039 -0.2626,-0.0557 -0.5265,-0.0849 -0.7952,-0.0859 -0.0198,6e-4 -0.0398,0.001 -0.0597,0.002 -0.0104,-6e-4 -0.0207,-0.001 -0.031,-0.002 -0.2645,0.002 -0.5244,0.0311 -0.783,0.0859 -0.1457,0.6806 -0.4817,1.2826 -0.96,1.8041 -0.024,0.0259 -0.0479,0.052 -0.0718,0.0781 -0.0288,0.0203 -0.0575,0.0406 -0.0863,0.061 -0.6008,0.4236 -1.2914,0.5806 -1.9954,0.4016 -0.1509,0.1323 -0.3144,0.2495 -0.4874,0.3519 -0.0103,0.006 -0.0206,0.0123 -0.0309,0.0185 -0.0107,0.005 -0.0214,0.0106 -0.0321,0.0159 -0.5479,0.2729 -1.1608,0.3586 -1.699,0.0992 -0.2536,0.2646 -0.5569,0.4738 -0.8993,0.6214 -0.0027,0.001 -0.0055,0.002 -0.0084,0.004 -0.4432,0.1835 -0.9252,0.2608 -1.3838,0.1595 -0.0562,0.0712 -0.116,0.1396 -0.1792,0.2049 -0.4308,0.4456 -0.9808,0.705 -1.5911,0.7885 -0.9193,0.1519 -2.0416,0.1418 -2.5329,-0.8104 -0.0034,-0.007 -0.0068,-0.0131 -0.0102,-0.0197 -0.0034,-0.007 -0.0069,-0.0148 -0.0104,-0.0222 -0.1237,-0.269 -0.1545,-0.554 -0.1316,-0.8465 0.0035,-0.0444 0.007,-0.0887 0.0104,-0.133 0.0344,-0.0979 0.0688,-0.1956 0.103,-0.2934 0.2278,-0.7125 0.1824,-1.4976 0.0138,-2.2204 -0.4396,-1.9845 -1.9919,-3.1264 -3.7929,-3.8312 -0.016,-0.006 -0.032,-0.0126 -0.0481,-0.0188 -0.0153,-0.008 -0.0308,-0.0161 -0.0462,-0.024 -0.0046,-0.002 -0.0092,-0.005 -0.0138,-0.007 -1.1784,-0.2908 -1.0479,-0.1767 -0.6354,-1.3116 0.3391,-0.9324 1.3597,-1.1715 2.2282,-1.3032 1.1541,-0.1752 2.2739,0.0285 3.2947,0.5649 0.1196,-0.0273 0.2391,-0.0545 0.3586,-0.0816 0.5611,-0.1419 1.1359,-0.1558 1.698,-0.042 0.0798,-0.0658 0.1662,-0.1236 0.2596,-0.1738 0.4738,-0.2638 1.0375,-0.2828 1.5641,-0.2132 0.0266,0.001 0.0532,0.003 0.0797,0.005 0.0729,-0.055 0.1458,-0.1101 0.2188,-0.1651 0.0146,-0.009 0.0292,-0.0176 0.0437,-0.0265 0.9133,-0.5508 1.9386,-0.4822 2.8826,-0.055 0.1195,0.0533 0.2381,0.1081 0.3555,0.1654 0.087,-0.0531 0.1738,-0.1062 0.2606,-0.1593 0.0147,-0.007 0.0293,-0.014 0.0439,-0.021 2.8908,-1.3908 5.2403,-1.3909 8.1301,-4e-4 0.0149,0.007 0.0297,0.0142 0.0444,0.0212 0.0871,0.0532 0.1741,0.1064 0.261,0.1595 0.1168,-0.057 0.2347,-0.1115 0.353,-0.1644 0.9457,-0.4278 1.971,-0.4974 2.8847,0.0538 0.0147,0.009 0.0292,0.0176 0.0437,0.0264 0.073,0.0551 0.1461,0.1103 0.2191,0.1654 0.0266,-0.002 0.0531,-0.004 0.0797,-0.005 0.5266,-0.0695 1.0903,-0.0506 1.5642,0.2132 0.0933,0.0502 0.1798,0.108 0.2596,0.1738 z"
   id="_194846272"
   style="fill:#2b2a29" />
   <path
   d="m 85.0878,171.131 c 2.4258,0 4.3931,1.9963 4.3931,4.458 0,1.3572 -0.5984,2.5725 -1.5414,3.3902 l -0.0091,-0.017 c -0.0439,-0.0957 -0.0514,-0.2088 -0.0411,-0.3387 l 0.0632,-0.1804 c 0,0 0,0 0,0 0.2653,-0.8191 0.2784,-1.7589 0.0422,-2.7711 -0.4327,-1.9536 -1.7824,-3.4224 -4.0321,-4.3933 0.3592,-0.0963 0.7361,-0.1477 1.1252,-0.1477 z"
   id="_194846248"
   style="fill:none;stroke:#2b2a29;stroke-width:0.0762" />
   <path
   d="m 103.991,170.404 c 0,0.0165 -0.0188,0.0331 -0.0375,0.0331 -1.2968,1.0489 -2.4861,2.7717 -2.5716,4.3559 l -0.4504,-0.1325 c -0.3755,-0.0828 -0.7133,-0.116 -1.0512,-0.116 l -0.018,7e-4 0,5e-4 -0.0069,-3e-4 -0.0069,3e-4 0,-5e-4 -0.0181,-7e-4 c -0.3377,0 -0.6756,0.0332 -1.051,0.116 l -0.4505,0.1325 c -0.0856,-1.5841 -1.275,-3.3071 -2.5716,-4.3559 -0.0187,0 -0.0375,-0.0166 -0.0375,-0.0331 l 0.488,-0.2982 c 2.6493,-1.2745 4.6919,-1.2526 7.2952,0 l 0.488,0.2982 z"
   id="_194846176"
   style="fill:#fcca17" />
   <path
   d="m 83.4217,171.053 c 0.0574,0.014 0.1158,0.0445 0.1743,0.0748 2.4701,0.9667 3.943,2.4865 4.3987,4.544 0.2362,1.0122 0.2231,1.952 -0.0422,2.7711 0,0 0,0 0,0 l -0.0632,0.1804 c -0.0103,0.1299 -0.0028,0.243 0.0411,0.3387 0.1725,0.3341 0.6677,0.4303 1.5229,0.287 2.1029,-0.2752 2.0592,-3.3641 0.6485,-5.8284 -1.0698,-1.8684 -2.9257,-3.3775 -5.2276,-3.0281 -0.474,0.0718 -1.2853,0.2005 -1.4525,0.6605 z"
   id="_194846104"
   style="fill:#f7a707" />
   <path
   d="m 93.8156,176.33 c -0.0201,0.2914 -0.059,0.5665 -0.1165,0.8255 0,0 0.0913,0.1133 0.2552,0.3237 0.2445,0.1941 0.5827,0.1779 0.9728,-0.0163 2.8278,-1.6748 -0.854,-6.956 -3.1052,-7.0075 -0.4515,-0.0649 -0.7909,-0.0325 -1.018,0.097 -0.1234,0.0647 -0.1885,0.1456 -0.2325,0.2104 0.1903,0.1133 0.3808,0.2266 0.5691,0.3721 0.076,0.0487 0.1508,0.1135 0.2268,0.162 0.0363,0.0485 0.0936,0.0809 0.1309,0.1133 0.8617,0.7282 1.5108,1.6669 1.9272,2.8159 0.2857,0.7445 0.3951,1.4566 0.3902,2.1039 z"
   id="_194846032"
   style="fill:#f7a707" />
   <path
   d="m 88.9277,171.605 c 0.5443,0.5663 1.0136,1.1976 1.389,1.8611 0.7695,1.3109 1.1074,2.5732 1.0136,3.8032 -0.0188,0.2266 -0.0375,0.4532 -0.0938,0.696 0,0.0323 -0.0188,0.0809 -0.0188,0.1294 0.3003,0.2428 0.6945,0.2589 1.1638,0.0647 2.8529,-1.2297 0.0132,-8.2723 -3.773,-7.299 l -0.3566,0.0811 c 0.2065,0.1941 0.413,0.3883 0.6007,0.5825 0.0188,0.0324 0.0375,0.0486 0.0751,0.081 z"
   id="_194845960"
   style="fill:#f7a707" />
   <path
   d="m 93.347,170.78 c 0.6757,0.534 1.3139,1.2623 1.9146,2.1686 0.657,0.9872 0.9761,1.9583 0.9573,2.9293 0,0.3399 -0.0563,0.6798 -0.1502,1.0196 0,0.0161 0,0.0486 -0.0188,0.0809 0.4506,0.1457 0.8823,0.0647 1.2952,-0.2265 0.9948,-1.0843 1.0324,-2.4276 0.1126,-4.046 -0.4505,-0.8092 -0.9385,-1.4243 -1.4454,-1.8289 -0.3002,-0.2588 -0.732,-0.5016 -1.2763,-0.7444 -0.7508,-0.3399 -1.4266,-0.3399 -1.9898,0 l -0.1501,0.1133 c 0.2629,0.1457 0.5068,0.3236 0.7509,0.5341 z"
   id="_194845888"
   style="fill:#f7a707" />
   <path
   d="m 84.0433,171.083 c 3.0026,0 5.4376,2.0254 5.4376,4.5232 0,1.2483 -0.6084,2.3786 -1.5917,3.197 -0.0058,-0.0558 -0.005,-0.1155 1e-4,-0.1796 l 0.0632,-0.1804 c 0,0 0,0 0,0 0.2653,-0.8191 0.2784,-1.7589 0.0422,-2.7711 -0.4557,-2.0575 -1.9286,-3.5773 -4.3987,-4.544 l -0.0508,-0.0262 c 0.1641,-0.0125 0.3301,-0.0189 0.4981,-0.0189 z"
   id="_194845792"
   style="fill:#ffed00" />
   <path
   d="m 88.3869,171.069 c 2.2101,0.6057 3.7974,2.2631 3.7974,4.2122 0,0.8881 -0.33,1.7153 -0.8977,2.4104 0.0203,-0.1432 0.0322,-0.2824 0.0437,-0.4219 0.0938,-1.23 -0.2441,-2.4923 -1.0136,-3.8032 -0.3754,-0.6635 -0.8447,-1.2948 -1.389,-1.8611 -0.0376,-0.0324 -0.0563,-0.0486 -0.0751,-0.081 -0.1466,-0.1518 -0.305,-0.3038 -0.4657,-0.4554 z"
   id="_194845696"
   style="fill:#ffed00" />
   <path
   d="m 91.2933,170.953 c 1.7813,0 3.2257,1.7486 3.2257,3.905 0,0.923 -0.2652,1.7708 -0.7077,2.4393 -0.0733,-0.093 -0.1122,-0.1414 -0.1122,-0.1414 0.0575,-0.259 0.0964,-0.5341 0.1165,-0.8255 0.0049,-0.6473 -0.1045,-1.3594 -0.3902,-2.1039 -0.4164,-1.149 -1.0655,-2.0877 -1.9272,-2.8159 -0.0373,-0.0324 -0.0946,-0.0648 -0.1309,-0.1133 -0.076,-0.0485 -0.1508,-0.1133 -0.2268,-0.162 -0.0729,-0.0562 -0.1456,-0.1079 -0.219,-0.1565 0.1221,-0.017 0.2459,-0.0258 0.3718,-0.0258 z"
   id="_194845600"
   style="fill:#ffed00" />
   <path
   d="m 92.6032,170.249 c 2.3773,0.1703 4.2506,2.0231 4.2506,4.283 0,0.8902 -0.2907,1.7171 -0.7884,2.4029 0.0031,-0.0159 0.0033,-0.0294 0.0033,-0.0382 0.0939,-0.3398 0.1502,-0.6797 0.1502,-1.0196 0.0188,-0.971 -0.3003,-1.9421 -0.9573,-2.9293 -0.6007,-0.9063 -1.2389,-1.6346 -1.9146,-2.1686 -0.2419,-0.2086 -0.4837,-0.3853 -0.7438,-0.5302 z"
   id="_194845504"
   style="fill:#ffed00" />
   <path
   d="m 116.321,171.053 c -0.0574,0.014 -0.1158,0.0445 -0.1742,0.0748 -2.4702,0.9667 -3.9431,2.4865 -4.3988,4.544 -0.2362,1.0122 -0.2231,1.952 0.0422,2.7711 0,0 0,0 0,0 l 0.0633,0.1804 c 0.0102,0.1299 0.003,0.243 -0.0412,0.3387 -0.1724,0.3341 -0.6677,0.4303 -1.5229,0.287 -2.1029,-0.2752 -2.0592,-3.3641 -0.6485,-5.8284 1.0699,-1.8684 2.9257,-3.3775 5.2277,-3.0281 0.474,0.0718 1.2852,0.2005 1.4524,0.6605 z"
   id="_194845432"
   style="fill:#f7a707" />
   <path
   d="m 105.927,176.33 c 0.0201,0.2914 0.059,0.5665 0.1165,0.8255 0,0 -0.0913,0.1133 -0.2552,0.3237 -0.2445,0.1941 -0.5827,0.1779 -0.9728,-0.0163 -2.8278,-1.6748 0.854,-6.956 3.1052,-7.0075 0.4516,-0.0649 0.7909,-0.0325 1.018,0.097 0.1234,0.0647 0.1885,0.1456 0.2325,0.2104 -0.1903,0.1133 -0.3808,0.2266 -0.5691,0.3721 -0.076,0.0487 -0.1508,0.1135 -0.2267,0.162 -0.0364,0.0485 -0.0937,0.0809 -0.1309,0.1133 -0.8618,0.7282 -1.5109,1.6669 -1.9273,2.8159 -0.2857,0.7445 -0.3951,1.4566 -0.3902,2.1039 z"
   id="_194845360"
   style="fill:#f7a707" />
   <path
   d="m 110.815,171.605 c -0.5443,0.5663 -1.0136,1.1976 -1.389,1.8611 -0.7695,1.3109 -1.1074,2.5732 -1.0136,3.8032 0.0188,0.2266 0.0375,0.4532 0.0938,0.696 0,0.0323 0.0188,0.0809 0.0188,0.1294 -0.3003,0.2428 -0.6945,0.2589 -1.1638,0.0647 -2.8529,-1.2297 -0.0132,-8.2723 3.773,-7.299 l 0.3566,0.0811 c -0.2065,0.1941 -0.413,0.3883 -0.6006,0.5825 -0.0188,0.0324 -0.0375,0.0486 -0.0752,0.081 z"
   id="_194845288"
   style="fill:#f7a707" />
   <path
   d="m 106.396,170.78 c -0.6758,0.534 -1.314,1.2623 -1.9147,2.1686 -0.657,0.9872 -0.9761,1.9583 -0.9573,2.9293 0,0.3399 0.0564,0.6798 0.1502,1.0196 0,0.0161 0,0.0486 0.0188,0.0809 -0.4506,0.1457 -0.8823,0.0647 -1.2952,-0.2265 -0.9948,-1.0843 -1.0324,-2.4276 -0.1126,-4.046 0.4505,-0.8092 0.9385,-1.4243 1.4454,-1.8289 0.3003,-0.2588 0.732,-0.5016 1.2764,-0.7444 0.7507,-0.3399 1.4265,-0.3399 1.9897,0 l 0.1501,0.1133 c -0.2628,0.1457 -0.5068,0.3236 -0.7508,0.5341 z"
   id="_194845216"
   style="fill:#f7a707" />
   <path
   d="m 115.699,171.083 c -3.0026,0 -5.4376,2.0254 -5.4376,4.5232 0,1.2483 0.6083,2.3786 1.5917,3.197 0.006,-0.0558 0.005,-0.1155 -1e-4,-0.1796 l -0.0633,-0.1804 c 0,0 0,0 0,0 -0.2653,-0.8191 -0.2784,-1.7589 -0.0422,-2.7711 0.4557,-2.0575 1.9286,-3.5773 4.3988,-4.544 l 0.0507,-0.0262 c -0.1641,-0.0125 -0.3301,-0.0189 -0.498,-0.0189 z"
   id="_194844856"
   style="fill:#ffed00" />
   <path
   d="m 111.356,171.069 c -2.21,0.6057 -3.7974,2.2631 -3.7974,4.2122 0,0.8881 0.33,1.7153 0.8977,2.4104 -0.0203,-0.1432 -0.0321,-0.2824 -0.0437,-0.4219 -0.0938,-1.23 0.2441,-2.4923 1.0136,-3.8032 0.3754,-0.6635 0.8447,-1.2948 1.389,-1.8611 0.0377,-0.0324 0.0564,-0.0486 0.0752,-0.081 0.1466,-0.1518 0.3049,-0.3038 0.4656,-0.4554 z"
   id="_194844952"
   style="fill:#ffed00" />
   <path
   d="m 108.449,170.953 c -1.7813,0 -3.2257,1.7486 -3.2257,3.905 0,0.923 0.2652,1.7708 0.7077,2.4393 0.0733,-0.093 0.1122,-0.1414 0.1122,-0.1414 -0.0575,-0.259 -0.0964,-0.5341 -0.1165,-0.8255 -0.005,-0.6473 0.1045,-1.3594 0.3902,-2.1039 0.4164,-1.149 1.0655,-2.0877 1.9273,-2.8159 0.0372,-0.0324 0.0945,-0.0648 0.1309,-0.1133 0.0759,-0.0485 0.1507,-0.1133 0.2267,-0.162 0.0729,-0.0562 0.1456,-0.1079 0.219,-0.1565 -0.1221,-0.017 -0.2459,-0.0258 -0.3718,-0.0258 z"
   id="_21611864"
   style="fill:#ffed00" />
   <path
   d="m 107.139,170.249 c -2.3773,0.1703 -4.2506,2.0231 -4.2506,4.283 0,0.8902 0.2908,1.7171 0.7884,2.4029 -0.003,-0.0159 -0.003,-0.0294 -0.003,-0.0382 -0.0938,-0.3398 -0.1502,-0.6797 -0.1502,-1.0196 -0.0188,-0.971 0.3003,-1.9421 0.9573,-2.9293 0.6007,-0.9063 1.2389,-1.6346 1.9147,-2.1686 0.2418,-0.2086 0.4836,-0.3853 0.7437,-0.5302 z"
   id="_21611816"
   style="fill:#ffed00" />
   <path
   d="m 102.907,170.354 c 0,0.0133 -0.0139,0.0267 -0.0277,0.0267 -0.9569,0.8428 -1.8346,2.2272 -1.8978,3.5002 l -0.3323,-0.1064 c -0.2771,-0.0666 -0.5264,-0.0933 -0.7757,-0.0933 l -0.0134,6e-4 0,3e-4 -0.005,-1e-4 -0.0051,1e-4 0,-3e-4 -0.0134,-6e-4 c -0.2492,0 -0.4986,0.0267 -0.7756,0.0933 l -0.3324,0.1064 c -0.0632,-1.2729 -0.9409,-2.6575 -1.8979,-3.5002 -0.0138,0 -0.0276,-0.0134 -0.0276,-0.0267 l 0.3601,-0.2396 c 1.9551,-1.0242 3.4625,-1.0065 5.3837,0 l 0.3601,0.2396 z"
   id="_21612848"
   style="fill:#ffed00" />
   <g
   id="g223">
    <circle
   cx="31.6998"
   cy="48.104599"
   r="2.13164"
   id="_21612296"
   style="fill:#079e41" />
    <circle
   cx="168.407"
   cy="47.5373"
   r="2.13164"
   id="_21613472"
   style="fill:#079e41" />
    <path
   d="m 53.9475,50.3726 c -0.5685,1.6328 -1.487,3.1635 -2.7553,4.592 l -13.7322,0 0,-11.6112 c 0.379,-0.2916 0.9694,-0.7143 1.7712,-1.2683 l 1.5525,-0.8965 1.0714,-0.5029 0.6779,-0.2843 7.9376,0 c 0.3353,0.3207 0.6123,0.6196 0.831,0.8965 l 1.2464,1.6182 c -0.6268,1.3411 -1.7056,2.5365 -3.2363,3.5861 2.0117,1.0642 3.557,2.3544 4.6358,3.8704 z m -6.9756,-8.7029 c -1.0349,0.2623 -1.8367,0.6778 -2.4053,1.2464 l 0,3.3893 c 0.4666,-0.2624 0.8674,-0.6342 1.2027,-1.1152 0.5248,-0.7726 0.8965,-1.6618 1.1152,-2.6678 0.0583,-0.2623 0.0874,-0.5466 0.0874,-0.8527 z m 0.3499,7.7408 C 46.7387,48.5213 45.8203,47.858 44.5666,47.4207 l 0,6.1007 c 0.5831,-0.102 1.2829,-0.9329 2.0992,-2.4927 0.3061,-0.5686 0.5248,-1.108 0.656,-1.6182 z m 26.0434,0.481 c -0.452,0.6706 -0.9622,1.3121 -1.5307,1.9243 -1.0059,1.108 -2.2232,2.1576 -3.6518,3.1488 l -9.6651,0 c -0.3498,-0.481 -0.6196,-0.9257 -0.8091,-1.3339 l -0.6997,-1.5524 -0.6779,-1.7057 c -0.3207,-0.7872 -0.6268,-1.8368 -0.9184,-3.1488 -0.2478,-1.0933 -0.3717,-2.0773 -0.3717,-2.952 0.8892,-0.8455 1.7274,-1.5598 2.5147,-2.1429 1.0058,-0.7435 1.8951,-1.3194 2.6677,-1.7275 l 9.5558,0 c 0.8601,1.3412 1.6545,3.076 2.3835,5.2043 0.4373,1.2682 0.8381,2.6969 1.2027,4.2858 z m -6.3195,1.4433 c 0,-0.1604 -0.0219,-0.277 -0.0657,-0.3499 -0.0583,-0.554 -0.2332,-1.1006 -0.5247,-1.64 -0.4811,-1.7785 -1.2246,-3.4841 -2.2305,-5.1168 -0.4519,-0.7435 -0.984,-1.5161 -1.5963,-2.3179 l -0.4592,0.5029 -0.5247,0.5904 c -0.1167,0.1604 -0.2115,0.3426 -0.2843,0.5467 0.1166,1.2245 0.5831,2.8719 1.3994,4.9419 0.2187,0.5831 0.4884,1.1881 0.8091,1.8149 0.5685,1.108 1.1736,2.0993 1.815,2.9739 l 0.3061,-0.1968 c 0.9038,-0.5831 1.3558,-1.1663 1.3558,-1.7493 z m 24.0096,-6.0352 c -0.3207,0.7288 -0.7508,1.4942 -1.2902,2.296 -0.4664,0.6851 -1.0787,1.3703 -1.8367,2.0554 -0.2479,0.2187 -0.4738,0.4155 -0.6779,0.5904 -0.1458,0.1166 -0.3936,0.3062 -0.7435,0.5686 l -4.4608,-1.0715 0,5.2261 -7.3035,0 0,-11.6112 c 1.3266,-1.1371 2.4053,-1.8951 3.2363,-2.2741 l 0.5685,-0.2624 0.7435,-0.4155 7.7845,0 c 0.6269,0.3645 1.4359,1.1371 2.4272,2.3179 0.7435,0.8892 1.261,1.7493 1.5526,2.5803 z m -6.4944,-2.0337 c 0,-0.4518 -0.0802,-0.9038 -0.2405,-1.3557 -0.9184,0.1604 -1.6765,0.6414 -2.2742,1.4432 l 0,4.9857 c 0.6997,-0.6415 1.2829,-1.4068 1.7493,-2.2961 0.5103,-0.9913 0.7654,-1.917 0.7654,-2.7771 z m 24.2503,5.8822 c -0.3499,0.933 -0.955,1.9753 -1.815,3.1269 -0.8018,1.0642 -1.6182,1.9608 -2.4491,2.6896 l -9.2933,0 c -0.9185,-1.6764 -1.6765,-3.4257 -2.2742,-5.248 -0.2332,-0.6851 -0.4519,-1.6108 -0.656,-2.777 -0.2041,-1.0496 -0.3062,-1.9534 -0.3062,-2.7115 0.7581,-0.7435 1.7421,-1.5599 2.9521,-2.4491 0.2915,-0.2186 0.5613,-0.4082 0.809,-0.5685 l 1.2246,-0.8091 7.8501,0 c 1.0934,0.8747 2.0263,1.9535 2.799,3.2363 l -4.9419,2.0335 c -0.9913,-1.9242 -1.9462,-3.2581 -2.8646,-4.0015 -0.7288,0.6268 -1.239,1.2828 -1.5307,1.968 -0.0291,0.0729 -0.0436,0.1384 -0.0436,0.1968 0,0.9621 0.2624,2.1429 0.7871,3.5424 0.7436,1.9825 1.9608,3.8704 3.6518,5.6634 l 0.2842,0 c 0.8455,-1.2099 1.4651,-2.5073 1.8587,-3.8922 l 3.958,0 z m 19.0021,5.8165 -7.5441,0 -3.2362,-5.9477 0,5.9477 -6.8661,0 0,-14.5632 6.8661,0 0,6.6256 3.5205,-6.6256 3.9798,0 -4.7888,6.6256 c 0.5394,0.1167 1.3411,0.3353 2.4053,0.656 0.9184,0.277 1.6035,0.5394 2.0555,0.7873 l 3.608,6.4943 z m 16.9248,0 -7.6533,0 -1.5963,-7.8282 c -0.6269,2.7115 -1.4942,5.3209 -2.6022,7.8282 l -4.0672,0 0,-5.8165 3.3238,0 c 1.1663,-2.4199 2.0263,-5.3355 2.5803,-8.7467 l 5.8603,0 4.1546,14.5632 z m 17.9089,0 -7.4565,0 -0.6123,-2.121 -4.5483,0 -0.5904,2.121 -3.7611,0 6.1883,-14.5632 5.8603,0 4.92,14.5632 z m -8.8123,-5.0731 -1.4432,-4.9418 -1.4869,4.9418 2.9301,0 z"
   id="_21613640"
   style="fill:#079e41;fill-rule:nonzero" />
   </g>
   <path
   d="m 51.0714,77.0435 0,1.2255 -2.0767,0 0,-1.2255 c -1.6779,-0.061 -2.8618,-0.4769 -3.5515,-1.2425 -0.6897,-0.768 -1.0346,-1.7269 -1.0346,-2.8789 0,-1.2132 0.3595,-2.1867 1.0811,-2.9182 0.7216,-0.7337 1.8907,-1.1324 3.505,-1.1935 l 0,-1.0395 2.0767,0 0,1.0395 c 1.6682,0.0611 2.8495,0.4721 3.5443,1.2327 0.6945,0.7584 1.0419,1.7219 1.0419,2.8862 0,1.1571 -0.3448,2.1158 -1.0371,2.879 -0.6945,0.7608 -1.876,1.1742 -3.5491,1.2352 z m 0,-1.7708 c 0.5552,0 1.0323,-0.0929 1.4309,-0.2789 0.3987,-0.1858 0.6825,-0.4379 0.8487,-0.7509 0.1664,-0.3155 0.252,-0.7778 0.252,-1.3844 0,-1.519 -0.8438,-2.2798 -2.5316,-2.2798 l 0,4.694 z m -2.0767,0 0,-4.694 c -0.8927,0 -1.5384,0.2008 -1.9346,0.5994 -0.3963,0.3987 -0.5944,1.0028 -0.5944,1.81 0,1.5238 0.8414,2.2846 2.529,2.2846 z m 8.4044,-7.5091 2.1208,0 0,4.4712 c 0.4744,-0.0465 0.7949,-0.1688 0.9611,-0.3645 0.1664,-0.1957 0.4257,-0.7411 0.7729,-1.6339 0.4403,-1.1374 0.883,-1.8443 1.3259,-2.1206 0.4403,-0.2789 1.1496,-0.4158 2.1279,-0.4158 0.049,0 0.1516,-0.0025 0.3082,-0.0075 l 0,1.568 -0.3008,-0.0074 c -0.433,0 -0.7509,0.0539 -0.9516,0.1615 -0.2006,0.1075 -0.3644,0.2714 -0.4867,0.4916 -0.1247,0.2201 -0.3082,0.6701 -0.5528,1.3551 -0.1297,0.362 -0.269,0.6653 -0.4183,0.9099 -0.1516,0.2421 -0.4182,0.472 -0.7997,0.6873 0.472,0.1345 0.8634,0.4035 1.1715,0.8096 0.3082,0.406 0.6457,0.9807 1.0127,1.7195 l 1.4333,2.8814 -2.4924,0 -1.2548,-2.715 c -0.0196,-0.0392 -0.0588,-0.1127 -0.1224,-0.2227 -0.022,-0.039 -0.1125,-0.203 -0.2641,-0.494 -0.2715,-0.5161 -0.4965,-0.839 -0.6702,-0.9686 C 60.146,73.739 59.8794,73.673 59.5199,73.6681 l 0,4.6009 -2.1208,0 0,-10.5054 z"
   id="_21613760"
   style="fill:#d72631" />
  </g>
 </g>
</svg>