<?xml version="1.0" encoding="utf-8"?>
<!-- Generator: Adobe Illustrator 23.0.3, SVG Export Plug-In . SVG Version: 6.00 Build 0)  -->
<svg version="1.1" id="Layer_1" xmlns="http://www.w3.org/2000/svg" xmlns:xlink="http://www.w3.org/1999/xlink" x="0px" y="0px"
	 viewBox="0 0 21 18" style="enable-background:new 0 0 21 18;" xml:space="preserve">
<style type="text/css">
	.st0{fill-rule:evenodd;clip-rule:evenodd;fill:#F6C906;}
	.st1{fill-rule:evenodd;clip-rule:evenodd;fill:#EC1F27;}
	.st2{fill:#262626;}
	.st3{fill:#828282;}
	.st4{fill:#F73737;}
	.st5{fill:#55CE15;}
	.st6{fill:none;stroke:#F73737;stroke-width:2;stroke-miterlimit:10;}
	.st7{fill:none;stroke:#55CE15;stroke-width:2;stroke-miterlimit:10;}
	.st8{fill:#31BC31;}
	.st9{fill:#FFFFFF;}
	.st10{fill:#EC1F27;}
	.st11{fill:#818181;}
	.st12{fill-rule:evenodd;clip-rule:evenodd;fill:#C3C4C4;}
</style>
<g>
	<path class="st1" d="M15.51,10h3.98C20.32,10,21,9.32,21,8.49V1.51C21,0.68,20.32,0,19.49,0h-3.98C14.68,0,14,0.68,14,1.51v6.98
		C14,9.32,14.68,10,15.51,10z"/>
	<g>
		<path class="st12" d="M7,10.78c2.6,0,4.77-2.17,4.77-4.78C11.77,3.12,10.05,0.4,7,0v1.61c-2.62,0-4.78,1.77-4.78,4.39
			S4.38,10.78,7,10.78z"/>
		<path class="st12" d="M7,12.66c-2.75,0-5.24,0.92-7,2.29C1.86,16.84,4.3,18,7,18s5.14-1.16,7-3.05C12.24,13.58,9.75,12.66,7,12.66
			z"/>
	</g>
</g>
</svg>
