<?xml version="1.0" encoding="utf-8"?>
<!-- Generator: Adobe Illustrator 23.0.3, SVG Export Plug-In . SVG Version: 6.00 Build 0)  -->
<svg version="1.1" id="Layer_1" xmlns="http://www.w3.org/2000/svg" xmlns:xlink="http://www.w3.org/1999/xlink" x="0px" y="0px"
	 viewBox="0 0 18 18" style="enable-background:new 0 0 18 18;" xml:space="preserve">
<style type="text/css">
	.st0{fill-rule:evenodd;clip-rule:evenodd;fill:#F6C906;}
	.st1{fill-rule:evenodd;clip-rule:evenodd;fill:#EC1F27;}
	.st2{fill:#262626;}
	.st3{fill:#828282;}
	.st4{fill:#F73737;}
	.st5{fill:#55CE15;}
	.st6{fill:none;stroke:#F73737;stroke-width:2;stroke-miterlimit:10;}
	.st7{fill:none;stroke:#55CE15;stroke-width:2;stroke-miterlimit:10;}
	.st8{fill:#31BC31;}
	.st9{fill:#FFFFFF;}
	.st10{fill:#EC1F27;}
	.st11{fill:#818181;}
	.st12{fill-rule:evenodd;clip-rule:evenodd;fill:#C3C4C4;}
</style>
<path class="st3" d="M12.72,3h-2.01V2.6c0-0.32-0.27-0.6-0.6-0.6H7.89c-0.32,0-0.6,0.27-0.6,0.6V3H5.28V2.6C5.28,1.17,6.45,0,7.89,0
	h2.22c1.44,0,2.61,1.17,2.61,2.6V3z"/>
<polygon class="st1" points="13,9.67 10.33,9.67 10.33,7 7.67,7 7.67,9.67 5,9.67 5,12.33 7.67,12.33 7.67,15 10.33,15 10.33,12.33 
	13,12.33 "/>
<g>
	<path class="st11" d="M16,6v10H2V6H16 M16,4H2C0.9,4,0,4.9,0,6v10c0,1.1,0.9,2,2,2h14c1.1,0,2-0.9,2-2V6C18,4.9,17.1,4,16,4L16,4z"
		/>
</g>
</svg>
