<?xml version="1.0" encoding="utf-8"?>
<!-- Generator: Adobe Illustrator 23.0.3, SVG Export Plug-In . SVG Version: 6.00 Build 0)  -->
<svg version="1.1" id="Layer_1" xmlns="http://www.w3.org/2000/svg" xmlns:xlink="http://www.w3.org/1999/xlink" x="0px" y="0px"
	 viewBox="0 0 18 18" style="enable-background:new 0 0 18 18;" xml:space="preserve">
<style type="text/css">
	.st0{fill-rule:evenodd;clip-rule:evenodd;fill:#F6C906;}
	.st1{fill-rule:evenodd;clip-rule:evenodd;fill:#EC1F27;}
	.st2{fill:#262626;}
	.st3{fill:#828282;}
	.st4{fill:#F73737;}
	.st5{fill:#55CE15;}
	.st6{fill:none;stroke:#F73737;stroke-width:2;stroke-miterlimit:10;}
	.st7{fill:none;stroke:#55CE15;stroke-width:2;stroke-miterlimit:10;}
	.st8{fill:#31BC31;}
	.st9{fill:#FFFFFF;}
	.st10{fill:#EC1F27;}
	.st11{fill:#818181;}
	.st12{fill-rule:evenodd;clip-rule:evenodd;fill:#C3C4C4;}
</style>
<path class="st10" d="M15.36,2.63C13.66,0.93,11.4,0,8.99,0C6.6,0,4.34,0.93,2.63,2.64C0.93,4.34,0,6.6,0,8.99
	c0,2.41,0.93,4.67,2.63,6.36C4.33,17.06,6.6,18,8.99,18c2.41,0,4.68-0.94,6.36-2.64C17.06,13.67,18,11.41,18,8.99
	C18,6.6,17.06,4.33,15.36,2.63z M4.75,4.76C5.89,3.62,7.4,3,8.99,3c1.09,0,2.13,0.29,3.04,0.83l-8.21,8.21
	C3.29,11.12,3,10.08,3,8.99C3,7.4,3.62,5.89,4.75,4.76z M13.23,13.24C12.11,14.38,10.6,15,8.99,15c-1.09,0-2.13-0.3-3.04-0.84
	l8.21-8.21C14.7,6.86,15,7.91,15,8.99C15,10.6,14.38,12.11,13.23,13.24z"/>
</svg>
