<?xml version="1.0" encoding="utf-8"?>
<!-- Generator: Adobe Illustrator 20.1.0, SVG Export Plug-In . SVG Version: 6.00 Build 0)  -->
<svg version="1.1" id="svg12494" xmlns="http://www.w3.org/2000/svg" xmlns:xlink="http://www.w3.org/1999/xlink" x="0px" y="0px"
	 viewBox="0 0 49.9 24" style="enable-background:new 0 0 49.9 24;" xml:space="preserve">
<style type="text/css">
	.st0{fill:#166EC1;}
</style>
<g id="g12213" transform="translate(92.8631,733.0946)">
	<path id="path12215" class="st0" d="M-76.6-717.4l-2,3.4l-11.1-0.6l1.1-1.9L-76.6-717.4z M-68.6-728.4l1,3.8l-15.7-1l1.1-1.9
		L-68.6-728.4z M-79-733.1l9.2,0l0.7,2.6l-11-0.7L-79-733.1z M-79.8-711.8l-1.6,2.7l-11.4,0l1.1-1.9L-79.8-711.8z M-59.8-719.2
		l-2.8,4.8h2.6c1.2,0,3.4-0.6,4.1-2.3c0.6-1.6-0.5-2.4-1.3-2.4L-59.8-719.2z M-57.2-723.8l2.3,0c1.5,0,3.1-0.7,3.7-2.1
		c0.5-1.3-0.2-2.4-1.1-2.4l-2.2,0L-57.2-723.8z M-67.6-724.6l2.3-4l7.8-0.5l0.3-0.5l-7.3-0.5l1.7-2.9l13.5,0c4.1,0,7.2,1.5,6,5.8
		c-0.4,1.3-2,4.6-7,6c1,0.1,3.7,1.3,3.2,4.3c-0.8,5.3-7.7,7.8-11.5,7.8l-15.9,0l-0.8-3.1l8.3-0.6l0.3-0.5l-9-0.5l-1-3.6l12.8-0.7
		l0.3-0.5l-23.1-1.5l1.1-1.9l24.8-1.6l0.3-0.5L-67.6-724.6"/>
</g>
</svg>
