<?xml version="1.0" encoding="utf-8"?>
<!-- Generator: Adobe Illustrator 23.0.3, SVG Export Plug-In . SVG Version: 6.00 Build 0)  -->
<svg version="1.1" id="Layer_1" xmlns="http://www.w3.org/2000/svg" xmlns:xlink="http://www.w3.org/1999/xlink" x="0px" y="0px"
	 viewBox="0 0 24 24" style="enable-background:new 0 0 24 24;" xml:space="preserve">
<style type="text/css">
	.st0{fill:#E73738;}
	.st1{fill:#3E58A4;}
	.st2{fill:#EC681C;}
</style>
<g>
	<path class="st0" d="M17,22H2V2h9.24v5.78H17v2.41h2V5.37L13.65,0H0v24h19v-3.68h-2V22z M13.24,2.42l3.35,3.36h-3.35V2.42z"/>
	<path class="st0" d="M8.93,11.99c-0.32-0.11-0.65-0.16-1.02-0.16H5.31v6.64h1.73v-2.06h0.88c0.36,0,0.7-0.06,1.02-0.17
		c0.32-0.11,0.59-0.27,0.81-0.47s0.41-0.44,0.54-0.72s0.2-0.59,0.2-0.94c0-0.35-0.07-0.67-0.2-0.95s-0.31-0.52-0.54-0.72
		C9.52,12.25,9.24,12.1,8.93,11.99z M8.5,14.68c-0.14,0.14-0.34,0.22-0.58,0.22H7.04v-1.56h0.89c0.24,0,0.43,0.07,0.58,0.21
		c0.14,0.14,0.22,0.33,0.22,0.56S8.65,14.54,8.5,14.68z"/>
	<path class="st0" d="M15.16,12.06c-0.44-0.15-0.92-0.23-1.43-0.23h-2.31v6.64h2.31c0.51,0,0.99-0.08,1.43-0.24
		c0.44-0.16,0.83-0.39,1.15-0.68c0.33-0.29,0.58-0.64,0.76-1.05s0.28-0.87,0.28-1.37c0-0.51-0.09-0.97-0.28-1.38
		s-0.44-0.76-0.76-1.04C15.98,12.43,15.6,12.21,15.16,12.06z M15.44,15.89c-0.1,0.22-0.23,0.41-0.39,0.56
		c-0.16,0.15-0.36,0.27-0.59,0.35s-0.47,0.12-0.73,0.12h-0.57V13.4h0.57c0.26,0,0.51,0.04,0.73,0.11c0.23,0.07,0.42,0.18,0.59,0.32
		s0.3,0.32,0.39,0.54s0.15,0.47,0.15,0.77C15.58,15.41,15.53,15.66,15.44,15.89z"/>
	<polygon class="st0" points="22.85,13.39 22.85,11.83 18.34,11.83 18.34,18.47 20.07,18.47 20.07,16.22 22.32,16.22 22.32,14.66 
		20.07,14.66 20.07,13.39 	"/>
</g>
</svg>
