<?xml version="1.0" encoding="utf-8"?>
<!-- Generator: Adobe Illustrator 20.1.0, SVG Export Plug-In . SVG Version: 6.00 Build 0)  -->
<svg version="1.1" id="Layer_1" xmlns="http://www.w3.org/2000/svg" xmlns:xlink="http://www.w3.org/1999/xlink" x="0px" y="0px"
	 viewBox="0 0 126.5 132" style="enable-background:new 0 0 126.5 132;" xml:space="preserve">
<style type="text/css">
	.st0{fill-rule:evenodd;clip-rule:evenodd;fill:#164EA2;}
</style>
<path class="st0" d="M1.6,25.3c0.9-1.4,1.4-1.4,2.9-1.7C6,23.3,7.9,22.4,11,22c4.3-0.6,8.2-1.3,12.5-0.7c1.6,0.2,3.5,0.4,4.2,0.1
	c1.4-0.4,2.1-0.9,2.1-0.9s1.2-0.1,2.6-0.1c1.4,0.1,2.1,0.4,2.2-0.4c0.1-0.8,2.3-0.8,2.8-1.2c0.5-0.4,0.4-0.7,1.1-0.7
	c0.6,0,3.5-1.3,3.9-1.8c0.4-0.6,1.4-0.9,1.8-0.9c0.3,0.1,0.8-1.3,3.9-0.6c3.1,0.7,3.4,2.8,4.6,1.9c1.2-0.9,2.8-1.1,2.8-1.1l0.9,0.3
	c0,0,2-0.9,2.6-2c0.6-1.1,1.3-1.9,1.3-1.9l-0.7,0.2c0,0,1.2-2.5,1.4-4.3c0.3-1.8,2.2-4.1,2.2-4.1l-0.9,0.6c0,0,0.8-1.2,1.5-1.8
	c0.8-0.6,3.9-1.8,3.9-1.8s1.8-1,2.8-0.4c1,0.6,1.1,0.6,1.1,0.6V0.1c0,0,0.4,0.4,0.9,0.4c0.5,0,1.1-0.2,2.7,0.9
	c1.6,1.1,1.8,1.3,2.9,3.3c1.1,1.9,2.4,1.8,2.4,1.8l-0.7,0.6l1.1,0.1c0,0,0,0.6-0.8,0.8c-0.8,0.2-1.1,0.2-1.1,0.2s0.3,2-0.3,3.6
	c-0.6,1.6-1.7,2.3-1.8,2.9c-0.1,0.6-0.3,1.3-0.9,1.4c-0.6,0.1-0.8-0.3-0.9,0.8c-0.1,1.1,0.2,2.4-0.4,2.9c-0.6,0.6-1.5,0.2-1.8,0.3
	c-0.3,0.1-0.1,0.8-0.1,0.8L71.8,21c0,0,0.3,0.8-0.3,0.8c-0.6,0-0.8,0.5-0.8,0.5s1.4,1.3,2.6,4.3c1.1,3,1.5,6.6,2.4,7.1
	c0.9,0.5,0.4,0.6,1.1,1.3c0.7,0.7,0.7,0.3,0.9,1.2c0.3,0.9,1,0.4,1.6,1.8c0.6,1.4,0.6,1.3,0.6,1.3l11.8,11.3c0,0,1.5,0.8,2.2,1.4
	c0.7,0.6,1.1,0.9,2,1.6c0.9,0.6,1.4,1,1.8,1.6c0.4,0.6,4.1,1.3,4.6,1.9c0.6,0.6,2.3,2.5,2.6,2.6c0.3,0.1,0.6-0.3,0.8,0.7
	c0.1,1,0.6,2.6,0.3,2.9c-0.3,0.3-0.9,1.3-0.9,1.3s-0.8-0.2-0.6-0.9c0.1-0.7,0.3-1.2,0.3-1.2l-0.3-1.1l-0.3,1.7
	c-0.2,0.5-0.8,3-1.1,0.9c-0.1-0.4,0.1-1.8-0.3-2.2c-0.4-0.4-1-1.4-2.2-1.6c-1.2-0.2-1.9,0.3-1.9,0.3s2.3,1.2,2.7,1.9
	c0.5,0.7,0.7,1.1,0.5,1.3c-0.7,0.7-2.8-1.5-3.6-1.6c-1-0.1-1.5-0.3-1.8-0.6c-0.3-0.3-0.3-0.2-1.3-1.1c-0.9-0.9-1.1-2.1-1.1-2.1
	s-2.4-2.5-3.9-3c-1.4-0.5-1.6-0.8-1.6-0.8s-7.5-4.8-9.5-6.3c-2-1.6-3.1-3.8-4.6-4.8C73,42.6,71.8,41,71.8,41l-1.2,0.3l-1-0.6
	c0,0-0.1,2.2-0.4,3.3c-0.3,1.1-1.4,2.5-0.6,3.5c0.8,1,1.4,5,1.1,5.6c-0.3,0.6,0.7,1.7,0.4,2.6c-0.3,0.9,0.4,1.4,0.4,2.1
	c0.1,0.7,3.3,4,2.6,4.3c-0.8,0.3-2.8,1.9-2.8,1.9s0.4,4.4,0.1,5.6c-0.3,1.2,0.6,3.1,0.2,4.3c-0.4,1.3-0.4,3.4-0.4,3.4
	s7.2,8.2,8.1,9.5c0.9,1.3,1.5,5.5,2.2,6.2c0.7,0.7,1.2,0.6,1,1.4c-0.2,0.8,1.2,3.3,1.7,3.7c0.5,0.4,0.6,1,0.5,1.3
	c-0.1,0.3,6.4,11.6,7.1,12.1c0.7,0.5,2.6,3.6,3.1,4.5c0.4,0.9,1.2,1.8,2.1,2.1c0.9,0.3,3.6-1.6,4.7-0.3c1.1,1.3,1.6,2.6,1.2,3
	c-0.4,0.4,0.2,0.9,0.1,1.3c-0.1,0.4-0.9,0.5-0.9,0.5s-1.3,1.3-1.3,2.1c-0.1,0.8,0.3,1.3-0.1,1.7c-0.4,0.4-0.4,0.4-0.4,0.4l-1,1.9
	c0,0,0.6,0.6-0.2,0.7c-0.8,0.1-0.4-0.4-0.9-0.4c-0.4,0-1.1-0.2-2.3-1.1c-1.2-0.9-0.7-2.9-2-3.3c-1.3-0.3-1.5-1.5-1.5-1.5
	s-0.2-1-2.4-2.6c-2.3-1.6-11.8-14-12.5-14.8c-0.7-0.8-0.9-1.8-0.9-1.8s-0.6-0.1-0.6-0.6c-0.1-0.4-0.1-4.1-2.4-6.9
	c-2.3-2.9-8.3-7.1-8.3-7.1s-2.5,3.8-4.8,3.8c-2.3,0-6.4-0.4-7.6,0.8c-1.3,1.1-6.1,0.3-9.6,1.5c-3.5,1.3-5.5,0.5-6.3,3
	c-0.8,2.5-1.6,2.6-3.6,3.5c-2,0.9-1.1,5.6-2,6.5c-0.9,0.9-2.9,0.4-2.9,0.4s-1.4-4.4-1.1-7.5c0.3-3.1-0.3-5-0.3-7c0-2,1-3.3,1-3.3
	s1.9-0.4,3,0.4c1.1,0.8,2.8,0.9,2.8,0.9s1-2.4,2-2.8c1-0.4,4.3-1.3,4.3-1.3l1,1.1c0,0,2.5-3,4.5-4.1c2-1.1,7.6-1.4,7.6-1.4l0.4-2.8
	c0,0-2.1-3.5-6.1-6.6c-4-3.1-3.1-6.9-3.1-6.9s-1.1-1.9-0.5-4.9c0.6-3,1.8-6.1,1.4-8.1c-0.4-2-1.6-5.8-1.6-7.3c0-1.5-0.8-2.9-1.4-3.5
	c-0.6-0.6-1.1-3.3-1.1-3.3s-1.9-4-1-5.8c0.9-1.8,0.1-3.1,0.1-3.1s-1.1-1.3-2-1.1c-0.9,0.1-2.9,0.3-2.9,0.3L31.2,27l-2.3-0.6
	c0,0-0.6,2.1-6.5,2.1c-5.9,0-11.5-3-12.8-1.4c-1.3,1.6-1.6,3.1-3.5,3.3c-1.9,0.1-1.9,1.2-1.9,1.2L3.5,31c0,0-1.3-0.3-1.9-1.2
	c-0.7-0.9-0.9-1.3-0.9-1.3S0.3,28.9,0,28.2C-0.3,27.4,1.7,25.1,1.6,25.3L1.6,25.3z M117.7,114.5c4.8,0,8.8,3.9,8.8,8.8
	c0,4.8-3.9,8.8-8.8,8.8c-4.8,0-8.8-3.9-8.8-8.8C108.9,118.4,112.9,114.5,117.7,114.5L117.7,114.5z M4.4,27.3
	c-0.9,0.7-0.5,2.3-0.5,2.3s1.9-0.9,1.8-1.6C5.5,27.2,4.3,27.2,4.4,27.3L4.4,27.3z"/>
</svg>
