<?xml version="1.0" encoding="utf-8"?>
<!-- Generator: Adobe Illustrator 20.1.0, SVG Export Plug-In . SVG Version: 6.00 Build 0)  -->
<svg version="1.1" id="Layer_1" xmlns="http://www.w3.org/2000/svg" xmlns:xlink="http://www.w3.org/1999/xlink" x="0px" y="0px"
	 viewBox="0 0 149.1 132" style="enable-background:new 0 0 149.1 132;" xml:space="preserve">
<style type="text/css">
	.st0{fill-rule:evenodd;clip-rule:evenodd;fill:#164EA2;}
</style>
<path class="st0" d="M44.9,89c-3,2.5-5.6,4.4-7.8,4.2c-2.2-0.2-1.7,0.7-3.2,1.2c-1.5,0.6-2.2,0.6-3.4,2.2c-1.2,1.6-2.5,3.2-4.3,4.3
	c-1.5,0.9-2.2,2-2.1,3.5c-0.4,0.2-0.6,0.5-0.6,0.8c0,0.2,0.4,0.2,0.7,0.2c0.3,1.1,1.6,2.2,2.9,2.9c-0.1,0.5-0.1,0.8,0.1,1
	c0.2,0.2,0.6-0.3,0.8-0.6c0.7,0.2,1.3,0.3,1.7,0.1c1.4-0.7,1.6-2.5,3.6-4.7c1.2-1.3,1.9-1.9,2.5-2.4c0.1,0.3,0.3,0.6,0.4,0.8
	c0.1,0.1,0.2,0.2,0.4,0.2c0.1,0,0.3,0,0.4,0c0.1-0.1,0.2-0.2,0.3-0.4c0.1-0.3-0.1-0.8-0.3-1.4c0.1-0.1,0.2-0.1,0.3-0.2
	c1.3-1,0.5-1.2,2.1-1.9c1.6-0.7,1.7-1.1,2.2-0.8c0.5,0.2,4-0.3,5.9-0.8c1.9-0.4,5.7,0,7.8-1.2c2.1-1.2,1.6-1.8,3.3-2.5
	c1.7-0.7,1.7-0.7,1.7-0.7s1.8-0.1,4.5-0.5c2.7-0.4,3.4-0.7,3.4-0.7s0.8,0.2,3.2,0c2.4-0.2,3.4-0.4,3.4-0.4s2.3,0.3,3.9-0.4
	c1.6-0.7,1.7-2.1,1.9-2.6c0.2-0.5,1.8-1,1.8-1s1.6,1.4,2.6,1.1c1-0.3,3-0.2,4.2-0.2c1.2,0,4.1,0.5,4.1,0.5s7.2-1,9.5-1
	c2.3,0,5-0.5,9,2.3c4,2.8,7,7,9.4,8.5c2.4,1.5,3.1,0.9,3.1,1.9c0,1.1,0.9,1.9,0.9,1.9s-1.9-0.6,2.3,5.8c4.2,6.4,7.8,11.3,7.5,13.5
	c-0.4,2.2-0.9,2.6,0.1,4.4c1,1.8,0.8,2.6,1.9,3.2c1.1,0.6,1.7-0.7,1.7-0.7s2.1,0.9,4.2,2.4c2.1,1.5,4,0.6,4,0.6s0.5,0.4,1.2,0
	c0.7-0.5,1.1-0.8,0.4-0.9c-0.7,0-1,0-2.2-0.8c-1.2-0.7-3.7-2.1-4.3-2.5c-0.6-0.4-1.2-2.3-2.2-3.9c-1-1.5-1.3-2.5-1.3-3.2
	c0-0.7-2.1-11.1-2.8-13.5c-0.8-2.5-2.4-5.6-2.4-6.6s0.7-1.1,0.2-2.5c-0.5-1.4-0.7-2-1.1-2.4c-0.5-0.4-0.7,0.2-0.8-0.9
	c0-1.1-0.9-1.6-1.4-1.9c-0.5-0.3-0.5-0.8-0.6-1c-0.2-0.2,0.1-0.6,0-1.3c-0.2-0.7-0.9-1.6-0.9-1.6s-0.1,0.1,0-0.6
	c0.1-0.7-0.3-1.8-0.3-1.8s-0.2-2.3-0.4-2.7c-0.2-0.4-2-3.5-2-3.5s-0.2-3.9-1-5.3c-0.7-1.3-0.9-1.6-0.9-1.6s0.5-2.2,0-3.8
	c-0.5-1.6-1.7-2.2-1.7-2.2s0.6-1.7,0.3-2.1c-0.3-0.4-0.5-0.6-0.5-0.6s0.3-1.5,0.8-2c0.5-0.5,0.7-0.6,0.7-0.6s3.7-2,5.2-3.3
	c1.4-1.4,3-4.3,3-4.3l0-0.7l0.5-0.8c0,0,0.1-4-0.5-5.4c-0.7-1.3-1.3-1.8-1.3-1.8s-2-2.7-4.4-3.3c-2.4-0.7-4-0.2-4.9-1
	c-0.9-0.7-0.7-1.5-0.7-1.5s-0.5,0.5-0.6,1c-0.1,0.5-0.2,0.9-0.2,0.9l-0.1-1c0,0-0.5,0.4-0.5,1.1c0,0.7,0.1,1.6,0.1,1.6l-0.8-1
	c0,0,0.3,1.1,0,1.6c-0.3,0.5-2,1.5-3,2.1c-1.1,0.6-2.1,0.2-2.1,1c0,0.7,0.2,1.8-0.3,2.1c-0.5,0.3-2.5,0.5-2.8,1
	c-0.3,0.5,0.4,1.1,0.4,1.1l-0.5,0.1c0,0-1.7-1.3-4.6-2c-3-0.6-3.8,0.2-4.5-0.7c-0.7-1-1.2-1.2-1.2-1.2s-0.8-0.2-3,0.1
	c-2.2,0.3-2.2,0.6-2.9,0c-0.8-0.6-0.9-0.4-1.7-0.1c-0.8,0.3-2.1-0.6-2.1-0.6L89,49.5c0,0-8.1-1.1-11.2-1.7c-3.1-0.5-5.5-1.6-6.3-2.3
	c-0.8-0.8-1.7-0.7-2-0.7c-0.3,0-1.3-1-3.3-0.2c-2.1,0.8-4-0.7-4.5,0.3c-0.5,1,0.5,1.3,0.5,1.3s-0.5,0.1-0.5,0.5s0,0.4,0,0.4L58.3,46
	c0,0-4.5-3.5-6.9-5.4c-2.5-1.9-6.2-4.4-6.2-4.4s-9.9-7.1-12.1-8.2c-2.2-1.1-3.8-2.5-5.3-2.4c-1.4,0.1-1.9,0.7-3.3,0.2
	c-1.4-0.5-4.3-2.1-5.6-2.7c-1.3-0.6-0.8-0.5-3.3-1c-2.5-0.5-3.4-0.7-4.3-1.1c-0.9-0.4-1.9-0.8-3.3-1c-1.4-0.2-3.9-1-5.5-1.3
	c-1.5-0.4-3-0.1-2.3,1.9c0.1,0.2,0.2,0.5,0.3,0.9c-0.7,0.4-0.5,1.1-0.1,1.1c0.2,0,0.4,0,0.5,0c0.2,0.4,0.4,0.8,0.6,1.2
	c-0.6,0.4-0.4,1,0,1c0.2,0,0.4,0,0.6,0C3,26.4,4,27.5,4.9,27.5c1.7-0.1,4.1-1,5.6,0.1c0.8,0.6,1.3,1.9,2,3.2
	c-0.8,0.3-0.6,1.1-0.2,1.1c0.4,0,0.8,0,0.9,0c0.1,0.2,0.3,0.4,0.4,0.6c-0.4,0.4-0.2,1,0.1,1c0.4,0,0.7,0,0.8,0
	c2.3,1.7,4.8-1.1,6.1-1.3c1.3-0.2,2.4,1.1,4.5,2.8c2.1,1.7,4.3,1.3,7.8,6c3.5,4.7,8.1,3.8,8.1,4.9c0,1.1-0.5,1.5,1.1,1.4
	c1.5-0.1,1.9,0.6,1.9,0.6s7.9,7.1,7.8,8.8c-0.1,1.7-0.7,2.9,1.3,4.8c2,1.9,3.4,2.1,3.8,4.7c0.4,2.6,5.4,7.1,5.4,7.1l-1.1,2.2
	c0,0-0.4-0.5-2,1.1c-1.6,1.5-2.5,1.6-2.3,3c0.2,1.3,0.8,3.3-0.4,3.3c-1.1,0-3.7,1.1-5.6,2.4C49.3,86.3,44.9,89,44.9,89L44.9,89z
	 M36.2,101.5c0.2-0.2,0.4-0.3,0.7-0.5c0.2,0.5,0.3,1,0.3,1.2c0,0.1-0.1,0.1-0.1,0.2c0,0-0.1,0-0.2,0c-0.1,0-0.2-0.1-0.3-0.2
	C36.5,102.1,36.3,101.8,36.2,101.5L36.2,101.5z M13.4,0c5.1,0,9.2,4.1,9.2,9.2c0,5.1-4.1,9.2-9.2,9.2c-5.1,0-9.2-4.1-9.2-9.2
	C4.2,4.1,8.3,0,13.4,0L13.4,0z M70.5,51.9c2.9,2.5,2.8,4,2.8,4s0.8-0.1,2.2,1.3c1.4,1.4,0.6,2.3,2.4,2.6c1.8,0.3,3.2-0.9,3.3,0.5
	c0.1,1.3,0.2,2.8,0.9,2.5c0.7-0.3,3.7-2.6,5.5-3.5c1.7-1,1.8-1,1.8-1s-4.9-1.9-7.4-3.2c-2.5-1.2-5.2-3.5-7.6-3.6
	C71.9,51.4,70.5,51.9,70.5,51.9L70.5,51.9z"/>
</svg>
