<?xml version="1.0" encoding="utf-8"?>
<!-- Generator: Adobe Illustrator 20.1.0, SVG Export Plug-In . SVG Version: 6.00 Build 0)  -->
<svg version="1.1" id="Layer_1" xmlns="http://www.w3.org/2000/svg" xmlns:xlink="http://www.w3.org/1999/xlink" x="0px" y="0px"
	 viewBox="0 0 18 18" style="enable-background:new 0 0 18 18;" xml:space="preserve">
<style type="text/css">
	.st0{fill-rule:evenodd;clip-rule:evenodd;fill:#F6C906;}
	.st1{fill-rule:evenodd;clip-rule:evenodd;fill:#EC1F27;}
	.st2{fill:#262626;}
	.st3{fill:#828282;}
	.st4{fill:#F73737;}
	.st5{fill:#55CE15;}
	.st6{fill:none;stroke:#F73737;stroke-width:2;stroke-miterlimit:10;}
	.st7{fill:none;stroke:#55CE15;stroke-width:2;stroke-miterlimit:10;}
</style>
<g>
	<path class="st2" d="M9,0C4.1,0,0,4.1,0,9s4.1,9,9,9s9-4.1,9-9S13.9,0,9,0z M7.2,16l-1.4-2.5l-2.9-0.7c-0.6-1-1-2.2-1.1-3.4
		l1.9-2.1L3.5,4.4c0.8-0.9,1.7-1.6,2.8-2L9,3.4l2.6-1.1c1.1,0.4,2.1,1.1,2.8,2l-0.2,2.9l1.9,2.1c-0.1,1.2-0.5,2.4-1.1,3.4l-2.9,0.7
		L10.8,16c-0.6,0.1-1.2,0.2-1.8,0.2S7.8,16.1,7.2,16z"/>
	<polygon class="st2" points="12.6,8 9,5.5 5.4,7.9 6.8,12 11.2,12 	"/>
</g>
</svg>
