<?xml version="1.0" encoding="utf-8"?>
<!-- Generator: Adobe Illustrator 20.1.0, SVG Export Plug-In . SVG Version: 6.00 Build 0)  -->
<svg version="1.1" id="Layer_1" xmlns="http://www.w3.org/2000/svg" xmlns:xlink="http://www.w3.org/1999/xlink" x="0px" y="0px"
	 viewBox="0 0 18 18" style="enable-background:new 0 0 18 18;" xml:space="preserve">
<style type="text/css">
	.st0{fill-rule:evenodd;clip-rule:evenodd;fill:#F6C906;}
	.st1{fill-rule:evenodd;clip-rule:evenodd;fill:#EC1F27;}
	.st2{fill:#262626;}
	.st3{fill:#828282;}
	.st4{fill:#F73737;}
	.st5{fill:#55CE15;}
	.st6{fill:none;stroke:#F73737;stroke-width:2;stroke-miterlimit:10;}
	.st7{fill:none;stroke:#55CE15;stroke-width:2;stroke-miterlimit:10;}
</style>
<g>
	<rect x="12.6" y="5.5" transform="matrix(0.8503 -0.5262 0.5262 0.8503 -1.2486 8.6618)" class="st3" width="4" height="2"/>
	<rect x="9.3" y="2.6" transform="matrix(0.4732 -0.881 0.881 0.4732 2.7765 11.7972)" class="st3" width="4" height="2"/>
	
		<rect x="5.9" y="0.7" transform="matrix(0.9995 -3.093297e-02 3.093297e-02 0.9995 -8.030780e-02 0.2139)" class="st3" width="2" height="4"/>
	<path class="st3" d="M9.4,7.5L8.7,8.6L8.2,8.3l0.7-1.2l-1-0.4C5.3,5.5,2.2,6.5,0.7,9c-0.7,1.3-0.9,2.8-0.6,4.2
		c0.4,1.4,1.3,2.6,2.6,3.4c0.9,0.5,1.8,0.7,2.8,0.7c0.5,0,1-0.1,1.4-0.2c1.3-0.4,2.5-1.2,3.2-2.3l6,0.8l1.8-3.1L9.4,7.5z M15.1,13.5
		l-6-0.8l-0.4,0.7c0,0.1-0.1,0.1-0.1,0.2c-0.5,0.8-1.3,1.4-2.2,1.7c-0.9,0.2-1.9,0.1-2.7-0.4c-1.7-1-2.3-3.2-1.3-4.9
		c0.7-1.1,1.9-1.8,3.1-1.8c0.1,0,0.3,0,0.5,0L5.6,9l3.9,2.2l0.6-1.1l5.2,3L15.1,13.5z"/>
</g>
</svg>
