<?xml version="1.0" encoding="utf-8"?>
<!-- Generator: Adobe Illustrator 20.1.0, SVG Export Plug-In . SVG Version: 6.00 Build 0)  -->
<svg version="1.1" id="Layer_1" xmlns="http://www.w3.org/2000/svg" xmlns:xlink="http://www.w3.org/1999/xlink" x="0px" y="0px"
	 viewBox="0 0 21.5 18" style="enable-background:new 0 0 21.5 18;" xml:space="preserve">
<style type="text/css">
	.st0{fill-rule:evenodd;clip-rule:evenodd;fill:#F6C906;}
	.st1{fill-rule:evenodd;clip-rule:evenodd;fill:#EC1F27;}
	.st2{fill:#262626;}
	.st3{fill:#828282;}
	.st4{fill:#F73737;}
	.st5{fill:#55CE15;}
	.st6{fill:none;stroke:#F73737;stroke-width:2;stroke-miterlimit:10;}
	.st7{fill:none;stroke:#55CE15;stroke-width:2;stroke-miterlimit:10;}
</style>
<g>
	<path class="st0" d="M8.8,0.2L15.3,4c0.8,0.5,1.1,1.5,0.6,2.3L9.6,17.2c-0.5,0.8-1.5,1.1-2.3,0.6L0.9,14c-0.8-0.5-1.1-1.5-0.6-2.3
		L6.5,0.9C7,0.1,8-0.2,8.8,0.2L8.8,0.2z"/>
</g>
<g>
	<path class="st1" d="M14.2,0.2L20.7,4c0.8,0.5,1.1,1.5,0.6,2.3L15,17.2c-0.5,0.8-1.5,1.1-2.3,0.6L6.3,14c-0.8-0.5-1.1-1.5-0.6-2.3
		l6.3-10.9C12.4,0.1,13.4-0.2,14.2,0.2L14.2,0.2z"/>
</g>
</svg>
