<?xml version="1.0" encoding="utf-8"?>
<!-- Generator: Adobe Illustrator 23.0.3, SVG Export Plug-In . SVG Version: 6.00 Build 0)  -->
<svg version="1.1" id="Layer_1" xmlns="http://www.w3.org/2000/svg" xmlns:xlink="http://www.w3.org/1999/xlink" x="0px" y="0px"
	 viewBox="0 0 32 32" style="enable-background:new 0 0 32 32;" xml:space="preserve">
<style type="text/css">
	.st0{fill:#7f858e;}
	.st1{fill-rule:evenodd;clip-rule:evenodd;fill:#040d21;}
</style>
<title></title>
<path class="st0" d="M6,0h20c3.3,0,6,2.7,6,6v20c0,3.3-2.7,6-6,6H6c-3.3,0-6-2.7-6-6V6C0,2.7,2.7,0,6,0z"/>
<path class="st1" d="M24.7,13.5c-0.1-1.7-0.4-3.4-2.6-3.6c-4-0.2-8.1-0.2-12.1,0c-2.2,0.1-2.5,1.9-2.6,3.6c-0.1,1.7-0.1,3.4,0,5
	c0.1,1.7,0.4,3.4,2.6,3.6c4,0.2,8.1,0.2,12.1,0c2.2-0.1,2.5-1.9,2.6-3.6C24.8,16.8,24.8,15.2,24.7,13.5z M14.3,18.3v-5l4.8,2.5
	L14.3,18.3z"/>
</svg>
