<svg width="476" height="357" viewBox="0 0 476 357" fill="none" xmlns="http://www.w3.org/2000/svg">
<g clip-path="url(#clip0)">
<path opacity="0.26" d="M465.456 151.651C457.487 121.65 444.123 94.0602 429.052 68.2217C417.794 48.9119 404.852 29.7789 387.008 19.763C371.315 10.953 353.425 10.0851 336.095 9.36306C315.976 8.53352 295.849 7.70398 275.729 6.86677C253.151 5.93738 230.519 5.00031 207.986 7.03575C165.235 10.8992 123.659 25.347 83.1669 42.122C55.255 53.6818 25.445 68.6211 11.2047 99.4983C1.52933 120.498 0.753144 145.491 0.215196 169.44C-0.268958 190.786 -0.599412 213.037 7.02409 232.362C14.5861 251.526 29.0031 265.344 42.9437 278.463C61.0034 295.453 80.0775 313.004 102.741 317.697C123.836 322.067 145.223 314.709 166.119 309.148C229.335 292.319 290.876 295.691 354.554 305.4C394.839 311.537 425.11 308.326 450.77 267.134C472.719 231.901 476.523 193.343 465.456 151.651Z" fill="#CAE5FF"/>
<path opacity="0.3" d="M215.986 25.4699C192.317 27.0906 168.678 29.2335 145.039 31.3842C126.21 33.097 107.144 34.8636 89.2918 42.2066C63.6855 52.7294 41.5912 74.9041 28.5113 103.193C14.3556 133.801 10.9819 169.609 7.86946 204.358C5.70998 228.476 3.78873 254.222 13.149 275.752C21.6717 295.353 38.5172 308.296 56.2387 314.701C73.9526 321.107 92.7193 321.776 111.225 322.398C192.686 325.147 274.146 327.889 355.599 330.639C381.052 331.5 407.565 332.106 430.659 319.318C453.752 306.529 472.073 275.967 465.702 246.572C462.021 229.582 450.924 215.649 448.442 198.351C445.398 177.183 455.804 156.982 460.177 136.144C471.996 79.7738 433.187 15.1161 383.727 13.48C362.877 12.7887 341.805 20.2776 320.948 21.4912C285.989 23.5343 250.961 23.0735 215.986 25.4699Z" fill="#CAE5FF"/>
<path d="M436.092 238.453C440.08 236.802 443.577 234.359 446.428 231.333L452.046 233.614L456.726 226.387L452.338 222.2C453.929 218.36 454.728 214.174 454.597 209.857L460.192 207.499L458.386 199.081L452.315 199.219C450.663 195.233 448.219 191.738 445.199 188.888L447.481 183.274L440.25 178.596L436.061 182.982C432.219 181.392 428.03 180.593 423.711 180.724L421.352 175.132L412.929 176.937L413.068 183.005C409.079 184.656 405.575 187.099 402.731 190.125L397.114 187.844L392.434 195.072L396.822 199.258C395.231 203.098 394.432 207.284 394.562 211.601L388.968 213.959L390.774 222.377L396.845 222.239C398.497 226.225 400.941 229.728 403.961 232.57L401.679 238.184L408.91 242.862L413.098 238.476C416.941 240.066 421.129 240.865 425.448 240.734L427.808 246.326L436.23 244.521L436.092 238.453ZM414.666 212.853C413.498 207.392 416.987 201.992 422.451 200.825C427.915 199.657 433.318 203.144 434.486 208.605C435.654 214.066 432.165 219.466 426.701 220.634C421.237 221.809 415.842 218.314 414.666 212.853Z" fill="#D1E5EC"/>
<path d="M58.014 230.826C62.0025 229.175 65.4991 226.732 68.3503 223.706L73.968 225.987L78.6481 218.759L74.26 214.573C75.8508 210.733 76.65 206.547 76.5194 202.23L82.1141 199.872L80.3081 191.454L74.2369 191.592C72.5847 187.606 70.1408 184.111 67.1207 181.261L69.4031 175.646L62.1715 170.969L57.9832 175.355C54.1407 173.765 49.9524 172.966 45.6334 173.096L43.2742 167.505L34.8514 169.31L34.9897 175.378C31.0012 177.029 27.5046 179.472 24.6535 182.49L19.0357 180.209L14.3556 187.437L18.7437 191.623C17.1529 195.463 16.3537 199.649 16.4843 203.966L10.8896 206.324L12.6956 214.742L18.7668 214.604C20.419 218.59 22.8628 222.085 25.883 224.935L23.6006 230.55L30.8322 235.227L35.0205 230.841C38.863 232.431 43.0513 233.23 47.3703 233.1L49.7295 238.691L58.1523 236.886L58.014 230.826ZM36.5959 205.218C35.4278 199.757 38.9168 194.357 44.3808 193.19C49.8448 192.022 55.2474 195.509 56.4155 200.97C57.5836 206.432 54.0946 211.831 48.6306 212.999C43.1666 214.174 37.764 210.679 36.5959 205.218Z" fill="#D1E5EC"/>
<path d="M422.651 292.603C425.102 291.59 427.254 290.092 428.999 288.233L432.449 289.639L435.323 285.199L432.626 282.626C433.602 280.268 434.094 277.695 434.017 275.045L437.452 273.593L436.346 268.424L432.611 268.508C431.596 266.058 430.098 263.908 428.238 262.164L429.644 258.715L425.202 255.843L422.628 258.539C420.269 257.563 417.694 257.072 415.043 257.148L413.59 253.715L408.418 254.821L408.503 258.554C406.051 259.568 403.9 261.066 402.155 262.924L398.705 261.519L395.83 265.958L398.528 268.532C397.552 270.89 397.06 273.463 397.137 276.113L393.702 277.564L394.808 282.733L398.543 282.649C399.558 285.099 401.056 287.25 402.916 288.993L401.51 292.442L405.951 295.315L408.526 292.619C410.885 293.594 413.46 294.086 416.111 294.009L417.563 297.442L422.735 296.336L422.651 292.603ZM409.494 276.881C408.772 273.524 410.924 270.214 414.274 269.492C417.633 268.77 420.945 270.92 421.667 274.269C422.39 277.618 420.238 280.936 416.887 281.658C413.529 282.38 410.217 280.237 409.494 276.881Z" fill="#D1E5EC"/>
<path d="M67.9891 154.9C70.4406 153.887 72.5924 152.389 74.3368 150.53L77.7874 151.936L80.6616 147.496L77.9642 144.923C78.9401 142.565 79.432 139.992 79.3551 137.342L82.7903 135.89L81.6837 130.721L77.9488 130.805C76.9344 128.355 75.4358 126.205 73.576 124.461L74.9824 121.012L70.5405 118.14L67.966 120.836C65.6067 119.86 63.0322 119.369 60.3809 119.445L58.9285 116.012L53.7565 117.118L53.841 120.851C51.3895 121.865 49.2377 123.363 47.4932 125.221L44.0427 123.816L41.1685 128.255L43.8659 130.829C42.8899 133.187 42.3981 135.76 42.4749 138.41L39.0397 139.861L40.1464 145.03L43.8813 144.946C44.8957 147.396 46.3943 149.547 48.254 151.29L46.8477 154.739L51.2896 157.612L53.8641 154.916C56.2233 155.891 58.7978 156.383 61.4491 156.306L62.9016 159.739L68.0736 158.633L67.9891 154.9ZM54.8324 139.178C54.11 135.821 56.2618 132.511 59.6124 131.789C62.9708 131.067 66.283 133.217 67.0054 136.566C67.7278 139.923 65.576 143.233 62.2253 143.955C58.867 144.677 55.5548 142.534 54.8324 139.178Z" fill="#D1E5EC"/>
<path d="M405.091 89.3671C394.209 102.709 395.438 114.176 403.285 120.567C411.131 126.957 422.62 125.851 433.502 112.502C444.384 99.1526 450.54 78.6293 442.701 72.2388C434.847 65.8559 415.973 76.0178 405.091 89.3671Z" fill="#859B61"/>
<path d="M357.974 151.083C357.989 151.137 358.005 151.183 358.028 151.237C358.212 151.628 358.673 151.79 359.065 151.613C393.041 135.737 412.353 117.848 422.574 105.643C433.694 92.3627 436.707 82.969 436.83 82.5773C436.953 82.1702 436.73 81.7324 436.315 81.6018C435.907 81.4712 435.469 81.7016 435.339 82.1087C435.223 82.4851 422.789 120.106 358.404 150.207C358.066 150.361 357.89 150.737 357.974 151.083Z" fill="#859B61"/>
<path d="M429.091 80.5879L431.565 90.6652C431.665 91.08 432.088 91.3335 432.511 91.2336C432.926 91.1337 433.179 90.7113 433.079 90.2965V90.2889L430.605 80.2192C430.505 79.8044 430.082 79.5433 429.667 79.6508C429.245 79.7584 428.991 80.1731 429.091 80.5879Z" fill="#859B61"/>
<path d="M431.589 90.9493C431.589 90.957 431.589 90.9647 431.596 90.9724C431.712 91.3871 432.134 91.6329 432.549 91.5254L442.57 88.8371C442.985 88.7219 443.216 88.3071 443.124 87.8847C443.008 87.4699 442.586 87.2241 442.171 87.3316L432.15 90.0199C431.735 90.1275 431.489 90.5422 431.589 90.9493Z" fill="#859B61"/>
<path d="M426.609 98.6456C426.609 98.6533 426.609 98.661 426.616 98.6687C426.732 99.0834 427.154 99.3292 427.569 99.2217L437.59 96.5334C438.005 96.4258 438.205 95.9804 438.144 95.5809C438.028 95.1662 437.606 94.9204 437.191 95.0279L427.17 97.7162C426.755 97.8314 426.509 98.2385 426.609 98.6456Z" fill="#859B61"/>
<path d="M419.346 107.955C419.346 107.963 419.354 107.97 419.354 107.978C419.469 108.393 419.892 108.638 420.307 108.531L430.328 105.843C430.743 105.727 430.951 105.313 430.882 104.89C430.774 104.475 430.344 104.23 429.929 104.337L419.907 107.025C419.492 107.133 419.246 107.548 419.346 107.955Z" fill="#859B61"/>
<path d="M412.038 115.935C412.038 115.943 412.046 115.951 412.046 115.958C412.161 116.373 412.584 116.619 412.999 116.511L423.02 113.823C423.435 113.716 423.665 113.285 423.573 112.871C423.458 112.456 423.035 112.21 422.62 112.318L412.599 115.006C412.184 115.113 411.938 115.528 412.038 115.935Z" fill="#859B61"/>
<path d="M423.442 88.8449L425.917 98.9222C426.017 99.3369 426.439 99.5904 426.854 99.4906C427.269 99.3907 427.577 98.9452 427.423 98.5458L424.949 88.4762C424.849 88.0614 424.426 87.8002 424.011 87.9078C423.604 88.0153 423.35 88.4301 423.442 88.8449Z" fill="#859B61"/>
<path d="M416.157 97.4858L418.632 107.563C418.732 107.978 419.154 108.239 419.569 108.132C419.984 108.032 420.238 107.609 420.138 107.194V107.187L417.663 97.1172C417.563 96.7024 417.141 96.4412 416.726 96.5488C416.311 96.6563 416.057 97.0711 416.157 97.4858Z" fill="#859B61"/>
<path d="M408.503 105.689L410.977 115.766C411.077 116.181 411.5 116.442 411.915 116.335C412.338 116.235 412.63 115.828 412.484 115.398L410.009 105.328C409.909 104.913 409.486 104.652 409.072 104.76C408.657 104.852 408.403 105.267 408.503 105.689Z" fill="#859B61"/>
<path d="M345.839 78.4526C342.766 95.3889 349.39 104.836 359.342 106.641C369.302 108.446 378.823 101.933 381.897 84.989C384.971 68.0527 380.437 47.0992 370.478 45.2942C360.525 43.4969 348.921 61.5162 345.839 78.4526Z" fill="#9CB777"/>
<path d="M334.435 155.246C334.473 155.284 334.512 155.323 334.558 155.354C334.904 155.607 335.388 155.53 335.642 155.185C357.713 124.876 365.974 99.8822 369.017 84.2593C372.33 67.2615 370.424 57.5836 370.339 57.1842C370.255 56.7617 369.84 56.4929 369.417 56.5774C368.994 56.6619 368.725 57.0767 368.81 57.4914C368.887 57.8755 376.195 96.8176 334.374 154.271C334.158 154.57 334.189 154.977 334.435 155.246Z" fill="#859B61"/>
<path d="M362.616 59.1813L369.655 66.8084C369.947 67.1233 370.439 67.1464 370.754 66.8545C371.069 66.5626 371.092 66.0787 370.8 65.7638L370.793 65.7561L363.761 58.1367C363.469 57.8218 362.977 57.7987 362.662 58.0906C362.347 58.3748 362.331 58.8664 362.616 59.1813Z" fill="#859B61"/>
<path d="M369.809 67.0464C369.817 67.0541 369.817 67.0541 369.824 67.0618C370.124 67.369 370.616 67.3844 370.923 67.0848L378.401 59.8955C378.708 59.596 378.708 59.1198 378.424 58.7972C378.124 58.4899 377.632 58.4746 377.325 58.7741L369.847 65.9634C369.54 66.2553 369.525 66.7315 369.809 67.0464Z" fill="#859B61"/>
<path d="M369.171 76.1868C369.179 76.1945 369.179 76.2022 369.186 76.2022C369.486 76.5094 369.978 76.5248 370.285 76.2252L377.763 69.0359C378.07 68.7363 378.032 68.2601 377.786 67.9375C377.486 67.6303 376.994 67.6149 376.687 67.9145L369.21 75.1038C368.902 75.3957 368.887 75.8796 369.171 76.1868Z" fill="#859B61"/>
<path d="M367.311 87.8387C367.319 87.8464 367.319 87.854 367.327 87.854C367.626 88.1613 368.118 88.169 368.426 87.8771L375.903 80.6878C376.21 80.3882 376.195 79.9197 375.926 79.5894C375.626 79.2822 375.135 79.2668 374.827 79.5663L367.35 86.7557C367.042 87.0475 367.027 87.5314 367.311 87.8387Z" fill="#859B61"/>
<path d="M364.768 98.3615C364.775 98.3692 364.775 98.3769 364.783 98.3769C365.083 98.6841 365.575 98.6995 365.882 98.3999L373.359 91.2106C373.667 90.911 373.667 90.4348 373.382 90.1122C373.083 89.805 372.591 89.7896 372.284 90.0892L364.806 97.2785C364.499 97.5704 364.491 98.0466 364.768 98.3615Z" fill="#859B61"/>
<path d="M361.663 69.1357L368.702 76.7628C368.994 77.0777 369.486 77.1007 369.801 76.8088C370.116 76.517 370.17 75.987 369.847 75.7105L362.816 68.0911C362.524 67.7761 362.032 67.7531 361.717 68.045C361.394 68.3292 361.378 68.8207 361.663 69.1357Z" fill="#859B61"/>
<path d="M359.465 80.2191L366.504 87.8463C366.796 88.1612 367.288 88.1842 367.603 87.8923C367.918 87.6005 367.941 87.1166 367.649 86.8017L367.642 86.794L360.61 79.1745C360.318 78.8596 359.826 78.8366 359.511 79.1285C359.196 79.4126 359.173 79.9042 359.465 80.2191Z" fill="#859B61"/>
<path d="M356.721 91.0954L363.761 98.7225C364.053 99.0374 364.545 99.0604 364.86 98.7686C365.175 98.4767 365.236 97.9774 364.906 97.6702L357.874 90.0508C357.582 89.7358 357.09 89.7128 356.775 90.0047C356.452 90.2889 356.429 90.7804 356.721 91.0954Z" fill="#859B61"/>
<path d="M426.739 164.156C409.594 162.512 402.293 153.579 403.262 143.51C404.23 133.44 413.091 126.051 430.236 127.695C447.381 129.338 466.325 139.393 465.356 149.455C464.396 159.524 443.892 165.8 426.739 164.156Z" fill="#859B61"/>
<path d="M349.705 154.263C349.674 154.217 349.651 154.171 349.636 154.117C349.49 153.718 349.69 153.264 350.097 153.118C385.279 140.13 411.584 138.97 427.454 140.284C444.722 141.712 453.521 146.175 453.89 146.367C454.267 146.567 454.421 147.035 454.221 147.412C454.021 147.796 453.552 147.942 453.176 147.75C452.822 147.565 417.317 129.961 350.635 154.578C350.281 154.708 349.897 154.57 349.705 154.263Z" fill="#859B61"/>
<path d="M449.863 153.257L444.43 144.416C444.207 144.047 444.322 143.571 444.684 143.348C445.045 143.126 445.521 143.241 445.752 143.602V143.61L451.177 152.45C451.4 152.819 451.285 153.295 450.924 153.518C450.563 153.725 450.086 153.618 449.863 153.257Z" fill="#859B61"/>
<path d="M444.238 144.201C444.23 144.193 444.23 144.186 444.223 144.178C444.007 143.809 444.13 143.333 444.499 143.11L453.452 137.872C453.821 137.657 454.282 137.787 454.52 138.148C454.736 138.517 454.613 138.993 454.244 139.208L445.291 144.447C444.93 144.669 444.461 144.554 444.238 144.201Z" fill="#859B61"/>
<path d="M435.262 142.327C435.254 142.319 435.254 142.311 435.247 142.304C435.031 141.935 435.154 141.459 435.523 141.236L444.476 135.998C444.845 135.783 445.298 135.952 445.544 136.274C445.76 136.643 445.637 137.119 445.268 137.342L436.315 142.58C435.954 142.795 435.485 142.68 435.262 142.327Z" fill="#859B61"/>
<path d="M423.535 140.952C423.535 140.944 423.527 140.937 423.519 140.929C423.304 140.56 423.427 140.084 423.796 139.861L432.749 134.623C433.118 134.408 433.563 134.554 433.817 134.899C434.032 135.268 433.909 135.744 433.54 135.967L424.587 141.205C424.226 141.42 423.757 141.305 423.535 140.952Z" fill="#859B61"/>
<path d="M412.722 140.537C412.714 140.529 412.714 140.522 412.707 140.514C412.491 140.145 412.614 139.669 412.983 139.446L421.936 134.208C422.305 133.993 422.766 134.124 423.004 134.485C423.22 134.853 423.097 135.329 422.728 135.544L413.775 140.783C413.406 141.013 412.945 140.89 412.722 140.537Z" fill="#859B61"/>
<path d="M440.019 151.467L434.586 142.626C434.363 142.258 434.478 141.782 434.839 141.559C435.208 141.336 435.731 141.428 435.907 141.812L441.333 150.653C441.556 151.022 441.441 151.498 441.079 151.721C440.718 151.943 440.242 151.828 440.019 151.467Z" fill="#859B61"/>
<path d="M428.745 150.576L423.312 141.735C423.089 141.367 423.204 140.89 423.565 140.668C423.926 140.445 424.403 140.56 424.633 140.921V140.929L430.059 149.77C430.282 150.138 430.167 150.614 429.805 150.837C429.444 151.045 428.968 150.937 428.745 150.576Z" fill="#859B61"/>
<path d="M417.525 150.253L412.092 141.413C411.869 141.044 411.984 140.568 412.345 140.345C412.714 140.122 413.214 140.192 413.413 140.599L418.839 149.439C419.062 149.808 418.947 150.284 418.585 150.507C418.232 150.73 417.755 150.614 417.525 150.253Z" fill="#859B61"/>
<path d="M437.721 104.66C420.537 105.896 413.037 114.66 413.759 124.745C414.489 134.838 423.173 142.427 440.349 141.19C457.533 139.953 476.699 130.352 475.977 120.26C475.255 110.175 454.905 103.423 437.721 104.66Z" fill="#9CB777"/>
<path d="M464.757 120.774C464.173 120.521 450.14 114.66 428.561 118.332C398.973 123.37 374.873 143.179 357.759 162.489C358.059 163.157 358.097 163.956 357.767 164.824C412.922 101.326 463.612 121.98 464.142 122.211C464.534 122.38 464.995 122.195 465.164 121.803C465.341 121.396 465.156 120.943 464.757 120.774Z" fill="#859B61"/>
<path d="M456.004 119.499C456.25 119.768 456.657 119.837 456.98 119.645L462.828 116.104C463.197 115.882 463.312 115.405 463.089 115.037C462.866 114.668 462.39 114.553 462.021 114.775L456.173 118.316C455.804 118.539 455.689 119.015 455.911 119.384C455.942 119.422 455.973 119.461 456.004 119.499Z" fill="#859B61"/>
<path d="M456.096 120.306C456.119 120.329 456.142 120.352 456.165 120.375L460.43 124.077C460.753 124.361 461.245 124.323 461.529 124C461.813 123.678 461.775 123.194 461.452 122.902L457.187 119.207C456.864 118.923 456.373 118.962 456.088 119.284C455.827 119.576 455.835 120.014 456.096 120.306Z" fill="#859B61"/>
<path d="M446.39 118.954C446.405 118.977 446.428 118.992 446.451 119.015L454.221 125.89C454.543 126.174 455.035 126.143 455.32 125.821C455.604 125.498 455.566 125.006 455.25 124.722L447.481 117.848C447.158 117.564 446.666 117.594 446.382 117.909C446.113 118.217 446.121 118.662 446.39 118.954Z" fill="#859B61"/>
<path d="M437.229 118.977C437.245 119 437.268 119.015 437.291 119.038L445.06 125.913C445.383 126.197 445.875 126.166 446.159 125.844C446.444 125.521 446.405 125.037 446.09 124.745L438.321 117.871C437.998 117.587 437.506 117.617 437.222 117.94C436.953 118.24 436.968 118.693 437.229 118.977Z" fill="#859B61"/>
<path d="M424.618 120.559C424.634 120.582 424.657 120.598 424.68 120.621L432.449 127.495C432.772 127.779 433.264 127.748 433.548 127.434C433.832 127.111 433.794 126.619 433.479 126.335L425.709 119.461C425.387 119.177 424.895 119.207 424.61 119.53C424.349 119.822 424.357 120.267 424.618 120.559Z" fill="#859B61"/>
<path d="M446.636 118.27C446.882 118.539 447.289 118.608 447.612 118.416L456.518 113.101C456.887 112.878 457.01 112.402 456.787 112.033C456.572 111.665 456.088 111.542 455.719 111.765L446.812 117.08C446.444 117.303 446.321 117.779 446.543 118.147C446.567 118.194 446.597 118.24 446.636 118.27Z" fill="#859B61"/>
<path d="M436.476 118.647C436.753 118.954 437.222 118.992 437.544 118.731L445.591 112.187C445.921 111.918 445.975 111.427 445.706 111.096C445.445 110.751 444.945 110.712 444.615 110.981L436.561 117.518C436.23 117.786 436.176 118.278 436.453 118.616C436.453 118.624 436.469 118.631 436.476 118.647Z" fill="#859B61"/>
<path d="M424.149 119.96C424.426 120.267 424.895 120.306 425.218 120.045L433.264 113.493C433.594 113.224 433.648 112.732 433.379 112.402C433.11 112.072 432.618 112.018 432.28 112.287L424.234 118.831C423.904 119.1 423.85 119.591 424.119 119.922C424.134 119.937 424.142 119.952 424.149 119.96Z" fill="#859B61"/>
<path d="M403.784 31.3611C399.381 48.0056 405.237 57.9446 415.02 60.5331C424.803 63.1215 434.808 57.3762 439.22 40.7318C443.623 24.0873 440.764 2.84961 430.981 0.261155C421.183 -2.3273 408.188 14.7166 403.784 31.3611Z" fill="#9CB777"/>
<path d="M340.591 164.356C340.875 164.671 341.367 164.701 341.69 164.409C388.553 122.533 410.24 82.2699 420.176 55.8707C430.966 27.2133 430.643 8.1801 430.635 7.98808C430.628 7.55795 430.267 7.21999 429.836 7.22767C429.406 7.23535 429.068 7.59635 429.075 8.02648C429.091 8.77153 429.782 83.5987 340.644 163.25C340.329 163.541 340.306 164.033 340.591 164.356Z" fill="#859B61"/>
<path d="M428.361 21.6141C428.66 21.9367 429.152 21.952 429.467 21.6602L437.068 14.6014C437.383 14.3095 437.398 13.8257 437.114 13.5107L437.106 13.5031C436.814 13.1881 436.322 13.1728 436.007 13.4647L428.407 20.5234C428.099 20.8076 428.076 21.2992 428.361 21.6141Z" fill="#859B61"/>
<path d="M428.061 21.1993C428.315 21.4834 428.753 21.5449 429.075 21.3221C429.429 21.084 429.521 20.6001 429.283 20.2391L423.465 11.6519C423.227 11.2909 422.743 11.2064 422.382 11.4445C422.028 11.6826 421.936 12.1665 422.174 12.5275L427.992 21.1148C428.015 21.1455 428.038 21.1762 428.061 21.1993Z" fill="#859B61"/>
<path d="M426.186 31.2919C426.44 31.5761 426.878 31.6299 427.2 31.4148C427.554 31.1767 427.646 30.6928 427.408 30.3318L421.59 21.7446C421.344 21.3836 420.868 21.2991 420.507 21.5372C420.153 21.7753 420.061 22.2592 420.299 22.6202L426.117 31.2074C426.14 31.2381 426.163 31.2689 426.186 31.2919Z" fill="#859B61"/>
<path d="M423.028 43.0667C423.281 43.3509 423.719 43.4046 424.042 43.1896C424.395 42.9515 424.488 42.4676 424.249 42.1066L418.432 33.5193C418.186 33.1583 417.709 33.0738 417.348 33.312C416.995 33.5501 416.903 34.034 417.141 34.395L422.958 42.9822C422.981 43.0129 423.004 43.0436 423.028 43.0667Z" fill="#859B61"/>
<path d="M419.17 54.2578C419.423 54.542 419.861 54.5957 420.184 54.3807C420.537 54.1425 420.63 53.6586 420.391 53.2976L414.574 44.7104C414.328 44.3571 413.852 44.2649 413.49 44.503C413.137 44.7411 413.045 45.225 413.283 45.586L419.1 54.1733C419.123 54.1963 419.147 54.227 419.17 54.2578Z" fill="#859B61"/>
<path d="M426.34 31.8372C426.639 32.1598 427.131 32.1752 427.446 31.8833L435.047 24.8246C435.362 24.5327 435.377 24.0488 435.093 23.7339C435.093 23.7339 435.093 23.7262 435.085 23.7262C434.793 23.4113 434.301 23.3959 433.986 23.6878L426.386 30.7465C426.078 31.0307 426.055 31.5146 426.34 31.8372Z" fill="#859B61"/>
<path d="M423.558 43.5352C423.857 43.8578 424.349 43.8732 424.664 43.5813L432.265 36.5226C432.58 36.2307 432.595 35.7468 432.311 35.4319L432.303 35.4242C432.011 35.1093 431.519 35.0939 431.204 35.3858L423.604 42.4445C423.289 42.7287 423.273 43.2203 423.558 43.5352Z" fill="#859B61"/>
<path d="M419.546 55.0335C419.546 55.0335 419.546 55.0412 419.546 55.0335C419.846 55.3561 420.338 55.3715 420.653 55.0796L428.253 48.0209C428.568 47.729 428.584 47.2451 428.299 46.9302L428.292 46.9225C428 46.6076 427.508 46.5922 427.193 46.8841L419.592 53.9428C419.277 54.2347 419.262 54.7186 419.546 55.0335Z" fill="#859B61"/>
<path d="M251.929 294.27H221.75V348.29H251.929V294.27Z" fill="#7CA2DB"/>
<path d="M251.929 297.927H221.75V310.239H251.929V297.927Z" fill="#395777"/>
<path d="M380.637 117.018H93.0344V299.101H380.637V117.018Z" fill="#7CA2DB"/>
<path d="M369.886 125.836H103.793V290.284H369.886V125.836Z" fill="#2A4053"/>
<path d="M295.426 340.847H178.253V350.825H295.426V340.847Z" fill="#395777"/>
<path d="M322.439 44.3341H156.758V268.985H322.439V44.3341Z" fill="#9BB0CE"/>
<path d="M318.289 37.4827H153.746V260.589H318.289V37.4827Z" fill="#CCE4F5"/>
<path d="M315.776 41.3231H151.233V264.43H315.776V41.3231Z" fill="white"/>
<path d="M227.46 148.395C228.129 151.528 230.58 153.863 233.508 153.863C236.436 153.863 238.888 151.536 239.556 148.395H227.46Z" fill="white"/>
<path d="M194.668 78.56L191.387 73.8516C191.248 73.867 191.041 73.8747 190.764 73.8747H187.137V78.56H184.155V62.4916H190.772C192.163 62.4916 193.377 62.722 194.415 63.1829C195.452 63.6437 196.244 64.2966 196.789 65.1568C197.343 66.0171 197.619 67.031 197.619 68.2062C197.619 69.4121 197.327 70.4567 196.735 71.3246C196.144 72.2002 195.298 72.8454 194.199 73.2755L197.896 78.5523H194.668V78.56ZM193.585 65.8404C192.908 65.2874 191.925 65.0109 190.626 65.0109H187.137V71.4168H190.626C191.925 71.4168 192.916 71.1403 193.585 70.5796C194.261 70.0188 194.599 69.2277 194.599 68.2062C194.599 67.1846 194.261 66.3935 193.585 65.8404Z" fill="#FFBF94"/>
<path d="M212.989 76.056V78.56H200.932V62.4916H212.666V64.9955H203.921V69.1739H211.683V71.6318H203.921V76.0637H212.989V76.056Z" fill="#FFBF94"/>
<path d="M217.708 78.2605C216.555 77.9072 215.641 77.4387 214.964 76.8626L215.994 74.543C216.655 75.0653 217.462 75.4877 218.415 75.818C219.375 76.1483 220.328 76.3096 221.297 76.3096C222.488 76.3096 223.379 76.1175 223.971 75.7335C224.563 75.3494 224.855 74.8502 224.855 74.2204C224.855 73.7595 224.693 73.3831 224.363 73.0836C224.033 72.784 223.618 72.5536 223.11 72.3846C222.603 72.2156 221.919 72.0236 221.043 71.8086C219.821 71.5167 218.83 71.2248 218.069 70.9329C217.308 70.6411 216.663 70.1879 216.117 69.5657C215.571 68.9436 215.302 68.1064 215.302 67.0541C215.302 66.1708 215.541 65.3566 216.025 64.6346C216.509 63.9049 217.231 63.3289 218.207 62.8987C219.176 62.4686 220.367 62.2535 221.781 62.2535C222.764 62.2535 223.725 62.3764 224.678 62.6222C225.631 62.868 226.446 63.2213 227.137 63.6822L226.192 66.0018C225.485 65.587 224.755 65.2721 223.986 65.0571C223.218 64.842 222.48 64.7345 221.758 64.7345C220.582 64.7345 219.706 64.9342 219.129 65.3336C218.553 65.733 218.269 66.263 218.269 66.9158C218.269 67.3767 218.43 67.7531 218.761 68.0372C219.091 68.3291 219.506 68.5595 220.013 68.7285C220.52 68.8975 221.204 69.0895 222.081 69.3046C223.272 69.5811 224.255 69.8653 225.016 70.1649C225.785 70.4644 226.438 70.9176 226.984 71.532C227.529 72.1465 227.798 72.9684 227.798 74.013C227.798 74.904 227.56 75.7028 227.076 76.4248C226.592 77.1468 225.862 77.7152 224.886 78.1453C223.91 78.5754 222.711 78.7905 221.304 78.7905C220.067 78.7905 218.868 78.6138 217.708 78.2605Z" fill="#FFBF94"/>
<path d="M232.486 76.9163C231.249 75.672 230.626 73.8823 230.626 71.555V62.4916H233.608V71.4398C233.608 74.589 234.968 76.1712 237.696 76.1712C240.409 76.1712 241.762 74.5967 241.762 71.4398V62.4916H244.705V71.555C244.705 73.8823 244.09 75.6643 242.853 76.9163C241.623 78.1606 239.894 78.7904 237.673 78.7904C235.46 78.7904 233.731 78.1606 232.486 76.9163Z" fill="#FFBF94"/>
<path d="M263.649 78.56L263.626 67.9143L258.346 76.7243H257.016L251.737 68.0525V78.5677H248.886V62.4916H251.345L257.731 73.1373L264.002 62.4916H266.461L266.484 78.56H263.649Z" fill="#FFBF94"/>
<path d="M282.869 76.056V78.56H270.811V62.4916H282.546V64.9955H273.8V69.1739H281.562V71.6318H273.8V76.0637H282.869V76.056Z" fill="#FFBF94"/>
<path d="M186.507 164.217C186.507 166.076 185.001 167.582 183.141 167.582C181.281 167.582 179.775 166.076 179.775 164.217C179.775 162.359 181.281 160.853 183.141 160.853C185.001 160.853 186.507 162.359 186.507 164.217Z" fill="#FFBF94"/>
<path d="M287.249 162.85H190.933V165.592H287.249V162.85Z" fill="#CCE4F5"/>
<path d="M186.507 152.658C186.507 154.516 185.001 156.022 183.141 156.022C181.281 156.022 179.775 154.516 179.775 152.658C179.775 150.799 181.281 149.293 183.141 149.293C185.001 149.293 186.507 150.799 186.507 152.658Z" fill="#FFBF94"/>
<path d="M287.249 151.291H190.933V154.033H287.249V151.291Z" fill="#CCE4F5"/>
<path d="M183.141 179.141C185 179.141 186.507 177.635 186.507 175.777C186.507 173.919 185 172.413 183.141 172.413C181.282 172.413 179.775 173.919 179.775 175.777C179.775 177.635 181.282 179.141 183.141 179.141Z" fill="#FFBF94"/>
<path d="M287.249 174.41H190.933V177.152H287.249V174.41Z" fill="#CCE4F5"/>
<path d="M216.47 136.044V131.105C216.47 126.842 212.359 122.733 208.094 122.733H188.005C183.74 122.733 179.629 126.842 179.629 131.105V136.044H216.47Z" fill="#1FACC5"/>
<path d="M205.988 122.725L197.896 122.787L197.865 122.71L190.541 122.756L198.065 136.006V135.983L205.988 122.725Z" fill="#8EC2FE"/>
<path d="M191.256 108.132C191.648 109.407 191.379 110.682 190.657 110.989C189.927 111.288 189.02 110.505 188.628 109.23C188.236 107.955 188.505 106.68 189.227 106.373C189.957 106.073 190.864 106.857 191.256 108.132Z" fill="#DF966C"/>
<path d="M204.843 108.132C204.451 109.407 204.72 110.682 205.443 110.989C206.165 111.296 207.08 110.505 207.471 109.23C207.863 107.955 207.594 106.68 206.872 106.373C206.142 106.073 205.235 106.857 204.843 108.132Z" fill="#DF966C"/>
<path d="M203.345 115.044H192.762L192.309 124.415C192.309 124.415 197.896 130.375 203.798 124.415L203.345 115.044Z" fill="#DF966C"/>
<path d="M203.068 110.059L204.021 103.316L198.119 102.893V102.885L198.042 102.893L197.965 102.885V102.893L191.456 103.362L193.039 110.059L192.655 116.911L195.806 120.375C195.806 120.375 196.482 121.105 197.957 121.128V121.135C197.988 121.135 198.004 121.135 198.034 121.135C198.057 121.135 198.08 121.135 198.111 121.135V121.128C199.587 121.112 200.263 120.375 200.263 120.375L203.398 116.911L203.068 110.059Z" fill="#CA896C"/>
<path d="M200.586 99.8976L199.172 99.7286L198.05 101.603L197.973 101.595V101.603L189.696 102.194L190.757 112.471C190.757 112.471 190.803 113.493 191.402 114.199L195.821 119.084C195.821 119.084 196.497 119.814 197.973 119.837V119.845C198.004 119.845 198.019 119.845 198.05 119.845C198.073 119.845 198.096 119.845 198.126 119.845V119.837C199.602 119.822 200.278 119.084 200.278 119.084L204.697 114.199C205.289 113.493 205.343 112.471 205.343 112.471L206.403 102.194L200.586 99.8976Z" fill="#DF966C"/>
<path d="M206.495 105.75C206.096 104.66 205.85 103.492 205.796 102.286C205.75 101.203 205.904 100.143 206.219 99.1526C206.18 97.6778 204.974 96.495 203.491 96.495C202.907 96.495 202.376 96.6793 201.931 96.9866C201.492 96.0572 200.555 95.412 199.456 95.412C198.541 95.412 197.735 95.8652 197.235 96.5564C196.743 96.0725 196.067 95.773 195.321 95.773C194 95.773 192.901 96.7024 192.639 97.9467C192.363 97.8545 192.063 97.7854 191.756 97.7854C191.079 97.7854 190.465 98.0388 189.98 98.4536C190.149 99.1603 190.257 99.8823 190.288 100.627C190.365 102.263 189.965 103.815 189.25 105.22C189.927 105.489 190.572 105.827 191.164 106.227C191.156 106.219 191.148 106.204 191.148 106.196C191.817 105.927 192.324 105.351 192.501 104.644C192.847 104.813 193.231 104.913 193.638 104.913C194.384 104.913 195.052 104.598 195.529 104.091C196.005 104.621 196.689 104.959 197.466 104.959C198.05 104.959 198.58 104.76 199.01 104.445C199.418 104.706 199.894 104.859 200.409 104.859C200.916 104.859 201.377 104.706 201.777 104.46C202.253 104.959 202.922 105.274 203.66 105.274C203.767 105.274 203.875 105.259 203.975 105.244C204.075 105.82 204.443 106.296 204.951 106.557C204.935 106.58 204.92 106.603 204.905 106.626C205.419 106.288 205.95 105.996 206.495 105.75Z" fill="#CA896C"/>
<path d="M208.67 102.878C208.67 102.071 208.24 101.365 207.594 100.965C207.879 100.589 208.048 100.128 208.048 99.6211C208.048 98.5074 207.241 97.5934 206.18 97.4167C206.142 95.9343 204.935 94.7438 203.452 94.7438C202.868 94.7438 202.338 94.9281 201.892 95.2353C201.454 94.306 200.516 93.6608 199.418 93.6608C198.503 93.6608 197.696 94.1139 197.197 94.8052C196.705 94.3213 196.028 94.0218 195.283 94.0218C193.961 94.0218 192.862 94.9512 192.601 96.1955C192.324 96.1033 192.025 96.0342 191.717 96.0342C190.203 96.0342 188.981 97.2631 188.981 98.7686C188.981 99.3062 189.143 99.8055 189.412 100.228C188.582 100.566 187.998 101.38 187.998 102.332C187.998 103.016 188.305 103.623 188.789 104.045C188.374 104.345 188.098 104.829 188.098 105.382C188.098 106.296 188.835 107.033 189.75 107.033C190.664 107.033 191.402 106.296 191.402 105.382C191.402 105.036 191.295 104.706 191.11 104.445C191.779 104.176 192.286 103.6 192.463 102.893C192.808 103.062 193.193 103.162 193.6 103.162C194.345 103.162 195.014 102.847 195.491 102.34C195.967 102.87 196.651 103.208 197.427 103.208C198.011 103.208 198.541 103.008 198.972 102.693C199.379 102.955 199.856 103.108 200.37 103.108C200.878 103.108 201.339 102.955 201.738 102.709C202.215 103.208 202.883 103.523 203.621 103.523C203.729 103.523 203.836 103.508 203.936 103.492C204.036 104.068 204.405 104.545 204.912 104.806C204.705 105.082 204.574 105.42 204.574 105.797C204.574 106.711 205.312 107.448 206.226 107.448C207.141 107.448 207.879 106.711 207.879 105.797C207.879 105.42 207.748 105.082 207.541 104.806C208.217 104.414 208.67 103.707 208.67 102.878Z" fill="#614638"/>
<path d="M224.479 141.267H171.622V88.4377H224.479V141.267ZM173.52 139.37H222.581V90.3349H173.52V139.37Z" fill="#CCE4F5"/>
<path d="M295.395 113.393H235.253V116.304H295.395V113.393Z" fill="#CCE4F5"/>
<path d="M263.195 104.568H235.253V107.486H263.195V104.568Z" fill="#CCE4F5"/>
<path d="M295.395 122.226H235.253V125.145H295.395V122.226Z" fill="#CCE4F5"/>
<path d="M295.457 188.75H171.552V191.492H295.457V188.75Z" fill="#CCE4F5"/>
<path d="M295.457 198.451H171.552V201.193H295.457V198.451Z" fill="#CCE4F5"/>
<path d="M295.457 208.152H171.552V210.894H295.457V208.152Z" fill="#CCE4F5"/>
<path d="M295.457 217.853H171.552V220.595H295.457V217.853Z" fill="#CCE4F5"/>
<path d="M295.457 227.554H171.552V230.296H295.457V227.554Z" fill="#CCE4F5"/>
<path d="M295.457 237.255H171.552V239.997H295.457V237.255Z" fill="#CCE4F5"/>
<path d="M297.801 22.9658C294.143 22.9658 291.169 25.9383 291.169 29.5944V52.6985C291.169 56.3546 292.698 59.2811 296.356 59.2811C300.014 59.2811 301.42 56.347 301.42 52.6985V37.9666C301.42 35.9619 299.906 34.3335 298.047 34.3335C296.187 34.3335 294.673 35.9619 294.673 37.9666V47.2451H296.533V37.9666C296.533 37.0679 297.209 36.3382 298.047 36.3382C298.877 36.3382 299.553 37.0679 299.553 37.9666L299.545 52.6985C299.545 55.3254 298.976 57.4146 296.348 57.4146C293.72 57.4146 293.028 55.3177 293.028 52.6985V29.5867C293.028 26.9599 295.165 24.8246 297.793 24.8246C300.421 24.8246 302.558 26.9599 302.558 29.5867V37.4827H304.425V29.5867C304.433 25.9383 301.459 22.9658 297.801 22.9658Z" fill="#BC5050"/>
<path d="M111.993 253.807H109.373C101.957 254.13 81.5684 256.849 85.4263 277.142C89.9374 300.884 86.0487 327.49 86.0487 327.49C86.0487 327.49 96.6848 329.618 108.097 329.963H113.269C124.681 329.61 135.317 327.49 135.317 327.49C135.317 327.49 131.436 300.884 135.94 277.142C139.798 256.841 119.409 254.13 111.993 253.807Z" fill="#1FACC5"/>
<path d="M121.684 258.416C121.684 261.242 116.758 263.539 110.687 263.539C104.616 263.539 99.6896 261.25 99.6896 258.416C99.6896 255.589 104.616 253.293 110.687 253.293C116.758 253.293 121.684 255.582 121.684 258.416Z" fill="#DF966C"/>
<path d="M101.288 236.633C101.811 238.33 101.457 240.028 100.489 240.427C99.5205 240.827 98.314 239.782 97.7914 238.084C97.2688 236.395 97.6223 234.69 98.5906 234.29C99.5512 233.898 100.758 234.943 101.288 236.633Z" fill="#DF966C"/>
<path d="M119.332 236.633C118.81 238.33 119.163 240.028 120.132 240.427C121.1 240.827 122.306 239.782 122.829 238.084C123.352 236.395 122.998 234.69 122.03 234.29C121.062 233.898 119.855 234.943 119.332 236.633Z" fill="#DF966C"/>
<path d="M117.342 245.812H103.279L102.679 258.262C102.679 258.262 110.095 266.181 117.949 258.262L117.342 245.812Z" fill="#DF966C"/>
<path d="M116.981 239.191L118.249 230.235L110.41 229.674V229.659L110.31 229.666L110.21 229.659V229.674L101.565 230.296L103.67 239.198L103.156 248.3L107.344 252.901C107.344 252.901 108.243 253.876 110.21 253.899V253.907C110.249 253.907 110.272 253.899 110.31 253.899C110.349 253.899 110.372 253.907 110.41 253.907V253.899C112.37 253.876 113.269 252.901 113.269 252.901L117.434 248.3L116.981 239.191Z" fill="#CA896C"/>
<path d="M113.684 225.688L111.801 225.465L110.31 227.953L110.21 227.946V227.961L99.2131 228.752L100.619 242.401C100.619 242.401 100.681 243.753 101.473 244.698L107.344 251.188C107.344 251.188 108.243 252.164 110.21 252.187V252.194C110.249 252.194 110.272 252.187 110.31 252.194C110.349 252.194 110.372 252.202 110.41 252.194V252.187C112.37 252.164 113.269 251.188 113.269 251.188L119.148 244.698C119.94 243.753 120.001 242.401 120.001 242.401L121.407 228.752L113.684 225.688Z" fill="#DF966C"/>
<path d="M124.412 229.651C124.412 228.576 123.836 227.639 122.983 227.116C123.359 226.617 123.59 226.002 123.59 225.327C123.59 223.852 122.514 222.631 121.108 222.392C121.062 220.426 119.455 218.844 117.48 218.844C116.712 218.844 115.997 219.09 115.405 219.497C114.821 218.26 113.576 217.4 112.124 217.4C110.91 217.4 109.834 218.007 109.173 218.921C108.52 218.276 107.62 217.884 106.629 217.884C104.877 217.884 103.417 219.12 103.071 220.772C102.702 220.641 102.31 220.557 101.895 220.557C99.8894 220.557 98.2602 222.185 98.2602 224.19C98.2602 224.904 98.4754 225.572 98.8289 226.133C97.7299 226.586 96.9537 227.662 96.9537 228.929C96.9537 229.843 97.3687 230.649 98.0066 231.202C97.4533 231.602 97.0921 232.247 97.0921 232.977C97.0921 234.19 98.0757 235.173 99.29 235.173C100.504 235.173 101.488 234.19 101.488 232.977C101.488 232.516 101.342 232.086 101.096 231.725C101.987 231.371 102.656 230.603 102.894 229.666C103.355 229.889 103.863 230.027 104.4 230.027C105.392 230.027 106.283 229.605 106.913 228.937C107.551 229.643 108.458 230.096 109.48 230.096C110.249 230.096 110.956 229.835 111.532 229.413C112.07 229.758 112.708 229.958 113.392 229.958C114.061 229.958 114.683 229.758 115.213 229.428C115.843 230.089 116.727 230.504 117.719 230.504C117.865 230.504 118.003 230.48 118.141 230.465C118.28 231.233 118.771 231.863 119.44 232.209C119.163 232.577 118.994 233.031 118.994 233.522C118.994 234.736 119.978 235.719 121.192 235.719C122.406 235.719 123.39 234.736 123.39 233.522C123.39 233.031 123.221 232.577 122.944 232.209C123.82 231.694 124.412 230.749 124.412 229.651Z" fill="#614638"/>
<path d="M105.676 243.845C106.345 245.827 108.082 247.417 110.157 247.417C112.231 247.417 113.984 245.835 114.652 243.845H105.676Z" fill="white"/>
<path d="M136.378 338.597L150.364 346.324L143.409 351.293L132.727 346.623L133.235 346.208L136.378 338.597Z" fill="#DF966C"/>
<path d="M140.09 340.655C140.09 340.655 148.443 343.052 153.185 343.282C157.926 343.505 161.223 345.748 160.731 351.462C160.24 357.177 155.444 358.283 150.603 355.633L137.2 348.574C137.2 348.582 152.301 350.994 140.09 340.655Z" fill="#43668E"/>
<path d="M80.7692 337.56L66.7825 345.287L73.7374 350.256L84.4195 345.579L83.92 345.164L80.7692 337.56Z" fill="#DF966C"/>
<path d="M77.065 339.611C77.065 339.611 68.7114 342.007 63.9698 342.237C59.2282 342.46 55.9313 344.703 56.4232 350.418C56.915 356.132 61.7104 357.238 66.552 354.588L79.9546 347.53C79.9469 347.537 64.8459 349.949 77.065 339.611Z" fill="#43668E"/>
<path d="M140.551 337.89L81.0996 308.073C74.8363 305.408 67.7277 307.873 65.307 313.557C62.8785 319.241 66.0217 326.077 72.2849 328.742L134.971 350.971L140.551 337.89Z" fill="#43668E"/>
<path d="M76.4963 337.275L136.247 308.065C142.533 305.461 149.619 308.004 151.986 313.71C154.353 319.417 151.141 326.223 144.854 328.826L81.9373 350.417L76.4963 337.275Z" fill="#43668E"/>
<path d="M84.8191 333.197L108.12 341.439L101.941 343.551L80.0391 335.563L84.8191 333.197Z" fill="#395777"/>
<path d="M108.328 321.729L131.544 333.374L135.778 331.945L108.328 321.729Z" fill="#395777"/>
<path d="M87.3244 263.892L69.1956 298.372C69.1956 298.372 65.7373 303.48 71.3397 304.962L96.0008 314.079L97.4302 301.675L89.4071 291.843L91.9354 285.199L87.3244 263.892Z" fill="#1FACC5"/>
<path d="M133.949 263.447L152.078 297.926C152.078 297.926 155.536 303.034 149.934 304.517L124.942 312.643L123.843 301.222L132.589 292.657L129.338 284.754L133.949 263.447Z" fill="#1FACC5"/>
<path d="M90.2371 297.765L89.63 279.262L84.4734 297.273L90.2371 297.765Z" fill="#0072D8"/>
<path d="M130.944 297.765L131.544 279.262L136.708 297.273L130.944 297.765Z" fill="#0072D8"/>
<path d="M134.456 325.823H86.994C86.6328 325.823 86.3331 325.524 86.3331 325.163L81.7221 297.051C81.7221 296.69 82.0218 296.39 82.383 296.39H139.075C139.436 296.39 139.736 296.69 139.736 297.051L135.125 325.163C135.117 325.524 134.818 325.823 134.456 325.823Z" fill="#2A4053"/>
</g>
<defs>
<clipPath id="clip0">
<rect width="476" height="357" fill="white"/>
</clipPath>
</defs>
</svg>
