<svg width="485" height="327" viewBox="0 0 485 327" fill="none" xmlns="http://www.w3.org/2000/svg">
<path opacity="0.26" d="M16.9621 146.628C24.9756 116.461 38.4139 88.7184 53.5677 62.737C64.8887 43.3204 77.902 24.0815 95.8455 14.0102C111.625 5.15149 129.615 4.27875 147.041 3.55275C167.272 2.71863 187.51 1.8845 207.741 1.04265C230.445 0.108126 253.203 -0.834126 275.86 1.21257C318.841 5.09743 360.647 19.6251 401.372 36.4929C429.439 48.1166 459.414 63.1386 473.733 94.1866C483.462 115.302 484.243 140.434 484.784 164.516C485.271 185.979 485.603 208.353 477.937 227.785C470.333 247.055 455.836 260.95 441.818 274.141C423.658 291.225 404.478 308.873 381.69 313.592C360.477 317.987 338.971 310.588 317.96 304.996C254.393 288.074 192.51 291.465 128.479 301.227C87.9711 307.398 57.532 304.17 31.7295 262.749C9.65949 227.322 5.8266 188.551 16.9621 146.628Z" fill="#CAE5FF"/>
<path opacity="0.3" d="M267.808 19.7487C291.609 21.3783 315.379 23.5331 339.149 25.6957C358.082 27.418 377.254 29.1944 395.205 36.5779C420.954 47.1667 443.17 69.464 456.323 97.9092C470.557 128.687 473.949 164.693 477.079 199.634C479.251 223.885 481.183 249.774 471.77 271.423C463.2 291.133 446.261 304.147 428.442 310.588C410.629 317.029 391.759 317.701 373.151 318.334C291.238 321.099 209.325 323.857 127.42 326.622C101.827 327.487 75.1664 328.097 51.9449 315.237C28.7235 302.378 10.3009 271.647 16.707 242.089C20.4086 225.005 31.5672 210.995 34.0633 193.602C37.1234 172.316 26.6602 152.004 22.2632 131.05C10.3859 74.3529 49.4103 9.33758 99.1451 7.6925C120.11 6.99739 141.299 14.5277 162.272 15.748C197.425 17.8024 232.647 17.339 267.808 19.7487Z" fill="#CAE5FF"/>
<path d="M41.4663 193.2L42.695 188.172L39.3799 186.658C39.5267 184.164 39.1481 181.631 38.2285 179.205L40.9409 176.757L38.2517 172.332L34.8283 173.606C33.1051 171.667 31.0263 170.161 28.7467 169.142L28.9322 165.504L23.9015 164.276L22.3869 167.589C19.8909 167.443 17.3562 167.821 14.9297 168.74L12.4801 166.029L8.05217 168.717L9.32722 172.139C7.38759 173.861 5.88071 175.938 4.86066 178.217L1.22096 178.031L0 183.052L3.31514 184.565C3.16832 187.06 3.54697 189.593 4.46656 192.018L1.75417 194.467L4.44337 198.892L7.8667 197.618C9.58996 199.556 11.6687 201.063 13.9483 202.082L13.7629 205.72L18.7935 206.948L20.3081 203.634C22.8042 203.781 25.3388 203.403 27.7653 202.484L30.2072 205.195L34.6351 202.507L33.3601 199.085C35.2997 197.363 36.8066 195.285 37.8266 193.007L41.4663 193.2ZM18.4303 197.039C12.1169 195.424 8.30718 189.006 9.91452 182.696C11.5296 176.386 17.9512 172.579 24.2647 174.185C30.5781 175.799 34.3878 182.218 32.7805 188.528C31.1732 194.838 24.7438 198.653 18.4303 197.039Z" fill="#D1E5EC"/>
<path d="M428.619 54.1795L429.848 49.1516L426.533 47.6378C426.68 45.1431 426.301 42.6099 425.382 40.1847L428.094 37.7364L425.405 33.3109L421.981 34.5853C420.258 32.6467 418.179 31.1406 415.9 30.1212L416.085 26.4834L411.055 25.2554L409.54 28.5688C407.044 28.422 404.509 28.8005 402.083 29.7195L399.633 27.0086L395.205 29.6964L396.48 33.1178C394.541 34.8401 393.034 36.9177 392.014 39.1961L388.374 39.0108L387.153 44.031L390.468 45.5447C390.321 48.0394 390.7 50.5727 391.62 52.9978L388.907 55.4461L391.596 59.8716L395.02 58.5972C396.743 60.5358 398.822 62.0419 401.101 63.0614L400.916 66.6991L405.947 67.9271L407.461 64.6138C409.957 64.7605 412.492 64.382 414.918 63.463L417.36 66.1739L421.788 63.4861L420.513 60.0647C422.453 58.3424 423.96 56.2648 424.98 53.9864L428.619 54.1795ZM405.583 58.018C399.27 56.4038 395.46 49.9857 397.068 43.6757C398.683 37.3657 405.104 33.5581 411.418 35.1645C417.731 36.7787 421.541 43.1968 419.934 49.5068C418.326 55.8168 411.897 59.6322 405.583 58.018Z" fill="#D1E5EC"/>
<path d="M63.915 160.144L64.8655 156.244L62.2922 155.07C62.4082 153.139 62.1145 151.17 61.3958 149.293L63.4977 147.401L61.4113 143.971L58.7607 144.96C57.4238 143.454 55.8088 142.288 54.0469 141.5L54.1937 138.681L50.2913 137.723L49.1167 140.295C47.1848 140.179 45.2142 140.473 43.3364 141.191L41.4432 139.09L38.0121 141.176L39.0012 143.825C37.4944 145.161 36.3275 146.775 35.5393 148.536L32.7187 148.389L31.7605 152.289L34.3338 153.463C34.2178 155.394 34.5115 157.364 35.2302 159.241L33.1283 161.133L35.2147 164.562L37.8653 163.573C39.2022 165.079 40.8172 166.246 42.5791 167.033L42.4323 169.852L46.3347 170.81L47.5093 168.238C49.4412 168.354 51.4118 168.061 53.2896 167.342L55.1828 169.443L58.6139 167.358L57.6248 164.709C59.1316 163.373 60.2985 161.758 61.0867 159.997L63.915 160.144ZM46.0488 163.125C41.1495 161.874 38.1976 156.893 39.4494 152.004C40.7013 147.115 45.6856 144.157 50.5772 145.408C55.4765 146.659 58.4284 151.641 57.1766 156.53C55.9247 161.419 50.9481 164.377 46.0488 163.125Z" fill="#D1E5EC"/>
<path d="M403.458 311.321H96.5023C94.7095 311.321 93.2413 309.854 93.2413 308.062V101.871C93.2413 100.079 94.7095 98.612 96.5023 98.612H403.458C405.251 98.612 406.719 100.079 406.719 101.871V308.062C406.712 309.854 405.243 311.321 403.458 311.321Z" fill="#2A4053"/>
<path d="M395.847 301.482H104.114C103.04 301.482 102.159 300.601 102.159 299.528V110.406C102.159 109.332 103.04 108.452 104.114 108.452H395.847C396.921 108.452 397.802 109.332 397.802 110.406V299.528C397.802 300.601 396.921 301.482 395.847 301.482Z" fill="#D1E5EC"/>
<path d="M62.7868 303.104V306.325C62.7868 310.41 66.1329 313.747 70.213 313.747H429.74C433.828 313.747 437.166 310.402 437.166 306.325V303.104H62.7868Z" fill="#2A4053"/>
<path d="M367.363 25.4562H132.366V291.75H367.363V25.4562Z" fill="#EEF2FF"/>
<path d="M367.641 34.5234V19.1616C367.641 17.0532 365.918 15.3231 363.816 15.3231H136.145C134.043 15.3231 132.32 17.0532 132.32 19.1616V34.5234H367.641Z" fill="#1FACC5"/>
<path d="M242.933 20.8376H143.363V29.1557H242.933V20.8376Z" fill="#1F8396"/>
<path d="M341.854 28.3602C343.71 28.3602 345.215 26.856 345.215 25.0005C345.215 23.145 343.71 21.6409 341.854 21.6409C339.997 21.6409 338.492 23.145 338.492 25.0005C338.492 26.856 339.997 28.3602 341.854 28.3602Z" fill="#9CB777"/>
<path d="M333.871 25.0005C333.871 26.8541 332.364 28.3602 330.51 28.3602C328.655 28.3602 327.148 26.8541 327.148 25.0005C327.148 23.1469 328.655 21.6409 330.51 21.6409C332.364 21.6409 333.871 23.1469 333.871 25.0005Z" fill="#FFCF61"/>
<path d="M353.198 28.3602C355.054 28.3602 356.559 26.856 356.559 25.0005C356.559 23.145 355.054 21.6409 353.198 21.6409C351.341 21.6409 349.836 23.145 349.836 25.0005C349.836 26.856 351.341 28.3602 353.198 28.3602Z" fill="#1F8396"/>
<path d="M340.046 170.061H260.405V278.041H340.046V170.061Z" fill="#9AC3F4"/>
<path d="M338.052 166.771H258.96V274.01H338.052V166.771Z" fill="#BBDFFF"/>
<path d="M336.846 168.617H257.754V275.856H336.846V168.617Z" fill="white"/>
<path d="M294.391 220.085C294.708 221.591 295.89 222.711 297.296 222.711C298.703 222.711 299.885 221.591 300.202 220.085H294.391Z" fill="white"/>
<path d="M278.627 186.512L277.05 184.249C276.981 184.257 276.888 184.257 276.749 184.257H275.002V186.504H273.565V178.781H276.741C277.413 178.781 277.993 178.889 278.487 179.113C278.982 179.337 279.368 179.653 279.631 180.063C279.894 180.472 280.025 180.966 280.025 181.53C280.025 182.109 279.886 182.611 279.6 183.029C279.314 183.446 278.912 183.762 278.379 183.963L280.157 186.496H278.627V186.512ZM278.109 180.403C277.784 180.14 277.313 180.009 276.687 180.009H275.01V183.09H276.687C277.313 183.09 277.784 182.959 278.109 182.689C278.433 182.418 278.596 182.04 278.596 181.546C278.596 181.051 278.433 180.665 278.109 180.403Z" fill="#FFBF94"/>
<path d="M287.436 185.315V186.519H281.64V178.796H287.281V180.001H283.078V182.009H286.81V183.191H283.078V185.322H287.436V185.315Z" fill="#FFBF94"/>
<path d="M289.708 186.373C289.152 186.203 288.711 185.979 288.386 185.701L288.881 184.589C289.198 184.836 289.584 185.044 290.048 185.199C290.512 185.353 290.967 185.438 291.431 185.438C292.003 185.438 292.436 185.346 292.714 185.16C293 184.975 293.139 184.735 293.139 184.434C293.139 184.21 293.062 184.033 292.899 183.886C292.745 183.739 292.544 183.631 292.297 183.546C292.057 183.461 291.725 183.376 291.3 183.268C290.712 183.129 290.233 182.99 289.87 182.851C289.507 182.712 289.19 182.496 288.935 182.194C288.672 181.893 288.541 181.492 288.541 180.99C288.541 180.565 288.657 180.179 288.889 179.823C289.121 179.476 289.468 179.198 289.94 178.989C290.403 178.781 290.983 178.68 291.655 178.68C292.127 178.68 292.59 178.742 293.046 178.858C293.502 178.974 293.896 179.144 294.229 179.368L293.773 180.48C293.433 180.279 293.077 180.132 292.714 180.024C292.343 179.924 291.988 179.87 291.64 179.87C291.076 179.87 290.651 179.962 290.372 180.155C290.094 180.348 289.955 180.603 289.955 180.92C289.955 181.144 290.032 181.322 290.195 181.461C290.349 181.6 290.55 181.708 290.797 181.793C291.037 181.87 291.369 181.963 291.794 182.071C292.366 182.202 292.838 182.341 293.208 182.488C293.579 182.635 293.889 182.851 294.151 183.144C294.414 183.438 294.545 183.832 294.545 184.334C294.545 184.759 294.429 185.145 294.198 185.492C293.966 185.84 293.618 186.11 293.147 186.319C292.675 186.527 292.103 186.628 291.423 186.628C290.836 186.628 290.264 186.543 289.708 186.373Z" fill="#FFBF94"/>
<path d="M296.81 185.724C296.215 185.122 295.913 184.264 295.913 183.152V178.796H297.351V183.098C297.351 184.612 298.007 185.369 299.313 185.369C300.619 185.369 301.268 184.612 301.268 183.098V178.796H302.683V183.152C302.683 184.272 302.389 185.129 301.794 185.724C301.199 186.326 300.372 186.62 299.306 186.62C298.239 186.628 297.405 186.326 296.81 185.724Z" fill="#FFBF94"/>
<path d="M311.786 186.512L311.778 181.391L309.236 185.631H308.594L306.052 181.461V186.512H304.684V178.788H305.866L308.934 183.909L311.948 178.788H313.13L313.138 186.512H311.786Z" fill="#FFBF94"/>
<path d="M321.028 185.315V186.519H315.232V178.796H320.873V180.001H316.67V182.009H320.402V183.191H316.67V185.322H321.028V185.315Z" fill="#FFBF94"/>
<path d="M274.709 227.685C274.709 228.581 273.982 229.299 273.094 229.299C272.197 229.299 271.479 228.573 271.479 227.685C271.479 226.789 272.205 226.071 273.094 226.071C273.982 226.071 274.709 226.797 274.709 227.685Z" fill="#FFBF94"/>
<path d="M323.13 227.029H276.834V228.349H323.13V227.029Z" fill="#CCE4F5"/>
<path d="M274.709 222.132C274.709 223.028 273.982 223.746 273.094 223.746C272.197 223.746 271.479 223.02 271.479 222.132C271.479 221.236 272.205 220.518 273.094 220.518C273.982 220.518 274.709 221.236 274.709 222.132Z" fill="#FFBF94"/>
<path d="M323.13 221.475H276.834V222.796H323.13V221.475Z" fill="#CCE4F5"/>
<path d="M273.086 234.86C273.978 234.86 274.701 234.137 274.701 233.246C274.701 232.354 273.978 231.632 273.086 231.632C272.194 231.632 271.471 232.354 271.471 233.246C271.471 234.137 272.194 234.86 273.086 234.86Z" fill="#FFBF94"/>
<path d="M323.13 232.589H276.834V233.91H323.13V232.589Z" fill="#CCE4F5"/>
<path d="M289.113 214.146V211.767C289.113 209.72 287.135 207.743 285.087 207.743H275.435C273.387 207.743 271.409 209.72 271.409 211.767V214.146H289.113Z" fill="#1FACC5"/>
<path d="M284.075 207.743L280.18 207.774L280.172 207.736L276.648 207.759L280.265 214.123V214.115L284.075 207.743Z" fill="#8EC2FE"/>
<path d="M276.988 200.73C277.181 201.341 277.05 201.959 276.702 202.105C276.355 202.252 275.914 201.874 275.729 201.256C275.535 200.646 275.667 200.028 276.015 199.881C276.362 199.742 276.803 200.12 276.988 200.73Z" fill="#DF966C"/>
<path d="M283.518 200.73C283.325 201.341 283.456 201.959 283.804 202.105C284.152 202.252 284.592 201.874 284.778 201.256C284.971 200.646 284.84 200.028 284.492 199.881C284.144 199.742 283.711 200.12 283.518 200.73Z" fill="#DF966C"/>
<path d="M282.799 204.052H277.715L277.498 208.554C277.498 208.554 280.18 211.42 283.024 208.554L282.799 204.052Z" fill="#DF966C"/>
<path d="M282.668 201.657L283.132 198.413L280.296 198.213V198.205H280.257H280.218V198.213L277.089 198.437L277.854 201.657L277.668 204.947L279.183 206.608C279.183 206.608 279.507 206.963 280.218 206.971C280.234 206.971 280.242 206.971 280.257 206.971C280.273 206.971 280.28 206.971 280.296 206.971C281.007 206.963 281.331 206.608 281.331 206.608L282.838 204.94L282.668 201.657Z" fill="#CA896C"/>
<path d="M281.478 196.768L280.798 196.683L280.257 197.587H280.218V197.595L276.239 197.881L276.749 202.816C276.749 202.816 276.772 203.302 277.058 203.65L279.183 205.998C279.183 205.998 279.507 206.353 280.218 206.361C280.234 206.361 280.242 206.361 280.257 206.361C280.273 206.361 280.28 206.361 280.296 206.361C281.007 206.353 281.331 205.998 281.331 205.998L283.456 203.65C283.742 203.31 283.765 202.816 283.765 202.816L284.275 197.881L281.478 196.768Z" fill="#DF966C"/>
<path d="M284.314 199.587C284.121 199.062 284.005 198.506 283.974 197.919C283.951 197.394 284.028 196.892 284.175 196.413C284.152 195.703 283.58 195.131 282.861 195.131C282.583 195.131 282.328 195.216 282.112 195.37C281.903 194.922 281.447 194.614 280.922 194.614C280.481 194.614 280.095 194.83 279.855 195.162C279.616 194.93 279.291 194.783 278.936 194.783C278.302 194.783 277.777 195.231 277.645 195.826C277.514 195.78 277.367 195.749 277.22 195.749C276.896 195.749 276.594 195.872 276.37 196.066C276.447 196.405 276.501 196.753 276.517 197.108C276.556 197.896 276.362 198.645 276.022 199.317C276.347 199.448 276.656 199.611 276.942 199.804C276.942 199.796 276.934 199.796 276.934 199.788C277.259 199.657 277.498 199.387 277.583 199.039C277.746 199.116 277.931 199.17 278.132 199.17C278.487 199.17 278.812 199.016 279.044 198.776C279.276 199.031 279.6 199.193 279.971 199.193C280.249 199.193 280.504 199.101 280.713 198.946C280.906 199.07 281.138 199.147 281.385 199.147C281.625 199.147 281.849 199.078 282.042 198.954C282.274 199.193 282.591 199.34 282.946 199.34C283 199.34 283.047 199.332 283.101 199.325C283.147 199.603 283.325 199.835 283.572 199.958C283.564 199.966 283.557 199.981 283.549 199.989C283.796 199.842 284.051 199.703 284.314 199.587Z" fill="#CA896C"/>
<path d="M285.357 198.205C285.357 197.819 285.149 197.479 284.84 197.286C284.979 197.108 285.056 196.884 285.056 196.637C285.056 196.104 284.67 195.664 284.159 195.579C284.144 194.868 283.564 194.297 282.846 194.297C282.568 194.297 282.313 194.382 282.096 194.536C281.888 194.088 281.432 193.779 280.906 193.779C280.466 193.779 280.079 193.996 279.84 194.328C279.6 194.096 279.276 193.949 278.92 193.949C278.287 193.949 277.761 194.397 277.63 194.992C277.498 194.946 277.351 194.915 277.205 194.915C276.478 194.915 275.891 195.502 275.891 196.228C275.891 196.49 275.968 196.73 276.1 196.931C275.698 197.093 275.42 197.487 275.42 197.942C275.42 198.274 275.566 198.56 275.798 198.761C275.597 198.908 275.466 199.139 275.466 199.402C275.466 199.842 275.821 200.198 276.262 200.198C276.702 200.198 277.058 199.842 277.058 199.402C277.058 199.232 277.004 199.078 276.919 198.954C277.243 198.823 277.483 198.552 277.568 198.205C277.738 198.282 277.916 198.336 278.116 198.336C278.472 198.336 278.797 198.182 279.028 197.942C279.26 198.197 279.585 198.359 279.956 198.359C280.234 198.359 280.489 198.267 280.698 198.112C280.891 198.236 281.123 198.313 281.37 198.313C281.609 198.313 281.833 198.244 282.027 198.12C282.258 198.359 282.575 198.506 282.931 198.506C282.985 198.506 283.031 198.498 283.085 198.491C283.132 198.769 283.309 199 283.557 199.124C283.456 199.255 283.394 199.417 283.394 199.603C283.394 200.043 283.75 200.398 284.19 200.398C284.631 200.398 284.986 200.043 284.986 199.603C284.986 199.425 284.925 199.263 284.824 199.124C285.141 198.946 285.357 198.599 285.357 198.205Z" fill="#614638"/>
<path d="M292.962 216.656H267.553V191.262H292.962V216.656ZM268.465 215.745H292.05V192.173H268.465V215.745Z" fill="#CCE4F5"/>
<path d="M327.048 203.264H298.139V204.662H327.048V203.264Z" fill="#CCE4F5"/>
<path d="M311.569 199.016H298.139V200.414H311.569V199.016Z" fill="#CCE4F5"/>
<path d="M327.048 207.504H298.139V208.902H327.048V207.504Z" fill="#CCE4F5"/>
<path d="M327.079 239.479H267.522V240.799H327.079V239.479Z" fill="#CCE4F5"/>
<path d="M327.079 244.144H267.522V245.464H327.079V244.144Z" fill="#CCE4F5"/>
<path d="M327.079 248.808H267.522V250.129H327.079V248.808Z" fill="#CCE4F5"/>
<path d="M327.079 253.466H267.522V254.786H327.079V253.466Z" fill="#CCE4F5"/>
<path d="M327.079 258.131H267.522V259.451H327.079V258.131Z" fill="#CCE4F5"/>
<path d="M327.079 262.796H267.522V264.116H327.079V262.796Z" fill="#CCE4F5"/>
<path d="M328.207 159.789C326.453 159.789 325.023 161.218 325.023 162.971V174.077C325.023 175.83 325.757 177.244 327.511 177.244C329.266 177.244 329.946 175.838 329.946 174.077V166.995C329.946 166.029 329.219 165.249 328.323 165.249C327.426 165.249 326.7 166.029 326.7 166.995V171.451H327.596V166.995C327.596 166.562 327.921 166.215 328.323 166.215C328.725 166.215 329.049 166.562 329.049 166.995V174.077C329.049 175.336 328.771 176.348 327.511 176.348C326.252 176.348 325.919 175.344 325.919 174.077V162.971C325.919 161.712 326.947 160.685 328.207 160.685C329.466 160.685 330.494 161.712 330.494 162.971V166.763H331.391V162.971C331.391 161.218 329.961 159.789 328.207 159.789Z" fill="#CC8243"/>
<path d="M242.199 48.4642H162.558V156.445H242.199V48.4642Z" fill="#9AC3F4"/>
<path d="M240.205 45.1663H161.113V152.405H240.205V45.1663Z" fill="#BBDFFF"/>
<path d="M238.999 47.0199H159.907V154.259H238.999V47.0199Z" fill="white"/>
<path d="M196.552 98.4808C196.869 99.9868 198.051 101.107 199.457 101.107C200.864 101.107 202.046 99.9868 202.363 98.4808H196.552Z" fill="white"/>
<path d="M180.787 64.915L179.211 62.652C179.141 62.6598 179.049 62.6598 178.909 62.6598H177.163V64.9073H175.726V57.1839H178.902C179.574 57.1839 180.154 57.292 180.648 57.516C181.143 57.74 181.529 58.0566 181.792 58.466C182.055 58.8753 182.186 59.3696 182.186 59.9334C182.186 60.5127 182.047 61.0147 181.761 61.4318C181.475 61.8488 181.073 62.1655 180.54 62.3663L182.317 64.9073H180.787V64.915ZM180.262 58.8058C179.937 58.5432 179.466 58.4119 178.84 58.4119H177.163V61.4935H178.84C179.466 61.4935 179.937 61.3622 180.262 61.0919C180.586 60.8216 180.749 60.4432 180.749 59.9489C180.749 59.4468 180.586 59.0684 180.262 58.8058Z" fill="#FFBF94"/>
<path d="M189.589 63.7101V64.915H183.793V57.1916H189.435V58.3964H185.231V60.4045H188.963V61.5862H185.231V63.7178H189.589V63.7101Z" fill="#FFBF94"/>
<path d="M191.861 64.7682C191.305 64.5983 190.864 64.3743 190.54 64.0963L191.034 62.9841C191.351 63.2313 191.737 63.4398 192.201 63.5943C192.665 63.7487 193.121 63.8337 193.584 63.8337C194.156 63.8337 194.589 63.741 194.867 63.5557C195.153 63.3703 195.292 63.1309 195.292 62.8297C195.292 62.6057 195.215 62.428 195.052 62.2813C194.898 62.1346 194.697 62.0264 194.45 61.9415C194.21 61.8642 193.878 61.7716 193.453 61.6634C192.866 61.5244 192.386 61.3854 192.023 61.2464C191.66 61.1073 191.343 60.8911 191.088 60.5899C190.825 60.2887 190.694 59.8871 190.694 59.385C190.694 58.9602 190.81 58.5741 191.042 58.2188C191.274 57.8712 191.621 57.5932 192.093 57.3847C192.556 57.1761 193.136 57.0757 193.808 57.0757C194.28 57.0757 194.743 57.1375 195.199 57.2534C195.655 57.3692 196.049 57.5391 196.382 57.7631L195.926 58.8753C195.586 58.6745 195.238 58.5277 194.867 58.4196C194.496 58.3192 194.141 58.2651 193.793 58.2651C193.229 58.2651 192.804 58.3578 192.526 58.5509C192.247 58.744 192.108 58.9989 192.108 59.3155C192.108 59.5395 192.186 59.7171 192.348 59.8562C192.51 59.9952 192.703 60.1033 192.951 60.1883C193.19 60.2655 193.522 60.3582 193.947 60.4663C194.519 60.5976 194.991 60.7366 195.362 60.8834C195.733 61.0301 196.042 61.2464 196.304 61.5399C196.567 61.8333 196.698 62.2272 196.698 62.7293C196.698 63.154 196.583 63.5402 196.351 63.8878C196.119 64.2353 195.771 64.5134 195.3 64.7142C194.828 64.9227 194.257 65.0231 193.577 65.0231C192.989 65.0231 192.417 64.9381 191.861 64.7682Z" fill="#FFBF94"/>
<path d="M198.963 64.1272C198.368 63.5248 198.066 62.6675 198.066 61.5476V57.1916H199.504V61.4935C199.504 63.0073 200.16 63.7642 201.466 63.7642C202.772 63.7642 203.421 63.0073 203.421 61.4935V57.1916H204.836V61.5476C204.836 62.6675 204.542 63.5248 203.947 64.1272C203.352 64.7296 202.525 65.0231 201.459 65.0231C200.392 65.0231 199.558 64.7219 198.963 64.1272Z" fill="#FFBF94"/>
<path d="M213.939 64.915L213.931 59.7944L211.389 64.0345H210.747L208.205 59.8639V64.915H206.837V57.1916H208.019L211.087 62.3122L214.101 57.1916H215.283L215.291 64.915H213.939Z" fill="#FFBF94"/>
<path d="M223.181 63.7101V64.915H217.385V57.1916H223.026V58.3964H218.823V60.4045H222.555V61.5862H218.823V63.7178H223.181V63.7101Z" fill="#FFBF94"/>
<path d="M176.862 106.088C176.862 106.984 176.135 107.702 175.247 107.702C174.35 107.702 173.632 106.976 173.632 106.088C173.632 105.192 174.358 104.474 175.247 104.474C176.135 104.474 176.862 105.192 176.862 106.088Z" fill="#FFBF94"/>
<path d="M225.283 105.432H178.987V106.753H225.283V105.432Z" fill="#CCE4F5"/>
<path d="M176.862 100.535C176.862 101.431 176.135 102.149 175.247 102.149C174.35 102.149 173.632 101.423 173.632 100.535C173.632 99.6393 174.358 98.921 175.247 98.921C176.135 98.9133 176.862 99.6393 176.862 100.535Z" fill="#FFBF94"/>
<path d="M225.283 99.871H178.987V101.192H225.283V99.871Z" fill="#CCE4F5"/>
<path d="M176.862 111.641C176.862 112.537 176.135 113.256 175.247 113.256C174.35 113.256 173.632 112.53 173.632 111.641C173.632 110.745 174.358 110.027 175.247 110.027C176.135 110.027 176.862 110.753 176.862 111.641Z" fill="#FFBF94"/>
<path d="M225.283 110.985H178.987V112.306H225.283V110.985Z" fill="#CCE4F5"/>
<path d="M195.115 95.0593H169.706V69.6649H195.115V95.0593ZM170.618 94.148H194.203V70.5762H170.618V94.148Z" fill="#CCE4F5"/>
<path d="M229.201 81.6592H200.292V83.0572H229.201V81.6592Z" fill="#CCE4F5"/>
<path d="M213.722 77.4114H200.292V78.8093H213.722V77.4114Z" fill="#CCE4F5"/>
<path d="M229.201 85.9071H200.292V87.305H229.201V85.9071Z" fill="#CCE4F5"/>
<path d="M229.232 117.882H169.675V119.203H229.232V117.882Z" fill="#CCE4F5"/>
<path d="M229.232 122.539H169.675V123.86H229.232V122.539Z" fill="#CCE4F5"/>
<path d="M229.232 127.204H169.675V128.525H229.232V127.204Z" fill="#CCE4F5"/>
<path d="M229.232 131.869H169.675V133.19H229.232V131.869Z" fill="#CCE4F5"/>
<path d="M229.232 136.534H169.675V137.855H229.232V136.534Z" fill="#CCE4F5"/>
<path d="M229.232 141.191H169.675V142.512H229.232V141.191Z" fill="#CCE4F5"/>
<path d="M230.36 38.1921C228.606 38.1921 227.176 39.6209 227.176 41.3741V52.4803C227.176 54.2335 227.91 55.6469 229.664 55.6469C231.419 55.6469 232.099 54.2413 232.099 52.4803V45.398C232.099 44.4326 231.372 43.6525 230.476 43.6525C229.579 43.6525 228.853 44.4326 228.853 45.398V49.8544H229.749V45.398C229.749 44.9655 230.074 44.6179 230.476 44.6179C230.878 44.6179 231.202 44.9655 231.202 45.398V52.4803C231.202 53.7392 230.924 54.751 229.664 54.751C228.405 54.751 228.073 53.747 228.073 52.4803V41.3741C228.073 40.1152 229.1 39.088 230.36 39.088C231.62 39.088 232.647 40.1152 232.647 41.3741V45.1663H233.544V41.3741C233.544 39.6209 232.114 38.1921 230.36 38.1921Z" fill="#CC8243"/>
<path d="M191.305 92.6728V90.3249C191.305 88.3014 189.651 86.6486 187.626 86.6486H177.503C175.478 86.6486 173.825 88.3014 173.825 90.3249V92.6728H191.305Z" fill="#F45289"/>
<path d="M179.334 79.4271C179.52 80.0296 179.396 80.6397 179.049 80.7787C178.701 80.9255 178.268 80.547 178.083 79.9446C177.897 79.3422 178.021 78.732 178.369 78.593C178.716 78.4463 179.149 78.8247 179.334 79.4271Z" fill="#DF966C"/>
<path d="M185.779 79.4271C185.594 80.0296 185.718 80.6397 186.065 80.7787C186.413 80.9255 186.846 80.547 187.031 79.9446C187.217 79.3422 187.093 78.732 186.745 78.593C186.398 78.4463 185.973 78.8247 185.779 79.4271Z" fill="#DF966C"/>
<path d="M185.285 87.1506H179.829L180.045 82.7019H185.068L185.285 87.1506Z" fill="#DF966C"/>
<path d="M184.945 80.3386L185.401 77.1411L182.595 76.9403V76.9326H182.557H182.518V76.9403L179.427 77.1643L180.177 80.3463L179.991 83.5978L181.49 85.2429C181.49 85.2429 181.815 85.5905 182.51 85.5982C182.526 85.5982 182.534 85.5982 182.549 85.5982C182.565 85.5982 182.572 85.5982 182.588 85.5982C183.291 85.5905 183.608 85.2429 183.608 85.2429L185.099 83.5978L184.945 80.3386Z" fill="#CA896C"/>
<path d="M183.762 75.5114L183.09 75.4342L182.557 76.3224H182.518V76.3301L178.585 76.6082L179.087 81.4893C179.087 81.4893 179.11 81.9759 179.389 82.308L181.49 84.625C181.49 84.625 181.815 84.9726 182.511 84.9803C182.526 84.9803 182.534 84.9803 182.549 84.9803C182.565 84.9803 182.572 84.9803 182.588 84.9803C183.291 84.9726 183.608 84.625 183.608 84.625L185.71 82.308C185.996 81.9759 186.011 81.4893 186.011 81.4893L186.513 76.6082L183.762 75.5114Z" fill="#DF966C"/>
<path d="M186.738 75.2875C186.606 74.6773 185.934 74.1212 185.246 74.1212C185.03 74.1212 184.906 74.1367 184.79 74.1753C184.976 73.8432 185.254 73.5034 185.679 73.3721C185.679 73.3721 184.968 73.3257 184.442 74.0903C184.056 73.0554 183.26 72.5611 183.26 72.5611C183.639 73.0091 183.855 73.596 183.971 74.0517C183.345 73.6964 182.325 73.457 181.614 73.457C180.27 73.457 178.979 74.1058 178.569 75.7122C178.492 75.9208 178.438 76.1293 178.399 76.3456C178.314 76.8321 178.345 77.3187 178.407 77.7126H178.399L178.995 80.6166L179.126 78.6085C180.571 78.454 181.668 78.0601 182.503 77.6045C181.97 78.454 180.888 79.3113 180.888 79.3113C183.515 78.454 184.18 76.7317 184.342 76.1525C184.427 76.6159 184.883 77.5041 186.119 78.4926L186.143 80.6166L186.846 76.3378C186.83 76.3224 186.869 75.8899 186.738 75.2875Z" fill="#723F3F"/>
<path d="M186.939 89.4985L186.073 84.5169L182.557 87.0193L179.041 84.5169L178.183 89.4985L182.557 87.2819L186.939 89.4985Z" fill="#FFD55F"/>
<path d="M353.329 17.8024H251.402V156.004H353.329V17.8024Z" fill="#9AC3F4"/>
<path d="M350.787 13.5854H249.555V150.837H350.787V13.5854Z" fill="#BBDFFF"/>
<path d="M349.234 15.9487H248.01V153.201H349.234V15.9487Z" fill="white"/>
<path d="M294.901 81.8214C295.31 83.7523 296.817 85.1888 298.618 85.1888C300.418 85.1888 301.925 83.7523 302.335 81.8214H294.901Z" fill="white"/>
<path d="M274.732 38.8567L272.715 35.9604C272.63 35.9681 272.506 35.9759 272.336 35.9759H270.103V38.8567H268.264V28.9708H272.329C273.186 28.9708 273.928 29.1098 274.57 29.3956C275.203 29.6813 275.69 30.0829 276.03 30.6081C276.37 31.1333 276.54 31.7589 276.54 32.4849C276.54 33.2263 276.362 33.8674 275.999 34.408C275.636 34.9409 275.118 35.3426 274.438 35.6051L276.71 38.849H274.732V38.8567ZM274.067 31.0329C273.65 30.6931 273.047 30.5232 272.244 30.5232H270.095V34.4621H272.244C273.047 34.4621 273.65 34.2922 274.067 33.9446C274.485 33.6048 274.685 33.1105 274.685 32.4849C274.685 31.8593 274.477 31.3727 274.067 31.0329Z" fill="#FFBF94"/>
<path d="M285.999 37.3116V38.8485H278.58V28.9626H285.798V30.4995H280.412V33.0714H285.187V34.5852H280.412V37.3116H285.999Z" fill="#FFBF94"/>
<path d="M288.904 38.6709C288.193 38.4546 287.629 38.1689 287.22 37.8059L287.853 36.377C288.255 36.6937 288.757 36.9563 289.345 37.1571C289.932 37.3579 290.527 37.4583 291.114 37.4583C291.848 37.4583 292.397 37.3425 292.76 37.103C293.123 36.8713 293.301 36.5547 293.301 36.1685C293.301 35.8827 293.201 35.651 293 35.4734C292.799 35.288 292.544 35.149 292.227 35.0409C291.918 34.9405 291.493 34.8169 290.952 34.6856C290.202 34.508 289.592 34.3303 289.121 34.1527C288.657 33.9751 288.255 33.697 287.923 33.3109C287.591 32.9324 287.421 32.4149 287.421 31.7662C287.421 31.2178 287.567 30.7235 287.869 30.2756C288.162 29.8276 288.611 29.4723 289.213 29.2097C289.808 28.9472 290.542 28.8159 291.408 28.8159C292.011 28.8159 292.606 28.8931 293.185 29.0398C293.773 29.1943 294.275 29.4106 294.7 29.6886L294.12 31.1174C293.688 30.8626 293.232 30.6695 292.768 30.5382C292.297 30.4069 291.841 30.3374 291.4 30.3374C290.674 30.3374 290.133 30.4609 289.785 30.7081C289.43 30.9552 289.252 31.2796 289.252 31.6812C289.252 31.967 289.352 32.191 289.553 32.3763C289.754 32.554 290.009 32.693 290.326 32.8011C290.635 32.9015 291.06 33.0251 291.601 33.1564C292.335 33.3263 292.938 33.5039 293.409 33.6893C293.881 33.8747 294.283 34.1527 294.615 34.5312C294.947 34.9096 295.117 35.4193 295.117 36.0527C295.117 36.601 294.97 37.0953 294.669 37.5355C294.375 37.9758 293.919 38.3311 293.317 38.5936C292.714 38.8562 291.98 38.9875 291.114 38.9875C290.349 38.9953 289.615 38.8871 288.904 38.6709Z" fill="#FFBF94"/>
<path d="M297.992 37.8445C297.227 37.0799 296.848 35.9754 296.848 34.5466V28.9703H298.687V34.4771C298.687 36.4157 299.522 37.3888 301.199 37.3888C302.868 37.3888 303.703 36.4157 303.703 34.4771V28.9703H305.511V34.5466C305.511 35.9754 305.132 37.0799 304.375 37.8445C303.618 38.6091 302.551 38.9953 301.191 38.9953C299.823 38.9953 298.757 38.6091 297.992 37.8445Z" fill="#FFBF94"/>
<path d="M317.164 38.8563L317.149 32.3068L313.895 37.7286H313.076L309.823 32.3918V38.8563H308.069V28.9703H309.583L313.509 35.5198L317.365 28.9703H318.88L318.895 38.8563H317.164Z" fill="#FFBF94"/>
<path d="M328.987 37.3116V38.8485H321.569V28.9626H328.786V30.4995H323.408V33.0714H328.184V34.5852H323.408V37.3116H328.987Z" fill="#FFBF94"/>
<path d="M269.709 91.5528C269.709 92.6959 268.782 93.6227 267.638 93.6227C266.494 93.6227 265.567 92.6959 265.567 91.5528C265.567 90.4098 266.494 89.483 267.638 89.483C268.782 89.483 269.709 90.4098 269.709 91.5528Z" fill="#FFBF94"/>
<path d="M331.684 90.711H272.429V92.4024H331.684V90.711Z" fill="#CCE4F5"/>
<path d="M269.709 84.4396C269.709 85.5827 268.782 86.5095 267.638 86.5095C266.494 86.5095 265.567 85.5827 265.567 84.4396C265.567 83.2966 266.494 82.3698 267.638 82.3698C268.782 82.3698 269.709 83.2966 269.709 84.4396Z" fill="#FFBF94"/>
<path d="M331.684 83.5978H272.429V85.2892H331.684V83.5978Z" fill="#CCE4F5"/>
<path d="M269.709 98.6661C269.709 99.8091 268.782 100.736 267.638 100.736C266.494 100.736 265.567 99.8091 265.567 98.6661C265.567 97.523 266.494 96.5962 267.638 96.5962C268.782 96.5962 269.709 97.523 269.709 98.6661Z" fill="#FFBF94"/>
<path d="M331.684 97.8165H272.429V99.5079H331.684V97.8165Z" fill="#CCE4F5"/>
<path d="M293.07 77.4345H260.552V44.9346H293.07V77.4345ZM261.719 76.2683H291.903V46.1008H261.719V76.2683Z" fill="#CCE4F5"/>
<path d="M336.692 60.2886H299.692V62.0805H336.692V60.2886Z" fill="#CCE4F5"/>
<path d="M316.878 54.8514H299.692V56.6432H316.878V54.8514Z" fill="#CCE4F5"/>
<path d="M336.692 65.7181H299.692V67.51H336.692V65.7181Z" fill="#CCE4F5"/>
<path d="M336.738 106.644H260.513V108.336H336.738V106.644Z" fill="#CCE4F5"/>
<path d="M336.738 112.607H260.513V114.291H336.738V112.607Z" fill="#CCE4F5"/>
<path d="M336.738 118.577H260.513V120.268H336.738V118.577Z" fill="#CCE4F5"/>
<path d="M336.738 124.547H260.513V126.239H336.738V124.547Z" fill="#CCE4F5"/>
<path d="M336.738 130.517H260.513V132.201H336.738V130.517Z" fill="#CCE4F5"/>
<path d="M336.738 136.487H260.513V138.171H336.738V136.487Z" fill="#CCE4F5"/>
<path d="M338.176 4.65717C335.927 4.65717 334.095 6.48761 334.095 8.73511V22.9461C334.095 25.1936 335.038 26.9932 337.287 26.9932C339.536 26.9932 340.401 25.1936 340.401 22.9461V13.8866C340.401 12.6509 339.474 11.6545 338.33 11.6545C337.186 11.6545 336.251 12.6586 336.251 13.8866V19.5942H337.395V13.8866C337.395 13.3382 337.812 12.8826 338.322 12.8826C338.832 12.8826 339.25 13.3305 339.25 13.8866V22.9461C339.25 24.5603 338.894 25.8501 337.279 25.8501C335.664 25.8501 335.239 24.5603 335.239 22.9461V8.72738C335.239 7.1132 336.553 5.80023 338.168 5.80023C339.783 5.80023 341.097 7.1132 341.097 8.72738V13.5854H342.24V8.72738C342.256 6.47988 340.424 4.65717 338.176 4.65717Z" fill="#CC8243"/>
<path d="M279.616 50.1015C279.616 50.1015 270.938 46.0467 270.288 57.1529L269.802 68.4986L277.181 68.4213L279.616 50.1015Z" fill="#281F1F"/>
<path d="M277.947 49.9393C277.947 49.9393 283.503 48.6418 283.255 55.2067L283.333 67.6104L279.276 67.1239L277.947 49.9393Z" fill="#281F1F"/>
<path d="M288.186 74.3837V71.3793C288.186 68.792 286.068 66.6681 283.472 66.6681H270.513C267.924 66.6681 265.799 68.7843 265.799 71.3793V74.3837H288.186Z" fill="#FFB15C"/>
<path d="M272.87 57.431C273.109 58.2033 272.947 58.9834 272.506 59.1688C272.066 59.3541 271.509 58.8753 271.27 58.1029C271.03 57.3306 271.193 56.5505 271.633 56.3652C272.081 56.1721 272.63 56.6509 272.87 57.431Z" fill="#DF966C"/>
<path d="M281.123 57.431C280.883 58.2033 281.045 58.9834 281.486 59.1688C281.926 59.3541 282.483 58.8753 282.722 58.1029C282.962 57.3306 282.799 56.5505 282.359 56.3652C281.919 56.1721 281.362 56.6509 281.123 57.431Z" fill="#DF966C"/>
<path d="M280.489 67.3169H273.511L273.781 61.6248H280.211L280.489 67.3169Z" fill="#DF966C"/>
<path d="M280.048 58.5972L280.628 54.5038L277.042 54.2489V54.2412H276.996H276.95V54.2489L272.993 54.5347L273.959 58.6049L273.727 62.7678L275.644 64.8686C275.644 64.8686 276.053 65.3165 276.95 65.3243C276.965 65.3243 276.981 65.3243 276.996 65.3243C277.012 65.3243 277.027 65.3243 277.042 65.3243C277.939 65.3165 278.348 64.8686 278.348 64.8686L280.257 62.7678L280.048 58.5972Z" fill="#CA896C"/>
<path d="M278.542 52.4185L277.684 52.3181L277.004 53.4612H276.957V53.4689L271.927 53.8319L272.568 60.0724C272.568 60.0724 272.599 60.6903 272.962 61.1228L275.651 64.0885C275.651 64.0885 276.061 64.5365 276.957 64.5442V64.5519C276.973 64.5519 276.988 64.5519 277.004 64.5519C277.019 64.5519 277.035 64.5519 277.05 64.5519V64.5442C277.947 64.5365 278.356 64.0885 278.356 64.0885L281.045 61.1228C281.409 60.6903 281.432 60.0724 281.432 60.0724L282.073 53.8319L278.542 52.4185Z" fill="#DF966C"/>
<path d="M282.344 52.125C282.174 51.3372 281.316 50.6267 280.435 50.6267C280.157 50.6267 278.65 49.9547 278.797 50.5417C277.993 50.0938 276.687 49.7771 275.783 49.7771C274.06 49.7771 272.406 50.6035 271.888 52.6656C271.795 52.936 271.726 53.2063 271.672 53.4766C271.556 54.1022 271.602 54.7201 271.679 55.2221L271.672 55.2144L272.336 57.1452L272.591 56.3574C275.837 55.9095 278.403 54.218 279.26 53.2063C280.334 53.1522 281.13 53.6388 281.532 56.2029L281.633 57.2611L282.46 53.4534C282.467 53.4534 282.521 52.9051 282.344 52.125Z" fill="#281F1F"/>
<path d="M282.599 70.3213L281.501 63.9418L276.996 67.147L272.499 63.9418L271.394 70.3213L276.996 67.4791L282.599 70.3213Z" fill="#FFD55F"/>
<path d="M251.433 136.395H146.075V279.246H251.433V136.395Z" fill="#9AC3F4"/>
<path d="M248.79 132.039H144.159V273.91H248.79V132.039Z" fill="#BBDFFF"/>
<path d="M247.198 134.487H142.567V276.358H247.198V134.487Z" fill="white"/>
<path d="M191.034 202.569C191.459 204.561 193.02 206.044 194.883 206.044C196.745 206.044 198.306 204.561 198.731 202.569H191.034Z" fill="white"/>
<path d="M170.185 158.16L168.099 155.171C168.014 155.179 167.882 155.186 167.705 155.186H165.394V158.16H163.493V147.942H167.697C168.585 147.942 169.35 148.088 170.007 148.382C170.664 148.675 171.166 149.092 171.522 149.641C171.87 150.189 172.047 150.83 172.047 151.579C172.047 152.352 171.862 153.008 171.483 153.564C171.105 154.12 170.571 154.53 169.868 154.808L172.217 158.167H170.185V158.16ZM169.497 150.073C169.072 149.726 168.439 149.548 167.612 149.548H165.394V153.618H167.612C168.439 153.618 169.065 153.441 169.497 153.085C169.922 152.73 170.139 152.228 170.139 151.572C170.139 150.923 169.922 150.429 169.497 150.073Z" fill="#FFBF94"/>
<path d="M181.831 156.568V158.159H174.165V147.941H181.63V149.532H176.066V152.189H181.004V153.749H176.066V156.568H181.831Z" fill="#FFBF94"/>
<path d="M184.837 157.974C184.102 157.75 183.523 157.456 183.09 157.086L183.747 155.611C184.164 155.943 184.682 156.213 185.285 156.422C185.895 156.63 186.506 156.738 187.116 156.738C187.874 156.738 188.445 156.615 188.816 156.375C189.195 156.136 189.38 155.811 189.38 155.41C189.38 155.116 189.272 154.877 189.064 154.684C188.855 154.491 188.592 154.344 188.268 154.236C187.943 154.128 187.51 154.004 186.954 153.873C186.173 153.687 185.548 153.502 185.061 153.317C184.582 153.131 184.164 152.846 183.817 152.452C183.469 152.058 183.299 151.525 183.299 150.853C183.299 150.289 183.453 149.772 183.755 149.316C184.064 148.853 184.527 148.49 185.146 148.212C185.764 147.941 186.521 147.802 187.418 147.802C188.044 147.802 188.654 147.879 189.257 148.034C189.86 148.188 190.377 148.412 190.818 148.706L190.215 150.181C189.767 149.918 189.303 149.718 188.816 149.586C188.329 149.447 187.858 149.386 187.402 149.386C186.653 149.386 186.096 149.509 185.733 149.764C185.37 150.019 185.184 150.351 185.184 150.768C185.184 151.062 185.293 151.301 185.501 151.486C185.71 151.672 185.973 151.818 186.297 151.927C186.622 152.035 187.054 152.158 187.611 152.29C188.368 152.467 188.994 152.645 189.481 152.838C189.968 153.031 190.385 153.317 190.733 153.703C191.081 154.089 191.251 154.614 191.251 155.278C191.251 155.842 191.096 156.352 190.795 156.808C190.485 157.263 190.022 157.626 189.404 157.904C188.778 158.175 188.02 158.314 187.124 158.314C186.336 158.306 185.571 158.198 184.837 157.974Z" fill="#FFBF94"/>
<path d="M194.233 157.117C193.445 156.321 193.051 155.186 193.051 153.711V147.949H194.952V153.641C194.952 155.649 195.818 156.646 197.549 156.646C199.272 156.646 200.13 155.641 200.13 153.641V147.949H202V153.711C202 155.194 201.606 156.329 200.825 157.117C200.045 157.912 198.94 158.306 197.533 158.306C196.119 158.306 195.022 157.912 194.233 157.117Z" fill="#FFBF94"/>
<path d="M214.047 158.159L214.032 151.386L210.67 156.993H209.82L206.458 151.479V158.159H204.65V147.941H206.211L210.268 154.715L214.256 147.941H215.817L215.832 158.159H214.047Z" fill="#FFBF94"/>
<path d="M226.272 156.568V158.159H218.606V147.941H226.071V149.532H220.507V152.189H225.445V153.749H220.507V156.568H226.272Z" fill="#FFBF94"/>
<path d="M164.992 212.632C164.992 213.814 164.034 214.772 162.852 214.772C161.669 214.772 160.711 213.814 160.711 212.632C160.711 211.451 161.669 210.493 162.852 210.493C164.034 210.493 164.992 211.451 164.992 212.632Z" fill="#FFBF94"/>
<path d="M229.054 211.76H167.805V213.505H229.054V211.76Z" fill="#CCE4F5"/>
<path d="M164.992 205.28C164.992 206.461 164.034 207.419 162.852 207.419C161.669 207.419 160.711 206.461 160.711 205.28C160.711 204.098 161.669 203.14 162.852 203.14C164.034 203.14 164.992 204.098 164.992 205.28Z" fill="#FFBF94"/>
<path d="M229.054 204.407H167.805V206.152H229.054V204.407Z" fill="#CCE4F5"/>
<path d="M164.992 219.985C164.992 221.167 164.034 222.124 162.852 222.124C161.669 222.124 160.711 221.167 160.711 219.985C160.711 218.803 161.669 217.846 162.852 217.846C164.034 217.838 164.992 218.803 164.992 219.985Z" fill="#FFBF94"/>
<path d="M229.054 219.112H167.805V220.858H229.054V219.112Z" fill="#CCE4F5"/>
<path d="M189.142 198.035H155.527V164.438H189.142V198.035ZM156.732 196.83H187.928V165.651H156.732V196.83Z" fill="#CCE4F5"/>
<path d="M234.231 180.31H195.988V182.164H234.231V180.31Z" fill="#CCE4F5"/>
<path d="M213.753 174.695H195.988V176.549H213.753V174.695Z" fill="#CCE4F5"/>
<path d="M234.231 185.933H195.988V187.786H234.231V185.933Z" fill="#CCE4F5"/>
<path d="M234.278 228.226H155.487V229.971H234.278V228.226Z" fill="#CCE4F5"/>
<path d="M234.278 234.397H155.487V236.142H234.278V234.397Z" fill="#CCE4F5"/>
<path d="M234.278 240.568H155.487V242.313H234.278V240.568Z" fill="#CCE4F5"/>
<path d="M234.278 246.739H155.487V248.484H234.278V246.739Z" fill="#CCE4F5"/>
<path d="M234.278 252.902H155.487V254.647H234.278V252.902Z" fill="#CCE4F5"/>
<path d="M234.278 259.073H155.487V260.818H234.278V259.073Z" fill="#CCE4F5"/>
<path d="M235.762 122.809C233.436 122.809 231.542 124.702 231.542 127.026V141.716C231.542 144.041 232.516 145.902 234.842 145.902C237.168 145.902 238.064 144.041 238.064 141.716V132.348C238.064 131.073 237.106 130.038 235.924 130.038C234.742 130.038 233.776 131.073 233.776 132.348V138.248H234.958V132.348C234.958 131.776 235.391 131.313 235.916 131.313C236.442 131.313 236.874 131.776 236.874 132.348V141.716C236.874 143.384 236.511 144.721 234.842 144.721C233.173 144.721 232.732 143.392 232.732 141.716V127.026C232.732 125.358 234.092 123.999 235.762 123.999C237.431 123.999 238.791 125.358 238.791 127.026V132.047H239.981V127.026C239.981 124.702 238.088 122.809 235.762 122.809Z" fill="#CC8243"/>
<path d="M178.415 178.078H166.924V188.798H178.415V178.078Z" fill="#EF4898"/>
<path d="M183.716 194.567V191.517C183.716 188.883 180.409 186.342 177.774 186.342H166.893C164.258 186.342 160.951 188.883 160.951 191.517V194.567H183.716Z" fill="#BDB9FF"/>
<path d="M168.145 177.321C168.392 178.109 168.222 178.897 167.774 179.082C167.326 179.267 166.762 178.781 166.522 177.993C166.275 177.205 166.445 176.417 166.893 176.232C167.334 176.047 167.898 176.533 168.145 177.321Z" fill="url(#paint0_linear)"/>
<path d="M176.537 177.321C176.29 178.109 176.46 178.897 176.908 179.082C177.356 179.267 177.92 178.781 178.16 177.993C178.407 177.205 178.237 176.417 177.789 176.232C177.341 176.047 176.777 176.533 176.537 177.321Z" fill="url(#paint1_linear)"/>
<path d="M175.509 187.377L172.21 190.057L169.173 187.377L169.451 181.592H175.223L175.509 187.377Z" fill="#DF966C"/>
<path d="M175.069 178.904L176.027 174.34L172.38 174.077V174.069H172.333H172.287V174.077L168.269 174.363L169.59 178.711L169.374 183.129L170.958 184.874C170.958 184.874 171.375 185.33 172.287 185.338C172.302 185.338 172.318 185.338 172.333 185.338C172.349 185.338 172.364 185.338 172.38 185.338C173.292 185.33 173.709 184.874 173.709 184.874L175.293 183.106L175.069 178.904Z" fill="#CA896C"/>
<path d="M173.91 172.231L173.037 172.123L172.341 173.282H172.295V173.289L167.179 173.652L167.836 180.001C167.836 180.001 167.867 180.634 168.23 181.067L170.966 184.087C170.966 184.087 171.383 184.542 172.295 184.55V184.558C172.31 184.558 172.326 184.558 172.341 184.558C172.357 184.558 172.372 184.558 172.387 184.558V184.55C173.299 184.542 173.717 184.087 173.717 184.087L176.452 181.067C176.823 180.627 176.846 180.001 176.846 180.001L177.503 173.652L173.91 172.231Z" fill="#DF966C"/>
<path d="M174.319 172.54C174.319 172.54 172.387 176.819 167.967 179.082L168.284 189.385C168.284 189.385 168.284 191.679 165.796 192.258C165.796 192.258 161.244 191.254 164.026 187.524C164.026 187.524 166.035 184.272 164.938 176.703C164.938 176.703 164.127 169.289 171.213 169.142C171.213 169.142 173.067 169.08 174.087 170.532L174.319 172.54Z" fill="#EDB057"/>
<path d="M168.33 189.215C168.33 191.169 166.746 192.76 164.783 192.76C162.828 192.76 161.236 191.177 161.236 189.215C161.236 187.261 162.821 185.67 164.783 185.67C166.746 185.67 168.33 187.261 168.33 189.215Z" fill="#EDB057"/>
<path d="M170.502 172.478C170.502 172.478 175.958 170.231 176.854 179.02L176.537 189.323C176.537 189.323 176.537 191.617 179.025 192.196C179.025 192.196 183.577 191.192 180.795 187.454C180.795 187.454 178.786 184.202 179.883 176.634C179.883 176.634 180.648 169.343 173.562 169.196C173.562 169.196 172.171 169.258 170.734 170.455L170.502 172.478Z" fill="#EDB057"/>
<path d="M176.491 189.153C176.491 191.107 178.075 192.698 180.038 192.698C181.993 192.698 183.585 191.115 183.585 189.153C183.585 187.199 182.001 185.608 180.038 185.608C178.075 185.608 176.491 187.191 176.491 189.153Z" fill="#EDB057"/>
<path d="M341.645 304.116C340.672 303.992 339.968 303.096 340.092 302.115L354.705 186.079C354.829 185.106 355.725 184.403 356.706 184.527C357.68 184.65 358.383 185.546 358.26 186.527L343.647 302.563C343.523 303.544 342.627 304.239 341.645 304.116Z" fill="#9196C4"/>
<path d="M416.41 304.116C417.383 303.992 418.087 303.096 417.963 302.115L403.35 186.079C403.227 185.106 402.33 184.403 401.349 184.527C400.367 184.65 399.672 185.546 399.795 186.527L414.408 302.563C414.532 303.544 415.436 304.239 416.41 304.116Z" fill="#9196C4"/>
<path d="M357.317 188.381V163.766C357.317 162.036 358.723 160.631 360.454 160.631H397.616C399.347 160.631 400.754 162.036 400.754 163.766V188.381H403.443V163.766C403.443 160.561 400.831 157.951 397.624 157.951H360.462C357.255 157.951 354.643 160.561 354.643 163.766V188.381H357.317Z" fill="#9196C4"/>
<path d="M408.28 184.056H349.775V188.829H408.28V184.056Z" fill="#B3B9DD"/>
<path d="M403.242 198.004H354.658V200.244H403.242V198.004Z" fill="#9196C4"/>
<path d="M405.73 216.532H352.17V218.772H405.73V216.532Z" fill="#9196C4"/>
<path d="M408.211 235.061H349.674V237.301H408.211V235.061Z" fill="#9196C4"/>
<path d="M410.699 253.589H347.186V255.829H410.699V253.589Z" fill="#9196C4"/>
<path d="M413.187 272.118H344.698V274.357H413.187V272.118Z" fill="#9196C4"/>
<path d="M415.676 290.638H342.209V292.878H415.676V290.638Z" fill="#9196C4"/>
<path d="M348.229 89.3439L338.987 75.6813C338.987 75.6813 338.979 75.6581 338.971 75.6581C338.562 76.2528 338.121 76.8243 337.627 77.3649L345.308 91.9544L364.82 109.17L366.397 104.281L348.229 89.3439Z" fill="#DF966C"/>
<path d="M369.094 97.3145L378.104 111.008L389.363 119.38C389.363 119.38 393.482 119.565 394.749 122.246C396.017 124.926 392.856 121.944 391.025 121.906L391.875 123.273C391.875 123.273 392.238 124.671 389.703 121.975L388.235 120.67L374.959 113.039L366.86 101.153L369.094 97.3145Z" fill="#DF966C"/>
<path d="M362.177 176.124L362.564 176.827L359.99 182.488L357.417 183.222L356.861 182.395C356.861 182.395 359.071 179.391 359.372 176.116L360.145 173.683L362.177 176.124Z" fill="#F7907C"/>
<path d="M371.203 118.106C371.203 118.106 372.053 128.895 384.85 177.236L382.169 177.313L362.564 128.455L362.177 177.02L359.372 177.012C359.372 177.012 352.897 125.636 355.284 117.758L371.203 118.106Z" fill="#F7907C"/>
<path d="M354.612 117.295C354.612 117.295 352.495 132.541 355.563 145.524C355.563 145.524 363.445 146.103 367.386 145.377L367.679 141.585L368.699 145.084C368.699 145.084 373.151 145.555 376.945 143.662C376.945 143.662 375.631 119.372 371.033 116.051L354.612 117.295Z" fill="#2A4053"/>
<path d="M361.582 89.6297C361.582 89.6297 356.683 89.7069 355.439 93.8235C355.439 93.8235 354.736 96.8819 354.017 98.6892C353.291 100.504 354.071 102.674 354.998 104.126C355.933 105.578 356.397 112.831 354.326 116.561C352.255 120.292 362 120.909 362 120.909C362 120.909 374.804 122.099 371.767 116.198C368.738 110.29 367.339 108.892 370.6 101.593C373.869 94.2946 373.143 89.7378 361.582 89.6297Z" fill="#6B82F7"/>
<path d="M365.469 82.5319C365.469 82.5319 363.367 86.5558 366.111 90.7496C366.111 90.7496 366.976 91.5219 365.021 92.5105C362.432 93.8235 358.352 93.9007 359.983 90.5488C359.983 90.5488 360.732 89.12 360.423 85.6135L365.469 82.5319Z" fill="#DF966C"/>
<path d="M366.783 80.7555C366.358 80.4234 365.863 80.2458 365.4 81.1185C366.095 74.7236 360.3 74.9398 358.862 76.3841C358.862 76.3841 355.408 77.5735 357.069 83.227L357.966 86.1078C357.966 86.1078 358.19 87.1659 359.025 87.2972C359.025 87.2972 359.774 87.444 361.003 87.0192L363.514 86.1464C363.514 86.1464 364.364 85.7139 364.457 84.7099L364.581 83.7522C364.604 83.7754 364.712 83.8758 364.735 83.8989C365.292 84.3237 365.887 83.8294 366.582 82.9258C367.27 82.0067 367.339 81.188 366.783 80.7555Z" fill="#DF966C"/>
<path d="M370.724 91.8309C370.724 91.8309 373.352 93.754 374.317 99.9713C374.317 99.9713 372.602 101.941 369.209 101.585L367.795 98.4035L370.724 91.8309Z" fill="#FFCF61"/>
<path d="M366.551 74.3528C366.883 73.8045 367.649 73.7659 368.282 73.7813C369.449 73.8199 371.157 75.1715 371.991 75.9979C373.151 77.141 372.849 79.1105 373.661 80.5238C374.062 81.2189 374.704 81.7287 375.222 82.3388C375.739 82.949 376.157 83.7522 375.948 84.5323C375.724 85.3587 374.882 85.8607 374.495 86.6253C373.923 87.7529 374.48 89.1199 375.152 90.1935C375.824 91.267 376.659 92.3638 376.636 93.6304C376.613 95.1133 375.376 97.2604 375.732 98.6969C377.146 104.412 373.869 106.243 368.506 106.791C367.03 106.938 357.943 107.115 356.467 107.007C354.991 106.907 351.969 105.486 351.158 104.25C350.362 103.022 350.362 101.408 350.826 100.025C351.289 98.6351 352.155 97.4303 353.02 96.2486C353.561 95.5149 354.148 94.619 353.862 93.754C353.739 93.3833 353.476 93.0743 353.267 92.7345C352.448 91.3752 352.827 89.4212 354.094 88.4635C354.627 88.0618 355.269 87.8301 355.779 87.4054C357.193 86.216 357.062 84.0225 356.66 82.223C356.258 80.4234 355.748 78.3999 356.722 76.8321C357.564 75.465 359.612 74.8703 360.995 74.0671C363.159 72.8159 364.99 73.4569 367.115 74.2216L366.551 74.3528Z" fill="#EDB057"/>
<path d="M362.517 176.402C362.517 176.402 364.897 178.124 363.738 180.75V184.249H362.363V180.982L360.941 184.187H353.592C353.592 184.187 353.592 182.642 356.861 182.395C356.861 182.395 358.746 183.121 359.766 181.715L362.517 176.402Z" fill="#2A4053"/>
<path d="M384.278 176.178L384.665 176.881L382.091 182.542L379.518 183.276L378.962 182.449C378.962 182.449 381.404 179.259 381.705 175.992L382.246 173.737L384.278 176.178Z" fill="#F7907C"/>
<path d="M384.618 176.456C384.618 176.456 386.998 178.178 385.839 180.812V184.311H384.464V181.044L383.042 184.249H375.693C375.693 184.249 375.693 182.704 378.962 182.457C378.962 182.457 380.53 181.329 381.551 179.931L384.618 176.456Z" fill="#2A4053"/>
<path d="M384.464 181.028C384.464 181.028 383.127 180.132 380.299 184.218L383.05 184.233L384.464 181.028Z" fill="#25173F"/>
<path d="M338.971 75.6581L338.261 70.4371C338.261 70.4371 337.812 69.1319 337.55 71.6729C337.55 71.6729 337.171 72.7232 336.282 71.5416C335.394 70.3599 333.323 67.3169 333.323 67.3169C333.323 67.3169 332.496 66.7376 332.82 67.7417L334.837 71.3253L333.253 72.8468C333.253 72.8468 332.673 73.3334 332.959 73.874L337.998 77.728L338.971 75.6581Z" fill="#DF966C"/>
<path d="M83.0718 229.948C78.5279 248.708 78.2111 250.469 74.4941 299.922L78.6593 299.883L91.6881 250.191L93.419 300.308L97.306 299.868C97.677 297.141 105.575 240.884 101.17 231.137L83.0718 229.948Z" fill="#43668E"/>
<path d="M93.4345 299.875L91.6958 250.291L94.3927 247.472L93.4345 299.875Z" fill="#395777"/>
<path d="M72.1217 303.227C72.5313 301.181 74.185 298.748 76.1633 298.748C78.1415 298.748 79.7952 301.181 80.2048 303.227H72.1217Z" fill="#43668E"/>
<path d="M95.7219 298.918C95.7219 298.918 93.1486 301.258 96.881 299.095C96.881 299.095 96.4482 299.25 98.0556 299.937C98.0556 299.937 104.33 298.447 104.632 303.22H93.1331C93.1331 303.22 92.1285 301.32 93.1331 300.03C93.1254 300.03 94.4159 297.296 95.7219 298.918Z" fill="#43668E"/>
<path d="M99.0756 203.519C99.0756 203.519 84.4164 199.719 83.9141 208.323C83.4118 216.926 83.2804 230.697 79.7103 237.586C79.7103 237.586 89.3775 242.043 102.909 241.672C102.909 241.672 104.949 231.524 109.755 216.95C109.755 216.965 114.322 207.203 99.0756 203.519Z" fill="white"/>
<path d="M97.8624 195.27C97.8624 195.27 98.4034 199.819 94.5086 203.866C94.5086 203.866 93.3727 204.345 95.3123 205.836C97.8856 207.828 104.895 210.091 103.797 206.06C103.797 206.06 102.963 204.013 103.65 199.912L97.8624 195.27Z" fill="#DF966C"/>
<path d="M97.6847 197.881C97.6847 197.881 97.4992 199.634 98.8438 200.615L103.388 203.712C103.388 203.712 103.349 201.588 103.48 201.202L98.0788 196.174L97.8392 196.822C97.8392 196.822 97.7388 197.61 97.6847 197.881Z" fill="#CA896C"/>
<path d="M126.679 242.414L127.761 243.086C127.761 243.086 137.065 243.626 133.757 244.298C130.457 244.97 131.532 245.441 133.556 245.511C135.581 245.58 135.851 244.839 135.851 244.839C135.851 244.839 136.995 243.286 136.995 245.85C136.995 248.415 132.814 249.017 131.13 248.546C131.13 248.546 128.773 247.735 127.22 246.19L124.662 244.908L126.679 242.414Z" fill="#DF966C"/>
<path d="M110.057 212.377L115.157 233.315L128.703 242.614L126.679 246.453L109.492 238.367L106.463 226.079L110.057 212.377Z" fill="white"/>
<path d="M96.4946 192.729C97.0664 192.443 97.6846 192.343 98.0247 193.455C98.6274 185.848 105.343 187.377 106.695 189.385C106.695 189.385 110.389 191.277 107.197 197.502L105.59 200.916C105.59 200.916 105.095 202.098 104.099 202.067C104.099 202.067 103.194 202.067 101.858 201.31L99.122 199.734C99.122 199.734 98.2333 199.047 98.3415 197.85L98.411 196.707C98.3801 196.73 98.2333 196.822 98.1947 196.838C97.4528 197.216 96.8655 196.498 96.255 195.293C95.6523 194.081 95.7528 193.108 96.4946 192.729Z" fill="#DF966C"/>
<path d="M106.17 198.452C105.868 199.248 105.304 199.773 104.555 199.634C103.805 199.487 103.109 198.722 103.117 197.873L106.17 198.452Z" fill="white"/>
<path d="M101.819 208.245C101.819 208.245 103.488 206.461 103.534 204.762L105.915 206.152L104.439 211.79L101.765 208.84L99.8407 212.277C99.8407 212.277 94.0836 207.767 92.9554 202.646L96.2551 201.511C96.2783 201.503 95.4359 205.596 101.819 208.245Z" fill="#C6C6F7"/>
<path d="M101.842 208.632L100.505 211.103L101.796 211.126C101.796 211.126 101.147 217.065 97.9474 226.519L99.7016 229.369L102.337 227.206C102.337 227.206 103.983 217.846 102.994 211.111L103.867 211.118L101.842 208.632Z" fill="#2A4053"/>
<path d="M98.2101 194.66C98.2101 194.66 99.8098 188.782 103.952 190.512C108.094 192.25 109.477 195.795 111.811 190.76C114.384 185.207 106.579 187.477 106.579 187.477C106.579 187.477 95.3664 182.496 96.6724 192.66C96.6801 192.66 97.6538 192.096 98.2101 194.66Z" fill="#BC5713"/>
<path d="M69.5098 242.529C69.5098 242.529 67.5161 252.925 67.3615 248.16C67.207 243.402 66.5579 247.766 66.5579 247.766L66.782 251.558C66.782 251.558 66.6738 253.829 65.4296 249.635C64.1855 245.441 65.4528 244.136 65.4528 244.136L66.8902 241.533L69.5098 242.529Z" fill="#DF966C"/>
<path d="M87.5074 203.465C87.5074 203.465 77.5852 205.473 66.0556 241.904L69.873 243.163C69.873 243.163 80.8076 224.094 83.4118 218.162L84.3391 209.11L87.5074 203.465Z" fill="white"/>
<path opacity="0.39" d="M187.186 237.996C177.086 244.136 164.235 242.012 156.569 233.563C156.615 233.532 156.67 233.501 156.716 233.47C156.507 233.339 156.306 233.192 156.105 233.037C155.271 232.057 154.498 231.006 153.81 229.871C153.47 229.315 153.169 228.751 152.883 228.179C152.875 228.141 152.868 228.11 152.868 228.071C152.86 228.079 152.844 228.079 152.837 228.087C147.25 216.919 151.075 203.109 161.94 196.506C173.384 189.547 188.353 193.192 195.315 204.623C202.278 216.077 198.63 231.037 187.186 237.996Z" fill="#FAFDFF"/>
<path d="M158.076 231.57C157.813 231.408 157.558 231.23 157.303 231.029C156.476 230.388 155.773 229.523 155.217 228.643C154.83 228.033 154.622 227.353 154.552 226.65C154.428 226.72 154.305 226.789 154.181 226.866L104.647 254.964C102.352 256.354 101.494 259.158 102.731 261.189L103.179 261.931C104.415 263.962 107.306 264.479 109.593 263.089L157.326 232.033C157.589 231.879 157.836 231.724 158.076 231.57Z" fill="#2A4053"/>
<path opacity="0.4" d="M194.473 203.928L198.375 216.471L178.855 240.344L160.711 235.756L194.473 203.928Z" fill="url(#paint2_linear)"/>
<path d="M152.242 230.218C144.815 218.023 148.702 202.059 160.904 194.645C173.106 187.222 189.079 191.107 196.498 203.302C203.924 215.498 200.037 231.462 187.835 238.876C175.633 246.298 159.668 242.414 152.242 230.218ZM193.322 205.241C186.962 194.799 173.292 191.47 162.836 197.827C152.388 204.183 149.058 217.846 155.418 228.288C161.777 238.73 175.448 242.058 185.895 235.702C196.351 229.346 199.681 215.683 193.322 205.241Z" fill="#2A4053"/>
<path d="M132.173 250.176H131.192C131.107 250.176 131.029 250.106 131.029 250.013V246.507C131.029 246.422 131.099 246.345 131.192 246.345H132.173C132.258 246.345 132.335 246.414 132.335 246.507V250.013C132.335 250.098 132.258 250.176 132.173 250.176Z" fill="#DF966C"/>
<path d="M133.564 249.828H132.467C132.366 249.828 132.289 249.751 132.289 249.65V245.742C132.289 245.642 132.366 245.565 132.467 245.565H133.564C133.664 245.565 133.742 245.642 133.742 245.742V249.65C133.742 249.743 133.664 249.828 133.564 249.828Z" fill="#DF966C"/>
<path d="M134.955 249.002H133.858C133.757 249.002 133.68 248.924 133.68 248.824V244.916C133.68 244.815 133.757 244.738 133.858 244.738H134.955C135.055 244.738 135.133 244.815 135.133 244.916V248.824C135.133 248.924 135.055 249.002 134.955 249.002Z" fill="#DF966C"/>
<path d="M136.3 247.959H135.202C135.102 247.959 135.024 247.882 135.024 247.781V243.873C135.024 243.773 135.102 243.696 135.202 243.696H136.3C136.4 243.696 136.477 243.773 136.477 243.873V247.781C136.477 247.882 136.4 247.959 136.3 247.959Z" fill="#DF966C"/>
<defs>
<linearGradient id="paint0_linear" x1="166.5" y1="177.958" x2="168.16" y2="177.361" gradientUnits="userSpaceOnUse">
<stop offset="0.00510204" stop-color="#FFB880"/>
<stop offset="0.4924" stop-color="#FF9F80"/>
<stop offset="1" stop-color="#FF8180"/>
</linearGradient>
<linearGradient id="paint1_linear" x1="178.178" y1="177.958" x2="176.518" y2="177.361" gradientUnits="userSpaceOnUse">
<stop offset="0.00510204" stop-color="#FFB880"/>
<stop offset="0.4924" stop-color="#FF9F80"/>
<stop offset="1" stop-color="#FF8180"/>
</linearGradient>
<linearGradient id="paint2_linear" x1="182.486" y1="239.552" x2="175.592" y2="208.058" gradientUnits="userSpaceOnUse">
<stop stop-color="white"/>
<stop offset="0.9949" stop-color="white"/>
</linearGradient>
</defs>
</svg>
