<svg width="482" height="329" viewBox="0 0 482 329" fill="none" xmlns="http://www.w3.org/2000/svg">
<path opacity="0.26" d="M3.32832 177.642C11.5142 208.778 25.269 237.418 40.7657 264.234C52.3453 284.277 65.6503 304.131 84.001 314.537C100.144 323.683 118.535 324.582 136.363 325.327C157.06 326.186 177.75 327.053 198.448 327.912C221.664 328.877 244.946 329.843 268.113 327.74C312.076 323.74 354.829 308.745 396.478 291.336C425.182 279.335 455.84 303.689 470.478 271.646C480.43 249.852 481.223 184.048 481.779 159.187C482.278 137.034 482.622 113.931 474.779 93.8808C467.002 73.9937 452.176 59.6449 437.832 46.0323C419.261 28.3949 399.643 10.1849 376.336 5.30921C354.641 0.768968 332.651 8.40967 311.152 14.1852C246.148 31.6344 198.66 44.0772 133.173 34.0068C91.7453 27.6341 60.6129 30.9718 34.2235 73.7319C11.6614 110.291 -8.06318 134.367 3.32832 177.642Z" fill="#CAE5FF"/>
<path opacity="0.3" d="M259.878 308.614C284.223 306.929 308.535 304.704 332.848 302.478C352.212 300.703 371.822 298.871 390.173 291.246C416.505 280.317 439.231 297.161 452.683 267.801C467.239 236.035 470.715 159.007 473.912 122.93C476.137 97.8975 478.107 71.1796 468.482 48.8219C459.716 28.4767 442.387 15.0442 424.168 8.39331C405.948 1.74247 386.648 1.04711 367.619 0.400846C283.839 -2.43783 215.874 10.6512 132.102 7.80431C105.925 6.91262 78.661 6.28271 54.9049 19.5517C31.1569 32.8206 12.3156 64.5451 18.8659 95.0588C22.6521 112.696 18.2526 111.216 20.8122 129.164C23.9442 151.137 13.2396 172.104 8.7501 193.733C-3.40192 252.241 36.5051 319.355 87.3702 321.057C108.812 321.776 130.483 314.005 151.933 312.745C187.89 310.626 223.913 311.101 259.878 308.614Z" fill="#CAE5FF"/>
<path d="M82.9134 224.632V92.5392H98.5736V54.2539H107.847V92.8255H124.08V131.978H135.389V88.4734H162.637V131.683H175.828V56.2827H187.571V51.3579H197.425V45.2634H228.157V50.7771H238.878V56.5772H253.377V80.6445H271.932V33.3769H298.599V53.673H311.357V101.235H327.009V63.5389H336.29V26.996H344.402V64.1197H354.837V123.274H364.119V89.635H380.352V226.947L82.9134 224.632Z" fill="#D1E5EC"/>
<path d="M429.45 269.085H51.9282V166.001L106.71 149.893V207.714H125.38V199.975H130.319V185.798H138.301V199.975H142.864V207.714H148.147V183.221H174.659V157.6H181.749V125.106H202.373V157.6H209.455V199.959H233.178V140.887H263.46V174.133H275.162V131.07H287.797V174.133H293.268V224.149H304.659V147.971L362.884 131.242V157.673H370.637V144.707H375.118V114.316H384.203V144.707H388.292V157.6H397.238V178.215H429.647L429.45 269.085Z" fill="#D1E5EC"/>
<path d="M259.265 271.597C261.833 268.275 270.256 254.548 270.256 250.024C270.256 239.152 241.102 214.635 218.033 239.905C217.06 240.968 215.195 240.068 213.846 240.363C212.579 230.71 204.344 223.257 194.35 223.257C185.862 223.257 178.641 228.648 175.885 236.183C171.363 232.501 165.606 230.301 159.326 230.301C146.29 230.301 135.479 239.807 133.419 252.258C131.628 251.726 129.739 251.431 127.776 251.431C122.15 251.431 117.096 253.804 113.506 257.583C112.958 244.895 102.507 234.784 89.6927 234.784C78.293 234.784 68.766 242.793 66.4108 253.493C63.2788 251.382 59.5089 250.155 55.4446 250.155C44.5765 250.155 35.7609 258.974 35.7609 269.846C35.7609 270.443 35.8018 271.024 35.8509 271.605H259.265V271.597Z" fill="#7CA2DB"/>
<path d="M253.647 271.597C251.079 268.275 249.542 264.119 249.542 259.587C249.542 248.715 254.276 233.647 265.145 233.647C266.584 233.647 267.982 233.81 269.331 234.105C270.599 224.452 282.915 223.249 292.908 223.249C301.396 223.249 308.617 228.64 311.373 236.175C315.895 232.493 321.652 230.293 327.933 230.293C340.968 230.293 351.779 239.799 353.84 252.249C355.63 251.718 357.519 251.423 359.482 251.423C365.108 251.423 370.162 253.796 373.752 257.575C374.3 244.887 384.751 234.776 397.566 234.776C408.965 234.776 418.492 242.784 420.847 253.485C423.979 251.374 427.749 250.147 431.814 250.147C442.682 250.147 451.497 258.966 451.497 269.838C451.497 270.435 451.456 271.016 451.407 271.597H253.647Z" fill="#7CA2DB"/>
<path d="M386.607 193.979C381.505 182.42 374.038 172.816 369.434 167.506C369.156 166.95 368.829 166.386 368.437 165.838C367.856 164.79 367.104 163.866 366.139 163.13C362.925 160.217 358.444 158.794 358.444 158.794C358.247 158.729 358.059 158.671 357.863 158.606C357.806 158.328 357.748 158 357.691 157.681C357.667 157.51 357.642 157.338 357.618 157.158C358.19 157.191 358.517 157.133 358.517 157.133C359.785 156.929 360.128 155.309 360.128 155.309L361.33 150.597C362.05 148.102 362.14 146.204 361.895 144.764C363.522 145.124 364.626 144.462 365.501 140.928C367.39 133.262 358.084 138.056 358.084 138.056C358.084 138.056 342.693 134.498 346.815 147.03C346.75 147.079 346.676 147.128 346.611 147.178C345.76 147.84 345.875 149.1 346.938 150.474C347.821 151.611 348.598 152.323 349.317 152.168C349.325 152.364 349.35 152.74 349.366 153.043C349.391 154.336 349.252 155.955 348.704 157.755C343.462 158.393 340.036 160.708 340.036 160.708C340.15 160.774 340.256 160.847 340.371 160.921C336.814 162.353 335.317 164.381 334.687 165.968C331.621 170.132 325.52 183 325.978 219.241H326.682L326.134 222.161C326.134 222.161 325.136 224.239 328.284 228.771C331.433 233.303 330.664 230.538 330.664 230.538L328.898 226.08C328.898 226.08 327.941 220.582 330.01 226.235C331.809 231.135 330.746 221.801 330.435 219.249H331.809C331.809 219.249 333.297 198.421 334.859 188.547C334.655 208.712 332.218 223.74 332.218 223.74L334.843 223.732C333.281 235.43 332.046 251.832 329.568 286.493C328.023 287.581 326.861 289.684 326.502 291.549L336.928 291.508C336.617 290.003 335.791 288.334 334.655 287.189L351.444 222.717L353.938 286.518C353.022 287.352 351.313 289.316 352.433 291.549H367.881C367.881 291.549 368.739 286.395 361.216 286.714L359.171 284.996C360.275 276.685 364.634 242.801 365.264 219.388C365.722 220.173 366.4 220.819 367.39 221.122L370.767 221.809L370.8 205.342C375.739 202.896 382.494 199.501 384.465 198.282C387.695 196.31 386.607 193.979 386.607 193.979ZM370.833 197.627L370.857 184.792L378.274 193.406L370.833 197.627Z" fill="#1FACC5"/>
<path d="M193.778 211.51L194.637 211.461C191.946 177.47 184.684 167.359 182.591 165.101C182.166 164.57 181.651 164.071 181.021 163.629C181.266 160.397 182.771 133.745 166.612 139.177C166.612 139.177 153.577 135.16 161.893 162.835C161.901 162.868 161.901 162.901 161.91 162.933C161.493 163.277 161.239 163.539 161.239 163.539C160.765 164.103 160.34 164.709 159.955 165.339C156.921 169.273 150.453 178.166 144.557 189.668C144.557 189.668 143.477 191.975 146.666 193.946C148.572 195.124 153.29 198.74 156.774 201.464C156.635 201.824 156.635 202.217 156.88 202.413C156.561 209.727 156.014 214.839 156.014 214.839C157.15 214.635 157.894 213.596 158.385 212.32C158.475 233.565 163.766 277.691 164.878 286.78H164.813L156.946 289.946C156.946 289.946 155.695 289.798 155.695 290.617C155.695 291.435 156.512 291.672 159.677 291.484C162.842 291.296 169.662 290.911 169.662 290.911C169.662 290.911 171.15 290.96 170.382 288.94L169.229 286.584H169.196L170.815 217.727L183.613 287.017L183.433 287.025L179.557 289.864C179.557 289.864 178.747 290.085 178.747 290.903C178.747 291.721 179.124 291.59 182.288 291.402C185.453 291.214 187.506 291.124 187.506 291.124C187.506 291.124 188.994 291.173 188.225 289.152L187.841 286.829L187.727 286.837C186.827 247.938 185.625 227.02 184.578 215.797C185.061 215.731 185.551 215.666 186.066 215.576C186.066 215.576 186.377 209.457 183.728 202.045C183.662 201.448 183.458 200.785 183.082 200.049C182.73 199.362 182.387 198.715 182.068 198.102C181.953 197.865 181.839 197.627 181.716 197.39C178.813 191.77 180.179 184.457 181.716 179.532C186.614 190.118 189.428 205.923 190.155 210.422H189.787C189.787 210.422 189.967 210.487 190.196 210.643C190.303 211.305 190.36 211.665 190.36 211.665L191.006 211.633C191.308 212.32 191.398 213.367 190.801 214.946C189.395 218.668 191.603 223.29 191.603 219.47C191.603 215.649 192.51 216.958 192.51 216.958L193.606 219.519C193.271 227.773 194.923 223.184 194.923 223.184L195.602 218.521L193.778 211.51ZM156.668 180.669C157.06 185.913 157.142 191.255 157.06 196.114L149.799 189.709L156.668 180.669Z" fill="#1FACC5"/>
<path d="M135.569 286.518C132.993 252.241 131.693 235.986 130.098 224.378H132.715C132.715 224.378 130.262 209.645 129.951 189.79C131.709 200 133.574 219.666 133.574 219.666L134.956 219.633C134.703 222.21 133.852 231.618 135.545 226.644C137.499 220.918 136.665 226.464 136.665 226.464L134.989 230.988C134.989 230.988 134.277 233.786 137.344 229.156C140.402 224.525 139.356 222.456 139.356 222.456L138.734 219.535L139.437 219.519C139.086 185.577 133.484 172.153 130.148 167.138C129.591 165.527 128.128 163.351 124.358 161.845C124.464 161.772 124.579 161.698 124.685 161.633C124.685 161.633 121.267 159.334 116.041 158.72C115.485 156.937 115.338 155.325 115.362 154.033C115.371 153.722 115.395 153.338 115.403 153.141C116.123 153.288 116.892 152.593 117.767 151.456C118.821 150.082 118.928 148.822 118.085 148.167C117.971 148.077 117.857 147.996 117.734 147.93C117.758 147.938 117.775 147.947 117.775 147.947C121.348 138.244 114.831 139.504 114.831 139.504C112.108 135.414 104.273 138.383 104.273 138.383C98.3364 141.304 101.207 145.345 101.207 145.345C101.632 145.877 102.172 146.245 102.777 146.482C102.662 147.824 102.826 149.509 103.447 151.62L104.658 156.307C104.658 156.307 105.001 157.919 106.269 158.115C106.269 158.115 106.596 158.172 107.168 158.14C107.144 158.32 107.119 158.491 107.095 158.663C107.037 158.982 106.98 159.309 106.931 159.588C106.743 159.645 106.547 159.71 106.359 159.776C106.359 159.776 101.902 161.207 98.7126 164.12C97.7558 164.856 97.0117 165.78 96.4392 166.827C96.3901 166.893 96.3493 166.958 96.3002 167.032C92.9719 170.77 85.1622 180.325 79.3152 193.562C79.3152 193.562 78.2603 195.819 81.3841 197.75C83.2977 198.928 89.0548 202.888 93.2417 205.775C93.2254 206.258 93.4953 206.634 94.2231 206.503L94.313 222.586L97.674 221.883C98.6635 221.58 99.3341 220.934 99.7839 220.149C100.52 243.889 105.148 278.436 106.171 285.896L104.78 287.066C97.8376 286.78 98.6308 291.533 98.6308 291.533H112.884C113.98 289.34 112.116 287.418 111.331 286.747L113.563 223.405L130.344 287.426C129.322 288.563 128.577 290.118 128.291 291.533H138.677C138.293 289.692 137.123 287.59 135.569 286.518ZM94.084 184.841L94.1658 198.585L87.4029 193.03L94.084 184.841Z" fill="#1FACC5"/>
<path d="M320.728 188.171C316.615 179.802 312.248 173.527 308.871 169.314C309.844 168.292 310.612 167.097 310.637 165.715C310.67 164.013 309.557 162.541 308.658 161.093C307.758 159.653 307.014 157.812 307.791 156.299C308.314 155.276 309.451 154.606 309.746 153.493C310.024 152.454 309.476 151.366 308.781 150.548C308.085 149.73 307.227 149.035 306.687 148.102C305.608 146.204 306.008 143.57 304.463 142.024C303.351 140.911 301.069 139.095 299.499 139.038C298.804 139.013 298.002 139.046 297.487 139.455C294.838 138.506 292.491 137.819 289.743 139.398C287.878 140.469 285.131 141.263 283.994 143.087C282.686 145.198 283.364 147.906 283.896 150.327C284.427 152.749 284.591 155.694 282.694 157.281C282.015 157.853 281.148 158.156 280.437 158.696C278.728 159.972 278.212 162.59 279.308 164.422C279.578 164.872 279.938 165.289 280.101 165.788C280.478 166.958 279.693 168.153 278.957 169.134C277.787 170.705 276.618 172.333 275.996 174.19C275.375 176.047 275.367 178.215 276.422 179.867C276.904 180.612 277.583 181.201 278.351 181.634C277.141 188.203 276.225 197.21 276.209 209.497L277.01 209.481L275.841 216.14L276.806 220.419C276.806 220.419 278.67 224.558 277.763 216.917L278.597 214.463C278.597 214.463 279.341 213.187 279.619 216.729C279.897 220.271 281.614 215.821 280.036 212.475C279.905 212.197 279.799 211.935 279.709 211.682C280.306 211.747 280.887 211.804 281.443 211.837C280.322 222.644 278.981 244.11 277.992 286.747L277.869 286.739L277.476 289.111C276.691 291.173 278.212 291.124 278.212 291.124C278.212 291.124 280.306 291.205 283.536 291.402C286.774 291.598 287.159 291.729 287.159 290.895C287.159 290.06 286.333 289.831 286.333 289.831L282.375 286.935L282.195 286.927L295.263 216.148L296.915 286.485H296.882L295.705 288.89C294.919 290.952 296.44 290.903 296.44 290.903C296.44 290.903 303.4 291.295 306.638 291.492C309.876 291.688 310.711 291.443 310.711 290.608C310.711 289.774 309.435 289.921 309.435 289.921L301.396 286.682H301.331C302.476 277.388 307.881 232.223 307.963 210.545C308.323 210.954 308.756 211.248 309.288 211.346C309.288 211.346 308.944 208.058 308.666 203.051C308.854 202.969 308.952 202.822 308.977 202.626C312.403 198.944 316.909 194.134 318.545 192.564C321.309 189.905 320.728 188.171 320.728 188.171ZM284.795 182.305C285.303 182.199 285.801 182.076 286.3 181.937C287.159 186.085 287.388 191.001 285.319 194.985C285.082 195.443 284.845 195.901 284.616 196.351C284.427 196.711 284.231 197.079 284.035 197.472C283.978 197.578 283.945 197.676 283.896 197.783C282.677 200.204 281.59 202.479 280.674 204.458C281.263 198.969 282.506 189.905 284.795 182.305ZM308.413 196.654C308.282 191.885 308.298 186.412 308.65 180.988L315.339 188.203L308.413 196.654Z" fill="#1FACC5"/>
<path d="M279.177 220.128C302.515 196.781 302.515 158.929 279.177 135.582C255.838 112.235 217.999 112.235 194.661 135.582C171.322 158.929 171.322 196.781 194.661 220.128C217.999 243.475 255.838 243.475 279.177 220.128Z" fill="#BBEAFF"/>
<path d="M247.186 193.529C254.677 219.47 248.773 264.79 249.378 287.312L243.842 287.262L235.304 220.762L230.242 287.246H225.099C224.6 283.614 215.833 208.737 221.689 195.762L247.186 193.529Z" fill="#43668E"/>
<path d="M235.909 156.651H234.102C228.983 156.872 214.901 158.753 217.559 172.783C220.674 189.193 217.992 207.583 217.992 207.583C217.992 207.583 225.336 209.056 233.219 209.293H236.793C244.676 209.048 252.019 207.583 252.019 207.583C252.019 207.583 249.337 189.193 252.453 172.783C255.111 158.745 241.029 156.872 235.909 156.651Z" fill="white"/>
<path d="M228.509 144.781C228.868 145.95 228.623 147.128 227.961 147.407C227.298 147.685 226.456 146.957 226.096 145.787C225.736 144.617 225.982 143.439 226.644 143.161C227.315 142.883 228.149 143.611 228.509 144.781Z" fill="#DF966C"/>
<path d="M240.971 144.781C240.612 145.95 240.857 147.128 241.519 147.407C242.19 147.685 243.024 146.957 243.384 145.787C243.744 144.617 243.498 143.439 242.836 143.161C242.174 142.883 241.339 143.611 240.971 144.781Z" fill="#DF966C"/>
<path d="M239.598 151.121H229.891L229.474 159.727C229.474 159.727 234.601 165.199 240.015 159.727L239.598 151.121Z" fill="#DF966C"/>
<path d="M239.352 146.539L240.227 140.347L234.814 139.954V139.946L234.748 139.954L234.683 139.946V139.954L228.713 140.379L230.169 146.531L229.817 152.822L232.712 156.004C232.712 156.004 233.334 156.675 234.691 156.692V156.7C234.716 156.7 234.732 156.7 234.756 156.7C234.781 156.7 234.797 156.7 234.822 156.7V156.692C236.179 156.675 236.801 156.004 236.801 156.004L239.679 152.822L239.352 146.539Z" fill="#CA896C"/>
<path d="M237.071 137.214L235.77 137.058L234.74 138.784L234.675 138.776V138.784L227.078 139.332L228.051 148.773C228.051 148.773 228.092 149.714 228.64 150.36L232.696 154.843C232.696 154.843 233.317 155.514 234.675 155.53V155.538C234.699 155.538 234.716 155.538 234.74 155.538C234.765 155.538 234.781 155.538 234.805 155.538V155.53C236.163 155.514 236.784 154.843 236.784 154.843L240.841 150.36C241.388 149.705 241.429 148.773 241.429 148.773L242.403 139.332L237.071 137.214Z" fill="#DF966C"/>
<path d="M244.488 139.954C244.488 139.21 244.087 138.563 243.498 138.203C243.76 137.86 243.915 137.434 243.915 136.968C243.915 135.946 243.171 135.103 242.206 134.939C242.174 133.581 241.07 132.485 239.696 132.485C239.164 132.485 238.673 132.657 238.265 132.935C237.864 132.084 237.005 131.487 235.999 131.487C235.157 131.487 234.421 131.904 233.963 132.542C233.513 132.101 232.892 131.822 232.205 131.822C230.995 131.822 229.989 132.681 229.743 133.819C229.49 133.729 229.22 133.671 228.934 133.671C227.544 133.671 226.423 134.8 226.423 136.183C226.423 136.682 226.571 137.14 226.816 137.524C226.055 137.835 225.524 138.58 225.524 139.455C225.524 140.085 225.81 140.641 226.252 141.026C225.867 141.304 225.622 141.746 225.622 142.253C225.622 143.087 226.301 143.774 227.143 143.774C227.985 143.774 228.664 143.095 228.664 142.253C228.664 141.934 228.566 141.639 228.394 141.394C229.007 141.148 229.474 140.617 229.637 139.97C229.956 140.126 230.308 140.216 230.676 140.216C231.363 140.216 231.976 139.921 232.409 139.463C232.851 139.954 233.472 140.265 234.184 140.265C234.715 140.265 235.206 140.085 235.599 139.79C235.967 140.028 236.408 140.167 236.883 140.167C237.349 140.167 237.774 140.028 238.142 139.799C238.575 140.257 239.189 140.543 239.867 140.543C239.966 140.543 240.064 140.527 240.162 140.51C240.26 141.042 240.595 141.476 241.053 141.721C240.865 141.975 240.742 142.286 240.742 142.629C240.742 143.464 241.421 144.151 242.263 144.151C243.106 144.151 243.785 143.472 243.785 142.629C243.785 142.286 243.67 141.975 243.474 141.721C244.071 141.361 244.488 140.707 244.488 139.954Z" fill="#614638"/>
<path d="M231.543 149.763C232.001 151.129 233.203 152.225 234.634 152.225C236.065 152.225 237.275 151.129 237.741 149.763H231.543Z" fill="white"/>
<path d="M237.071 162.091H232.647V164.717H237.071V162.091Z" fill="#F48656"/>
<path d="M229.318 155.726L234.92 162.074L231.314 166.623L225.279 158.23L229.318 155.726Z" fill="#E5E5E5"/>
<path d="M240.325 155.726L234.724 162.074L238.322 166.623L244.357 158.23L240.325 155.726Z" fill="#E5E5E5"/>
<path d="M234.683 189.177L237.97 185.774L235.615 164.316L234.683 164.373L233.742 164.316L231.387 185.774L234.675 189.177H234.683Z" fill="#1FACC5"/>
<path d="M226.456 157.354V211.674C226.456 211.674 224.927 218.333 215.841 217.711L216.308 168.333C216.308 168.324 216.152 158.679 226.456 157.354Z" fill="#43668E"/>
<path d="M226.456 157.354V194.151L221.991 158.647C221.991 158.647 223.169 157.649 226.456 157.354Z" fill="#395A79"/>
<path d="M242.95 157.362V211.682C242.95 211.682 244.48 218.341 253.565 217.719L253.099 168.341C253.099 168.341 253.254 158.696 242.95 157.362Z" fill="#43668E"/>
<path d="M242.95 157.362V194.159L247.415 158.655C247.415 158.655 246.246 157.657 242.95 157.362Z" fill="#395A79"/>
<path d="M223.831 204.303H217.248V205.244H223.831V204.303Z" fill="#395A79"/>
<path d="M251.332 204.303H244.749V205.244H251.332V204.303Z" fill="#395A79"/>
<path d="M213.683 200.114L216.005 201.75C216.005 201.75 216.422 203.084 215.98 207.305C215.98 207.305 215.612 210.16 213.584 208.131L210.452 202.699L213.683 200.114Z" fill="#DF966C"/>
<path d="M220.266 160.087C220.266 160.087 211.564 166.304 196.362 184.825C196.362 184.825 193.786 187.132 195.994 189.889L210.362 204.998L214.23 199.836L204.286 187.303L217.362 177.168L220.266 160.087Z" fill="#43668E"/>
<path d="M255.847 200.114L253.524 201.75C253.524 201.75 253.107 203.084 253.549 207.305C253.549 207.305 253.917 210.16 255.945 208.131L259.077 202.699L255.847 200.114Z" fill="#DF966C"/>
<path d="M249.264 160.087C249.264 160.087 257.965 166.304 273.167 184.825C273.167 184.825 275.743 187.132 273.535 189.889L259.167 204.998L255.299 199.836L265.243 187.303L252.167 177.168L249.264 160.087Z" fill="#43668E"/>
<path d="M244.987 286.084C244.987 286.084 241.47 288.588 242.95 291.557H258.423C258.423 291.557 259.281 286.395 251.75 286.706L249.051 284.44L244.987 286.084Z" fill="#395777"/>
<path d="M229.163 286.084C229.163 286.084 232.679 288.588 231.199 291.557H215.727C215.727 291.557 214.868 286.395 222.4 286.706L225.099 284.44L229.163 286.084Z" fill="#395777"/>
<path d="M370.391 279.417L356.718 295.672L285.482 236.175L299.147 219.92L370.391 279.417Z" fill="#395777"/>
<path d="M276.839 129.753C249.321 106.593 208.097 110.144 184.938 137.672C161.787 165.199 165.336 206.438 192.854 229.605C215.326 248.519 246.933 249.615 270.378 234.391L281.917 244.102C283.912 245.779 286.922 245.525 288.598 243.529L306.924 221.744C308.601 219.748 308.347 216.737 306.352 215.06L294.813 205.35C305.788 179.63 299.303 148.666 276.839 129.753ZM275.677 214.046C256.73 236.567 223.005 239.479 200.492 220.525C177.979 201.57 175.068 167.834 194.015 145.304C212.963 122.783 246.688 119.871 269.201 138.825C291.714 157.78 294.625 191.516 275.677 214.046Z" fill="#2A4053"/>
<path d="M321.08 274.345L381.897 325.294C383.893 326.971 386.902 326.718 388.578 324.722L404.361 305.963C406.038 303.967 405.784 300.957 403.789 299.28L342.971 248.331L321.08 274.345Z" fill="#2A4053"/>
<path d="M432.836 113.261C435.445 112.181 437.734 110.586 439.591 108.606L443.262 110.103L446.321 105.375L443.451 102.634C444.489 100.123 445.013 97.3821 444.931 94.5598L448.586 93.0136L447.409 87.5081L443.434 87.5981C442.355 84.9885 440.76 82.6979 438.781 80.8409L440.278 77.1678L435.551 74.1082L432.811 76.9796C430.301 75.9407 427.561 75.4171 424.74 75.4989L423.194 71.8422L417.691 73.0202L417.781 76.996C415.172 78.0758 412.882 79.671 411.026 81.6508L407.354 80.1537L404.296 84.8821L407.166 87.6226C406.128 90.1341 405.604 92.8746 405.686 95.6969L402.031 97.243L403.208 102.749L407.183 102.659C408.262 105.268 409.857 107.559 411.836 109.416L410.339 113.089L415.066 116.148L417.805 113.277C420.316 114.316 423.055 114.84 425.877 114.758L427.422 118.414L432.926 117.236L432.836 113.261ZM418.828 96.5068C418.059 92.9318 420.349 89.406 423.914 88.637C427.488 87.868 431.012 90.1586 431.781 93.7254C432.55 97.3003 430.26 100.826 426.695 101.595C423.129 102.364 419.596 100.082 418.828 96.5068Z" fill="#D1E5EC"/>
<path d="M44.3966 127.986C47.0052 126.906 49.295 125.311 51.1513 123.331L54.8231 124.828L57.8815 120.1L55.0112 117.359C56.0497 114.848 56.5731 112.107 56.4913 109.285L60.1468 107.739L58.9692 102.233L54.9948 102.323C53.9154 99.7136 52.3207 97.423 50.3417 95.566L51.8382 91.8929L47.1115 88.8333L44.372 91.7047C41.8615 90.6658 39.122 90.1422 36.3007 90.2241L34.7551 86.5673L29.2515 87.7453L29.3415 91.7211C26.7328 92.8009 24.443 94.3962 22.5867 96.3759L18.9149 94.8788L15.8565 99.6072L18.7269 102.348C17.6883 104.859 17.1649 107.6 17.2467 110.422L13.5913 111.968L14.7689 117.474L18.7432 117.384C19.8227 119.993 21.4173 122.284 23.3963 124.141L21.8998 127.814L26.6265 130.874L29.366 128.002C31.8765 129.041 34.6161 129.565 37.4374 129.483L38.9829 133.14L44.4865 131.962L44.3966 127.986ZM30.3882 111.232C29.6195 107.657 31.9093 104.131 35.4747 103.362C39.0484 102.593 42.5729 104.884 43.3416 108.45C44.1103 112.025 41.8206 115.551 38.2551 116.32C34.6897 117.089 31.1569 114.807 30.3882 111.232Z" fill="#D1E5EC"/>
<path d="M416.587 51.088L417.658 46.7195L414.78 45.4024C414.91 43.2346 414.583 41.034 413.782 38.9234L416.137 36.7964L413.806 32.9515L410.838 34.0641C409.341 32.3789 407.534 31.07 405.555 30.1865L405.719 27.0206L401.352 25.9489L400.035 28.8285C397.868 28.6976 395.668 29.0248 393.559 29.8265L391.432 27.4705L387.589 29.802L388.701 32.7716C387.016 34.2686 385.708 36.0765 384.825 38.0562L381.66 37.8926L380.589 42.2611L383.467 43.5782C383.336 45.746 383.664 47.9466 384.465 50.0572L382.11 52.1842L384.44 56.0291L387.409 54.9165C388.905 56.6017 390.713 57.9106 392.692 58.7941L392.528 61.96L396.895 63.0317L398.212 60.1521C400.379 60.283 402.578 59.9558 404.688 59.1541L406.815 61.5101L410.658 59.1786L409.546 56.209C411.23 54.712 412.539 52.9041 413.422 50.9244L416.587 51.088ZM396.584 54.4257C391.105 53.0268 387.793 47.4476 389.192 41.9584C390.59 36.4774 396.167 33.1642 401.654 34.5631C407.133 35.962 410.445 41.5412 409.047 47.0304C407.649 52.5196 402.063 55.8327 396.584 54.4257Z" fill="#D1E5EC"/>
<path d="M54.2916 77.8304L54.9948 74.9672L53.1058 74.1082C53.1876 72.693 52.975 71.245 52.4516 69.8707L53.9972 68.48L52.4679 65.9603L50.5217 66.6884C49.5403 65.584 48.3627 64.7332 47.0625 64.1524L47.1688 62.0827L44.3066 61.3792L43.448 63.2689C42.0332 63.1871 40.5858 63.3998 39.2119 63.9234L37.8217 62.3772L35.303 63.907L36.0308 65.854C34.9268 66.8357 34.0764 68.0137 33.4957 69.3144L31.4268 69.208L30.7235 72.0712L32.6126 72.9302C32.5308 74.3455 32.7434 75.7934 33.2668 77.1678L31.7212 78.5585L33.2504 81.0781L35.1967 80.35C36.178 81.4544 37.3556 82.3052 38.6559 82.886L38.5495 84.9557L41.4117 85.6593L42.2704 83.7695C43.6851 83.8513 45.1326 83.6386 46.5064 83.1151L47.8966 84.6612L50.4153 83.1315L49.6875 81.1845C50.7915 80.2028 51.642 79.0248 52.2226 77.7241L54.2916 77.8304ZM41.1991 80.0146C37.6091 79.0984 35.442 75.4417 36.3579 71.8586C37.2738 68.2673 40.9292 66.0994 44.5111 67.0156C48.1011 67.9319 50.2681 71.5886 49.3522 75.1717C48.4363 78.763 44.7809 80.9309 41.1991 80.0146Z" fill="#D1E5EC"/>
</svg>
