<svg width="110" height="110" viewBox="0 0 110 110" fill="none" xmlns="http://www.w3.org/2000/svg">
<path d="M85.3014 61.2904L90.473 56.1421C99.372 47.2664 94.9691 35.2459 87.794 27.535C85.4412 24.9958 82.7389 22.7827 79.9434 21.2219C76.3093 19.1719 64.8944 16.19 57.4165 23.4583L41.9249 38.88C37.7316 43.0499 48.3079 47.0801 53.6426 41.8153L57.5563 37.9715C63.3336 32.7299 70.5785 43.213 79.594 36.0845" stroke="#EDEDED" stroke-width="3" stroke-miterlimit="22.9256" stroke-linecap="round" stroke-linejoin="round"/>
<path d="M24.9889 58.8445L19.8406 53.6961C2.64836 36.5505 32.4202 7.10478 49.8454 24.064L53.3165 27.5118" stroke="#EDEDED" stroke-width="3" stroke-miterlimit="22.9256" stroke-linecap="round" stroke-linejoin="round"/>
<path d="M65.7797 41.6989L85.7441 62.6184C89.8208 66.8815 83.7639 75.0117 78.5457 69.6304L69.1808 59.986" stroke="#EDEDED" stroke-width="3" stroke-miterlimit="22.9256" stroke-linecap="round" stroke-linejoin="round"/>
<path d="M61.0273 66.4852L71.3007 77.0382C75.4241 81.278 83.7406 75.0114 78.5224 69.6301L68.482 59.2635" stroke="#EDEDED" stroke-width="3" stroke-miterlimit="22.9256" stroke-linecap="round" stroke-linejoin="round"/>
<path d="M57.9057 78.1566L63.0307 83.3282C67.1774 87.5214 75.261 81.5344 70.066 76.0833" stroke="#EDEDED" stroke-width="3" stroke-miterlimit="22.9256" stroke-linecap="round" stroke-linejoin="round"/>
<path d="M37.2191 54.6046L37.7782 55.1637C39.6419 57.0274 39.6186 60.0558 37.7782 61.9195L30.673 69.0247C28.8327 70.865 25.7809 70.8883 23.9173 69.0247L23.3582 68.4656C21.4945 66.6019 21.4945 63.5735 23.3582 61.7098L30.4634 54.6046C32.327 52.7643 35.3788 52.7643 37.2191 54.6046ZM49.1931 57.866L49.7522 58.4251C51.6158 60.2888 51.5925 63.3172 49.7522 65.1809L38.4305 76.5026C36.5901 78.3429 33.5384 78.3429 31.6747 76.5026L31.1156 75.9435C29.2753 74.1031 29.252 71.0514 31.1156 69.1877L42.4373 57.866C44.2777 56.0024 47.3294 56.0024 49.1931 57.866ZM53.8056 68.4423L54.3647 69.0014C56.2284 70.865 56.2284 73.8935 54.3647 75.7571L46.6073 83.5146C44.7436 85.3782 41.7152 85.3782 39.8515 83.5146L39.2924 82.9555C37.4288 81.0918 37.4288 78.0634 39.2924 76.1997L47.0499 68.4423C48.9135 66.5786 51.942 66.5786 53.8056 68.4423ZM58.7909 78.5293L59.35 79.0884C61.2137 80.952 61.1904 83.9805 59.35 85.8441L54.5744 90.6198C52.734 92.4601 49.6823 92.4601 47.8186 90.6198L47.2596 90.0607C45.4192 88.2203 45.3959 85.1686 47.2596 83.3049L52.0352 78.5293C53.8988 76.6656 56.9506 76.6889 58.7909 78.5293Z" stroke="#EDEDED" stroke-width="3" stroke-miterlimit="22.9256"/>
</svg>
