<svg width="110" height="110" viewBox="0 0 110 110" fill="none" xmlns="http://www.w3.org/2000/svg">
<path d="M67.9683 44.0265C65.873 51.3727 60.1689 56.741 54.7442 57C49.2962 56.741 43.5921 51.3491 41.4967 43.9559L40.4723 44.1207C39.3082 44.309 38.2139 43.485 38.0277 42.3312L37.0266 35.7856C36.8403 34.6084 37.6552 33.5017 38.796 33.3134L39.5177 33.1956C39.1918 32.1596 39.0055 31.0765 39.0055 29.9464V27.5447C39.0055 21.6584 43.7783 16.8316 49.5988 16.8316H50.8561C50.8328 16.6197 50.8561 16.4313 50.9259 16.2665C51.5778 14.5241 55.9083 14.5948 60.6345 16.3842C61.6356 16.761 62.5669 17.2083 63.4283 17.6557C67.2466 19.2803 69.9706 23.0947 69.9706 27.5447V29.9464C69.9706 31.0765 69.7843 32.1596 69.4817 33.1956L70.2034 33.3134C71.3675 33.5017 72.1591 34.6084 71.9728 35.7856L70.9717 42.3312C70.7855 43.5085 69.6912 44.309 68.5271 44.1207L67.9683 44.0265Z" stroke="#EDEDED" stroke-width="3" stroke-miterlimit="22.9256" stroke-linecap="round" stroke-linejoin="round"/>
<path d="M80 88H68" stroke="#EDEDED" stroke-width="3" stroke-miterlimit="22.9256" stroke-linecap="round" stroke-linejoin="round"/>
<path d="M16.9183 93.9535L15 76.6851V74.8698C15 70.8436 19.1173 68.4931 22.5327 67.8182C25.6675 67.1898 37.3642 64.6531 41.154 62.0465L41.3879 62L48.2422 94L52.3595 72.8916L48.8739 63.9549H60.1262L56.6405 72.8916L60.6408 94L67.6121 62L67.846 62.0465C71.6358 64.6531 83.3559 67.1898 86.4673 67.8182C89.8827 68.5164 94 70.8436 94 74.8698V76.6851L92.0817 93.9535" stroke="#EDEDED" stroke-width="3" stroke-miterlimit="22.9256" stroke-linecap="round" stroke-linejoin="round"/>
</svg>
