<svg width="110" height="110" viewBox="0 0 110 110" fill="none" xmlns="http://www.w3.org/2000/svg">
<path d="M56.1586 32.6565L60.9266 21.1586" stroke="#EDEDED" stroke-width="3" stroke-miterlimit="22.9256" stroke-linecap="round" stroke-linejoin="round"/>
<path d="M51.614 32.5077L50.6952 26.2496" stroke="#EDEDED" stroke-width="3" stroke-miterlimit="22.9256" stroke-linecap="round" stroke-linejoin="round"/>
<path d="M55.3887 49.1461V54.3612" stroke="#EDEDED" stroke-width="3" stroke-miterlimit="22.9256" stroke-linecap="round" stroke-linejoin="round"/>
<path d="M55.3887 77.084V82.299" stroke="#EDEDED" stroke-width="3" stroke-miterlimit="22.9256" stroke-linecap="round" stroke-linejoin="round"/>
<path d="M62.9382 57.068C60.5293 56.2733 58.3688 55.5283 56.2083 55.28C44.4868 53.9638 42.9968 65.7598 55.4633 65.7349C67.5821 65.7101 66.4397 77.5061 54.6934 76.1651C52.5081 75.9167 50.3475 75.1717 47.9635 74.377" stroke="#EDEDED" stroke-width="3" stroke-miterlimit="22.9256" stroke-linecap="round" stroke-linejoin="round"/>
<path d="M61.8703 32.0607L62.069 31.9365C63.4597 29.2793 67.8801 24.4119 69.1466 20.4634C73.3186 7.62439 50.6207 19.3459 37.5831 16.6638C36.3165 16.4155 43.5431 24.7844 46.6225 32.0358" stroke="#EDEDED" stroke-width="3" stroke-miterlimit="22.9256" stroke-linecap="round" stroke-linejoin="round"/>
<path d="M46.3741 33.3271H54.5692H62.7643C68.2277 33.3271 76.0007 39.6597 82.4077 47.2091C91.6707 58.1111 102.473 84.7824 84.9904 93.5487C78.8317 96.6281 69.2211 95.9327 55.4136 95.9327C40.6872 95.9327 31.0766 96.5536 25.1414 93.2259C9.17338 84.2858 18.4612 57.3909 27.5751 46.4641C33.56 39.2872 40.9108 33.3271 46.3741 33.3271Z" stroke="#EDEDED" stroke-width="3" stroke-miterlimit="22.9256" stroke-linecap="round" stroke-linejoin="round"/>
</svg>
