<svg width="162" height="36" viewBox="0 0 162 36" fill="none" xmlns="http://www.w3.org/2000/svg">
<path d="M48.628 15.232C49.636 13.664 51.4093 12.88 53.948 12.88V16.212C53.6493 16.156 53.3787 16.128 53.136 16.128C51.7733 16.128 50.7093 16.5293 49.944 17.332C49.1787 18.116 48.796 19.2547 48.796 20.748V28H45.296V13.048H48.628V15.232ZM70.8364 20.608C70.8364 20.8507 70.8177 21.196 70.7804 21.644H59.0484C59.2537 22.7453 59.7857 23.6227 60.6444 24.276C61.5217 24.9107 62.6044 25.228 63.8924 25.228C65.535 25.228 66.8884 24.6867 67.9524 23.604L69.8284 25.76C69.1564 26.5627 68.307 27.1693 67.2804 27.58C66.2537 27.9907 65.0964 28.196 63.8084 28.196C62.1657 28.196 60.719 27.8693 59.4684 27.216C58.2177 26.5627 57.247 25.6573 56.5564 24.5C55.8844 23.324 55.5484 21.9987 55.5484 20.524C55.5484 19.068 55.875 17.7613 56.5284 16.604C57.2004 15.428 58.1244 14.5133 59.3004 13.86C60.4764 13.2067 61.8017 12.88 63.2764 12.88C64.7324 12.88 66.0297 13.2067 67.1684 13.86C68.3257 14.4947 69.2217 15.4 69.8564 16.576C70.5097 17.7333 70.8364 19.0773 70.8364 20.608ZM63.2764 15.68C62.1564 15.68 61.2044 16.016 60.4204 16.688C59.655 17.3413 59.1884 18.2187 59.0204 19.32H67.5044C67.355 18.2373 66.8977 17.36 66.1324 16.688C65.367 16.016 64.415 15.68 63.2764 15.68ZM78.8183 28.196C77.605 28.196 76.4197 28.0373 75.2623 27.72C74.105 27.4027 73.181 27.0013 72.4903 26.516L73.8343 23.856C74.5063 24.304 75.309 24.668 76.2423 24.948C77.1943 25.2093 78.1277 25.34 79.0423 25.34C81.133 25.34 82.1783 24.7893 82.1783 23.688C82.1783 23.1653 81.9077 22.8013 81.3663 22.596C80.8437 22.3907 79.9943 22.1947 78.8183 22.008C77.5863 21.8213 76.5783 21.6067 75.7943 21.364C75.029 21.1213 74.357 20.7013 73.7783 20.104C73.2183 19.488 72.9383 18.6387 72.9383 17.556C72.9383 16.1373 73.5263 15.008 74.7023 14.168C75.897 13.3093 77.5023 12.88 79.5183 12.88C80.545 12.88 81.5717 13.0013 82.5983 13.244C83.625 13.468 84.465 13.776 85.1183 14.168L83.7743 16.828C82.505 16.0813 81.077 15.708 79.4903 15.708C78.4637 15.708 77.6797 15.8667 77.1383 16.184C76.6157 16.4827 76.3543 16.884 76.3543 17.388C76.3543 17.948 76.6343 18.3493 77.1943 18.592C77.773 18.816 78.6597 19.0307 79.8543 19.236C81.049 19.4227 82.029 19.6373 82.7943 19.88C83.5597 20.1227 84.213 20.5333 84.7543 21.112C85.3143 21.6907 85.5943 22.512 85.5943 23.576C85.5943 24.976 84.9877 26.096 83.7743 26.936C82.561 27.776 80.909 28.196 78.8183 28.196ZM95.3285 28.196C93.8165 28.196 92.4538 27.8693 91.2405 27.216C90.0272 26.5627 89.0752 25.6573 88.3845 24.5C87.7125 23.324 87.3765 21.9987 87.3765 20.524C87.3765 19.0493 87.7125 17.7333 88.3845 16.576C89.0752 15.4187 90.0272 14.5133 91.2405 13.86C92.4538 13.2067 93.8165 12.88 95.3285 12.88C96.8592 12.88 98.2312 13.2067 99.4445 13.86C100.658 14.5133 101.601 15.4187 102.273 16.576C102.963 17.7333 103.309 19.0493 103.309 20.524C103.309 21.9987 102.963 23.324 102.273 24.5C101.601 25.6573 100.658 26.5627 99.4445 27.216C98.2312 27.8693 96.8592 28.196 95.3285 28.196ZM95.3285 25.2C96.6165 25.2 97.6805 24.7707 98.5205 23.912C99.3605 23.0533 99.7805 21.924 99.7805 20.524C99.7805 19.124 99.3605 17.9947 98.5205 17.136C97.6805 16.2773 96.6165 15.848 95.3285 15.848C94.0405 15.848 92.9765 16.2773 92.1365 17.136C91.3152 17.9947 90.9045 19.124 90.9045 20.524C90.9045 21.924 91.3152 23.0533 92.1365 23.912C92.9765 24.7707 94.0405 25.2 95.3285 25.2ZM109.987 15.232C110.995 13.664 112.769 12.88 115.307 12.88V16.212C115.009 16.156 114.738 16.128 114.495 16.128C113.133 16.128 112.069 16.5293 111.303 17.332C110.538 18.116 110.155 19.2547 110.155 20.748V28H106.655V13.048H109.987V15.232ZM125 28.196C123.45 28.196 122.06 27.8693 120.828 27.216C119.596 26.5627 118.634 25.6573 117.944 24.5C117.253 23.324 116.908 21.9987 116.908 20.524C116.908 19.0493 117.253 17.7333 117.944 16.576C118.634 15.4187 119.586 14.5133 120.8 13.86C122.032 13.2067 123.432 12.88 125 12.88C126.474 12.88 127.762 13.1787 128.864 13.776C129.984 14.3733 130.824 15.232 131.384 16.352L128.696 17.92C128.266 17.2293 127.725 16.716 127.072 16.38C126.437 16.0253 125.737 15.848 124.972 15.848C123.665 15.848 122.582 16.2773 121.724 17.136C120.865 17.976 120.436 19.1053 120.436 20.524C120.436 21.9427 120.856 23.0813 121.696 23.94C122.554 24.78 123.646 25.2 124.972 25.2C125.737 25.2 126.437 25.032 127.072 24.696C127.725 24.3413 128.266 23.8187 128.696 23.128L131.384 24.696C130.805 25.816 129.956 26.684 128.836 27.3C127.734 27.8973 126.456 28.196 125 28.196ZM148.247 20.608C148.247 20.8507 148.228 21.196 148.191 21.644H136.459C136.664 22.7453 137.196 23.6227 138.055 24.276C138.932 24.9107 140.015 25.228 141.303 25.228C142.945 25.228 144.299 24.6867 145.363 23.604L147.239 25.76C146.567 26.5627 145.717 27.1693 144.691 27.58C143.664 27.9907 142.507 28.196 141.219 28.196C139.576 28.196 138.129 27.8693 136.879 27.216C135.628 26.5627 134.657 25.6573 133.967 24.5C133.295 23.324 132.959 21.9987 132.959 20.524C132.959 19.068 133.285 17.7613 133.939 16.604C134.611 15.428 135.535 14.5133 136.711 13.86C137.887 13.2067 139.212 12.88 140.687 12.88C142.143 12.88 143.44 13.2067 144.579 13.86C145.736 14.4947 146.632 15.4 147.267 16.576C147.92 17.7333 148.247 19.0773 148.247 20.608ZM140.687 15.68C139.567 15.68 138.615 16.016 137.831 16.688C137.065 17.3413 136.599 18.2187 136.431 19.32H144.915C144.765 18.2373 144.308 17.36 143.543 16.688C142.777 16.016 141.825 15.68 140.687 15.68ZM154.941 15.232C155.949 13.664 157.722 12.88 160.261 12.88V16.212C159.962 16.156 159.691 16.128 159.449 16.128C158.086 16.128 157.022 16.5293 156.257 17.332C155.491 18.116 155.109 19.2547 155.109 20.748V28H151.609V13.048H154.941V15.232Z" fill="black"/>
<rect width="36" height="36" rx="12" fill="#1FACC5"/>
<path d="M18.4 23.672H16.608V25.6C16.608 26.7046 15.7126 27.6 14.608 27.6H12C10.8954 27.6 10 26.7046 10 25.6V10C10 8.89543 10.8954 8 12 8H18.436C20.2467 8 21.824 8.29867 23.168 8.896C24.512 9.49333 25.548 10.352 26.276 11.472C27.004 12.592 27.368 13.8987 27.368 15.392C27.368 16.792 27.0507 18.0147 26.416 19.06C25.7813 20.1053 24.8667 20.936 23.672 21.552L27.3958 25.9542C27.9456 26.6041 27.4836 27.6 26.6323 27.6H22.6581C22.0707 27.6 21.5129 27.3417 21.1329 26.8938L18.4 23.672ZM20.704 15.392C20.704 14.664 20.48 14.104 20.032 13.712C19.584 13.3013 18.912 13.096 18.016 13.096H17.904C16.636 13.096 15.608 14.124 15.608 15.392C15.608 16.66 16.636 17.688 17.904 17.688H18.016C18.912 17.688 19.584 17.492 20.032 17.1C20.48 16.6893 20.704 16.12 20.704 15.392Z" fill="white"/>
</svg>
