<?xml version="1.0" encoding="utf-8"?>
<!-- Generator: Adobe Illustrator 20.1.0, SVG Export Plug-In . SVG Version: 6.00 Build 0)  -->
<svg version="1.1" id="Layer_1" xmlns="http://www.w3.org/2000/svg" xmlns:xlink="http://www.w3.org/1999/xlink" x="0px" y="0px"
	 viewBox="0 0 110 30.1" style="enable-background:new 0 0 110 30.1;" xml:space="preserve" fill="#80858e">
<style type="text/css">
	.st0{fill-rule:evenodd;clip-rule:evenodd;fill:#7f858e;}
</style>
<g>
	<path class="st0" d="M40.3,13.9l-1.5-1.9c-0.1-0.1-0.2-0.2-0.3-0.4c-1.1-1.2-2.6-2.2-4.2-2.8c-4.3-1.6-10-0.4-10.9,4.4
		c-0.3,1.6,0,3.4,0.6,4.8c0.4,1,0.9,1.8,1.6,2.6c0.2,0.3,0.4,0.5,0.7,0.7c0.3,0.3,0.7,0.7,1,1c0.6,0.5,1.3,1.1,2,1.5
		c-0.6,0.7-2.5,1.8-3.4,2.3c-4.2,2.3-8.7,3.5-13.8,3.4c-4.3-0.1-10.2-1.7-10.8-6.4c-0.5-4.5,3.7-7.9,8.1-9c3.2-0.8,7.1-0.7,9.6,0.9
		c1,0.7,2,1.9,1.9,3.8c-0.2,3.1-3.2,4.9-5.9,5.5c-0.8,0.2-1.6,0.3-2.5,0.3c-0.7,0-2.3-0.1-2.8,0c0.1,0.4,0.7,0.4,1.1,0.5
		c2.6,0.3,5.5-0.2,7.7-1.6c1.6-1,2.9-2.4,3.2-4.7c0.3-2.3-0.6-3.6-1.7-4.6c-2.3-2.1-6.3-2.8-10.1-2.1c-3.7,0.6-6.5,2.5-8.2,4.6
		c-2.2,2.7-2.3,6.7,0,9.5c2,2.4,5.6,3.6,8.8,3.9c11.9,1.1,18.5-5.4,19.5-5.7c0.6,0.5,3.1,1.6,4.1,1.9c1.5,0.5,3.3,0.9,5,1.1
		c0,0.5-1,2.2-1.2,2.8c1.1-0.1,2.3-0.3,3.4-0.4c0.5-0.1,0.6-0.5,0.8-1c0.2-0.3,0.5-1,0.7-1.2c1.6-0.1,2.9-0.4,4.2-1
		c1.3-0.5,2.3-1.4,3.1-2.1c1.9-1.7,3.1-3.7,5.4-5c1.9-1.1,2.6-0.3,1.2,1.6c-0.8,1-1.5,2-2.2,3c-0.3,0.4-4.3,5.5-4.5,6l2.9-0.2
		c0.5,0,0.4-0.2,0.7-0.4c1.2-1.3,2.3-2.6,3.6-3.7c0.7-0.6,2.2-2.1,2.9-2.5c-0.2,0.9-1,1.9-0.3,2.9c0.5,0.7,1.9,0.8,2.9,0.4
		c1.7-0.7,2.8-2.2,4-3.4c-0.1,0.4-1,1.9-1.2,2.6c-0.4,1-0.8,2.1-0.3,3.2c0.8,2,3.8,1.5,5.7,0.7c1.4-0.6,2.5-1.3,3.5-2.3
		c0.6-0.6,0.6-0.3,1.6-0.3c1.9,0,3.5-0.9,4.7-2.2c0.2-0.2,0.3-0.4,0.5-0.5c0.1,0.8-0.8,3.4,1.7,5.2c1.7,1.2,3.9,0.6,5.5-0.3
		c0.7-0.4,1.5-1,2.1-1.4c1-0.8,2.9-2.5,3.7-3.4c0.6-0.6,1.1-1.2,1.8-1.8c1.3-1.1,3.5-3.5,5.1-3.7c2.1-0.3-0.2,2.4-0.6,3l-2.3,3
		c-0.4,0.6-3.7,4.7-3.8,5.1l2.9-0.2c0.6-0.1,1-0.8,1.7-1.5c0.4-0.4,1.2-1.3,1.6-1.6c0.3-0.2,0.3-0.3,0.5-0.6c0.4-0.4,0.7-0.7,1.1-1
		c0.7-0.7,1.5-1.4,2.3-1.9c-0.1,0.7-0.8,1.4-0.5,2.4c0.2,0.8,1,1.2,2,1.1c1.2,0,2.3-0.8,3.1-1.5c0.1-0.1,0.3-0.3,0.4-0.4
		c0.1-0.1,0.2-0.2,0.2-0.4c0-0.9-1.4,1-2.7,1.5c-1.5,0.6-2.6,0.1-2.2-1.6c0.3-1.2,1.2-1.9,2-2.4c0.5-0.4,4.1-2.4,3-3.2
		c-0.4-0.3-1.2-0.3-1.8-0.1c-2.2,0.6-2.3,3-3.1,3.6l-3.1,2.5c-0.2,0.2-0.4,0.4-0.7,0.5c0.1-0.3,0.3-0.5,0.5-0.8
		c0.8-1.3,2.2-3.6,1.3-5.1c-0.3-0.5-1-0.9-1.9-0.8c-1.4,0.2-3.2,1.7-4.2,2.6l-3.5,3.4c-0.6,0.6-1.4,1.5-2,2
		c-0.2,0.2-0.5,0.4-0.8,0.6c-1.3,1.2-3.5,2.8-5.5,2.7c-0.8-0.1-1.4-0.5-1.6-1.2c-0.1-0.4,0-2.7,0.2-2.4l2.1-0.5
		c1.9-0.5,4.1-1.4,5.5-2.5c3.1-2.4,2-5.4-2.4-4.5c-2.6,0.5-4.5,2-6.4,3.6c-0.1,0.1-0.2,0.2-0.4,0.4c-0.5,0.4-0.9,0.8-1.3,1.3
		c-0.9,1-1.8,1.7-3.1,2.3c-0.9,0.4-1.2,0.4-2.3,0.2c0.1-0.2,0.4-0.5,0.5-0.7c0.5-0.7,1-1.3,1.4-2.1c0.5-1,1.1-2.2,1.1-3.6
		c0-0.7-0.3-1.3-0.8-1.5c-0.8-0.3-1.4,0.1-1.6,0.5c-0.6,1-0.5,2.6-0.8,3.9c-0.3,1.3-0.7,2.4-1.3,3.3c-1.3,1.9-3.4,3.5-5.8,3.5
		c-2.2,0-1.5-1.3-0.8-2.5c0.5-1,1.2-1.9,1.8-2.8c0.6-1,1.2-1.9,1.9-2.8l7.4-11.1c0.4-0.6,3.5-5,3.7-5.6c-0.8,0-2.1,0.2-3,0.3
		c-0.4,0.1-0.4,0.3-0.6,0.6c-0.6,0.9-1.1,1.8-1.8,2.7c-1.8,2.7-3.5,5.5-5.4,8.1c-1.7,2.3-6.2,8.2-8.6,9.4c-1.2,0.6-2.7,0.4-2.4-1.4
		c0.2-1.3,1.1-2,1.9-2.5c0.5-0.4,4.1-2.4,3.2-3.3c-0.4-0.4-1.2-0.4-1.8-0.2c-1.2,0.3-1.8,1.2-2.4,2.2c-0.2,0.4-0.5,1.2-0.8,1.5
		l-2.5,2c-0.4,0.3-0.8,0.8-1.3,1c0.3-0.9,3.1-4,1.8-6c-0.6-0.9-1.8-1-3-0.4c-1.4,0.7-3.4,2.6-4.6,3.7l-1,1c-0.2,0.2-0.3,0.3-0.5,0.5
		c-0.2,0.2-0.4,0.4-0.6,0.5C48,25,47.3,25.5,46.3,26c-0.7,0.4-2.4,0.9-3.4,0.8c0.3-0.9,1.3-2.7,1.8-3.7c1.8-3.7,3.9-7.2,6.1-10.6
		C53.7,8,57,3.9,60.6,0c-0.8,0.2-2.2,0.9-3,1.2C53.8,3,50.2,5.2,47,7.8c-0.4,0.3-0.8,0.7-1.2,1l-4.5,4.1
		C41,13.2,40.7,13.6,40.3,13.9L40.3,13.9z M84,25.3c2.6-0.4,5.3-1.9,6.8-3.8c2.1-2.6-0.1-4.4-4-0.5c-0.6,0.6-1.1,1.1-1.6,1.9
		C84.9,23.4,84.2,24.6,84,25.3L84,25.3z M40.6,14.5c0.7,2.2,1,4.1,0.8,6.5c-0.1,0.7-0.2,1.5-0.3,2.2l1.7-3c2-3.3,4.4-6.7,6.9-9.7
		l2.7-3.2c0.1-0.1,0.2-0.2,0.3-0.3l5-5.1c-1.5,0.5-3.7,1.7-4.9,2.4C51,5.5,48,7.6,46.4,9.1c-0.7,0.6-1.3,1.2-2,1.8
		c-0.2,0.2-0.3,0.3-0.5,0.4c-0.2,0.1-0.3,0.3-0.5,0.4c-0.4,0.4-0.6,0.6-1,0.9L40.6,14.5z M30.5,23.8c0.3,0.3,1.4,0.8,1.8,1.1
		c2.1,1,4.5,1.6,6.9,1.8c1.3-2.4,1.8-6,1.5-8.8c-0.1-0.7-0.4-2.5-0.7-2.9c-0.4,0.3-0.8,0.7-1.2,1.1l-5.6,5.3c-0.5,0.5-1,1-1.5,1.4
		c-0.1,0.1-0.2,0.2-0.3,0.3l-0.8,0.7c0,0,0,0-0.1,0.1C30.5,23.8,30.5,23.7,30.5,23.8L30.5,23.8z M29.8,23.4c0.2-0.1,0.5-0.3,0.7-0.5
		c0.3-0.2,0.4-0.4,0.7-0.6c0.8-0.6,2.9-2.6,3.8-3.4c0.2-0.2,0.4-0.4,0.6-0.6l0.9-0.9c0.1-0.1,0.2-0.2,0.3-0.3l1.2-1.1
		c0.2-0.2,0.4-0.4,0.6-0.6c0.4-0.4,0.8-0.8,1.2-1.2c-0.3-0.7-1.6-2.4-2.1-2.8c-0.8-0.7-1.7-1.4-3-1.8C32.3,8.9,29,9.2,27.2,11
		c-0.5,0.6-0.6,0.5-1.1,1.3c-1.9,2.8-1.2,6.6,1.1,8.9l1.2,1.2C28.8,22.7,29.4,23.1,29.8,23.4L29.8,23.4z"/>
</g>
</svg>
