<?xml version="1.0" encoding="utf-8"?>
<!-- Generator: Adobe Illustrator 23.0.3, SVG Export Plug-In . SVG Version: 6.00 Build 0)  -->
<svg version="1.1" id="Layer_1" xmlns="http://www.w3.org/2000/svg" xmlns:xlink="http://www.w3.org/1999/xlink" x="0px" y="0px"
	 viewBox="0 0 263.4 55.4" style="enable-background:new 0 0 263.4 55.4;" xml:space="preserve">
<style type="text/css">
	.st0{fill:#FFFFFF;}
</style>
<g>
	<path class="st0" d="M24.2,0L0,55.1h7.3l6.5-14.7h26l6.5,14.7h7.3L29.2,0H24.2z M16.7,33.8l10.1-22.9l10.1,22.9H16.7z"/>
	<path class="st0" d="M98.1,28.4c3-3,4.9-7.2,4.9-11.8s-1.9-8.8-4.9-11.8C95,1.9,90.9,0,86.3,0H63.6v55.1h6.7V33.3h12.9L97,55.1h7.9
		L90.7,32.7C93.5,32,96,30.4,98.1,28.4z M70.2,26.7v-20h16c2.8,0,5.3,1.1,7.1,2.9c1.8,1.8,2.9,4.3,2.9,7.1s-1.1,5.3-2.9,7.1
		c-1.8,1.8-4.3,2.9-7.1,2.9H70.2z"/>
	<path class="st0" d="M153.4,26c0.3-0.3,0.6-0.5,0.8-0.8c2.7-2.7,4.3-6.4,4.3-10.4c0-4.1-1.6-7.8-4.3-10.5S147.8,0,143.8,0h-23.6
		c0,18.5,0,36.9,0,55.4h23.7c4.5,0,8.5-1.8,11.5-4.8c2.9-2.9,4.8-7,4.8-11.5s-1.8-8.5-4.8-11.5C154.7,27.1,154.1,26.5,153.4,26z
		 M126.9,6.7h16.9c2.2,0,4.3,0.9,5.7,2.4c1.5,1.5,2.4,3.5,2.4,5.7s-0.9,4.3-2.4,5.7c-1.5,1.5-3.5,2.4-5.7,2.4h-16.9V6.7z
		 M150.6,45.9c-1.7,1.7-4.1,2.8-6.8,2.8h-17V29.6h17c2.6,0,5,1.1,6.8,2.8c1.7,1.7,2.8,4.1,2.8,6.8C153.4,41.8,152.4,44.2,150.6,45.9
		z"/>
	<polygon class="st0" points="182.1,29.5 206.6,29.5 206.6,22.9 182.1,22.9 182.1,6.7 208.8,6.7 208.8,0 175.4,0 175.4,55.4 
		209.6,55.4 209.6,48.7 182.1,48.7 	"/>
	<path class="st0" d="M249.2,32.7c2.8-0.8,5.4-2.3,7.4-4.3c3-3,4.9-7.2,4.9-11.8s-1.9-8.8-4.9-11.8s-7.2-4.9-11.8-4.9h-22.7V55h6.7
		V33.3h12.9l13.8,21.8h7.9L249.2,32.7z M228.8,26.7v-20h16c2.8,0,5.3,1.1,7.1,2.9s2.9,4.3,2.9,7.1s-1.1,5.3-2.9,7.1
		c-1.8,1.8-4.3,2.9-7.1,2.9H228.8z"/>
</g>
</svg>
