<?xml version="1.0" encoding="utf-8"?>
<!-- Generator: Adobe Illustrator 23.0.3, SVG Export Plug-In . SVG Version: 6.00 Build 0)  -->
<svg version="1.1" id="Layer_1" xmlns="http://www.w3.org/2000/svg" xmlns:xlink="http://www.w3.org/1999/xlink" x="0px" y="0px"
	 viewBox="0 0 123.1 39.8" style="enable-background:new 0 0 123.1 39.8;" xml:space="preserve">
<style type="text/css">
	.st0{fill-rule:evenodd;clip-rule:evenodd;fill:#141515;}
	.st1{fill-rule:evenodd;clip-rule:evenodd;fill:#CB113F;}
</style>
<g>
	<path class="st0" d="M37.8,29H27.1c-0.4,0-0.7-0.2-1-0.5L13.6,9.5c-0.3-0.4-0.3-0.9,0-1.3l5.2-8.1C18.9,0.1,19,0,19.1,0
		s0.3,0.1,0.3,0.2l18.7,28.2c0.1,0.1,0.1,0.3,0,0.4C38.1,28.9,38,29,37.8,29L37.8,29z"/>
	<path class="st1" d="M73.7,7.4c1.9,0,3.5,1.6,3.5,3.5v7.4c0,1.9-1.6,3.5-3.5,3.5h-3.4c-0.7,0.1-1.2,0.6-1.2,1.3v5.6
		c0,0.3-0.3,0.6-0.6,0.6h-4.6c-0.3,0-0.6-0.3-0.6-0.6V8c0-0.3,0.3-0.6,0.6-0.6C68.1,7.4,69.7,7.4,73.7,7.4L73.7,7.4z M70.1,9.8
		L70.1,9.8c0.6,0,1.1,0.5,1.1,1.1v7.5c0,0.6-0.5,1.1-1.1,1.1l0,0c-0.6,0-1.1-0.5-1.1-1.1v-7.5C69.1,10.3,69.5,9.8,70.1,9.8L70.1,9.8
		z"/>
	<path class="st1" d="M48.1,7.4c2.8,0,5.6,0,8.4,0c0.3,0,0.6,0.3,0.6,0.6l2.9,20.7c0,0.3-0.2,0.6-0.5,0.6h-4.6
		c-0.3,0-0.6-0.3-0.6-0.6l-0.4-4.6c0-0.3-0.3-0.5-0.6-0.5h-2c-0.3,0-0.6,0.2-0.6,0.5l-0.4,4.6c0,0.3-0.3,0.6-0.6,0.6H45
		c-0.3,0-0.5-0.3-0.5-0.6L47.5,8C47.5,7.7,47.8,7.4,48.1,7.4L48.1,7.4z M52,10.2l-1,10.3c0,0.2,0,0.3,0.2,0.4
		c0.1,0.1,0.3,0.2,0.4,0.2H53c0.2,0,0.3-0.1,0.4-0.2c0.1-0.1,0.2-0.3,0.2-0.4l-1-10.3c0-0.1-0.1-0.3-0.3-0.3
		C52.2,10,52,10.1,52,10.2L52,10.2z"/>
	<path class="st1" d="M111.1,7.4c2.8,0,5.6,0,8.4,0c0.3,0,0.6,0.3,0.6,0.6l2.9,20.7c0,0.3-0.2,0.6-0.5,0.6H118
		c-0.3,0-0.6-0.3-0.6-0.6l-0.4-4.6c0-0.3-0.3-0.5-0.6-0.5h-2c-0.3,0-0.6,0.2-0.6,0.5l-0.4,4.6c0,0.3-0.3,0.6-0.6,0.6H108
		c-0.3,0-0.5-0.3-0.5-0.6L110.5,8C110.5,7.7,110.8,7.4,111.1,7.4L111.1,7.4z M115.1,10.2l-1,10.3c0,0.2,0,0.3,0.2,0.4
		c0.1,0.1,0.3,0.2,0.4,0.2h1.3c0.2,0,0.3-0.1,0.4-0.2c0.1-0.1,0.2-0.3,0.2-0.4l-1-10.3c0-0.1-0.1-0.3-0.3-0.3
		C115.2,10,115.1,10.1,115.1,10.2L115.1,10.2z"/>
	<path class="st1" d="M81.3,7.4c2.2,0,4.4,0,6.6,0c0.3,0,0.6,0.3,0.7,0.6l3.7,14c0,0.1,0.1,0.2,0.2,0.2c0.1,0,0.2-0.1,0.2-0.2
		l3.7-14c0.1-0.3,0.4-0.6,0.7-0.6c2.2,0,4.4,0,6.6,0c0.3,0,0.6,0.3,0.6,0.6v20.7c0,0.3-0.3,0.6-0.6,0.6h-4.6c-0.3,0-0.6-0.3-0.6-0.6
		v-13c0-0.1-0.1-0.2-0.2-0.2s-0.2,0.1-0.3,0.2l-3.2,13c-0.1,0.3-0.4,0.6-0.7,0.6h-0.6h-2.3h-0.6c-0.3,0-0.6-0.3-0.7-0.6l-3.2-13
		c0-0.1-0.1-0.2-0.3-0.2c-0.1,0-0.2,0.1-0.2,0.2v13c0,0.3-0.3,0.6-0.6,0.6h-4.6c-0.3,0-0.6-0.3-0.6-0.6V8C80.8,7.7,81,7.4,81.3,7.4
		L81.3,7.4z"/>
	<path class="st1" d="M0.8,29h11.4c0.1,0,0.3-0.1,0.3-0.2l5.8-8.7c0.1-0.1,0.1-0.3,0-0.4c-0.1-0.1-0.2-0.2-0.4-0.2H6.5
		c-0.1,0-0.3,0.1-0.3,0.2l-5.8,8.7c-0.1,0.1-0.1,0.3,0,0.4C0.5,28.9,0.6,29,0.8,29L0.8,29z"/>
</g>
<g>
	<path d="M3.9,37.2L5,37.6c-0.2,0.8-0.5,1.4-0.9,1.7c-0.4,0.4-0.9,0.5-1.5,0.5c-0.7,0-1.4-0.3-1.8-0.9C0.3,38.3,0,37.4,0,36.3
		c0-1.2,0.3-2.1,0.8-2.8c0.5-0.6,1.1-0.9,1.9-0.9c0.6,0,1.2,0.2,1.6,0.7c0.3,0.3,0.5,0.8,0.7,1.4L3.8,35c-0.1-0.4-0.2-0.7-0.4-0.9
		c-0.2-0.2-0.5-0.3-0.8-0.3c-0.4,0-0.8,0.2-1,0.6c-0.3,0.4-0.4,1-0.4,1.8c0,0.9,0.1,1.5,0.4,1.9c0.3,0.4,0.6,0.6,1,0.6
		c0.3,0,0.6-0.1,0.8-0.4C3.6,38,3.8,37.7,3.9,37.2z"/>
	<path d="M9.3,39.7v-5.8H7.6v-1.2h4.6v1.2h-1.7v5.8H9.3z"/>
	<path d="M15,39.7v-7h1.9c0.7,0,1.1,0,1.4,0.1c0.3,0.1,0.6,0.3,0.8,0.7c0.2,0.4,0.3,0.8,0.3,1.4c0,0.5-0.1,0.9-0.3,1.3
		c-0.2,0.3-0.4,0.6-0.7,0.7c-0.3,0.1-0.8,0.2-1.5,0.2h-0.8v2.6H15z M16.2,33.9v2h0.6c0.4,0,0.7,0,0.9-0.1s0.3-0.2,0.4-0.3
		c0.1-0.2,0.1-0.4,0.1-0.6c0-0.2-0.1-0.4-0.2-0.6c-0.1-0.2-0.2-0.3-0.4-0.3c-0.1-0.1-0.5-0.1-1-0.1H16.2z"/>
	<path d="M27.6,39.7h-1.3l-0.5-1.6h-2.3l-0.5,1.6h-1.2l2.2-7h1.2L27.6,39.7z M25.5,37l-0.8-2.6L23.9,37H25.5z"/>
	<path d="M29.7,39.7l2-3.6l-1.8-3.3h1.4l1.1,2.1l1.1-2.1h1.3l-1.8,3.3l2,3.6h-1.4l-1.3-2.4l-1.3,2.4H29.7z"/>
	<path d="M37.5,36.3c0-0.8,0.1-1.5,0.4-2.1c0.2-0.5,0.6-0.9,1-1.2c0.4-0.3,0.9-0.4,1.4-0.4c0.8,0,1.5,0.3,2,0.9s0.8,1.5,0.8,2.7
		c0,1.2-0.3,2.1-0.8,2.7c-0.5,0.6-1.1,0.9-2,0.9c-0.8,0-1.5-0.3-2-0.9C37.7,38.3,37.5,37.4,37.5,36.3z M38.7,36.2
		c0,0.8,0.2,1.4,0.5,1.8c0.3,0.4,0.7,0.6,1.1,0.6c0.5,0,0.8-0.2,1.1-0.6s0.4-1,0.4-1.8c0-0.8-0.1-1.4-0.4-1.8
		c-0.3-0.4-0.7-0.6-1.1-0.6s-0.9,0.2-1.2,0.6C38.8,34.8,38.7,35.4,38.7,36.2z"/>
	<path d="M46,32.7h2.3c0.6,0,1.1,0.1,1.3,0.2s0.5,0.3,0.6,0.6c0.2,0.3,0.3,0.6,0.3,1c0,0.3-0.1,0.6-0.2,0.9S50,35.9,49.7,36
		c0.3,0.1,0.6,0.3,0.8,0.6s0.3,0.6,0.3,1.1c0,0.5-0.1,0.9-0.4,1.3c-0.2,0.4-0.5,0.6-0.9,0.7c-0.2,0.1-0.8,0.1-1.6,0.1h-2V32.7z
		 M47.2,33.9v1.6h0.8c0.5,0,0.7,0,0.8,0c0.2,0,0.4-0.1,0.5-0.3c0.1-0.1,0.2-0.3,0.2-0.5c0-0.2,0-0.4-0.1-0.5
		C49.2,34.1,49.1,34,49,34c-0.1,0-0.5,0-1.1,0H47.2z M47.2,36.7v1.9h1.1c0.5,0,0.8,0,0.9-0.1c0.1,0,0.2-0.1,0.3-0.3
		c0.1-0.1,0.1-0.3,0.1-0.5c0-0.2,0-0.4-0.1-0.6c-0.1-0.1-0.2-0.2-0.4-0.3c-0.2-0.1-0.5-0.1-1-0.1H47.2z"/>
	<path d="M59.1,39.7h-1.3l-0.5-1.6H55l-0.5,1.6h-1.2l2.2-7h1.2L59.1,39.7z M56.9,37l-0.8-2.6L55.4,37H56.9z"/>
	<path d="M66.1,39.7v-7h1.2v3c0.3,0,0.4-0.1,0.5-0.3s0.2-0.5,0.4-1s0.3-0.9,0.5-1.2c0.2-0.2,0.4-0.4,0.6-0.5c0.2-0.1,0.5-0.1,1-0.1
		v1h-0.2c-0.3,0-0.5,0.1-0.7,0.2c-0.1,0.2-0.2,0.4-0.4,0.9c-0.1,0.4-0.2,0.7-0.3,0.9c-0.1,0.1-0.2,0.3-0.4,0.4
		c0.3,0.1,0.5,0.3,0.6,0.5c0.2,0.2,0.4,0.6,0.6,1.2l0.8,1.9h-1.4l-0.7-1.8c-0.2-0.5-0.3-0.8-0.5-1c-0.1-0.2-0.3-0.3-0.6-0.3v3.1
		H66.1z"/>
	<path d="M72.8,36.3c0-0.8,0.1-1.5,0.4-2.1c0.2-0.5,0.6-0.9,1-1.2c0.4-0.3,0.9-0.4,1.4-0.4c0.8,0,1.5,0.3,2,0.9
		c0.5,0.6,0.8,1.5,0.8,2.7c0,1.2-0.3,2.1-0.8,2.7c-0.5,0.6-1.1,0.9-2,0.9c-0.8,0-1.5-0.3-2-0.9C73,38.3,72.8,37.4,72.8,36.3z
		 M74,36.2c0,0.8,0.2,1.4,0.5,1.8c0.3,0.4,0.7,0.6,1.1,0.6c0.5,0,0.8-0.2,1.1-0.6s0.4-1,0.4-1.8c0-0.8-0.1-1.4-0.4-1.8
		c-0.3-0.4-0.7-0.6-1.1-0.6c-0.5,0-0.9,0.2-1.2,0.6C74.1,34.8,74,35.4,74,36.2z"/>
	<path d="M81.3,39.7v-7H83l1,4.8l1-4.8h1.7v7h-1.1v-5.5l-1.1,5.5h-1.1l-1.1-5.5v5.5H81.3z"/>
	<path d="M91.2,39.7h-1.2v-7h4.6v7h-1.2v-5.8h-2.3V39.7z"/>
	<path d="M103.1,39.7h-1.3l-0.5-1.6H99l-0.5,1.6h-1.2l2.2-7h1.2L103.1,39.7z M101,37l-0.8-2.6L99.4,37H101z"/>
	<path d="M105.8,39.7v-7h1.2v2.7h2.3v-2.7h1.2v7h-1.2v-3.1h-2.3v3.1H105.8z"/>
	<path d="M113.6,39.7v-7h1.2v7H113.6z"/>
	<path d="M121.4,39.7v-2.9h-0.2c-0.3,0-0.5,0-0.6,0.1c-0.1,0.1-0.2,0.1-0.3,0.3c-0.1,0.1-0.3,0.5-0.6,1l-0.8,1.5h-1.4l0.7-1.4
		c0.3-0.5,0.5-0.9,0.7-1.1c0.2-0.2,0.4-0.4,0.6-0.6c-0.5-0.1-0.9-0.3-1.1-0.6c-0.3-0.3-0.4-0.8-0.4-1.3c0-0.4,0.1-0.8,0.3-1.1
		c0.2-0.3,0.4-0.5,0.7-0.7c0.3-0.1,0.7-0.2,1.3-0.2h2.4v7H121.4z M121.4,33.9h-0.9c-0.5,0-0.8,0-0.9,0.1c-0.2,0.1-0.3,0.1-0.4,0.3
		c-0.1,0.1-0.1,0.3-0.1,0.5c0,0.2,0,0.4,0.1,0.6c0.1,0.1,0.2,0.2,0.3,0.3c0.1,0,0.5,0.1,1,0.1h0.9V33.9z"/>
</g>
</svg>
