<?xml version="1.0" encoding="utf-8"?>
<!-- Generator: Adobe Illustrator 20.1.0, SVG Export Plug-In . SVG Version: 6.00 Build 0)  -->
<svg version="1.1" id="Layer_1" xmlns="http://www.w3.org/2000/svg" xmlns:xlink="http://www.w3.org/1999/xlink" x="0px" y="0px"
	 viewBox="0 0 124 39.8" style="enable-background:new 0 0 124 39.8;" xml:space="preserve">
<style type="text/css">
	.st0{fill-rule:evenodd;clip-rule:evenodd;fill:#7f858e;}
</style>
<g>
	<path class="st0" d="M87.4,15.7c0.3,0.4,2.4,10,2.8,11.8c0.5,2.2,0.4,2,2.9,2c2.5,0,2.5,0.2,3-1.9c0.3-1.3,0.6-2.6,0.9-4
		c0.2-1,1.6-7.5,1.9-7.9c0.3,0.4,0,10.9,0.1,12.9c0,0.7,0.4,1,1.1,0.9l4.4,0c0.8-0.1,0.7-1.1,0.7-1.5l0-19.5c0-0.8-0.2-1.2-1-1.2
		c-0.6,0-6.1,0-6.4,0C97.1,7.5,97,8,96.8,8.7c-0.4,1.5-3.3,13.4-3.6,13.7c-0.4-0.2-0.5-1.2-0.6-1.6c-0.9-3.9-2.1-8.2-3.1-12.1
		c-0.4-1.7-0.9-1.4-2.9-1.4c-1.5,0-2.9,0-4.4,0c-1.5,0-1.1,1.1-1.1,3.2v17.3c0,0.7-0.1,1.4,0.6,1.6c0.3,0.1,3.7,0,4.3,0
		c0.7,0,1.2-0.1,1.3-0.8C87.5,26.8,87.1,16.3,87.4,15.7L87.4,15.7z M27.7,29.4h10.2c1.4,0,0.7-1,0.3-1.6l-3.7-5.6
		c-0.8-1.3-1.7-2.5-2.5-3.8c-1.9-3-4.2-6.3-6.2-9.3l-5-7.5C20.5,1.1,20-0.1,19.3,0c-0.5,0.1-0.9,0.9-1.4,1.6l-3.7,5.6
		c-1.3,2-1.2,2.1,0.2,4.2c0.9,1.3,1.7,2.5,2.5,3.7c1.7,2.5,3.3,5,5,7.5c0.4,0.6,0.8,1.2,1.2,1.9l2.5,3.7
		C26,28.9,26.7,29.4,27.7,29.4L27.7,29.4z M111.7,7.4c-0.8,0.3-0.7,0.8-0.8,2c-0.1,0.8-0.2,1.6-0.4,2.4l-2.1,14.4
		c-0.6,4-1.2,3.3,4.2,3.4c1.8,0,1.4-0.7,1.7-3.7c0.1-0.9,0-1.8,0.7-2.1c0.3-0.1,1.9-0.3,2.3,0.3c0.3,0.4,0.3,1.8,0.4,2.4
		c0.1,0.5,0.1,2.1,0.3,2.5c0.3,0.8,1.3,0.6,2.1,0.6c3.7,0,4,0.3,3.8-1.5l-2.8-19.1c-0.3-1.9-0.6-1.5-4-1.5
		C116.3,7.3,112.2,7.2,111.7,7.4L111.7,7.4z M115.8,21.1c1.7,0,1.5-0.4,1.3-2.3c-0.1-1-0.2-2-0.3-3c-0.1-1-0.4-5.4-0.7-5.8
		c-0.3,0.3-0.4,2.2-0.4,2.8l-0.6,5.9C115,19.9,114.6,21.1,115.8,21.1L115.8,21.1z M48.3,7.4c-0.8,0.3-0.7,1-0.8,1.9L45,26.1
		c-0.1,0.8-0.3,1.6-0.4,2.4c-0.1,1.2,0.8,1,1.7,1c0.9,0,1.8,0,2.7,0c1.8,0,1.5-0.4,1.8-3.6c0.1-0.8,0-1.8,0.6-2.1
		c0.5-0.3,2-0.2,2.4,0.2c0.5,0.6,0.4,3.9,0.7,4.9c0.2,0.8,1.1,0.7,2.1,0.7c3.7,0,4.1,0.3,3.8-1.4L57.7,8.9c-0.3-2-0.6-1.6-3.9-1.6
		C52.9,7.3,48.7,7.2,48.3,7.4L48.3,7.4z M52.6,10.1c-0.3,0.5-0.9,7.5-1,9c-0.1,1.3-0.5,2.1,1.1,2.1c1.5,0,1.1-0.9,1-2.1l-0.9-8.7
		C52.7,10.1,52.6,10.1,52.6,10.1L52.6,10.1z M63.5,8.2v20.3c0,0.6,0.3,0.9,0.9,0.9h4.3c1,0,0.9-0.8,0.9-1.7c0-0.7-0.1-5,0.1-5.3
		c0.4-1.3,4.2,0.3,6.6-1.4c1.2-0.9,1.4-2,1.4-4v-5.7c0-2.7-1.7-4.1-4.4-4.1l-8.2,0C64.3,7.3,63.5,7.3,63.5,8.2L63.5,8.2z M70.2,9.8
		c-0.7,0.3-0.5,1.2-0.5,2.4V18c0,0.4,0,0.9,0.2,1.2c0.2,0.3,0.7,0.3,1.1,0.1c0.8-0.4,0.6-1.4,0.6-2.3c0-1,0.1-5.1,0-5.8
		C71.5,10.5,71.2,9.5,70.2,9.8L70.2,9.8z M12.4,29.4c0.4-0.2,2.7-3.9,2.9-4.2c4.2-6.6,5.3-5.8-1.9-5.8c-1.4,0-6.1-0.2-7,0.2
		c-0.9,0.4-1.2,1-1.7,1.9l-4.3,6.5c-1,1.4-0.5,1.5,1.2,1.5H12.4z M36.9,39.8H38c0.3-0.2,0.6-0.2,1-0.5c1.8-1.4,1.7-6.4-1.6-6.4
		c-1.7,0-2.6,1.4-2.6,3.2c0,1,0.1,1.7,0.5,2.5C35.7,39.6,36.4,39.6,36.9,39.8L36.9,39.8z M77.1,39.8h1c0.4-0.2,0.7-0.2,1-0.5
		c1-0.7,1.2-2,1.2-3.2c-0.1-1.8-0.9-3.2-2.7-3.2c-3,0-3.1,4.2-2.2,5.7C76,39.5,76.6,39.6,77.1,39.8L77.1,39.8z M42.8,39.7l2.4,0
		c1.2,0,1.8-0.2,2.2-1.2c0.4-1.1-0.1-2-0.9-2.3c0,0,0-0.1,0,0c0,0,0,0,0,0c0.1-0.1,0.1-0.1,0.1-0.1c0.5-0.5,0.6-1.4,0.4-2
		c-0.6-1.3-2.4-1-4.3-1V39.7z M83,39.7l1.1,0l0-4.9c0.2,0.5,0.7,2.9,0.8,3.7c0,0.2,0.1,0.4,0.1,0.6c0,0.1,0,0.3,0.1,0.3
		c0.1,0.3-0.2,0.3,1.2,0.3l1.1-4.9c0.1,1.4,0,4.1,0.1,5l1,0c0.1-0.6,0-5.6,0-6.7l-1.7,0l-0.9,4.4l-0.8-3.3C84.6,32.8,85.1,33,83,33
		V39.7z M120.7,36.7c-0.2,0.3-0.3,0.2-0.6,0.7c-0.2,0.2-0.3,0.5-0.4,0.7c-0.2,0.3-0.7,1.3-0.8,1.5c1.5,0,1.2,0.2,1.8-0.8
		c0.1-0.3,0.3-0.6,0.5-0.9c0.4-0.8,0.5-1.1,1.6-1.1v2.7l1.1,0v-6.6c-0.6-0.1-1.7,0-2.4,0c-0.9,0-1.5,0.1-1.9,0.6
		C119.2,34.4,119,36.4,120.7,36.7L120.7,36.7z M59,36.7l-0.3,0.3c-0.4,0.4-1.5,2.4-1.5,2.6l1.3,0c0.3-0.4,0.7-1.2,1-1.7
		c0.4-0.7,0.5-1.1,1.6-1.1l0,2.8l1.1,0l0-6.6C61.8,33,60.3,33,59.8,33c-0.9,0-1.5,0.1-1.9,0.6C57.4,34.5,57.3,36.4,59,36.7L59,36.7z
		 M112.6,39.4l0,0.3l1.1,0c0.3-0.3,0.9-1.7,1.1-2.1c0.3-0.7,0.7-1.4,1.1-2.1c0.1,0.7,0,3.5,0,4.2l1.1,0l0-6.7c-1.4,0-1-0.4-2.2,2.1
		c-0.2,0.5-0.8,1.8-1.1,2.1c-0.1-0.9,0-3.2,0-4.3h-1.1V39.4z M14.2,39.7l1.1,0v-2.5c1.7,0,3.1,0.1,3.1-2.2c0-0.6-0.3-1.3-0.6-1.6
		c-0.6-0.6-2.6-0.4-3.7-0.4V39.7z M49.4,39.7h1.1c0.2-0.3,0.4-1.1,0.5-1.5l2,0c0.3,0,0.6,1.2,0.6,1.5h1.2c-0.1-0.6-0.4-1.2-0.6-1.7
		c-0.2-0.6-0.4-1.1-0.6-1.7l-0.8-2.5c-0.3-0.9,0-0.8-1.5-0.8l-1.1,3.3C50.2,36.9,49.3,39.4,49.4,39.7L49.4,39.7z M98.3,39.7h1.1
		c0.2-0.3,0.3-1.1,0.5-1.5l2.2,0c0.7,1.6-0.1,1.5,1.7,1.5c-0.1-0.6-1.5-4.6-2-5.9c-0.3-0.9,0-0.8-1.5-0.8
		C100.1,34.3,98.3,39.1,98.3,39.7L98.3,39.7z M20,39.7l1.2,0l0.4-1.5l2.2,0l0.4,1.2c0.2,0.4,0.2,0.3,1.3,0.3l-1.7-5.1
		c-0.6-1.8-0.2-1.6-1.6-1.6c-0.3,0-0.5,1.2-0.7,1.5c-0.2,0.6-0.4,1.1-0.6,1.7C20.8,37.3,20.3,38.6,20,39.7L20,39.7z M91.3,39.7
		l1.1,0v-5.5l2.2,0v5.5l1.1,0V33h-4.5V39.7z M106.3,39.7l1.1,0v-2.9h2.2v2.9l1.1,0v-6.6l-1.1,0v2.6h-2.2v-2.6l-1.1,0V39.7z
		 M27.5,39.7h1.4l1.2-2.2c0.2,0.1,0.1,0,0.2,0.2c0.3,0.5,0.8,1.6,1.1,2l1.3,0c0-0.4-1.5-2.7-1.8-3.3c-0.2-0.5,1.3-2.5,1.6-3.4
		l-1.3,0c-0.1,0.3-0.9,1.8-1.1,1.9L29,33l-1.3,0c0.2,0.8,1.8,2.9,1.6,3.3c-0.1,0.3-0.7,1.3-0.9,1.6C28.2,38.5,27.7,39.2,27.5,39.7
		L27.5,39.7z M68.5,39.7h1.1c0.2-0.5,0-2.2,0.1-2.9c0.6,0,1,1.2,1.3,2.1c0.4,1,0.1,0.8,1.6,0.8c-0.1-0.5-0.6-1.4-0.8-1.9
		c-0.1-0.3-0.3-0.6-0.4-0.8c-0.2-0.5-0.3-0.4-0.6-0.7c0.5-0.5,0.4-0.6,0.7-1.3c0.2-0.7,0.3-0.9,1.1-0.9l0-1c-1.1,0-1.4,0.1-1.8,1
		c-0.5,1.2-0.3,1.7-1.1,1.8c0-3.3,0.4-2.8-1.1-2.8L68.5,39.7z M2.2,39.8h1c0.6-0.4,1.5-0.4,1.8-2.2l-1.1-0.4
		c-0.2,0.4-0.4,1.7-1.6,1.3C1,38.2,1,34.9,2.1,34.3c0.4-0.2,0.9-0.2,1.2,0c0.5,0.3,0.3,0.5,0.6,0.9L5,34.8c-0.6-2.5-3.5-2.5-4.5-0.4
		c-0.6,1.2-0.6,3.5,0.5,4.7C1.6,39.7,1.6,39.4,2.2,39.8L2.2,39.8z M7.2,34.2h1.6v5.5l1.1,0v-5.5l1.6,0v-1.1l-0.3,0l-4.2,0V34.2z
		 M37,34.1c-1,0.3-1.3,1.4-1.2,2.6c0.1,1.1,0.7,2.2,1.9,1.8C39.5,38.1,39.3,33.5,37,34.1L37,34.1z M77.2,34.2
		c-1,0.3-1.2,1.5-1.1,2.7c0.1,1,0.8,2.1,2,1.7C79.7,38.1,79.5,33.5,77.2,34.2L77.2,34.2z M43.9,38.5c0.9,0,2.3,0.3,2.4-0.8
		c0-1.2-1.4-0.9-2.4-0.9V38.5z M122.8,35.8v-1.7c-1,0-2.2-0.3-2.2,0.8C120.5,36.1,121.8,35.8,122.8,35.8L122.8,35.8z M61,35.8l0-1.7
		c-1,0-2.2-0.3-2.2,0.8C58.8,36.1,60,35.8,61,35.8L61,35.8z M15.4,36H16c0.8,0,1.3-0.2,1.3-1c0-0.8-0.6-0.9-1.4-0.9h-0.5L15.4,36z
		 M43.9,35.6c0.3,0.1,1,0.1,1.4,0c0.5,0,0.8-0.2,0.8-0.8c0-0.5-0.2-0.7-0.7-0.7c-0.4,0-1.1-0.1-1.4,0V35.6z M100.2,37l1.5,0
		c0-0.2-0.5-2.1-0.8-2.3L100.2,37z M51.4,37h1.4l-0.7-2.3C51.9,35,51.4,36.7,51.4,37L51.4,37z M22,37l1.5,0l-0.7-2.3L22,37z"/>
</g>
</svg>
