<?xml version="1.0" encoding="utf-8"?>
<!-- Generator: Adobe Illustrator 20.1.0, SVG Export Plug-In . SVG Version: 6.00 Build 0)  -->
<svg version="1.1" id="Layer_1" xmlns="http://www.w3.org/2000/svg" xmlns:xlink="http://www.w3.org/1999/xlink" x="0px" y="0px"
	 viewBox="0 0 604.5 136.7" style="enable-background:new 0 0 604.5 136.7;" xml:space="preserve">
<style type="text/css">
	.st0{fill:#0A6CB6;}
	.st1{fill:#18467E;}
	.st2{fill:#FFFFFF;}
	.st3{fill:none;stroke:#17477E;stroke-width:11;stroke-linecap:round;stroke-linejoin:round;stroke-miterlimit:10;}
	.st4{fill:none;stroke:#ED1E24;stroke-width:11;stroke-linecap:round;stroke-linejoin:round;stroke-miterlimit:10;}
</style>
<rect class="st0" width="604.5" height="136.7"/>
<g>
	<g>
		<path class="st1" d="M125.6,79.1c0-2.8,2.2-5,5-5h6.2c-2.3-2.3-5.7-4.3-10.1-6c-5.9-2.2-13.9-3.4-24.2-3.4H88.6V58h49.6V36.2H48.1
			v75.4h54.4c10.2,0,18.2-1.2,24.1-3.5c5.9-2.3,10-5.3,12.2-8.8c2.2-3.5,3.3-7.4,3.3-11.5c0-1.2-0.1-2.5-0.3-3.6h-11.2
			C127.8,84.1,125.6,81.9,125.6,79.1z M92.5,93.5h-3.9V82.2h3.9c6.7,0,10.1,1.9,10.1,5.6C102.6,91.6,99.3,93.5,92.5,93.5z"/>
		<path class="st1" d="M212.6,56.6c1.5-2.9,4.5-4.6,7.7-4.3c3.2,0.3,5.9,2.5,6.7,5.7l4.8,17.5l1.9-5.3c1-2.9,3.7-5,6.8-5.2
			c3.1-0.2,6,1.4,7.4,4.2l4.5,8.7l2.7-2.2c1.4-1.2,3.2-1.8,5-1.8h5c0-5.2-1.2-10.2-3.7-14.9c-2.4-4.8-6.1-9.1-11-12.8
			c-4.9-3.7-11-6.7-18.4-8.9c-7.4-2.2-15.9-3.3-25.5-3.3c-9.6,0-18.2,1.1-25.6,3.2c-7.4,2.2-13.6,5.1-18.5,8.9
			c-4.9,3.8-8.6,8.1-11,12.9c-2.4,4.8-3.6,9.8-3.6,14.9c0,0.1,0,0.2,0,0.3h56L212.6,56.6z"/>
		<path class="st1" d="M256.8,87.3c-1.8,1.5-4.2,2.1-6.5,1.6c-2.3-0.5-4.3-1.9-5.4-4l-3.4-6.6l-2.5,7.2c-1.1,3.1-4,5.2-7.3,5.2
			c-0.1,0-0.2,0-0.3,0c-3.4-0.1-6.3-2.4-7.2-5.7L219,66.2l-6.8,13.6c-1.3,2.7-4,4.3-7,4.3h-55.7c0.5,1.6,1.2,3.1,1.9,4.7
			c2.4,4.8,6.1,9.1,11.1,12.9c5,3.8,11.2,6.8,18.6,8.9c7.4,2.2,15.9,3.2,25.5,3.2c9.5,0,18-1.1,25.4-3.2c7.4-2.2,13.6-5.1,18.5-8.9
			c4.9-3.8,8.6-8,11-12.8c0.8-1.7,1.5-3.4,2.1-5.1H261L256.8,87.3z"/>
		<path class="st1" d="M357.7,44.8c-3-2.6-7.2-4.7-12.5-6.2s-11.8-2.4-19.4-2.4h-52.8v37.6h21.7c2.8,0,5,2.2,5,5s-2.2,5-5,5h-21.7
			v27.8h40.5V88.2h12.3c14.5,0,24.8-2.6,31-7.9c6.2-5.3,9.3-11.3,9.3-18.1c0-3-0.6-6-1.9-9S360.7,47.4,357.7,44.8z M317.9,68.6h-4.5
			V55.8h4.5c6.5,0,9.7,2.1,9.7,6.4C327.6,66.5,324.4,68.6,317.9,68.6z"/>
		<polygon class="st1" points="412.8,73.8 412.8,36.2 374.3,36.2 374.3,111.6 410.7,111.6 439.1,75.4 439.1,111.6 477.6,111.6 
			477.6,36.2 441.1,36.2 		"/>
		<path class="st1" d="M535.2,60.3c3.3-1.5,7.5-2.2,12.3-2.2c3.9,0,7.9,0.7,12,2c4.1,1.3,7.5,3.3,10.4,6V39.6
			c-3.8-1.9-8.2-3.4-13.2-4.3c-5-0.9-9.9-1.4-14.6-1.4c-9,0-17.9,1.5-26.4,4.5c-8.6,3-15.6,7.5-21.1,13.5c-5.5,6-8.2,13.4-8.2,22
			c0,5.9,1.4,11.3,4.1,16.3c2.7,4.9,6.6,9.2,11.7,12.7c5.1,3.6,11.1,6.3,18,8.2c6.9,1.9,14.4,2.8,22.6,2.8c10.1,0,19.2-1.5,27.2-4.6
			V82.8c-6.8,4.6-14.4,6.9-22.6,6.9c-6.5,0-11.9-1.3-16-4c-4.1-2.7-6.2-6.4-6.2-11c0-3.1,0.8-5.9,2.5-8.4
			C529.4,63.7,531.9,61.7,535.2,60.3z"/>
	</g>
</g>
<g>
	<path class="st2" d="M118.6,70.9c0-2.8,2.2-5,5-5h6.2c-2.3-2.3-5.7-4.3-10.1-6c-5.9-2.2-13.9-3.4-24.2-3.4H81.6v-6.8h49.6V27.9
		H41.1v75.4h54.4c10.2,0,18.2-1.2,24.1-3.5c5.9-2.3,10-5.3,12.2-8.8c2.2-3.5,3.3-7.4,3.3-11.5c0-1.2-0.1-2.5-0.3-3.6h-11.2
		C120.8,75.9,118.6,73.6,118.6,70.9z M85.5,85.2h-3.9V73.9h3.9c6.7,0,10.1,1.9,10.1,5.6C95.6,83.3,92.3,85.2,85.5,85.2z"/>
	<path class="st2" d="M205.6,48.3c1.5-2.9,4.5-4.6,7.7-4.3c3.2,0.3,5.9,2.5,6.7,5.7l4.8,17.5l1.9-5.3c1-2.9,3.7-5,6.8-5.2
		c3.1-0.2,6,1.4,7.4,4.2l4.5,8.7l2.7-2.2c1.4-1.2,3.2-1.8,5-1.8h5c0-5.2-1.2-10.2-3.7-14.9c-2.4-4.8-6.1-9.1-11-12.8
		c-4.9-3.7-11-6.7-18.4-8.9c-7.4-2.2-15.9-3.3-25.5-3.3c-9.6,0-18.2,1.1-25.6,3.2c-7.4,2.2-13.6,5.1-18.5,8.9
		c-4.9,3.8-8.6,8.1-11,12.9c-2.4,4.8-3.6,9.8-3.6,14.9c0,0.1,0,0.2,0,0.3h56L205.6,48.3z"/>
	<path class="st2" d="M249.8,79c-1.8,1.5-4.2,2.1-6.5,1.6c-2.3-0.5-4.3-1.9-5.4-4l-3.4-6.6l-2.5,7.2c-1.1,3.1-4,5.2-7.3,5.2
		c-0.1,0-0.2,0-0.3,0c-3.4-0.1-6.3-2.4-7.2-5.7L212,57.9l-6.8,13.6c-1.3,2.7-4,4.3-7,4.3h-55.7c0.5,1.6,1.2,3.1,1.9,4.7
		c2.4,4.8,6.1,9.1,11.1,12.9c5,3.8,11.2,6.8,18.6,8.9c7.4,2.2,15.9,3.2,25.5,3.2c9.5,0,18-1.1,25.4-3.2c7.4-2.2,13.6-5.1,18.5-8.9
		c4.9-3.8,8.6-8,11-12.8c0.8-1.7,1.5-3.4,2.1-5.1H254L249.8,79z"/>
	<path class="st2" d="M350.7,36.6c-3-2.6-7.2-4.7-12.5-6.2s-11.8-2.4-19.4-2.4h-52.8v37.6h21.7c2.8,0,5,2.2,5,5s-2.2,5-5,5h-21.7
		v27.8h40.5V79.9h12.3c14.5,0,24.8-2.6,31-7.9c6.2-5.3,9.3-11.3,9.3-18.1c0-3-0.6-6-1.9-9S353.7,39.1,350.7,36.6z M310.9,60.3h-4.5
		V47.5h4.5c6.5,0,9.7,2.1,9.7,6.4C320.6,58.2,317.4,60.3,310.9,60.3z"/>
	<polygon class="st2" points="405.8,65.5 405.8,27.9 367.3,27.9 367.3,103.3 403.7,103.3 432.1,67.1 432.1,103.3 470.6,103.3 
		470.6,27.9 434.1,27.9 	"/>
	<path class="st2" d="M528.2,52c3.3-1.5,7.5-2.2,12.3-2.2c3.9,0,7.9,0.7,12,2c4.1,1.3,7.5,3.3,10.4,6V31.4
		c-3.8-1.9-8.2-3.4-13.2-4.3c-5-0.9-9.9-1.4-14.6-1.4c-9,0-17.9,1.5-26.4,4.5c-8.6,3-15.6,7.5-21.1,13.5c-5.5,6-8.2,13.4-8.2,22
		c0,5.9,1.4,11.3,4.1,16.3c2.7,4.9,6.6,9.2,11.7,12.7c5.1,3.6,11.1,6.3,18,8.2c6.9,1.9,14.4,2.8,22.6,2.8c10.1,0,19.2-1.5,27.2-4.6
		V74.5c-6.8,4.6-14.4,6.9-22.6,6.9c-6.5,0-11.9-1.3-16-4c-4.1-2.7-6.2-6.4-6.2-11c0-3.1,0.8-5.9,2.5-8.4
		C522.4,55.4,524.9,53.4,528.2,52z"/>
</g>
<path class="st3" d="M128.1,73.4h74.4c0.8,0,1.5-0.4,2-1.1l10.4-18.9c1-1.6,3.4-1.4,4.1,0.4l7.6,24.9c0.7,1.7,3,2,4,0.5l5.9-13.9
	c0.9-1.4,3-1.4,3.9,0.1l5.8,12.5c0.6,1.1,2,1.4,3.1,0.8l8.5-5.9c0.3-0.2,0.7-0.3,1.2-0.3h32.5"/>
<path class="st4" d="M123.9,70.6h74.4c0.8,0,1.5-0.4,2-1.1l10.4-18.9c1-1.6,3.4-1.4,4.1,0.4l7.6,24.9c0.7,1.7,3,2,4,0.5l5.9-13.9
	c0.9-1.4,3-1.4,3.9,0.1l5.8,12.5c0.6,1.1,2,1.4,3.1,0.8l8.5-5.9c0.3-0.2,0.7-0.3,1.2-0.3h32.5"/>
</svg>
