<?xml version="1.0" encoding="utf-8"?>
<!-- Generator: Adobe Illustrator 23.0.3, SVG Export Plug-In . SVG Version: 6.00 Build 0)  -->
<svg version="1.1" id="Layer_1" xmlns="http://www.w3.org/2000/svg" xmlns:xlink="http://www.w3.org/1999/xlink" x="0px" y="0px"
	 viewBox="0 0 604.5 136.7" style="enable-background:new 0 0 604.5 136.7;" xml:space="preserve">
<style type="text/css">
	.st0{fill:#FFFFFF;}
</style>
<g>
	<path class="st0" d="M85.5,73.9h-3.9v11.3h3.9c6.8,0,10.1-1.9,10.1-5.7C95.6,75.8,92.2,73.9,85.5,73.9z"/>
	<path class="st0" d="M310.9,47.5h-4.5v12.8h4.5c6.5,0,9.7-2.1,9.7-6.4S317.4,47.5,310.9,47.5z"/>
	<path class="st0" d="M0,0v136.7h604.5V0H0z M131.8,91c-2.2,3.5-6.3,6.5-12.2,8.8c-5.9,2.3-13.9,3.5-24.1,3.5H41.1V27.9h90.1v21.8
		H81.6v6.8h13.9c10.3,0,18.3,1.2,24.2,3.4c4.4,1.7,7.8,3.7,10.1,6h-6.2c-2.8,0-5,2.2-5,5c0,2.7,2.2,5,5,5h11.2
		c0.2,1.1,0.3,2.4,0.3,3.6C135.1,83.6,134,87.5,131.8,91z M254.5,80.6c-2.4,4.8-6.1,9-11,12.8c-4.9,3.8-11.1,6.7-18.5,8.9
		c-7.4,2.1-15.9,3.2-25.4,3.2c-9.6,0-18.1-1-25.5-3.2c-7.4-2.1-13.6-5.1-18.6-8.9s-8.7-8.1-11.1-12.9c-0.7-1.6-1.4-3.1-1.9-4.7h55.7
		c3,0,5.7-1.6,7-4.3l6.8-13.6l5.2,18.8c0.9,3.3,3.8,5.6,7.2,5.7c0.1,0,0.2,0,0.3,0c3.3,0,6.2-2.1,7.3-5.2l2.5-7.2l3.4,6.6
		c1.1,2.1,3.1,3.5,5.4,4c2.3,0.5,4.7-0.1,6.5-1.6l4.2-3.5h2.6C256,77.2,255.3,78.9,254.5,80.6z M253.1,65.6c-1.8,0-3.6,0.6-5,1.8
		l-2.7,2.2l-4.5-8.7c-1.4-2.8-4.3-4.4-7.4-4.2c-3.1,0.2-5.8,2.3-6.8,5.2l-1.9,5.3L220,49.7c-0.8-3.2-3.5-5.4-6.7-5.7
		c-3.2-0.3-6.2,1.4-7.7,4.3l-8.8,17.6h-56c0-0.1,0-0.2,0-0.3c0-5.1,1.2-10.1,3.6-14.9c2.4-4.8,6.1-9.1,11-12.9
		c4.9-3.8,11.1-6.7,18.5-8.9c7.4-2.1,16-3.2,25.6-3.2c9.6,0,18.1,1.1,25.5,3.3c7.4,2.2,13.5,5.2,18.4,8.9c4.9,3.7,8.6,8,11,12.8
		c2.5,4.7,3.7,9.7,3.7,14.9H253.1z M349.8,72c-6.2,5.3-16.5,7.9-31,7.9h-12.3v23.5H266V75.6h21.7c2.8,0,5-2.2,5-5c0-2.8-2.2-5-5-5
		H266V28h52.8c7.6,0,14.1,0.9,19.4,2.4s9.5,3.6,12.5,6.2c3,2.5,5.2,5.3,6.5,8.3s1.9,6,1.9,9C359.1,60.7,356,66.7,349.8,72z
		 M470.6,103.3h-38.5V67.1l-28.4,36.2h-36.4V27.9h38.5v37.6l28.3-37.6h36.5V103.3z M563,101.1c-8,3.1-17.1,4.6-27.2,4.6
		c-8.2,0-15.7-0.9-22.6-2.8c-6.9-1.9-12.9-4.6-18-8.2c-5.1-3.5-9-7.8-11.7-12.7c-2.7-5-4.1-10.4-4.1-16.3c0-8.6,2.7-16,8.2-22
		s12.5-10.5,21.1-13.5c8.5-3,17.4-4.5,26.4-4.5c4.7,0,9.6,0.5,14.6,1.4c5,0.9,9.4,2.4,13.2,4.3v26.4c-2.9-2.7-6.3-4.7-10.4-6
		c-4.1-1.3-8.1-2-12-2c-4.8,0-9,0.7-12.3,2.2c-3.3,1.4-5.8,3.4-7.5,6c-1.7,2.5-2.5,5.3-2.5,8.4c0,4.6,2.1,8.3,6.2,11s9.5,4,16,4
		c8.2,0,15.8-2.3,22.6-6.9V101.1z"/>
</g>
</svg>
