<?xml version="1.0" encoding="utf-8"?>
<!-- Generator: Adobe Illustrator 20.1.0, SVG Export Plug-In . SVG Version: 6.00 Build 0)  -->
<svg version="1.1" id="Layer_1" xmlns="http://www.w3.org/2000/svg" xmlns:xlink="http://www.w3.org/1999/xlink" x="0px" y="0px"
	 viewBox="0 0 123.2 60" style="enable-background:new 0 0 123.2 60;" xml:space="preserve">
<style type="text/css">
	.st0{fill-rule:evenodd;clip-rule:evenodd;fill:#7f858e;}
</style>
<g>
	<path class="st0" d="M61.6,27c-5.6,1.2-8.3,5.3-6.3,9.8c1.7,3.8,7.1,5.1,12.3,4.3C79.3,39.3,75.7,24.1,61.6,27L61.6,27z M55,9.4
		l-7,0l5.3,9.5l14.1,0l5.5-9.5l-7,0L60.5,0L55,9.4l5.4,9.3l5.4-9.3L55,9.4z M75.7,48.3l2.3,0l0,11.4l2.4,0l0.1-11.4l2.3,0l0-2.2
		l-7,0L75.7,48.3z M44.3,57.6c-0.6,0.2-0.9,0.2-1.6,0c-0.5-1-0.4-1.2-0.4-2.6L40,55c0,1.8-0.2,4.9,3.4,5c3.6,0.1,5.2-4,1.9-7.2
		c-0.7-0.7-1.5-1.2-2.2-2c-0.7-0.7-1.2-2.3,0-2.7c1.6-0.5,1.3,1.5,1.5,2.5l2.3,0c1.2-5.7-6.1-6.1-6.8-2.2C39,53.7,46.2,54,44.3,57.6
		L44.3,57.6z M49.1,59.7l2.3,0l0.1-4.3c4.2-0.4,4.8-1.2,4.6-5.8c-0.2-3.8-3.5-3.7-7-3.4L49.1,59.7z M51.5,53.1c0.7,0.1,1,0.1,1.4,0
		c0.3-0.1,0.4-0.3,0.6-0.5c0.3-0.6,0.2-2.4,0.1-3.1c-0.2-1-0.8-1.2-2.1-1L51.5,53.1z M97.6,40.9l5.4,0l0-0.9V28.1v-0.8l-5.3-0.1
		V40.9z M67.5,59.6l2.3,0.1l0-4.5c1.3,0.1,0.8-0.6,1.6,2c0.2,0.8,0.5,1.8,0.8,2.5l2.3,0l-1.6-5c2.3-1.7,1.7-5.7,1.2-6.7
		c-0.9-2.1-3.9-2-6.5-1.8L67.5,59.6z M69.9,53.1c1.8,0,2.1-0.1,2.1-2l0-0.8c0-1.9-0.2-1.9-2.1-2V53.1z M60.4,46
		c-3.3,1.1-2.5,3.2-2.5,8.2c0,1.7-0.1,3.4,0.8,4.5c0.7,0.9,2.5,1.6,4.1,1c3.1-1.2,2.3-4.6,2.3-8.2c0-1.6,0.1-3.4-0.7-4.5
		C63.6,46.1,61.9,45.5,60.4,46L60.4,46z M60.3,49.8c0,2.2-0.2,5.7,0.3,7.7c0.9,0.3,1,0.3,1.8,0c0.5-1.6,0.3-5.7,0.3-7.6
		C62.7,47.5,60.3,47.4,60.3,49.8L60.3,49.8z M105.5,31.6l6.2,0l0,9.3l5.4,0.1l0-9.2l6.2-0.1l0-4.2l-17.7,0L105.5,31.6z M12.9,33.8
		l-7.7,0l0-2.5l11.2,0l0-3.9L0,27.3l0,13.5l5.1,0l0-3.4l7.9,0L12.9,33.8z M41.3,40.8l5.9,0l3.9-6.7c0.6-1.1,1.3-2.3,1.9-3.3
		c0.5-0.9,1.6-2.6,1.9-3.5l-6,0l-4.7,8.9l-4.9-8.9l-6,0c0.6,1.2,1.2,2.3,1.9,3.5l4.8,8.4c0.2,0.3,0.3,0.5,0.5,0.8L41.3,40.8z
		 M14.3,40.9l5.7,0l0.9-2h8.3l1.1,2l5.8,0.1l-7.8-13.5l-6.1,0l-3.9,6.6L14.3,40.9z M22.6,35.7l4.8,0l-2.3-4.6L22.6,35.7z M77,28.1
		l0,12.7l5.3,0l0-3.7l4.5,0l2.2,3.7l5.3,0l-2.6-4.7c1.1-0.9,3-1.6,2.8-4.5c-0.1-2.1-1.6-3.5-3.3-4c-2.7-0.9-10.8-0.4-14.2-0.5
		L77,28.1z M82.3,33.9l4,0c1.6,0,2.9-0.2,2.9-1.4c0-1-1.1-1.3-2.5-1.3l-4.4,0V33.9z M63.3,30.8c-4.9,1-3.7,7.9,2.8,6.6
		C70.6,36.4,69.6,29.5,63.3,30.8L63.3,30.8z"/>
</g>
</svg>
