<?xml version="1.0" encoding="utf-8"?>
<!-- Generator: Adobe Illustrator 23.0.3, SVG Export Plug-In . SVG Version: 6.00 Build 0)  -->
<svg version="1.1" id="Layer_1" xmlns="http://www.w3.org/2000/svg" xmlns:xlink="http://www.w3.org/1999/xlink" x="0px" y="0px"
	 viewBox="0 0 123.2 60" style="enable-background:new 0 0 123.2 60;" xml:space="preserve">
<style type="text/css">
	.st0{fill:#DA1A32;}
	.st1{fill:#141515;}
	.st2{fill:#000077;}
</style>
<path class="st0" d="M60.5,18.9h7l5.4-9.5h-7L60.5,18.9L60.5,18.9z M53.5,18.9h7L55,9.4h-7L53.5,18.9L53.5,18.9z M55,9.4h10.9
	L60.5,0L55,9.4L55,9.4z"/>
<path class="st1" d="M65.8,9.4"/>
<path class="st2" d="M60.4,18.7"/>
<polygon class="st2" points="75.7,48.3 78,48.3 78,59.7 80.4,59.7 80.5,48.3 82.8,48.3 82.8,46.1 75.8,46.1 "/>
<path class="st2" d="M44.3,57.6c-0.6,0.2-0.9,0.2-1.6,0c-0.5-1-0.4-1.2-0.4-2.6H40c0,1.8-0.2,4.9,3.4,5c3.6,0.1,5.2-4,1.9-7.2
	c-0.7-0.7-1.5-1.2-2.2-2c-0.7-0.7-1.2-2.3,0-2.7c1.6-0.5,1.3,1.5,1.5,2.5h2.3c1.2-5.7-6.1-6.1-6.8-2.2C39,53.7,46.2,54,44.3,57.6
	L44.3,57.6z"/>
<path class="st2" d="M56.1,49.6c-0.2-3.8-3.5-3.7-7-3.4v13.5h2.3l0.1-4.3C55.7,55,56.3,54.2,56.1,49.6z M53.5,52.6
	c-0.2,0.2-0.3,0.4-0.6,0.5c-0.4,0.1-0.7,0.1-1.4,0v-4.6c1.3-0.2,1.9,0,2.1,1C53.7,50.2,53.8,52,53.5,52.6z"/>
<polygon class="st2" points="97.6,40.9 103,40.9 103,40 103,28.1 103,27.3 97.7,27.2 97.7,40.9 "/>
<path class="st2" d="M74.1,48c-0.9-2.1-3.9-2-6.5-1.8l-0.1,13.4l2.3,0.1v-4.5c1.3,0.1,0.8-0.6,1.6,2c0.2,0.8,0.5,1.8,0.8,2.5h2.3
	l-1.6-5C75.2,53,74.6,49,74.1,48z M72,51.1c0,1.9-0.3,2-2.1,2v-4.8c1.9,0.1,2.1,0.1,2.1,2V51.1z"/>
<path class="st2" d="M65.1,51.5c0-1.6,0.1-3.4-0.7-4.5c-0.8-0.9-2.5-1.5-4-1c-3.3,1.1-2.5,3.2-2.5,8.2c0,1.7-0.1,3.4,0.8,4.5
	c0.7,0.9,2.5,1.6,4.1,1C65.9,58.5,65.1,55.1,65.1,51.5z M62.4,57.5c-0.8,0.3-0.9,0.3-1.8,0c-0.5-2-0.3-5.5-0.3-7.7
	c0-2.4,2.4-2.3,2.4,0.1C62.7,51.8,62.9,55.9,62.4,57.5z"/>
<polygon class="st2" points="105.5,31.6 111.7,31.6 111.7,40.9 117.1,41 117.1,31.8 123.3,31.7 123.3,27.5 105.6,27.5 "/>
<polygon class="st2" points="12.9,33.8 5.2,33.8 5.2,31.3 16.4,31.3 16.4,27.4 0,27.3 0,40.8 5.1,40.8 5.1,37.4 13,37.4 "/>
<path class="st2" d="M41.3,40.8h5.9l3.9-6.7c0.6-1.1,1.3-2.3,1.9-3.3c0.5-0.9,1.6-2.6,1.9-3.5h-6l-4.7,8.9l-4.9-8.9h-6
	c0.6,1.2,1.2,2.3,1.9,3.5l4.8,8.4c0.2,0.3,0.3,0.5,0.5,0.8L41.3,40.8z"/>
<path class="st2" d="M28.3,27.5h-6.1l-3.9,6.6l-4,6.8H20l0.9-2h8.3l1.1,2l5.8,0.1L28.3,27.5z M22.6,35.7l2.5-4.6l2.3,4.6H22.6z"/>
<path class="st2" d="M94.5,31.6c-0.1-2.1-1.6-3.5-3.3-4c-2.7-0.9-10.8-0.4-14.2-0.5v1v12.7h5.3v-3.7h4.5l2.2,3.7h5.3l-2.6-4.7
	C92.8,35.2,94.7,34.5,94.5,31.6z M86.3,33.9h-4v-2.7h4.4c1.4,0,2.5,0.3,2.5,1.3C89.2,33.7,87.9,33.9,86.3,33.9z"/>
<path class="st2" d="M61.6,27c-5.6,1.2-8.3,5.3-6.3,9.8c1.7,3.8,7.1,5.1,12.3,4.3C79.3,39.3,75.7,24.1,61.6,27z M66.1,37.4
	c-6.5,1.3-7.7-5.6-2.8-6.6C69.6,29.5,70.6,36.4,66.1,37.4z"/>
<path class="st1" d="M44.8,12.4"/>
</svg>
