<?xml version="1.0" encoding="utf-8"?>
<!-- Generator: Adobe Illustrator 23.0.3, SVG Export Plug-In . SVG Version: 6.00 Build 0)  -->
<svg version="1.1" id="Layer_1" xmlns="http://www.w3.org/2000/svg" xmlns:xlink="http://www.w3.org/1999/xlink" x="0px" y="0px"
	 viewBox="0 0 130.3 170.2" style="enable-background:new 0 0 130.3 170.2;" xml:space="preserve">
<style type="text/css">
	.st0{fill:#FFFFFF;}
</style>
<g>
	<path class="st0" d="M129.1,1.5C127.7,0,126,0,125.4,0h-0.3h-0.3H108c-7.2,0-14.9,0-21.6,0c-5.9,0-11.2,0-15,0c-1.9,0-3.4,0-4.5,0
		c-0.5,0-1,0-1.2,0c-0.1,0-0.3,0-0.4,0H51.6H38.1C27.4,0,16.7,0,6,0H5.6H5.2C4.4,0,2.7,0,1.3,1.4C0,2.8,0,4.4,0,5.6
		c0,0.2,0,0.3,0,0.6v9.2c0,30,0,61,0,91.5c0,2.1,0.2,4.4,0.5,6.7c1.8,13.9,7.4,25.9,16.9,35.9c13.2,13.8,29.1,20.9,47.4,20.9
		c2.4,0,4.9-0.1,7.5-0.4c17.2-1.7,31.8-9.6,43.2-23.3c9.8-11.7,14.8-24.9,14.8-39.1c0.1-24.3,0.1-49.1,0.1-73c0-9.7,0-19.3,0-29V5.3
		C130.4,4.4,130.4,2.8,129.1,1.5z M126.2,107.4c-0.1,13.8-5.1,26-13.9,36.6c-10.6,12.7-24.1,20.2-40.5,21.8
		c-2.4,0.2-4.8,0.4-7.1,0.4c-17.2,0-32.1-6.6-44.5-19.6C11.3,137.2,6,125.9,4.4,113c-0.3-2.1-0.4-4.1-0.4-6.2C4,73.2,4,39.7,4,6.1
		C4,4.2,3.8,4,5.2,4C5.4,4,5.7,4,6,4c10.7,0,21.4,0,32.1,0c9,0,18.1,0,27.1,0c0,0,9.3,0,21.2,0c12.7,0,28.2,0,38.5,0
		c0.2,0,0.4,0,0.5,0c1,0,0.9,0.1,0.9,1.4C126.3,39.4,126.4,73.4,126.2,107.4z"/>
	<path class="st0" d="M79.5,44.8c1.9,0.1,3.9,0,6,0c0-3.1-0.1-6,0-9c0.1-1.6,0.3-3.2,0.7-4.8c1.2-4.1,4.4-6.6,8.7-6.7
		c4.1-0.1,7.5,2.2,9,6.1c1.5,3.8,1.5,7.7,0.2,11.5c-1.3,3.8-4.1,6-8.1,6.3c-0.8,0-1.5,0-2.2,0c-2.3,0.1-4.3,1.6-4.7,3.9
		c-0.2,1.4,0,2.9,0,4.5c3.4-0.2,6.9,0,10.2-0.5c6.4-0.9,11.2-4.3,13.9-10.3c2-4.5,2.3-9.2,1.5-13.9c-1-6.5-4.3-11.5-10.5-14.2
		c-4.1-1.9-8.5-2.2-12.9-1.5c-6.6,1-11.5,4.3-14.2,10.5c-1.9,4.4-2,9.1-1.7,14C75.5,42.7,77.5,44.6,79.5,44.8z"/>
	<path class="st0" d="M62.5,56.3c5.4-0.1,10.7,0,16.1,0c2.3,0,4.5,0,6.9,0c0-1.1,0-2,0-3c0-3.2-1.9-5.2-5.2-5.2c-4.2,0-8.3,0-12.5,0
		c-2.7-0.1-3.6-0.9-3.6-3.7c0-7.4,0-14.8,0-22.2c0-2.8-1.5-5-4-5.4c-2.1-0.3-4.2-0.1-6.4-0.1c-0.1,0.3-0.1,0.5-0.2,0.6
		c0,10.2,0.1,20.3,0,30.5C53.6,52.5,57.4,56.4,62.5,56.3z"/>
	<path class="st0" d="M16.5,56.3c2.2-0.1,4.4-0.1,6.6-0.1c1,0,2,0,3,0c0-4.7,0-9.2,0-13.7c0-1.1,0.3-2,1.3-2.5
		c1.2-0.5,2.4-0.6,3.3,0.3c0.8,0.6,1.4,1.5,1.9,2.4c2.3,4.2,4.6,8.4,6.9,12.7c0.3,0.6,0.7,0.8,1.4,0.8c3,0,6.1,0,9.2,0
		c0.8,0,1.5,0,2.4,0c-0.3-0.5-0.4-0.8-0.6-1.1c-4.3-7.4-8.6-14.8-13-22.2c-0.5-0.8-0.6-1.3,0.1-2.1c3.9-4.5,7.8-9,11.6-13.6
		c0.2-0.2,0.2-0.4,0.4-0.7c-3.7,0-7.2,0.1-10.8,0c-1.2,0-2,0.3-2.8,1.3C33.8,22.2,30,26.5,26.2,31c0-3.2,0-6.2,0-9.2
		c0-3.1-2.2-5.3-5.3-5.3c-1.2,0-2.5,0-3.7,0c-1.6,0-1.6,0-1.6,1.6c0,11.6,0,23.1,0,34.7c0,0.8,0,1.7-0.1,2.5
		C15.4,56,15.7,56.3,16.5,56.3z"/>
	<path class="st0" d="M11,69.4c-1.3,0-1.6,0.4-1.6,1.6c0,11.8,0,23.5,0,35.2c0,5.4,0.9,10.6,2.5,15.7c10.4,32.5,46.2,48.2,76.7,33.6
		c20.6-9.9,31.4-26.8,31.9-49.8c0.2-11.6,0-23.1,0.2-34.6c0-0.4,0-0.8,0-1.4c-0.6-0.1-0.9-0.1-1.3-0.1C83.2,69.5,47.1,69.5,11,69.4z
		 M38.6,83.9c1.2,0,2.3,0.8,2.5,1.7c0.2,0.8-0.2,1.4-0.9,1.7c-0.9,0.5-1.9,0.9-2.8,1.4c-0.2-1-0.5-2.1-0.5-3.1
		C36.9,84.7,37.5,83.9,38.6,83.9z M56.8,130.5c-1.8,3.5-3.2,7.1-3.9,11c-0.5-1.7-0.4-3.4,0.1-5c1.1-3.3,2.5-6.5,3.7-9.8
		c0.1-0.4,0.1-0.9,0.2-1.3c-0.4,0.1-1,0.2-1.3,0.5c-2.6,2.8-4.1,6-5.3,9.5c-0.7,1.8-1.1,3.7-1.9,5.6c0.1-1.7,0.1-3.4,0.4-5.1
		c0.7-3.9,2.6-7.2,4.8-10.4c0.5-0.6,0.8-1.3,1.2-2c-0.1-0.2-0.2-0.3-0.3-0.4c-0.5,0.3-1.1,0.5-1.5,0.9c-1.2,1.4-2.4,2.8-3.4,4.3
		c-2.4,3.5-4,7.3-5.1,11.5c0.1-7.4,3.3-13.4,8.3-18.6c-0.2-0.1-0.3-0.3-0.5-0.4c-0.6,0.3-1.1,0.5-1.6,0.9c-2.6,2.1-4.7,4.6-6.3,7.5
		c-1.6,2.7-2.9,5.5-4.1,7.9c0.7-5.3,3-10.3,6.9-14.6c0.9-1,1.8-1.9,2.7-2.8c0.4-0.3,0.6-0.7,0.8-1.1c-0.1-0.1-0.2-0.3-0.3-0.4
		c-0.6,0.2-1.4,0.4-1.8,0.8c-2,1.9-4.2,3.8-5.8,6c-2.3,3.1-4.1,6.6-5.8,9.3c0.1-2.2,1.7-6.6,4.2-9.8c2.4-3,5.1-5.7,8-8.8
		c-0.8,0.2-1.5,0.2-2,0.5c-2.7,1.3-4.8,3.3-6.5,5.6c-2.2,3-4.2,6.1-6.2,9.1c0.4-1.2,0.7-2.6,1.3-4c2.3-5.5,5.9-9.9,11-13.1
		c0.8-0.5,1.9-0.8,2.8-0.8c0.6,0,1.6,0.5,1.9,1.1c2.3,5,5.9,8.8,11.2,11.6C59.8,126.2,58.1,128,56.8,130.5z M53,110.9
		c-0.5-1.7-1.1-3.3-1.9-4.8c-1.3-2.3-3.5-3.3-6.1-2.5c-2.2,0.7-4.3,1.7-6.3,2.8c-2.7,1.4-5.3,3-8.4,3.3c-1.5,0.2-3.1,0.1-4.6-0.3
		c-1.7-0.4-1.9-1.6-0.7-2.8c0.5-0.6,1-1,1.6-1.5c-0.2-0.5-0.3-1-0.5-1.5c1.1,1,2,0.8,3,0c1.7-1.2,3.4-2.4,5-3.7
		c1.3-1.1,1.1-2-0.6-2.2c-3.2-0.4-6.5-0.5-9.7-0.6c-0.4,0-0.9,0.9-1.3,1.4c-0.1-0.2-0.1-0.5-0.3-0.7c-0.2-0.3-0.5-0.7-0.8-0.8
		c-0.9-0.1-1.3-0.8-1.5-1.6c-0.1-0.2-0.1-0.4-0.1-0.6c-0.2-2.9-0.2-3,2.7-3.4c4.9-0.6,9.8-1,14.5-2.6c0.2-0.1,0.3,0,0.4,0
		c1.3,1.5,2.5,3.1,4,4.3c3,2.5,6.5,3.3,10.3,2.2c2.6-0.8,4.9-2.1,6.9-3.8c5.6-4.8,12-6.2,19-3.8s11.3,7.5,12.7,14.7
		c2,10.6-5.4,21-15.9,22.3C63,126.2,55.3,118.9,53,110.9z M93.8,118.6c3.1,1.6,6.4,2.5,9.9,3c2.2,0.4,4.4,0.5,6.7,0.9
		c-1.8,0.3-3.5,0.6-5.2,0.7c-4.4,0.3-8.6-0.8-12.6-2.7c-0.6-0.3-1.2-0.4-1.9-0.4c5.6,4.6,12.4,6,19.4,6.5c0,0.2,0,0.3,0,0.4
		c-1.9,0.1-3.9,0.3-5.8,0.3c-4.7-0.1-9-1.6-13.1-4c-0.7-0.4-1.5-0.7-2.2-1.1c-0.1,0.2-0.2,0.3-0.3,0.5c0.7,0.7,1.4,1.4,2.2,1.9
		c4.1,2.6,8.6,4.2,13.4,5.2c1.5,0.3,3,0.5,4.5,0.7c-8.2,1.6-15.1-1.7-21.7-6.2c-0.1,0.2-0.2,0.3-0.3,0.5c0.5,0.7,1,1.5,1.6,2.1
		c2.8,2.8,6.1,4.4,9.8,5.4c2.6,0.7,5.3,1.2,8,1.9c-1.7,0-3.3,0.2-5,0.1c-5.5-0.4-10.5-2.3-14.7-6c-1-0.9-1.8-2.1-2.6-3.2
		c-0.5-0.8-0.4-1.7,0.4-2.3c4.5-3.5,7.2-8.2,8.1-13.8c0-0.1,0.1-0.2,0.1-0.3c0.1,0.1,0.2,0.1,0.2,0.1c1.4,3.8,4.5,5.1,8.1,5.3
		c2.7,0.1,5.3-0.1,8-0.2c0.5,0,0.9-0.1,1.4,0c-1.6,1.2-3.5,1.7-5.4,2c-3.3,0.4-6.6-0.2-9.8-1c-0.4-0.1-0.8,0-1.2,0
		c0.2,0.3,0.4,0.8,0.8,1c2.8,1.4,5.8,2,8.9,2.2c2.5,0.1,5,0,7.7,0c-3,1.6-6.2,2-9.5,1.2c-3.1-0.4-6.1-1.3-9.4-1.8
		C92.8,117.8,93.3,118.3,93.8,118.6z"/>
	<path class="st0" d="M26.5,92.5c-0.9,0-1.7,0.7-1.7,1.5s0.8,1.6,1.6,1.6c0.9,0,1.6-0.7,1.7-1.5C28.1,93.2,27.4,92.5,26.5,92.5z"/>
</g>
</svg>
