<?xml version="1.0" encoding="utf-8"?>
<!-- Generator: Adobe Illustrator 20.1.0, SVG Export Plug-In . SVG Version: 6.00 Build 0)  -->
<svg version="1.1" id="Layer_1" xmlns="http://www.w3.org/2000/svg" xmlns:xlink="http://www.w3.org/1999/xlink" x="0px" y="0px"
	 viewBox="0 0 130.3 170.2" style="enable-background:new 0 0 130.3 170.2;" xml:space="preserve">
<style type="text/css">
	.st0{fill:#FEDE00;}
	.st1{fill:#FFFFFF;}
</style>
<g>
	<path d="M64.7,168.2c-17.7,0-33.1-6.8-45.9-20.2c-9.1-9.6-14.6-21.3-16.3-34.7C2.2,111,2,108.8,2,106.8c0-30,0-59.9,0-89.9L2,6.1
		l0-0.6c0-1,0-2,0.8-2.7C3.5,2,4.5,2,5.2,2L6,2l59.2,0v0C65.7,2,66.2,2,66.8,2c1.1,0,2.6,0,4.5,0c3.8,0,9.1,0,15,0l39.1,0
		c0.6,0,1.5,0,2.2,0.7c0.7,0.7,0.7,1.6,0.7,2.4l0,0.3c0,9.7,0,19.4,0,29.1c0,23.9,0.1,48.6-0.1,72.9c-0.1,13.8-4.9,26.5-14.4,37.9
		c-11.1,13.3-25.2,20.9-41.9,22.6C69.5,168.1,67.1,168.2,64.7,168.2C64.7,168.2,64.7,168.2,64.7,168.2z"/>
	<path class="st0" d="M86.4,4c12.7,0,28.2,0,38.5,0c0,0,0,0,0,0c0.2,0,0.4,0,0.5,0c1,0,0.9,0.1,0.9,1.4c0,34,0.1,68-0.1,102
		c-0.1,13.8-5.1,26-13.9,36.6c-10.6,12.7-24.1,20.2-40.5,21.8c-2.4,0.2-4.8,0.4-7.1,0.4c-17.2,0-32.1-6.6-44.5-19.6
		c-8.9-9.4-14.2-20.7-15.8-33.6c-0.3-2.1-0.4-4.1-0.4-6.2C4,73.2,4,39.7,4,6.1C4,4.2,3.8,4,5.2,4C5.4,4,5.7,4,6,4c0,0,0,0,0,0
		c10.7,0,21.4,0,32.1,0c9,0,18.1,0,27.1,0C65.2,4,74.5,4,86.4,4 M86.4,0c-5.9,0-11.2,0-15,0c-1.9,0-3.4,0-4.5,0c-0.5,0-1,0-1.2,0
		c-0.1,0-0.3,0-0.4,0v0L51.6,0L38.1,0C27.4,0,16.7,0,6,0L5.6,0L5.2,0C4.4,0,2.7,0,1.3,1.4C0,2.8,0,4.4,0,5.6c0,0.2,0,0.3,0,0.6
		l0,9.2c0,30,0,61,0,91.5c0,2.1,0.2,4.4,0.5,6.7c1.8,13.9,7.4,25.9,16.9,35.9c13.2,13.8,29.1,20.9,47.4,20.9c2.4,0,4.9-0.1,7.5-0.4
		c17.2-1.7,31.8-9.6,43.2-23.3c9.8-11.7,14.8-24.9,14.8-39.1c0.1-24.3,0.1-49.1,0.1-73c0-9.7,0-19.3,0-29l0-0.3c0-0.9,0-2.5-1.3-3.8
		C127.7,0,126,0,125.4,0l-0.3,0l-0.3,0L108,0C100.8,0,93.1,0,86.4,0L86.4,0z"/>
</g>
<path class="st1" d="M77.1,26.7c2.7-6.2,7.6-9.5,14.2-10.5c4.4-0.7,8.8-0.4,12.9,1.5c6.2,2.7,9.5,7.7,10.5,14.2
	c0.8,4.7,0.5,9.4-1.5,13.9c-2.7,6-7.5,9.4-13.9,10.3c-3.3,0.5-6.8,0.3-10.2,0.5c0-1.6-0.2-3.1,0-4.5c0.4-2.3,2.4-3.8,4.7-3.9
	c0.7,0,1.4,0,2.2,0c4-0.3,6.8-2.5,8.1-6.3c1.3-3.8,1.3-7.7-0.2-11.5c-1.5-3.9-4.9-6.2-9-6.1c-4.3,0.1-7.5,2.6-8.7,6.7
	c-0.4,1.6-0.6,3.2-0.7,4.8c-0.1,3,0,5.9,0,9c-2.1,0-4.1,0.1-6,0c-2-0.2-4-2.1-4.1-4.1C75.1,35.8,75.2,31.1,77.1,26.7z"/>
<path class="st1" d="M53.8,16.7c2.2,0,4.3-0.2,6.4,0.1c2.5,0.4,4,2.6,4,5.4c0,7.4,0,14.8,0,22.2c0,2.8,0.9,3.6,3.6,3.7
	c4.2,0,8.3,0,12.5,0c3.3,0,5.2,2,5.2,5.2c0,1,0,1.9,0,3c-2.4,0-4.6,0-6.9,0c-5.4,0-10.7-0.1-16.1,0c-5.1,0.1-8.9-3.8-8.9-8.5
	c0.1-10.2,0-20.3,0-30.5C53.7,17.2,53.7,17,53.8,16.7z"/>
<path class="st1" d="M15.6,52.8c0-11.6,0-23.1,0-34.7c0-1.6,0-1.6,1.6-1.6c1.2,0,2.5,0,3.7,0c3.1,0,5.3,2.2,5.3,5.3c0,3,0,6,0,9.2
	c3.8-4.5,7.6-8.8,11.2-13.2c0.8-1,1.6-1.3,2.8-1.3c3.6,0.1,7.1,0,10.8,0c-0.2,0.3-0.2,0.5-0.4,0.7c-3.8,4.6-7.7,9.1-11.6,13.6
	c-0.7,0.8-0.6,1.3-0.1,2.1c4.4,7.4,8.7,14.8,13,22.2c0.2,0.3,0.3,0.6,0.6,1.1c-0.9,0-1.6,0-2.4,0c-3.1,0-6.2,0-9.2,0
	c-0.7,0-1.1-0.2-1.4-0.8c-2.3-4.3-4.6-8.5-6.9-12.7c-0.5-0.9-1.1-1.8-1.9-2.4c-0.9-0.9-2.1-0.8-3.3-0.3c-1,0.5-1.3,1.4-1.3,2.5
	c0,4.5,0,9,0,13.7c-1,0-2,0-3,0c-2.2,0-4.4,0-6.6,0.1c-0.8,0-1.1-0.3-1-1C15.6,54.5,15.6,53.6,15.6,52.8z"/>
<path class="st0" d="M120.5,105.7c-0.5,23-11.3,39.9-31.9,49.8c-30.5,14.6-66.3-1.1-76.7-33.6c-1.6-5.1-2.5-10.3-2.5-15.7
	c0-11.7,0-23.4,0-35.2c0-1.2,0.3-1.6,1.6-1.6c36.1,0.1,72.2,0.1,108.4,0.2c0.4,0,0.7,0,1.3,0.1c0,0.6,0,1,0,1.4
	C120.5,82.6,120.7,94.1,120.5,105.7z"/>
<path d="M90.3,102.4c-1.4-7.2-5.7-12.3-12.7-14.7c-7-2.4-13.4-1-19,3.8c-2,1.7-4.3,3-6.9,3.8c-3.8,1.1-7.3,0.3-10.3-2.2
	c-1.5-1.2-2.7-2.8-4-4.3c0,0,0,0,0,0c0,0,0,0,0,0c0,0,0,0,0,0c-0.1,0-0.2-0.1-0.4,0c-4.7,1.6-9.6,2-14.5,2.6
	c-2.9,0.4-2.9,0.5-2.7,3.4c0,0.2,0,0.4,0.1,0.6c0.2,0.8,0.6,1.5,1.5,1.6c0.3,0.1,0.6,0.5,0.8,0.8c0.2,0.2,0.2,0.5,0.3,0.7
	c0.4-0.5,0.9-1.4,1.3-1.4c3.2,0.1,6.5,0.2,9.7,0.6c1.7,0.2,1.9,1.1,0.6,2.2c-1.6,1.3-3.3,2.5-5,3.7c-1,0.8-1.9,1-3,0
	c0.2,0.5,0.3,1,0.5,1.5c-0.6,0.5-1.1,0.9-1.6,1.5c-1.2,1.2-1,2.4,0.7,2.8c1.5,0.4,3.1,0.5,4.6,0.3c3.1-0.3,5.7-1.9,8.4-3.3
	c2-1.1,4.1-2.1,6.3-2.8c2.6-0.8,4.8,0.2,6.1,2.5c0.8,1.5,1.4,3.1,1.9,4.8c2.3,8,10,15.3,21.4,13.8C84.9,123.4,92.3,113,90.3,102.4z
	 M26.4,95.6c-0.8,0-1.6-0.8-1.6-1.6c0-0.8,0.8-1.5,1.7-1.5c0.9,0,1.6,0.7,1.6,1.6C28,94.9,27.3,95.6,26.4,95.6z"/>
<path d="M111.2,118.1c-2.7,0-5.2,0.1-7.7,0c-3.1-0.2-6.1-0.8-8.9-2.2c-0.4-0.2-0.6-0.7-0.8-1c0.4,0,0.8-0.1,1.2,0
	c3.2,0.8,6.5,1.4,9.8,1c1.9-0.3,3.8-0.8,5.4-2c-0.5-0.1-0.9,0-1.4,0c-2.7,0.1-5.3,0.3-8,0.2c-3.6-0.2-6.7-1.5-8.1-5.3
	c0,0-0.1,0-0.2-0.1c0,0.1-0.1,0.2-0.1,0.3c-0.9,5.6-3.6,10.3-8.1,13.8c-0.8,0.6-0.9,1.5-0.4,2.3c0.8,1.1,1.6,2.3,2.6,3.2
	c4.2,3.7,9.2,5.6,14.7,6c1.7,0.1,3.3-0.1,5-0.1c-2.7-0.7-5.4-1.2-8-1.9c-3.7-1-7-2.6-9.8-5.4c-0.6-0.6-1.1-1.4-1.6-2.1
	c0.1-0.2,0.2-0.3,0.3-0.5c6.6,4.5,13.5,7.8,21.7,6.2c-1.5-0.2-3-0.4-4.5-0.7c-4.8-1-9.3-2.6-13.4-5.2c-0.8-0.5-1.5-1.2-2.2-1.9
	c0.1-0.2,0.2-0.3,0.3-0.5c0.7,0.4,1.5,0.7,2.2,1.1c4.1,2.4,8.4,3.9,13.1,4c1.9,0,3.9-0.2,5.8-0.3c0-0.1,0-0.2,0-0.4
	c-7-0.5-13.8-1.9-19.4-6.5c0.7,0,1.3,0.1,1.9,0.4c4,1.9,8.2,3,12.6,2.7c1.7-0.1,3.4-0.4,5.2-0.7c-2.3-0.4-4.5-0.5-6.7-0.9
	c-3.5-0.5-6.8-1.4-9.9-3c-0.5-0.3-1-0.8-1.5-1.1c3.3,0.5,6.3,1.4,9.4,1.8C105,120.1,108.2,119.7,111.2,118.1z"/>
<path d="M51.5,114.1c-0.3-0.6-1.3-1.1-1.9-1.1c-0.9,0-2,0.3-2.8,0.8c-5.1,3.2-8.7,7.6-11,13.1c-0.6,1.4-0.9,2.8-1.3,4
	c2-3,4-6.1,6.2-9.1c1.7-2.3,3.8-4.3,6.5-5.6c0.5-0.3,1.2-0.3,2-0.5c-2.9,3.1-5.6,5.8-8,8.8c-2.5,3.2-4.1,7.6-4.2,9.8
	c1.7-2.7,3.5-6.2,5.8-9.3c1.6-2.2,3.8-4.1,5.8-6c0.4-0.4,1.2-0.6,1.8-0.8c0.1,0.1,0.2,0.3,0.3,0.4c-0.2,0.4-0.4,0.8-0.8,1.1
	c-0.9,0.9-1.8,1.8-2.7,2.8c-3.9,4.3-6.2,9.3-6.9,14.6c1.2-2.4,2.5-5.2,4.1-7.9c1.6-2.9,3.7-5.4,6.3-7.5c0.5-0.4,1-0.6,1.6-0.9
	c0.2,0.1,0.3,0.3,0.5,0.4c-5,5.2-8.2,11.2-8.3,18.6c1.1-4.2,2.7-8,5.1-11.5c1-1.5,2.2-2.9,3.4-4.3c0.4-0.4,1-0.6,1.5-0.9
	c0.1,0.1,0.2,0.2,0.3,0.4c-0.4,0.7-0.7,1.4-1.2,2c-2.2,3.2-4.1,6.5-4.8,10.4c-0.3,1.7-0.3,3.4-0.4,5.1c0.8-1.9,1.2-3.8,1.9-5.6
	c1.2-3.5,2.7-6.7,5.3-9.5c0.3-0.3,0.9-0.4,1.3-0.5c-0.1,0.4-0.1,0.9-0.2,1.3c-1.2,3.3-2.6,6.5-3.7,9.8c-0.5,1.6-0.6,3.3-0.1,5
	c0.7-3.9,2.1-7.5,3.9-11c1.3-2.5,3-4.3,5.9-4.8C57.4,122.9,53.8,119.1,51.5,114.1z"/>
<path d="M41.1,85.6c-0.2-0.9-1.3-1.7-2.5-1.7c-1.1,0-1.7,0.8-1.7,1.7c0,1,0.3,2.1,0.5,3.1c0.9-0.5,1.9-0.9,2.8-1.4
	C40.9,87,41.3,86.4,41.1,85.6z"/>
</svg>
