<?xml version="1.0" encoding="utf-8"?>
<!-- Generator: Adobe Illustrator 20.1.0, SVG Export Plug-In . SVG Version: 6.00 Build 0)  -->
<svg version="1.1" id="Layer_1" xmlns="http://www.w3.org/2000/svg" xmlns:xlink="http://www.w3.org/1999/xlink" x="0px" y="0px"
	 viewBox="0 0 122.3 162.3" style="enable-background:new 0 0 122.3 162.3;" xml:space="preserve" fill="#7f858e">
<g>
	<path d="M122.3,1.5c0-1.5,0-1.5-1.6-1.5C100.9,0,81,0,61.2,0c0,0,0,0.1,0,0.1c-19.7,0-39.4,0-59.1,0c-2.3,0-2-0.2-2,2.1
		c0,33.6,0,67.1,0,100.7c0,2.1,0.2,4.2,0.4,6.2c1.6,12.9,6.9,24.2,15.8,33.6c14,14.7,31.3,21.3,51.5,19.3c16.4-1.6,30-9.2,40.5-21.8
		c8.8-10.6,13.8-22.8,13.9-36.6C122.4,69.5,122.3,35.5,122.3,1.5z M73.1,22.8c2.7-6.2,7.6-9.5,14.2-10.5c4.4-0.7,8.8-0.4,12.9,1.5
		c6.2,2.7,9.5,7.7,10.5,14.2c0.8,4.7,0.5,9.4-1.5,13.9c-2.7,6-7.5,9.4-13.9,10.3c-3.3,0.5-6.8,0.3-10.2,0.5c0-1.6-0.2-3.1,0-4.5
		c0.4-2.3,2.4-3.8,4.7-3.9c0.7,0,1.4,0,2.2,0c4-0.3,6.8-2.5,8.1-6.3c1.3-3.8,1.3-7.7-0.2-11.5c-1.5-3.9-4.9-6.2-9-6.1
		c-4.3,0.1-7.5,2.6-8.7,6.7c-0.4,1.6-0.6,3.2-0.7,4.8c-0.1,3,0,5.9,0,9c-2.1,0-4.1,0.1-6,0c-2-0.2-4-2.1-4.1-4.1
		C71.1,32,71.2,27.2,73.1,22.8z M49.8,12.8c2.2,0,4.3-0.2,6.4,0.1c2.5,0.4,4,2.6,4,5.4c0,7.4,0,14.8,0,22.2c0,2.8,0.9,3.6,3.6,3.7
		c4.2,0,8.3,0,12.5,0c3.3,0,5.2,2,5.2,5.2c0,1,0,1.9,0,3c-2.4,0-4.6,0-6.9,0c-5.4,0-10.7-0.1-16.1,0c-5.1,0.1-8.9-3.8-8.9-8.5
		c0.1-10.2,0-20.3,0-30.5C49.7,13.3,49.7,13.1,49.8,12.8z M11.6,48.9c0-11.6,0-23.1,0-34.7c0-1.6,0-1.6,1.6-1.6c1.2,0,2.5,0,3.7,0
		c3.1,0,5.3,2.2,5.3,5.3c0,3,0,6,0,9.2c3.8-4.5,7.6-8.8,11.2-13.2c0.8-1,1.6-1.3,2.8-1.3c3.6,0.1,7.1,0,10.8,0
		c-0.2,0.3-0.2,0.5-0.4,0.7C42.8,18,39,22.5,35.1,27c-0.7,0.8-0.6,1.3-0.1,2.1c4.4,7.4,8.7,14.8,13,22.2c0.2,0.3,0.3,0.6,0.6,1.1
		c-0.9,0-1.6,0-2.4,0c-3.1,0-6.2,0-9.2,0c-0.7,0-1.1-0.2-1.4-0.8c-2.3-4.3-4.6-8.5-6.9-12.7c-0.5-0.9-1.1-1.8-1.9-2.4
		c-0.9-0.9-2.1-0.8-3.3-0.3c-1,0.5-1.3,1.4-1.3,2.5c0,4.5,0,9,0,13.7c-1,0-2,0-3,0c-2.2,0-4.4,0-6.6,0.1c-0.8,0-1.1-0.3-1-1
		C11.6,50.6,11.6,49.8,11.6,48.9z M116.5,101.8c-0.5,23-11.3,39.9-31.9,49.8c-30.5,14.6-66.3-1.1-76.7-33.6
		c-1.6-5.1-2.5-10.3-2.5-15.7c0-11.7,0-23.4,0-35.2c0-1.2,0.3-1.6,1.6-1.6c36.1,0.1,72.2,0.1,108.4,0.2c0.4,0,0.7,0,1.3,0.1
		c0,0.6,0,1,0,1.4C116.5,78.7,116.7,90.2,116.5,101.8z"/>
	<path d="M86.3,98.5c-1.4-7.2-5.7-12.3-12.7-14.7c-7-2.4-13.4-1-19,3.8c-2,1.7-4.3,3-6.9,3.8c-3.8,1.1-7.3,0.3-10.3-2.2
		c-1.5-1.2-2.7-2.8-4-4.3c0,0,0,0,0,0c0,0,0,0,0,0c0,0,0,0,0,0c-0.1,0-0.2-0.1-0.4,0c-4.7,1.6-9.6,2-14.5,2.6
		c-2.9,0.4-2.9,0.5-2.7,3.4c0,0.2,0,0.4,0.1,0.6c0.2,0.8,0.6,1.5,1.5,1.6c0.3,0.1,0.6,0.5,0.8,0.8c0.2,0.2,0.2,0.5,0.3,0.7
		c0.4-0.5,0.9-1.4,1.3-1.4c3.2,0.1,6.5,0.2,9.7,0.6c1.7,0.2,1.9,1.1,0.6,2.2c-1.6,1.3-3.3,2.5-5,3.7c-1,0.8-1.9,1-3,0
		c0.2,0.5,0.3,1,0.5,1.5c-0.6,0.5-1.1,0.9-1.6,1.5c-1.2,1.2-1,2.4,0.7,2.8c1.5,0.4,3.1,0.5,4.6,0.3c3.1-0.3,5.7-1.9,8.4-3.3
		c2-1.1,4.1-2.1,6.3-2.8c2.6-0.8,4.8,0.2,6.1,2.5c0.8,1.5,1.4,3.1,1.9,4.8c2.3,8,10,15.3,21.4,13.8C80.9,119.5,88.3,109.1,86.3,98.5
		z M22.4,91.7c-0.8,0-1.6-0.8-1.6-1.6c0-0.8,0.8-1.5,1.7-1.5c0.9,0,1.6,0.7,1.6,1.6C24,91,23.3,91.8,22.4,91.7z"/>
	<path d="M107.2,114.3c-2.7,0-5.2,0.1-7.7,0c-3.1-0.2-6.1-0.8-8.9-2.2c-0.4-0.2-0.6-0.7-0.8-1c0.4,0,0.8-0.1,1.2,0
		c3.2,0.8,6.5,1.4,9.8,1c1.9-0.3,3.8-0.8,5.4-2c-0.5-0.1-0.9,0-1.4,0c-2.7,0.1-5.3,0.3-8,0.2c-3.6-0.2-6.7-1.5-8.1-5.3
		c0,0-0.1,0-0.2-0.1c0,0.1-0.1,0.2-0.1,0.3c-0.9,5.6-3.6,10.3-8.1,13.8c-0.8,0.6-0.9,1.5-0.4,2.3c0.8,1.1,1.6,2.3,2.6,3.2
		c4.2,3.7,9.2,5.6,14.7,6c1.7,0.1,3.3-0.1,5-0.1c-2.7-0.7-5.4-1.2-8-1.9c-3.7-1-7-2.6-9.8-5.4c-0.6-0.6-1.1-1.4-1.6-2.1
		c0.1-0.2,0.2-0.3,0.3-0.5c6.6,4.5,13.5,7.8,21.7,6.2c-1.5-0.2-3-0.4-4.5-0.7c-4.8-1-9.3-2.6-13.4-5.2c-0.8-0.5-1.5-1.2-2.2-1.9
		c0.1-0.2,0.2-0.3,0.3-0.5c0.7,0.4,1.5,0.7,2.2,1.1c4.1,2.4,8.4,3.9,13.1,4c1.9,0,3.9-0.2,5.8-0.3c0-0.1,0-0.2,0-0.4
		c-7-0.5-13.8-1.9-19.4-6.5c0.7,0,1.3,0.1,1.9,0.4c4,1.9,8.2,3,12.6,2.7c1.7-0.1,3.4-0.4,5.2-0.7c-2.3-0.4-4.5-0.5-6.7-0.9
		c-3.5-0.5-6.8-1.4-9.9-3c-0.5-0.3-1-0.8-1.5-1.1c3.3,0.5,6.3,1.4,9.4,1.8C101,116.2,104.2,115.8,107.2,114.3z"/>
	<path d="M47.5,110.2c-0.3-0.6-1.3-1.1-1.9-1.1c-0.9,0-2,0.3-2.8,0.8c-5.1,3.2-8.7,7.6-11,13.1c-0.6,1.4-0.9,2.8-1.3,4
		c2-3,4-6.1,6.2-9.1c1.7-2.3,3.8-4.3,6.5-5.6c0.5-0.3,1.2-0.3,2-0.5c-2.9,3.1-5.6,5.8-8,8.8c-2.5,3.2-4.1,7.6-4.2,9.8
		c1.7-2.7,3.5-6.2,5.8-9.3c1.6-2.2,3.8-4.1,5.8-6c0.4-0.4,1.2-0.6,1.8-0.8c0.1,0.1,0.2,0.3,0.3,0.4c-0.2,0.4-0.4,0.8-0.8,1.1
		c-0.9,0.9-1.8,1.8-2.7,2.8c-3.9,4.3-6.2,9.3-6.9,14.6c1.2-2.4,2.5-5.2,4.1-7.9c1.6-2.9,3.7-5.4,6.3-7.5c0.5-0.4,1-0.6,1.6-0.9
		c0.2,0.1,0.3,0.3,0.5,0.4c-5,5.2-8.2,11.2-8.3,18.6c1.1-4.2,2.7-8,5.1-11.5c1-1.5,2.2-2.9,3.4-4.3c0.4-0.4,1-0.6,1.5-0.9
		c0.1,0.1,0.2,0.2,0.3,0.4c-0.4,0.7-0.7,1.4-1.2,2c-2.2,3.2-4.1,6.5-4.8,10.4c-0.3,1.7-0.3,3.4-0.4,5.1c0.8-1.9,1.2-3.8,1.9-5.6
		c1.2-3.5,2.7-6.7,5.3-9.5c0.3-0.3,0.9-0.4,1.3-0.5c-0.1,0.4-0.1,0.9-0.2,1.3c-1.2,3.3-2.6,6.5-3.7,9.8c-0.5,1.6-0.6,3.3-0.1,5
		c0.7-3.9,2.1-7.5,3.9-11c1.3-2.5,3-4.3,5.9-4.8C53.4,119,49.8,115.2,47.5,110.2z"/>
	<path d="M37.1,81.7c-0.2-0.9-1.3-1.7-2.5-1.7c-1.1,0-1.7,0.8-1.7,1.7c0,1,0.3,2.1,0.5,3.1c0.9-0.5,1.9-0.9,2.8-1.4
		C36.9,83.1,37.3,82.5,37.1,81.7z"/>
</g>
</svg>
