<?xml version="1.0" encoding="utf-8"?>
<!-- Generator: Adobe Illustrator 20.1.0, SVG Export Plug-In . SVG Version: 6.00 Build 0)  -->
<svg version="1.1" id="Layer_1" xmlns="http://www.w3.org/2000/svg" xmlns:xlink="http://www.w3.org/1999/xlink" x="0px" y="0px"
	 viewBox="0 0 176.3 56.4" style="enable-background:new 0 0 176.3 56.4;" xml:space="preserve" fill="#7f858e">
<g>
	<path d="M167.8,35.8l0-1.7c0-0.2,0-20.6,0-20.6c0-0.3-0.1-0.4-0.4-0.4l-5,0c-0.3,0-0.4,0.1-0.4,0.4l0,23.9c0,4.3,1.7,5,5.5,5
		c0.1,0,0.2,0,0.3-0.1c0.1-0.1,0.1-0.3,0.1-0.3L167.8,35.8z"/>
	<path d="M76.4,36.1l0-1.7c0-0.2,0-20.6,0-20.6c0-0.3-0.1-0.4-0.4-0.4l-5,0c-0.3,0-0.4,0.1-0.4,0.4l0,23.9c0,4.3,1.7,5,5.5,5
		c0.1,0,0.2,0,0.3-0.1c0.1-0.1,0.1-0.3,0.1-0.3L76.4,36.1z"/>
	<path d="M91.7,42.6c-0.3,0-0.4-0.1-0.4-0.4l0-15.7c0-0.2-0.1-0.2-0.2-0.2l-1.3,0c-0.3,0-0.4-0.1-0.4-0.4l0-3.5
		c0-0.3,0.1-0.4,0.4-0.4l1.3,0c0.2,0,0.2-0.1,0.2-0.3l0-1.5c0-4.9,2.3-7,7.1-7l3.2,0c0.3,0,0.4,0.1,0.4,0.4l0,3.8
		c0,0.3-0.1,0.4-0.4,0.4l-2.1,0c-1.8,0-2.3,0.5-2.3,2.2l0,1.7c0,0.2,0.1,0.3,0.3,0.3l2.7,0c0.3,0,0.4,0.1,0.4,0.4l0,3.5
		c0,0.3-0.1,0.4-0.4,0.4l-2.7,0c-0.2,0-0.3,0.1-0.3,0.2l0,15.7c0,0.3-0.1,0.4-0.4,0.4L91.7,42.6z"/>
	<path d="M80.8,17.8c-0.3,0-0.4-0.1-0.4-0.4l0-3.7c0-0.3,0.1-0.4,0.4-0.4l5,0c0.3,0,0.4,0.1,0.4,0.4l0,3.7c0,0.3-0.1,0.4-0.4,0.4
		L80.8,17.8z M80.8,42.6c-0.3,0-0.4-0.1-0.4-0.4l0-19.8c0-0.3,0.1-0.4,0.4-0.4l5,0c0.3,0,0.4,0.1,0.4,0.4l0,19.8
		c0,0.3-0.1,0.4-0.4,0.4L80.8,42.6z"/>
	<path d="M123.3,36.9c-0.4-1.2-0.6-2.8-0.6-4.9c0-2,0.1-3.6,0.6-4.9c1.2-3.7,4.4-5.7,8.7-5.7c3.3,0,6.2,1.5,7.7,3.8
		c0.1,0.2,0.1,0.4-0.1,0.6l-3.6,2.4c-0.2,0.2-0.5,0.1-0.6-0.1c-0.8-1.2-1.9-1.8-3.2-1.8c-1.6,0-2.7,0.7-3.1,2.2
		c-0.3,0.7-0.4,1.9-0.4,3.5c0,1.6,0.1,2.8,0.4,3.5c0.5,1.5,1.5,2.2,3.1,2.2c1.3,0,2.4-0.6,3.2-1.8c0.2-0.2,0.4-0.3,0.6-0.1l3.6,2.4
		c0.2,0.2,0.2,0.4,0.1,0.6c-1.5,2.3-4.3,3.8-7.7,3.8C127.7,42.6,124.5,40.6,123.3,36.9z"/>
	<path d="M141.3,36.8c-0.5-1.4-0.7-3-0.7-4.8c0-1.9,0.2-3.5,0.6-4.9c1.2-3.6,4.4-5.7,8.7-5.7c4.4,0,7.6,2.1,8.8,5.7
		c0.5,1.4,0.5,3.5,0.5,6.2c0,0.3-0.2,0.4-0.5,0.4l-12,0c-0.2,0-0.3,0.1-0.3,0.2c0.1,0.4,0,0.8,0.1,1.1c0.5,1.8,2,2.7,4.2,2.7
		c1.6,0,2.9-0.5,3.7-1.1c0.7-0.5,0.7-0.7,1.1-0.4l3.1,2.2c0.3,0.2,0.3,0.4,0,0.6c-2.1,2.3-5,3.4-8.6,3.4
		C145.7,42.6,142.5,40.5,141.3,36.8z M153.3,29.8c0.2,0,0.2-0.1,0.2-0.3c0-0.5-0.1-1-0.2-1.5c-0.5-1.5-1.5-2.2-3.3-2.2
		c-1.6,0-3,0.8-3.5,2.2c-0.1,0.5-0.2,1-0.2,1.5c0,0.2,0.1,0.3,0.2,0.3L153.3,29.8z"/>
	<path d="M102.7,36.9c-0.5-1.4-0.7-3-0.7-4.8c0-1.9,0.2-3.5,0.6-4.9c1.2-3.6,4.4-5.7,8.7-5.7c4.4,0,7.6,2.1,8.8,5.7
		c0.5,1.4,0.5,3.5,0.6,6.2c0,0.3-0.2,0.4-0.5,0.4l-12,0c-0.2,0-0.3,0.1-0.3,0.2c0,0.4,0,0.8,0.1,1.1c0.5,1.8,2,2.7,4.2,2.7
		c1.6,0,2.9-0.5,3.7-1.1c0.7-0.5,0.7-0.7,1.1-0.4l3.1,2.2c0.3,0.2,0.3,0.4,0,0.6c-2.1,2.3-5,3.4-8.6,3.4
		C107.1,42.6,103.9,40.5,102.7,36.9z M114.7,29.9c0.2,0,0.3-0.1,0.3-0.3c0-0.5-0.1-1-0.2-1.5c-0.5-1.5-1.5-2.2-3.3-2.2
		c-1.6,0-3,0.8-3.5,2.2c-0.1,0.5-0.2,1-0.2,1.5c0,0.2,0.1,0.3,0.3,0.3L114.7,29.9z"/>
	<path d="M176.3,35.8l0-1.7c0-0.2,0-20.6,0-20.6c0-0.3-0.1-0.4-0.4-0.4l-5,0c-0.3,0-0.4,0.1-0.4,0.4l0,23.9c0,4.3,1.7,5,5.5,5
		c0.1,0,0.2,0,0.3-0.1c0.1-0.1,0.1-0.3,0.1-0.3L176.3,35.8z"/>
	<g>
		<path d="M0,28.2C0,12.7,12.6,0,28.2,0c15.6,0,28.2,12.6,28.2,28.1c0,15.6-12.6,28.2-28.2,28.2c-3.1,0-6-0.5-8.8-1.4
			c2-11.6,9.3-21.1,19-25.2c1.2,1.3,2.9,2.2,4.7,2.2c3.5,0,6.3-2.8,6.3-6.3c0-3.5-2.8-6.3-6.3-6.3c-3.5,0-6.3,2.8-6.3,6.3
			C24.5,29.5,14.5,38.1,9.4,49.2c-1.6-1.4-3.1-3.1-4.3-4.8c0.3-10.8,5.6-20.3,13.6-25.9c1.2,1.3,2.8,2.1,4.7,2.1
			c3.5,0,6.3-2.8,6.3-6.3c0-3.5-2.8-6.3-6.3-6.3c-3.5,0-6.3,2.8-6.3,6.3c0,0.2,0,0.4,0,0.5C9.7,17.5,3.6,22.7,0,29.3
			C0,29,0,28.6,0,28.2"/>
	</g>
</g>
</svg>
