<?xml version="1.0" encoding="utf-8"?>
<!-- Generator: Adobe Illustrator 23.0.3, SVG Export Plug-In . SVG Version: 6.00 Build 0)  -->
<svg version="1.1" id="Layer_1" xmlns="http://www.w3.org/2000/svg" xmlns:xlink="http://www.w3.org/1999/xlink" x="0px" y="0px"
	 viewBox="0 0 145 27.7" style="enable-background:new 0 0 145 27.7;" xml:space="preserve">
<style type="text/css">
	.st0{fill:#FFFFFF;}
</style>
<path class="st0" d="M112,19.8v-6.4c1.9-0.1,3,1.1,3,3.1C115,19.1,113.7,20.1,112,19.8 M118.9,17.2c0.2-4.7-2.3-6.8-6.9-6.9V4.7h-4
	v17.1C112,23.4,118.6,22.5,118.9,17.2z M145,21.4V10.9c0-1-0.1-2-0.4-3c-0.2-0.8-0.6-1.4-1.2-2c-0.5-0.5-1.1-0.9-1.8-1.1
	s-1.5-0.4-2.3-0.4s-1.5,0.1-2.3,0.2c-0.6,0.1-1.2,0.3-1.8,0.5c-0.5,0.2-1,0.4-1.3,0.6l0.9,2.9c0.3-0.2,0.7-0.4,1.1-0.5
	c0.4-0.2,0.8-0.3,1.3-0.4s0.9-0.2,1.4-0.2s0.9,0.1,1.3,0.2c0.4,0.1,0.7,0.4,0.9,0.7c0.2,0.4,0.3,0.9,0.3,1.4v0.8
	c-0.8,0.1-1.7,0.2-2.5,0.4s-1.5,0.4-2.2,0.7c-0.6,0.3-1.2,0.7-1.8,1.2c-0.5,0.5-0.9,1.1-1.1,1.7c-0.3,0.8-0.4,1.6-0.4,2.4
	c-0.1,1.6,0.5,3.1,1.6,4.2c1.3,1,3,1.5,4.7,1.4c1.1,0,2.2-0.1,3.3-0.4C143.5,22.2,144.3,21.9,145,21.4L145,21.4z M141.1,19.7
	c-1.1,0.5-2.5,0.3-3.4-0.4c-0.5-0.6-0.7-1.5-0.7-2.3c0-2.8,1.9-3.4,4.1-3.7L141.1,19.7L141.1,19.7z M133.1,22.4l-5.1-9.7l4.5-8h-4.2
	l-4,7.8h-0.1V0h-4.1v22.4h4.1v-8.9h0.1l4.1,8.9H133.1z M27.5,13.5c0,0.8,0,1.6-0.1,2.2c0,0.6-0.2,1.2-0.3,1.8
	c-0.1,0.5-0.3,0.9-0.7,1.2c-0.6,0.6-1.6,0.6-2.2,0c-0.3-0.4-0.6-0.8-0.7-1.2c-0.2-0.6-0.3-1.2-0.4-1.8c0-0.7-0.1-1.4-0.1-2.2
	s0-1.5,0.1-2.3c0-0.6,0.2-1.3,0.3-1.9c0.1-0.5,0.4-0.9,0.7-1.3c0.6-0.6,1.6-0.6,2.2-0.1c0,0,0,0,0.1,0.1c0.3,0.4,0.6,0.8,0.7,1.3
	c0.2,0.6,0.3,1.2,0.3,1.9C27.4,12,27.5,12.7,27.5,13.5 M31.6,13.5c0-1.2-0.1-2.5-0.4-3.7c-0.2-1-0.7-2-1.2-2.9
	c-0.5-0.8-1.2-1.4-2-1.9s-1.8-0.7-2.7-0.7c-1,0-1.9,0.2-2.7,0.7c-0.8,0.5-1.5,1.1-2,1.9c-0.6,0.9-1,1.9-1.2,2.9
	C19.1,11,19,12.2,19,13.5c0,1.2,0.1,2.5,0.4,3.7c0.2,1,0.6,2,1.2,2.9c0.5,0.8,1.2,1.4,2,1.9s1.8,0.7,2.7,0.7c1,0,1.9-0.2,2.7-0.7
	c0.8-0.5,1.5-1.1,2-1.9c0.6-0.9,1-1.9,1.2-2.9C31.4,16,31.6,14.8,31.6,13.5L31.6,13.5z M41.2,13.5c0.1,1.5-0.2,3-0.7,4.3
	c-0.4,0.9-1.3,1.5-2.3,1.5c-0.2,0-0.4,0-0.6-0.1c-0.2,0-0.3-0.1-0.4-0.2V7.9c0.2-0.1,0.4-0.1,0.5-0.2c0.2,0,0.5-0.1,0.7-0.1
	c0.6,0,1.3,0.2,1.7,0.7c0.5,0.6,0.8,1.3,0.9,2C41.1,11.3,41.2,12.4,41.2,13.5 M45.2,13.4c0-1.3-0.1-2.5-0.5-3.8
	c-0.3-1-0.7-1.9-1.4-2.7c-0.6-0.7-1.3-1.3-2.1-1.7c-0.9-0.4-1.8-0.6-2.8-0.5c-0.7,0-1.5,0.1-2.2,0.2C35.1,5,34,5.4,33.1,6v21.7h4V22
	c0.3,0.1,0.5,0.2,0.8,0.2c0.4,0.1,0.8,0.1,1.2,0.1c0.9,0,1.7-0.2,2.5-0.6s1.4-1,1.9-1.8c0.6-0.8,1-1.8,1.2-2.8
	C45,15.9,45.2,14.7,45.2,13.4L45.2,13.4z M69,4.7v12.4c0,0.8,0.1,1.5,0.3,2.2c0.2,0.7,0.6,1.3,1.1,1.8s1.2,0.9,1.9,1.2
	c0.9,0.3,1.9,0.4,2.9,0.4c1.1,0,2.3-0.1,3.4-0.4c0.9-0.2,1.8-0.5,2.6-1V4.7H77v14.5l-0.5,0.2c-0.2,0.1-0.4,0.1-0.5,0.1
	c-0.2,0-0.5,0.1-0.7,0.1c-0.5,0-0.9-0.1-1.3-0.4c-0.3-0.2-0.5-0.5-0.6-0.9s-0.2-0.8-0.2-1.2V4.7H69z M46.7,4.7v12.4
	c0,0.7,0.1,1.5,0.3,2.2s0.5,1.3,1,1.8c0.4,0.5,1,0.9,1.6,1.2c0.7,0.3,1.5,0.5,2.2,0.4c0.7,0,1.4-0.1,2.1-0.3
	c0.5-0.1,1.1-0.4,1.6-0.6c0.4-0.2,0.8-0.5,1.1-0.9c0.3,0.3,0.6,0.6,1,0.9c0.5,0.3,1,0.5,1.5,0.6c0.7,0.2,1.4,0.2,2,0.3
	c0.8,0,1.6-0.1,2.3-0.1c1.2-0.2,2.4-0.6,3.5-1.2V4.7h-4.2v14.5c-0.2,0.1-0.3,0.1-0.5,0.2s-0.4,0.1-0.5,0.1c-0.2,0-0.4,0-0.6,0
	c-0.6,0-1.2-0.2-1.7-0.6c-0.4-0.5-0.6-1.1-0.6-1.7V4.7h-4.2v14c-0.2,0.3-0.5,0.5-0.8,0.6s-0.7,0.2-1,0.2c-0.4,0-0.8-0.1-1.2-0.3
	c-0.3-0.2-0.6-0.5-0.7-0.9c-0.2-0.4-0.2-0.8-0.2-1.2V4.7H46.7z M106.5,21.5l-0.9-3.1c-0.5,0.5-1.1,0.8-1.8,0.7
	c-2.4,0-2.7-3.8-2.7-5.7s0.2-5.7,2.7-5.7c0.6,0,1.3,0.2,1.7,0.7l0.9-2.8c-1-0.9-2.2-1.3-3.5-1.3c-2.8,0-4.7,2.4-5.5,5.2
	c-0.3,1.3-0.5,2.6-0.5,4c0,3.2,0.8,7.1,3.6,8.6C102.2,23.1,105.3,22.9,106.5,21.5 M87.5,22.4v-7.9h3.6v7.9h4.2V4.7h-4.2v6.6h-3.6
	V4.7h-4.2v17.7L87.5,22.4z M17.8,22.4l-1-17.7h-4.4L9,15.7l-3.4-11H1.1L0,22.4h4.1l0.3-9.6v-1.9l0.4,1.7l2.8,9.8h2.6l2.8-9.7
	l0.4-1.9v1.9l0.3,9.7C15.1,22.4,16.3,22.4,17.8,22.4"/>
</svg>
