<?xml version="1.0" encoding="utf-8"?>
<!-- Generator: Adobe Illustrator 20.1.0, SVG Export Plug-In . SVG Version: 6.00 Build 0)  -->
<svg version="1.1"
	 id="svg12494" xmlns:cc="http://creativecommons.org/ns#" xmlns:dc="http://purl.org/dc/elements/1.1/" xmlns:rdf="http://www.w3.org/1999/02/22-rdf-syntax-ns#" xmlns:svg="http://www.w3.org/2000/svg"
	 xmlns="http://www.w3.org/2000/svg" xmlns:xlink="http://www.w3.org/1999/xlink" x="0px" y="0px" viewBox="0 0 91.2 50"
	 style="enable-background:new 0 0 91.2 50;" xml:space="preserve" fill="#7f858e">
<g id="g12169">
	<g id="g12175" transform="translate(55.36,702.6114)">
		<path id="path12177" d="M-55.4-652.9h2v-4.1c0-0.7,0-1.6,0.4-2.1c0.4-0.6,1-0.8,1.4-0.8c1.7,0,1.7,2,1.7,2.7v4.2h2v-4.6
			c0-0.7,0-2.1-0.8-3c-0.7-0.9-1.8-1.2-2.6-1.2c-1.3,0-2,0.7-2.3,1v-0.7h-1.9V-652.9"/>
	</g>
	<g id="g12179" transform="translate(73.5474,706.2231)">
		<path id="path12181" d="M-56.7-659.9c0.1-0.3,0.1-0.6,0.1-1c0-2.2-1.7-4.5-4.4-4.5c-2.6,0-4.5,2.2-4.5,4.6c0,2.5,2,4.5,4.5,4.5
			c2,0,3.6-1.4,4.1-3H-59c-0.4,0.7-1.1,1.1-2,1.1c-1.5,0-2.3-1.2-2.4-1.8H-56.7z M-63.4-661.5c0.4-1.6,1.7-2,2.4-2
			c1,0,2.1,0.6,2.3,2H-63.4"/>
	</g>
	<g id="g12183" transform="translate(76.5066,702.6114)">
		<path id="path12185" d="M-56.9-652.9h1.3l1.6-5.5h0l1.6,5.5h1.3l3.1-8.5h-2.2l-1.6,5.2h0l-1.4-5.2h-1.6l-1.4,5.2h0l-1.6-5.2H-60
			L-56.9-652.9z"/>
	</g>
	<g id="g12187" transform="translate(90.3468,702.6114)">
		<path id="path12189" d="M-57.9-652.9h1.9v-1c0.5,0.6,1.2,1.3,2.9,1.3c3.1,0,4.2-2.9,4.2-4.6c0-2.3-1.7-4.5-4.3-4.5
			c-1,0-2,0.4-2.7,1.1v-3.6h-2V-652.9z M-56-657.3c0-1.2,1-2.6,2.5-2.6c1.3,0,2.5,1,2.5,2.7c0,1.7-1.1,2.7-2.5,2.7
			C-54.6-654.5-56-655.4-56-657.3"/>
	</g>
	<g id="g12191" transform="translate(110.3256,711.808)">
		<path id="path12193" d="M-59.3-670.6h-1.9v1.1h0c-0.1-0.1-1.1-1.4-2.8-1.4c-2.4,0-4.3,1.9-4.3,4.5c0,2.8,2,4.6,4.2,4.6
			c1.1,0,2.3-0.6,3-1.3v1.1h1.9V-670.6z M-61.2-666.4c0,1.6-1.1,2.7-2.5,2.7c-1.5,0-2.5-1.2-2.5-2.6c0-1.3,0.9-2.7,2.5-2.7
			C-62.5-669-61.2-668.1-61.2-666.4"/>
	</g>
	<path id="path12195" d="M54.1,38.3h-2v11.4h2V38.3z"/>
	<g id="g12197" transform="translate(124.0712,711.808)">
		<path id="path12199" d="M-60.3-670.6h-1.9v1.1h0c-0.1-0.1-1.1-1.4-2.8-1.4c-2.4,0-4.3,1.9-4.3,4.5c0,2.8,2,4.6,4.2,4.6
			c1.1,0,2.3-0.6,3-1.3v1.1h1.9L-60.3-670.6z M-62.2-666.4c0,1.6-1.1,2.7-2.5,2.7c-1.5,0-2.5-1.2-2.5-2.6c0-1.3,0.9-2.7,2.5-2.7
			C-63.5-669-62.2-668.1-62.2-666.4"/>
	</g>
	<g id="g12201" transform="translate(125.2441,702.6114)">
		<path id="path12203" d="M-60.4-652.9h2v-4.1c0-0.7,0-1.6,0.4-2.1c0.4-0.6,1-0.8,1.4-0.8c1.7,0,1.7,2,1.7,2.7v4.2h2v-4.6
			c0-0.7,0-2.1-0.8-3c-0.7-0.9-1.8-1.2-2.6-1.2c-1.3,0-2,0.7-2.3,1v-0.7h-1.9V-652.9"/>
	</g>
	<g id="g12205" transform="translate(141.2422,705.6097)">
		<path id="path12207" d="M-61.5-658.7c-0.5,0.9-1.2,1.2-1.9,1.2c-1.5,0-2.6-1.2-2.6-2.7c0-1.8,1.2-2.7,2.5-2.7c1.3,0,1.7,0.8,2,1.2
			h2.3c-0.9-2.6-3.2-3.1-4.3-3.1c-2.4,0-4.5,1.9-4.5,4.5c0,2.8,2.4,4.6,4.5,4.6c2,0,3.6-1.2,4.3-3.1H-61.5"/>
	</g>
	<g id="g12209" transform="translate(153.5302,706.2231)">
		<path id="path12211" d="M-62.4-659.9c0.1-0.3,0.1-0.6,0.1-1c0-2.2-1.7-4.5-4.4-4.5c-2.6,0-4.5,2.2-4.5,4.6c0,2.5,2,4.5,4.5,4.5
			c2,0,3.6-1.4,4.1-3h-2.2c-0.4,0.7-1.1,1.1-2,1.1c-1.5,0-2.3-1.2-2.4-1.8H-62.4z M-69.1-661.5c0.4-1.6,1.7-2,2.4-2
			c1,0,2.1,0.6,2.3,2H-69.1"/>
	</g>
	<g id="g12213" transform="translate(92.8631,733.0946)">
		<path id="path12215" d="M-58.1-711.7l-2.7,4.7l-15.1-0.9l1.5-2.6L-58.1-711.7z M-47.1-726.7l1.4,5.2l-21.5-1.4l1.5-2.6
			L-47.1-726.7z M-61.3-733.1l12.6,0l0.9,3.6l-15-0.9C-62.9-730.5-61.3-733.1-61.3-733.1z M-62.5-704l-2.2,3.8l-15.6,0l1.5-2.6
			C-78.8-702.9-62.5-704-62.5-704z M-35-714.1l-3.8,6.6h3.6c1.7,0,4.7-0.8,5.6-3.2c0.9-2.2-0.7-3.4-1.8-3.4
			C-31.4-714.1-35-714.1-35-714.1z M-31.4-720.4l3.1,0c2.1,0,4.3-1,5.1-2.9c0.7-1.8-0.3-3.3-1.6-3.3l-3,0
			C-27.8-726.7-31.4-720.4-31.4-720.4z M-45.6-721.5l3.2-5.5l10.7-0.7l0.4-0.7l-9.9-0.7l2.3-4l18.4,0c5.7,0,9.9,2,8.2,8
			c-0.5,1.8-2.8,6.3-9.5,8.3c1.4,0.2,5,1.8,4.4,5.9c-1.1,7.3-10.5,10.7-15.8,10.7l-21.8,0l-1.1-4.2l11.4-0.8l0.4-0.7l-12.4-0.8
			l-1.3-5l17.6-1l0.4-0.7l-31.6-2l1.5-2.6l34-2.2l0.4-0.7L-45.6-721.5"/>
	</g>
</g>
</svg>
