<svg width="482" height="329" fill="none" xmlns="http://www.w3.org/2000/svg"><path opacity=".26" d="M3.328 177.642c8.186 31.136 21.941 59.776 37.438 86.592C52.346 284.277 65.65 304.131 84 314.537c16.143 9.146 34.534 10.045 52.362 10.79 20.697.859 41.387 1.726 62.085 2.585 23.216.965 46.498 1.931 69.665-.172 43.963-4 86.716-18.995 128.365-36.404 28.704-12.001 59.362 12.353 74-19.69 9.952-21.794 10.745-87.598 11.301-112.459.499-22.153.843-45.256-7-65.306-7.777-19.887-22.603-34.236-36.947-47.849-18.571-17.637-38.189-35.847-61.496-40.723-21.695-4.54-43.685 3.1-65.184 8.876-65.004 17.45-112.492 29.892-177.979 19.822-41.428-6.373-72.56-3.035-98.95 39.725-22.562 36.559-42.286 60.635-30.895 103.91z" fill="#CAE5FF"/><path opacity=".3" d="M259.878 308.614c24.345-1.685 48.657-3.91 72.97-6.136 19.364-1.775 38.974-3.607 57.325-11.232 26.332-10.929 49.058 5.915 62.51-23.445 14.556-31.766 18.032-108.794 21.229-144.871 2.225-25.033 4.195-51.75-5.43-74.108-8.766-20.345-26.095-33.778-44.314-40.429-18.22-6.65-37.52-7.346-56.549-7.992-83.78-2.839-151.745 10.25-235.517 7.403-26.177-.891-53.441-1.521-77.197 11.748-23.748 13.269-42.59 44.993-36.04 75.507 3.787 17.637-.612 16.157 1.947 34.105 3.132 21.973-7.572 42.94-12.062 64.569-12.152 58.508 27.755 125.622 78.62 127.324 21.442.719 43.113-7.052 64.563-8.312 35.957-2.119 71.98-1.644 107.945-4.131z" fill="#CAE5FF"/><path d="M82.913 224.632V92.539h15.66V54.254h9.274v38.572h16.233v39.152h11.309V88.473h27.248v43.21h13.191v-75.4h11.743v-4.925h9.854v-6.095h30.732v5.514h10.721v5.8h14.499v24.067h18.555V33.377h26.667v20.296h12.758v47.562h15.652V63.539h9.281V26.996h8.112V64.12h10.435v59.154h9.282V89.635h16.233v137.312l-297.439-2.315z" fill="#D1E5EC"/><path d="M429.45 269.085H51.928V166.001l54.782-16.108v57.821h18.67v-7.739h4.939v-14.177h7.982v14.177h4.563v7.739h5.283v-24.493h26.512V157.6h7.09v-32.494h20.624V157.6h7.082v42.359h23.723v-59.072h30.282v33.246h11.702V131.07h12.635v43.063h5.471v50.016h11.391v-76.178l58.225-16.729v26.431h7.753v-12.966h4.481v-30.391h9.085v30.391h4.089V157.6h8.946v20.615h32.409l-.197 90.87z" fill="#D1E5EC"/><path d="M259.265 271.597c2.568-3.322 10.991-17.049 10.991-21.573 0-10.872-29.154-35.389-52.223-10.119-.973 1.063-2.838.163-4.187.458-1.267-9.653-9.502-17.106-19.496-17.106-8.488 0-15.709 5.391-18.465 12.926a26.118 26.118 0 00-16.559-5.882c-13.036 0-23.847 9.506-25.907 21.957a19.767 19.767 0 00-5.643-.827c-5.626 0-10.68 2.373-14.27 6.152-.548-12.688-10.999-22.799-23.813-22.799-11.4 0-20.927 8.009-23.282 18.709a19.542 19.542 0 00-10.966-3.338c-10.868 0-19.684 8.819-19.684 19.691 0 .597.04 1.178.09 1.759h223.414v-.008z" fill="#7CA2DB"/><path d="M253.647 271.597a19.555 19.555 0 01-4.105-12.01c0-10.872 4.734-25.94 15.603-25.94 1.439 0 2.837.163 4.186.458 1.268-9.653 13.584-10.856 23.577-10.856 8.488 0 15.709 5.391 18.465 12.926a26.119 26.119 0 0116.56-5.882c13.035 0 23.846 9.506 25.907 21.956a19.79 19.79 0 015.642-.826c5.626 0 10.68 2.373 14.27 6.152.548-12.688 10.999-22.799 23.814-22.799 11.399 0 20.926 8.008 23.281 18.709a19.543 19.543 0 0110.967-3.338c10.868 0 19.683 8.819 19.683 19.691 0 .597-.041 1.178-.09 1.759h-197.76z" fill="#7CA2DB"/><path d="M386.607 193.979c-5.102-11.559-12.569-21.163-17.173-26.473a12.36 12.36 0 00-.997-1.668c-.581-1.048-1.333-1.972-2.298-2.708-3.214-2.913-7.695-4.336-7.695-4.336-.197-.065-.385-.123-.581-.188-.057-.278-.115-.606-.172-.925-.024-.171-.049-.343-.073-.523.572.033.899-.025.899-.025 1.268-.204 1.611-1.824 1.611-1.824l1.202-4.712c.72-2.495.81-4.393.565-5.833 1.627.36 2.731-.302 3.606-3.836 1.889-7.666-7.417-2.872-7.417-2.872s-15.391-3.558-11.269 8.974c-.065.049-.139.098-.204.148-.851.662-.736 1.922.327 3.296.883 1.137 1.66 1.849 2.379 1.694.008.196.033.572.049.875a15.156 15.156 0 01-.662 4.712c-5.242.638-8.668 2.953-8.668 2.953.114.066.22.139.335.213-3.557 1.432-5.054 3.46-5.684 5.047-3.066 4.164-9.167 17.032-8.709 53.273h.704l-.548 2.92s-.998 2.078 2.15 6.61c3.149 4.532 2.38 1.767 2.38 1.767l-1.766-4.458s-.957-5.498 1.112.155c1.799 4.9.736-4.434.425-6.986h1.374s1.488-20.828 3.05-30.702c-.204 20.165-2.641 35.193-2.641 35.193l2.625-.008c-1.562 11.698-2.797 28.1-5.275 62.761-1.545 1.088-2.707 3.191-3.066 5.056l10.426-.041c-.311-1.505-1.137-3.174-2.273-4.319l16.789-64.472 2.494 63.801c-.916.834-2.625 2.798-1.505 5.031h15.448s.858-5.154-6.665-4.835l-2.045-1.718c1.104-8.311 5.463-42.195 6.093-65.608.458.785 1.136 1.431 2.126 1.734l3.377.687.033-16.467c4.939-2.446 11.694-5.841 13.665-7.06 3.23-1.972 2.142-4.303 2.142-4.303zm-15.774 3.648l.024-12.835 7.417 8.614-7.441 4.221zM193.778 211.51l.859-.049c-2.691-33.991-9.953-44.102-12.046-46.36a7.557 7.557 0 00-1.57-1.472c.245-3.232 1.75-29.884-14.409-24.452 0 0-13.035-4.017-4.719 23.658.008.033.008.066.017.098-.417.344-.671.606-.671.606a14.73 14.73 0 00-1.284 1.8c-3.034 3.934-9.502 12.827-15.398 24.329 0 0-1.08 2.307 2.109 4.278 1.906 1.178 6.624 4.794 10.108 7.518-.139.36-.139.753.106.949-.319 7.314-.866 12.426-.866 12.426 1.136-.204 1.88-1.243 2.371-2.519.09 21.245 5.381 65.371 6.493 74.46h-.065l-7.867 3.166s-1.251-.148-1.251.671c0 .818.817 1.055 3.982.867 3.165-.188 9.985-.573 9.985-.573s1.488.049.72-1.971l-1.153-2.356h-.033l1.619-68.857 12.798 69.29-.18.008-3.876 2.839s-.81.221-.81 1.039.377.687 3.541.499c3.165-.188 5.218-.278 5.218-.278s1.488.049.719-1.972l-.384-2.323-.114.008c-.9-38.899-2.102-59.817-3.149-71.04.483-.066.973-.131 1.488-.221 0 0 .311-6.119-2.338-13.531-.066-.597-.27-1.26-.646-1.996-.352-.687-.695-1.334-1.014-1.947-.115-.237-.229-.475-.352-.712-2.903-5.62-1.537-12.933 0-17.858 4.898 10.586 7.712 26.391 8.439 30.89h-.368s.18.065.409.221l.164 1.022.646-.032c.302.687.392 1.734-.205 3.313-1.406 3.722.802 8.344.802 4.524 0-3.821.907-2.512.907-2.512l1.096 2.561c-.335 8.254 1.317 3.665 1.317 3.665l.679-4.663-1.824-7.011zm-37.11-30.841c.392 5.244.474 10.586.392 15.445l-7.261-6.405 6.869-9.04zm-21.099 105.849c-2.576-34.277-3.876-50.532-5.471-62.14h2.617s-2.453-14.733-2.764-34.588c1.758 10.21 3.623 29.876 3.623 29.876l1.382-.033c-.253 2.577-1.104 11.985.589 7.011 1.954-5.726 1.12-.18 1.12-.18l-1.676 4.524s-.712 2.798 2.355-1.832c3.058-4.631 2.012-6.7 2.012-6.7l-.622-2.921.703-.016c-.351-33.942-5.953-47.366-9.289-52.381-.557-1.611-2.02-3.787-5.79-5.293.106-.073.221-.147.327-.212 0 0-3.418-2.299-8.644-2.913a14.82 14.82 0 01-.679-4.687c.009-.311.033-.695.041-.892.72.147 1.489-.548 2.364-1.685 1.054-1.374 1.161-2.634.318-3.289a2.403 2.403 0 00-.351-.237.299.299 0 01.041.017c3.573-9.703-2.944-8.443-2.944-8.443-2.723-4.09-10.558-1.121-10.558-1.121-5.937 2.921-3.066 6.962-3.066 6.962a3.7 3.7 0 001.57 1.137c-.115 1.342.049 3.027.67 5.138l1.211 4.687s.343 1.612 1.611 1.808c0 0 .327.057.899.025-.024.18-.049.351-.073.523-.058.319-.115.646-.164.925-.188.057-.384.122-.572.188 0 0-4.457 1.431-7.646 4.344-.957.736-1.701 1.66-2.274 2.707-.049.066-.09.131-.139.205-3.328 3.738-11.138 13.293-16.985 26.53 0 0-1.055 2.257 2.07 4.188 1.913 1.178 7.67 5.138 11.857 8.025-.017.483.253.859.981.728l.09 16.083 3.361-.703c.99-.303 1.66-.949 2.11-1.734.736 23.74 5.364 58.287 6.387 65.747l-1.391 1.17c-6.942-.286-6.15 4.467-6.15 4.467h14.254c1.096-2.193-.768-4.115-1.553-4.786l2.232-63.342 16.781 64.021c-1.022 1.137-1.767 2.692-2.053 4.107h10.386c-.384-1.841-1.554-3.943-3.108-5.015zM94.084 184.841l.082 13.744-6.763-5.555 6.681-8.189zm226.644 3.33c-4.113-8.369-8.48-14.644-11.857-18.857.973-1.022 1.741-2.217 1.766-3.599.033-1.702-1.08-3.174-1.979-4.622-.9-1.44-1.644-3.281-.867-4.794.523-1.023 1.66-1.693 1.955-2.806.278-1.039-.27-2.127-.965-2.945-.696-.818-1.554-1.513-2.094-2.446-1.079-1.898-.679-4.532-2.224-6.078-1.112-1.113-3.394-2.929-4.964-2.986-.695-.025-1.497.008-2.012.417-2.649-.949-4.996-1.636-7.744-.057-1.865 1.071-4.612 1.865-5.749 3.689-1.308 2.111-.63 4.819-.098 7.24.531 2.422.695 5.367-1.202 6.954-.679.572-1.546.875-2.257 1.415-1.709 1.276-2.225 3.894-1.129 5.726.27.45.63.867.793 1.366.377 1.17-.408 2.365-1.144 3.346-1.17 1.571-2.339 3.199-2.961 5.056-.621 1.857-.629 4.025.426 5.677.482.745 1.161 1.334 1.929 1.767-1.21 6.569-2.126 15.576-2.142 27.863l.801-.016-1.169 6.659.965 4.279s1.864 4.139.957-3.502l.834-2.454s.744-1.276 1.022 2.266 1.995-.908.417-4.254a8.64 8.64 0 01-.327-.793c.597.065 1.178.122 1.734.155-1.121 10.807-2.462 32.273-3.451 74.91l-.123-.008-.393 2.372c-.785 2.062.736 2.013.736 2.013s2.094.081 5.324.278c3.238.196 3.623.327 3.623-.507 0-.835-.826-1.064-.826-1.064l-3.958-2.896-.18-.008 13.068-70.779 1.652 70.337h-.033l-1.177 2.405c-.786 2.062.735 2.013.735 2.013s6.96.392 10.198.589c3.238.196 4.073-.049 4.073-.884 0-.834-1.276-.687-1.276-.687l-8.039-3.239h-.065c1.145-9.294 6.55-54.459 6.632-76.137.36.409.793.703 1.325.801 0 0-.344-3.288-.622-8.295a.502.502 0 00.311-.425c3.426-3.682 7.932-8.492 9.568-10.062 2.764-2.659 2.183-4.393 2.183-4.393zm-35.933-5.866a23.407 23.407 0 001.505-.368c.859 4.148 1.088 9.064-.981 13.048-.237.458-.474.916-.703 1.366-.189.36-.385.728-.581 1.121-.057.106-.09.204-.139.311a226.184 226.184 0 00-3.222 6.675c.589-5.489 1.832-14.553 4.121-22.153zm23.618 14.349c-.131-4.769-.115-10.242.237-15.666l6.689 7.215-6.926 8.451z" fill="#1FACC5"/><path d="M279.177 220.128c23.338-23.347 23.338-61.199 0-84.546-23.339-23.347-61.178-23.347-84.516 0-23.339 23.347-23.339 61.199 0 84.546 23.338 23.347 61.177 23.347 84.516 0z" fill="#BBEAFF"/><path d="M247.186 193.529c7.491 25.941 1.587 71.261 2.192 93.783l-5.536-.05-8.538-66.5-5.062 66.484h-5.143c-.499-3.632-9.266-78.509-3.41-91.484l25.497-2.233z" fill="#43668E"/><path d="M235.909 156.651h-1.807c-5.119.221-19.201 2.102-16.543 16.132 3.115 16.41.433 34.8.433 34.8s7.344 1.473 15.227 1.71h3.574c7.883-.245 15.226-1.71 15.226-1.71s-2.682-18.39.434-34.8c2.658-14.038-11.424-15.911-16.544-16.132z" fill="#fff"/><path d="M228.509 144.781c.359 1.169.114 2.347-.548 2.626-.663.278-1.505-.45-1.865-1.62-.36-1.17-.114-2.348.548-2.626.671-.278 1.505.45 1.865 1.62zm12.462 0c-.359 1.169-.114 2.347.548 2.626.671.278 1.505-.45 1.865-1.62.36-1.17.114-2.348-.548-2.626s-1.497.45-1.865 1.62zm-1.373 6.34h-9.707l-.417 8.606s5.127 5.472 10.541 0l-.417-8.606z" fill="#DF966C"/><path d="M239.352 146.539l.875-6.192-5.413-.393v-.008l-.066.008-.065-.008v.008l-5.97.425 1.456 6.152-.352 6.291 2.895 3.182s.622.671 1.979.688v.008h.131v-.008c1.357-.017 1.979-.688 1.979-.688l2.878-3.182-.327-6.283z" fill="#CA896C"/><path d="M237.071 137.214l-1.301-.156-1.03 1.726-.065-.008v.008l-7.597.548.973 9.441s.041.941.589 1.587l4.056 4.483s.621.671 1.979.687v.008h.13v-.008c1.358-.016 1.979-.687 1.979-.687l4.057-4.483c.547-.655.588-1.587.588-1.587l.974-9.441-5.332-2.118z" fill="#DF966C"/><path d="M244.488 139.954c0-.744-.401-1.391-.99-1.751.262-.343.417-.769.417-1.235a2.06 2.06 0 00-1.709-2.029 2.51 2.51 0 00-2.51-2.454c-.532 0-1.023.172-1.431.45a2.507 2.507 0 00-2.266-1.448c-.842 0-1.578.417-2.036 1.055a2.508 2.508 0 00-1.758-.72c-1.21 0-2.216.859-2.462 1.997a2.404 2.404 0 00-.809-.148 2.512 2.512 0 00-2.511 2.512c0 .499.148.957.393 1.341a2.077 2.077 0 00-.564 3.502c-.385.278-.63.72-.63 1.227 0 .834.679 1.521 1.521 1.521a1.518 1.518 0 001.251-2.38 2.089 2.089 0 001.243-1.424 2.36 2.36 0 001.039.246c.687 0 1.3-.295 1.733-.753a2.355 2.355 0 003.19.327 2.357 2.357 0 002.543.009 2.37 2.37 0 001.725.744c.099 0 .197-.016.295-.033.098.532.433.966.891 1.211a1.524 1.524 0 00-.311.908c0 .835.679 1.522 1.521 1.522.843 0 1.522-.679 1.522-1.522 0-.343-.115-.654-.311-.908a2.073 2.073 0 001.014-1.767z" fill="#614638"/><path d="M231.543 149.763c.458 1.366 1.66 2.462 3.091 2.462 1.431 0 2.641-1.096 3.107-2.462h-6.198z" fill="#fff"/><path d="M237.071 162.091h-4.424v2.626h4.424v-2.626z" fill="#F48656"/><path d="M229.318 155.726l5.602 6.348-3.606 4.549-6.035-8.393 4.039-2.504z" fill="#E5E5E5"/><path d="M240.325 155.726l-5.601 6.348 3.598 4.549 6.035-8.393-4.032-2.504z" fill="#E5E5E5"/><path d="M234.683 189.177l3.287-3.403-2.355-21.458-.932.057-.941-.057-2.355 21.458 3.288 3.403h.008z" fill="#1FACC5"/><path d="M226.456 157.354v54.32s-1.529 6.659-10.615 6.037l.467-49.378c0-.009-.156-9.654 10.148-10.979z" fill="#43668E"/><path d="M226.456 157.354v36.797l-4.465-35.504s1.178-.998 4.465-1.293z" fill="#395A79"/><path d="M242.95 157.362v54.32s1.53 6.659 10.615 6.037l-.466-49.378s.155-9.645-10.149-10.979z" fill="#43668E"/><path d="M242.95 157.362v36.797l4.465-35.504s-1.169-.998-4.465-1.293zm-19.119 46.941h-6.583v.941h6.583v-.941zm27.501 0h-6.583v.941h6.583v-.941z" fill="#395A79"/><path d="M213.683 200.114l2.322 1.636s.417 1.334-.025 5.555c0 0-.368 2.855-2.396.826l-3.132-5.432 3.231-2.585z" fill="#DF966C"/><path d="M220.266 160.087s-8.702 6.217-23.904 24.738c0 0-2.576 2.307-.368 5.064l14.368 15.109 3.868-5.162-9.944-12.533 13.076-10.135 2.904-17.081z" fill="#43668E"/><path d="M255.847 200.114l-2.323 1.636s-.417 1.334.025 5.555c0 0 .368 2.855 2.396.826l3.132-5.432-3.23-2.585z" fill="#DF966C"/><path d="M249.264 160.087s8.701 6.217 23.903 24.738c0 0 2.576 2.307.368 5.064l-14.368 15.109-3.868-5.162 9.944-12.533-13.076-10.135-2.903-17.081z" fill="#43668E"/><path d="M244.987 286.084s-3.517 2.504-2.037 5.473h15.473s.858-5.162-6.673-4.851l-2.699-2.266-4.064 1.644zm-15.824 0s3.516 2.504 2.036 5.473h-15.472s-.859-5.162 6.673-4.851l2.699-2.266 4.064 1.644zm141.228-6.667l-13.673 16.255-71.236-59.497 13.665-16.255 71.244 59.497z" fill="#395777"/><path d="M276.839 129.753c-27.518-23.16-68.742-19.609-91.901 7.919-23.151 27.527-19.602 68.766 7.916 91.933 22.472 18.914 54.079 20.01 77.524 4.786l11.539 9.711c1.995 1.677 5.005 1.423 6.681-.573l18.326-21.785c1.677-1.996 1.423-5.007-.572-6.684l-11.539-9.71c10.975-25.72 4.49-56.684-17.974-75.597zm-1.162 84.293c-18.947 22.521-52.672 25.433-75.185 6.479-22.513-18.955-25.424-52.691-6.477-75.221 18.948-22.521 52.673-25.433 75.186-6.479 22.513 18.955 25.424 52.691 6.476 75.221zm45.403 60.299l60.817 50.949c1.996 1.677 5.005 1.424 6.681-.572l15.783-18.759c1.677-1.996 1.423-5.006-.572-6.683l-60.818-50.949-21.891 26.014z" fill="#2A4053"/><path d="M432.836 113.261a19.427 19.427 0 006.755-4.655l3.671 1.497 3.059-4.728-2.87-2.741a19.616 19.616 0 001.48-8.074l3.655-1.546-1.177-5.506-3.975.09a19.425 19.425 0 00-4.653-6.757l1.497-3.673-4.727-3.06-2.74 2.872a19.59 19.59 0 00-8.071-1.481l-1.546-3.657-5.503 1.178.09 3.976a19.417 19.417 0 00-6.755 4.655l-3.672-1.497-3.058 4.728 2.87 2.74a19.618 19.618 0 00-1.48 8.075l-3.655 1.546 1.177 5.506 3.975-.09a19.43 19.43 0 004.653 6.757l-1.497 3.673 4.727 3.059 2.739-2.871a19.59 19.59 0 008.072 1.481l1.545 3.656 5.504-1.178-.09-3.975zm-14.008-16.754c-.769-3.575 1.521-7.101 5.086-7.87 3.574-.769 7.098 1.522 7.867 5.088.769 3.575-1.521 7.101-5.086 7.87-3.566.769-7.099-1.513-7.867-5.088zM44.397 127.986a19.423 19.423 0 006.754-4.655l3.672 1.497 3.059-4.728-2.87-2.741a19.61 19.61 0 001.48-8.074l3.655-1.546-1.178-5.506-3.974.09a19.432 19.432 0 00-4.653-6.757l1.496-3.673-4.727-3.06-2.739 2.872a19.59 19.59 0 00-8.071-1.48l-1.546-3.658-5.504 1.178.09 3.976a19.423 19.423 0 00-6.754 4.655l-3.672-1.497-3.058 4.728 2.87 2.741a19.61 19.61 0 00-1.48 8.074l-3.656 1.546 1.178 5.506 3.974-.09a19.437 19.437 0 004.653 6.757l-1.496 3.673 4.727 3.06 2.739-2.872a19.588 19.588 0 008.071 1.481l1.546 3.657 5.504-1.178-.09-3.976zm-14.009-16.754c-.769-3.575 1.521-7.101 5.087-7.87 3.573-.769 7.098 1.522 7.867 5.088.768 3.575-1.521 7.101-5.087 7.87-3.565.769-7.098-1.513-7.867-5.088zm386.199-60.144l1.071-4.369-2.878-1.317a15.594 15.594 0 00-.998-6.479l2.355-2.127-2.331-3.844-2.968 1.112a15.541 15.541 0 00-5.283-3.878l.164-3.165-4.367-1.072-1.317 2.88a15.553 15.553 0 00-6.476.997l-2.127-2.355-3.843 2.331 1.112 2.97a15.532 15.532 0 00-3.876 5.284l-3.165-.163-1.071 4.368 2.878 1.317a15.578 15.578 0 00.998 6.48l-2.355 2.126 2.33 3.845 2.969-1.113a15.532 15.532 0 005.283 3.878l-.164 3.166 4.367 1.072 1.317-2.88a15.549 15.549 0 006.476-.998l2.127 2.356 3.843-2.331-1.112-2.97a15.545 15.545 0 003.876-5.285l3.165.164zm-20.003 3.338c-5.479-1.4-8.791-6.978-7.392-12.468 1.398-5.48 6.975-8.794 12.462-7.395 5.479 1.399 8.791 6.978 7.393 12.467-1.398 5.49-6.984 8.803-12.463 7.396zM54.292 77.83l.703-2.863-1.89-.859a10.252 10.252 0 00-.653-4.237l1.545-1.391-1.53-2.52-1.945.728a10.154 10.154 0 00-3.46-2.536l.107-2.07-2.862-.703-.859 1.89a10.243 10.243 0 00-4.236.654l-1.39-1.546-2.519 1.53.728 1.947a10.158 10.158 0 00-2.535 3.46l-2.07-.106-.702 2.863 1.889.86a10.24 10.24 0 00.654 4.237l-1.546 1.39 1.53 2.52 1.946-.728a10.152 10.152 0 003.459 2.536l-.106 2.07 2.862.703.858-1.89a10.23 10.23 0 004.236-.654l1.39 1.546 2.52-1.53-.728-1.947a10.157 10.157 0 002.535-3.46l2.069.106zm-13.093 2.185a6.709 6.709 0 01-4.841-8.156c.916-3.592 4.571-5.76 8.153-4.843a6.709 6.709 0 014.841 8.156c-.916 3.591-4.571 5.759-8.153 4.843z" fill="#D1E5EC"/></svg>