<svg width="485" height="327" fill="none" xmlns="http://www.w3.org/2000/svg"><path opacity=".26" d="M16.962 146.628c8.014-30.167 21.452-57.91 36.606-83.891C64.888 43.32 77.902 24.081 95.846 14.01c15.779-8.859 33.769-9.731 51.195-10.457 20.231-.834 40.469-1.668 60.7-2.51 22.704-.935 45.462-1.877 68.119.17 42.981 3.884 84.787 18.412 125.512 35.28 28.067 11.624 58.042 26.646 72.361 57.694 9.729 21.115 10.51 46.247 11.051 70.329.487 21.463.819 43.837-6.847 63.269-7.604 19.27-22.101 33.165-36.119 46.356-18.16 17.084-37.34 34.732-60.128 39.451-21.213 4.395-42.719-3.004-63.73-8.596-63.567-16.922-125.45-13.531-189.481-3.769-40.508 6.171-70.947 2.943-96.75-38.478-22.07-35.427-25.902-74.198-14.767-116.121z" fill="#CAE5FF"/><path opacity=".3" d="M267.808 19.749c23.801 1.63 47.571 3.784 71.341 5.947 18.933 1.722 38.105 3.498 56.056 10.882 25.749 10.589 47.965 32.886 61.118 61.331 14.234 30.778 17.626 66.784 20.756 101.725 2.172 24.251 4.104 50.14-5.309 71.789-8.57 19.71-25.509 32.724-43.328 39.165-17.813 6.441-36.683 7.113-55.291 7.746-81.913 2.765-163.826 5.523-245.731 8.288-25.593.865-52.254 1.475-75.475-11.385-23.221-12.859-41.644-43.59-35.238-73.148 3.702-17.084 14.86-31.094 17.356-48.487 3.06-21.286-7.403-41.598-11.8-62.552C10.386 74.353 49.41 9.338 99.145 7.692c20.965-.695 42.154 6.836 63.127 8.056 35.153 2.054 70.375 1.591 105.536 4z" fill="#CAE5FF"/><path d="M41.466 193.2l1.229-5.028-3.315-1.514a18.01 18.01 0 00-1.152-7.453l2.713-2.448-2.69-4.425-3.423 1.274a17.915 17.915 0 00-6.081-4.464l.185-3.638-5.03-1.228-1.515 3.313a18.049 18.049 0 00-7.457 1.151l-2.45-2.711-4.428 2.688 1.275 3.422a17.909 17.909 0 00-4.466 6.078l-3.64-.186L0 183.052l3.315 1.513a18.005 18.005 0 001.152 7.453l-2.713 2.449 2.69 4.425 3.423-1.274a17.928 17.928 0 006.081 4.464l-.185 3.638 5.03 1.228 1.515-3.314c2.496.147 5.03-.231 7.457-1.15l2.442 2.711 4.428-2.688-1.275-3.422a17.918 17.918 0 004.467-6.078l3.64.193zm-23.036 3.839c-6.313-1.615-10.123-8.033-8.515-14.343 1.615-6.31 8.036-10.117 14.35-8.511 6.313 1.614 10.123 8.033 8.516 14.343-1.608 6.31-8.037 10.125-14.35 8.511zM428.619 54.18l1.229-5.028-3.315-1.514a18.014 18.014 0 00-1.151-7.453l2.712-2.449-2.689-4.425-3.424 1.274a17.927 17.927 0 00-6.081-4.464l.185-3.638-5.03-1.228-1.515 3.314a18.033 18.033 0 00-7.457 1.15l-2.45-2.71-4.428 2.687 1.275 3.422a17.924 17.924 0 00-4.466 6.078l-3.64-.185-1.221 5.02 3.315 1.514a17.998 17.998 0 001.152 7.453l-2.713 2.448 2.689 4.426 3.424-1.275a17.929 17.929 0 006.081 4.464l-.185 3.638 5.031 1.228 1.514-3.313a18.035 18.035 0 007.457-1.151l2.442 2.71 4.428-2.687-1.275-3.421a17.914 17.914 0 004.467-6.079l3.639.194zm-23.036 3.838c-6.313-1.614-10.123-8.032-8.515-14.342 1.615-6.31 8.036-10.118 14.35-8.512 6.313 1.615 10.123 8.033 8.516 14.343-1.608 6.31-8.037 10.125-14.351 8.511zM63.915 160.144l.95-3.9-2.573-1.174a13.83 13.83 0 00-.896-5.777l2.102-1.892-2.087-3.43-2.65.989a13.88 13.88 0 00-4.714-3.46l.147-2.819-3.903-.958-1.174 2.572a13.855 13.855 0 00-5.78.896l-1.894-2.101-3.43 2.086.988 2.649a13.868 13.868 0 00-3.462 4.711l-2.82-.147-.959 3.9 2.574 1.174a13.834 13.834 0 00.896 5.778l-2.102 1.892 2.087 3.429 2.65-.989a13.868 13.868 0 004.714 3.46l-.147 2.819 3.903.958 1.174-2.572a13.84 13.84 0 005.78-.896l1.894 2.101 3.43-2.085-.988-2.649a13.872 13.872 0 003.462-4.712l2.828.147zm-17.866 2.981c-4.9-1.251-7.851-6.232-6.6-11.121 1.252-4.889 6.237-7.847 11.128-6.596 4.9 1.251 7.851 6.233 6.6 11.122-1.252 4.889-6.229 7.847-11.128 6.595z" fill="#D1E5EC"/><path d="M403.458 311.321H96.502a3.27 3.27 0 01-3.26-3.259V101.871a3.27 3.27 0 013.26-3.259h306.956a3.27 3.27 0 013.261 3.259v206.191c-.007 1.792-1.476 3.259-3.261 3.259z" fill="#2A4053"/><path d="M395.847 301.482H104.114a1.962 1.962 0 01-1.955-1.954V110.406c0-1.074.881-1.954 1.955-1.954h291.733c1.074 0 1.955.88 1.955 1.954v189.122a1.962 1.962 0 01-1.955 1.954z" fill="#D1E5EC"/><path d="M62.787 303.104v3.221c0 4.085 3.346 7.422 7.426 7.422H429.74c4.088 0 7.426-3.345 7.426-7.422v-3.221H62.786z" fill="#2A4053"/><path d="M367.363 25.456H132.366V291.75h234.997V25.456z" fill="#EEF2FF"/><path d="M367.641 34.523V19.162c0-2.109-1.723-3.839-3.825-3.839H136.145c-2.102 0-3.825 1.73-3.825 3.839v15.361h235.321z" fill="#1FACC5"/><path d="M242.933 20.838h-99.57v8.318h99.57v-8.318z" fill="#1F8396"/><path d="M341.854 28.36a3.36 3.36 0 10-3.362-3.36 3.36 3.36 0 003.362 3.36z" fill="#9CB777"/><path d="M333.871 25a3.363 3.363 0 01-3.361 3.36 3.363 3.363 0 01-3.362-3.36 3.363 3.363 0 013.362-3.36 3.363 3.363 0 013.361 3.36z" fill="#FFCF61"/><path d="M353.198 28.36a3.36 3.36 0 10-3.362-3.36 3.36 3.36 0 003.362 3.36z" fill="#1F8396"/><path d="M340.046 170.061h-79.641v107.98h79.641v-107.98z" fill="#9AC3F4"/><path d="M338.052 166.771H258.96V274.01h79.092V166.771z" fill="#BBDFFF"/><path d="M336.846 168.617h-79.092v107.239h79.092V168.617z" fill="#fff"/><path d="M294.391 220.085c.317 1.506 1.499 2.626 2.905 2.626 1.407 0 2.589-1.12 2.906-2.626h-5.811z" fill="#fff"/><path d="M278.627 186.512l-1.577-2.263c-.069.008-.162.008-.301.008h-1.747v2.247h-1.437v-7.723h3.176c.672 0 1.252.108 1.746.332.495.224.881.54 1.144.95.263.409.394.903.394 1.467 0 .579-.139 1.081-.425 1.499a2.507 2.507 0 01-1.221.934l1.778 2.533h-1.53v.016zm-.518-6.109c-.325-.263-.796-.394-1.422-.394h-1.677v3.081h1.677c.626 0 1.097-.131 1.422-.401.324-.271.487-.649.487-1.143 0-.495-.163-.881-.487-1.143zm9.327 4.912v1.204h-5.796v-7.723h5.641v1.205h-4.203v2.008h3.732v1.182h-3.732v2.131h4.358v-.007zm2.272 1.058c-.556-.17-.997-.394-1.322-.672l.495-1.112c.317.247.703.455 1.167.61.464.154.919.239 1.383.239.572 0 1.005-.092 1.283-.278.286-.185.425-.425.425-.726a.696.696 0 00-.24-.548 1.612 1.612 0 00-.602-.34c-.24-.085-.572-.17-.997-.278a11.615 11.615 0 01-1.43-.417 2.264 2.264 0 01-.935-.657c-.263-.301-.394-.702-.394-1.204 0-.425.116-.811.348-1.167.232-.347.579-.625 1.051-.834.463-.208 1.043-.309 1.715-.309.472 0 .935.062 1.391.178.456.116.85.286 1.183.51l-.456 1.112a4.706 4.706 0 00-1.059-.456 4.115 4.115 0 00-1.074-.154c-.564 0-.989.092-1.268.285-.278.193-.417.448-.417.765a.67.67 0 00.24.541c.154.139.355.247.602.332.24.077.572.17.997.278.572.131 1.044.27 1.414.417.371.147.681.363.943.656.263.294.394.688.394 1.19 0 .425-.116.811-.347 1.158-.232.348-.58.618-1.051.827-.472.208-1.044.309-1.724.309a5.834 5.834 0 01-1.715-.255zm7.102-.649c-.595-.602-.897-1.46-.897-2.572v-4.356h1.438v4.302c0 1.514.656 2.271 1.962 2.271s1.955-.757 1.955-2.271v-4.302h1.415v4.356c0 1.12-.294 1.977-.889 2.572-.595.602-1.422.896-2.488.896-1.067.008-1.901-.294-2.496-.896zm14.976.788l-.008-5.121-2.542 4.24h-.642l-2.542-4.17v5.051h-1.368v-7.724h1.182l3.068 5.121 3.014-5.121h1.182l.008 7.724h-1.352zm9.242-1.197v1.204h-5.796v-7.723h5.641v1.205h-4.203v2.008h3.732v1.182h-3.732v2.131h4.358v-.007zm-46.319 42.37a1.614 1.614 0 11-3.228 0 1.614 1.614 0 013.228 0z" fill="#FFBF94"/><path d="M323.13 227.029h-46.296v1.32h46.296v-1.32z" fill="#CCE4F5"/><path d="M274.709 222.132a1.614 1.614 0 11-3.228 0 1.614 1.614 0 013.228 0z" fill="#FFBF94"/><path d="M323.13 221.475h-46.296v1.321h46.296v-1.321z" fill="#CCE4F5"/><path d="M273.086 234.86a1.615 1.615 0 100-3.23 1.615 1.615 0 000 3.23z" fill="#FFBF94"/><path d="M323.13 232.589h-46.296v1.321h46.296v-1.321z" fill="#CCE4F5"/><path d="M289.113 214.146v-2.379c0-2.047-1.978-4.024-4.026-4.024h-9.652c-2.048 0-4.026 1.977-4.026 4.024v2.379h17.704z" fill="#1FACC5"/><path d="M284.075 207.743l-3.895.031-.008-.038-3.524.023 3.617 6.364v-.008l3.81-6.372z" fill="#8EC2FE"/><path d="M276.988 200.73c.193.611.062 1.229-.286 1.375-.347.147-.788-.231-.973-.849-.194-.61-.062-1.228.286-1.375.347-.139.788.239.973.849zm6.53 0c-.193.611-.062 1.229.286 1.375.348.147.788-.231.974-.849.193-.61.062-1.228-.286-1.375-.348-.139-.781.239-.974.849zm-.719 3.322h-5.084l-.217 4.502s2.682 2.866 5.526 0l-.225-4.502z" fill="#DF966C"/><path d="M282.668 201.657l.464-3.244-2.836-.2v-.008h-.078v.008l-3.129.224.765 3.22-.186 3.29 1.515 1.661s.324.355 1.035.363h.078c.711-.008 1.035-.363 1.035-.363l1.507-1.668-.17-3.283z" fill="#CA896C"/><path d="M281.478 196.768l-.68-.085-.541.904h-.039v.008l-3.979.286.51 4.935s.023.486.309.834l2.125 2.348s.324.355 1.035.363h.078c.711-.008 1.035-.363 1.035-.363l2.125-2.348c.286-.34.309-.834.309-.834l.51-4.935-2.797-1.113z" fill="#DF966C"/><path d="M284.314 199.587a5.676 5.676 0 01-.34-1.668 4.44 4.44 0 01.201-1.506 1.316 1.316 0 00-1.314-1.282c-.278 0-.533.085-.749.239a1.312 1.312 0 00-2.257-.208 1.322 1.322 0 00-.919-.379c-.634 0-1.159.448-1.291 1.043a1.301 1.301 0 00-.425-.077c-.324 0-.626.123-.85.317.077.339.131.687.147 1.042.039.788-.155 1.537-.495 2.209.325.131.634.294.92.487 0-.008-.008-.008-.008-.016.325-.131.564-.401.649-.749.163.077.348.131.549.131.355 0 .68-.154.912-.394a1.243 1.243 0 001.669.17c.193.124.425.201.672.201.24 0 .464-.069.657-.193.232.239.549.386.904.386.054 0 .101-.008.155-.015.046.278.224.51.471.633-.008.008-.015.023-.023.031.247-.147.502-.286.765-.402z" fill="#CA896C"/><path d="M285.357 198.205c0-.386-.208-.726-.517-.919.139-.178.216-.402.216-.649 0-.533-.386-.973-.897-1.058a1.31 1.31 0 00-2.063-1.043 1.311 1.311 0 00-2.256-.208 1.324 1.324 0 00-.92-.379c-.633 0-1.159.448-1.29 1.043a1.31 1.31 0 00-.425-.077c-.727 0-1.314.587-1.314 1.313 0 .262.077.502.209.703-.402.162-.68.556-.68 1.011 0 .332.146.618.378.819a.793.793 0 00.464 1.437.796.796 0 00.657-1.244c.324-.131.564-.402.649-.749.17.077.348.131.548.131.356 0 .681-.154.912-.394a1.239 1.239 0 001.67.17 1.212 1.212 0 001.329.008c.231.239.548.386.904.386.054 0 .1-.008.154-.015a.868.868 0 00.472.633.795.795 0 00.633 1.274.794.794 0 00.634-1.274c.317-.178.533-.525.533-.919z" fill="#614638"/><path d="M292.962 216.656h-25.409v-25.394h25.409v25.394zm-24.497-.911h23.585v-23.572h-23.585v23.572zm58.583-12.481h-28.909v1.398h28.909v-1.398zm-15.479-4.248h-13.43v1.398h13.43v-1.398zm15.479 8.488h-28.909v1.398h28.909v-1.398zm.031 31.975h-59.557v1.32h59.557v-1.32zm0 4.665h-59.557v1.32h59.557v-1.32zm0 4.664h-59.557v1.321h59.557v-1.321zm0 4.658h-59.557v1.32h59.557v-1.32zm0 4.665h-59.557v1.32h59.557v-1.32zm0 4.665h-59.557v1.32h59.557v-1.32z" fill="#CCE4F5"/><path d="M328.207 159.789a3.189 3.189 0 00-3.184 3.182v11.106c0 1.753.734 3.167 2.488 3.167 1.755 0 2.435-1.406 2.435-3.167v-7.082c0-.966-.727-1.746-1.623-1.746-.897 0-1.623.78-1.623 1.746v4.456h.896v-4.456c0-.433.325-.78.727-.78.402 0 .726.347.726.78v7.082c0 1.259-.278 2.271-1.538 2.271-1.259 0-1.592-1.004-1.592-2.271v-11.106a2.292 2.292 0 012.288-2.286 2.291 2.291 0 012.287 2.286v3.792h.897v-3.792a3.189 3.189 0 00-3.184-3.182z" fill="#CC8243"/><path d="M242.199 48.464h-79.641v107.981h79.641V48.465z" fill="#9AC3F4"/><path d="M240.205 45.166h-79.092v107.239h79.092V45.166z" fill="#BBDFFF"/><path d="M238.999 47.02h-79.092v107.239h79.092V47.019z" fill="#fff"/><path d="M196.552 98.48c.317 1.507 1.499 2.627 2.905 2.627 1.407 0 2.589-1.12 2.906-2.626h-5.811z" fill="#fff"/><path d="M180.787 64.915l-1.576-2.263c-.07.008-.162.008-.302.008h-1.746v2.247h-1.437v-7.723h3.176c.672 0 1.252.108 1.746.332.495.224.881.54 1.144.95.263.41.394.904.394 1.467 0 .58-.139 1.082-.425 1.499a2.507 2.507 0 01-1.221.934l1.777 2.541h-1.53v.008zm-.525-6.11c-.325-.262-.796-.393-1.422-.393h-1.677v3.081h1.677c.626 0 1.097-.13 1.422-.401.324-.27.487-.649.487-1.143 0-.502-.163-.88-.487-1.143zm9.327 4.905v1.205h-5.796v-7.723h5.642v1.204h-4.204v2.008h3.732v1.182h-3.732v2.132h4.358v-.008zm2.272 1.058c-.556-.17-.997-.394-1.321-.672l.494-1.112c.317.247.703.456 1.167.61.464.155.92.24 1.383.24.572 0 1.005-.093 1.283-.278.286-.186.425-.425.425-.726a.696.696 0 00-.24-.549 1.614 1.614 0 00-.602-.34c-.24-.077-.572-.17-.997-.278a11.668 11.668 0 01-1.43-.417 2.27 2.27 0 01-.935-.656c-.263-.301-.394-.703-.394-1.205 0-.425.116-.81.348-1.166.232-.348.579-.626 1.051-.834.463-.209 1.043-.31 1.715-.31.472 0 .935.063 1.391.178.456.116.85.286 1.183.51l-.456 1.112c-.34-.2-.688-.347-1.059-.455a4.099 4.099 0 00-1.074-.155c-.564 0-.989.093-1.267.286-.279.193-.418.448-.418.764 0 .224.078.402.24.541.162.14.355.247.603.332.239.078.571.17.996.278.572.132 1.044.27 1.415.417.371.147.68.363.942.657.263.293.394.687.394 1.19 0 .424-.115.81-.347 1.158-.232.347-.58.625-1.051.826-.472.209-1.043.31-1.723.31a5.84 5.84 0 01-1.716-.256zm7.102-.641c-.595-.602-.897-1.46-.897-2.58v-4.355h1.438v4.301c0 1.514.656 2.271 1.962 2.271s1.955-.757 1.955-2.27v-4.302h1.415v4.356c0 1.12-.294 1.977-.889 2.58-.595.602-1.422.895-2.488.895-1.067 0-1.901-.301-2.496-.896zm14.976.788l-.008-5.12-2.542 4.24h-.642l-2.542-4.171v5.051h-1.368v-7.723h1.182l3.068 5.12 3.014-5.12h1.182l.008 7.723h-1.352zm9.242-1.205v1.205h-5.796v-7.723h5.641v1.204h-4.203v2.008h3.732v1.182h-3.732v2.132h4.358v-.008zm-46.319 42.378a1.614 1.614 0 11-3.228 0 1.614 1.614 0 013.228 0z" fill="#FFBF94"/><path d="M225.283 105.432h-46.296v1.321h46.296v-1.321z" fill="#CCE4F5"/><path d="M176.862 100.535a1.614 1.614 0 11-1.615-1.614 1.61 1.61 0 011.615 1.614z" fill="#FFBF94"/><path d="M225.283 99.871h-46.296v1.321h46.296v-1.321z" fill="#CCE4F5"/><path d="M176.862 111.641a1.615 1.615 0 11-3.23 0 1.615 1.615 0 013.23 0z" fill="#FFBF94"/><path d="M225.283 110.985h-46.296v1.321h46.296v-1.321zM195.115 95.06h-25.409V69.664h25.409v25.394zm-24.497-.912h23.585V70.576h-23.585v23.572zm58.583-12.488h-28.909v1.397h28.909V81.66zm-15.479-4.249h-13.43v1.398h13.43v-1.398zm15.479 8.496h-28.909v1.398h28.909v-1.398zm.031 31.975h-59.557v1.321h59.557v-1.321zm0 4.657h-59.557v1.321h59.557v-1.321zm0 4.665h-59.557v1.321h59.557v-1.321zm0 4.665h-59.557v1.321h59.557v-1.321zm0 4.665h-59.557v1.321h59.557v-1.321zm0 4.657h-59.557v1.321h59.557v-1.321z" fill="#CCE4F5"/><path d="M230.36 38.192a3.189 3.189 0 00-3.184 3.182V52.48c0 1.754.734 3.167 2.488 3.167 1.755 0 2.435-1.406 2.435-3.167v-7.082c0-.965-.727-1.745-1.623-1.745-.897 0-1.623.78-1.623 1.745v4.456h.896v-4.456c0-.433.325-.78.727-.78.402 0 .726.347.726.78v7.082c0 1.26-.278 2.271-1.538 2.271-1.259 0-1.591-1.004-1.591-2.27V41.373a2.29 2.29 0 012.287-2.286 2.29 2.29 0 012.287 2.286v3.792h.897v-3.792a3.189 3.189 0 00-3.184-3.182z" fill="#CC8243"/><path d="M191.305 92.673v-2.348a3.686 3.686 0 00-3.679-3.676h-10.123a3.686 3.686 0 00-3.678 3.676v2.348h17.48z" fill="#F45289"/><path d="M179.334 79.427c.186.603.062 1.213-.285 1.352-.348.147-.781-.232-.966-.834-.186-.603-.062-1.213.286-1.352.347-.147.78.232.965.834zm6.445 0c-.185.603-.061 1.213.286 1.352.348.147.781-.232.966-.834.186-.603.062-1.213-.286-1.352-.347-.147-.772.232-.966.834zm-.494 7.723h-5.456l.216-4.448h5.023l.217 4.449z" fill="#DF966C"/><path d="M184.945 80.339l.456-3.198-2.806-.2v-.008h-.077v.007l-3.091.224.75 3.182-.186 3.252 1.499 1.645s.325.348 1.02.355h.078c.703-.007 1.02-.355 1.02-.355l1.491-1.645-.154-3.26z" fill="#CA896C"/><path d="M183.762 75.511l-.672-.077-.533.888h-.039v.008l-3.933.278.502 4.881s.023.487.302.819l2.101 2.317s.325.348 1.021.355h.077c.703-.007 1.02-.355 1.02-.355l2.102-2.317c.286-.332.301-.819.301-.819l.502-4.88-2.751-1.098z" fill="#DF966C"/><path d="M186.738 75.287c-.132-.61-.804-1.166-1.492-1.166-.216 0-.34.016-.456.054.186-.332.464-.672.889-.803 0 0-.711-.046-1.237.718-.386-1.035-1.182-1.529-1.182-1.529.379.448.595 1.035.711 1.49-.626-.355-1.646-.594-2.357-.594-1.344 0-2.635.649-3.045 2.255a3.712 3.712 0 00-.17.634 4.24 4.24 0 00.008 1.367h-.008l.596 2.904.131-2.008c1.445-.155 2.542-.549 3.377-1.004-.533.849-1.615 1.706-1.615 1.706 2.627-.857 3.292-2.58 3.454-3.159.085.464.541 1.352 1.777 2.34l.024 2.125.703-4.28c-.016-.015.023-.447-.108-1.05z" fill="#723F3F"/><path d="M186.939 89.499l-.866-4.982-3.516 2.502-3.516-2.502-.858 4.982 4.374-2.217 4.382 2.217z" fill="#FFD55F"/><path d="M353.329 17.802H251.402v138.202h101.927V17.802z" fill="#9AC3F4"/><path d="M350.787 13.585H249.555v137.252h101.232V13.585z" fill="#BBDFFF"/><path d="M349.234 15.949H248.01V153.2h101.224V15.949z" fill="#fff"/><path d="M294.901 81.821c.409 1.931 1.916 3.368 3.717 3.368 1.8 0 3.307-1.437 3.717-3.368h-7.434z" fill="#fff"/><path d="M274.732 38.857l-2.017-2.897a4.177 4.177 0 01-.379.016h-2.233v2.88h-1.839v-9.885h4.065c.857 0 1.599.139 2.241.425.633.285 1.12.687 1.46 1.212.34.525.51 1.15.51 1.877 0 .741-.178 1.382-.541 1.923-.363.533-.881.935-1.561 1.197l2.272 3.244h-1.978v.008zm-.665-7.824c-.417-.34-1.02-.51-1.823-.51h-2.149v3.94h2.149c.803 0 1.406-.17 1.823-.518.418-.34.618-.834.618-1.46s-.208-1.112-.618-1.452zm11.932 6.279v1.537h-7.419v-9.886h7.218V30.5h-5.386v2.571h4.775v1.514h-4.775v2.727h5.587zm2.905 1.358c-.711-.215-1.275-.501-1.684-.864l.633-1.429c.402.317.904.58 1.492.78a5.48 5.48 0 001.769.301c.734 0 1.283-.115 1.646-.355.363-.232.541-.548.541-.934 0-.286-.1-.518-.301-.696a2.125 2.125 0 00-.773-.432c-.309-.1-.734-.224-1.275-.355a15.39 15.39 0 01-1.831-.533 2.945 2.945 0 01-1.198-.842c-.332-.379-.502-.896-.502-1.545 0-.548.146-1.042.448-1.49.293-.448.742-.804 1.344-1.066.595-.263 1.329-.394 2.195-.394.603 0 1.198.077 1.777.224a5.08 5.08 0 011.515.649l-.58 1.428a5.74 5.74 0 00-1.352-.579 5.096 5.096 0 00-1.368-.2c-.726 0-1.267.123-1.615.37-.355.247-.533.572-.533.973 0 .286.1.51.301.695.201.178.456.317.773.425.309.1.734.224 1.275.355.734.17 1.337.348 1.808.533a3.08 3.08 0 011.206.842c.332.379.502.888.502 1.522 0 .548-.147 1.042-.448 1.483-.294.44-.75.795-1.352 1.058-.603.262-1.337.393-2.203.393a7.285 7.285 0 01-2.21-.316zm9.088-.826c-.765-.764-1.144-1.869-1.144-3.297V28.97h1.839v5.507c0 1.939.835 2.912 2.512 2.912 1.669 0 2.504-.973 2.504-2.912V28.97h1.808v5.577c0 1.428-.379 2.533-1.136 3.297-.757.765-1.824 1.151-3.184 1.151-1.368 0-2.434-.386-3.199-1.15zm19.172 1.012l-.015-6.55-3.254 5.423h-.819l-3.253-5.337v6.464h-1.754V28.97h1.514l3.926 6.55 3.856-6.55h1.515l.015 9.886h-1.731zm11.823-1.544v1.537h-7.418v-9.886h7.217V30.5h-5.378v2.571h4.776v1.514h-4.776v2.727h5.579zm-59.278 54.241a2.07 2.07 0 11-4.14-.001 2.07 2.07 0 014.14 0z" fill="#FFBF94"/><path d="M331.684 90.711h-59.255v1.691h59.255v-1.691z" fill="#CCE4F5"/><path d="M269.709 84.44a2.07 2.07 0 11-4.14-.001 2.07 2.07 0 014.14 0z" fill="#FFBF94"/><path d="M331.684 83.598h-59.255v1.691h59.255v-1.691z" fill="#CCE4F5"/><path d="M269.709 98.666a2.07 2.07 0 11-4.14 0 2.07 2.07 0 014.14 0z" fill="#FFBF94"/><path d="M331.684 97.817h-59.255v1.69h59.255v-1.69zM293.07 77.434h-32.518v-32.5h32.518v32.5zm-31.351-1.166h30.184V46.101h-30.184v30.167zm74.973-15.979h-37v1.791h37v-1.79zm-19.814-5.438h-17.186v1.792h17.186v-1.792zm19.814 10.867h-37v1.792h37v-1.792zm.046 40.926h-76.225v1.692h76.225v-1.692zm0 5.963h-76.225v1.684h76.225v-1.684zm0 5.97h-76.225v1.691h76.225v-1.691zm0 5.97h-76.225v1.692h76.225v-1.692zm0 5.97h-76.225v1.684h76.225v-1.684zm0 5.97h-76.225v1.684h76.225v-1.684z" fill="#CCE4F5"/><path d="M338.176 4.657a4.086 4.086 0 00-4.081 4.078v14.211c0 2.248.943 4.047 3.192 4.047s3.114-1.8 3.114-4.047v-9.06c0-1.235-.927-2.231-2.071-2.231-1.144 0-2.079 1.004-2.079 2.232v5.707h1.144v-5.707c0-.549.417-1.004.927-1.004s.928.448.928 1.004v9.06c0 1.613-.356 2.903-1.971 2.903-1.615 0-2.04-1.29-2.04-2.904V8.727a2.931 2.931 0 012.929-2.927 2.931 2.931 0 012.929 2.927v4.858h1.143V8.727c.016-2.247-1.816-4.07-4.064-4.07z" fill="#CC8243"/><path d="M279.616 50.102s-8.678-4.055-9.328 7.05l-.486 11.347 7.379-.078 2.435-18.32z" fill="#281F1F"/><path d="M277.947 49.94s5.556-1.298 5.308 5.267l.078 12.403-4.057-.486-1.329-17.185z" fill="#281F1F"/><path d="M288.186 74.384v-3.005a4.727 4.727 0 00-4.714-4.71h-12.959c-2.589 0-4.714 2.115-4.714 4.71v3.005h22.387z" fill="#FFB15C"/><path d="M272.87 57.431c.239.772.077 1.552-.364 1.738-.44.185-.997-.294-1.236-1.066-.24-.772-.077-1.553.363-1.738.448-.193.997.286 1.237 1.066zm8.253 0c-.24.772-.078 1.552.363 1.738.44.185.997-.294 1.236-1.066.24-.772.077-1.553-.363-1.738-.44-.193-.997.286-1.236 1.066zm-.634 9.886h-6.978l.27-5.692h6.43l.278 5.692z" fill="#DF966C"/><path d="M280.048 58.597l.58-4.093-3.586-.255v-.008h-.092v.008l-3.957.286.966 4.07-.232 4.163 1.917 2.1s.409.449 1.306.456h.092c.897-.007 1.306-.455 1.306-.455l1.909-2.101-.209-4.17z" fill="#CA896C"/><path d="M278.542 52.419l-.858-.1-.68 1.142h-.047v.008l-5.03.363.641 6.24s.031.618.394 1.05l2.689 2.966s.41.449 1.306.456v.008h.093v-.008c.897-.007 1.306-.456 1.306-.456l2.689-2.965c.364-.433.387-1.05.387-1.05l.641-6.241-3.531-1.413z" fill="#DF966C"/><path d="M282.344 52.125c-.17-.788-1.028-1.498-1.909-1.498-.278 0-1.785-.672-1.638-.085-.804-.448-2.11-.765-3.014-.765-1.723 0-3.377.826-3.895 2.889-.093.27-.162.54-.216.81-.116.626-.07 1.244.007 1.746l-.007-.008.664 1.931.255-.788c3.246-.447 5.812-2.139 6.669-3.15 1.074-.055 1.87.432 2.272 2.996l.101 1.058.827-3.808c.007 0 .061-.548-.116-1.328z" fill="#281F1F"/><path d="M282.599 70.321l-1.098-6.38-4.505 3.206-4.497-3.205-1.105 6.38 5.602-2.843 5.603 2.842z" fill="#FFD55F"/><path d="M251.433 136.395H146.075v142.851h105.358V136.395z" fill="#9AC3F4"/><path d="M248.79 132.039H144.159V273.91H248.79V132.039z" fill="#BBDFFF"/><path d="M247.198 134.487H142.567v141.871h104.631V134.487z" fill="#fff"/><path d="M191.034 202.569c.425 1.992 1.986 3.475 3.849 3.475 1.862 0 3.423-1.483 3.848-3.475h-7.697z" fill="#fff"/><path d="M170.185 158.16l-2.086-2.989a4.374 4.374 0 01-.394.015h-2.311v2.974h-1.901v-10.218h4.204c.888 0 1.653.146 2.31.44.657.293 1.159.71 1.515 1.259.348.548.525 1.189.525 1.938 0 .773-.185 1.429-.564 1.985-.378.556-.912.966-1.615 1.244l2.349 3.359h-2.032v-.007zm-.688-8.087c-.425-.347-1.058-.525-1.885-.525h-2.218v4.07h2.218c.827 0 1.453-.177 1.885-.533.425-.355.642-.857.642-1.513 0-.649-.217-1.143-.642-1.499zm12.334 6.495v1.591h-7.666v-10.218h7.465v1.591h-5.564v2.657h4.938v1.56h-4.938v2.819h5.765zm3.006 1.406c-.735-.224-1.314-.518-1.747-.888l.657-1.475c.417.332.935.602 1.538.811.61.208 1.221.316 1.831.316.758 0 1.329-.123 1.7-.363.379-.239.564-.564.564-.965a.948.948 0 00-.316-.726 2.151 2.151 0 00-.796-.448 15.504 15.504 0 00-1.314-.363 15.677 15.677 0 01-1.893-.556 3.155 3.155 0 01-1.244-.865c-.348-.394-.518-.927-.518-1.599 0-.564.154-1.081.456-1.537.309-.463.772-.826 1.391-1.104.618-.271 1.375-.41 2.272-.41a7.34 7.34 0 011.839.232c.603.154 1.12.378 1.561.672l-.603 1.475a5.698 5.698 0 00-1.399-.595 5.122 5.122 0 00-1.414-.2c-.749 0-1.306.123-1.669.378s-.549.587-.549 1.004a.92.92 0 00.317.718c.209.186.472.332.796.441.325.108.757.231 1.314.363.757.177 1.383.355 1.87.548a3.29 3.29 0 011.252.865c.348.386.518.911.518 1.575a2.72 2.72 0 01-.456 1.53c-.31.455-.773.818-1.391 1.096-.626.271-1.384.41-2.28.41a8.083 8.083 0 01-2.287-.34zm9.396-.857c-.788-.796-1.182-1.931-1.182-3.406v-5.762h1.901v5.692c0 2.008.866 3.005 2.597 3.005 1.723 0 2.581-1.005 2.581-3.005v-5.692H202v5.762c0 1.483-.394 2.618-1.175 3.406-.78.795-1.885 1.189-3.292 1.189-1.414 0-2.511-.394-3.3-1.189zm19.814 1.042l-.015-6.773-3.362 5.607h-.85l-3.362-5.514v6.68h-1.808v-10.218h1.561l4.057 6.774 3.988-6.774h1.561l.015 10.218h-1.785zm12.225-1.591v1.591h-7.666v-10.218h7.465v1.591h-5.564v2.657h4.938v1.56h-4.938v2.819h5.765zm-61.28 56.064a2.14 2.14 0 11-4.28 0 2.14 2.14 0 014.28 0z" fill="#FFBF94"/><path d="M229.054 211.76h-61.249v1.745h61.249v-1.745z" fill="#CCE4F5"/><path d="M164.992 205.28a2.14 2.14 0 11-4.28-.001 2.14 2.14 0 014.28.001z" fill="#FFBF94"/><path d="M229.054 204.407h-61.249v1.745h61.249v-1.745z" fill="#CCE4F5"/><path d="M164.992 219.985a2.139 2.139 0 01-2.14 2.139 2.14 2.14 0 110-4.278 2.134 2.134 0 012.14 2.139z" fill="#FFBF94"/><path d="M229.054 219.112h-61.249v1.746h61.249v-1.746zm-39.912-21.077h-33.615v-33.597h33.615v33.597zm-32.41-1.205h31.196v-31.179h-31.196v31.179zm77.499-16.52h-38.243v1.854h38.243v-1.854zm-20.478-5.615h-17.765v1.854h17.765v-1.854zm20.478 11.238h-38.243v1.853h38.243v-1.853zm.047 42.293h-78.791v1.745h78.791v-1.745zm0 6.171h-78.791v1.745h78.791v-1.745zm0 6.171h-78.791v1.745h78.791v-1.745zm0 6.171h-78.791v1.745h78.791v-1.745zm0 6.163h-78.791v1.745h78.791v-1.745zm0 6.171h-78.791v1.745h78.791v-1.745z" fill="#CCE4F5"/><path d="M235.762 122.809a4.225 4.225 0 00-4.22 4.217v14.69c0 2.325.974 4.186 3.3 4.186 2.326 0 3.222-1.861 3.222-4.186v-9.368c0-1.275-.958-2.31-2.14-2.31-1.182 0-2.148 1.035-2.148 2.31v5.9h1.182v-5.9c0-.572.433-1.035.958-1.035.526 0 .958.463.958 1.035v9.368c0 1.668-.363 3.005-2.032 3.005s-2.11-1.329-2.11-3.005v-14.69a3.033 3.033 0 013.03-3.027 3.033 3.033 0 013.029 3.027v5.021h1.19v-5.021a4.224 4.224 0 00-4.219-4.217z" fill="#CC8243"/><path d="M178.415 178.078h-11.491v10.72h11.491v-10.72z" fill="#EF4898"/><path d="M183.716 194.567v-3.05c0-2.634-3.307-5.175-5.942-5.175h-10.881c-2.635 0-5.942 2.541-5.942 5.175v3.05h22.765z" fill="#BDB9FF"/><path d="M168.145 177.321c.247.788.077 1.576-.371 1.761-.448.185-1.012-.301-1.252-1.089-.247-.788-.077-1.576.371-1.761.441-.185 1.005.301 1.252 1.089z" fill="url(#paint0_linear)"/><path d="M176.537 177.321c-.247.788-.077 1.576.371 1.761.448.185 1.012-.301 1.252-1.089.247-.788.077-1.576-.371-1.761-.448-.185-1.012.301-1.252 1.089z" fill="url(#paint1_linear)"/><path d="M175.509 187.377l-3.299 2.68-3.037-2.68.278-5.785h5.772l.286 5.785z" fill="#DF966C"/><path d="M175.069 178.904l.958-4.564-3.647-.263v-.008h-.093v.008l-4.018.286 1.321 4.348-.216 4.418 1.584 1.745s.417.456 1.329.464h.093c.912-.008 1.329-.464 1.329-.464l1.584-1.768-.224-4.202z" fill="#CA896C"/><path d="M173.91 172.231l-.873-.108-.696 1.159h-.046v.007l-5.116.363.657 6.349s.031.633.394 1.066l2.736 3.02s.417.455 1.329.463v.008h.092v-.008c.912-.008 1.33-.463 1.33-.463l2.735-3.02c.371-.44.394-1.066.394-1.066l.657-6.349-3.593-1.421z" fill="#DF966C"/><path d="M174.319 172.54s-1.932 4.279-6.352 6.542l.317 10.303s0 2.294-2.488 2.873c0 0-4.552-1.004-1.77-4.734 0 0 2.009-3.252.912-10.821 0 0-.811-7.414 6.275-7.561 0 0 1.854-.062 2.874 1.39l.232 2.008z" fill="#EDB057"/><path d="M168.33 189.215a3.546 3.546 0 01-3.547 3.545 3.546 3.546 0 113.547-3.545zm2.172-16.737s5.456-2.247 6.352 6.542l-.317 10.303s0 2.294 2.488 2.873c0 0 4.552-1.004 1.77-4.742 0 0-2.009-3.252-.912-10.82 0 0 .765-7.291-6.321-7.438 0 0-1.391.062-2.828 1.259l-.232 2.023z" fill="#EDB057"/><path d="M176.491 189.153a3.546 3.546 0 003.547 3.545 3.546 3.546 0 100-7.09 3.54 3.54 0 00-3.547 3.545z" fill="#EDB057"/><path d="M341.645 304.116a1.797 1.797 0 01-1.553-2.001l14.613-116.036a1.797 1.797 0 012.001-1.552 1.797 1.797 0 011.554 2l-14.613 116.036a1.793 1.793 0 01-2.002 1.553zm74.765 0a1.797 1.797 0 001.553-2.001L403.35 186.079a1.79 1.79 0 00-3.555.448l14.613 116.036a1.797 1.797 0 002.002 1.553z" fill="#9196C4"/><path d="M357.317 188.381v-24.615a3.138 3.138 0 013.137-3.135h37.162a3.139 3.139 0 013.138 3.135v24.615h2.689v-24.615c0-3.205-2.612-5.815-5.819-5.815h-37.162c-3.207 0-5.819 2.61-5.819 5.815v24.615h2.674z" fill="#9196C4"/><path d="M408.28 184.056h-58.505v4.773h58.505v-4.773z" fill="#B3B9DD"/><path d="M403.242 198.004h-48.584v2.24h48.584v-2.24zm2.488 18.528h-53.56v2.24h53.56v-2.24zm2.481 18.529h-58.537v2.24h58.537v-2.24zm2.488 18.528h-63.513v2.24h63.513v-2.24zm2.488 18.529h-68.489v2.239h68.489v-2.239zm2.489 18.52h-73.467v2.24h73.467v-2.24z" fill="#9196C4"/><path d="M348.229 89.344l-9.242-13.663s-.008-.023-.016-.023c-.409.595-.85 1.166-1.344 1.707l7.681 14.59 19.512 17.215 1.577-4.889-18.168-14.937zm20.865 7.97l9.01 13.694 11.259 8.372s4.119.185 5.386 2.866c1.268 2.68-1.893-.302-3.724-.34l.85 1.367s.363 1.398-2.172-1.298l-1.468-1.305-13.276-7.631-8.099-11.886 2.234-3.839z" fill="#DF966C"/><path d="M362.177 176.124l.387.703-2.574 5.661-2.573.734-.556-.827s2.21-3.004 2.511-6.279l.773-2.433 2.032 2.441z" fill="#F7907C"/><path d="M371.203 118.106s.85 10.789 13.647 59.13l-2.681.077-19.605-48.858-.387 48.565-2.805-.008s-6.475-51.376-4.088-59.254l15.919.348z" fill="#F7907C"/><path d="M354.612 117.295s-2.117 15.246.951 28.229c0 0 7.882.579 11.823-.147l.293-3.792 1.02 3.499s4.452.471 8.246-1.422c0 0-1.314-24.29-5.912-27.611l-16.421 1.244z" fill="#2A4053"/><path d="M361.582 89.63s-4.899.077-6.143 4.194c0 0-.703 3.058-1.422 4.865-.726 1.815.054 3.985.981 5.437.935 1.452 1.399 8.705-.672 12.435-2.071 3.731 7.674 4.348 7.674 4.348s12.804 1.19 9.767-4.711c-3.029-5.908-4.428-7.306-1.167-14.605 3.269-7.298 2.543-11.855-9.018-11.963z" fill="#6B82F7"/><path d="M365.469 82.532s-2.102 4.024.642 8.218c0 0 .865.772-1.09 1.76-2.589 1.313-6.669 1.39-5.038-1.961 0 0 .749-1.429.44-4.936l5.046-3.081z" fill="#DF966C"/><path d="M366.783 80.755c-.425-.332-.92-.51-1.383.364.695-6.395-5.1-6.18-6.538-4.735 0 0-3.454 1.19-1.793 6.843l.897 2.88s.224 1.059 1.059 1.19c0 0 .749.147 1.978-.278l2.511-.873s.85-.432.943-1.436l.124-.958.154.147c.557.425 1.152-.07 1.847-.973.688-.92.757-1.738.201-2.17z" fill="#DF966C"/><path d="M370.724 91.83s2.628 1.924 3.593 8.141c0 0-1.715 1.97-5.108 1.614l-1.414-3.181 2.929-6.573z" fill="#FFCF61"/><path d="M366.551 74.353c.332-.548 1.098-.587 1.731-.572 1.167.039 2.875 1.39 3.709 2.217 1.16 1.143.858 3.112 1.67 4.526.401.695 1.043 1.205 1.561 1.815.517.61.935 1.413.726 2.193-.224.827-1.066 1.329-1.453 2.093-.572 1.128-.015 2.495.657 3.569.672 1.073 1.507 2.17 1.484 3.436-.023 1.483-1.26 3.63-.904 5.067 1.414 5.715-1.863 7.546-7.226 8.094-1.476.147-10.563.324-12.039.216-1.476-.1-4.498-1.521-5.309-2.757-.796-1.228-.796-2.842-.332-4.225.463-1.39 1.329-2.595 2.194-3.776.541-.734 1.128-1.63.842-2.495-.123-.37-.386-.68-.595-1.02-.819-1.359-.44-3.313.827-4.27.533-.402 1.175-.634 1.685-1.059 1.414-1.189 1.283-3.383.881-5.182-.402-1.8-.912-3.823.062-5.39.842-1.368 2.89-1.963 4.273-2.766 2.164-1.251 3.995-.61 6.12.155l-.564.13z" fill="#EDB057"/><path d="M362.517 176.402s2.38 1.722 1.221 4.348v3.499h-1.375v-3.267l-1.422 3.205h-7.349s0-1.545 3.269-1.792c0 0 1.885.726 2.905-.68l2.751-5.313z" fill="#2A4053"/><path d="M384.278 176.178l.387.703-2.574 5.661-2.573.734-.556-.827s2.442-3.19 2.743-6.457l.541-2.255 2.032 2.441z" fill="#F7907C"/><path d="M384.618 176.456s2.38 1.722 1.221 4.356v3.499h-1.375v-3.267l-1.422 3.205h-7.349s0-1.545 3.269-1.792c0 0 1.568-1.128 2.589-2.526l3.067-3.475z" fill="#2A4053"/><path d="M384.464 181.028s-1.337-.896-4.165 3.19l2.751.015 1.414-3.205z" fill="#25173F"/><path d="M338.971 75.658l-.71-5.22s-.449-1.306-.711 1.235c0 0-.379 1.05-1.268-.131-.888-1.182-2.959-4.225-2.959-4.225s-.827-.58-.503.425l2.017 3.583-1.584 1.522s-.58.486-.294 1.027l5.039 3.854.973-2.07z" fill="#DF966C"/><path d="M83.072 229.948c-4.544 18.76-4.86 20.521-8.578 69.974l4.165-.039 13.03-49.692 1.73 50.117 3.887-.44c.371-2.727 8.269-58.984 3.864-68.731l-18.098-1.189z" fill="#43668E"/><path d="M93.434 299.875l-1.738-49.584 2.697-2.819-.959 52.403z" fill="#395777"/><path d="M72.122 303.227c.41-2.046 2.063-4.479 4.041-4.479 1.978 0 3.632 2.433 4.042 4.479h-8.083zm23.6-4.309s-2.573 2.34 1.159.177c0 0-.433.155 1.175.842 0 0 6.274-1.49 6.576 3.283H93.133s-1.004-1.9 0-3.19c-.008 0 1.283-2.734 2.589-1.112z" fill="#43668E"/><path d="M99.076 203.519s-14.66-3.8-15.162 4.804c-.502 8.603-.634 22.374-4.204 29.263 0 0 9.668 4.457 23.199 4.086 0 0 2.04-10.148 6.846-24.722 0 .015 4.567-9.747-10.68-13.431z" fill="#fff"/><path d="M97.862 195.27s.541 4.549-3.353 8.596c0 0-1.136.479.803 1.97 2.574 1.992 9.583 4.255 8.485.224 0 0-.834-2.047-.147-6.148l-5.788-4.642z" fill="#DF966C"/><path d="M97.685 197.881s-.186 1.753 1.159 2.734l4.544 3.097s-.039-2.124.092-2.51l-5.401-5.028-.24.648s-.1.788-.154 1.059z" fill="#CA896C"/><path d="M126.679 242.414l1.082.672s9.304.54 5.996 1.212c-3.3.672-2.225 1.143-.201 1.213 2.025.069 2.295-.672 2.295-.672s1.144-1.553 1.144 1.011c0 2.565-4.181 3.167-5.865 2.696 0 0-2.357-.811-3.91-2.356l-2.558-1.282 2.017-2.494z" fill="#DF966C"/><path d="M110.057 212.377l5.1 20.938 13.546 9.299-2.024 3.839-17.187-8.086-3.029-12.288 3.594-13.702z" fill="#fff"/><path d="M96.495 192.729c.571-.286 1.19-.386 1.53.726.602-7.607 7.318-6.078 8.67-4.07 0 0 3.694 1.892.502 8.117l-1.607 3.414s-.495 1.182-1.491 1.151c0 0-.905 0-2.241-.757l-2.736-1.576s-.889-.687-.78-1.884l.069-1.143a2.1 2.1 0 01-.216.131c-.742.378-1.33-.34-1.94-1.545-.603-1.212-.502-2.185.24-2.564z" fill="#DF966C"/><path d="M106.17 198.452c-.302.796-.866 1.321-1.615 1.182-.75-.147-1.446-.912-1.438-1.761l3.053.579z" fill="#fff"/><path d="M101.819 208.245s1.669-1.784 1.715-3.483l2.381 1.39-1.476 5.638-2.674-2.95-1.924 3.437s-5.757-4.51-6.886-9.631l3.3-1.135c.023-.008-.82 4.085 5.564 6.734z" fill="#C6C6F7"/><path d="M101.842 208.632l-1.337 2.471 1.291.023s-.649 5.939-3.849 15.393l1.755 2.85 2.635-2.163s1.646-9.36.657-16.095l.873.007-2.025-2.486z" fill="#2A4053"/><path d="M98.21 194.66s1.6-5.878 5.742-4.148c4.142 1.738 5.525 5.283 7.859.248 2.573-5.553-5.232-3.283-5.232-3.283s-11.213-4.981-9.907 5.183c.008 0 .982-.564 1.538 2z" fill="#BC5713"/><path d="M69.51 242.529s-1.994 10.396-2.148 5.631c-.155-4.758-.804-.394-.804-.394l.224 3.792s-.108 2.271-1.352-1.923c-1.245-4.194.023-5.499.023-5.499l1.437-2.603 2.62.996z" fill="#DF966C"/><path d="M87.507 203.465s-9.922 2.008-21.451 38.439l3.817 1.259s10.935-19.069 13.539-25.001l.927-9.052 3.168-5.645z" fill="#fff"/><path opacity=".39" d="M187.186 237.996c-10.1 6.14-22.951 4.016-30.617-4.433.046-.031.101-.062.147-.093a7.727 7.727 0 01-.611-.433 24.404 24.404 0 01-2.295-3.166 22.55 22.55 0 01-.927-1.692c-.008-.038-.015-.069-.015-.108-.008.008-.024.008-.031.016-5.587-11.168-1.762-24.978 9.103-31.581 11.444-6.959 26.413-3.314 33.375 8.117 6.963 11.454 3.315 26.414-8.129 33.373z" fill="#FAFDFF"/><path d="M158.076 231.57a8.127 8.127 0 01-.773-.541c-.827-.641-1.53-1.506-2.086-2.386a4.519 4.519 0 01-.665-1.993c-.124.07-.247.139-.371.216l-49.534 28.098c-2.295 1.39-3.153 4.194-1.916 6.225l.448.742c1.236 2.031 4.127 2.548 6.414 1.158l47.733-31.056c.263-.154.51-.309.75-.463z" fill="#2A4053"/><path opacity=".4" d="M194.473 203.928l3.902 12.543-19.52 23.873-18.144-4.588 33.762-31.828z" fill="url(#paint2_linear)"/><path d="M152.242 230.218c-7.427-12.195-3.54-28.159 8.662-35.573 12.202-7.423 28.175-3.538 35.594 8.657 7.426 12.196 3.539 28.16-8.663 35.574-12.202 7.422-28.167 3.538-35.593-8.658zm41.08-24.977c-6.36-10.442-20.03-13.771-30.486-7.414-10.448 6.356-13.778 20.019-7.418 30.461 6.359 10.442 20.03 13.77 30.477 7.414 10.456-6.356 13.786-20.019 7.427-30.461z" fill="#2A4053"/><path d="M132.173 250.176h-.981a.164.164 0 01-.163-.163v-3.506c0-.085.07-.162.163-.162h.981c.085 0 .162.069.162.162v3.506a.169.169 0 01-.162.163z" fill="#DF966C"/><path d="M133.564 249.828h-1.097a.175.175 0 01-.178-.178v-3.908c0-.1.077-.177.178-.177h1.097c.1 0 .178.077.178.177v3.908a.18.18 0 01-.178.178z" fill="#DF966C"/><path d="M134.955 249.002h-1.097a.175.175 0 01-.178-.178v-3.908c0-.101.077-.178.178-.178h1.097c.1 0 .178.077.178.178v3.908c0 .1-.078.178-.178.178z" fill="#DF966C"/><path d="M136.3 247.959h-1.098a.175.175 0 01-.178-.178v-3.908c0-.1.078-.177.178-.177h1.098c.1 0 .177.077.177.177v3.908a.174.174 0 01-.177.178z" fill="#DF966C"/><defs><linearGradient id="paint0_linear" x1="166.5" y1="177.958" x2="168.16" y2="177.361" gradientUnits="userSpaceOnUse"><stop offset=".005" stop-color="#FFB880"/><stop offset=".492" stop-color="#FF9F80"/><stop offset="1" stop-color="#FF8180"/></linearGradient><linearGradient id="paint1_linear" x1="178.178" y1="177.958" x2="176.518" y2="177.361" gradientUnits="userSpaceOnUse"><stop offset=".005" stop-color="#FFB880"/><stop offset=".492" stop-color="#FF9F80"/><stop offset="1" stop-color="#FF8180"/></linearGradient><linearGradient id="paint2_linear" x1="182.486" y1="239.552" x2="175.592" y2="208.058" gradientUnits="userSpaceOnUse"><stop stop-color="#fff"/><stop offset=".995" stop-color="#fff"/></linearGradient></defs></svg>