<svg width="110" height="110" fill="none" xmlns="http://www.w3.org/2000/svg"><path d="M85.301 61.29l5.172-5.148c8.899-8.876 4.496-20.896-2.679-28.607-2.353-2.54-5.055-4.752-7.85-6.313-3.635-2.05-15.05-5.032-22.528 2.236L41.925 38.88c-4.193 4.17 6.383 8.2 11.718 2.935l3.913-3.843c5.778-5.242 13.023 5.241 22.038-1.888" stroke="#EDEDED" stroke-width="3" stroke-miterlimit="22.926" stroke-linecap="round" stroke-linejoin="round"/><path d="M24.989 58.844l-5.148-5.148C2.648 36.551 32.42 7.105 49.845 24.064l3.471 3.448M65.78 41.699l19.964 20.92c4.077 4.263-1.98 12.393-7.198 7.011l-9.365-9.644" stroke="#EDEDED" stroke-width="3" stroke-miterlimit="22.926" stroke-linecap="round" stroke-linejoin="round"/><path d="M61.027 66.485l10.274 10.553c4.123 4.24 12.44-2.027 7.221-7.408l-10.04-10.366M57.906 78.157l5.125 5.171c4.146 4.193 12.23-1.794 7.035-7.245" stroke="#EDEDED" stroke-width="3" stroke-miterlimit="22.926" stroke-linecap="round" stroke-linejoin="round"/><path d="M37.22 54.605l.558.559c1.864 1.863 1.84 4.892 0 6.755l-7.105 7.106c-1.84 1.84-4.892 1.863-6.756 0l-.559-.56a4.78 4.78 0 010-6.755l7.105-7.105c1.864-1.84 4.916-1.84 6.756 0zm11.973 3.261l.56.56c1.863 1.863 1.84 4.891 0 6.755L38.43 76.503c-1.84 1.84-4.893 1.84-6.756 0l-.56-.56c-1.84-1.84-1.863-4.892 0-6.755l11.322-11.322c1.84-1.864 4.892-1.864 6.756 0zm4.613 10.576l.559.56a4.78 4.78 0 010 6.755l-7.758 7.758a4.78 4.78 0 01-6.755 0l-.56-.56a4.78 4.78 0 010-6.755l7.758-7.758a4.78 4.78 0 016.756 0zM58.79 78.53l.559.56c1.864 1.863 1.84 4.892 0 6.755l-4.776 4.776c-1.84 1.84-4.892 1.84-6.755 0l-.56-.56c-1.84-1.84-1.863-4.891 0-6.755l4.776-4.776c1.864-1.863 4.916-1.84 6.756 0z" stroke="#EDEDED" stroke-width="3" stroke-miterlimit="22.926"/></svg>