<svg width="110" height="110" fill="none" xmlns="http://www.w3.org/2000/svg"><path d="M56.159 32.657l4.768-11.498m-9.313 11.349l-.919-6.258m4.694 22.896v5.215m0 22.723v5.215m7.549-25.231c-2.409-.795-4.57-1.54-6.73-1.788-11.721-1.316-13.211 10.48-.745 10.455 12.12-.025 10.977 11.771-.77 10.43-2.185-.248-4.346-.993-6.73-1.788M61.87 32.06l.199-.124c1.39-2.657 5.811-7.524 7.078-11.473 4.172-12.839-18.526-1.117-31.564-3.8-1.267-.247 5.96 8.121 9.04 15.373" stroke="#EDEDED" stroke-width="3" stroke-miterlimit="22.926" stroke-linecap="round" stroke-linejoin="round"/><path d="M46.374 33.327h16.39c5.464 0 13.237 6.333 19.644 13.882 9.263 10.902 20.065 37.573 2.582 46.34-6.158 3.08-15.769 2.384-29.576 2.384-14.727 0-24.337.62-30.273-2.707-15.968-8.94-6.68-35.835 2.434-46.762 5.985-7.177 13.336-13.137 18.8-13.137z" stroke="#EDEDED" stroke-width="3" stroke-miterlimit="22.926" stroke-linecap="round" stroke-linejoin="round"/></svg>