<?xml version="1.0" standalone="no"?>
<!DOCTYPE svg PUBLIC "-//W3C//DTD SVG 1.1//EN" "http://www.w3.org/Graphics/SVG/1.1/DTD/svg11.dtd" >
<svg>
<metadata>
Created by FontForge 20090622 at Tue May 14 21:23:07 2019
 By deploy user
Copyright (c) 2015 by Jakob Runge, under exclusive license to TypeMates, Runge Thomsen GbR. All rights reserved.
</metadata>
<defs>
<font id="CeraCY-Black" horiz-adv-x="560" >
  <font-face 
    font-family="CeraCY-Black"
    font-weight="400"
    font-stretch="normal"
    units-per-em="1000"
    panose-1="2 11 10 0 0 0 0 0 0 0"
    ascent="802"
    descent="-198"
    x-height="500"
    cap-height="660"
    bbox="-128 -255 1416 911"
    underline-thickness="100"
    underline-position="0"
    unicode-range="U+0020-U+F8FF"
  />
<missing-glyph horiz-adv-x="717" 
d="M651 0h-585v660h585v-660zM179 556l357 -462v462h-357z" />
    <glyph glyph-name=".notdef" horiz-adv-x="717" 
d="M651 0h-585v660h585v-660zM179 556l357 -462v462h-357z" />
    <glyph glyph-name=".null" horiz-adv-x="0" 
 />
    <glyph glyph-name="nonmarkingreturn" horiz-adv-x="333" 
 />
    <glyph glyph-name="space" unicode=" " horiz-adv-x="280" 
 />
    <glyph glyph-name="exclam" unicode="!" horiz-adv-x="375" 
d="M257 264h-140l-33 396h205zM189 212q24 0 44.5 -9t35 -24t23 -35.5t8.5 -43.5q0 -24 -8.5 -44.5t-23 -35.5t-35 -23.5t-44.5 -8.5q-51 0 -82.5 32t-31.5 80q0 47 31.5 79.5t82.5 32.5z" />
    <glyph glyph-name="quotedbl" unicode="&#x22;" horiz-adv-x="587" 
d="M206 368h-130v292h195zM478 368h-130v292h195z" />
    <glyph glyph-name="numbersign" unicode="#" horiz-adv-x="654" 
d="M291 512h120l20 148h139l-20 -148h78v-144h-97l-10 -76h87v-144h-107l-19 -148h-139l19 148h-120l-19 -148h-139l19 148h-77v144h97l10 76h-87v144h106l20 148h139zM260 282h120l13 96h-120z" />
    <glyph glyph-name="dollar" unicode="$" horiz-adv-x="539" 
d="M340 628q53 -13 88.5 -44.5t57.5 -73.5l-114 -87q-22 32 -47 47t-54 15q-20 0 -33.5 -7t-13.5 -23q0 -14 12 -23t38 -18l75 -23q82 -29 119.5 -74t37.5 -108q0 -75 -46.5 -122t-119.5 -61v-125h-144v128q-117 29 -169 133l114 87q52 -79 135 -79q26 0 44 8.5t18 27.5
q0 17 -16 26.5t-44 19.5l-67 22q-75 26 -115 72.5t-40 109.5t38.5 107.5t101.5 61.5v123h144v-120z" />
    <glyph glyph-name="percent" unicode="%" horiz-adv-x="845" 
d="M634 322q36 0 68 -12.5t55.5 -35t37.5 -52.5t14 -66t-14 -66.5t-37.5 -53t-55.5 -35t-68 -12.5t-68 12.5t-56 35t-37.5 53t-13.5 66.5t13.5 66t37.5 52.5t56 35t68 12.5zM635 206q-22 0 -34 -13.5t-12 -36.5t12 -36.5t34 -13.5q19 0 31.5 13.5t12.5 36.5t-12.5 36.5
t-31.5 13.5zM211 672q36 0 68 -12.5t55.5 -35t37.5 -52.5t14 -66t-14 -66.5t-37.5 -53t-55.5 -35t-68 -12.5t-68 12.5t-56 35t-37.5 53t-13.5 66.5t13.5 66t37.5 52.5t56 35t68 12.5zM212 556q-22 0 -34 -13.5t-12 -36.5t12 -36.5t34 -13.5q19 0 31.5 13.5t12.5 36.5
t-12.5 36.5t-31.5 13.5zM299 0h-134l381 660h135z" />
    <glyph glyph-name="ampersand" unicode="&#x26;" horiz-adv-x="706" 
d="M297 672q39 0 71 -11t55.5 -31t36 -47.5t12.5 -61.5q0 -26 -7.5 -48.5t-20.5 -42.5t-31 -38t-38 -36l74 -91l42 58.5l48 67.5l131 -96l-58 -81.5t-59 -75.5l113 -138h-199l-29 35q-35 -23 -76.5 -35t-91.5 -12q-52 0 -93.5 14t-71 39t-45.5 60.5t-16 77.5
q0 61 32.5 104.5t87.5 87.5q-24 33 -36 66t-12 69q0 38 13 69t37 52.5t57.5 33t73.5 11.5zM281 136q31 0 60 18l-88 107q-17 -15 -29 -30.5t-12 -35.5q0 -23 17.5 -41t51.5 -18zM267 504q0 -14 8.5 -24.5t16.5 -21.5q14 11 21.5 20.5t7.5 23.5q0 12 -6.5 20t-19.5 8
q-11 0 -19.5 -6.5t-8.5 -19.5z" />
    <glyph glyph-name="quotesingle" unicode="'" horiz-adv-x="315" 
d="M206 368h-130v292h195z" />
    <glyph glyph-name="parenleft" unicode="(" horiz-adv-x="386" 
d="M362 644q-32 -21 -60.5 -50.5t-49.5 -70t-33.5 -94.5t-12.5 -124q0 -71 12.5 -124.5t33.5 -94t49.5 -70t60.5 -50.5l-67 -98q-47 21 -89.5 57.5t-74.5 90.5t-50.5 126t-18.5 163t18.5 163t50.5 126t74.5 90.5t89.5 57.5z" />
    <glyph glyph-name="parenright" unicode=")" horiz-adv-x="386" 
d="M91 742q47 -21 89.5 -57.5t74.5 -90.5t50.5 -126t18.5 -163t-18.5 -163t-50.5 -126t-74.5 -90.5t-89.5 -57.5l-67 98q32 21 60.5 50.5t49.5 70t33.5 94t12.5 124.5q0 70 -12.5 124t-33.5 94.5t-49.5 70t-60.5 50.5z" />
    <glyph glyph-name="asterisk" unicode="*" horiz-adv-x="504" 
d="M83 679l105 -43l16 113h96l15 -113l106 43l48 -83l-91 -70l91 -70l-48 -83l-106 43l-15 -113h-96l-16 113l-105 -43l-48 83l90 70l-90 70z" />
    <glyph glyph-name="plus" unicode="+" 
d="M362 251v-168h-162v168h-163v144h163v168h162v-168h162v-144h-162z" />
    <glyph glyph-name="comma" unicode="," horiz-adv-x="270" 
d="M184 -177h-135v322h195z" />
    <glyph glyph-name="hyphen" unicode="-" horiz-adv-x="340" 
d="M300 253h-260v144h260v-144z" />
    <glyph glyph-name="period" unicode="." horiz-adv-x="270" 
d="M137 212q24 0 44.5 -9t35 -24t23 -35.5t8.5 -43.5q0 -24 -8.5 -44.5t-23 -35.5t-35 -23.5t-44.5 -8.5q-51 0 -82.5 32t-31.5 80q0 47 31.5 79.5t82.5 32.5z" />
    <glyph glyph-name="slash" unicode="/" horiz-adv-x="700" 
d="M177 -121h-177l523 901h177z" />
    <glyph glyph-name="zero" unicode="0" horiz-adv-x="656" 
d="M327 552q60 0 113.5 -21.5t93.5 -59.5t63 -89.5t23 -111.5t-23 -111.5t-63 -89.5t-93.5 -59.5t-113.5 -21.5t-113 21.5t-92.5 59.5t-62.5 89.5t-23 111.5t23 111.5t62.5 89.5t92.5 59.5t113 21.5zM328 394q-52 0 -84 -35t-32 -89q0 -55 32 -89.5t84 -34.5q49 0 82 34.5
t33 89.5q0 27 -9 49.5t-24.5 39t-36.5 26t-45 9.5z" />
    <glyph glyph-name="one" unicode="1" horiz-adv-x="531" 
d="M372 144h123v-144h-430v144h135v242h-126v154h298v-396z" />
    <glyph glyph-name="two" unicode="2" horiz-adv-x="599" 
d="M293 552q52 0 96.5 -16t76.5 -43.5t50 -65.5t18 -82q0 -60 -32 -106.5t-91 -94.5h137v-144h-511v35l215 162q48 37 77 66t29 64q0 27 -19 47t-51 20t-49.5 -19t-17.5 -50q0 -11 3 -35h-169q-7 28 -7 53q0 39 17 77t49 67t77 47t102 18z" />
    <glyph glyph-name="three" unicode="3" horiz-adv-x="549" 
d="M499 495l-131 -194q28 -11 53.5 -29.5t45 -44t31 -58t11.5 -70.5q0 -50 -20 -92.5t-54.5 -73.5t-82 -48.5t-101.5 -17.5q-88 0 -153 43t-98 115l119 84q29 -44 57.5 -64t67.5 -20q38 0 63.5 18.5t25.5 54.5q0 70 -114 70h-94v44l117 174h-188v154h445v-45z" />
    <glyph glyph-name="four" unicode="4" horiz-adv-x="598" 
d="M511 144h77v-144h-77v-121h-172v121h-326v45l189 495h177l-153 -396h113v162h172v-162z" />
    <glyph glyph-name="five" unicode="5" horiz-adv-x="561" 
d="M483 386h-246v-78q34 8 63 8q40 0 79.5 -14.5t71 -42t51 -67.5t19.5 -91t-20 -94t-55.5 -74t-84 -48.5t-104.5 -17.5q-91 0 -157 43t-99 115l119 84q29 -44 58.5 -64t71.5 -20q40 0 67.5 18.5t27.5 55.5q0 69 -114 69h-157v372h409v-154z" />
    <glyph glyph-name="six" unicode="6" horiz-adv-x="570" 
d="M341 460q37 -5 73 -23t63.5 -47.5t44.5 -69.5t17 -88q0 -54 -21 -99t-56.5 -77t-81.5 -50t-95 -18q-50 0 -96 18t-81 50.5t-56 77.5t-21 100q0 29 6 54t17.5 49t28.5 48.5l38 53.5l165 221h203zM285 318q-35 0 -59.5 -24t-24.5 -61t24.5 -62t59.5 -25t59.5 24.5
t24.5 62.5t-24.5 61.5t-59.5 23.5z" />
    <glyph glyph-name="seven" unicode="7" horiz-adv-x="540" 
d="M518 495l-282 -616h-187l241 507h-250v154h478v-45z" />
    <glyph glyph-name="eight" unicode="8" horiz-adv-x="595" 
d="M298 672q48 0 90 -12t72.5 -35t48 -56.5t17.5 -77.5q0 -50 -22.5 -86.5t-62.5 -64.5q54 -23 84 -62.5t30 -96.5q0 -46 -19.5 -82t-54 -60.5t-81.5 -37.5t-102 -13t-102.5 13t-82 37.5t-54 60.5t-19.5 82q0 57 30 96.5t84 62.5q-41 28 -63 64.5t-22 86.5q0 44 17.5 77.5
t48 56.5t72.5 35t91 12zM385 188q0 29 -23.5 48t-64.5 34q-41 -15 -64 -34t-23 -48q0 -26 21 -44.5t67 -18.5q45 0 66 18.5t21 44.5zM298 537q-30 0 -51 -14.5t-21 -39.5q0 -24 19 -40t52 -32q34 17 53 32.5t19 40.5q0 24 -21 38.5t-50 14.5z" />
    <glyph glyph-name="nine" unicode="9" horiz-adv-x="570" 
d="M286 552q49 0 95 -18t81 -50.5t56 -77.5t21 -100q0 -29 -6 -54t-17.5 -49t-28.5 -49t-38 -53l-165 -222h-203l147 200q-37 4 -72.5 22.5t-63 48t-44.5 70t-17 88.5q0 54 21 99t56.5 77t81.5 50t96 18zM285 394q-35 0 -59.5 -24.5t-24.5 -62.5t24.5 -61.5t59.5 -23.5
t59.5 24t24.5 61t-24.5 62t-59.5 25z" />
    <glyph glyph-name="colon" unicode=":" horiz-adv-x="270" 
d="M137 512q24 0 44.5 -9t35 -24t23 -35.5t8.5 -43.5q0 -24 -8.5 -44.5t-23 -35.5t-35 -23.5t-44.5 -8.5q-51 0 -82.5 32t-31.5 80q0 47 31.5 79.5t82.5 32.5zM137 212q24 0 44.5 -9t35 -24t23 -35.5t8.5 -43.5q0 -24 -8.5 -44.5t-23 -35.5t-35 -23.5t-44.5 -8.5
q-51 0 -82.5 32t-31.5 80q0 47 31.5 79.5t82.5 32.5z" />
    <glyph glyph-name="semicolon" unicode=";" horiz-adv-x="270" 
d="M137 512q24 0 44.5 -9t35 -24t23 -35.5t8.5 -43.5q0 -24 -8.5 -44.5t-23 -35.5t-35 -23.5t-44.5 -8.5q-51 0 -82.5 32t-31.5 80q0 47 31.5 79.5t82.5 32.5zM184 -177h-135v322h195z" />
    <glyph glyph-name="less" unicode="&#x3c;" 
d="M508 417l-216 -93l216 -92v-147l-481 217v45l481 217v-147z" />
    <glyph glyph-name="equal" unicode="=" 
d="M514 362h-467v144h467v-144zM514 142h-467v144h467v-144z" />
    <glyph glyph-name="greater" unicode="&#x3e;" 
d="M532 347v-45l-481 -217v147l216 92l-216 93v147z" />
    <glyph glyph-name="question" unicode="?" horiz-adv-x="456" 
d="M219 672q44 0 82 -12.5t66.5 -36t45 -56.5t16.5 -75q0 -47 -20.5 -77t-54.5 -58l-48.5 -42t-20.5 -38v-13h-144q-5 11 -8.5 24t-3.5 26q0 18 7.5 33t19 28t25.5 24l26 21q26 21 36 30.5t10 24.5q0 20 -12 29.5t-28 9.5q-20 0 -34.5 -16t-28.5 -47l-140 62q23 83 79 121
t130 38zM217 212q24 0 44.5 -9t35 -24t23 -35.5t8.5 -43.5q0 -24 -8.5 -44.5t-23 -35.5t-35 -23.5t-44.5 -8.5q-51 0 -82.5 32t-31.5 80q0 47 31.5 79.5t82.5 32.5z" />
    <glyph glyph-name="at" unicode="@" horiz-adv-x="973" 
d="M501 672q96 0 177 -31t139.5 -84.5t91 -124.5t32.5 -152q0 -68 -23 -116.5t-64 -79t-97 -44.5t-122 -14h-66v40q-41 -51 -119 -51q-44 0 -81 16.5t-64 45.5t-42 70t-15 89t15 89t42 70t64 45.5t81 16.5q77 0 119 -51v41h139v-293q48 4 74 31.5t26 93.5q0 60 -21 108.5
t-60 83.5t-95.5 54t-126.5 19q-75 0 -137.5 -22t-107.5 -62.5t-70 -97.5t-25 -127q0 -72 25.5 -129t69.5 -96t102.5 -60t124.5 -21q30 0 59.5 3.5t52.5 8.5l26 -115q-35 -12 -76.5 -18t-79.5 -6q-90 0 -170 31.5t-139 88.5t-93.5 136t-34.5 174q0 97 37 178t100.5 139.5
t149 90.5t182.5 32zM483 319q-30 0 -55 -20.5t-25 -62.5t24.5 -62t54.5 -20q29 0 53 19.5t24 62.5q0 42 -23.5 62.5t-52.5 20.5z" />
    <glyph glyph-name="A" unicode="A" horiz-adv-x="659" 
d="M657 0h-185l-24 55h-237l-24 -55h-185l300 672h55zM272 193h115l-57 152z" />
    <glyph glyph-name="B" unicode="B" horiz-adv-x="624" 
d="M304 660q47 0 88 -14t71 -39.5t47 -61.5t17 -80q0 -67 -41 -111q51 -20 81 -59.5t30 -98.5q0 -44 -17 -80t-47 -61.5t-70.5 -40t-88.5 -14.5h-308v660h238zM231 261v-116h132q30 0 48 14.5t18 43.5t-18 43.5t-48 14.5h-132zM231 515v-116h62q31 0 48.5 16t17.5 42
t-17.5 42t-48.5 16h-62z" />
    <glyph glyph-name="C" unicode="C" horiz-adv-x="723" 
d="M389 672q100 0 178.5 -46t123.5 -131l-131 -89q-30 51 -71.5 79.5t-100.5 28.5q-39 0 -72 -13.5t-57 -37.5t-37.5 -58t-13.5 -76t13.5 -75.5t37.5 -57.5t57 -37t72 -13q59 0 100.5 28.5t71.5 79.5l131 -89q-45 -85 -124 -131t-179 -46q-75 0 -140 26t-113 72t-75.5 108.5
t-27.5 135.5t27.5 135.5t76 108.5t113.5 72t140 26z" />
    <glyph glyph-name="D" unicode="D" horiz-adv-x="688" 
d="M296 660q76 0 142 -22.5t114.5 -65t76 -103.5t27.5 -137q0 -75 -27.5 -136t-76 -104.5t-114.5 -67.5t-142 -24h-230v660h230zM238 504v-349h57q39 0 73 12t58.5 34.5t39 55.5t14.5 75q0 44 -14.5 76.5t-39 53.5t-58.5 31.5t-73 10.5h-57z" />
    <glyph glyph-name="E" unicode="E" horiz-adv-x="577" 
d="M524 505h-286v-91h204v-144h-204v-115h298v-155h-470v660h458v-155z" />
    <glyph glyph-name="F" unicode="F" horiz-adv-x="542" 
d="M514 505h-276v-126h224v-155h-224v-224h-172v660h448v-155z" />
    <glyph glyph-name="G" unicode="G" horiz-adv-x="747" 
d="M391 672q92 0 164 -38t120 -109l-120 -102q-31 43 -70.5 67t-96.5 24q-42 0 -75.5 -13.5t-56.5 -37.5t-35.5 -58t-12.5 -75q0 -42 13 -77t37.5 -59.5t60 -38.5t79.5 -14q48 0 84.5 15.5t60.5 43.5v31h-154v148h326v-208q-22 -39 -55 -72.5t-74 -58t-90.5 -38.5
t-104.5 -14q-76 0 -141.5 26t-114 72t-76 108.5t-27.5 135.5t27.5 135.5t76 108.5t114 72t141.5 26z" />
    <glyph glyph-name="H" unicode="H" horiz-adv-x="717" 
d="M651 0h-172v264h-241v-264h-172v660h172v-241h241v241h172v-660z" />
    <glyph glyph-name="I" unicode="I" horiz-adv-x="304" 
d="M238 0h-172v660h172v-660z" />
    <glyph glyph-name="J" unicode="J" horiz-adv-x="399" 
d="M333 191q0 -103 -57 -153t-163 -50q-29 0 -54 3.5t-47 8.5v146q20 -1 36 -1.5t27 -0.5q48 0 67 15.5t19 50.5v450h172v-469z" />
    <glyph glyph-name="K" unicode="K" horiz-adv-x="695" 
d="M238 361l218 299h200l-227 -314l264 -346h-204l-251 329v-329h-172v660h172v-299z" />
    <glyph glyph-name="L" unicode="L" horiz-adv-x="535" 
d="M238 155h273v-155h-445v660h172v-505z" />
    <glyph glyph-name="M" unicode="M" horiz-adv-x="804" 
d="M738 0h-172v276l-137 -159h-55l-136 159v-276h-172v672h55l281 -343l281 343h55v-672z" />
    <glyph glyph-name="N" unicode="N" horiz-adv-x="717" 
d="M479 329v331h172v-672h-55l-358 347v-335h-172v672h55z" />
    <glyph glyph-name="O" unicode="O" horiz-adv-x="776" 
d="M387 672q74 0 139 -26t113.5 -72t76.5 -108.5t28 -135.5t-28 -135.5t-76.5 -108.5t-113.5 -72t-139 -26t-138.5 26t-112.5 72t-76 108.5t-28 135.5t28 135.5t76 108.5t112.5 72t138.5 26zM388 514q-40 0 -73 -13.5t-57 -37.5t-37 -58t-13 -75q0 -42 13 -76t37 -58t57 -37
t73 -13q38 0 71 13t57 37t38 58t14 76q0 41 -14 75t-38 58t-57 37.5t-71 13.5z" />
    <glyph glyph-name="P" unicode="P" horiz-adv-x="607" 
d="M325 660q54 0 101 -16t81 -45t53.5 -71.5t19.5 -94.5q0 -51 -19.5 -93t-53.5 -72t-81 -46.5t-101 -16.5h-87v-205h-172v660h259zM238 510v-155h88q36 0 57.5 21.5t21.5 56.5t-21.5 56t-57.5 21h-88z" />
    <glyph glyph-name="Q" unicode="Q" horiz-adv-x="776" 
d="M387 672q74 0 139 -26t113.5 -72t76.5 -108.5t28 -135.5q0 -78 -31.5 -143.5t-85.5 -111.5q32 -41 68.5 -71.5t79 -50.5t93 -29.5t110.5 -9.5q33 0 89 3v-135q-23 -6 -54 -10t-70 -4q-135 0 -254.5 56t-204.5 176q-23 -5 -47 -8.5t-50 -3.5q-74 0 -138.5 26t-112.5 72
t-76 108.5t-28 135.5t28 135.5t76 108.5t112.5 72t138.5 26zM388 514q-40 0 -73 -13.5t-57 -37.5t-37 -58t-13 -75q0 -42 13 -76t37 -58t57 -37t73 -13q38 0 71 13t57 37t38 58t14 76q0 41 -14 75t-38 58t-57 37.5t-71 13.5z" />
    <glyph glyph-name="R" unicode="R" horiz-adv-x="652" 
d="M325 660q54 0 101 -16t81 -45t53.5 -71.5t19.5 -94.5q0 -63 -28 -111t-76 -77l174 -245h-192l-149 205h-71v-205h-172v660h259zM238 510v-155h88q36 0 57.5 21.5t21.5 56.5t-21.5 56t-57.5 21h-88z" />
    <glyph glyph-name="S" unicode="S" 
d="M283 672q87 0 142 -38t84 -95l-115 -88q-23 33 -47 51.5t-62 18.5q-26 0 -42.5 -9.5t-16.5 -32.5q0 -19 13 -30t44 -24l76 -32q83 -35 126 -80.5t43 -118.5q0 -49 -18.5 -87t-51.5 -64.5t-77 -40.5t-95 -14q-91 0 -159.5 40.5t-103.5 107.5l116 88q12 -16 26 -31.5
t31.5 -27.5t39.5 -19t50 -7q68 0 68 48q0 23 -16 34.5t-51 26.5l-68 30q-79 35 -123 82t-44 117q0 44 17 80t48 61.5t73.5 39.5t92.5 14z" />
    <glyph glyph-name="T" unicode="T" horiz-adv-x="588" 
d="M578 505h-198v-505h-172v505h-198v155h568v-155z" />
    <glyph glyph-name="U" unicode="U" horiz-adv-x="708" 
d="M646 280q0 -66 -22 -120t-61 -92.5t-92.5 -59t-116.5 -20.5t-116.5 20.5t-92.5 59t-61 92.5t-22 120v380h172v-393q0 -57 33.5 -89t86.5 -32t86.5 32t33.5 89v393h172v-380z" />
    <glyph glyph-name="V" unicode="V" horiz-adv-x="659" 
d="M357 -12h-55l-300 672h195l133 -324l132 324h195z" />
    <glyph glyph-name="W" unicode="W" horiz-adv-x="1015" 
d="M686 342l125 318h192l-272 -672h-55l-169 345l-168 -345h-55l-272 672h192l124 -318l152 330h55z" />
    <glyph glyph-name="X" unicode="X" horiz-adv-x="623" 
d="M408 335l213 -335h-194l-116 184l-115 -184h-194l214 334l-202 326h194l103 -176l103 176h194z" />
    <glyph glyph-name="Y" unicode="Y" horiz-adv-x="629" 
d="M401 253v-253h-172v251l-227 409h190l123 -230l123 230h189z" />
    <glyph glyph-name="Z" unicode="Z" horiz-adv-x="587" 
d="M563 615l-290 -460h291v-155h-552v45l289 460h-246v155h508v-45z" />
    <glyph glyph-name="bracketleft" unicode="[" horiz-adv-x="367" 
d="M337 596h-113v-592h113v-134h-255v860h255v-134z" />
    <glyph glyph-name="backslash" unicode="\" horiz-adv-x="700" 
d="M177 780l523 -901h-177l-523 901h177z" />
    <glyph glyph-name="bracketright" unicode="]" horiz-adv-x="367" 
d="M285 -130h-255v134h113v592h-113v134h255v-860z" />
    <glyph glyph-name="asciicircum" unicode="^" horiz-adv-x="551" 
d="M509 270h-161l-73 145l-72 -145h-161l206 400h55z" />
    <glyph glyph-name="underscore" unicode="_" horiz-adv-x="500" 
d="M470 -192h-440v134h440v-134z" />
    <glyph glyph-name="grave" unicode="`" horiz-adv-x="331" 
d="M301 574h-124l-147 176v30h207z" />
    <glyph glyph-name="a" unicode="a" horiz-adv-x="555" 
d="M276 512q51 0 93 -14t71.5 -41.5t46 -69.5t16.5 -97v-290h-157v40q-26 -24 -62.5 -38t-81.5 -14q-42 0 -74.5 12.5t-54 34t-32.5 49.5t-11 59q0 71 52.5 110t143.5 39h105v8q0 27 -17.5 45.5t-58.5 18.5q-36 0 -64.5 -16t-60.5 -45l-80 109q49 50 102.5 75t123.5 25z
M255 110q32 0 54 19t22 54v4h-81q-46 0 -46 -38q0 -18 13 -28.5t38 -10.5z" />
    <glyph glyph-name="b" unicode="b" horiz-adv-x="627" 
d="M228 465q47 47 128 47q52 0 96.5 -19.5t76 -54.5t49.5 -83.5t18 -105.5t-18 -105t-49.5 -82.5t-76 -54t-96.5 -19.5q-95 0 -143 63v-51h-157v750h172v-285zM322 356q-18 0 -35.5 -6.5t-31 -20t-22 -33.5t-8.5 -47t8.5 -47t22 -33t31 -19t35.5 -6q19 0 37 6.5t31.5 20
t21.5 33.5t8 46t-8.5 46t-22 33.5t-31 20t-36.5 6.5z" />
    <glyph glyph-name="c" unicode="c" horiz-adv-x="553" 
d="M304 512q79 0 136.5 -36.5t87.5 -97.5l-119 -91q-18 28 -42 47.5t-61 19.5q-46 0 -72.5 -29t-26.5 -75t26.5 -75t72.5 -29q37 0 61 19t42 47l119 -90q-30 -61 -87.5 -97.5t-136.5 -36.5q-57 0 -107 20t-86.5 55t-58 83t-21.5 104t21.5 104t58 83t86.5 55t107 20z" />
    <glyph glyph-name="d" unicode="d" horiz-adv-x="627" 
d="M571 0h-157v51q-48 -63 -143 -63q-53 0 -97 19.5t-75.5 54t-49.5 82.5t-18 105t18 105.5t49.5 83.5t75.5 54.5t97 19.5q41 0 73 -12t55 -35v285h172v-750zM305 356q-19 0 -36.5 -6.5t-31 -20t-22 -33.5t-8.5 -46t8 -46t21.5 -33.5t31.5 -20t37 -6.5q18 0 35.5 6t31 19
t22 33t8.5 47t-8.5 47t-22 33.5t-31 20t-35.5 6.5z" />
    <glyph glyph-name="e" unicode="e" horiz-adv-x="568" 
d="M298 512q55 0 99.5 -19t75.5 -51.5t47.5 -75.5t16.5 -91q0 -23 -3 -45.5t-8 -39.5h-320q14 -29 42.5 -43t69.5 -14q36 0 68 10t63 29l62 -117q-89 -67 -199 -67q-62 0 -113.5 20t-89 55t-58 83t-20.5 104t20.5 104t56.5 83t85 55t105 20zM291 377q-32 0 -56 -19.5
t-35 -55.5h174q-2 35 -26 55t-57 20z" />
    <glyph glyph-name="f" unicode="f" horiz-adv-x="368" 
d="M359 356h-101v-356h-172v356h-70v144h70v59q0 103 56.5 153t153.5 50q27 0 47.5 -3.5t35.5 -8.5v-144q-11 1 -20 1.5t-19 0.5q-45 0 -63.5 -15.5t-18.5 -50.5v-42h101v-144z" />
    <glyph glyph-name="g" unicode="g" horiz-adv-x="627" 
d="M268 512q51 0 87 -16.5t59 -47.5v52h157v-439q0 -67 -20.5 -115t-56.5 -78.5t-85 -45t-106 -14.5q-84 0 -145.5 26t-106.5 64l87 121q38 -29 73 -43t74 -14q23 0 43.5 5t36.5 15.5t25 27.5t9 40v18q-24 -23 -57 -34.5t-74 -11.5q-51 0 -94.5 17t-75 49t-49.5 77.5
t-18 102.5t18 102.5t50 77t75.5 48t93.5 16.5zM305 370q-19 0 -37 -6t-31.5 -18.5t-21.5 -31.5t-8 -44q0 -26 8.5 -45.5t22 -33t31 -20.5t36.5 -7q18 0 35.5 6.5t31 20t22 33.5t8.5 47t-8.5 45.5t-22 30.5t-31 17.5t-35.5 5.5z" />
    <glyph glyph-name="h" unicode="h" horiz-adv-x="597" 
d="M228 465q25 22 57.5 34.5t72.5 12.5q42 0 76 -14.5t59 -41.5t38.5 -64.5t13.5 -83.5v-308h-172v283q0 34 -20.5 54t-52.5 20t-52 -20t-20 -54v-283h-172v750h172v-285z" />
    <glyph glyph-name="i" unicode="i" horiz-adv-x="284" 
d="M228 0h-172v500h172v-500zM141 779q22 0 41 -8t33.5 -21.5t23 -32t8.5 -40.5q0 -21 -8.5 -39.5t-23 -32t-33.5 -21.5t-41 -8t-41 8t-33.5 21.5t-22.5 32t-8 39.5q0 44 30.5 73t74.5 29z" />
    <glyph glyph-name="j" unicode="j" horiz-adv-x="284" 
d="M228 11q0 -103 -56.5 -153t-153.5 -50q-27 0 -47.5 3.5t-35.5 8.5v144q11 -1 20 -1.5t19 -0.5q45 0 63.5 15.5t18.5 50.5v472h172v-489zM141 779q22 0 41 -8t33.5 -21.5t23 -32t8.5 -40.5q0 -21 -8.5 -39.5t-23 -32t-33.5 -21.5t-41 -8t-41 8t-33.5 21.5t-22.5 32
t-8 39.5q0 44 30.5 73t74.5 29z" />
    <glyph glyph-name="k" unicode="k" horiz-adv-x="595" 
d="M228 297l156 203h199l-172 -223l184 -277h-189l-178 264v-264h-172v750h172v-453z" />
    <glyph glyph-name="l" unicode="l" horiz-adv-x="284" 
d="M228 0h-172v750h172v-750z" />
    <glyph glyph-name="m" unicode="m" horiz-adv-x="904" 
d="M659 512q91 0 142 -55.5t51 -148.5v-308h-172v283q0 35 -20 54.5t-51 19.5t-50 -19.5t-19 -54.5v-283h-172v283q0 35 -20 54.5t-51 19.5t-50 -19.5t-19 -54.5v-283h-172v500h157v-39q25 23 59 37t78 14q47 0 83.5 -16.5t61.5 -47.5q29 29 71 46.5t93 17.5z" />
    <glyph glyph-name="n" unicode="n" horiz-adv-x="597" 
d="M354 512q44 0 79.5 -14.5t60 -41.5t38 -64.5t13.5 -83.5v-308h-172v283q0 34 -20.5 54t-52.5 20t-52 -20t-20 -54v-283h-172v500h157v-41q26 24 61 38.5t80 14.5z" />
    <glyph glyph-name="o" unicode="o" horiz-adv-x="607" 
d="M303 512q56 0 106 -20t87 -55t58.5 -83t21.5 -104t-21.5 -104t-58.5 -83t-87 -55t-106 -20q-57 0 -106.5 20t-86 55t-58 83t-21.5 104t21.5 104t58 83t86 55t106.5 20zM304 354q-44 0 -70.5 -29t-26.5 -75q0 -47 26.5 -75.5t70.5 -28.5q41 0 68.5 28.5t27.5 75.5
q0 46 -27.5 75t-68.5 29z" />
    <glyph glyph-name="p" unicode="p" horiz-adv-x="627" 
d="M356 512q52 0 96.5 -19.5t76 -54t49.5 -82.5t18 -105t-18 -105.5t-49.5 -83.5t-76 -54.5t-96.5 -19.5q-82 0 -128 46v-214h-172v680h157v-52q23 31 59 47.5t84 16.5zM322 356q-18 0 -35.5 -6t-31 -19t-22 -33t-8.5 -47t8.5 -47t22 -33.5t31 -20t35.5 -6.5q19 0 36.5 6.5
t31 20t22 33.5t8.5 46t-8 46t-21.5 33.5t-31.5 20t-37 6.5z" />
    <glyph glyph-name="q" unicode="q" horiz-adv-x="627" 
d="M271 512q48 0 84 -16.5t59 -47.5v52h157v-680h-172v214q-48 -46 -128 -46q-53 0 -97 19.5t-75.5 54.5t-49.5 83.5t-18 105.5t18 105t49.5 82.5t75.5 54t97 19.5zM305 356q-19 0 -37 -6.5t-31.5 -20t-21.5 -33.5t-8 -46t8.5 -46t22 -33.5t31 -20t36.5 -6.5q18 0 35.5 6.5
t31 20t22 33.5t8.5 47t-8.5 47t-22 33t-31 19t-35.5 6z" />
    <glyph glyph-name="r" unicode="r" horiz-adv-x="405" 
d="M339 508q27 0 49 -8v-152h-41q-57 0 -88 -27t-31 -93v-228h-172v500h157v-53q23 29 55.5 45t70.5 16z" />
    <glyph glyph-name="s" unicode="s" horiz-adv-x="456" 
d="M237 513q55 0 103 -18t85 -56l-81 -105q-51 43 -106 43q-35 0 -35 -19q0 -10 8.5 -15t25.5 -12l50 -20q33 -14 60 -28t46 -32.5t29.5 -42t10.5 -54.5q0 -39 -15.5 -70t-43.5 -52.5t-65.5 -32.5t-82.5 -11q-67 0 -123.5 24.5t-91.5 71.5l80 102q31 -30 66 -46t72 -16
q18 0 31 4.5t13 17.5q0 9 -7.5 14t-21.5 11l-56 23q-34 14 -61 29t-45.5 34t-28.5 43t-10 55q0 37 14 66.5t39.5 50t61.5 31t79 10.5z" />
    <glyph glyph-name="t" unicode="t" horiz-adv-x="439" 
d="M392 356h-134v-148q0 -35 19 -50.5t67 -15.5q11 0 27 0.5t36 1.5v-144q-22 -5 -47 -8.5t-54 -3.5q-105 0 -162.5 50t-57.5 153v165h-76v144h76v120h172v-120h134v-144z" />
    <glyph glyph-name="u" unicode="u" horiz-adv-x="593" 
d="M541 233q0 -56 -18.5 -101t-51 -77t-77.5 -49.5t-97 -17.5q-53 0 -98 17.5t-77.5 49.5t-51 77t-18.5 101v267h172v-281q0 -32 20.5 -52.5t52.5 -20.5q31 0 51.5 20.5t20.5 52.5v281h172v-267z" />
    <glyph glyph-name="v" unicode="v" horiz-adv-x="571" 
d="M313 -12h-55l-256 512h182l101 -225l102 225h182z" />
    <glyph glyph-name="w" unicode="w" horiz-adv-x="861" 
d="M577 274l100 226h182l-246 -512h-55l-128 239l-127 -239h-55l-246 512h182l103 -234l116 246h55z" />
    <glyph glyph-name="x" unicode="x" horiz-adv-x="553" 
d="M371 257l182 -257h-191l-86 131l-85 -131h-191l180 256l-170 244h191l75 -118l76 118h191z" />
    <glyph glyph-name="y" unicode="y" horiz-adv-x="572" 
d="M335 -27q-38 -84 -89 -124.5t-129 -40.5q-24 0 -49 3.5t-47 8.5v144q18 -1 32 -1.5t26 -0.5q30 0 55 10t43 49l8 17l-183 462h183l95 -281l108 281h182z" />
    <glyph glyph-name="z" unicode="z" horiz-adv-x="478" 
d="M467 455l-207 -311h208v-144h-458v45l210 311h-187v144h434v-45z" />
    <glyph glyph-name="braceleft" unicode="{" horiz-adv-x="423" 
d="M301 -130q-78 0 -121.5 34t-43.5 112q0 22 3 44.5t7 44t7 40.5t3 34q0 26 -12.5 37.5t-38.5 11.5h-65v144h65q26 0 38.5 11.5t12.5 37.5q0 15 -3 34t-7 40.5t-7 44t-3 44.5q0 78 43.5 112t121.5 34h92v-134h-62q-24 0 -38.5 -13.5t-14.5 -39.5q0 -13 3 -32.5t7 -41.5
t7 -43.5t3 -38.5q0 -38 -18.5 -59t-57.5 -29q40 -8 58 -28.5t18 -57.5q0 -17 -3 -38.5t-7 -43.5t-7 -41.5t-3 -32.5q0 -26 14.5 -39.5t38.5 -13.5h62v-134h-92z" />
    <glyph glyph-name="bar" unicode="|" horiz-adv-x="332" 
d="M237 -121h-142v901h142v-901z" />
    <glyph glyph-name="braceright" unicode="}" horiz-adv-x="423" 
d="M30 4h62q24 0 38.5 13.5t14.5 39.5q0 13 -3 32.5t-7 41.5t-7 43.5t-3 38.5q0 37 18 57.5t58 28.5q-39 8 -57.5 29t-18.5 59q0 17 3 38.5t7 43.5t7 41.5t3 32.5q0 26 -14.5 39.5t-38.5 13.5h-62v134h92q78 0 121.5 -34t43.5 -112q0 -22 -3 -44.5t-7 -44t-7 -40.5t-3 -34
q0 -26 12.5 -37.5t38.5 -11.5h65v-144h-65q-26 0 -38.5 -11.5t-12.5 -37.5q0 -15 3 -34t7 -40.5t7 -44t3 -44.5q0 -78 -43.5 -112t-121.5 -34h-92v134z" />
    <glyph glyph-name="asciitilde" unicode="~" 
d="M158 451q21 0 43 -7t42 -19l84 -51q17 -10 28.5 -15.5t22.5 -5.5q15 0 23 10t8 25v14h128q3 -20 3 -38q0 -38 -11.5 -68.5t-30 -52.5t-43.5 -33.5t-52 -11.5q-21 0 -43 7t-42 19l-84 51q-17 10 -28.5 15.5t-22.5 5.5q-15 0 -23 -10t-8 -25v-14h-128q-3 19 -3 38
q0 38 11.5 68.5t30 52.5t43.5 33.5t52 11.5z" />
    <glyph glyph-name="cent" unicode="&#xa2;" horiz-adv-x="559" 
d="M352 583q61 -11 105.5 -45t70.5 -85l-119 -91q-18 28 -42 47.5t-61 19.5q-46 0 -72.5 -29t-26.5 -75t26.5 -75t72.5 -29q37 0 61 19t42 47l119 -90q-26 -51 -70.5 -85.5t-105.5 -44.5v-166h-144v178q-39 13 -71.5 37t-56 56t-36.5 70.5t-13 82.5q0 43 13 82t36.5 71
t56 55.5t71.5 37.5v177h144v-165z" />
    <glyph glyph-name="sterling" unicode="&#xa3;" horiz-adv-x="595" 
d="M446 216h-111q-1 -18 -5.5 -36.5t-13.5 -35.5h236v-144h-520v35q60 48 95 89t37 92h-122v144h68q-12 23 -20 49.5t-8 59.5q0 47 18.5 84.5t50 64t74.5 40.5t92 14q43 0 82 -11.5t70.5 -35t55.5 -60t37 -85.5l-141 -51q-27 85 -92 85q-34 0 -53.5 -20.5t-19.5 -54.5
q0 -22 7.5 -41t18.5 -38h164v-144z" />
    <glyph glyph-name="currency" unicode="&#xa4;" horiz-adv-x="667" 
d="M328 569q62 0 116 -26l110 110l102 -102l-105 -105q31 -53 31 -116q0 -33 -8.5 -63.5t-24.5 -56.5l107 -111l-102 -102l-114 118q-25 -11 -53 -17.5t-58 -6.5q-58 0 -110 22l-106 -116l-102 102l99 108q-34 56 -34 123q0 32 8.5 61.5t24.5 56.5l-98 103l102 102l104 -109
q52 25 111 25zM329 411q-36 0 -56.5 -22.5t-20.5 -58.5q0 -37 20.5 -59t57.5 -22q33 0 54.5 22t21.5 59q0 36 -21.5 58.5t-55.5 22.5z" />
    <glyph glyph-name="yen" unicode="&#xa5;" horiz-adv-x="629" 
d="M572 72h-171v-72h-172v72h-171v134h171v44h-171v134h133l-189 276h190l123 -182l123 182h189l-189 -276h134v-134h-171v-44h171v-134z" />
    <glyph glyph-name="brokenbar" unicode="&#xa6;" horiz-adv-x="332" 
d="M237 480h-142v300h142v-300zM237 -121h-142v300h142v-300z" />
    <glyph glyph-name="section" unicode="&#xa7;" horiz-adv-x="616" 
d="M335 683q78 0 134 -33.5t81 -86.5l-103 -84q-17 27 -43 45t-67 18q-23 0 -35.5 -7t-12.5 -27q0 -7 2 -13t9 -12t19 -13.5t32 -18.5l80 -45q86 -46 123 -88.5t37 -99.5t-31 -95.5t-80 -58.5q4 -15 4 -34q0 -39 -14.5 -71t-41.5 -54.5t-64.5 -35t-82.5 -12.5
q-78 0 -134 33.5t-81 86.5l103 84q17 -27 43 -45t67 -18q23 0 35.5 7t12.5 27q0 7 -2 13t-9 12t-19 13.5t-32 18.5l-80 45q-86 46 -123 88.5t-37 99.5t30.5 95t79.5 58q-3 16 -3 35q0 39 14.5 71t41.5 54.5t64.5 35t82.5 12.5zM263 339q-31 17 -58 36q-10 -8 -16.5 -19.5
t-6.5 -25.5q0 -17 15.5 -34.5t62.5 -43.5l80 -44q20 -11 37.5 -22t31.5 -22q11 8 18 20t7 26q0 17 -15.5 34.5t-62.5 43.5z" />
    <glyph glyph-name="dieresis" unicode="&#xa8;" horiz-adv-x="510" 
d="M382 771q41 0 69.5 -26.5t28.5 -67.5q0 -18 -7.5 -35t-21 -30t-31.5 -20.5t-38 -7.5q-18 0 -35.5 7.5t-31 20.5t-22 30t-8.5 35q0 20 8.5 37.5t22 30t31 19.5t35.5 7zM127 771q41 0 69.5 -26.5t28.5 -67.5q0 -18 -7.5 -35t-21 -30t-31.5 -20.5t-38 -7.5q-18 0 -35.5 7.5
t-31 20.5t-22 30t-8.5 35q0 20 8.5 37.5t22 30t31 19.5t35.5 7z" />
    <glyph glyph-name="copyright" unicode="&#xa9;" horiz-adv-x="776" 
d="M388 672q71 0 135.5 -26t113.5 -72t78 -108.5t29 -135.5t-29 -135.5t-78 -108.5t-113.5 -72t-136.5 -26q-71 0 -135.5 26t-113.5 71.5t-77.5 108t-28.5 135.5t29 136t78 109t113.5 72t135.5 26zM392 512q49 0 87 -21.5t65 -58.5l-84 -72q-12 17 -27.5 28.5t-38.5 11.5
q-29 0 -47 -19.5t-18 -50.5t18 -50t48 -19q23 0 38 11t27 28l84 -72q-27 -36 -65 -57.5t-88 -21.5q-39 0 -73 13.5t-58.5 38t-39 57.5t-14.5 72t14.5 72.5t39.5 57.5t59 38t73 14zM386 576q-48 0 -92.5 -16.5t-79.5 -48t-56 -77.5t-21 -105t21 -105t56 -77t80 -47t92 -16
t92.5 16t81 47t57.5 77t22 105t-21.5 105t-57 77.5t-81 48t-93.5 16.5z" />
    <glyph glyph-name="guillemotleft" unicode="&#xab;" horiz-adv-x="658" 
d="M338 424l-130 -150l130 -150l-109 -95l-206 222v45l206 223zM633 424l-130 -150l130 -150l-109 -95l-206 222v45l206 223z" />
    <glyph glyph-name="logicalnot" unicode="&#xac;" 
d="M492 108h-158v144h-299v144h457v-288z" />
    <glyph glyph-name="uni00AD" unicode="&#xad;" horiz-adv-x="340" 
d="M300 253h-260v144h260v-144z" />
    <glyph glyph-name="registered" unicode="&#xae;" horiz-adv-x="577" 
d="M289 697q54 0 101.5 -20.5t83 -56t56 -83t20.5 -101.5t-20.5 -102t-56 -83.5t-83 -56t-101.5 -20.5t-102 20.5t-83.5 56t-56 83.5t-20.5 102t20.5 101.5t56 83t83.5 56t102 20.5zM289 627q-39 0 -73.5 -14.5t-59.5 -40t-39.5 -60.5t-14.5 -76t14.5 -76.5t39.5 -61
t59.5 -40t73.5 -14.5t73 14.5t59 40t39.5 61t14.5 76.5t-14.5 76t-39.5 60.5t-59 40t-73 14.5zM292 561q45 0 75.5 -24t30.5 -66q0 -24 -10.5 -42.5t-27.5 -30.5l65 -88h-85l-54 69h-23v-69h-77v251h106zM263 494v-48h29q12 0 19.5 6.5t7.5 17.5t-7.5 17.5t-19.5 6.5h-29z
" />
    <glyph glyph-name="macron" unicode="&#xaf;" horiz-adv-x="380" 
d="M350 610h-320v134h320v-134z" />
    <glyph glyph-name="degree" unicode="&#xb0;" horiz-adv-x="362" 
d="M181 672q34 0 63.5 -12.5t51.5 -33.5t34.5 -50t12.5 -62t-12.5 -61.5t-34.5 -50.5t-51.5 -34.5t-63.5 -12.5t-63.5 12.5t-51.5 34.5t-34.5 51t-12.5 61t12.5 61t34.5 50.5t51.5 34t63.5 12.5zM181 569q-25 0 -40.5 -15.5t-15.5 -40.5q0 -23 15.5 -39t40.5 -16q26 0 41 16
t15 39q0 25 -15 40.5t-41 15.5z" />
    <glyph glyph-name="plusminus" unicode="&#xb1;" 
d="M362 453h152v-134h-152v-130h-162v130h-153v134h153v119h162v-119zM514 0h-467v134h467v-134z" />
    <glyph glyph-name="uni00B2" unicode="&#xb2;" horiz-adv-x="395" 
d="M193 788q33 0 62 -10.5t50.5 -29t33.5 -44t12 -56.5q0 -47 -27 -87t-64 -80l-7 -7h104v-110l-325 -1v25l149 164q26 29 35.5 48.5t9.5 36.5q0 20 -10 29.5t-25 9.5q-14 0 -24 -9t-10 -32q0 -5 0.5 -11.5t1.5 -15.5h-122q-2 10 -3 18.5t-1 16.5q0 27 11 53t32 46.5
t50.5 33t66.5 12.5z" />
    <glyph glyph-name="uni00B3" unicode="&#xb3;" horiz-adv-x="364" 
d="M329 748l-77 -119q32 -14 57 -45.5t25 -79.5q0 -32 -12.5 -59t-35 -46.5t-53 -31t-65.5 -11.5q-57 0 -99 27.5t-63 75.5l84 59q18 -28 34.5 -39t38.5 -11q20 0 33 8.5t13 27.5q0 18 -15.5 25.5t-48.5 7.5h-53v30l66 103h-117v110h288v-32z" />
    <glyph glyph-name="acute" unicode="&#xb4;" horiz-adv-x="331" 
d="M301 750l-147 -176h-124l64 206h207v-30z" />
    <glyph glyph-name="uni00B5" unicode="&#xb5;" horiz-adv-x="621" 
d="M545 196q0 -27 8.5 -40.5t30.5 -13.5h10.5t16.5 1v-143q-17 -5 -40.5 -8.5t-45.5 -3.5q-41 0 -69 13t-45 37q-17 -23 -41.5 -36.5t-55.5 -13.5q-52 0 -86 37v-205h-172v680h172v-281q0 -35 20 -55.5t52 -20.5t52.5 20.5t20.5 55.5v281h172v-304z" />
    <glyph glyph-name="paragraph" unicode="&#xb6;" horiz-adv-x="645" 
d="M579 11q0 -103 -57 -153t-163 -50q-29 0 -54 3.5t-47 8.5v146q20 -1 36 -1.5t27 -0.5q48 0 67 15.5t19 50.5v630h172v-649zM339 205h-57q-54 0 -100.5 16t-81 46t-54 72.5t-19.5 94.5t19.5 93.5t53.5 71t80.5 45.5t101.5 16h57v-455z" />
    <glyph glyph-name="periodcentered" unicode="&#xb7;" horiz-adv-x="270" 
d="M137 436q24 0 44.5 -9t35 -24t23 -35.5t8.5 -43.5q0 -24 -8.5 -44.5t-23 -35.5t-35 -23.5t-44.5 -8.5q-51 0 -82.5 32t-31.5 80q0 47 31.5 79.5t82.5 32.5z" />
    <glyph glyph-name="cedilla" unicode="&#xb8;" horiz-adv-x="308" 
d="M210 55q32 -18 50 -46.5t18 -65.5q0 -28 -11.5 -52.5t-33 -43t-53.5 -29t-73 -10.5q-22 0 -41.5 2.5t-35.5 6.5v112q20 -1 34 -1h29q24 0 37.5 13.5t13.5 37.5v48z" />
    <glyph glyph-name="uni00B9" unicode="&#xb9;" horiz-adv-x="382" 
d="M263 474h83v-110h-307v110h102v196h-91v110h213v-306z" />
    <glyph glyph-name="guillemotright" unicode="&#xbb;" horiz-adv-x="658" 
d="M340 296v-45l-206 -222l-109 95l130 150l-130 150l109 95zM635 296v-45l-206 -222l-109 95l130 150l-130 150l109 95z" />
    <glyph glyph-name="onequarter" unicode="&#xbc;" horiz-adv-x="969" 
d="M263 354h83v-110h-307v110h102v196h-91v110h213v-306zM388 0h-134l381 660h135zM918 159h45v-100h-45v-58h-112v58h-215v32l121 326h126l-97 -258h65v95h112v-95z" />
    <glyph glyph-name="onehalf" unicode="&#xbd;" horiz-adv-x="1002" 
d="M263 354h83v-110h-307v110h102v196h-91v110h213v-306zM388 0h-134l381 660h135zM800 425q33 0 62 -10.5t50.5 -29t33.5 -44t12 -56.5q0 -47 -27 -87t-64 -80l-7 -7h104v-110l-325 -1v25l149 164q26 29 35.5 48.5t9.5 36.5q0 20 -10 29.5t-25 9.5q-14 0 -24 -9t-10 -32
q0 -5 0.5 -11.5t1.5 -15.5h-122q-2 10 -3 18.5t-1 16.5q0 27 11 53t32 46.5t50.5 33t66.5 12.5z" />
    <glyph glyph-name="threequarters" unicode="&#xbe;" horiz-adv-x="916" 
d="M329 628l-77 -119q32 -14 57 -45.5t25 -79.5q0 -32 -12.5 -59t-35 -46.5t-53 -31t-65.5 -11.5q-57 0 -99 27.5t-63 75.5l84 59q18 -28 34.5 -39t38.5 -11q20 0 33 8.5t13 27.5q0 18 -15.5 25.5t-48.5 7.5h-53v30l66 103h-117v110h288v-32zM335 0h-134l381 660h135z
M865 159h45v-100h-45v-58h-112v58h-215v32l121 326h126l-97 -258h65v95h112v-95z" />
    <glyph glyph-name="multiply" unicode="&#xd7;" 
d="M523 469l-142 -141l142 -141l-102 -102l-142 141l-141 -141l-102 102l141 141l-141 141l102 102l142 -141l141 141z" />
    <glyph glyph-name="divide" unicode="&#xf7;" 
d="M279 610q20 0 38 -7t31.5 -19.5t21.5 -29.5t8 -36q0 -20 -8 -36.5t-21.5 -29.5t-31.5 -20t-38 -7t-38 7t-31.5 20t-21 29.5t-7.5 36.5q0 19 7.5 36t21 29.5t31.5 19.5t38 7zM279 223q20 0 38 -7t31.5 -20t21.5 -30t8 -36q0 -20 -8 -36.5t-21.5 -29t-31.5 -19.5t-38 -7
t-38 7t-31.5 19.5t-21 29t-7.5 36.5q0 19 7.5 36t21 30t31.5 20t38 7zM523 252h-487v144h487v-144z" />
    <glyph glyph-name="florin" unicode="&#x192;" horiz-adv-x="456" 
d="M415 266h-102l-23 -196q-12 -100 -65.5 -151.5t-150.5 -51.5q-26 0 -46.5 3.5t-34.5 8.5l-1 144q11 -1 24.5 -1.5t21.5 -0.5q40 0 58.5 16.5t23.5 49.5l21 179h-69v144h87l7 59q12 100 65.5 151.5t150.5 51.5q26 0 47 -3.5t35 -8.5v-144q-11 1 -24.5 1.5t-21.5 0.5
q-40 0 -58.5 -16.5t-23.5 -49.5l-5 -42h84v-144z" />
    <glyph glyph-name="dotlessj" unicode="&#x237;" horiz-adv-x="284" 
d="M228 11q0 -103 -56.5 -153t-153.5 -50q-27 0 -47.5 3.5t-35.5 8.5v144q11 -1 20 -1.5t19 -0.5q45 0 63.5 15.5t18.5 50.5v472h172v-489z" />
    <glyph glyph-name="breve" unicode="&#x2d8;" horiz-adv-x="432" 
d="M402 755q0 -41 -13.5 -75t-38 -58.5t-59 -38.5t-75.5 -14t-75.5 14t-59 38.5t-38 58.5t-13.5 75h133q0 -28 14.5 -44t38.5 -16t38.5 16t14.5 44h133z" />
    <glyph glyph-name="dotaccent" unicode="&#x2d9;" horiz-adv-x="271" 
d="M135 779q22 0 41 -8t33.5 -21.5t23 -32t8.5 -40.5q0 -21 -8.5 -39.5t-23 -32t-33.5 -21.5t-41 -8t-41 8t-33.5 21.5t-22.5 32t-8 39.5q0 44 30.5 73t74.5 29z" />
    <glyph glyph-name="hungarumlaut" unicode="&#x2dd;" horiz-adv-x="520" 
d="M490 750l-127 -176h-114l64 206h177v-30zM271 750l-127 -176h-114l64 206h177v-30z" />
    <glyph glyph-name="uni0326" unicode="&#x326;" horiz-adv-x="216" 
d="M160 -220h-130v176h156z" />
    <glyph glyph-name="uni0400" unicode="&#x400;" horiz-adv-x="577" 
d="M524 505h-286v-91h204v-144h-204v-115h298v-155h-470v660h458v-155zM350 724h-124l-147 156v30h207z" />
    <glyph glyph-name="uni0401" unicode="&#x401;" horiz-adv-x="577" 
d="M524 505h-286v-91h204v-144h-204v-115h298v-155h-470v660h458v-155zM426 910q41 0 69.5 -26.5t28.5 -67.5q0 -18 -7.5 -35t-21 -30t-31.5 -20.5t-38 -7.5q-18 0 -35.5 7.5t-31 20.5t-22 30t-8.5 35q0 20 8.5 37.5t22 30t31 19.5t35.5 7zM151 911q41 0 69.5 -26.5
t28.5 -67.5q0 -18 -7.5 -35t-21 -30t-31.5 -20.5t-38 -7.5q-18 0 -35.5 7.5t-31 20.5t-22 30t-8.5 35q0 20 8.5 37.5t22 30t31 19.5t35.5 7z" />
    <glyph glyph-name="uni0402" unicode="&#x402;" horiz-adv-x="775" 
d="M578 505h-198v-82h109q54 0 100.5 -15t81 -43.5t54 -69.5t19.5 -92q0 -54 -21 -92.5t-55.5 -64.5t-79.5 -40t-92 -18l-34 151q21 3 40 7.5t34 12t24 19.5t9 32q0 29 -20.5 46t-56.5 17h-112v-273h-172v505h-198v155h568v-155z" />
    <glyph glyph-name="uni0403" unicode="&#x403;" horiz-adv-x="535" 
d="M511 505h-273v-505h-172v660h445v-155zM494 880l-147 -156h-124l64 186h207v-30z" />
    <glyph glyph-name="uni0404" unicode="&#x404;" horiz-adv-x="723" 
d="M389 672q100 0 178.5 -46t123.5 -131l-131 -89q-30 51 -71.5 79.5t-100.5 28.5q-57 0 -99.5 -26.5t-63.5 -73.5h239v-144h-248q17 -58 62.5 -91t109.5 -33q59 0 100.5 28.5t71.5 79.5l131 -89q-45 -85 -124 -131t-179 -46q-75 0 -140 26t-113 72t-75.5 108.5t-27.5 135.5
t27.5 135.5t76 108.5t113.5 72t140 26z" />
    <glyph glyph-name="uni0405" unicode="&#x405;" 
d="M283 672q87 0 142 -38t84 -95l-115 -88q-23 33 -47 51.5t-62 18.5q-26 0 -42.5 -9.5t-16.5 -32.5q0 -19 13 -30t44 -24l76 -32q83 -35 126 -80.5t43 -118.5q0 -49 -18.5 -87t-51.5 -64.5t-77 -40.5t-95 -14q-91 0 -159.5 40.5t-103.5 107.5l116 88q12 -16 26 -31.5
t31.5 -27.5t39.5 -19t50 -7q68 0 68 48q0 23 -16 34.5t-51 26.5l-68 30q-79 35 -123 82t-44 117q0 44 17 80t48 61.5t73.5 39.5t92.5 14z" />
    <glyph glyph-name="uni0406" unicode="&#x406;" horiz-adv-x="304" 
d="M238 0h-172v660h172v-660z" />
    <glyph glyph-name="uni0407" unicode="&#x407;" horiz-adv-x="304" 
d="M238 0h-172v660h172v-660zM290 910q41 0 69.5 -26.5t28.5 -67.5q0 -18 -7.5 -35t-21 -30t-31.5 -20.5t-38 -7.5q-18 0 -35.5 7.5t-31 20.5t-22 30t-8.5 35q0 20 8.5 37.5t22 30t31 19.5t35.5 7zM15 911q41 0 69.5 -26.5t28.5 -67.5q0 -18 -7.5 -35t-21 -30t-31.5 -20.5
t-38 -7.5q-18 0 -35.5 7.5t-31 20.5t-22 30t-8.5 35q0 20 8.5 37.5t22 30t31 19.5t35.5 7z" />
    <glyph glyph-name="uni0408" unicode="&#x408;" horiz-adv-x="399" 
d="M333 191q0 -103 -57 -153t-163 -50q-29 0 -54 3.5t-47 8.5v146q20 -1 36 -1.5t27 -0.5q48 0 67 15.5t19 50.5v450h172v-469z" />
    <glyph glyph-name="uni0409" unicode="&#x409;" horiz-adv-x="995" 
d="M605 455h104q54 0 101 -16.5t81 -46.5t53.5 -72t19.5 -93q0 -53 -19.5 -95t-53.5 -71t-81 -45t-101 -16h-276v505h-127q0 -160 -23 -259.5t-64 -155.5t-97 -76t-122 -20v161q36 0 63 18.5t44.5 61.5t26.5 113t9 173v139h462v-205zM605 305v-155h105q36 0 57.5 21t21.5 56
t-21.5 56.5t-57.5 21.5h-105z" />
    <glyph glyph-name="uni040A" unicode="&#x40a;" horiz-adv-x="1031" 
d="M641 455h104q54 0 101 -16.5t81 -46.5t53.5 -72t19.5 -93q0 -53 -19.5 -95t-53.5 -71t-81 -45t-101 -16h-276v264h-231v-264h-172v660h172v-241h231v241h172v-205zM641 305v-155h105q36 0 57.5 21t21.5 56t-21.5 56.5t-57.5 21.5h-105z" />
    <glyph glyph-name="uni040B" unicode="&#x40b;" horiz-adv-x="802" 
d="M474 422q65 0 115.5 -21t85.5 -58.5t53.5 -89t18.5 -112.5v-141h-172v134q0 65 -26.5 97.5t-92.5 32.5q-19 0 -38 -2.5t-38 -7.5v-254h-172v505h-198v155h568v-155h-198v-95q22 5 45 8.5t49 3.5z" />
    <glyph glyph-name="uni040C" unicode="&#x40c;" horiz-adv-x="695" 
d="M533 880l-147 -156h-124l64 186h207v-30zM238 361l218 299h200l-227 -314l264 -346h-204l-251 329v-329h-172v660h172v-299z" />
    <glyph glyph-name="uni040D" unicode="&#x40d;" horiz-adv-x="727" 
d="M661 0h-172v344l-368 -356h-55v672h172v-341l368 353h55v-672zM412 724h-124l-147 156v30h207z" />
    <glyph glyph-name="uni040E" unicode="&#x40e;" horiz-adv-x="644" 
d="M424 153q-36 -85 -97 -125t-155 -40q-24 0 -49 3.5t-47 8.5v148q18 -1 32 -1.5t26 -0.5q27 0 56.5 7.5t49.5 30.5l-233 476h200l128 -285l110 285h197zM534 910q0 -41 -13.5 -75t-38 -58.5t-59 -38.5t-75.5 -14t-75.5 14t-59 38.5t-38 58.5t-13.5 75h133q0 -28 14.5 -44
t38.5 -16t38.5 16t14.5 44h133z" />
    <glyph glyph-name="uni040F" unicode="&#x40f;" horiz-adv-x="697" 
d="M631 0h-196v-141h-172v141h-197v660h172v-505h221v505h172v-660z" />
    <glyph glyph-name="uni0410" unicode="&#x410;" horiz-adv-x="659" 
d="M657 0h-185l-24 55h-237l-24 -55h-185l300 672h55zM272 193h115l-57 152z" />
    <glyph glyph-name="uni0411" unicode="&#x411;" horiz-adv-x="624" 
d="M514 505h-276v-106h136q48 0 88.5 -13.5t70.5 -38.5t47 -61.5t17 -82.5t-17 -83.5t-47 -64t-70.5 -41t-88.5 -14.5h-308v660h448v-155zM238 261v-116h125q30 0 48 14.5t18 43.5t-18 43.5t-48 14.5h-125z" />
    <glyph glyph-name="uni0412" unicode="&#x412;" horiz-adv-x="624" 
d="M304 660q47 0 88 -14t71 -39.5t47 -61.5t17 -80q0 -67 -41 -111q51 -20 81 -59.5t30 -98.5q0 -44 -17 -80t-47 -61.5t-70.5 -40t-88.5 -14.5h-308v660h238zM231 261v-116h132q30 0 48 14.5t18 43.5t-18 43.5t-48 14.5h-132zM231 515v-116h62q31 0 48.5 16t17.5 42
t-17.5 42t-48.5 16h-62z" />
    <glyph glyph-name="uni0413" unicode="&#x413;" horiz-adv-x="535" 
d="M511 505h-273v-505h-172v660h445v-155z" />
    <glyph glyph-name="uni0414" unicode="&#x414;" horiz-adv-x="751" 
d="M731 -141h-172v141h-367v-141h-172v296h50q33 25 56.5 58.5t39 78.5t23 103.5t7.5 135.5v129h442v-505h93v-296zM359 505q-2 -121 -26.5 -205.5t-70.5 -144.5h204v350h-107z" />
    <glyph glyph-name="uni0415" unicode="&#x415;" horiz-adv-x="577" 
d="M524 505h-286v-91h204v-144h-204v-115h298v-155h-470v660h458v-155z" />
    <glyph glyph-name="uni0416" unicode="&#x416;" horiz-adv-x="1046" 
d="M609 363l198 297h200l-227 -314l264 -346h-204l-231 328v-328h-172v328l-231 -328h-204l264 346l-227 314h200l198 -297v297h172v-297z" />
    <glyph glyph-name="uni0417" unicode="&#x417;" horiz-adv-x="592" 
d="M288 672q49 0 93 -15t77 -42.5t52.5 -65t19.5 -82.5q0 -39 -14.5 -71t-40.5 -55q39 -22 62 -57.5t23 -86.5q0 -48 -20.5 -86.5t-55.5 -65.5t-83 -42t-102 -15q-94 0 -163 42.5t-104 115.5l119 84q32 -48 68.5 -66t78.5 -18q38 0 66 14.5t28 46.5q0 25 -18 39.5t-48 14.5
h-126v138h96q31 0 48.5 16t17.5 40q0 27 -21.5 43t-53.5 16q-38 0 -71 -21.5t-60 -62.5l-119 84q34 72 100 115t151 43z" />
    <glyph glyph-name="uni0418" unicode="&#x418;" horiz-adv-x="727" 
d="M661 0h-172v344l-368 -356h-55v672h172v-341l368 353h55v-672z" />
    <glyph glyph-name="uni0419" unicode="&#x419;" horiz-adv-x="727" 
d="M661 0h-172v344l-368 -356h-55v672h172v-341l368 353h55v-672zM537 910q0 -41 -13.5 -75t-38 -58.5t-59 -38.5t-75.5 -14t-75.5 14t-59 38.5t-38 58.5t-13.5 75h133q0 -28 14.5 -44t38.5 -16t38.5 16t14.5 44h133z" />
    <glyph glyph-name="uni041A" unicode="&#x41a;" horiz-adv-x="695" 
d="M238 361l218 299h200l-227 -314l264 -346h-204l-251 329v-329h-172v660h172v-299z" />
    <glyph glyph-name="uni041B" unicode="&#x41b;" horiz-adv-x="671" 
d="M605 0h-172v505h-127q-2 -160 -25.5 -259.5t-64 -155.5t-95.5 -76t-121 -20v161q36 0 63 18.5t44.5 61.5t26.5 113t9 173v139h462v-660z" />
    <glyph glyph-name="uni041C" unicode="&#x41c;" horiz-adv-x="804" 
d="M738 0h-172v276l-137 -159h-55l-136 159v-276h-172v672h55l281 -343l281 343h55v-672z" />
    <glyph glyph-name="uni041D" unicode="&#x41d;" horiz-adv-x="717" 
d="M651 0h-172v264h-241v-264h-172v660h172v-241h241v241h172v-660z" />
    <glyph glyph-name="uni041E" unicode="&#x41e;" horiz-adv-x="776" 
d="M387 672q74 0 139 -26t113.5 -72t76.5 -108.5t28 -135.5t-28 -135.5t-76.5 -108.5t-113.5 -72t-139 -26t-138.5 26t-112.5 72t-76 108.5t-28 135.5t28 135.5t76 108.5t112.5 72t138.5 26zM388 514q-40 0 -73 -13.5t-57 -37.5t-37 -58t-13 -75q0 -42 13 -76t37 -58t57 -37
t73 -13q38 0 71 13t57 37t38 58t14 76q0 41 -14 75t-38 58t-57 37.5t-71 13.5z" />
    <glyph glyph-name="uni041F" unicode="&#x41f;" horiz-adv-x="697" 
d="M631 0h-172v505h-221v-505h-172v660h565v-660z" />
    <glyph glyph-name="uni0420" unicode="&#x420;" horiz-adv-x="607" 
d="M325 660q54 0 101 -16t81 -45t53.5 -71.5t19.5 -94.5q0 -51 -19.5 -93t-53.5 -72t-81 -46.5t-101 -16.5h-87v-205h-172v660h259zM238 510v-155h88q36 0 57.5 21.5t21.5 56.5t-21.5 56t-57.5 21h-88z" />
    <glyph glyph-name="uni0421" unicode="&#x421;" horiz-adv-x="723" 
d="M389 672q100 0 178.5 -46t123.5 -131l-131 -89q-30 51 -71.5 79.5t-100.5 28.5q-39 0 -72 -13.5t-57 -37.5t-37.5 -58t-13.5 -76t13.5 -75.5t37.5 -57.5t57 -37t72 -13q59 0 100.5 28.5t71.5 79.5l131 -89q-45 -85 -124 -131t-179 -46q-75 0 -140 26t-113 72t-75.5 108.5
t-27.5 135.5t27.5 135.5t76 108.5t113.5 72t140 26z" />
    <glyph glyph-name="uni0422" unicode="&#x422;" horiz-adv-x="588" 
d="M578 505h-198v-505h-172v505h-198v155h568v-155z" />
    <glyph glyph-name="uni0423" unicode="&#x423;" horiz-adv-x="644" 
d="M424 153q-36 -85 -97 -125t-155 -40q-24 0 -49 3.5t-47 8.5v148q18 -1 32 -1.5t26 -0.5q27 0 56.5 7.5t49.5 30.5l-233 476h200l128 -285l110 285h197z" />
    <glyph glyph-name="uni0424" unicode="&#x424;" horiz-adv-x="864" 
d="M518 619q69 -1 126.5 -20t99 -55.5t65 -88.5t23.5 -119t-23.5 -120t-65 -90t-99 -56.5t-126.5 -20.5v-81h-172v81q-69 1 -126.5 21t-99 56.5t-65 89.5t-23.5 120q0 66 23.5 118.5t65 88.5t99 55.5t126.5 20.5v75h172v-75zM198 331q0 -67 38.5 -102t109.5 -35v280
q-71 -1 -109.5 -39t-38.5 -104zM666 331q0 66 -38.5 104t-109.5 39v-280q71 0 109.5 35t38.5 102z" />
    <glyph glyph-name="uni0425" unicode="&#x425;" horiz-adv-x="623" 
d="M408 335l213 -335h-194l-116 184l-115 -184h-194l214 334l-202 326h194l103 -176l103 176h194z" />
    <glyph glyph-name="uni0426" unicode="&#x426;" horiz-adv-x="744" 
d="M631 155h93v-296h-172v141h-486v660h172v-505h221v505h172v-505z" />
    <glyph glyph-name="uni0427" unicode="&#x427;" horiz-adv-x="658" 
d="M592 0h-172v200q-45 -12 -100 -12q-62 0 -114.5 17.5t-91 51.5t-60.5 84t-22 115v204h172v-187q0 -62 34 -94.5t89 -32.5q44 0 93 17v297h172v-660z" />
    <glyph glyph-name="uni0428" unicode="&#x428;" horiz-adv-x="1048" 
d="M982 0h-916v660h172v-505h200v505h172v-505h200v505h172v-660z" />
    <glyph glyph-name="uni0429" unicode="&#x429;" horiz-adv-x="1095" 
d="M982 155h93v-296h-172v141h-837v660h172v-505h200v505h172v-505h200v505h172v-505z" />
    <glyph glyph-name="uni042A" unicode="&#x42a;" horiz-adv-x="652" 
d="M262 455h104q54 0 101 -16.5t81 -46.5t53.5 -72t19.5 -93q0 -53 -19.5 -95t-53.5 -71t-81 -45t-101 -16h-276v505h-100v155h272v-205zM262 305v-155h105q36 0 57.5 21t21.5 56t-21.5 56.5t-57.5 21.5h-105z" />
    <glyph glyph-name="uni042B" unicode="&#x42b;" horiz-adv-x="932" 
d="M238 455h104q54 0 101 -16.5t81 -46.5t53.5 -72t19.5 -93q0 -53 -19.5 -95t-53.5 -71t-81 -45t-101 -16h-276v660h172v-205zM238 305v-155h105q36 0 57.5 21t21.5 56t-21.5 56.5t-57.5 21.5h-105zM866 0h-172v660h172v-660z" />
    <glyph glyph-name="uni042C" unicode="&#x42c;" horiz-adv-x="628" 
d="M238 455h104q54 0 101 -16.5t81 -46.5t53.5 -72t19.5 -93q0 -53 -19.5 -95t-53.5 -71t-81 -45t-101 -16h-276v660h172v-205zM238 305v-155h105q36 0 57.5 21t21.5 56t-21.5 56.5t-57.5 21.5h-105z" />
    <glyph glyph-name="uni042D" unicode="&#x42d;" horiz-adv-x="723" 
d="M334 672q75 0 140 -26t113.5 -72t76 -108.5t27.5 -135.5t-27.5 -135.5t-75.5 -108.5t-113 -72t-140 -26q-100 0 -179 46t-124 131l131 89q30 -51 71.5 -79.5t100.5 -28.5q64 0 109.5 33t62.5 91h-248v144h239q-21 47 -63.5 73.5t-99.5 26.5q-59 0 -100.5 -28.5
t-71.5 -79.5l-131 89q45 85 123.5 131t178.5 46z" />
    <glyph glyph-name="uni042E" unicode="&#x42e;" horiz-adv-x="1048" 
d="M238 419h87q15 55 46 101.5t75 80.5t98.5 52.5t116.5 18.5q73 0 137.5 -26t113 -72t76.5 -108.5t28 -135.5t-28 -135.5t-76.5 -108.5t-113 -72t-137.5 -26q-65 0 -122 20.5t-102 57t-75.5 87.5t-41.5 111h-82v-264h-172v660h172v-241zM661 514q-38 0 -70.5 -13.5
t-56.5 -37.5t-38 -58t-14 -75q0 -42 14 -76t38 -58t56.5 -37t70.5 -13t70.5 13t56.5 37t38 58t14 76q0 41 -14 75t-38 58t-56.5 37.5t-70.5 13.5z" />
    <glyph glyph-name="uni042F" unicode="&#x42f;" horiz-adv-x="650" 
d="M584 0h-172v173h-69h-19l-112 -173h-192l146 225q-45 32 -70.5 81t-25.5 112q0 55 21 100t57.5 76.5t86.5 48.5t108 17h241v-660zM340 510q-43 0 -69 -26t-26 -67q0 -42 26 -68t69 -26h72v187h-72z" />
    <glyph glyph-name="uni0430" unicode="&#x430;" horiz-adv-x="555" 
d="M276 512q51 0 93 -14t71.5 -41.5t46 -69.5t16.5 -97v-290h-157v40q-26 -24 -62.5 -38t-81.5 -14q-42 0 -74.5 12.5t-54 34t-32.5 49.5t-11 59q0 71 52.5 110t143.5 39h105v8q0 27 -17.5 45.5t-58.5 18.5q-36 0 -64.5 -16t-60.5 -45l-80 109q49 50 102.5 75t123.5 25z
M255 110q32 0 54 19t22 54v4h-81q-46 0 -46 -38q0 -18 13 -28.5t38 -10.5z" />
    <glyph glyph-name="uni0431" unicode="&#x431;" horiz-adv-x="609" 
d="M544 613l-157 -34q-32 -7 -60.5 -18t-50 -28.5t-35.5 -41t-17 -56.5q24 23 55.5 35.5t70.5 12.5q47 0 88.5 -19t72.5 -52t49 -78t18 -97t-18.5 -97.5t-53 -79t-83 -52.5t-108.5 -19q-61 0 -111 20.5t-85.5 59.5t-55 95.5t-19.5 127.5v29q0 93 19 162.5t56.5 118.5
t93 79.5t129.5 45.5l169 35zM311 327q-38 0 -64.5 -25t-26.5 -66q0 -40 26.5 -65.5t64.5 -25.5t64.5 25.5t26.5 65.5q0 41 -26.5 66t-64.5 25z" />
    <glyph glyph-name="uni0432" unicode="&#x432;" horiz-adv-x="559" 
d="M304 500q39 0 73 -9.5t59.5 -28.5t40.5 -46t15 -62q0 -52 -35 -87q32 -17 51.5 -45t19.5 -68q0 -35 -14 -63t-38.5 -48.5t-57.5 -31.5t-71 -11h-287v500h244zM222 200v-64h110q17 0 28 8t11 24t-11 24t-28 8h-110zM222 366v-53h75q37 0 37 27q0 26 -37 26h-75z" />
    <glyph glyph-name="uni0433" unicode="&#x433;" horiz-adv-x="464" 
d="M447 356h-215v-356h-172v500h387v-144z" />
    <glyph glyph-name="uni0434" unicode="&#x434;" horiz-adv-x="694" 
d="M674 -141h-172v141h-310v-141h-172v285h50q22 18 38.5 41.5t28 56t17 75.5t5.5 100v83h422v-356h93v-285zM331 356q-2 -66 -15 -119t-45 -93h138v212h-78z" />
    <glyph glyph-name="uni0435" unicode="&#x435;" horiz-adv-x="568" 
d="M298 512q55 0 99.5 -19t75.5 -51.5t47.5 -75.5t16.5 -91q0 -23 -3 -45.5t-8 -39.5h-320q14 -29 42.5 -43t69.5 -14q36 0 68 10t63 29l62 -117q-89 -67 -199 -67q-62 0 -113.5 20t-89 55t-58 83t-20.5 104t20.5 104t56.5 83t85 55t105 20zM291 377q-32 0 -56 -19.5
t-35 -55.5h174q-2 35 -26 55t-57 20z" />
    <glyph glyph-name="uni0436" unicode="&#x436;" horiz-adv-x="890" 
d="M359 290v210h172v-210l148 210h199l-167 -231l179 -269h-189l-170 252v-252h-172v252l-170 -252h-189l178 269l-166 231h199z" />
    <glyph glyph-name="uni0437" unicode="&#x437;" horiz-adv-x="517" 
d="M252 -12q-71 0 -129 21.5t-98 69.5l92 103q20 -20 53.5 -34.5t82.5 -14.5q64 0 64 31q0 28 -46 28h-93v120h83q15 0 25.5 6.5t10.5 20.5t-12.5 21t-41.5 7q-44 0 -76.5 -13.5t-49.5 -30.5l-92 103q21 24 47 40.5t54.5 26.5t58.5 14.5t59 4.5q48 0 88 -10t69.5 -29.5
t46 -48t16.5 -65.5q0 -32 -12.5 -58.5t-34.5 -47.5q30 -20 47.5 -50t17.5 -65q0 -36 -17.5 -64t-48 -47t-73 -29t-91.5 -10z" />
    <glyph glyph-name="uni0438" unicode="&#x438;" horiz-adv-x="617" 
d="M557 0h-172v218l-270 -230h-55v512h172v-218l270 230h55v-512z" />
    <glyph glyph-name="uni0439" unicode="&#x439;" horiz-adv-x="617" 
d="M557 0h-172v218l-270 -230h-55v512h172v-218l270 230h55v-512zM501 755q0 -41 -13.5 -75t-38 -58.5t-59 -38.5t-75.5 -14t-75.5 14t-59 38.5t-38 58.5t-13.5 75h133q0 -28 14.5 -44t38.5 -16t38.5 16t14.5 44h133z" />
    <glyph glyph-name="uni043A" unicode="&#x43a;" horiz-adv-x="603" 
d="M232 282l168 218h191l-180 -226l192 -274h-191l-180 260v-260h-172v500h172v-218z" />
    <glyph glyph-name="uni043B" unicode="&#x43b;" horiz-adv-x="612" 
d="M552 0h-171v356h-92v-41q0 -91 -21.5 -152.5t-59 -99t-88.5 -53.5t-110 -16v150q27 0 47.5 11t34 39t20 75t6.5 119v112h434v-500z" />
    <glyph glyph-name="uni043C" unicode="&#x43c;" horiz-adv-x="697" 
d="M637 0h-172v179l-90 -95h-55l-88 94v-178h-172v512h55l233 -251l236 251h53v-512z" />
    <glyph glyph-name="uni043D" unicode="&#x43d;" horiz-adv-x="610" 
d="M550 0h-172v183h-146v-183h-172v500h172v-173h146v173h172v-500z" />
    <glyph glyph-name="uni043E" unicode="&#x43e;" horiz-adv-x="607" 
d="M303 512q56 0 106 -20t87 -55t58.5 -83t21.5 -104t-21.5 -104t-58.5 -83t-87 -55t-106 -20q-57 0 -106.5 20t-86 55t-58 83t-21.5 104t21.5 104t58 83t86 55t106.5 20zM304 354q-44 0 -70.5 -29t-26.5 -75q0 -47 26.5 -75.5t70.5 -28.5q41 0 68.5 28.5t27.5 75.5
q0 46 -27.5 75t-68.5 29z" />
    <glyph glyph-name="uni043F" unicode="&#x43f;" horiz-adv-x="602" 
d="M542 0h-172v356h-138v-356h-172v500h482v-500z" />
    <glyph glyph-name="uni0440" unicode="&#x440;" horiz-adv-x="631" 
d="M360 512q52 0 96.5 -19.5t76 -54t49.5 -82.5t18 -105t-18 -105.5t-49.5 -83.5t-76 -54.5t-96.5 -19.5q-82 0 -128 46v-214h-172v680h157v-52q23 31 59 47.5t84 16.5zM326 356q-18 0 -35.5 -6t-31 -19t-22 -33t-8.5 -47t8.5 -47t22 -33.5t31 -20t35.5 -6.5q19 0 36.5 6.5
t31 20t22 33.5t8.5 46t-8 46t-21.5 33.5t-31.5 20t-37 6.5z" />
    <glyph glyph-name="uni0441" unicode="&#x441;" horiz-adv-x="553" 
d="M304 512q79 0 136.5 -36.5t87.5 -97.5l-119 -91q-18 28 -42 47.5t-61 19.5q-46 0 -72.5 -29t-26.5 -75t26.5 -75t72.5 -29q37 0 61 19t42 47l119 -90q-30 -61 -87.5 -97.5t-136.5 -36.5q-57 0 -107 20t-86.5 55t-58 83t-21.5 104t21.5 104t58 83t86.5 55t107 20z" />
    <glyph glyph-name="uni0442" unicode="&#x442;" horiz-adv-x="473" 
d="M468 358h-146v-358h-172v358h-145v144h463v-144z" />
    <glyph glyph-name="uni0443" unicode="&#x443;" horiz-adv-x="572" 
d="M335 -27q-38 -84 -89 -124.5t-129 -40.5q-24 0 -49 3.5t-47 8.5v144q18 -1 32 -1.5t26 -0.5q30 0 55 10t43 49l8 17l-183 462h183l95 -281l108 281h182z" />
    <glyph glyph-name="uni0444" unicode="&#x444;" horiz-adv-x="822" 
d="M497 512q61 -1 114.5 -18t93.5 -50t63 -81t23 -111t-23 -112t-63 -82.5t-93.5 -51t-114.5 -18.5v-168h-172v168q-61 1 -114.5 19t-93.5 51.5t-63 82t-23 111.5t23 111t63 80.5t93.5 50t114.5 18.5v238h172v-238zM492 368v-236h3q60 0 95 29t35 89q0 59 -35 88.5t-95 29.5
h-3zM198 250q0 -60 35 -89t94 -29h3v236h-3q-59 0 -94 -29.5t-35 -88.5z" />
    <glyph glyph-name="uni0445" unicode="&#x445;" horiz-adv-x="553" 
d="M371 257l182 -257h-191l-86 131l-85 -131h-191l180 256l-170 244h191l75 -118l76 118h191z" />
    <glyph glyph-name="uni0446" unicode="&#x446;" horiz-adv-x="644" 
d="M531 144h93v-285h-172v141h-392v500h171v-356h129v356h171v-356z" />
    <glyph glyph-name="uni0447" unicode="&#x447;" horiz-adv-x="580" 
d="M520 0h-172v158q-34 -8 -71 -8q-51 0 -96 16.5t-78 47.5t-52.5 76t-19.5 102v108h172v-96q0 -47 23.5 -71.5t65.5 -24.5q24 0 56 8v184h172v-500z" />
    <glyph glyph-name="uni0448" unicode="&#x448;" horiz-adv-x="893" 
d="M833 0h-773v500h171v-356h130v356h171v-356h130v356h171v-500z" />
    <glyph glyph-name="uni0449" unicode="&#x449;" horiz-adv-x="946" 
d="M833 144h93v-285h-172v141h-694v500h171v-356h130v356h171v-356h130v356h171v-356z" />
    <glyph glyph-name="uni044A" unicode="&#x44a;" horiz-adv-x="593" 
d="M268 394h72q46 0 86.5 -13t70.5 -37.5t47.5 -61.5t17.5 -85t-17.5 -85t-47.5 -61.5t-70.5 -37.5t-86.5 -13h-244v356h-96v144h268v-106zM268 250v-106h59q23 0 41.5 11.5t18.5 39.5t-18.5 41.5t-41.5 13.5h-59z" />
    <glyph glyph-name="uni044B" unicode="&#x44b;" horiz-adv-x="825" 
d="M765 0h-172v500h172v-500zM232 394h72q46 0 86.5 -13t70.5 -37.5t47.5 -61.5t17.5 -85t-17.5 -85t-47.5 -61.5t-70.5 -37.5t-86.5 -13h-244v500h172v-106zM232 250v-106h59q23 0 41.5 11.5t18.5 39.5t-18.5 41.5t-41.5 13.5h-59z" />
    <glyph glyph-name="uni044C" unicode="&#x44c;" horiz-adv-x="557" 
d="M232 394h72q46 0 86.5 -13t70.5 -37.5t47.5 -61.5t17.5 -85t-17.5 -85t-47.5 -61.5t-70.5 -37.5t-86.5 -13h-244v500h172v-106zM232 250v-106h59q23 0 41.5 11.5t18.5 39.5t-18.5 41.5t-41.5 13.5h-59z" />
    <glyph glyph-name="uni044D" unicode="&#x44d;" horiz-adv-x="553" 
d="M247 512q58 0 108.5 -20t87.5 -55t58 -83t21 -104t-21 -104t-58 -83t-87.5 -55t-108.5 -20q-71 0 -126 32t-96 101l113 86q20 -29 46 -49t64 -20q33 0 57 15.5t36 40.5l-147 1v112h146q-13 24 -36.5 39.5t-55.5 15.5q-40 0 -66 -21.5t-44 -47.5l-113 86q41 69 96 101
t126 32z" />
    <glyph glyph-name="uni044E" unicode="&#x44e;" horiz-adv-x="874" 
d="M232 327h85q12 41 36 75t57.5 58.5t74.5 38t86 13.5q55 0 104.5 -20t87 -55t59 -83t21.5 -104t-21.5 -104t-59 -83t-87 -55t-104.5 -20q-47 0 -88.5 14.5t-75.5 40t-57.5 61.5t-34.5 79h-83v-183h-172v500h172v-173zM570 354q-42 0 -69.5 -29t-27.5 -75q0 -47 27.5 -75.5
t69.5 -28.5t69.5 28.5t27.5 75.5q0 46 -27.5 75t-69.5 29z" />
    <glyph glyph-name="uni044F" unicode="&#x44f;" horiz-adv-x="587" 
d="M527 0h-172v106h-63l-89 -106h-191l120 152q-33 25 -52 62.5t-19 88.5q0 48 17.5 85t47.5 61.5t70.5 37.5t86.5 13h244v-500zM296 356q-23 0 -41.5 -11.5t-18.5 -39.5t18.5 -41.5t41.5 -13.5h59v106h-59z" />
    <glyph glyph-name="uni0450" unicode="&#x450;" horiz-adv-x="568" 
d="M298 512q55 0 99.5 -19t75.5 -51.5t47.5 -75.5t16.5 -91q0 -23 -3 -45.5t-8 -39.5h-320q14 -29 42.5 -43t69.5 -14q36 0 68 10t63 29l62 -117q-89 -67 -199 -67q-62 0 -113.5 20t-89 55t-58 83t-20.5 104t20.5 104t56.5 83t85 55t105 20zM291 377q-32 0 -56 -19.5
t-35 -55.5h174q-2 35 -26 55t-57 20zM361 574h-124l-147 176v30h207z" />
    <glyph glyph-name="uni0451" unicode="&#x451;" horiz-adv-x="568" 
d="M298 512q55 0 99.5 -19t75.5 -51.5t47.5 -75.5t16.5 -91q0 -23 -3 -45.5t-8 -39.5h-320q14 -29 42.5 -43t69.5 -14q36 0 68 10t63 29l62 -117q-89 -67 -199 -67q-62 0 -113.5 20t-89 55t-58 83t-20.5 104t20.5 104t56.5 83t85 55t105 20zM291 377q-32 0 -56 -19.5
t-35 -55.5h174q-2 35 -26 55t-57 20zM425 771q41 0 69.5 -26.5t28.5 -67.5q0 -18 -7.5 -35t-21 -30t-31.5 -20.5t-38 -7.5q-18 0 -35.5 7.5t-31 20.5t-22 30t-8.5 35q0 20 8.5 37.5t22 30t31 19.5t35.5 7zM170 771q41 0 69.5 -26.5t28.5 -67.5q0 -18 -7.5 -35t-21 -30
t-31.5 -20.5t-38 -7.5q-18 0 -35.5 7.5t-31 20.5t-22 30t-8.5 35q0 20 8.5 37.5t22 30t31 19.5t35.5 7z" />
    <glyph glyph-name="uni0452" unicode="&#x452;" horiz-adv-x="610" 
d="M422 533h-184v-108q25 22 57.5 34.5t72.5 12.5q42 0 76 -14.5t59 -41.5t38.5 -64.5t13.5 -83.5v-257q0 -103 -56.5 -153t-153.5 -50q-27 0 -47.5 3.5t-35.5 8.5v144q11 -1 20 -1.5t19 -0.5q45 0 63.5 15.5t18.5 50.5v215q0 34 -20.5 54t-52.5 20t-52 -20t-20 -54v-243
h-172v533h-76v139h76v78h172v-78h184v-139z" />
    <glyph glyph-name="uni0453" unicode="&#x453;" horiz-adv-x="464" 
d="M447 356h-215v-356h-172v500h387v-144zM457 750l-147 -176h-124l64 206h207v-30z" />
    <glyph glyph-name="uni0454" unicode="&#x454;" horiz-adv-x="559" 
d="M306 512q71 0 126 -32t96 -101l-113 -86q-18 26 -44 47.5t-66 21.5q-33 0 -56.5 -15.5t-36.5 -39.5h147v-112l-148 -1q13 -25 37 -40.5t57 -15.5q38 0 64 20t46 49l113 -86q-41 -69 -96 -101t-126 -32q-59 0 -109 20t-87 55t-58 83t-21 104t21 104t58 83t87 55t109 20z
" />
    <glyph glyph-name="uni0455" unicode="&#x455;" horiz-adv-x="456" 
d="M237 513q55 0 103 -18t85 -56l-81 -105q-51 43 -106 43q-35 0 -35 -19q0 -10 8.5 -15t25.5 -12l50 -20q33 -14 60 -28t46 -32.5t29.5 -42t10.5 -54.5q0 -39 -15.5 -70t-43.5 -52.5t-65.5 -32.5t-82.5 -11q-67 0 -123.5 24.5t-91.5 71.5l80 102q31 -30 66 -46t72 -16
q18 0 31 4.5t13 17.5q0 9 -7.5 14t-21.5 11l-56 23q-34 14 -61 29t-45.5 34t-28.5 43t-10 55q0 37 14 66.5t39.5 50t61.5 31t79 10.5z" />
    <glyph glyph-name="uni0456" unicode="&#x456;" horiz-adv-x="284" 
d="M228 0h-172v500h172v-500zM141 779q22 0 41 -8t33.5 -21.5t23 -32t8.5 -40.5q0 -21 -8.5 -39.5t-23 -32t-33.5 -21.5t-41 -8t-41 8t-33.5 21.5t-22.5 32t-8 39.5q0 44 30.5 73t74.5 29z" />
    <glyph glyph-name="uni0457" unicode="&#x457;" horiz-adv-x="284" 
d="M228 0h-172v500h172v-500zM14 766q41 0 69.5 -26.5t28.5 -67.5q0 -18 -7.5 -35t-21 -30t-31.5 -20.5t-38 -7.5q-18 0 -35.5 7.5t-31 20.5t-22 30t-8.5 35q0 20 8.5 37.5t22 30t31 19.5t35.5 7zM269 766q41 0 69.5 -26.5t28.5 -67.5q0 -18 -7.5 -35t-21 -30t-31.5 -20.5
t-38 -7.5q-18 0 -35.5 7.5t-31 20.5t-22 30t-8.5 35q0 20 8.5 37.5t22 30t31 19.5t35.5 7z" />
    <glyph glyph-name="uni0458" unicode="&#x458;" horiz-adv-x="284" 
d="M228 11q0 -103 -56.5 -153t-153.5 -50q-27 0 -47.5 3.5t-35.5 8.5v144q11 -1 20 -1.5t19 -0.5q45 0 63.5 15.5t18.5 50.5v472h172v-489zM141 779q22 0 41 -8t33.5 -21.5t23 -32t8.5 -40.5q0 -21 -8.5 -39.5t-23 -32t-33.5 -21.5t-41 -8t-41 8t-33.5 21.5t-22.5 32
t-8 39.5q0 44 30.5 73t74.5 29z" />
    <glyph glyph-name="uni0459" unicode="&#x459;" horiz-adv-x="877" 
d="M552 394h72q46 0 86.5 -13t70.5 -37.5t47.5 -61.5t17.5 -85t-17.5 -85t-47.5 -61.5t-70.5 -37.5t-86.5 -13h-243v356h-92v-41q0 -91 -21.5 -152.5t-59 -99t-88.5 -53.5t-110 -16v150q27 0 47.5 11t34 39t20 75t6.5 119v112h434v-106zM552 250v-106h59q23 0 41.5 11.5
t18.5 39.5t-18.5 41.5t-41.5 13.5h-59z" />
    <glyph glyph-name="uni045A" unicode="&#x45a;" horiz-adv-x="870" 
d="M545 394h72q46 0 86.5 -13t70.5 -37.5t47.5 -61.5t17.5 -85t-17.5 -85t-47.5 -61.5t-70.5 -37.5t-86.5 -13h-244v183h-141v-183h-172v500h172v-173h141v173h172v-106zM545 250v-106h59q23 0 41.5 11.5t18.5 39.5t-18.5 41.5t-41.5 13.5h-59z" />
    <glyph glyph-name="uni045B" unicode="&#x45b;" horiz-adv-x="610" 
d="M422 533h-184v-108q25 22 57.5 34.5t72.5 12.5q42 0 76 -14.5t59 -41.5t38.5 -64.5t13.5 -83.5v-268h-172v243q0 34 -20.5 54t-52.5 20t-52 -20t-20 -54v-243h-172v533h-76v139h76v78h172v-78h184v-139z" />
    <glyph glyph-name="uni045C" unicode="&#x45c;" horiz-adv-x="603" 
d="M232 282l168 218h191l-180 -226l192 -274h-191l-180 260v-260h-172v500h172v-218zM520 750l-147 -176h-124l64 206h207v-30z" />
    <glyph glyph-name="uni045D" unicode="&#x45d;" horiz-adv-x="617" 
d="M557 0h-172v218l-270 -230h-55v512h172v-218l270 230h55v-512zM378 574h-124l-147 176v30h207z" />
    <glyph glyph-name="uni045E" unicode="&#x45e;" horiz-adv-x="572" 
d="M335 -27q-38 -84 -89 -124.5t-129 -40.5q-24 0 -49 3.5t-47 8.5v144q18 -1 32 -1.5t26 -0.5q30 0 55 10t43 49l8 17l-183 462h183l95 -281l108 281h182zM473 755q0 -41 -13.5 -75t-38 -58.5t-59 -38.5t-75.5 -14t-75.5 14t-59 38.5t-38 58.5t-13.5 75h133q0 -28 14.5 -44
t38.5 -16t38.5 16t14.5 44h133z" />
    <glyph glyph-name="uni045F" unicode="&#x45f;" horiz-adv-x="592" 
d="M532 0h-150v-141h-172v141h-150v500h171v-356h130v356h171v-500z" />
    <glyph glyph-name="uni0462" unicode="&#x462;" horiz-adv-x="628" 
d="M238 612h254v-139h-254v-60h108q58 0 105 -14.5t79 -41.5t49.5 -66t17.5 -87q0 -99 -68.5 -151.5t-186.5 -52.5h-276v473h-76v139h76v48h172v-48zM238 265v-115h109q35 0 55 15.5t20 41.5t-20 42t-55 16h-109z" />
    <glyph glyph-name="uni0463" unicode="&#x463;" horiz-adv-x="563" 
d="M238 540h194v-138h-194v-38h72q46 0 86.5 -12t70.5 -34.5t47.5 -55.5t17.5 -75q0 -44 -17.5 -79t-47.5 -59t-70.5 -36.5t-86.5 -12.5h-244v402h-76v138h76v210h172v-210zM238 230v-86h59q28 0 44 10t16 33t-16 33t-44 10h-59z" />
    <glyph glyph-name="uni0472" unicode="&#x472;" horiz-adv-x="776" 
d="M387 672q74 0 139 -26t113.5 -72t76.5 -108.5t28 -135.5t-28 -135.5t-76.5 -108.5t-113.5 -72t-139 -26t-138.5 26t-112.5 72t-76 108.5t-28 135.5t28 135.5t76 108.5t112.5 72t138.5 26zM387 146q64 0 111 34.5t63 94.5q-41 -20 -87 -20q-25 0 -45.5 4.5t-40.5 10
t-41 10t-45 4.5q-43 0 -85 -19q17 -56 62 -87.5t108 -31.5zM302 432q24 0 45 -4.5t41 -10t40.5 -10t45.5 -4.5q40 0 74 14q-22 45 -64 71t-97 26q-56 0 -98 -26t-63 -71q37 15 76 15z" />
    <glyph glyph-name="uni0473" unicode="&#x473;" horiz-adv-x="607" 
d="M303 512q57 0 107 -20t86.5 -55t58 -83t21.5 -104t-21.5 -104t-58 -83t-86.5 -55t-107 -20t-106.5 20t-86 55t-58 83t-21.5 104t21.5 104t58 83t86 55t106.5 20zM303 133q34 0 59.5 15t39.5 43q-20 -6 -40 -6q-17 0 -31 3t-27.5 7t-28 7t-30.5 3q-22 0 -44 -8
q12 -31 39 -47.5t63 -16.5zM245 316q16 0 30.5 -3t28 -7t28 -7t31.5 -3q22 0 42 7q-13 30 -40 47t-62 17t-60 -15t-39 -42q19 6 41 6z" />
    <glyph glyph-name="uni0474" unicode="&#x474;" horiz-adv-x="675" 
d="M593 672q25 0 45 -4t37 -10v-147q-24 3 -38 3q-27 0 -42.5 -15t-28.5 -43l-209 -468h-55l-300 672h195l133 -325l83 204q26 65 67.5 99t112.5 34z" />
    <glyph glyph-name="uni0475" unicode="&#x475;" horiz-adv-x="566" 
d="M490 512q20 0 40.5 -3.5t35.5 -8.5v-144h-31q-20 0 -33 -8.5t-24 -28.5l-165 -331h-55l-256 512h182l101 -225l54 118q26 57 59.5 88t91.5 31z" />
    <glyph glyph-name="uni0490" unicode="&#x490;" horiz-adv-x="505" 
d="M481 505h-243v-505h-172v660h243v121h172v-276z" />
    <glyph glyph-name="uni0491" unicode="&#x491;" horiz-adv-x="484" 
d="M467 356h-235v-356h-172v500h235v132h172v-276z" />
    <glyph glyph-name="uni0492" unicode="&#x492;" horiz-adv-x="524" 
d="M444 224h-194v-224h-172v224h-88v155h88v281h418v-155h-246v-126h194v-155z" />
    <glyph glyph-name="uni0493" unicode="&#x493;" horiz-adv-x="490" 
d="M433 136h-195v-136h-172v136h-76v139h76v225h407v-144h-235v-81h195v-139z" />
    <glyph glyph-name="uni0496" unicode="&#x496;" horiz-adv-x="1054" 
d="M609 363l198 297h200l-228 -313l147 -192h118v-296h-172v141h-32l-231 328v-328h-172v328l-231 -328h-204l264 346l-227 314h200l198 -297v297h172v-297z" />
    <glyph glyph-name="uni0497" unicode="&#x497;" horiz-adv-x="922" 
d="M531 290l148 210h199l-167 -231l83 -125h108v-285h-172v141h-29l-170 252v-252h-172v252l-170 -252h-189l178 269l-166 231h199l148 -210v210h172v-210z" />
    <glyph glyph-name="uni0498" unicode="&#x498;" horiz-adv-x="592" 
d="M288 672q49 0 93 -15t77 -42.5t52.5 -65t19.5 -82.5q0 -39 -14.5 -71t-40.5 -55q39 -22 62 -57.5t23 -86.5q0 -48 -20.5 -86.5t-55.5 -65.5t-83 -42t-102 -15q-94 0 -163 42.5t-104 115.5l119 84q32 -48 68.5 -66t78.5 -18q38 0 66 14.5t28 46.5q0 25 -18 39.5t-48 14.5
h-126v138h96q31 0 48.5 16t17.5 40q0 27 -21.5 43t-53.5 16q-38 0 -71 -21.5t-60 -62.5l-119 84q34 72 100 115t151 43zM339 55q32 -18 50 -46.5t18 -65.5q0 -28 -11.5 -52.5t-33 -43t-53.5 -29t-73 -10.5q-22 0 -41.5 2.5t-35.5 6.5v112q20 -1 34 -1h29q24 0 37.5 13.5
t13.5 37.5v48z" />
    <glyph glyph-name="uni0499" unicode="&#x499;" horiz-adv-x="517" 
d="M252 -12q-71 0 -129 21.5t-98 69.5l92 103q20 -20 53.5 -34.5t82.5 -14.5q64 0 64 31q0 28 -46 28h-93v120h83q15 0 25.5 6.5t10.5 20.5t-12.5 21t-41.5 7q-44 0 -76.5 -13.5t-49.5 -30.5l-92 103q21 24 47 40.5t54.5 26.5t58.5 14.5t59 4.5q48 0 88 -10t69.5 -29.5
t46 -48t16.5 -65.5q0 -32 -12.5 -58.5t-34.5 -47.5q30 -20 47.5 -50t17.5 -65q0 -36 -17.5 -64t-48 -47t-73 -29t-91.5 -10zM298 55q32 -18 50 -46.5t18 -65.5q0 -28 -11.5 -52.5t-33 -43t-53.5 -29t-73 -10.5q-22 0 -41.5 2.5t-35.5 6.5v112q20 -1 34 -1h29q24 0 37.5 13.5
t13.5 37.5v48z" />
    <glyph glyph-name="uni049A" unicode="&#x49a;" horiz-adv-x="703" 
d="M238 361l218 299h200l-228 -313l147 -192h118v-296h-172v141h-32l-251 329v-329h-172v660h172v-299z" />
    <glyph glyph-name="uni049B" unicode="&#x49b;" horiz-adv-x="629" 
d="M232 287l164 213h191l-180 -226l91 -130h111v-285h-172v141h-29l-176 254v-254h-172v500h172v-213z" />
    <glyph glyph-name="uni04A0" unicode="&#x4a0;" horiz-adv-x="735" 
d="M278 361l218 299h200l-227 -314l264 -346h-204l-251 329v-329h-172v505h-106v155h278v-299z" />
    <glyph glyph-name="uni04A1" unicode="&#x4a1;" horiz-adv-x="639" 
d="M268 282l168 218h191l-180 -226l192 -274h-191l-180 260v-260h-172v356h-96v144h268v-218z" />
    <glyph glyph-name="uni04A2" unicode="&#x4a2;" horiz-adv-x="764" 
d="M651 155h93v-296h-172v141h-93v264h-241v-264h-172v660h172v-241h241v241h172v-505z" />
    <glyph glyph-name="uni04A3" unicode="&#x4a3;" horiz-adv-x="663" 
d="M550 144h93v-285h-182v141h-83v183h-146v-183h-172v500h172v-173h146v173h172v-356z" />
    <glyph glyph-name="uni04AA" unicode="&#x4aa;" horiz-adv-x="723" 
d="M423 55q32 -18 50 -46.5t18 -65.5q0 -28 -11.5 -52.5t-33 -43t-53.5 -29t-73 -10.5q-22 0 -41.5 2.5t-35.5 6.5v112q20 -1 34 -1h29q24 0 37.5 13.5t13.5 37.5v48zM389 672q100 0 178.5 -46t123.5 -131l-131 -89q-30 51 -71.5 79.5t-100.5 28.5q-39 0 -72 -13.5
t-57 -37.5t-37.5 -58t-13.5 -76t13.5 -75.5t37.5 -57.5t57 -37t72 -13q59 0 100.5 28.5t71.5 79.5l131 -89q-45 -85 -124 -131t-179 -46q-75 0 -140 26t-113 72t-75.5 108.5t-27.5 135.5t27.5 135.5t76 108.5t113.5 72t140 26z" />
    <glyph glyph-name="uni04AB" unicode="&#x4ab;" horiz-adv-x="553" 
d="M335 55q32 -18 50 -46.5t18 -65.5q0 -28 -11.5 -52.5t-33 -43t-53.5 -29t-73 -10.5q-22 0 -41.5 2.5t-35.5 6.5v112q20 -1 34 -1h29q24 0 37.5 13.5t13.5 37.5v48zM304 512q79 0 136.5 -36.5t87.5 -97.5l-119 -91q-18 28 -42 47.5t-61 19.5q-46 0 -72.5 -29t-26.5 -75
t26.5 -75t72.5 -29q37 0 61 19t42 47l119 -90q-30 -61 -87.5 -97.5t-136.5 -36.5q-57 0 -107 20t-86.5 55t-58 83t-21.5 104t21.5 104t58 83t86.5 55t107 20z" />
    <glyph glyph-name="uni04AE" unicode="&#x4ae;" horiz-adv-x="629" 
d="M401 253v-253h-172v251l-227 409h190l123 -230l123 230h189z" />
    <glyph glyph-name="uni04AF" unicode="&#x4af;" horiz-adv-x="571" 
d="M371 65v-245h-172v247l-197 433h182l101 -255l102 255h182z" />
    <glyph glyph-name="uni04B0" unicode="&#x4b0;" horiz-adv-x="651" 
d="M582 133h-170v-133h-172v133h-170v155h150l-207 372h190l123 -230l123 230h189l-207 -372h151v-155z" />
    <glyph glyph-name="uni04B1" unicode="&#x4b1;" horiz-adv-x="579" 
d="M521 0h-146v-180h-172v180h-144v139h111l-164 361h182l101 -255l102 255h182l-165 -361h113v-139z" />
    <glyph glyph-name="uni04B2" unicode="&#x4b2;" horiz-adv-x="641" 
d="M408 335l114 -180h109v-296h-172v141h-32l-116 184l-115 -184h-194l214 334l-202 326h194l103 -176l103 176h194z" />
    <glyph glyph-name="uni04B3" unicode="&#x4b3;" horiz-adv-x="583" 
d="M371 257l80 -113h112v-285h-172v141h-29l-86 131l-85 -131h-191l180 256l-170 244h191l75 -118l76 118h191z" />
    <glyph glyph-name="uni04B6" unicode="&#x4b6;" horiz-adv-x="705" 
d="M592 155h93v-296h-172v141h-93v200q-45 -12 -100 -12q-62 0 -114.5 17.5t-91 51.5t-60.5 84t-22 115v204h172v-187q0 -62 34 -94.5t89 -32.5q44 0 93 17v297h172v-505z" />
    <glyph glyph-name="uni04B7" unicode="&#x4b7;" horiz-adv-x="633" 
d="M520 144h93v-285h-172v141h-93v158q-34 -8 -71 -8q-51 0 -96 16.5t-78 47.5t-52.5 76t-19.5 102v108h172v-96q0 -47 23.5 -71.5t65.5 -24.5q24 0 56 8v184h172v-356z" />
    <glyph glyph-name="uni04BA" unicode="&#x4ba;" horiz-adv-x="660" 
d="M238 450q22 5 45 8.5t49 3.5q65 0 115.5 -21t85.5 -58.5t53.5 -89t18.5 -112.5v-181h-172v174q0 65 -26.5 97.5t-92.5 32.5q-19 0 -38 -2.5t-38 -7.5v-294h-172v660h172v-210z" />
    <glyph glyph-name="uni04BB" unicode="&#x4bb;" horiz-adv-x="604" 
d="M232 465q25 22 57.5 34.5t72.5 12.5q42 0 76 -14.5t59 -41.5t38.5 -64.5t13.5 -83.5v-308h-172v283q0 34 -20.5 54t-52.5 20t-52 -20t-20 -54v-283h-172v750h172v-285z" />
    <glyph glyph-name="uni04C0" unicode="&#x4c0;" horiz-adv-x="304" 
d="M238 0h-172v660h172v-660z" />
    <glyph glyph-name="uni04C1" unicode="&#x4c1;" horiz-adv-x="1046" 
d="M609 363l198 297h200l-227 -314l264 -346h-204l-231 328v-328h-172v328l-231 -328h-204l264 346l-227 314h200l198 -297v297h172v-297zM709 910q0 -41 -13.5 -75t-38 -58.5t-59 -38.5t-75.5 -14t-75.5 14t-59 38.5t-38 58.5t-13.5 75h133q0 -28 14.5 -44t38.5 -16
t38.5 16t14.5 44h133z" />
    <glyph glyph-name="uni04C2" unicode="&#x4c2;" horiz-adv-x="890" 
d="M359 290v210h172v-210l148 210h199l-167 -231l179 -269h-189l-170 252v-252h-172v252l-170 -252h-189l178 269l-166 231h199zM626 755q0 -41 -13.5 -75t-38 -58.5t-59 -38.5t-75.5 -14t-75.5 14t-59 38.5t-38 58.5t-13.5 75h133q0 -28 14.5 -44t38.5 -16t38.5 16t14.5 44
h133z" />
    <glyph glyph-name="uni04CF" unicode="&#x4cf;" horiz-adv-x="292" 
d="M232 0h-172v750h172v-750z" />
    <glyph glyph-name="uni04D0" unicode="&#x4d0;" horiz-adv-x="659" 
d="M516 910q0 -41 -13.5 -75t-38 -58.5t-59 -38.5t-75.5 -14t-75.5 14t-59 38.5t-38 58.5t-13.5 75h133q0 -28 14.5 -44t38.5 -16t38.5 16t14.5 44h133zM657 0h-185l-24 55h-237l-24 -55h-185l300 672h55zM272 193h115l-57 152z" />
    <glyph glyph-name="uni04D1" unicode="&#x4d1;" horiz-adv-x="555" 
d="M465 755q0 -41 -13.5 -75t-38 -58.5t-59 -38.5t-75.5 -14t-75.5 14t-59 38.5t-38 58.5t-13.5 75h133q0 -28 14.5 -44t38.5 -16t38.5 16t14.5 44h133zM276 512q51 0 93 -14t71.5 -41.5t46 -69.5t16.5 -97v-290h-157v40q-26 -24 -62.5 -38t-81.5 -14q-42 0 -74.5 12.5
t-54 34t-32.5 49.5t-11 59q0 71 52.5 110t143.5 39h105v8q0 27 -17.5 45.5t-58.5 18.5q-36 0 -64.5 -16t-60.5 -45l-80 109q49 50 102.5 75t123.5 25zM255 110q32 0 54 19t22 54v4h-81q-46 0 -46 -38q0 -18 13 -28.5t38 -10.5z" />
    <glyph glyph-name="uni04D4" unicode="&#x4d4;" horiz-adv-x="873" 
d="M738 270h-167l19 -115h242v-155h-381l-10 55h-229l-27 -55h-185l334 660h486v-155h-288l15 -91h191v-144zM280 193h137l-34 222z" />
    <glyph glyph-name="uni04D5" unicode="&#x4d5;" horiz-adv-x="868" 
d="M276 512q103 0 164 -55q31 26 70.5 40.5t87.5 14.5q55 0 99.5 -19t75.5 -51.5t47.5 -75.5t16.5 -91q0 -23 -3 -46t-8 -40h-319q28 -56 110 -56q36 0 68 10t63 29l62 -117q-89 -67 -198 -67q-67 0 -118 23t-85 65q-62 -88 -191 -88q-50 0 -85.5 12.5t-58 33.5t-33.5 49
t-11 59q0 72 52.5 112t143.5 40h105v6q0 27 -17 45.5t-58 18.5q-36 0 -65 -16t-61 -45l-80 109q49 50 102.5 75t123.5 25zM592 377q-35 0 -60 -21.5t-34 -61.5h176q-2 39 -25 61t-57 22zM254 110q33 0 55 19t22 54v6h-81q-22 0 -34 -10.5t-12 -28.5q0 -40 50 -40z" />
    <glyph glyph-name="uni04D6" unicode="&#x4d6;" horiz-adv-x="577" 
d="M475 910q0 -41 -13.5 -75t-38 -58.5t-59 -38.5t-75.5 -14t-75.5 14t-59 38.5t-38 58.5t-13.5 75h133q0 -28 14.5 -44t38.5 -16t38.5 16t14.5 44h133zM524 505h-286v-91h204v-144h-204v-115h298v-155h-470v660h458v-155z" />
    <glyph glyph-name="uni04D7" unicode="&#x4d7;" horiz-adv-x="568" 
d="M470 755q0 -41 -13.5 -75t-38 -58.5t-59 -38.5t-75.5 -14t-75.5 14t-59 38.5t-38 58.5t-13.5 75h133q0 -28 14.5 -44t38.5 -16t38.5 16t14.5 44h133zM298 512q55 0 99.5 -19t75.5 -51.5t47.5 -75.5t16.5 -91q0 -23 -3 -45.5t-8 -39.5h-320q14 -29 42.5 -43t69.5 -14
q36 0 68 10t63 29l62 -117q-89 -67 -199 -67q-62 0 -113.5 20t-89 55t-58 83t-20.5 104t20.5 104t56.5 83t85 55t105 20zM291 377q-32 0 -56 -19.5t-35 -55.5h174q-2 35 -26 55t-57 20z" />
    <glyph glyph-name="uni04D8" unicode="&#x4d8;" horiz-adv-x="734" 
d="M352 672q72 0 136 -26t111.5 -72t75 -108t27.5 -135t-28 -136t-76.5 -109t-113 -72t-137.5 -26q-69 0 -127 23t-99.5 64.5t-65 98t-23.5 122.5q0 26 3 52.5t8 43.5h476q-17 58 -62 90.5t-104 32.5q-52 0 -93.5 -25.5t-74.5 -70.5l-116 100q47 68 117 110.5t166 42.5z
M349 146q57 0 99.5 26.5t62.5 74.5h-312q4 -27 18.5 -46t35.5 -31t45.5 -18t50.5 -6z" />
    <glyph glyph-name="uni04D9" unicode="&#x4d9;" horiz-adv-x="568" 
d="M270 -12q-56 0 -100 19t-75 51.5t-47.5 75.5t-16.5 91q0 23 3 45.5t8 39.5h319q-14 29 -42 43t-69 14q-36 0 -68 -10t-63 -29l-62 117q89 67 199 67q62 0 113.5 -20t89 -55t58 -83t20.5 -104t-20.5 -104t-56.5 -83t-85 -55t-105 -20zM277 123q32 0 55.5 19.5t34.5 55.5
h-173q1 -35 25.5 -55t57.5 -20z" />
    <glyph glyph-name="uni04E2" unicode="&#x4e2;" horiz-adv-x="727" 
d="M661 0h-172v344l-368 -356h-55v672h172v-341l368 353h55v-672zM521 745h-340v134h340v-134z" />
    <glyph glyph-name="uni04E3" unicode="&#x4e3;" horiz-adv-x="617" 
d="M557 0h-172v218l-270 -230h-55v512h172v-218l270 230h55v-512zM475 610h-320v134h320v-134z" />
    <glyph glyph-name="uni04E6" unicode="&#x4e6;" horiz-adv-x="776" 
d="M525 910q41 0 69.5 -26.5t28.5 -67.5q0 -18 -7.5 -35t-21 -30t-31.5 -20.5t-38 -7.5q-18 0 -35.5 7.5t-31 20.5t-22 30t-8.5 35q0 20 8.5 37.5t22 30t31 19.5t35.5 7zM250 911q41 0 69.5 -26.5t28.5 -67.5q0 -18 -7.5 -35t-21 -30t-31.5 -20.5t-38 -7.5q-18 0 -35.5 7.5
t-31 20.5t-22 30t-8.5 35q0 20 8.5 37.5t22 30t31 19.5t35.5 7zM387 672q74 0 139 -26t113.5 -72t76.5 -108.5t28 -135.5t-28 -135.5t-76.5 -108.5t-113.5 -72t-139 -26t-138.5 26t-112.5 72t-76 108.5t-28 135.5t28 135.5t76 108.5t112.5 72t138.5 26zM388 514
q-40 0 -73 -13.5t-57 -37.5t-37 -58t-13 -75q0 -42 13 -76t37 -58t57 -37t73 -13q38 0 71 13t57 37t38 58t14 76q0 41 -14 75t-38 58t-57 37.5t-71 13.5z" />
    <glyph glyph-name="uni04E7" unicode="&#x4e7;" horiz-adv-x="607" 
d="M431 771q41 0 69.5 -26.5t28.5 -67.5q0 -18 -7.5 -35t-21 -30t-31.5 -20.5t-38 -7.5q-18 0 -35.5 7.5t-31 20.5t-22 30t-8.5 35q0 20 8.5 37.5t22 30t31 19.5t35.5 7zM176 771q41 0 69.5 -26.5t28.5 -67.5q0 -18 -7.5 -35t-21 -30t-31.5 -20.5t-38 -7.5q-18 0 -35.5 7.5
t-31 20.5t-22 30t-8.5 35q0 20 8.5 37.5t22 30t31 19.5t35.5 7zM303 512q56 0 106 -20t87 -55t58.5 -83t21.5 -104t-21.5 -104t-58.5 -83t-87 -55t-106 -20q-57 0 -106.5 20t-86 55t-58 83t-21.5 104t21.5 104t58 83t86 55t106.5 20zM304 354q-44 0 -70.5 -29t-26.5 -75
q0 -47 26.5 -75.5t70.5 -28.5q41 0 68.5 28.5t27.5 75.5q0 46 -27.5 75t-68.5 29z" />
    <glyph glyph-name="uni04E8" unicode="&#x4e8;" horiz-adv-x="776" 
d="M387 672q74 0 139 -26t113.5 -72t76.5 -108.5t28 -135.5t-28 -135.5t-76.5 -108.5t-113.5 -72t-139 -26t-138.5 26t-112.5 72t-76 108.5t-28 135.5t28 135.5t76 108.5t112.5 72t138.5 26zM388 146q62 0 108 33t63 91h-343q17 -58 62 -91t110 -33zM388 514
q-57 0 -100 -26.5t-63 -73.5h325q-21 47 -64 73.5t-98 26.5z" />
    <glyph glyph-name="uni04E9" unicode="&#x4e9;" horiz-adv-x="607" 
d="M303 512q57 0 107 -20t86.5 -55t58 -83t21.5 -104t-21.5 -104t-58 -83t-86.5 -55t-107 -20t-106.5 20t-86 55t-58 83t-21.5 104t21.5 104t58 83t86 55t106.5 20zM303 133q35 0 61 16t39 45h-201q13 -29 39.5 -45t61.5 -16zM303 367q-35 0 -61 -16t-39 -45h201
q-14 29 -40 45t-61 16z" />
    <glyph glyph-name="uni04EE" unicode="&#x4ee;" horiz-adv-x="644" 
d="M424 153q-36 -85 -97 -125t-155 -40q-24 0 -49 3.5t-47 8.5v148q18 -1 32 -1.5t26 -0.5q27 0 56.5 7.5t49.5 30.5l-233 476h200l128 -285l110 285h197zM518 745h-340v134h340v-134z" />
    <glyph glyph-name="uni04EF" unicode="&#x4ef;" horiz-adv-x="572" 
d="M446 610h-320v134h320v-134zM335 -27q-38 -84 -89 -124.5t-129 -40.5q-24 0 -49 3.5t-47 8.5v144q18 -1 32 -1.5t26 -0.5q30 0 55 10t43 49l8 17l-183 462h183l95 -281l108 281h182z" />
    <glyph glyph-name="uni04F2" unicode="&#x4f2;" horiz-adv-x="644" 
d="M424 153q-36 -85 -97 -125t-155 -40q-24 0 -49 3.5t-47 8.5v148q18 -1 32 -1.5t26 -0.5q27 0 56.5 7.5t49.5 30.5l-233 476h200l128 -285l110 285h197zM648 880l-127 -156h-114l64 186h177v-30zM409 880l-127 -156h-114l64 186h177v-30z" />
    <glyph glyph-name="uni04F3" unicode="&#x4f3;" horiz-adv-x="572" 
d="M576 750l-127 -176h-114l64 206h177v-30zM357 750l-127 -176h-114l64 206h177v-30zM335 -27q-38 -84 -89 -124.5t-129 -40.5q-24 0 -49 3.5t-47 8.5v144q18 -1 32 -1.5t26 -0.5q30 0 55 10t43 49l8 17l-183 462h183l95 -281l108 281h182z" />
    <glyph glyph-name="uni2009" unicode="&#x2009;" horiz-adv-x="148" 
 />
    <glyph glyph-name="endash" unicode="&#x2013;" horiz-adv-x="500" 
d="M470 253h-440v144h440v-144z" />
    <glyph glyph-name="emdash" unicode="&#x2014;" horiz-adv-x="1000" 
d="M950 253h-900v144h900v-144z" />
    <glyph glyph-name="uni2015" unicode="&#x2015;" horiz-adv-x="1000" 
d="M950 253h-900v144h900v-144z" />
    <glyph glyph-name="quoteleft" unicode="&#x2018;" horiz-adv-x="315" 
d="M239 368h-195l65 292h130v-292z" />
    <glyph glyph-name="quoteright" unicode="&#x2019;" horiz-adv-x="315" 
d="M206 368h-130v292h195z" />
    <glyph glyph-name="quotesinglbase" unicode="&#x201a;" horiz-adv-x="315" 
d="M206 -147h-130v292h195z" />
    <glyph glyph-name="quotedblleft" unicode="&#x201c;" horiz-adv-x="587" 
d="M239 368h-195l65 292h130v-292zM511 368h-195l65 292h130v-292z" />
    <glyph glyph-name="quotedblright" unicode="&#x201d;" horiz-adv-x="587" 
d="M478 368h-130v292h195zM206 368h-130v292h195z" />
    <glyph glyph-name="quotedblbase" unicode="&#x201e;" horiz-adv-x="587" 
d="M206 -147h-130v292h195zM478 -147h-130v292h195z" />
    <glyph glyph-name="dagger" unicode="&#x2020;" horiz-adv-x="504" 
d="M338 597h129v-144h-129v-255h-172v255h-129v144h129v153h172v-153z" />
    <glyph glyph-name="daggerdbl" unicode="&#x2021;" horiz-adv-x="504" 
d="M338 627h129v-144h-129v-121h129v-144h-129v-123h-172v123h-129v144h129v121h-129v144h129v123h172v-123z" />
    <glyph glyph-name="bullet" unicode="&#x2022;" horiz-adv-x="459" 
d="M230 451q39 0 72 -13.5t57.5 -37.5t38.5 -56.5t14 -69.5t-14 -69.5t-38.5 -56.5t-57.5 -37.5t-72 -13.5q-38 0 -71.5 13.5t-58.5 37.5t-39 56.5t-14 69.5t14 69.5t39 56.5t58.5 37.5t71.5 13.5z" />
    <glyph glyph-name="ellipsis" unicode="&#x2026;" horiz-adv-x="800" 
d="M402 212q24 0 44.5 -9t35 -24t23 -35.5t8.5 -43.5q0 -24 -8.5 -44.5t-23 -35.5t-35 -23.5t-44.5 -8.5q-51 0 -82.5 32t-31.5 80q0 47 31.5 79.5t82.5 32.5zM137 212q24 0 44.5 -9t35 -24t23 -35.5t8.5 -43.5q0 -24 -8.5 -44.5t-23 -35.5t-35 -23.5t-44.5 -8.5
q-51 0 -82.5 32t-31.5 80q0 47 31.5 79.5t82.5 32.5zM667 212q24 0 44.5 -9t35 -24t23 -35.5t8.5 -43.5q0 -24 -8.5 -44.5t-23 -35.5t-35 -23.5t-44.5 -8.5q-51 0 -82.5 32t-31.5 80q0 47 31.5 79.5t82.5 32.5z" />
    <glyph glyph-name="perthousand" unicode="&#x2030;" horiz-adv-x="1226" 
d="M1014 323q36 0 68 -12.5t55.5 -35t37.5 -52.5t14 -66t-14 -66.5t-37.5 -53t-55.5 -35t-68 -12.5t-68 12.5t-56 35t-37.5 53t-13.5 66.5t13.5 66t37.5 52.5t56 35t68 12.5zM1015 207q-22 0 -34 -13.5t-12 -36.5t12 -36.5t34 -13.5q19 0 31.5 13.5t12.5 36.5t-12.5 36.5
t-31.5 13.5zM634 322q36 0 68 -12.5t55.5 -35t37.5 -52.5t14 -66t-14 -66.5t-37.5 -53t-55.5 -35t-68 -12.5t-68 12.5t-56 35t-37.5 53t-13.5 66.5t13.5 66t37.5 52.5t56 35t68 12.5zM635 206q-22 0 -34 -13.5t-12 -36.5t12 -36.5t34 -13.5q19 0 31.5 13.5t12.5 36.5
t-12.5 36.5t-31.5 13.5zM211 672q36 0 68 -12.5t55.5 -35t37.5 -52.5t14 -66t-14 -66.5t-37.5 -53t-55.5 -35t-68 -12.5t-68 12.5t-56 35t-37.5 53t-13.5 66.5t13.5 66t37.5 52.5t56 35t68 12.5zM212 556q-22 0 -34 -13.5t-12 -36.5t12 -36.5t34 -13.5q19 0 31.5 13.5
t12.5 36.5t-12.5 36.5t-31.5 13.5zM299 0h-134l381 660h135z" />
    <glyph glyph-name="minute" unicode="&#x2032;" horiz-adv-x="315" 
d="M195 368h-130l32 292h195z" />
    <glyph glyph-name="second" unicode="&#x2033;" horiz-adv-x="587" 
d="M195 368h-130l32 292h195zM467 368h-130l32 292h195z" />
    <glyph glyph-name="guilsinglleft" unicode="&#x2039;" horiz-adv-x="363" 
d="M338 424l-130 -150l130 -150l-109 -95l-206 222v45l206 223z" />
    <glyph glyph-name="guilsinglright" unicode="&#x203a;" horiz-adv-x="363" 
d="M340 296v-45l-206 -222l-109 95l130 150l-130 150l109 95z" />
    <glyph glyph-name="fraction" unicode="&#x2044;" horiz-adv-x="260" 
d="M6 0h-134l381 660h135z" />
    <glyph glyph-name="uni2070" unicode="&#x2070;" horiz-adv-x="429" 
d="M214 788q45 0 78 -16.5t55.5 -45t33.5 -67.5t11 -84q0 -46 -11 -86t-33.5 -69.5t-56 -46.5t-77.5 -17t-77.5 17t-55.5 46.5t-33 69.5t-11 86q0 45 11 84t33 67.5t55.5 45t77.5 16.5zM214 676q-26 0 -39 -22.5t-13 -79.5t13 -81.5t39 -24.5t39.5 24.5t13.5 81.5
t-13.5 79.5t-39.5 22.5z" />
    <glyph glyph-name="uni2074" unicode="&#x2074;" horiz-adv-x="387" 
d="M336 522h45v-100h-45v-58h-112v58h-215v32l121 326h126l-97 -258h65v95h112v-95z" />
    <glyph glyph-name="uni2075" unicode="&#x2075;" horiz-adv-x="373" 
d="M322 670h-152v-33q16 4 35 4q24 0 49 -9t44.5 -26.5t32 -42.5t12.5 -57t-13 -59.5t-35.5 -47.5t-54 -31.5t-67.5 -11.5q-58 0 -101.5 27.5t-64.5 75.5l84 59q19 -28 36 -39t40 -11q21 0 36 8.5t15 27.5q0 18 -15.5 25.5t-48.5 7.5h-100v243h268v-110z" />
    <glyph glyph-name="uni2076" unicode="&#x2076;" horiz-adv-x="374" 
d="M235 658q21 -5 42 -17t37.5 -30.5t26.5 -43t10 -54.5q0 -35 -14 -64t-36.5 -49.5t-52.5 -32t-61 -11.5q-32 0 -61.5 11.5t-52.5 32.5t-36.5 50t-13.5 65q0 35 14.5 63.5t42.5 64.5l104 137h143zM187 558q-18 0 -31 -12.5t-13 -32.5t13 -32.5t31 -12.5t31 12.5t13 32.5
t-13 32.5t-31 12.5z" />
    <glyph glyph-name="uni2077" unicode="&#x2077;" horiz-adv-x="358" 
d="M342 748l-169 -384h-132l140 306h-145v110h306v-32z" />
    <glyph glyph-name="uni2078" unicode="&#x2078;" horiz-adv-x="392" 
d="M196 788q31 0 58.5 -7.5t47 -22.5t31 -37t11.5 -50q0 -31 -13 -53.5t-36 -39.5q67 -31 67 -98q0 -30 -13 -53t-35.5 -38.5t-52.5 -24t-65 -8.5t-65 8.5t-52.5 24t-35.5 38.5t-13 53q0 67 67 98q-23 17 -36 40t-13 53q0 28 11.5 50t31 37t46.5 22.5t59 7.5zM241 485
q0 15 -12 25t-34 18q-21 -8 -33 -18t-12 -25q0 -14 10.5 -23t35.5 -9q24 0 34.5 9t10.5 23zM196 692q-15 0 -26 -7t-11 -20q0 -12 10 -20.5t27 -17.5q17 9 27 17.5t10 20.5q0 13 -11 20t-26 7z" />
    <glyph glyph-name="uni2079" unicode="&#x2079;" horiz-adv-x="374" 
d="M187 788q32 0 61.5 -11.5t52.5 -32.5t36.5 -50t13.5 -65q0 -35 -14.5 -63.5t-42.5 -64.5l-104 -137h-143l92 122q-21 4 -42 16t-37.5 30.5t-26.5 43.5t-10 55q0 35 14 64t36.5 49.5t52 32t61.5 11.5zM187 676q-18 0 -31 -12.5t-13 -32.5t13 -32.5t31 -12.5t31 12.5
t13 32.5t-13 32.5t-31 12.5z" />
    <glyph glyph-name="uni207A" unicode="&#x207a;" horiz-adv-x="427" 
d="M273 625h125v-106h-125v-129h-119v129h-125v106h125v129h119v-129z" />
    <glyph glyph-name="uni207B" unicode="&#x207b;" horiz-adv-x="427" 
d="M398 519h-369v106h369v-106z" />
    <glyph glyph-name="uni207C" unicode="&#x207c;" horiz-adv-x="427" 
d="M37 709h353v-106h-353v106zM37 543h353v-107h-353v107z" />
    <glyph glyph-name="uni207D" unicode="&#x207d;" horiz-adv-x="289" 
d="M271 831q-24 -16 -45.5 -38.5t-38 -53.5t-26 -72t-9.5 -95t9.5 -95.5t26 -72.5t38 -53.5t45.5 -38.5l-49 -72q-36 15 -68 43t-56 69t-38 96t-14 124t14 124t38 96t56 68.5t68 43.5z" />
    <glyph glyph-name="uni207E" unicode="&#x207e;" horiz-adv-x="289" 
d="M67 904q36 -16 68 -43.5t56 -68.5t38 -96t14 -124t-14 -124t-38 -96t-56 -69t-68 -43l-49 72q24 16 45.5 38.5t38 53.5t26 72.5t9.5 95.5t-9.5 95t-26 72t-38 53.5t-45.5 38.5z" />
    <glyph glyph-name="uni2080" unicode="&#x2080;" horiz-adv-x="429" 
d="M214 305q45 0 78 -16.5t55.5 -45t33.5 -67.5t11 -84q0 -46 -11 -86t-33.5 -69.5t-56 -46.5t-77.5 -17t-77.5 17t-55.5 46.5t-33 69.5t-11 86q0 45 11 84t33 67.5t55.5 45t77.5 16.5zM214 193q-26 0 -39 -22.5t-13 -79.5t13 -81.5t39 -24.5t39.5 24.5t13.5 81.5
t-13.5 79.5t-39.5 22.5z" />
    <glyph glyph-name="uni2081" unicode="&#x2081;" horiz-adv-x="382" 
d="M263 -9h83v-110h-307v110h102v196h-91v110h213v-306z" />
    <glyph glyph-name="uni2082" unicode="&#x2082;" horiz-adv-x="395" 
d="M193 305q33 0 62 -10.5t50.5 -29t33.5 -44t12 -56.5q0 -47 -27 -87t-64 -80l-7 -7h104v-110l-325 -1v25l149 164q26 29 35.5 48.5t9.5 36.5q0 20 -10 29.5t-25 9.5q-14 0 -24 -9t-10 -32q0 -5 0.5 -11.5t1.5 -15.5h-122q-2 10 -3 18.5t-1 16.5q0 27 11 53t32 46.5
t50.5 33t66.5 12.5z" />
    <glyph glyph-name="uni2083" unicode="&#x2083;" horiz-adv-x="364" 
d="M329 265l-77 -119q32 -14 57 -45.5t25 -79.5q0 -32 -12.5 -59t-35 -46.5t-53 -31t-65.5 -11.5q-57 0 -99 27.5t-63 75.5l84 59q18 -28 34.5 -39t38.5 -11q20 0 33 8.5t13 27.5q0 18 -15.5 25.5t-48.5 7.5h-53v30l66 103h-117v110h288v-32z" />
    <glyph glyph-name="uni2084" unicode="&#x2084;" horiz-adv-x="387" 
d="M336 39h45v-100h-45v-58h-112v58h-215v32l121 326h126l-97 -258h65v95h112v-95z" />
    <glyph glyph-name="uni2085" unicode="&#x2085;" horiz-adv-x="373" 
d="M322 187h-152v-33q16 4 35 4q24 0 49 -9t44.5 -26.5t32 -42.5t12.5 -57t-13 -59.5t-35.5 -47.5t-54 -31.5t-67.5 -11.5q-58 0 -101.5 27.5t-64.5 75.5l84 59q19 -28 36 -39t40 -11q21 0 36 8.5t15 27.5q0 18 -15.5 25.5t-48.5 7.5h-100v243h268v-110z" />
    <glyph glyph-name="uni2086" unicode="&#x2086;" horiz-adv-x="374" 
d="M235 175q21 -5 42 -17t37.5 -30.5t26.5 -43t10 -54.5q0 -35 -14 -64t-36.5 -49.5t-52.5 -32t-61 -11.5q-32 0 -61.5 11.5t-52.5 32.5t-36.5 50t-13.5 65q0 35 14.5 63.5t42.5 64.5l104 137h143zM187 75q-18 0 -31 -12.5t-13 -32.5t13 -32.5t31 -12.5t31 12.5t13 32.5
t-13 32.5t-31 12.5z" />
    <glyph glyph-name="uni2087" unicode="&#x2087;" horiz-adv-x="358" 
d="M342 265l-169 -384h-132l140 306h-145v110h306v-32z" />
    <glyph glyph-name="uni2088" unicode="&#x2088;" horiz-adv-x="392" 
d="M196 305q31 0 58.5 -7.5t47 -22.5t31 -37t11.5 -50q0 -31 -13 -53.5t-36 -39.5q67 -31 67 -98q0 -30 -13 -53t-35.5 -38.5t-52.5 -24t-65 -8.5t-65 8.5t-52.5 24t-35.5 38.5t-13 53q0 67 67 98q-23 17 -36 40t-13 53q0 28 11.5 50t31 37t46.5 22.5t59 7.5zM241 2
q0 15 -12 25t-34 18q-21 -8 -33 -18t-12 -25q0 -14 10.5 -23t35.5 -9q24 0 34.5 9t10.5 23zM196 209q-15 0 -26 -7t-11 -20q0 -12 10 -20.5t27 -17.5q17 9 27 17.5t10 20.5q0 13 -11 20t-26 7z" />
    <glyph glyph-name="uni2089" unicode="&#x2089;" horiz-adv-x="374" 
d="M187 305q32 0 61.5 -11.5t52.5 -32.5t36.5 -50t13.5 -65q0 -35 -14.5 -63.5t-42.5 -64.5l-104 -137h-143l92 122q-21 4 -42 16t-37.5 30.5t-26.5 43.5t-10 55q0 35 14 64t36.5 49.5t52 32t61.5 11.5zM187 193q-18 0 -31 -12.5t-13 -32.5t13 -32.5t31 -12.5t31 12.5
t13 32.5t-13 32.5t-31 12.5z" />
    <glyph glyph-name="uni208A" unicode="&#x208a;" horiz-adv-x="427" 
d="M273 141h125v-106h-125v-129h-119v129h-125v106h125v129h119v-129z" />
    <glyph glyph-name="uni208B" unicode="&#x208b;" horiz-adv-x="425" 
d="M398 35h-369v106h369v-106z" />
    <glyph glyph-name="uni208C" unicode="&#x208c;" horiz-adv-x="427" 
d="M37 225h353v-106h-353v106zM37 59h353v-107h-353v107z" />
    <glyph glyph-name="uni208D" unicode="&#x208d;" horiz-adv-x="289" 
d="M271 347q-24 -16 -45.5 -38.5t-38 -53.5t-26 -72t-9.5 -95t9.5 -95.5t26 -72.5t38 -53.5t45.5 -38.5l-49 -72q-36 15 -68 43t-56 69t-38 96t-14 124t14 124t38 96t56 68.5t68 43.5z" />
    <glyph glyph-name="uni208E" unicode="&#x208e;" horiz-adv-x="289" 
d="M67 420q36 -16 68 -43.5t56 -68.5t38 -96t14 -124t-14 -124t-38 -96t-56 -69t-68 -43l-49 72q24 16 45.5 38.5t38 53.5t26 72.5t9.5 95.5t-9.5 95t-26 72t-38 53.5t-45.5 38.5z" />
    <glyph glyph-name="lira" unicode="&#x20a4;" horiz-adv-x="595" 
d="M421 166h-96q-4 -16 -14 -32h241v-134h-520v35q45 35 75.5 66t44.5 65h-110v104h113q-4 11 -9 22t-11 22h-93v104h46q-6 22 -6 51q0 47 18.5 84.5t50 64t74.5 40.5t92 14q43 0 82 -11.5t70.5 -35t55.5 -60t37 -85.5l-141 -51q-27 85 -92 85q-34 0 -53.5 -20.5
t-19.5 -54.5v-11t2 -10h163v-104h-112q12 -20 19 -44h93v-104z" />
    <glyph glyph-name="peseta" unicode="&#x20a7;" horiz-adv-x="649" 
d="M649 331h-76q-11 -46 -37.5 -82.5t-64 -62t-84.5 -39.5t-101 -14h-28v-133h-172v331h-76v134h76v195h200q54 0 101 -13.5t84.5 -38.5t63.5 -61.5t37 -81.5h77v-134zM287 273q42 0 74 16t46 53h-149v-69h29zM258 520v-66h148q-14 35 -45.5 50.5t-73.5 15.5h-29z" />
    <glyph glyph-name="Euro" unicode="&#x20ac;" horiz-adv-x="673" 
d="M402 192h-114q38 -46 104 -46q43 0 76.5 19.5t53.5 47.5l119 -91q-33 -61 -100 -97.5t-154 -36.5q-54 0 -100.5 14.5t-83.5 41.5t-65 64.5t-44 83.5h-94v114h70v25v19h-70v114h92q16 46 43.5 84.5t65 66t84.5 42.5t102 15q87 0 154 -36.5t100 -97.5l-119 -91
q-20 28 -53.5 47.5t-76.5 19.5q-68 0 -107 -50h193l-32 -114h-200v-20v-12.5t1 -11.5h187z" />
    <glyph glyph-name="uni20AE" unicode="&#x20ae;" horiz-adv-x="588" 
d="M527 156l-147 -36v-120h-172v77l-147 -36v139l147 36v44l-147 -36v139l147 36v106h-198v155h568v-155h-198v-63l147 36v-139l-147 -36v-44l147 36v-139z" />
    <glyph glyph-name="uni20B4" unicode="&#x20b4;" horiz-adv-x="540" 
d="M539 192h-331q0 -26 17 -36t49 -10q29 0 71 8.5t85 31.5l72 -122q-56 -45 -116.5 -60.5t-111.5 -15.5q-112 0 -176.5 53.5t-65.5 150.5h-32v114h539v-114zM259 672q52 0 94.5 -14t73 -40t47 -62t16.5 -81v-11h49v-114h-539v114h313q1 3 1 10q0 21 -15 30.5t-41 9.5
q-27 0 -59 -10.5t-61 -30.5l-82 118q23 24 48.5 40t52 25t52.5 12.5t50 3.5z" />
    <glyph glyph-name="uni20B8" unicode="&#x20b8;" horiz-adv-x="588" 
d="M578 306h-198v-306h-172v306h-198v155h568v-155zM578 505h-568v155h568v-155z" />
    <glyph glyph-name="uni20B9" unicode="&#x20b9;" horiz-adv-x="552" 
d="M479 378h-77q-13 -57 -49 -95.5t-91 -58.5l217 -224h-214l-198 205v124h68q61 0 86 49h-154v114h154q-25 48 -86 48h-68v120h412v-114h-98q13 -24 21 -54h77v-114z" />
    <glyph glyph-name="uni20BA" unicode="&#x20ba;" horiz-adv-x="551" 
d="M410 336l-157 -72v-113q59 10 94.5 37.5t35.5 75.5v20t-1 20h140q7 -24 7 -55q0 -136 -114.5 -198.5t-333.5 -62.5v198l-77 -35v139l77 35v44l-77 -35v139l77 35v152h172v-74l157 72v-139l-157 -72v-44l157 72v-139z" />
    <glyph glyph-name="uni20BD" unicode="&#x20bd;" horiz-adv-x="613" 
d="M359 660q46 0 86.5 -13t70.5 -38t47.5 -62.5t17.5 -85.5q0 -49 -17.5 -86.5t-48 -63t-71 -38.5t-85.5 -13h-101v-44h244v-134h-244v-82h-172v82h-76v134h76v44h-76v144h76v256h273zM258 516v-112h88q22 0 41 13t19 42t-18.5 43t-41.5 14h-88z" />
    <glyph glyph-name="uni2105" unicode="&#x2105;" horiz-adv-x="845" 
d="M299 0h-134l381 660h135zM212 672q52 0 89 -24t56 -65l-90 -62q-10 16 -22 25.5t-32 9.5q-23 0 -35 -13.5t-12 -36.5t12 -36.5t35 -13.5q20 0 32 9.5t22 24.5l90 -61q-19 -41 -56 -65.5t-89 -24.5q-37 0 -69 12.5t-56 35t-37.5 53t-13.5 66.5t13.5 66t37.5 52.5t56 35
t69 12.5zM634 321q36 0 68 -12.5t55.5 -35t37.5 -52.5t14 -66t-14 -66.5t-37.5 -53t-55.5 -35t-68 -12.5t-68 12.5t-56 35t-37.5 53t-13.5 66.5t13.5 66t37.5 52.5t56 35t68 12.5zM634 204q-22 0 -34.5 -13.5t-12.5 -36.5t12.5 -36t34.5 -13t34.5 13t12.5 36t-12.5 36.5
t-34.5 13.5z" />
    <glyph glyph-name="uni2113" unicode="&#x2113;" horiz-adv-x="544" 
d="M327 762q89 0 138 -46t49 -146q0 -47 -12.5 -88t-39.5 -80t-70.5 -78t-106.5 -82v-28q0 -40 21.5 -56t63.5 -16q22 0 48.5 3t56.5 6v-144q-31 -8 -66 -13.5t-73 -5.5q-92 0 -147.5 36.5t-70.5 112.5l-55 -32l-73 135l123 76v213q0 61 15.5 105t43.5 72.5t67.5 42
t87.5 13.5zM285 432q24 19 39.5 35t25.5 32t14 31.5t4 32.5q0 29 -9.5 42t-26.5 13q-21 0 -34 -19t-13 -63v-104z" />
    <glyph glyph-name="uni2116" unicode="&#x2116;" horiz-adv-x="1121" 
d="M479 329v331h172v-672h-55l-358 347v-335h-172v672h55zM915 569q36 0 68 -12.5t55.5 -35t37.5 -52.5t14 -66t-14 -66.5t-37.5 -53t-55.5 -35t-68 -12.5t-68 12.5t-56 35t-37.5 53t-13.5 66.5t13.5 66t37.5 52.5t56 35t68 12.5zM1079 70h-328v104h328v-104zM915 453
q-22 0 -34.5 -13.5t-12.5 -36.5t12.5 -36.5t34.5 -13.5t34.5 13.5t12.5 36.5t-12.5 36.5t-34.5 13.5z" />
    <glyph glyph-name="uni2117" unicode="&#x2117;" horiz-adv-x="776" 
d="M387 672q72 0 136.5 -26t113.5 -72t78 -108.5t29 -135.5t-29 -135.5t-78 -108.5t-113.5 -72t-136.5 -26q-71 0 -135.5 26t-113.5 71.5t-77.5 108t-28.5 135.5t29 136t77.5 109t113 72t135.5 26zM386 576q-48 0 -92.5 -16.5t-79.5 -48t-56 -77.5t-21 -105t21 -105t56 -77
t80 -47t92 -16t92.5 16t81 47t57.5 77t22 105t-21.5 105t-57 77.5t-81 48t-93.5 16.5zM413 505q31 0 57.5 -8.5t46.5 -25t31.5 -40t11.5 -53.5t-11.5 -53.5t-31.5 -40t-46.5 -25t-57.5 -8.5h-41v-95h-107v349h148zM372 412v-67h41q17 0 27 8.5t10 24.5t-10 25t-27 9h-41z
" />
    <glyph glyph-name="trademark" unicode="&#x2122;" horiz-adv-x="1000" 
d="M934 211h-141v143l-74 -86h-44l-73 85v-142h-142v457h45l193 -226l192 226h44v-457zM403 532h-126v-321h-141v321h-126v128h393v-128z" />
    <glyph glyph-name="uni2126" unicode="&#x2126;" horiz-adv-x="786" 
d="M392 672q74 0 139 -25t113.5 -69t76.5 -103t28 -126q0 -64 -24 -111t-66 -83h80v-155h-294v155q58 28 93 74.5t35 110.5q0 39 -13.5 71t-37.5 55t-57.5 35.5t-73.5 12.5q-39 0 -71.5 -12t-56 -34t-37 -54t-13.5 -72q0 -65 34 -111.5t94 -75.5v-155h-294v155h72
q-38 37 -60 84.5t-22 109.5q0 67 28 126t76 103t112.5 69t138.5 25z" />
    <glyph glyph-name="estimated" unicode="&#x212e;" horiz-adv-x="795" 
d="M402 670q60 0 120 -20.5t107 -58.5t76.5 -91.5t29.5 -118.5q0 -11 -0.5 -20t-1.5 -17q-1 -9 -2 -17h-544v-195q34 -47 88.5 -75.5t130.5 -28.5q82 0 147 33.5t107 82.5l27 -25q-48 -60 -120 -94.5t-160 -34.5q-75 0 -138.5 26t-110 71.5t-72.5 107t-26 131.5
q0 73 27.5 135.5t74.5 109t109 73t131 26.5zM407 631q-72 0 -128.5 -28t-91.5 -76v-162h421v177q-37 43 -87.5 66t-113.5 23z" />
    <glyph glyph-name="uni2150" unicode="&#x2150;" horiz-adv-x="1000" 
d="M263 354h83v-110h-307v110h102v196h-91v110h213v-306zM388 0h-134l381 660h135zM984 385l-169 -384h-132l140 306h-145v110h306v-32z" />
    <glyph glyph-name="uni2151" unicode="&#x2151;" horiz-adv-x="986" 
d="M263 354h83v-110h-307v110h102v196h-91v110h213v-306zM388 0h-134l381 660h135zM799 425q32 0 61.5 -11.5t52.5 -32.5t36.5 -50t13.5 -65q0 -35 -14.5 -63.5t-42.5 -64.5l-104 -137h-143l92 122q-21 4 -42 16t-37.5 30.5t-26.5 43.5t-10 55q0 35 14 64t36.5 49.5t52 32
t61.5 11.5zM799 313q-18 0 -31 -12.5t-13 -32.5t13 -32.5t31 -12.5t31 12.5t13 32.5t-13 32.5t-31 12.5z" />
    <glyph glyph-name="uni2152" unicode="&#x2152;" horiz-adv-x="1453" 
d="M263 354h83v-110h-307v110h102v196h-91v110h213v-306zM388 0h-134l381 660h135zM1238 425q45 0 78 -16.5t55.5 -45t33.5 -67.5t11 -84q0 -46 -11 -86t-33.5 -69.5t-56 -46.5t-77.5 -17t-77.5 17t-55.5 46.5t-33 69.5t-11 86q0 45 11 84t33 67.5t55.5 45t77.5 16.5z
M1238 313q-26 0 -39 -22.5t-13 -79.5t13 -81.5t39 -24.5t39.5 24.5t13.5 81.5t-13.5 79.5t-39.5 22.5zM905 111h83v-110h-307v110h102v196h-91v110h213v-306z" />
    <glyph glyph-name="uni2153" unicode="&#x2153;" horiz-adv-x="1006" 
d="M263 354h83v-110h-307v110h102v196h-91v110h213v-306zM388 0h-134l381 660h135zM971 385l-77 -119q32 -14 57 -45.5t25 -79.5q0 -32 -12.5 -59t-35 -46.5t-53 -31t-65.5 -11.5q-57 0 -99 27.5t-63 75.5l84 59q18 -28 34.5 -39t38.5 -11q20 0 33 8.5t13 27.5
q0 18 -15.5 25.5t-48.5 7.5h-53v30l66 103h-117v110h288v-32z" />
    <glyph glyph-name="uni2154" unicode="&#x2154;" horiz-adv-x="1019" 
d="M193 668q33 0 62 -10.5t50.5 -29t33.5 -44t12 -56.5q0 -47 -27 -87t-64 -80l-7 -7h104v-110l-325 -1v25l149 164q26 29 35.5 48.5t9.5 36.5q0 20 -10 29.5t-25 9.5q-14 0 -24 -9t-10 -32q0 -5 0.5 -11.5t1.5 -15.5h-122q-2 10 -3 18.5t-1 16.5q0 27 11 53t32 46.5
t50.5 33t66.5 12.5zM401 0h-134l381 660h135zM984 385l-77 -119q32 -14 57 -45.5t25 -79.5q0 -32 -12.5 -59t-35 -46.5t-53 -31t-65.5 -11.5q-57 0 -99 27.5t-63 75.5l84 59q18 -28 34.5 -39t38.5 -11q20 0 33 8.5t13 27.5q0 18 -15.5 25.5t-48.5 7.5h-53v30l66 103h-117
v110h288v-32z" />
    <glyph glyph-name="uni2155" unicode="&#x2155;" horiz-adv-x="1007" 
d="M263 354h83v-110h-307v110h102v196h-91v110h213v-306zM388 0h-134l381 660h135zM956 307h-152v-33q16 4 35 4q24 0 49 -9t44.5 -26.5t32 -42.5t12.5 -57t-13 -59.5t-35.5 -47.5t-54 -31.5t-67.5 -11.5q-58 0 -101.5 27.5t-64.5 75.5l84 59q19 -28 36 -39t40 -11
q21 0 36 8.5t15 27.5q0 18 -15.5 25.5t-48.5 7.5h-100v243h268v-110z" />
    <glyph glyph-name="uni2156" unicode="&#x2156;" horiz-adv-x="1020" 
d="M193 668q33 0 62 -10.5t50.5 -29t33.5 -44t12 -56.5q0 -47 -27 -87t-64 -80l-7 -7h104v-110l-325 -1v25l149 164q26 29 35.5 48.5t9.5 36.5q0 20 -10 29.5t-25 9.5q-14 0 -24 -9t-10 -32q0 -5 0.5 -11.5t1.5 -15.5h-122q-2 10 -3 18.5t-1 16.5q0 27 11 53t32 46.5
t50.5 33t66.5 12.5zM401 0h-134l381 660h135zM969 307h-152v-33q16 4 35 4q24 0 49 -9t44.5 -26.5t32 -42.5t12.5 -57t-13 -59.5t-35.5 -47.5t-54 -31.5t-67.5 -11.5q-58 0 -101.5 27.5t-64.5 75.5l84 59q19 -28 36 -39t40 -11q21 0 36 8.5t15 27.5q0 18 -15.5 25.5
t-48.5 7.5h-100v243h268v-110z" />
    <glyph glyph-name="uni2157" unicode="&#x2157;" horiz-adv-x="954" 
d="M329 628l-77 -119q32 -14 57 -45.5t25 -79.5q0 -32 -12.5 -59t-35 -46.5t-53 -31t-65.5 -11.5q-57 0 -99 27.5t-63 75.5l84 59q18 -28 34.5 -39t38.5 -11q20 0 33 8.5t13 27.5q0 18 -15.5 25.5t-48.5 7.5h-53v30l66 103h-117v110h288v-32zM335 0h-134l381 660h135z
M903 307h-152v-33q16 4 35 4q24 0 49 -9t44.5 -26.5t32 -42.5t12.5 -57t-13 -59.5t-35.5 -47.5t-54 -31.5t-67.5 -11.5q-58 0 -101.5 27.5t-64.5 75.5l84 59q19 -28 36 -39t40 -11q21 0 36 8.5t15 27.5q0 18 -15.5 25.5t-48.5 7.5h-100v243h268v-110z" />
    <glyph glyph-name="uni2158" unicode="&#x2158;" horiz-adv-x="1022" 
d="M336 402h45v-100h-45v-58h-112v58h-215v32l121 326h126l-97 -258h65v95h112v-95zM403 0h-134l381 660h135zM971 307h-152v-33q16 4 35 4q24 0 49 -9t44.5 -26.5t32 -42.5t12.5 -57t-13 -59.5t-35.5 -47.5t-54 -31.5t-67.5 -11.5q-58 0 -101.5 27.5t-64.5 75.5l84 59
q19 -28 36 -39t40 -11q21 0 36 8.5t15 27.5q0 18 -15.5 25.5t-48.5 7.5h-100v243h268v-110z" />
    <glyph glyph-name="uni2159" unicode="&#x2159;" horiz-adv-x="936" 
d="M263 354h83v-110h-307v110h102v196h-91v110h213v-306zM388 0h-134l381 660h135zM797 295q21 -5 42 -17t37.5 -30.5t26.5 -43t10 -54.5q0 -35 -14 -64t-36.5 -49.5t-52.5 -32t-61 -11.5q-32 0 -61.5 11.5t-52.5 32.5t-36.5 50t-13.5 65q0 35 14.5 63.5t42.5 64.5l104 137
h143zM749 195q-18 0 -31 -12.5t-13 -32.5t13 -32.5t31 -12.5t31 12.5t13 32.5t-13 32.5t-31 12.5z" />
    <glyph glyph-name="uni215A" unicode="&#x215a;" horiz-adv-x="892" 
d="M322 550h-152v-33q16 4 35 4q24 0 49 -9t44.5 -26.5t32 -42.5t12.5 -57t-13 -59.5t-35.5 -47.5t-54 -31.5t-67.5 -11.5q-58 0 -101.5 27.5t-64.5 75.5l84 59q19 -28 36 -39t40 -11q21 0 36 8.5t15 27.5q0 18 -15.5 25.5t-48.5 7.5h-100v243h268v-110zM344 0h-134l381 660
h135zM753 295q21 -5 42 -17t37.5 -30.5t26.5 -43t10 -54.5q0 -35 -14 -64t-36.5 -49.5t-52.5 -32t-61 -11.5q-32 0 -61.5 11.5t-52.5 32.5t-36.5 50t-13.5 65q0 35 14.5 63.5t42.5 64.5l104 137h143zM705 195q-18 0 -31 -12.5t-13 -32.5t13 -32.5t31 -12.5t31 12.5t13 32.5
t-13 32.5t-31 12.5z" />
    <glyph glyph-name="oneeighth" unicode="&#x215b;" horiz-adv-x="989" 
d="M263 354h83v-110h-307v110h102v196h-91v110h213v-306zM388 0h-134l381 660h135zM793 425q31 0 58.5 -7.5t47 -22.5t31 -37t11.5 -50q0 -31 -13 -53.5t-36 -39.5q67 -31 67 -98q0 -30 -13 -53t-35.5 -38.5t-52.5 -24t-65 -8.5t-65 8.5t-52.5 24t-35.5 38.5t-13 53
q0 67 67 98q-23 17 -36 40t-13 53q0 28 11.5 50t31 37t46.5 22.5t59 7.5zM838 122q0 15 -12 25t-34 18q-21 -8 -33 -18t-12 -25q0 -14 10.5 -23t35.5 -9q24 0 34.5 9t10.5 23zM793 329q-15 0 -26 -7t-11 -20q0 -12 10 -20.5t27 -17.5q17 9 27 17.5t10 20.5q0 13 -11 20
t-26 7z" />
    <glyph glyph-name="threeeighths" unicode="&#x215c;" horiz-adv-x="936" 
d="M329 628l-77 -119q32 -14 57 -45.5t25 -79.5q0 -32 -12.5 -59t-35 -46.5t-53 -31t-65.5 -11.5q-57 0 -99 27.5t-63 75.5l84 59q18 -28 34.5 -39t38.5 -11q20 0 33 8.5t13 27.5q0 18 -15.5 25.5t-48.5 7.5h-53v30l66 103h-117v110h288v-32zM335 0h-134l381 660h135z
M740 425q31 0 58.5 -7.5t47 -22.5t31 -37t11.5 -50q0 -31 -13 -53.5t-36 -39.5q67 -31 67 -98q0 -30 -13 -53t-35.5 -38.5t-52.5 -24t-65 -8.5t-65 8.5t-52.5 24t-35.5 38.5t-13 53q0 67 67 98q-23 17 -36 40t-13 53q0 28 11.5 50t31 37t46.5 22.5t59 7.5zM785 122
q0 15 -12 25t-34 18q-21 -8 -33 -18t-12 -25q0 -14 10.5 -23t35.5 -9q24 0 34.5 9t10.5 23zM740 329q-15 0 -26 -7t-11 -20q0 -12 10 -20.5t27 -17.5q17 9 27 17.5t10 20.5q0 13 -11 20t-26 7z" />
    <glyph glyph-name="fiveeighths" unicode="&#x215d;" horiz-adv-x="945" 
d="M322 550h-152v-33q16 4 35 4q24 0 49 -9t44.5 -26.5t32 -42.5t12.5 -57t-13 -59.5t-35.5 -47.5t-54 -31.5t-67.5 -11.5q-58 0 -101.5 27.5t-64.5 75.5l84 59q19 -28 36 -39t40 -11q21 0 36 8.5t15 27.5q0 18 -15.5 25.5t-48.5 7.5h-100v243h268v-110zM344 0h-134l381 660
h135zM749 425q31 0 58.5 -7.5t47 -22.5t31 -37t11.5 -50q0 -31 -13 -53.5t-36 -39.5q67 -31 67 -98q0 -30 -13 -53t-35.5 -38.5t-52.5 -24t-65 -8.5t-65 8.5t-52.5 24t-35.5 38.5t-13 53q0 67 67 98q-23 17 -36 40t-13 53q0 28 11.5 50t31 37t46.5 22.5t59 7.5zM794 122
q0 15 -12 25t-34 18q-21 -8 -33 -18t-12 -25q0 -14 10.5 -23t35.5 -9q24 0 34.5 9t10.5 23zM749 329q-15 0 -26 -7t-11 -20q0 -12 10 -20.5t27 -17.5q17 9 27 17.5t10 20.5q0 13 -11 20t-26 7z" />
    <glyph glyph-name="seveneighths" unicode="&#x215e;" horiz-adv-x="867" 
d="M342 628l-169 -384h-132l140 306h-145v110h306v-32zM266 0h-134l381 660h135zM671 425q31 0 58.5 -7.5t47 -22.5t31 -37t11.5 -50q0 -31 -13 -53.5t-36 -39.5q67 -31 67 -98q0 -30 -13 -53t-35.5 -38.5t-52.5 -24t-65 -8.5t-65 8.5t-52.5 24t-35.5 38.5t-13 53
q0 67 67 98q-23 17 -36 40t-13 53q0 28 11.5 50t31 37t46.5 22.5t59 7.5zM716 122q0 15 -12 25t-34 18q-21 -8 -33 -18t-12 -25q0 -14 10.5 -23t35.5 -9q24 0 34.5 9t10.5 23zM671 329q-15 0 -26 -7t-11 -20q0 -12 10 -20.5t27 -17.5q17 9 27 17.5t10 20.5q0 13 -11 20
t-26 7z" />
    <glyph glyph-name="arrowleft" unicode="&#x2190;" horiz-adv-x="650" 
d="M344 253l-67 4l135 -135l-101 -101l-287 287v31l287 287l101 -101l-132 -132l64 4h266v-144h-266z" />
    <glyph glyph-name="arrowup" unicode="&#x2191;" horiz-adv-x="650" 
d="M23 328l286 288h31l287 -288l-102 -101l-127 128l4 -59v-259h-155v259l3 58l-125 -127z" />
    <glyph glyph-name="arrowright" unicode="&#x2192;" horiz-adv-x="650" 
d="M40 397h266l64 -4l-132 132l101 101l287 -287v-31l-287 -287l-101 101l134 135l-66 -4h-266v144z" />
    <glyph glyph-name="arrowdown" unicode="&#x2193;" horiz-adv-x="650" 
d="M23 321l102 101l125 -127l-3 58v259h155v-259l-4 -59l127 128l102 -101l-287 -288h-31z" />
    <glyph glyph-name="arrowboth" unicode="&#x2194;" horiz-adv-x="960" 
d="M412 525l-132 -132l64 4h272l64 -4l-132 132l101 101l287 -287v-31l-287 -287l-101 101l134 135l-66 -4h-272l-67 4l135 -135l-101 -101l-287 287v31l287 287z" />
    <glyph glyph-name="arrowupdn" unicode="&#x2195;" horiz-adv-x="650" 
d="M627 451l-102 -101l-126 127l4 -58v-178l-4 -58l126 127l102 -101l-286 -288h-31l-287 288l102 101l126 -128l-3 59v178l3 59l-126 -128l-102 101l287 288h31z" />
    <glyph glyph-name="arrowupleft" unicode="&#x2196;" horiz-adv-x="650" 
d="M99 520l21 22h418v-144h-197l46 -40l209 -210l-105 -105l-208 209l-35 40v-198h-149v426z" />
    <glyph glyph-name="arrowupright" unicode="&#x2197;" horiz-adv-x="650" 
d="M402 292l-35 -40l-208 -209l-105 105l209 210l46 40h-197v144h418l21 -22v-426h-149v198z" />
    <glyph glyph-name="arrowdownright" unicode="&#x2198;" horiz-adv-x="650" 
d="M112 231h197l-46 40l-209 210l105 105l208 -209l35 -40v198h149v-426l-21 -22h-418v144z" />
    <glyph glyph-name="arrowdownleft" unicode="&#x2199;" horiz-adv-x="650" 
d="M99 109v426h149v-198l35 40l208 209l105 -105l-209 -210l-46 -40h197v-144h-418z" />
    <glyph glyph-name="partialdiff" unicode="&#x2202;" horiz-adv-x="638" 
d="M331 672q65 0 115.5 -22.5t85 -64t52.5 -98.5t18 -126q0 -81 -24 -149t-67 -118t-101.5 -78t-128.5 -28q-47 0 -89 13t-74.5 39.5t-51.5 65t-19 89.5q0 48 17.5 88t50.5 68.5t79.5 44.5t104.5 16q35 0 66.5 -6t59.5 -14q-4 62 -27 93.5t-76 31.5q-38 0 -63 -16t-51 -48
l-107 92q35 57 90.5 92t139.5 35zM294 138q17 0 34.5 5.5t33 18.5t28.5 34.5t22 52.5q-29 8 -56.5 11.5t-47.5 3.5q-48 0 -66.5 -18t-18.5 -44t18 -45t53 -19z" />
    <glyph glyph-name="uni2206" unicode="&#x2206;" horiz-adv-x="659" 
d="M657 0h-655l300 672h55zM255 155h150l-75 170z" />
    <glyph glyph-name="product" unicode="&#x220f;" horiz-adv-x="707" 
d="M641 -121h-172v626h-231v-626h-172v781h575v-781z" />
    <glyph glyph-name="summation" unicode="&#x2211;" horiz-adv-x="566" 
d="M513 505h-233l116 -206v-36l-120 -229h249v-155h-510v36l193 365l-193 344v36h498v-155z" />
    <glyph glyph-name="minus" unicode="&#x2212;" 
d="M523 252h-487v144h487v-144z" />
    <glyph glyph-name="uni2219" unicode="&#x2219;" horiz-adv-x="270" 
d="M137 436q24 0 44.5 -9t35 -24t23 -35.5t8.5 -43.5q0 -24 -8.5 -44.5t-23 -35.5t-35 -23.5t-44.5 -8.5q-51 0 -82.5 32t-31.5 80q0 47 31.5 79.5t82.5 32.5z" />
    <glyph glyph-name="radical" unicode="&#x221a;" horiz-adv-x="735" 
d="M222 -133h-55v290h-167v134h297v-41l291 500h147z" />
    <glyph glyph-name="infinity" unicode="&#x221e;" horiz-adv-x="912" 
d="M233 542q38 0 70 -9.5t59 -25t50 -36.5t43 -43q20 22 43 43t50.5 36.5t59.5 25t70 9.5q54 0 96.5 -18.5t71 -49.5t43.5 -70t15 -81t-15 -81.5t-43.5 -69.5t-70.5 -48.5t-96 -18.5q-39 0 -71 9.5t-59 25.5t-50 37t-43 44q-20 -23 -43 -44t-50 -37t-59 -25.5t-71 -9.5
q-54 0 -96 18.5t-70.5 48.5t-43.5 69.5t-15 81.5t15 81t43.5 70t70.5 49.5t96 18.5zM253 255q35 0 63 19.5t54 50.5q-26 29 -54.5 48t-63.5 19t-57 -17t-22 -49t21.5 -51.5t58.5 -19.5zM660 392q-36 0 -64.5 -19.5t-54.5 -48.5q27 -30 55.5 -49.5t63.5 -19.5q37 0 58 19
t21 51q0 33 -22 50t-57 17z" />
    <glyph glyph-name="integral" unicode="&#x222b;" horiz-adv-x="380" 
d="M287 792q28 0 50.5 -3.5t42.5 -8.5v-144q-17 1 -30 1.5t-21 0.5q-37 0 -60.5 -17.5t-23.5 -65.5q0 -22 5 -58.5t12 -80.5t16 -93t16 -96t12 -89t5 -71q0 -100 -57.5 -150t-160.5 -50q-28 0 -50.5 3.5t-42.5 8.5v144q17 -1 30 -1.5t21 -0.5q37 0 60.5 17.5t23.5 65.5
q0 22 -5 58.5t-12 80.5t-16 93t-16 96t-12 88.5t-5 71.5q0 100 57.5 150t160.5 50z" />
    <glyph glyph-name="approxequal" unicode="&#x2248;" 
d="M151 571q21 0 43 -7t42 -19l84 -51q17 -10 28.5 -15.5t22.5 -5.5q15 0 23 10t8 25v14h128q3 -20 3 -38q0 -38 -11.5 -68.5t-30 -52.5t-43.5 -33.5t-52 -11.5q-21 0 -43 7t-42 19l-84 51q-17 10 -28.5 15.5t-22.5 5.5q-15 0 -23 -10t-8 -25v-14h-128q-3 19 -3 38
q0 38 11.5 68.5t30 52.5t43.5 33.5t52 11.5zM151 332q21 0 43 -7t42 -19l84 -51q17 -10 28.5 -15.5t22.5 -5.5q15 0 23 10t8 25v14h128q3 -20 3 -38q0 -38 -11.5 -68.5t-30 -52.5t-43.5 -33.5t-52 -11.5q-21 0 -43 7t-42 19l-84 51q-17 10 -28.5 15.5t-22.5 5.5
q-15 0 -23 -10t-8 -25v-14h-128q-3 19 -3 38q0 38 11.5 68.5t30 52.5t43.5 33.5t52 11.5z" />
    <glyph glyph-name="notequal" unicode="&#x2260;" 
d="M514 142h-266l-54 -92h-148l54 92h-53v144h138l45 76h-183v144h268l54 92h148l-54 -92h51v-144h-136l-45 -76h181v-144z" />
    <glyph glyph-name="lessequal" unicode="&#x2264;" 
d="M508 438l-188 -66l188 -65v-144l-481 187v45l481 187v-144zM508 0h-467v134h467v-134z" />
    <glyph glyph-name="greaterequal" unicode="&#x2265;" 
d="M531 395v-45l-481 -187v144l188 65l-188 66v144zM517 0h-467v134h467v-134z" />
    <glyph glyph-name="uni24EA" unicode="&#x24ea;" horiz-adv-x="968" 
d="M484 762q90 0 168.5 -34t137 -92.5t92.5 -137.5t34 -168t-34 -168t-92.5 -137.5t-137 -92.5t-168.5 -34t-168.5 34t-137 92.5t-92.5 137t-34 168.5t34 168.5t92.5 137t137 92.5t168.5 34zM484 562q48 0 84.5 -17.5t60.5 -48.5t36 -73t12 -90q0 -50 -12 -93t-36.5 -74.5
t-60.5 -50t-84 -18.5t-84 18.5t-60.5 50t-36.5 74.5t-12 93q0 48 12 90t36.5 73t60.5 48.5t84 17.5zM484 437q-26 0 -39.5 -23t-13.5 -82q0 -60 13.5 -85t39.5 -25t40 25t14 85q0 59 -14 82t-40 23zM484 634q-63 0 -117.5 -22.5t-95 -63t-63.5 -96t-23 -122.5t23 -122.5
t63.5 -96t95 -63t117.5 -22.5t117.5 22.5t95 63t63.5 96.5t23 122t-23 122t-63.5 96.5t-95 63t-117.5 22.5z" />
    <glyph glyph-name="uni24FF" unicode="&#x24ff;" horiz-adv-x="968" 
d="M484 762q90 0 168.5 -34t137 -92.5t92.5 -137.5t34 -168t-34 -168t-92.5 -137.5t-137 -92.5t-168.5 -34t-168.5 34t-137 92.5t-92.5 137t-34 168.5t34 168.5t92.5 137t137 92.5t168.5 34zM484 562q-48 0 -84 -17.5t-60.5 -48.5t-36.5 -73t-12 -90q0 -50 12 -93
t36.5 -74.5t60.5 -50t84 -18.5t84 18.5t60.5 50t36.5 74.5t12 93q0 48 -12 90t-36 73t-60.5 48.5t-84.5 17.5zM484 437q26 0 40 -23t14 -82q0 -60 -14 -85t-40 -25t-39.5 25t-13.5 85q0 59 13.5 82t39.5 23z" />
    <glyph glyph-name="uni25A0" unicode="&#x25a0;" horiz-adv-x="730" 
d="M640 55h-550v550h550v-550z" />
    <glyph glyph-name="uni25A1" unicode="&#x25a1;" horiz-adv-x="730" 
d="M640 55h-550v550h550v-550zM232 466v-272h266v272h-266z" />
    <glyph glyph-name="uni25AA" unicode="&#x25aa;" horiz-adv-x="541" 
d="M461 60h-381v380h381v-380z" />
    <glyph glyph-name="uni25AB" unicode="&#x25ab;" horiz-adv-x="541" 
d="M461 60h-381v380h381v-380zM212 311v-122h117v122h-117z" />
    <glyph glyph-name="uni25B2" unicode="&#x25b2;" horiz-adv-x="730" 
d="M710 73l-10 -18h-670l-10 18l335 587h20z" />
    <glyph glyph-name="uni25B3" unicode="&#x25b3;" horiz-adv-x="730" 
d="M710 73l-10 -18h-670l-10 18l335 587h20zM251 194h228l-114 199z" />
    <glyph glyph-name="uni25B4" unicode="&#x25b4;" horiz-adv-x="528" 
d="M503 78l-10 -18h-458l-10 18l229 401h20z" />
    <glyph glyph-name="uni25B5" unicode="&#x25b5;" horiz-adv-x="528" 
d="M503 78l-10 -18h-458l-10 18l229 401h20zM202 161h124l-62 108z" />
    <glyph glyph-name="uni25B6" unicode="&#x25b6;" horiz-adv-x="645" 
d="M622 340v-20l-514 -332l-18 10v664l18 10z" />
    <glyph glyph-name="uni25B7" unicode="&#x25b7;" horiz-adv-x="645" 
d="M622 340v-20l-514 -332l-18 10v664l18 10zM232 425v-192l148 96z" />
    <glyph glyph-name="uni25B8" unicode="&#x25b8;" horiz-adv-x="480" 
d="M449 261v-20l-351 -226l-18 10v451l18 10z" />
    <glyph glyph-name="uni25B9" unicode="&#x25b9;" horiz-adv-x="480" 
d="M449 261v-20l-351 -226l-18 10v451l18 10zM182 306v-111l87 55z" />
    <glyph glyph-name="uni25BA" unicode="&#x25ba;" horiz-adv-x="961" 
d="M931 340v-20l-823 -332l-18 10v664l18 10z" />
    <glyph glyph-name="uni25BB" unicode="&#x25bb;" horiz-adv-x="961" 
d="M931 340v-20l-823 -332l-18 10v664l18 10zM232 470v-280l345 139z" />
    <glyph glyph-name="uni25BC" unicode="&#x25bc;" horiz-adv-x="730" 
d="M710 587.005l-10 17.998h-670l-10 -17.998l335 -586.965h20z" />
    <glyph glyph-name="uni25BD" unicode="&#x25bd;" horiz-adv-x="730" 
d="M710 587l-335 -587h-20l-335 587l10 18h670zM365 266l114 200h-228z" />
    <glyph glyph-name="uni25BE" unicode="&#x25be;" horiz-adv-x="528" 
d="M503 422l-229 -401h-20l-229 401l10 18h458z" />
    <glyph glyph-name="uni25BF" unicode="&#x25bf;" horiz-adv-x="528" 
d="M503 422l-229 -401h-20l-229 401l10 18h458zM264 230l62 109h-124z" />
    <glyph glyph-name="uni25C0" unicode="&#x25c0;" horiz-adv-x="645" 
d="M555 662v-664l-18 -10l-514 332v20l514 332z" />
    <glyph glyph-name="uni25C1" unicode="&#x25c1;" horiz-adv-x="682" 
d="M60.0381 340v-20l513.969 -332l17.999 10v664l-17.999 10zM450.014 425v-192l-147.99 96z" />
    <glyph glyph-name="uni25C2" unicode="&#x25c2;" horiz-adv-x="480" 
d="M400 476v-451l-18 -10l-351 226v20l351 225z" />
    <glyph glyph-name="uni25C3" unicode="&#x25c3;" horiz-adv-x="480" 
d="M400 476v-451l-18 -10l-351 226v20l351 225zM298 195v111l-87 -56z" />
    <glyph glyph-name="uni25C4" unicode="&#x25c4;" horiz-adv-x="961" 
d="M871 662v-664l-18 -10l-823 332v20l823 332z" />
    <glyph glyph-name="uni25C5" unicode="&#x25c5;" horiz-adv-x="961" 
d="M871 662v-664l-18 -10l-823 332v20l823 332zM729 190v280l-346 -141z" />
    <glyph glyph-name="lozenge" unicode="&#x25ca;" horiz-adv-x="665" 
d="M92 330l213 342h55l213 -342l-213 -342h-55zM334 449l-75 -119l78 -123l71 123z" />
    <glyph glyph-name="uni25CB" unicode="&#x25cb;" horiz-adv-x="775" 
d="M389 659q67 0 127 -26t105 -70.5t71 -104t26 -126.5t-26 -127.5t-71 -106t-105 -72.5t-127 -27q-66 0 -126.5 26.5t-106 72t-72.5 106t-27 127.5t27 126.5t72.5 104.5t105.5 71t127 26zM389 520q-39 0 -73.5 -15t-60.5 -40.5t-41 -60t-15 -73.5q0 -40 15 -75t41 -61.5
t60 -41.5t73 -15t73.5 15.5t60 42t40 61.5t14.5 75q0 39 -14.5 73.5t-40 60t-59.5 40t-73 14.5z" />
    <glyph glyph-name="uni25CF" unicode="&#x25cf;" horiz-adv-x="775" 
d="M389 659q67 0 127 -26t105 -70.5t71 -104t26 -126.5t-26 -127.5t-71 -106t-105 -72.5t-127 -27q-66 0 -126.5 26.5t-106 72t-72.5 106t-27 127.5t27 126.5t72.5 104.5t105.5 71t127 26z" />
    <glyph glyph-name="pointingindexleftwhite" unicode="&#x261c;" horiz-adv-x="1210" 
d="M1161 546l-54 -181l90 -74v-45l-90 -75l54 -180l-41 -28l-238 149q-97 -48 -192 -76t-171 -28q-69 0 -99 22t-30 54q0 21 12 36q-20 8 -32.5 22t-12.5 37q0 30 24 48q-35 16 -35 53q0 19 9 33h-173q-160 0 -160 112q0 33 13.5 54t39 33t62 16t82.5 4q34 0 71.5 -2
t77.5 -5q2 25 12 44t25.5 31.5t34.5 18.5t38 6q20 0 41.5 -6.5t41.5 -19.5l254 -157l32.5 -10t29.5 -10l243 152zM458 217q-7 -2 -7 -9q0 -9 9 -9h128v-79q-20 -3 -43.5 -5.5t-43.5 -2.5h-8q-9 0 -9 -9t9 -9q29 0 71.5 7t90.5 20.5t97 32.5t93 42v142q-55 23 -130 42
t-164 32.5t-189 21t-205 7.5q-31 0 -31 -19t31 -19h86q111 0 191 -3t131 -7v-79h-117q-9 0 -9 -9t9 -9h129v-79h-119zM944 180l85 -52l-26 86l73 54l-73 55l26 85l-85 -52v-176zM507 530q-20 0 -24 -18q49 -6 94 -15l-46 26q-6 3 -11.5 5t-12.5 2z" />
    <glyph glyph-name="pointingindexrightwhite" unicode="&#x261e;" horiz-adv-x="1210" 
d="M341 422l30.5 10l32.5 10l254 157q20 13 41.5 19.5t41.5 6.5q19 0 37.5 -6t34 -18.5t25.5 -31.5t12 -44q41 3 78.5 5t71.5 2q46 0 82.5 -4t62 -16t39 -33t13.5 -54q0 -112 -160 -112h-174q10 -15 10 -33q0 -20 -9.5 -32.5t-25.5 -20.5q11 -8 17.5 -20t6.5 -28
q0 -23 -13 -37t-33 -22q13 -16 13 -36q0 -32 -30 -54t-99 -22q-77 0 -171.5 28t-191.5 76l-238 -149l-41 28l54 180l-90 75v45l90 74l-54 181l41 28zM642 296h129q9 0 9 9t-9 9h-117v79q51 4 131 7t191 3h86q31 0 31 19t-31 19q-105 0 -205 -7.5t-189 -21t-164 -32.5
t-130 -42v-142q43 -23 92.5 -42t97.5 -32.5t90.5 -20.5t71.5 -7q9 0 9 9t-9 9h-8q-20 0 -43.5 2.5t-43.5 5.5v79h128q9 0 9 9q0 7 -7 9h-119v79zM189 128l86 52v176l-86 52l27 -85l-74 -55l74 -54zM641 497q24 5 47.5 8.5t47.5 6.5q-7 18 -24 18q-7 0 -12.5 -2t-11.5 -5z
" />
    <glyph glyph-name="heartsuitwhite" unicode="&#x2661;" horiz-adv-x="860" 
d="M615 672q39 0 74.5 -14t61.5 -40t41.5 -62t15.5 -80q0 -25 -6 -48t-18.5 -47t-33 -50.5t-49.5 -58.5l-259 -284h-24l-259 284q-29 32 -49.5 58.5t-33.5 50.5t-18.5 47t-5.5 48q0 44 15.5 80t41.5 62t61.5 40t74.5 14q66 0 115 -36t70 -92q21 56 70 92t115 36zM574 509
q-20 0 -36.5 -11.5t-29 -30.5t-21 -44.5t-12.5 -53.5h-89q-5 28 -13.5 53.5t-21 44.5t-29 30.5t-36.5 11.5q-22 0 -38 -13.5t-16 -42.5q0 -31 18 -54.5t36 -44.5l144 -165l144 165q18 21 36 44.5t18 54.5q0 29 -16 42.5t-38 13.5z" />
    <glyph glyph-name="heartsuitblack" unicode="&#x2665;" horiz-adv-x="860" 
d="M615 672q39 0 74.5 -14t61.5 -40t41.5 -62t15.5 -80q0 -25 -6 -48t-18.5 -47t-33 -50.5t-49.5 -58.5l-259 -284h-24l-259 284q-29 32 -49.5 58.5t-33.5 50.5t-18.5 47t-5.5 48q0 44 15.5 80t41.5 62t61.5 40t74.5 14q66 0 115 -36t70 -92q21 56 70 92t115 36z" />
    <glyph glyph-name="uni275B" unicode="&#x275b;" horiz-adv-x="622" 
d="M374 670q63 0 113 -19t92 -52l-67 -108q-26 20 -59 32t-71 12q-42 0 -79 -15.5t-64.5 -43t-43.5 -66t-16 -84.5v-18q28 52 79 84t114 32q45 0 84.5 -17t69.5 -47t47 -70t17 -86q0 -44 -16 -83.5t-46.5 -69t-74.5 -46.5t-99 -17q-67 0 -125.5 25t-102 70t-69 106.5
t-25.5 134.5q0 72 25.5 135.5t70.5 110t108 73.5t138 27z" />
    <glyph glyph-name="uni275C" unicode="&#x275c;" horiz-adv-x="622" 
d="M248 -10q-63 0 -113 19t-92 52l67 108q26 -20 59 -32t71 -12q42 0 79 15.5t64.5 43t43.5 66t16 84.5v9t-1 9q-27 -52 -78 -84t-114 -32q-45 0 -84.5 17t-69.5 47t-47 70t-17 86q0 44 16 83.5t46.5 69t74.5 46.5t99 17q67 0 125.5 -25t102 -70t69 -106.5t25.5 -134.5
q0 -72 -25.5 -135.5t-70.5 -110t-108 -73.5t-138 -27z" />
    <glyph glyph-name="uni275D" unicode="&#x275d;" horiz-adv-x="1232" 
d="M984 670q63 0 113 -19t92 -52l-67 -108q-26 20 -59 32t-71 12q-42 0 -79 -15.5t-64.5 -43t-43.5 -66t-16 -84.5v-18q28 52 79 84t114 32q45 0 84.5 -17t69.5 -47t47 -70t17 -86q0 -44 -16 -83.5t-46.5 -69t-74.5 -46.5t-99 -17q-67 0 -125.5 25t-102 70t-69 106.5
t-25.5 134.5q0 72 25.5 135.5t70.5 110t108 73.5t138 27zM374 670q63 0 113 -19t92 -52l-67 -108q-26 20 -59 32t-71 12q-42 0 -79 -15.5t-64.5 -43t-43.5 -66t-16 -84.5v-18q28 52 79 84t114 32q45 0 84.5 -17t69.5 -47t47 -70t17 -86q0 -44 -16 -83.5t-46.5 -69
t-74.5 -46.5t-99 -17q-67 0 -125.5 25t-102 70t-69 106.5t-25.5 134.5q0 72 25.5 135.5t70.5 110t108 73.5t138 27z" />
    <glyph glyph-name="uni275E" unicode="&#x275e;" horiz-adv-x="1242" 
d="M248 -10q-63 0 -113 19t-92 52l67 108q26 -20 59 -32t71 -12q42 0 79 15.5t64.5 43t43.5 66t16 84.5v9t-1 9q-27 -52 -78 -84t-114 -32q-45 0 -84.5 17t-69.5 47t-47 70t-17 86q0 44 16 83.5t46.5 69t74.5 46.5t99 17q67 0 125.5 -25t102 -70t69 -106.5t25.5 -134.5
q0 -72 -25.5 -135.5t-70.5 -110t-108 -73.5t-138 -27zM868 -10q-63 0 -113 19t-92 52l67 108q26 -20 59 -32t71 -12q42 0 79 15.5t64.5 43t43.5 66t16 84.5v9t-1 9q-27 -52 -78 -84t-114 -32q-45 0 -84.5 17t-69.5 47t-47 70t-17 86q0 44 16 83.5t46.5 69t74.5 46.5t99 17
q67 0 125.5 -25t102 -70t69 -106.5t25.5 -134.5q0 -72 -25.5 -135.5t-70.5 -110t-108 -73.5t-138 -27z" />
    <glyph glyph-name="uni2776" unicode="&#x2776;" horiz-adv-x="968" 
d="M484 762q90 0 168.5 -34t137 -92.5t92.5 -137.5t34 -168t-34 -168t-92.5 -137.5t-137 -92.5t-168.5 -34t-168.5 34t-137 92.5t-92.5 137t-34 168.5t34 168.5t92.5 137t137 92.5t168.5 34zM338 554v-114h82v-221h-88v-114h305v114h-80v335h-219z" />
    <glyph glyph-name="uni2777" unicode="&#x2777;" horiz-adv-x="968" 
d="M484 762q90 0 168.5 -34t137 -92.5t92.5 -137.5t34 -168t-34 -168t-92.5 -137.5t-137 -92.5t-168.5 -34t-168.5 34t-137 92.5t-92.5 137t-34 168.5t34 168.5t92.5 137t137 92.5t168.5 34zM482 562q-40 0 -72 -13.5t-55 -35.5t-35.5 -51t-12.5 -60q0 -16 4 -35h124
q-1 8 -1.5 13.5t-0.5 10.5q0 20 11 33t31 13q17 0 28.5 -10t11.5 -31t-12.5 -39.5t-37.5 -47.5l-155 -178v-27h353v115h-118l33 39q31 35 54 70t23 82q0 34 -13.5 62t-36.5 48t-54.5 31t-68.5 11z" />
    <glyph glyph-name="uni2778" unicode="&#x2778;" horiz-adv-x="968" 
d="M484 762q90 0 168.5 -34t137 -92.5t92.5 -137.5t34 -168t-34 -168t-92.5 -137.5t-137 -92.5t-168.5 -34t-168.5 34t-137 92.5t-92.5 137t-34 168.5t34 168.5t92.5 137t137 92.5t168.5 34zM335 554v-124h110l-68 -108v-34h70q34 0 50 -7t16 -25t-13.5 -26t-33.5 -8
q-22 0 -39 11.5t-37 41.5l-94 -66q23 -53 69 -82.5t107 -29.5q39 0 72 12t57 33.5t38 51t14 63.5q0 49 -25.5 83t-61.5 51l81 128v35h-312z" />
    <glyph glyph-name="uni2779" unicode="&#x2779;" horiz-adv-x="968" 
d="M484 762q90 0 168.5 -34t137 -92.5t92.5 -137.5t34 -168t-34 -168t-92.5 -137.5t-137 -92.5t-168.5 -34t-168.5 34t-137 92.5t-92.5 137t-34 168.5t34 168.5t92.5 137t137 92.5t168.5 34zM388 554l-119 -352v-37h225v-60h137v60h48v119h-48v84h-137v-84h-60l100 270h-146
z" />
    <glyph glyph-name="uni277A" unicode="&#x277a;" horiz-adv-x="968" 
d="M484 762q90 0 168.5 -34t137 -92.5t92.5 -137.5t34 -168t-34 -168t-92.5 -137.5t-137 -92.5t-168.5 -34t-168.5 34t-137 92.5t-92.5 137t-34 168.5t34 168.5t92.5 137t137 92.5t168.5 34zM346 554v-266h109q34 0 50 -6.5t16 -24.5q0 -19 -15 -27t-37 -8q-23 0 -41.5 11.5
t-38.5 41.5l-94 -66q23 -53 70 -82.5t110 -29.5q40 0 74.5 12.5t59 34t38.5 51t14 64.5t-13.5 62t-35 46t-48.5 28.5t-53 9.5q-19 0 -35 -4v29h163v124h-293z" />
    <glyph glyph-name="uni277B" unicode="&#x277b;" horiz-adv-x="968" 
d="M484 762q90 0 168.5 -34t137 -92.5t92.5 -137.5t34 -168t-34 -168t-92.5 -137.5t-137 -92.5t-168.5 -34t-168.5 34t-137 92.5t-92.5 137t-34 168.5t34 168.5t92.5 137t137 92.5t168.5 34zM473 312q18 0 31.5 -12t13.5 -32t-13.5 -33t-30.5 -13q-19 0 -31.5 13.5
t-12.5 33.5q0 19 12.5 31t30.5 12zM468 554l-112 -147q-29 -38 -45 -69t-16 -70q0 -38 15 -69.5t39.5 -54t56.5 -35t67 -12.5q34 0 66.5 12.5t58 35t40.5 53.5t15 69q0 49 -23.5 84.5t-57.5 55.5q-10 5 -20.5 9.5t-21.5 6.5l100 131h-162z" />
    <glyph glyph-name="uni277C" unicode="&#x277c;" horiz-adv-x="968" 
d="M484 762q90 0 168.5 -34t137 -92.5t92.5 -137.5t34 -168t-34 -168t-92.5 -137.5t-137 -92.5t-168.5 -34t-168.5 34t-137 92.5t-92.5 137t-34 168.5t34 168.5t92.5 137t137 92.5t168.5 34zM328 554v-124h152l-148 -325h149l180 414v35h-333z" />
    <glyph glyph-name="uni277D" unicode="&#x277d;" horiz-adv-x="968" 
d="M484 762q90 0 168.5 -34t137 -92.5t92.5 -137.5t34 -168t-34 -168t-92.5 -137.5t-137 -92.5t-168.5 -34t-168.5 34t-137 92.5t-92.5 137t-34 168.5t34 168.5t92.5 137t137 92.5t168.5 34zM484 291q21 -9 34 -20t13 -30q0 -17 -11 -27.5t-35 -10.5q-25 0 -36 11t-11 28
q0 18 12.5 29t33.5 20zM485 562q-35 0 -64.5 -8.5t-51 -24.5t-34 -39.5t-12.5 -54.5q0 -32 13.5 -56t38.5 -43q-71 -32 -71 -105q0 -32 14 -57t38.5 -42t57.5 -26t71 -9t71 9t57 26t38 42t14 58q0 72 -71 104q24 19 38 43.5t14 56.5q0 30 -12 53.5t-34 39.5t-51.5 24.5
t-63.5 8.5zM485 456q15 0 25.5 -7.5t10.5 -22.5q0 -14 -10 -23.5t-27 -17.5q-17 8 -26 17t-9 23q0 15 10 23t26 8z" />
    <glyph glyph-name="uni277E" unicode="&#x277e;" horiz-adv-x="968" 
d="M484 762q90 0 168.5 -34t137 -92.5t92.5 -137t34 -168.5t-34 -168.5t-92.5 -137t-137 -92.5t-168.5 -34t-168.5 34t-137 92.5t-92.5 137.5t-34 168t34 168t92.5 137.5t137 92.5t168.5 34zM495 563q-35 0 -67 -12.5t-57.5 -35t-40.5 -53.5t-15 -69q0 -49 23.5 -84.5
t57.5 -55.5q10 -5 20.5 -9.5t21.5 -6.5l-100 -131h162l112 147q29 38 45 69t16 70q0 38 -15 69.5t-39.5 54t-57 35t-66.5 12.5zM494 438q19 0 31.5 -13.5t12.5 -33.5q0 -19 -12.5 -31t-30.5 -12t-31.5 12t-13.5 32t13.5 33t30.5 13z" />
    <glyph glyph-name="uni2780" unicode="&#x2780;" horiz-adv-x="968" 
d="M484 762q90 0 168.5 -34t137 -92.5t92.5 -137.5t34 -168t-34 -168t-92.5 -137.5t-137 -92.5t-168.5 -34t-168.5 34t-137 92.5t-92.5 137t-34 168.5t34 168.5t92.5 137t137 92.5t168.5 34zM484 634q-63 0 -117.5 -22.5t-95 -63t-63.5 -96t-23 -122.5t23 -122.5t63.5 -96
t95 -63t117.5 -22.5t117.5 22.5t95 63t63.5 96.5t23 122t-23 122t-63.5 96.5t-95 63t-117.5 22.5zM557 219h80v-114h-305v114h88v221h-82v114h219v-335z" />
    <glyph glyph-name="uni2781" unicode="&#x2781;" horiz-adv-x="968" 
d="M484 762q90 0 168.5 -34t137 -92.5t92.5 -137.5t34 -168t-34 -168t-92.5 -137.5t-137 -92.5t-168.5 -34t-168.5 34t-137 92.5t-92.5 137t-34 168.5t34 168.5t92.5 137t137 92.5t168.5 34zM484 634q-63 0 -117.5 -22.5t-95 -63t-63.5 -96t-23 -122.5t23 -122.5t63.5 -96
t95 -63t117.5 -22.5t117.5 22.5t95 63t63.5 96.5t23 122t-23 122t-63.5 96.5t-95 63t-117.5 22.5zM482 562q37 0 68.5 -11t54.5 -31t36.5 -48t13.5 -62q0 -47 -23 -82t-54 -70l-33 -39h118v-115h-353v27l155 178q25 29 37.5 47.5t12.5 39.5t-11.5 31t-28.5 10q-20 0 -31 -13
t-11 -33q0 -5 0.5 -10.5t1.5 -13.5h-124q-4 19 -4 35q0 31 12.5 60t35.5 51t55 35.5t72 13.5z" />
    <glyph glyph-name="uni2782" unicode="&#x2782;" horiz-adv-x="968" 
d="M484 762q90 0 168.5 -34t137 -92.5t92.5 -137.5t34 -168t-34 -168t-92.5 -137.5t-137 -92.5t-168.5 -34t-168.5 34t-137 92.5t-92.5 137t-34 168.5t34 168.5t92.5 137t137 92.5t168.5 34zM647 519l-81 -128q36 -17 61.5 -51t25.5 -83q0 -34 -14 -63.5t-38 -51t-57 -33.5
t-72 -12q-61 0 -107 29.5t-69 82.5l94 66q20 -30 37 -41.5t39 -11.5q20 0 33.5 8t13.5 26t-16 25t-50 7h-70v34l68 108h-110v124h312v-35zM484 634q-63 0 -117.5 -22.5t-95 -63t-63.5 -96t-23 -122.5t23 -122.5t63.5 -96t95 -63t117.5 -22.5t117.5 22.5t95 63t63.5 96.5
t23 122t-23 122t-63.5 96.5t-95 63t-117.5 22.5z" />
    <glyph glyph-name="uni2783" unicode="&#x2783;" horiz-adv-x="968" 
d="M484 762q90 0 168.5 -34t137 -92.5t92.5 -137.5t34 -168t-34 -168t-92.5 -137.5t-137 -92.5t-168.5 -34t-168.5 34t-137 92.5t-92.5 137t-34 168.5t34 168.5t92.5 137t137 92.5t168.5 34zM434 284h60v84h137v-84h48v-119h-48v-60h-137v60h-225v37l119 352h146zM484 634
q-63 0 -117.5 -22.5t-95 -63t-63.5 -96t-23 -122.5t23 -122.5t63.5 -96t95 -63t117.5 -22.5t117.5 22.5t95 63t63.5 96.5t23 122t-23 122t-63.5 96.5t-95 63t-117.5 22.5z" />
    <glyph glyph-name="uni2784" unicode="&#x2784;" horiz-adv-x="968" 
d="M484 762q90 0 168.5 -34t137 -92.5t92.5 -137.5t34 -168t-34 -168t-92.5 -137.5t-137 -92.5t-168.5 -34t-168.5 34t-137 92.5t-92.5 137t-34 168.5t34 168.5t92.5 137t137 92.5t168.5 34zM640 430h-163v-29q16 4 35 4q26 0 53 -9.5t48.5 -28.5t35 -46t13.5 -62t-14 -64.5
t-38.5 -51t-59 -34t-74.5 -12.5q-63 0 -110 29.5t-70 82.5l94 66q20 -30 38.5 -41.5t41.5 -11.5q22 0 37 8t15 27q0 18 -16 24.5t-50 6.5h-109v266h293v-124zM484 634q-63 0 -117.5 -22.5t-95 -63t-63.5 -96t-23 -122.5t23 -122.5t63.5 -96t95 -63t117.5 -22.5t117.5 22.5
t95 63t63.5 96.5t23 122t-23 122t-63.5 96.5t-95 63t-117.5 22.5z" />
    <glyph glyph-name="uni2785" unicode="&#x2785;" horiz-adv-x="968" 
d="M484 762q90 0 168.5 -34t137 -92.5t92.5 -137.5t34 -168t-34 -168t-92.5 -137.5t-137 -92.5t-168.5 -34t-168.5 34t-137 92.5t-92.5 137t-34 168.5t34 168.5t92.5 137t137 92.5t168.5 34zM473 312q-18 0 -30.5 -12t-12.5 -31q0 -20 12.5 -33.5t31.5 -13.5q17 0 30.5 13
t13.5 33t-13.5 32t-31.5 12zM530 423q11 -2 21.5 -6.5t20.5 -9.5q34 -20 57.5 -55.5t23.5 -84.5q0 -38 -15 -69t-40.5 -53.5t-58 -35t-66.5 -12.5q-35 0 -67 12.5t-56.5 35t-39.5 54t-15 69.5q0 39 16 70t45 69l112 147h162zM484 634q-63 0 -117.5 -22.5t-95 -63t-63.5 -96
t-23 -122.5t23 -122.5t63.5 -96t95 -63t117.5 -22.5t117.5 22.5t95 63t63.5 96.5t23 122t-23 122t-63.5 96.5t-95 63t-117.5 22.5z" />
    <glyph glyph-name="uni2786" unicode="&#x2786;" horiz-adv-x="968" 
d="M484 762q90 0 168.5 -34t137 -92.5t92.5 -137.5t34 -168t-34 -168t-92.5 -137.5t-137 -92.5t-168.5 -34t-168.5 34t-137 92.5t-92.5 137t-34 168.5t34 168.5t92.5 137t137 92.5t168.5 34zM484 634q-63 0 -117.5 -22.5t-95 -63t-63.5 -96t-23 -122.5t23 -122.5t63.5 -96
t95 -63t117.5 -22.5t117.5 22.5t95 63t63.5 96.5t23 122t-23 122t-63.5 96.5t-95 63t-117.5 22.5zM661 519l-180 -414h-149l148 325h-152v124h333v-35z" />
    <glyph glyph-name="uni2787" unicode="&#x2787;" horiz-adv-x="968" 
d="M484 762q90 0 168.5 -34t137 -92.5t92.5 -137.5t34 -168t-34 -168t-92.5 -137.5t-137 -92.5t-168.5 -34t-168.5 34t-137 92.5t-92.5 137t-34 168.5t34 168.5t92.5 137t137 92.5t168.5 34zM484 291q-21 -9 -33.5 -20t-12.5 -29q0 -17 11 -28t36 -11q24 0 35 10.5t11 27.5
q0 19 -13 30t-34 20zM485 562q34 0 63.5 -8.5t51.5 -24.5t34 -39.5t12 -53.5q0 -32 -14 -56.5t-38 -43.5q71 -32 71 -104q0 -33 -14 -58t-38 -42t-57 -26t-71 -9t-71 9t-57.5 26t-38.5 42t-14 57q0 73 71 105q-25 19 -38.5 43t-13.5 56q0 31 12.5 54.5t34 39.5t51 24.5
t64.5 8.5zM484 634q-63 0 -117.5 -22.5t-95 -63t-63.5 -96t-23 -122.5t23 -122.5t63.5 -96t95 -63t117.5 -22.5t117.5 22.5t95 63t63.5 96.5t23 122t-23 122t-63.5 96.5t-95 63t-117.5 22.5zM485 456q-16 0 -26 -8t-10 -23q0 -14 9 -23t26 -17q17 8 27 17.5t10 23.5
q0 15 -10.5 22.5t-25.5 7.5z" />
    <glyph glyph-name="uni2788" unicode="&#x2788;" horiz-adv-x="968" 
d="M484 762q90 0 168.5 -34t137 -92.5t92.5 -137t34 -168.5t-34 -168.5t-92.5 -137t-137 -92.5t-168.5 -34t-168.5 34t-137 92.5t-92.5 137.5t-34 168t34 168t92.5 137.5t137 92.5t168.5 34zM484 634q-63 0 -117.5 -22.5t-95 -63t-63.5 -96.5t-23 -122t23 -122t63.5 -96.5
t95 -63t117.5 -22.5t117.5 22.5t95 63t63.5 96t23 122.5t-23 122.5t-63.5 96t-95 63t-117.5 22.5zM495 563q34 0 66.5 -12.5t57 -35t39.5 -54t15 -69.5q0 -39 -16 -70t-45 -69l-112 -147h-162l100 131q-11 2 -21.5 6.5t-20.5 9.5q-34 20 -57.5 55.5t-23.5 84.5q0 38 15 69
t40.5 53.5t57.5 35t67 12.5zM494 438q-17 0 -30.5 -13t-13.5 -33t13.5 -32t31.5 -12t30.5 12t12.5 31q0 20 -12.5 33.5t-31.5 13.5z" />
    <glyph glyph-name="uni27F5" unicode="&#x27f5;" horiz-adv-x="1216" 
d="M1176 253h-832l-67 4l135 -135l-101 -101l-287 287v31l287 287l101 -101l-132 -132l64 4h832v-144z" />
    <glyph glyph-name="uni27F6" unicode="&#x27f6;" horiz-adv-x="1216" 
d="M1192 339v-31l-287 -287l-101 101l134 135l-66 -4h-832v144h832l64 -4l-132 132l101 101z" />
    <glyph glyph-name="uniF8FF" unicode="&#xf8ff;" horiz-adv-x="722" 
d="M99 660h524v-660h-524v660zM231 202q-2 26 -2 45v36q0 50 6 87.5t17 69.5q24 13 51 20q-24 -62 -40.5 -126.5t-24.5 -131.5h-7zM458 123q37 0 58.5 23t21.5 53q0 26 -16.5 55t-45.5 46l-24 -25q21 -20 33 -38t12 -38q0 -17 -9.5 -28t-27.5 -11q-11 0 -21 6t-21.5 21
t-24.5 40t-30 63q43 25 70 44t42.5 35.5t21 31t5.5 29.5q0 40 -27.5 61t-74.5 21q-8 0 -16.5 -0.5t-16.5 -1.5l26 55l-41 7l-33 -71q-26 -5 -52.5 -15t-50.5 -21q-14 -38 -18.5 -80t-4.5 -81q0 -51 6 -90t14 -68l42 -8q11 55 21 99.5t21 83.5t23.5 75t29.5 76q11 2 21.5 3
t19.5 1q70 0 70 -50q0 -12 -5 -22.5t-20 -24t-42.5 -31.5t-72.5 -44l-1 -6q18 -45 33 -78t31 -54.5t33.5 -32t40.5 -10.5z" />
    <glyph glyph-name="uni0414.loclBGR" horiz-adv-x="781" 
d="M761 -141h-172v141h-397v-141h-172v296h105l238 517h55l238 -517h105v-296zM310 155h161l-80 174z" />
    <glyph glyph-name="uni041B.loclBGR" horiz-adv-x="659" 
d="M657 0h-185l-142 325l-143 -325h-185l300 672h55z" />
    <glyph glyph-name="uni0410.ordn" horiz-adv-x="425" 
d="M424 244h-136l-11 29h-129l-10 -29h-137l192 424h40zM212 441l-31 -77h63z" />
    <glyph glyph-name="uni0413.ordn" horiz-adv-x="355" 
d="M337 545h-161v-301h-127v416h288v-115z" />
    <glyph glyph-name="uni0415.ordn" horiz-adv-x="382" 
d="M344 545h-168v-39h123v-98h-123v-50h176v-114h-303v416h295v-115z" />
    <glyph glyph-name="uni0419.ordn" horiz-adv-x="484" 
d="M435 244h-126v190l-220 -198h-40v424h127v-185l219 193h40v-424zM358 821q0 -54 -34.5 -89t-89.5 -35q-56 0 -90 35t-34 89h97q0 -32 27 -32q26 0 26 32h98z" />
    <glyph glyph-name="uni041C.ordn" horiz-adv-x="534" 
d="M485 244h-127v139l-72 -79h-39l-71 78v-138h-127v424h40l178 -210l178 210h40v-424z" />
    <glyph glyph-name="uni041E.ordn" horiz-adv-x="502" 
d="M250 668q47 0 88.5 -16.5t72.5 -45.5t49 -68.5t18 -85.5t-18 -85.5t-49 -68.5t-72.5 -45.5t-88.5 -16.5t-88 16.5t-72 45.5t-48.5 68.5t-17.5 85.5t17.5 85.5t48.5 68.5t72 45.5t88 16.5zM251 551q-44 0 -70.5 -27t-26.5 -72q0 -46 26.5 -72.5t70.5 -26.5q42 0 70 26.5
t28 72.5q0 45 -28 72t-70 27z" />
    <glyph glyph-name="uni0423.ordn" horiz-adv-x="425" 
d="M290 347q-24 -57 -65.5 -84t-105.5 -27q-16 0 -33 2.5t-31 5.5v109h36q14 0 30 2t29 13l-145 292h148l69 -152l57 152h145z" />
    <glyph glyph-name="uni0425.ordn" horiz-adv-x="408" 
d="M274 454l133 -210h-143l-60 98l-60 -98h-143l133 210l-126 206h143l53 -95l52 95h143z" />
    <glyph glyph-name="uni042B.ordn" horiz-adv-x="617" 
d="M376 541h50q35 0 65.5 -10.5t53 -30t35.5 -47t13 -61.5q0 -35 -13 -62.5t-35.5 -46.5t-53 -29t-65.5 -10h-177v416h127v-119zM176 244h-127v416h127v-416zM376 431v-76h51q17 0 27.5 10t10.5 27q0 19 -10.5 29t-27.5 10h-51z" />
    <glyph glyph-name="uni042E.ordn" horiz-adv-x="674" 
d="M176 514h36q10 34 29.5 62t47.5 48.5t62 32t73 11.5q46 0 87.5 -16.5t72 -45.5t48.5 -68.5t18 -85.5t-18 -85.5t-48.5 -68.5t-72 -45.5t-87.5 -16.5q-40 0 -75 12t-63 34t-47.5 52t-28.5 66h-34v-156h-127v416h127v-146zM424 551q-41 0 -69 -26.5t-28 -72.5q0 -47 28 -73
t69 -26t69 26t28 73q0 46 -28 72.5t-69 26.5z" />
    <glyph glyph-name="uni042F.ordn" horiz-adv-x="432" 
d="M383 244h-127v94h-29h-10l-61 -94h-141l87 135q-26 21 -41 52t-15 69q0 37 14 66.5t39 50.5t57.5 32t70.5 11h156v-416zM225 549q-22 0 -36 -13.5t-14 -36.5t14 -36.5t36 -13.5h31v100h-31z" />
    <glyph glyph-name="uni0409.ss01" horiz-adv-x="946" 
d="M453 455h207q54 0 101 -16.5t81 -46.5t53.5 -72t19.5 -93q0 -53 -19.5 -95t-53.5 -71t-81 -45t-101 -16h-188l-142 325l-143 -325h-185l300 672h55zM520 305l69 -155h72q36 0 57.5 21t21.5 56t-21.5 56.5t-57.5 21.5h-141z" />
    <glyph glyph-name="uni0432.loclBGR" horiz-adv-x="608" 
d="M309 762q61 0 103 -18.5t68.5 -47.5t38 -65.5t11.5 -73.5q0 -47 -17 -84.5t-51 -63.5q51 -24 83 -71t32 -117q0 -54 -20 -97.5t-54.5 -73.5t-82 -46t-102.5 -16q-60 0 -108.5 18.5t-83 51.5t-53 79.5t-18.5 102.5v280q0 53 17.5 97.5t50.5 76.5t80 50t106 18zM227 323
v-77q0 -51 24.5 -78t65.5 -27q40 0 63.5 24t23.5 62q0 39 -27 67.5t-81 28.5h-69zM227 460h41q43 0 66 20t23 58q0 33 -16.5 51.5t-45.5 18.5q-32 0 -50 -23t-18 -66v-59z" />
    <glyph glyph-name="uni0433.loclBGR" horiz-adv-x="456" 
d="M220 513q43 0 78.5 -10t61 -29t39.5 -47.5t14 -65.5q0 -62 -38.5 -100t-106.5 -67l-56 -23q-14 -6 -21.5 -11t-7.5 -14q0 -13 13 -17.5t31 -4.5q37 0 72 16t66 46l80 -102q-35 -47 -91.5 -71.5t-125.5 -24.5q-44 0 -81.5 10.5t-65 30.5t-43 49.5t-15.5 68.5
q0 31 10.5 55.5t29.5 44t46 35t60 29.5l50 20q17 7 25.5 12t8.5 15q0 19 -35 19q-55 0 -106 -43l-81 105q37 38 84.5 56t104.5 18z" />
    <glyph glyph-name="uni0453.loclBGR" horiz-adv-x="456" 
d="M220 513q43 0 78.5 -10t61 -29t39.5 -47.5t14 -65.5q0 -62 -38.5 -100t-106.5 -67l-56 -23q-14 -6 -21.5 -11t-7.5 -14q0 -13 13 -17.5t31 -4.5q37 0 72 16t66 46l80 -102q-35 -47 -91.5 -71.5t-125.5 -24.5q-44 0 -81.5 10.5t-65 30.5t-43 49.5t-15.5 68.5
q0 31 10.5 55.5t29.5 44t46 35t60 29.5l50 20q17 7 25.5 12t8.5 15q0 19 -35 19q-55 0 -106 -43l-81 105q37 38 84.5 56t104.5 18zM430 750l-147 -176h-124l64 206h207v-30z" />
    <glyph glyph-name="uni0491.loclBGR" horiz-adv-x="456" 
d="M228 -12q-44 0 -81.5 10.5t-65 30.5t-43 49.5t-15.5 68.5q0 31 10.5 55.5t29.5 44t46 35t60 29.5l50 20q17 7 25.5 12t8.5 15q0 19 -35 19q-55 0 -106 -43l-81 105q44 46 108 63v130h172v-133q48 -16 75 -51t27 -87q0 -62 -38.5 -100t-106.5 -67l-56 -23
q-14 -6 -21.5 -11t-7.5 -14q0 -13 13 -17.5t31 -4.5q37 0 72 16t66 46l80 -102q-35 -47 -91.5 -71.5t-125.5 -24.5z" />
    <glyph glyph-name="uni0434.loclBGR" horiz-adv-x="631" 
d="M268 512q51 0 87 -16.5t59 -47.5v52h157v-439q0 -67 -20.5 -115t-56.5 -78.5t-85 -45t-106 -14.5q-84 0 -145.5 26t-106.5 64l87 121q38 -29 73 -43t74 -14q23 0 43.5 5t36.5 15.5t25 27.5t9 40v18q-24 -23 -57 -34.5t-74 -11.5q-51 0 -94.5 17t-75 49t-49.5 77.5
t-18 102.5t18 102.5t50 77t75.5 48t93.5 16.5zM305 370q-19 0 -37 -6t-31.5 -18.5t-21.5 -31.5t-8 -44q0 -26 8.5 -45.5t22 -33t31 -20.5t36.5 -7q18 0 35.5 6.5t31 20t22 33.5t8.5 47t-8.5 45.5t-22 30.5t-31 17.5t-35.5 5.5z" />
    <glyph glyph-name="uni0436.loclBGR" horiz-adv-x="890" 
d="M359 290v460h172v-460l148 210h199l-167 -231l179 -269h-189l-170 252v-252h-172v252l-170 -252h-189l178 269l-166 231h199z" />
    <glyph glyph-name="uni0437.loclBGR" horiz-adv-x="515" 
d="M232 512q56 0 97.5 -16t68.5 -43t40.5 -63.5t13.5 -76.5q0 -79 -48 -132q35 -26 55.5 -66t20.5 -95q0 -44 -14 -82.5t-42.5 -67t-72 -45.5t-101.5 -17q-28 0 -58 4.5t-58.5 15t-55.5 27.5t-49 42l82 116q27 -21 57.5 -36.5t65.5 -15.5q39 0 59.5 20t20.5 53
q0 35 -22.5 53t-61.5 18h-96v144h83q69 0 69 54q0 26 -16 41t-50 15q-35 0 -64.5 -13t-49.5 -27l-81 116q39 38 93 57.5t114 19.5z" />
    <glyph glyph-name="uni0438.loclBGR" horiz-adv-x="599" 
d="M544 233q0 -56 -18.5 -101t-51 -77t-77.5 -49.5t-97 -17.5q-53 0 -98 17.5t-77.5 49.5t-51 77t-18.5 101v267h172v-281q0 -32 20.5 -52.5t52.5 -20.5q31 0 51.5 20.5t20.5 52.5v281h172v-267z" />
    <glyph glyph-name="uni0439.loclBGR" horiz-adv-x="593" 
d="M541 233q0 -56 -18.5 -101t-51 -77t-77.5 -49.5t-97 -17.5q-53 0 -98 17.5t-77.5 49.5t-51 77t-18.5 101v267h172v-281q0 -32 20.5 -52.5t52.5 -20.5q31 0 51.5 20.5t20.5 52.5v281h172v-267zM483 755q0 -41 -13.5 -75t-38 -58.5t-59 -38.5t-75.5 -14t-75.5 14t-59 38.5
t-38 58.5t-13.5 75h133q0 -28 14.5 -44t38.5 -16t38.5 16t14.5 44h133z" />
    <glyph glyph-name="uni045D.loclBGR" horiz-adv-x="599" 
d="M544 233q0 -56 -18.5 -101t-51 -77t-77.5 -49.5t-97 -17.5q-53 0 -98 17.5t-77.5 49.5t-51 77t-18.5 101v267h172v-281q0 -32 20.5 -52.5t52.5 -20.5q31 0 51.5 20.5t20.5 52.5v281h172v-267zM363 574h-124l-147 176v30h207z" />
    <glyph glyph-name="uni043A.loclBGR" horiz-adv-x="599" 
d="M232 297l156 203h199l-172 -223l184 -277h-189l-178 264v-264h-172v750h172v-453z" />
    <glyph glyph-name="uni045C.loclBGR" horiz-adv-x="599" 
d="M577 750l-147 -176h-124l64 206h207v-30zM232 297l156 203h199l-172 -223l184 -277h-189l-178 264v-264h-172v750h172v-453z" />
    <glyph glyph-name="uni043B.loclBGR" horiz-adv-x="571" 
d="M569 0h-182l-102 225l-101 -225h-182l256 512h55z" />
    <glyph glyph-name="uni043F.loclBGR" horiz-adv-x="604" 
d="M358 512q44 0 79.5 -14.5t60 -41.5t38 -64.5t13.5 -83.5v-308h-172v283q0 34 -20.5 54t-52.5 20t-52 -20t-20 -54v-283h-172v500h157v-41q26 24 61 38.5t80 14.5z" />
    <glyph glyph-name="uni0442.loclBGR" horiz-adv-x="911" 
d="M663 512q91 0 142 -55.5t51 -148.5v-308h-172v283q0 35 -20 54.5t-51 19.5t-50 -19.5t-19 -54.5v-283h-172v283q0 35 -20 54.5t-51 19.5t-50 -19.5t-19 -54.5v-283h-172v500h157v-39q25 23 59 37t78 14q47 0 83.5 -16.5t61.5 -47.5q29 29 71 46.5t93 17.5z" />
    <glyph glyph-name="uni0447.loclBGR" horiz-adv-x="580" 
d="M520 0h-172v128q-34 -8 -71 -8q-51 0 -96 16.5t-78 47.5t-52.5 76t-19.5 102v138h172v-126q0 -47 23.5 -71.5t65.5 -24.5q24 0 56 8v214h172v-500z" />
    <glyph glyph-name="uni0446.loclBGR" horiz-adv-x="657" 
d="M544 200q0 -56 55 -56h38v-285h-172v154q-37 16 -61 46q-26 -32 -66 -51.5t-92 -19.5q-44 0 -79.5 14.5t-60 41.5t-38 64.5t-13.5 83.5v308h172v-283q0 -34 20.5 -54t52.5 -20t52 20t20 54v283h172v-300z" />
    <glyph glyph-name="uni0448.loclBGR" horiz-adv-x="911" 
d="M851 0h-157v38q-25 -23 -59.5 -36.5t-77.5 -13.5q-48 0 -84.5 16.5t-60.5 47.5q-30 -30 -72 -47t-92 -17q-91 0 -142 55.5t-51 148.5v308h172v-283q0 -35 20 -54.5t51 -19.5t50 19.5t19 54.5v283h172v-283q0 -35 20 -54.5t51 -19.5t50 19.5t19 54.5v283h172v-500z" />
    <glyph glyph-name="uni0449.loclBGR" horiz-adv-x="964" 
d="M851 200q0 -56 55 -56h38v-285h-172v154q-38 16 -61 45q-25 -32 -64 -51t-90 -19q-48 0 -84.5 16.5t-60.5 47.5q-30 -30 -72 -47t-92 -17q-91 0 -142 55.5t-51 148.5v308h172v-283q0 -35 20 -54.5t51 -19.5t50 19.5t19 54.5v283h172v-283q0 -35 20 -54.5t51 -19.5
t50 19.5t19 54.5v283h172v-300z" />
    <glyph glyph-name="uni044C.loclBGR" horiz-adv-x="552" 
d="M227 394h62q49 0 91.5 -11.5t74 -35.5t49 -61t17.5 -89t-18 -91t-48.5 -65.5t-72 -39.5t-89.5 -13q-51 0 -94.5 15t-75.5 44t-50 70.5t-18 95.5v287h172v-106zM227 250v-58q0 -27 17 -43.5t45 -16.5q24 0 40.5 14.5t16.5 43.5q0 33 -20.5 46.5t-49.5 13.5h-49z" />
    <glyph glyph-name="uni044A.loclBGR" horiz-adv-x="593" 
d="M268 394h62q49 0 91.5 -11.5t74 -35.5t49 -61t17.5 -89t-18 -91t-48.5 -65.5t-72 -39.5t-89.5 -13q-51 0 -94.5 15t-75.5 44t-50 70.5t-18 95.5v143h-96v144h268v-106zM268 250v-58q0 -27 17 -43.5t45 -16.5q24 0 40.5 14.5t16.5 43.5q0 33 -20.5 46.5t-49.5 13.5h-49z
" />
    <glyph glyph-name="uni044B.loclBGR" horiz-adv-x="820" 
d="M227 394h62q49 0 91.5 -11.5t74 -35.5t49 -61t17.5 -89t-18 -91t-48.5 -65.5t-72 -39.5t-89.5 -13q-51 0 -94.5 15t-75.5 44t-50 70.5t-18 95.5v287h172v-106zM760 0h-172v500h172v-500zM227 250v-58q0 -27 17 -43.5t45 -16.5q24 0 40.5 14.5t16.5 43.5q0 33 -20.5 46.5
t-49.5 13.5h-49z" />
    <glyph glyph-name="uni044E.loclBGR" horiz-adv-x="874" 
d="M232 327h77q13 41 38 75t59 58.5t75.5 38t88.5 13.5q56 0 106 -20t87 -55t58.5 -83t21.5 -104t-21.5 -104t-58.5 -83t-87 -55t-106 -20q-48 0 -91 14.5t-77.5 40t-59.5 61.5t-36 79h-74v-183h-172v750h172v-423zM571 354q-44 0 -70.5 -29t-26.5 -75q0 -47 26.5 -75.5
t70.5 -28.5q41 0 68.5 28.5t27.5 75.5q0 46 -27.5 75t-68.5 29z" />
    <glyph glyph-name="uni0431.loclSRB" horiz-adv-x="589" 
d="M492 606h-222q-8 0 -8 -6q0 -4 6 -9l167 -125q63 -47 93 -103t30 -122q0 -58 -21 -104.5t-57 -79.5t-84 -50.5t-102 -17.5q-56 0 -104.5 19t-83.5 52.5t-55 79t-20 97.5q0 42 13 78t35.5 65.5t53.5 50.5t68 32l-46 35q-70 55 -70 125q0 28 10.5 51.5t29 40.5t43.5 26
t54 9h270v-144zM298 327q-38 0 -64.5 -25t-26.5 -66q0 -40 26.5 -65.5t64.5 -25.5t64.5 25.5t26.5 65.5q0 41 -26.5 66t-64.5 25z" />
    <glyph glyph-name="uni0438.loclSRB" horiz-adv-x="609" 
d="M549 0h-172v212l-145 -126v-86h-172v500h172v-217l145 126v91h172v-500z" />
    <glyph glyph-name="uni0430.ordn" horiz-adv-x="376" 
d="M185 569q70 0 111 -36t41 -108v-181h-115v21q-17 -14 -38.5 -21.5t-48.5 -7.5q-28 0 -48.5 8.5t-34 23t-20 32.5t-6.5 38q0 46 34 70t94 24h56v5q0 11 -8 19.5t-32 8.5q-20 0 -39 -8t-42 -22l-47 83q60 51 143 51zM177 322q14 0 23.5 9t9.5 26v8h-33q-23 0 -23 -21
q0 -8 4.5 -15t18.5 -7z" />
    <glyph glyph-name="uni0433.ordn" horiz-adv-x="307" 
d="M295 456h-126v-212h-127v318h253v-106z" />
    <glyph glyph-name="uni0435.ordn" horiz-adv-x="372" 
d="M195 569q37 0 65.5 -13t48 -34t30 -48t10.5 -56q0 -15 -2.5 -27.5t-5.5 -22.5h-195q14 -32 61 -32q17 0 35.5 4.5t37.5 16.5l54 -79q-26 -20 -59 -31t-71 -11q-40 0 -73 12.5t-57 35t-37.5 53t-13.5 66.5t13.5 66t36.5 52.5t54.5 35t67.5 12.5zM189 476q-37 0 -47 -39h92
q-5 39 -45 39z" />
    <glyph glyph-name="uni0439.ordn" horiz-adv-x="413" 
d="M371 244h-127v115l-162 -123h-40v326h127v-117l162 124h40v-325zM336 720q0 -54 -34 -89t-90 -35q-55 0 -89.5 35t-34.5 89h98q0 -31 26 -31q27 0 27 31h97z" />
    <glyph glyph-name="uni043C.ordn" horiz-adv-x="459" 
d="M417 244h-127v84l-41 -41h-40l-40 40v-83h-127v325h40l147 -153l150 153h38v-325z" />
    <glyph glyph-name="uni043E.ordn" horiz-adv-x="396" 
d="M198 569q36 0 68 -12.5t55.5 -35t37.5 -52.5t14 -66t-14 -66.5t-37.5 -53t-55.5 -35t-68 -12.5t-68 12.5t-56 35t-37.5 53t-13.5 66.5t13.5 66t37.5 52.5t56 35t68 12.5zM198 453q-22 0 -34.5 -13.5t-12.5 -36.5t12.5 -36.5t34.5 -13.5t34.5 13.5t12.5 36.5t-12.5 36.5
t-34.5 13.5z" />
    <glyph glyph-name="uni0443.ordn" horiz-adv-x="376" 
d="M228 235q-26 -57 -60 -84.5t-88 -27.5q-33 0 -65 8v106q12 0 20.5 -0.5t15.5 -0.5q18 0 33.5 5.5t26.5 28.5l1 3l-111 289h135l48 -154l57 154h134z" />
    <glyph glyph-name="uni0445.ordn" horiz-adv-x="368" 
d="M253 406l115 -162h-141l-43 69l-43 -69h-141l113 162l-107 156h140l38 -63l37 63h141z" />
    <glyph glyph-name="uni044B.ordn" horiz-adv-x="550" 
d="M169 505h32q30 0 56.5 -8t46.5 -24.5t32 -41t12 -57.5q0 -32 -12 -56.5t-32 -41t-46.5 -24.5t-56.5 -8h-159v318h127v-57zM169 404v-59h16q14 0 25.5 5t11.5 24q0 17 -11.5 23.5t-25.5 6.5h-16zM508 244h-127v318h127v-318z" />
    <glyph glyph-name="uni044E.ordn" horiz-adv-x="567" 
d="M169 457h39q17 50 60.5 81t100.5 31q36 0 67.5 -12.5t55.5 -35t38 -52.5t14 -66t-14 -66.5t-38 -53t-55.5 -35t-67.5 -12.5q-58 0 -101.5 31.5t-59.5 83.5h-39v-107h-127v317h127v-104zM366 453q-21 0 -34 -13.5t-13 -36.5t13 -36.5t34 -13.5q20 0 34 13.5t14 36.5
t-14 36.5t-34 13.5z" />
    <glyph glyph-name="uni044F.ordn" horiz-adv-x="389" 
d="M347 244h-127v57h-23l-47 -57h-141l72 93q-19 16 -29.5 39.5t-10.5 54.5q0 33 12 57.5t32 41t46.5 24.5t56.5 8h159v-318zM204 461q-14 0 -25.5 -6.5t-11.5 -23.5q0 -19 11.5 -24t25.5 -5h16v59h-16z" />
    <glyph glyph-name="uni0433.loclBGR.ordn" horiz-adv-x="294" 
d="M145 570q56 0 91 -27.5t35 -78.5q0 -40 -24 -62t-72 -38l-32 -11q-7 -2 -10.5 -4t-3.5 -7q0 -10 17 -10q20 0 46.5 11t45.5 25l53 -72q-23 -29 -61.5 -44.5t-80.5 -15.5q-29 0 -54 7.5t-43.5 21.5t-29 34.5t-10.5 47.5q0 41 25.5 61.5t70.5 34.5l32 10q15 4 15 11
q0 10 -15 10q-14 0 -33.5 -7.5t-33.5 -18.5l-56 71q23 26 56.5 38.5t71.5 12.5z" />
    <glyph glyph-name="uni0439.loclBGR.ordn" horiz-adv-x="408" 
d="M366 398q0 -37 -12 -67t-34 -51t-51.5 -32.5t-64.5 -11.5t-65 11.5t-52 32.5t-34 51t-12 67v164h127v-174q0 -15 10 -25t26 -10q15 0 25 10t10 25v174h127v-164zM328 720q0 -54 -34.5 -89t-89.5 -35q-56 0 -90 35t-34 89h97q0 -31 27 -31q26 0 26 31h98z" />
    <glyph glyph-name="uni044E.loclBGR.ordn" horiz-adv-x="567" 
d="M169 457h39q17 50 60.5 81t100.5 31q36 0 67.5 -12.5t55.5 -35t38 -52.5t14 -66t-14 -66.5t-38 -53t-55.5 -35t-67.5 -12.5q-58 0 -101.5 31.5t-59.5 83.5h-39v-107h-127v473h127v-260zM366 453q-21 0 -34 -13.5t-13 -36.5t13 -36.5t34 -13.5q20 0 34 13.5t14 36.5
t-14 36.5t-34 13.5z" />
    <glyph glyph-name="uni0430.ss01.ordn" horiz-adv-x="414" 
d="M174 569q54 0 82 -33v26h116v-318h-116v25q-27 -33 -82 -33q-33 0 -61 12t-48 34t-31 52.5t-11 67.5t11 67.5t31.5 52.5t48 34.5t60.5 12.5zM200 454q-17 0 -32 -11.5t-15 -39.5t15 -40t32 -12t32 12.5t15 38.5t-14.5 39t-32.5 13z" />
    <glyph glyph-name="uni0443.ss01.ordn" horiz-adv-x="415" 
d="M373 300q0 -83 -46.5 -130t-127.5 -47q-50 0 -89.5 16t-68.5 39l63 90q23 -16 42.5 -24t42.5 -8q25 0 41 12t16 44v13q-33 -25 -77 -25q-53 0 -87 35.5t-34 95.5v151h127v-132q0 -17 11 -26.5t26 -9.5t24.5 9.5t9.5 26.5v132h127v-262z" />
    <glyph glyph-name="uni0430.ss01" horiz-adv-x="631" 
d="M271 512q48 0 84 -16.5t59 -47.5v52h157v-500h-157v51q-48 -63 -143 -63q-53 0 -97 19.5t-75.5 54t-49.5 82.5t-18 105t18 105.5t49.5 83.5t75.5 54.5t97 19.5zM305 356q-19 0 -36.5 -6.5t-31 -20t-22 -33.5t-8.5 -46t8 -46t21.5 -33.5t31.5 -20t37 -6.5q18 0 35.5 6
t31 19t22 33t8.5 47t-8.5 47t-22 33.5t-31 20t-35.5 6.5z" />
    <glyph glyph-name="uni0434.ss01" horiz-adv-x="684" 
d="M664 -141h-172v141h-300v-141h-172v285h91l204 368h55l204 -368h90v-285zM288 144h109l-55 109z" />
    <glyph glyph-name="uni0443.ss01" horiz-adv-x="608" 
d="M552 67q0 -60 -17 -107.5t-49.5 -81.5t-79.5 -52t-106 -18q-73 0 -138 25.5t-110 63.5l87 121q35 -27 67 -41.5t72 -14.5q44 0 73 20t29 69v18q-25 -22 -58 -34.5t-72 -12.5q-42 0 -76 14.5t-59 41.5t-38.5 64.5t-13.5 83.5v274h172v-249q0 -34 20.5 -54t52.5 -20t52 20
t20 54v249h172v-433z" />
    <glyph glyph-name="uni045E.ss01" horiz-adv-x="608" 
d="M552 67q0 -60 -17 -107.5t-49.5 -81.5t-79.5 -52t-106 -18q-73 0 -138 25.5t-110 63.5l87 121q35 -27 67 -41.5t72 -14.5q44 0 73 20t29 69v18q-25 -22 -58 -34.5t-72 -12.5q-42 0 -76 14.5t-59 41.5t-38.5 64.5t-13.5 83.5v274h172v-249q0 -34 20.5 -54t52.5 -20t52 20
t20 54v249h172v-433zM494 755q0 -41 -13.5 -75t-38 -58.5t-59 -38.5t-75.5 -14t-75.5 14t-59 38.5t-38 58.5t-13.5 75h133q0 -28 14.5 -44t38.5 -16t38.5 16t14.5 44h133z" />
    <glyph glyph-name="uni0444.ss01" horiz-adv-x="970" 
d="M571 465q47 47 128 47q52 0 96.5 -19.5t76 -54t49.5 -82.5t18 -105t-18 -105.5t-49.5 -83.5t-76 -54.5t-96.5 -19.5q-82 0 -128 46v-214h-172v214q-48 -46 -128 -46q-53 0 -97 19.5t-75.5 54.5t-49.5 83.5t-18 105.5t18 105t49.5 82.5t75.5 54t97 19.5q41 0 73 -12
t55 -35v285h172v-285zM665 356q-18 0 -35.5 -6t-31 -19t-22 -33t-8.5 -47t8.5 -47t22 -33.5t31 -20t35.5 -6.5q19 0 36.5 6.5t31 20t22 33.5t8.5 46t-8 46t-21.5 33.5t-31.5 20t-37 6.5zM305 356q-19 0 -37 -6.5t-31.5 -20t-21.5 -33.5t-8 -46t8.5 -46t22 -33.5t31 -20
t36.5 -6.5q18 0 35.5 6.5t31 20t22 33.5t8.5 47t-8.5 47t-22 33t-31 19t-35.5 6z" />
    <glyph glyph-name="uni0459.ss01" horiz-adv-x="799" 
d="M372 394h174q46 0 86.5 -13t70.5 -37.5t47.5 -61.5t17.5 -85t-17.5 -85t-47.5 -61.5t-70.5 -37.5t-86.5 -13h-162l-99 224l-101 -224h-182l256 512h55zM444 250l53 -106h36q23 0 41.5 11.5t18.5 39.5t-18.5 41.5t-41.5 13.5h-89z" />
    <glyph glyph-name="uni04EF.ss01" horiz-adv-x="608" 
d="M552 67q0 -60 -17 -107.5t-49.5 -81.5t-79.5 -52t-106 -18q-73 0 -138 25.5t-110 63.5l87 121q35 -27 67 -41.5t72 -14.5q44 0 73 20t29 69v18q-25 -22 -58 -34.5t-72 -12.5q-42 0 -76 14.5t-59 41.5t-38.5 64.5t-13.5 83.5v274h172v-249q0 -34 20.5 -54t52.5 -20t52 20
t20 54v249h172v-433zM468 610h-320v134h320v-134z" />
    <glyph glyph-name="uni04F3.ss01" horiz-adv-x="608" 
d="M552 67q0 -60 -17 -107.5t-49.5 -81.5t-79.5 -52t-106 -18q-73 0 -138 25.5t-110 63.5l87 121q35 -27 67 -41.5t72 -14.5q44 0 73 20t29 69v18q-25 -22 -58 -34.5t-72 -12.5q-42 0 -76 14.5t-59 41.5t-38.5 64.5t-13.5 83.5v274h172v-249q0 -34 20.5 -54t52.5 -20t52 20
t20 54v249h172v-433zM598 750l-127 -176h-114l64 206h177v-30zM379 750l-127 -176h-114l64 206h177v-30z" />
    <glyph glyph-name="zero.lf" horiz-adv-x="648" 
d="M324 672q69 0 120.5 -26t85.5 -71t51 -106.5t17 -133.5t-17 -135t-51 -110.5t-85.5 -74.5t-120.5 -27t-120.5 27t-85.5 74.5t-51 110.5t-17 135t17 133.5t51 106.5t85.5 71t120.5 26zM324 514q-50 0 -74 -43t-24 -137q0 -188 98 -188t98 188q0 94 -24 137t-74 43z" />
    <glyph glyph-name="one.lf" horiz-adv-x="415" 
d="M335 0h-172v455l-112 -36l-41 152l270 89h55v-660z" />
    <glyph glyph-name="two.lf" horiz-adv-x="599" 
d="M293 672q52 0 96 -16t76.5 -45t51 -69t18.5 -87q0 -37 -11.5 -71t-31 -66t-45.5 -63t-56 -62l-47 -49h204v-144l-505 -1v35l237 259q43 47 61 80.5t18 65.5q0 35 -19 55t-50 20q-29 0 -48.5 -19.5t-19.5 -59.5q0 -8 1 -19t3 -25h-173q-4 15 -5.5 29.5t-1.5 26.5
q0 42 17 82.5t49 72t78 51t103 19.5z" />
    <glyph glyph-name="three.lf" horiz-adv-x="557" 
d="M507 615l-131 -195q28 -11 54 -29.5t45 -43.5t30.5 -57t11.5 -70q0 -50 -20 -92.5t-54.5 -73.5t-82 -48.5t-101.5 -17.5q-88 0 -153 43t-98 115l119 84q29 -44 57.5 -64t67.5 -20q38 0 63.5 18.5t25.5 54.5q0 68 -114 68h-94v44l116 174h-187v155h445v-45z" />
    <glyph glyph-name="four.lf" horiz-adv-x="596" 
d="M510 242h77v-144h-77v-98h-172v98h-326v45l197 517h177l-161 -418h113v162h172v-162z" />
    <glyph glyph-name="five.lf" horiz-adv-x="570" 
d="M492 505h-246v-78q34 8 63 8q40 0 79.5 -14t71 -41t51 -67t19.5 -91t-20 -94t-55.5 -74t-84 -48.5t-104.5 -17.5q-91 0 -157 43t-99 115l119 84q29 -44 58.5 -64t71.5 -20q40 0 67.5 18.5t27.5 55.5q0 35 -28.5 51t-85.5 16h-157v373h409v-155z" />
    <glyph glyph-name="six.lf" horiz-adv-x="570" 
d="M341 460q37 -5 73 -23t63.5 -47.5t44.5 -69.5t17 -88q0 -54 -21 -99t-56.5 -77t-81.5 -50t-95 -18q-50 0 -96 18t-81 50.5t-56 77.5t-21 100q0 29 6 54t17.5 49t28.5 48.5l38 53.5l165 221h203zM285 318q-35 0 -59.5 -24t-24.5 -61t24.5 -62t59.5 -25t59.5 24.5
t24.5 62.5t-24.5 61.5t-59.5 23.5z" />
    <glyph glyph-name="seven.lf" horiz-adv-x="540" 
d="M518 615l-281 -615h-187l240 505h-250v155h478v-45z" />
    <glyph glyph-name="eight.lf" horiz-adv-x="595" 
d="M298 672q48 0 90 -12t72.5 -35t48 -56.5t17.5 -77.5q0 -50 -22.5 -86.5t-62.5 -64.5q54 -23 84 -62.5t30 -96.5q0 -46 -19.5 -82t-54 -60.5t-81.5 -37.5t-102 -13t-102.5 13t-82 37.5t-54 60.5t-19.5 82q0 57 30 96.5t84 62.5q-41 28 -63 64.5t-22 86.5q0 44 17.5 77.5
t48 56.5t72.5 35t91 12zM385 188q0 29 -23.5 48t-64.5 34q-41 -15 -64 -34t-23 -48q0 -26 21 -44.5t67 -18.5q45 0 66 18.5t21 44.5zM298 537q-30 0 -51 -14.5t-21 -39.5q0 -24 19 -40t52 -32q34 17 53 32.5t19 40.5q0 24 -21 38.5t-50 14.5z" />
    <glyph glyph-name="nine.lf" horiz-adv-x="570" 
d="M285 672q50 0 96 -18t81 -50.5t56 -77.5t21 -100q0 -29 -6 -54t-17.5 -49t-28.5 -49t-38 -53l-165 -221h-203l147 199q-37 4 -72.5 22.5t-63 48t-44.5 70t-17 88.5q0 54 21 99t56.5 77t81 50t95.5 18zM285 514q-35 0 -59.5 -24.5t-24.5 -62.5t24.5 -61.5t59.5 -23.5
t59.5 24t24.5 61t-24.5 62t-59.5 25z" />
    <glyph glyph-name="zero.slash.lf" horiz-adv-x="648" 
d="M324 672q69 0 120.5 -26t85.5 -71t51 -106.5t17 -133.5t-17 -135t-51 -110.5t-85.5 -74.5t-120.5 -27t-120.5 27t-85.5 74.5t-51 110.5t-17 135t17 133.5t51 106.5t85.5 71t120.5 26zM324 527q-55 0 -83.5 -47t-28.5 -146v-23l185 183q-27 33 -73 33zM436 351l-184 -184
q28 -34 72 -34q55 0 83.5 51.5t28.5 149.5v17z" />
    <glyph glyph-name="zero.slash" horiz-adv-x="656" 
d="M327 551q60 0 113.5 -21.5t93.5 -59.5t63 -89.5t23 -111.5t-23 -111.5t-63 -89.5t-93.5 -59.5t-113.5 -21.5t-113 21.5t-92.5 59.5t-62.5 89.5t-23 111.5t23 111.5t62.5 89.5t92.5 59.5t113 21.5zM456 269q0 12 -2 23t-5 22l-171 -171q22 -9 50 -9q26 0 49.5 9t41 26.5
t27.5 42.5t10 57zM328 404q-27 0 -50 -9.5t-40.5 -27.5t-27 -43t-9.5 -55q0 -20 3 -36l165 165q-20 6 -41 6z" />
    <glyph glyph-name="zero.tf" 
d="M280 672q64 0 111 -24.5t78 -68.5t46.5 -106.5t15.5 -137.5q0 -76 -15.5 -139.5t-46.5 -109.5t-78 -72t-111 -26t-111 26t-78 72t-46.5 109.5t-15.5 139.5q0 75 15.5 137.5t46.5 106.5t78 68.5t111 24.5zM280 514q-39 0 -57 -41t-18 -139q0 -100 18 -144t57 -44t57 44
t18 144q0 98 -18 139t-57 41z" />
    <glyph glyph-name="one.tf" 
d="M538 0h-480v144h165v314l-142 -39l-41 152l300 89h55v-516h143v-144z" />
    <glyph glyph-name="two.tf" 
d="M279 672q52 0 96 -16t76.5 -45t51 -69t18.5 -87q0 -37 -11.5 -71t-31 -66t-45.5 -63t-56 -62l-47 -49h204v-144l-505 -1v35l237 259q43 47 61 80.5t18 65.5q0 35 -19 55t-50 20q-29 0 -48.5 -19.5t-19.5 -59.5q0 -8 1 -19t3 -25h-173q-4 15 -5.5 29.5t-1.5 26.5
q0 42 17 82.5t49 72t78 51t103 19.5z" />
    <glyph glyph-name="three.tf" 
d="M505 615l-131 -195q28 -11 54 -29.5t45 -43.5t30.5 -57t11.5 -70q0 -50 -20 -92.5t-54.5 -73.5t-82 -48.5t-101.5 -17.5q-88 0 -153 43t-98 115l119 84q29 -44 57.5 -64t67.5 -20q38 0 63.5 18.5t25.5 54.5q0 68 -114 68h-94v44l116 174h-187v155h445v-45z" />
    <glyph glyph-name="four.tf" 
d="M493 242h57v-144h-57v-98h-172v98h-316v45l156 517h179l-126 -418h107v162h172v-162z" />
    <glyph glyph-name="five.tf" 
d="M493 505h-246v-78q34 8 63 8q40 0 79.5 -14t71 -41t51 -67t19.5 -91t-20 -94t-55.5 -74t-84 -48.5t-104.5 -17.5q-91 0 -157 43t-99 115l119 84q29 -44 58.5 -64t71.5 -20q40 0 67.5 18.5t27.5 55.5q0 35 -28.5 51t-85.5 16h-157v373h409v-155z" />
    <glyph glyph-name="six.tf" 
d="M336 460q37 -5 73 -23t63.5 -47.5t44.5 -69.5t17 -88q0 -54 -21 -99t-56.5 -77t-81.5 -50t-95 -18q-50 0 -96 18t-81 50.5t-56 77.5t-21 100q0 29 6 54t17.5 49t28.5 48.5l38 53.5l165 221h203zM280 318q-35 0 -59.5 -24t-24.5 -61t24.5 -62t59.5 -25t59.5 24.5
t24.5 62.5t-24.5 61.5t-59.5 23.5z" />
    <glyph glyph-name="seven.tf" 
d="M536 615l-281 -615h-187l240 505h-250v155h478v-45z" />
    <glyph glyph-name="eight.tf" 
d="M280 672q48 0 90 -12t72.5 -35t48 -56.5t17.5 -77.5q0 -50 -22.5 -86.5t-62.5 -64.5q54 -23 84 -62.5t30 -96.5q0 -46 -19.5 -82t-54 -60.5t-81.5 -37.5t-102 -13t-102.5 13t-82 37.5t-54 60.5t-19.5 82q0 57 30 96.5t84 62.5q-41 28 -63 64.5t-22 86.5q0 44 17.5 77.5
t48 56.5t72.5 35t91 12zM367 188q0 29 -23.5 48t-64.5 34q-41 -15 -64 -34t-23 -48q0 -26 21 -44.5t67 -18.5q45 0 66 18.5t21 44.5zM280 537q-30 0 -51 -14.5t-21 -39.5q0 -24 19 -40t52 -32q34 17 53 32.5t19 40.5q0 24 -21 38.5t-50 14.5z" />
    <glyph glyph-name="nine.tf" 
d="M280 672q50 0 96 -18t81 -50.5t56 -77.5t21 -100q0 -29 -6 -54t-17.5 -49t-28.5 -49t-38 -53l-165 -221h-203l147 199q-37 4 -72.5 22.5t-63 48t-44.5 70t-17 88.5q0 54 21 99t56.5 77t81 50t95.5 18zM280 514q-35 0 -59.5 -24.5t-24.5 -62.5t24.5 -61.5t59.5 -23.5
t59.5 24t24.5 61t-24.5 62t-59.5 25z" />
    <glyph glyph-name="zero.slash.tf" 
d="M280 672q64 0 111 -24.5t78 -68.5t46.5 -106.5t15.5 -137.5q0 -76 -15.5 -139.5t-46.5 -109.5t-78 -72t-111 -26t-111 26t-78 72t-46.5 109.5t-15.5 139.5q0 75 15.5 137.5t46.5 106.5t78 68.5t111 24.5zM280 527q-45 0 -67 -45t-22 -148v-2l153 154q-22 41 -64 41z
M280 133q44 0 66 46.5t23 146.5l-152 -152q22 -41 63 -41z" />
    <glyph glyph-name="zero.tosf" 
d="M279 551q54 0 102 -20t84 -57t56.5 -89t20.5 -116t-20.5 -116t-56.5 -89t-84 -57t-102 -20t-102 20t-83 57t-55.5 89t-20.5 116t20.5 116t55.5 89t83 57t102 20zM279 393q-38 0 -61.5 -30.5t-23.5 -93.5t23.5 -93.5t61.5 -30.5t62 31t24 93t-24 93t-62 31z" />
    <glyph glyph-name="one.tosf" 
d="M390 144h153v-144h-490v144h165v242h-156v154h328v-396z" />
    <glyph glyph-name="two.tosf" 
d="M279 552q52 0 96.5 -16t76.5 -43.5t50 -65.5t18 -82q0 -60 -32 -106.5t-91 -94.5h137v-144h-511v35l215 162q48 37 77 66t29 64q0 27 -19 47t-51 20t-49.5 -19t-17.5 -50q0 -11 3 -35h-169q-7 28 -7 53q0 39 17 77t49 67t77 47t102 18z" />
    <glyph glyph-name="three.tosf" 
d="M505 495l-131 -195q28 -11 54 -29.5t45 -44t30.5 -57.5t11.5 -70q0 -50 -20 -92.5t-54.5 -73.5t-82 -48.5t-101.5 -17.5q-88 0 -153 43t-98 115l119 84q29 -44 57.5 -64t67.5 -20q38 0 63.5 18.5t25.5 54.5q0 70 -114 70h-94v44l117 174h-188v154h445v-45z" />
    <glyph glyph-name="four.tosf" 
d="M495 144h57v-144h-57v-121h-172v121h-316v45l149 495h179l-119 -396h107v162h172v-162z" />
    <glyph glyph-name="five.tosf" 
d="M493 386h-246v-78q34 8 63 8q40 0 79.5 -14.5t71 -42t51 -67.5t19.5 -91t-20 -94t-55.5 -74t-84 -48.5t-104.5 -17.5q-91 0 -157 43t-99 115l119 84q29 -44 58.5 -64t71.5 -20q40 0 67.5 18.5t27.5 55.5q0 69 -114 69h-157v372h409v-154z" />
    <glyph glyph-name="six.tosf" 
d="M336 460q37 -5 73 -23t63.5 -47.5t44.5 -69.5t17 -88q0 -54 -21 -99t-56.5 -77t-81.5 -50t-95 -18q-50 0 -96 18t-81 50.5t-56 77.5t-21 100q0 29 6 54t17.5 49t28.5 48.5l38 53.5l165 221h203zM280 318q-35 0 -59.5 -24t-24.5 -61t24.5 -62t59.5 -25t59.5 24.5
t24.5 62.5t-24.5 61.5t-59.5 23.5z" />
    <glyph glyph-name="seven.tosf" 
d="M536 495l-282 -616h-187l241 507h-250v154h478v-45z" />
    <glyph glyph-name="eight.tosf" 
d="M280 672q48 0 90 -12t72.5 -35t48 -56.5t17.5 -77.5q0 -50 -22.5 -86.5t-62.5 -64.5q54 -23 84 -62.5t30 -96.5q0 -46 -19.5 -82t-54 -60.5t-81.5 -37.5t-102 -13t-102.5 13t-82 37.5t-54 60.5t-19.5 82q0 57 30 96.5t84 62.5q-41 28 -63 64.5t-22 86.5q0 44 17.5 77.5
t48 56.5t72.5 35t91 12zM367 188q0 29 -23.5 48t-64.5 34q-41 -15 -64 -34t-23 -48q0 -26 21 -44.5t67 -18.5q45 0 66 18.5t21 44.5zM280 537q-30 0 -51 -14.5t-21 -39.5q0 -24 19 -40t52 -32q34 17 53 32.5t19 40.5q0 24 -21 38.5t-50 14.5z" />
    <glyph glyph-name="nine.tosf" 
d="M281 552q49 0 95 -18t81 -50.5t56 -77.5t21 -100q0 -29 -6 -54t-17.5 -49t-28.5 -49t-38 -53l-165 -222h-203l147 200q-37 4 -72.5 22.5t-63 48t-44.5 70t-17 88.5q0 54 21 99t56.5 77t81.5 50t96 18zM280 394q-35 0 -59.5 -24.5t-24.5 -62.5t24.5 -61.5t59.5 -23.5
t59.5 24t24.5 61t-24.5 62t-59.5 25z" />
    <glyph glyph-name="zero.slash.tosf" 
d="M279 551q54 0 102 -20t84 -57t56.5 -89t20.5 -116t-20.5 -116t-56.5 -89t-84 -57t-102 -20t-102 20t-83 57t-55.5 89t-20.5 116t20.5 116t55.5 89t83 57t102 20zM380 269q0 6 -0.5 12t-0.5 12l-148 -148q20 -13 49 -13q46 0 73 36t27 101zM280 406q-46 0 -73 -35.5
t-27 -101.5v-14l141 141q-20 10 -41 10z" />
    <glyph glyph-name="zero.dnom" horiz-adv-x="429" 
d="M214 425q45 0 78 -16.5t55.5 -45t33.5 -67.5t11 -84q0 -46 -11 -86t-33.5 -69.5t-56 -46.5t-77.5 -17t-77.5 17t-55.5 46.5t-33 69.5t-11 86q0 45 11 84t33 67.5t55.5 45t77.5 16.5zM214 313q-26 0 -39 -22.5t-13 -79.5t13 -81.5t39 -24.5t39.5 24.5t13.5 81.5
t-13.5 79.5t-39.5 22.5z" />
    <glyph glyph-name="one.dnom" horiz-adv-x="382" 
d="M263 111h83v-110h-307v110h102v196h-91v110h213v-306z" />
    <glyph glyph-name="two.dnom" horiz-adv-x="395" 
d="M193 425q33 0 62 -10.5t50.5 -29t33.5 -44t12 -56.5q0 -47 -27 -87t-64 -80l-7 -7h104v-110l-325 -1v25l149 164q26 29 35.5 48.5t9.5 36.5q0 20 -10 29.5t-25 9.5q-14 0 -24 -9t-10 -32q0 -5 0.5 -11.5t1.5 -15.5h-122q-2 10 -3 18.5t-1 16.5q0 27 11 53t32 46.5
t50.5 33t66.5 12.5z" />
    <glyph glyph-name="three.dnom" horiz-adv-x="364" 
d="M329 385l-77 -119q32 -14 57 -45.5t25 -79.5q0 -32 -12.5 -59t-35 -46.5t-53 -31t-65.5 -11.5q-57 0 -99 27.5t-63 75.5l84 59q18 -28 34.5 -39t38.5 -11q20 0 33 8.5t13 27.5q0 18 -15.5 25.5t-48.5 7.5h-53v30l66 103h-117v110h288v-32z" />
    <glyph glyph-name="four.dnom" horiz-adv-x="387" 
d="M336 159h45v-100h-45v-58h-112v58h-215v32l121 326h126l-97 -258h65v95h112v-95z" />
    <glyph glyph-name="five.dnom" horiz-adv-x="373" 
d="M322 307h-152v-33q16 4 35 4q24 0 49 -9t44.5 -26.5t32 -42.5t12.5 -57t-13 -59.5t-35.5 -47.5t-54 -31.5t-67.5 -11.5q-58 0 -101.5 27.5t-64.5 75.5l84 59q19 -28 36 -39t40 -11q21 0 36 8.5t15 27.5q0 18 -15.5 25.5t-48.5 7.5h-100v243h268v-110z" />
    <glyph glyph-name="six.dnom" horiz-adv-x="374" 
d="M235 295q21 -5 42 -17t37.5 -30.5t26.5 -43t10 -54.5q0 -35 -14 -64t-36.5 -49.5t-52.5 -32t-61 -11.5q-32 0 -61.5 11.5t-52.5 32.5t-36.5 50t-13.5 65q0 35 14.5 63.5t42.5 64.5l104 137h143zM187 195q-18 0 -31 -12.5t-13 -32.5t13 -32.5t31 -12.5t31 12.5t13 32.5
t-13 32.5t-31 12.5z" />
    <glyph glyph-name="seven.dnom" horiz-adv-x="358" 
d="M342 385l-169 -384h-132l140 306h-145v110h306v-32z" />
    <glyph glyph-name="eight.dnom" horiz-adv-x="392" 
d="M196 425q31 0 58.5 -7.5t47 -22.5t31 -37t11.5 -50q0 -31 -13 -53.5t-36 -39.5q67 -31 67 -98q0 -30 -13 -53t-35.5 -38.5t-52.5 -24t-65 -8.5t-65 8.5t-52.5 24t-35.5 38.5t-13 53q0 67 67 98q-23 17 -36 40t-13 53q0 28 11.5 50t31 37t46.5 22.5t59 7.5zM241 122
q0 15 -12 25t-34 18q-21 -8 -33 -18t-12 -25q0 -14 10.5 -23t35.5 -9q24 0 34.5 9t10.5 23zM196 329q-15 0 -26 -7t-11 -20q0 -12 10 -20.5t27 -17.5q17 9 27 17.5t10 20.5q0 13 -11 20t-26 7z" />
    <glyph glyph-name="nine.dnom" horiz-adv-x="374" 
d="M187 425q32 0 61.5 -11.5t52.5 -32.5t36.5 -50t13.5 -65q0 -35 -14.5 -63.5t-42.5 -64.5l-104 -137h-143l92 122q-21 4 -42 16t-37.5 30.5t-26.5 43.5t-10 55q0 35 14 64t36.5 49.5t52 32t61.5 11.5zM187 313q-18 0 -31 -12.5t-13 -32.5t13 -32.5t31 -12.5t31 12.5
t13 32.5t-13 32.5t-31 12.5z" />
    <glyph glyph-name="zero.numr" horiz-adv-x="429" 
d="M214 668q45 0 78 -16.5t55.5 -45t33.5 -67.5t11 -84q0 -46 -11 -86t-33.5 -69.5t-56 -46.5t-77.5 -17t-77.5 17t-55.5 46.5t-33 69.5t-11 86q0 45 11 84t33 67.5t55.5 45t77.5 16.5zM214 556q-26 0 -39 -22.5t-13 -79.5t13 -81.5t39 -24.5t39.5 24.5t13.5 81.5
t-13.5 79.5t-39.5 22.5z" />
    <glyph glyph-name="one.numr" horiz-adv-x="382" 
d="M263 354h83v-110h-307v110h102v196h-91v110h213v-306z" />
    <glyph glyph-name="two.numr" horiz-adv-x="395" 
d="M193 668q33 0 62 -10.5t50.5 -29t33.5 -44t12 -56.5q0 -47 -27 -87t-64 -80l-7 -7h104v-110l-325 -1v25l149 164q26 29 35.5 48.5t9.5 36.5q0 20 -10 29.5t-25 9.5q-14 0 -24 -9t-10 -32q0 -5 0.5 -11.5t1.5 -15.5h-122q-2 10 -3 18.5t-1 16.5q0 27 11 53t32 46.5
t50.5 33t66.5 12.5z" />
    <glyph glyph-name="three.numr" horiz-adv-x="364" 
d="M329 628l-77 -119q32 -14 57 -45.5t25 -79.5q0 -32 -12.5 -59t-35 -46.5t-53 -31t-65.5 -11.5q-57 0 -99 27.5t-63 75.5l84 59q18 -28 34.5 -39t38.5 -11q20 0 33 8.5t13 27.5q0 18 -15.5 25.5t-48.5 7.5h-53v30l66 103h-117v110h288v-32z" />
    <glyph glyph-name="four.numr" horiz-adv-x="387" 
d="M336 402h45v-100h-45v-58h-112v58h-215v32l121 326h126l-97 -258h65v95h112v-95z" />
    <glyph glyph-name="five.numr" horiz-adv-x="373" 
d="M322 550h-152v-33q16 4 35 4q24 0 49 -9t44.5 -26.5t32 -42.5t12.5 -57t-13 -59.5t-35.5 -47.5t-54 -31.5t-67.5 -11.5q-58 0 -101.5 27.5t-64.5 75.5l84 59q19 -28 36 -39t40 -11q21 0 36 8.5t15 27.5q0 18 -15.5 25.5t-48.5 7.5h-100v243h268v-110z" />
    <glyph glyph-name="six.numr" horiz-adv-x="374" 
d="M235 538q21 -5 42 -17t37.5 -30.5t26.5 -43t10 -54.5q0 -35 -14 -64t-36.5 -49.5t-52.5 -32t-61 -11.5q-32 0 -61.5 11.5t-52.5 32.5t-36.5 50t-13.5 65q0 35 14.5 63.5t42.5 64.5l104 137h143zM187 438q-18 0 -31 -12.5t-13 -32.5t13 -32.5t31 -12.5t31 12.5t13 32.5
t-13 32.5t-31 12.5z" />
    <glyph glyph-name="seven.numr" horiz-adv-x="358" 
d="M342 628l-169 -384h-132l140 306h-145v110h306v-32z" />
    <glyph glyph-name="eight.numr" horiz-adv-x="392" 
d="M196 668q31 0 58.5 -7.5t47 -22.5t31 -37t11.5 -50q0 -31 -13 -53.5t-36 -39.5q67 -31 67 -98q0 -30 -13 -53t-35.5 -38.5t-52.5 -24t-65 -8.5t-65 8.5t-52.5 24t-35.5 38.5t-13 53q0 67 67 98q-23 17 -36 40t-13 53q0 28 11.5 50t31 37t46.5 22.5t59 7.5zM241 365
q0 15 -12 25t-34 18q-21 -8 -33 -18t-12 -25q0 -14 10.5 -23t35.5 -9q24 0 34.5 9t10.5 23zM196 572q-15 0 -26 -7t-11 -20q0 -12 10 -20.5t27 -17.5q17 9 27 17.5t10 20.5q0 13 -11 20t-26 7z" />
    <glyph glyph-name="nine.numr" horiz-adv-x="374" 
d="M187 668q32 0 61.5 -11.5t52.5 -32.5t36.5 -50t13.5 -65q0 -35 -14.5 -63.5t-42.5 -64.5l-104 -137h-143l92 122q-21 4 -42 16t-37.5 30.5t-26.5 43.5t-10 55q0 35 14 64t36.5 49.5t52 32t61.5 11.5zM187 556q-18 0 -31 -12.5t-13 -32.5t13 -32.5t31 -12.5t31 12.5
t13 32.5t-13 32.5t-31 12.5z" />
    <glyph glyph-name="backslash.case" horiz-adv-x="677" 
d="M177 761l500 -861h-177l-500 861h177z" />
    <glyph glyph-name="periodcentered.case" horiz-adv-x="270" 
d="M137 456q24 0 44.5 -9t35 -24t23 -35.5t8.5 -43.5q0 -24 -8.5 -44.5t-23 -35.5t-35 -23.5t-44.5 -8.5q-51 0 -82.5 32t-31.5 80q0 47 31.5 79.5t82.5 32.5z" />
    <glyph glyph-name="bullet.case" horiz-adv-x="459" 
d="M230 471q39 0 72 -13.5t57.5 -37.5t38.5 -56.5t14 -69.5t-14 -69.5t-38.5 -56.5t-57.5 -37.5t-72 -13.5q-38 0 -71.5 13.5t-58.5 37.5t-39 56.5t-14 69.5t14 69.5t39 56.5t58.5 37.5t71.5 13.5z" />
    <glyph glyph-name="slash.case" horiz-adv-x="677" 
d="M177 -100h-177l500 861h177z" />
    <glyph glyph-name="comma.subs" horiz-adv-x="201" 
d="M134 -255h-100l1 243h144z" />
    <glyph glyph-name="period.subs" horiz-adv-x="201" 
d="M102 37q35 0 58.5 -24t23.5 -59t-23.5 -59t-58.5 -24q-38 0 -61.5 24t-23.5 59t23.5 59t61.5 24z" />
    <glyph glyph-name="braceleft.case" horiz-adv-x="423" 
d="M301 -100q-78 0 -121.5 34t-43.5 112q0 22 3 44.5t7 44t7 40.5t3 34q0 26 -12.5 37.5t-38.5 11.5h-65v144h65q26 0 38.5 11.5t12.5 37.5q0 15 -3 34t-7 40.5t-7 44t-3 44.5q0 78 43.5 112t121.5 34h92v-134h-62q-24 0 -38.5 -13.5t-14.5 -39.5q0 -13 3 -32.5t7 -41.5
t7 -43.5t3 -38.5q0 -38 -18.5 -59t-57.5 -29q40 -8 58 -28.5t18 -57.5q0 -17 -3 -38.5t-7 -43.5t-7 -41.5t-3 -32.5q0 -26 14.5 -39.5t38.5 -13.5h62v-134h-92z" />
    <glyph glyph-name="braceright.case" horiz-adv-x="423" 
d="M30 34h62q24 0 38.5 13.5t14.5 39.5q0 13 -3 32.5t-7 41.5t-7 43.5t-3 38.5q0 37 18 57.5t58 28.5q-39 8 -57.5 29t-18.5 59q0 17 3 38.5t7 43.5t7 41.5t3 32.5q0 26 -14.5 39.5t-38.5 13.5h-62v134h92q78 0 121.5 -34t43.5 -112q0 -22 -3 -44.5t-7 -44t-7 -40.5t-3 -34
q0 -26 12.5 -37.5t38.5 -11.5h65v-144h-65q-26 0 -38.5 -11.5t-12.5 -37.5q0 -15 3 -34t7 -40.5t7 -44t3 -44.5q0 -78 -43.5 -112t-121.5 -34h-92v134z" />
    <glyph glyph-name="bracketleft.case" horiz-adv-x="367" 
d="M337 626h-113v-592h113v-134h-255v860h255v-134z" />
    <glyph glyph-name="bracketright.case" horiz-adv-x="367" 
d="M285 -100h-255v134h113v592h-113v134h255v-860z" />
    <glyph glyph-name="parenleft.case" horiz-adv-x="386" 
d="M362 669q-32 -21 -60.5 -50.5t-49.5 -70t-33.5 -94.5t-12.5 -124q0 -71 12.5 -124.5t33.5 -94t49.5 -70t60.5 -50.5l-67 -98q-47 21 -89.5 57.5t-74.5 90.5t-50.5 126t-18.5 163t18.5 163t50.5 126t74.5 90.5t89.5 57.5z" />
    <glyph glyph-name="parenright.case" horiz-adv-x="386" 
d="M91 767q47 -21 89.5 -57.5t74.5 -90.5t50.5 -126t18.5 -163t-18.5 -163t-50.5 -126t-74.5 -90.5t-89.5 -57.5l-67 98q32 21 60.5 50.5t49.5 70t33.5 94t12.5 124.5q0 70 -12.5 124t-33.5 94.5t-49.5 70t-60.5 50.5z" />
    <glyph glyph-name="emdash.case" horiz-adv-x="1000" 
d="M950 273h-900v144h900v-144z" />
    <glyph glyph-name="endash.case" horiz-adv-x="500" 
d="M470 273h-440v144h440v-144z" />
    <glyph glyph-name="uni2015.case" horiz-adv-x="1000" 
d="M950 273h-900v144h900v-144z" />
    <glyph glyph-name="hyphen.case" horiz-adv-x="340" 
d="M300 273h-260v144h260v-144z" />
    <glyph glyph-name="uni00AD.case" horiz-adv-x="340" 
d="M300 273h-260v144h260v-144z" />
    <glyph glyph-name="guillemotleft.case" horiz-adv-x="658" 
d="M338 454l-130 -150l130 -150l-109 -95l-206 222v45l206 223zM633 454l-130 -150l130 -150l-109 -95l-206 222v45l206 223z" />
    <glyph glyph-name="guillemotright.case" horiz-adv-x="658" 
d="M340 326v-45l-206 -222l-109 95l130 150l-130 150l109 95zM635 326v-45l-206 -222l-109 95l130 150l-130 150l109 95z" />
    <glyph glyph-name="guilsinglleft.case" horiz-adv-x="363" 
d="M338 454l-130 -150l130 -150l-109 -95l-206 222v45l206 223z" />
    <glyph glyph-name="guilsinglright.case" horiz-adv-x="363" 
d="M340 326v-45l-206 -222l-109 95l130 150l-130 150l109 95z" />
    <glyph glyph-name="comma.sups" horiz-adv-x="201" 
d="M134 229h-100l1 243h144z" />
    <glyph glyph-name="period.sups" horiz-adv-x="201" 
d="M102 521q35 0 58.5 -24t23.5 -59t-23.5 -59t-58.5 -24q-38 0 -61.5 24t-23.5 59t23.5 59t61.5 24z" />
    <glyph glyph-name="cent.tf" 
d="M352 583q61 -11 105.5 -45t70.5 -85l-119 -91q-18 28 -42 47.5t-61 19.5q-46 0 -72.5 -29t-26.5 -75t26.5 -75t72.5 -29q37 0 61 19t42 47l119 -90q-26 -51 -70.5 -85.5t-105.5 -44.5v-166h-144v178q-39 13 -71.5 37t-56 56t-36.5 70.5t-13 82.5q0 43 13 82t36.5 71
t56 55.5t71.5 37.5v177h144v-165z" />
    <glyph glyph-name="dollar.tf" 
d="M345 628q53 -13 88.5 -44.5t57.5 -73.5l-114 -87q-22 32 -47 47t-54 15q-20 0 -33.5 -7t-13.5 -23q0 -14 12 -23t38 -18l75 -23q82 -29 119.5 -74t37.5 -108q0 -75 -46.5 -122t-119.5 -61v-125h-144v128q-117 29 -169 133l114 87q52 -79 135 -79q26 0 44 8.5t18 27.5
q0 17 -16 26.5t-44 19.5l-67 22q-75 26 -115 72.5t-40 109.5t38.5 107.5t101.5 61.5v123h144v-120z" />
    <glyph glyph-name="uni20B4.tf" 
d="M550 192h-331q0 -26 17 -36t49 -10q29 0 71 8.5t85 31.5l72 -122q-56 -45 -116.5 -60.5t-111.5 -15.5q-112 0 -176.5 53.5t-65.5 150.5h-32v114h539v-114zM270 672q52 0 94.5 -14t73 -40t47 -62t16.5 -81v-11h49v-114h-539v114h313q1 3 1 10q0 21 -15 30.5t-41 9.5
q-27 0 -59 -10.5t-61 -30.5l-82 118q23 24 48.5 40t52 25t52.5 12.5t50 3.5z" />
    <glyph glyph-name="currency.tf" 
d="M191 523q18 6 37.5 9.5t40.5 3.5q25 0 48 -5t44 -13l95 95l102 -102l-87 -86q13 -22 20 -47t7 -52q0 -55 -26 -99l86 -88l-102 -102l-93 96q-45 -17 -93 -17q-46 0 -82 13l-83 -92l-102 102l71 77q-31 50 -31 110q0 58 33 108l-73 77l102 102zM270 378q-25 0 -38.5 -14
t-13.5 -38q0 -52 53 -52q23 0 37 13.5t14 38.5q0 24 -14.5 38t-37.5 14z" />
    <glyph glyph-name="Euro.tf" 
d="M428 192h-129q38 -46 109 -46q47 0 104 20l42 -147q-35 -16 -75 -23.5t-78 -7.5q-56 0 -103 14.5t-84.5 41.5t-65.5 64.5t-45 83.5h-83v114h60v25v19h-60v114h81q16 46 43.5 84.5t65.5 66t86 42.5t104 15q39 0 79 -7.5t75 -23.5l-42 -147q-54 20 -104 20q-72 0 -113 -50
h209l-32 -114h-216v-20v-12.5t1 -11.5h203z" />
    <glyph glyph-name="florin.tf" 
d="M467 266h-122l-23 -196q-14 -111 -71.5 -157t-153.5 -46q-29 0 -52.5 3.5t-39.5 8.5l-1 144q14 -1 30 -1.5t27 -0.5q44 0 65 14t26 52l21 179h-89v144h107l7 59q13 111 71 157t154 46q29 0 53 -3.5t40 -8.5v-144q-14 1 -30 1.5t-27 0.5q-35 0 -60.5 -12.5t-30.5 -53.5
l-5 -42h104v-144z" />
    <glyph glyph-name="lira.tf" 
d="M411 166h-96q-4 -16 -14 -32h241v-134h-520v35q45 35 75.5 66t44.5 65h-110v104h113q-4 11 -9 22t-11 22h-93v104h46q-6 22 -6 51q0 47 18.5 84.5t50 64t74.5 40.5t92 14q43 0 82 -11.5t70.5 -35t55.5 -60t37 -85.5l-141 -51q-27 85 -92 85q-34 0 -53.5 -20.5
t-19.5 -54.5v-11t2 -10h163v-104h-112q12 -20 19 -44h93v-104z" />
    <glyph glyph-name="uni20BA.tf" 
d="M430 336l-157 -72v-113q59 10 94.5 37.5t35.5 75.5v20t-1 20h140q7 -24 7 -55q0 -136 -114.5 -198.5t-333.5 -62.5v198l-77 -35v139l77 35v44l-77 -35v139l77 35v152h172v-74l157 72v-139l-157 -72v-44l157 72v-139z" />
    <glyph glyph-name="peseta.tf" 
d="M560 331h-65q-11 -46 -37 -83t-62.5 -62.5t-82 -39t-95.5 -13.5v-133h-162v331h-56v134h56v195h162q51 0 96 -13.5t81.5 -38.5t62.5 -61.5t37 -81.5h65v-134zM219 273q42 0 74 16t46 53h-121v-69h1zM218 520v-66h120q-14 35 -45.5 50.5t-73.5 15.5h-1z" />
    <glyph glyph-name="uni20BD.tf" 
d="M311 660q46 0 86.5 -13t70.5 -38t47.5 -62.5t17.5 -85.5q0 -49 -17.5 -86.5t-48 -63t-71 -38.5t-85.5 -13h-51v-44h204v-134h-204v-82h-162v82h-76v134h76v44h-76v144h76v256h213zM260 516v-112h48q22 0 41 13t19 42t-18.5 43t-41.5 14h-48z" />
    <glyph glyph-name="uni20B9.tf" 
d="M509 378h-78q-14 -57 -55.5 -95.5t-99.5 -58.5l233 -224h-214l-218 205v124h68q61 0 86 49h-154v114h154q-25 48 -86 48h-68v120h432v-114h-102q8 -12 14 -25.5t10 -28.5h78v-114z" />
    <glyph glyph-name="sterling.tf" 
d="M436 216h-111q-1 -18 -5.5 -36.5t-13.5 -35.5h236v-144h-520v35q60 48 95 89t37 92h-122v144h68q-12 23 -20 49.5t-8 59.5q0 47 18.5 84.5t50 64t74.5 40.5t92 14q43 0 82 -11.5t70.5 -35t55.5 -60t37 -85.5l-141 -51q-27 85 -92 85q-34 0 -53.5 -20.5t-19.5 -54.5
q0 -22 7.5 -41t18.5 -38h164v-144z" />
    <glyph glyph-name="uni20B8.tf" 
d="M503 156l-137 -35v-121h-172v76l-137 -35v139l137 35v44l-137 -35v139l137 35v107h-174v155h520v-155h-174v-62l137 35v-139l-137 -35v-44l137 35v-139z" />
    <glyph glyph-name="uni20AE.tf" 
d="M30 461h500v-155h-164v-306h-172v306h-164v155zM530 505h-500v155h500v-155z" />
    <glyph glyph-name="yen.tf" 
d="M518 72h-151v-72h-172v72h-151v134h151v44h-151v134h127l-163 276h190l83 -170l83 170h189l-163 -276h128v-134h-151v-44h151v-134z" />
    <glyph glyph-name="section.case" horiz-adv-x="616" 
d="M335 743q78 0 134 -33.5t81 -86.5l-103 -84q-17 27 -43 45t-67 18q-23 0 -35.5 -7t-12.5 -27q0 -7 2 -13t9 -12t19 -13.5t32 -18.5l80 -45q86 -46 123 -88.5t37 -99.5t-31 -95.5t-80 -58.5q4 -15 4 -34q0 -39 -14.5 -71t-41.5 -54.5t-64.5 -35t-82.5 -12.5
q-78 0 -134 33.5t-81 86.5l103 84q17 -27 43 -45t67 -18q23 0 35.5 7t12.5 27q0 7 -2 13t-9 12t-19 13.5t-32 18.5l-80 45q-86 46 -123 88.5t-37 99.5t30.5 95t79.5 58q-3 16 -3 35q0 39 14.5 71t41.5 54.5t64.5 35t82.5 12.5zM263 399q-31 17 -58 36q-10 -8 -16.5 -19.5
t-6.5 -25.5q0 -17 15.5 -34.5t62.5 -43.5l80 -44q20 -11 37.5 -22t31.5 -22q11 8 18 20t7 26q0 17 -15.5 34.5t-62.5 43.5z" />
    <glyph glyph-name="acute.case" horiz-adv-x="331" 
d="M301 880l-147 -156h-124l64 186h207v-30z" />
    <glyph glyph-name="breve.case" horiz-adv-x="432" 
d="M402 910q0 -41 -13.5 -75t-38 -58.5t-59 -38.5t-75.5 -14t-75.5 14t-59 38.5t-38 58.5t-13.5 75h133q0 -28 14.5 -44t38.5 -16t38.5 16t14.5 44h133z" />
    <glyph glyph-name="dieresis.case" horiz-adv-x="530" 
d="M402 910q41 0 69.5 -26.5t28.5 -67.5q0 -18 -7.5 -35t-21 -30t-31.5 -20.5t-38 -7.5q-18 0 -35.5 7.5t-31 20.5t-22 30t-8.5 35q0 20 8.5 37.5t22 30t31 19.5t35.5 7zM127 911q41 0 69.5 -26.5t28.5 -67.5q0 -18 -7.5 -35t-21 -30t-31.5 -20.5t-38 -7.5q-18 0 -35.5 7.5
t-31 20.5t-22 30t-8.5 35q0 20 8.5 37.5t22 30t31 19.5t35.5 7z" />
    <glyph glyph-name="grave.case" horiz-adv-x="323" 
d="M293 724h-124l-147 156v30h207z" />
    <glyph glyph-name="hungarumlaut.case" horiz-adv-x="540" 
d="M510 880l-127 -156h-114l64 186h177v-30zM271 880l-127 -156h-114l64 186h177v-30z" />
    <glyph glyph-name="acute.loclPLK.case" horiz-adv-x="291" 
d="M54 910h207v-30l-107 -156h-124z" />
    <glyph glyph-name="macron.case" horiz-adv-x="400" 
d="M370 745h-340v134h340v-134z" />
    <glyph glyph-name="dieresis.i" horiz-adv-x="500" 
d="M372 771q41 0 69.5 -26.5t28.5 -67.5q0 -18 -7.5 -35t-21 -30t-31.5 -20.5t-38 -7.5q-18 0 -35.5 7.5t-31 20.5t-22 30t-8.5 35q0 20 8.5 37.5t22 30t31 19.5t35.5 7zM127 771q41 0 69.5 -26.5t28.5 -67.5q0 -18 -7.5 -35t-21 -30t-31.5 -20.5t-38 -7.5q-18 0 -35.5 7.5
t-31 20.5t-22 30t-8.5 35q0 20 8.5 37.5t22 30t31 19.5t35.5 7z" />
    <glyph glyph-name="commaaccentup" horiz-adv-x="220" 
d="M190 574h-160l36 206h124v-206z" />
    </font>
</defs>
</svg>
